<svg width="191" height="214" viewBox="0 0 191 214" fill="none" xmlns="http://www.w3.org/2000/svg">
<g clip-path="url(#clip0_1173_5795)">
<path d="M181.674 47.248L103.789 2.28178C98.4956 -0.760593 91.9849 -0.760593 86.7216 2.28178L8.83691 47.248C3.54318 50.2904 0.287842 55.9492 0.287842 62.034V151.967C0.287842 158.082 3.54318 163.71 8.83691 166.752L86.7216 211.719C92.0154 214.761 98.526 214.761 103.789 211.719L181.674 166.752C186.968 163.71 190.223 158.051 190.223 151.967V62.034C190.223 55.9188 186.968 50.2904 181.674 47.248ZM14.6174 160.303C19.8503 154.674 34.3624 149.959 53.9553 147.16L53.8336 75.8463L75.2823 62.0035V144.999C81.1541 144.634 87.2693 144.421 93.567 144.391V74.9945L79.6025 67.6015V49.8036L101.051 31.4581V144.452C101.964 144.452 102.877 144.482 103.789 144.513V110.986L117.571 104.019V69.7008L136.038 85.369V109.343L125.451 103.38L125.116 145.79C129.832 146.247 134.335 146.794 138.594 147.464V120.569L146.474 125.741V148.833C160.986 151.662 171.573 155.709 175.863 160.303C136.556 148.194 53.9553 148.164 14.587 160.303H14.6174Z" fill="#7F56D9"/>
</g>
<defs>
<clipPath id="clip0_1173_5795">
<rect width="189.905" height="214" fill="white" transform="translate(0.287842)"/>
</clipPath>
</defs>
</svg>
