<svg width="560" height="400" viewBox="0 0 560 400" fill="none" xmlns="http://www.w3.org/2000/svg">
<rect width="560" height="400" rx="8" fill="white"/>
<path d="M193.084 89.6241C193.202 91.5441 190.508 98.0521 180.498 72.5581C179.398 69.7541 179.94 67.3241 182.406 68.6661C185.848 70.5421 193.186 88.0581 193.084 89.6241Z" fill="#7F56D9"/>
<path d="M235.142 77.8082C233.914 81.4982 229.972 81.4442 230.816 76.0142C234.928 49.5402 245.062 47.9802 235.142 77.8082Z" fill="#7F56D9"/>
<path d="M137.992 103.114C140.89 103.452 145.42 105.426 151.886 108.218C156.722 110.306 155.282 114.29 152.16 113.122C147.222 111.276 142.168 109.708 137.5 107.194C134.242 105.44 133.9 103.024 137.994 103.112L137.992 103.114Z" fill="#7F56D9"/>
<path fill-rule="evenodd" clip-rule="evenodd" d="M137.34 147.464C97.1521 170.832 91.8241 174.112 92.2081 176.454C92.2681 176.824 92.4721 177.17 92.7021 177.568L187.108 338.506C188.484 340.838 189.056 341.922 189.852 342.122C190.646 342.32 191.662 341.638 193.916 340.438C207.558 333.178 221.068 325.672 234.53 318.084C265.172 300.814 284.834 290.028 297.368 283.15C300.672 281.338 303.482 279.796 305.866 278.48C301.068 280.164 295.686 282.06 289.656 284.2L289.272 284.338L283.538 286.386C262.588 298.004 237.038 312.196 228.39 316.998L225.366 318.676C196.018 334.766 191.922 338.594 190.376 337.75C190.068 337.584 189.862 337.232 189.578 336.754L96.0201 177.874C95.2541 176.578 95.5081 176.432 103.406 171.882C106.355 170.189 109.296 168.482 112.23 166.762C112.256 166.746 123.536 160.182 138.796 151.27L137.34 147.464Z" fill="#101828"/>
<path d="M241.926 126.638C241.906 128.294 242.404 127.74 221.496 136.186C209.144 141.176 179.072 153.26 166.494 157.66C163.918 158.562 164.354 158.086 158.296 143.126C157.338 140.762 157.598 140.368 160.028 139.384C176.298 132.794 211.764 118.128 232.328 110.764C235.026 109.798 235.196 109.96 236.25 112.614C238.972 119.462 240.544 122.692 241.926 126.638ZM232.752 113.628C227.816 115.362 220.954 118.846 161.6 141.678C159.936 142.318 160.746 141.952 165.432 153.82C166.048 155.382 166.378 154.674 169.928 153.254C241.898 124.466 238.862 126.9 238.246 125.474C233.074 113.48 233.48 113.374 232.75 113.63L232.752 113.628Z" fill="#101828"/>
<path d="M173.68 173.624C171.912 173.484 172 172.01 173.332 171.374C179.218 168.568 175.896 169.87 209.892 155.976C237.692 144.616 237.254 144.272 238.242 146.156C239.378 148.32 237.148 148.422 203.506 162.038C185.054 169.506 177.13 172.972 173.68 173.624Z" fill="#101828"/>
<path d="M183.226 194.128C181.13 194.204 180.96 192.184 182.3 191.462C184.204 190.438 182.3 191.2 232.912 171.95C238.512 169.822 239.852 169.35 240.394 170.97C240.96 172.66 240.196 172.824 223.002 179.354C221.842 179.794 184.468 194.084 183.226 194.128Z" fill="#101828"/>
<path d="M211.74 277.994C209.774 277.84 209.8 276.514 211.136 275.812C216.978 272.748 237.046 265.872 243.834 263.618C249.17 261.844 250.332 261.6 250.802 263.022C251.424 264.91 250.264 265.244 229.476 272.484C225.26 273.952 216.112 277.078 211.742 277.992L211.74 277.994Z" fill="#101828"/>
<path d="M179.01 183.3C177.074 183.43 176.802 181.886 177.742 181.18C178.978 180.252 177.704 180.89 206.522 169.108C207.758 168.602 208.992 168.202 209.548 169.544C210.328 171.428 207.876 171.872 204.452 173.254C179.094 183.488 182.178 182.322 179.01 183.3Z" fill="#101828"/>
<path d="M217.342 286.872C214.966 286.81 214.842 284.736 216.652 283.998C223.118 281.362 226.008 280.472 235.308 277.324C237.696 276.516 238.782 279.164 236.222 280.198C232.036 281.89 220.55 286.134 217.342 286.872Z" fill="#101828"/>
<path fill-rule="evenodd" clip-rule="evenodd" d="M260.916 224.942C257.961 229.692 256.397 235.176 256.404 240.77C256.404 257.352 269.896 270.838 286.472 270.838C303.054 270.838 316.54 257.352 316.54 240.77C316.54 237.752 316.094 234.836 315.262 232.086C314.422 232.522 313.55 232.93 312.646 233.31C313.338 235.738 313.688 238.25 313.686 240.774C313.686 255.782 301.48 267.988 286.472 267.988C271.464 267.988 259.258 255.782 259.258 240.774C259.258 235.638 260.688 230.83 263.172 226.726C262.402 226.155 261.65 225.56 260.916 224.942Z" fill="#7F56D9"/>
<path fill-rule="evenodd" clip-rule="evenodd" d="M341.848 261.252L326.738 222.13C326.078 223.092 325.354 224.022 324.568 224.914C328.71 235.646 333.174 247.182 337.982 259.586C338.332 260.49 338.17 260.71 337.306 260.996C334.188 262.026 270.116 284.82 248.804 292.402L248.792 292.406L248.78 292.41L241.978 294.83C232.462 298.143 223.001 301.612 213.598 305.234C206.854 307.82 205.084 308.5 204.322 307.898C204.052 307.684 203.91 307.308 203.716 306.798L203.708 306.78L137.526 134.688C137.006 133.354 137.254 133.262 144.586 130.502C148.181 129.155 151.766 127.784 155.342 126.388L155.736 126.238C162.304 123.75 249.104 90.8601 268.474 82.9961L268.594 82.9461C268.741 82.8717 268.9 82.8242 269.064 82.8061C269.674 82.7801 270.324 83.6801 272.388 88.7141C273.047 88.0572 273.76 87.457 274.52 86.9201L272 80.4001L271.968 80.3401C271.748 79.9281 271.57 79.5881 271.298 79.3581C270.05 78.2981 266.85 79.5381 248.928 86.4841C241.08 89.5241 230.412 93.6581 215.848 99.1721C207.704 102.254 200.36 105.032 193.738 107.534C140.712 127.578 134.01 130.112 134.004 132.662C134.004 133.03 134.142 133.402 134.302 133.822L134.308 133.842L200.986 308.108L201.22 308.72C202.026 310.826 202.41 311.826 203.098 312.126C203.72 312.398 204.592 312.096 206.254 311.52C206.596 311.402 206.972 311.272 207.386 311.134C222.036 306.218 236.594 301.03 251.124 295.756C273.687 287.554 296.301 279.495 318.966 271.58C338.682 264.678 341.94 263.538 342.048 262.152C342.07 261.878 341.968 261.594 341.846 261.254L341.848 261.252Z" fill="#101828"/>
<path fill-rule="evenodd" clip-rule="evenodd" d="M267.702 227.396C236.162 207.304 248.046 169.112 278.008 165.208C279.322 166.188 280.746 167.202 282.296 168.262C279.054 168.382 275.816 168.962 272.652 170.084C238.266 182.278 250.28 224.616 285.988 230.53C285.584 231.656 285.19 232.785 284.806 233.918C278.736 232.838 272.84 230.67 267.702 227.396ZM302.756 233.948C317.534 231.28 329.71 221.752 329.778 205.634C329.781 204.911 329.759 204.188 329.71 203.466C328.525 202.866 327.353 202.24 326.194 201.59C328.39 212.574 323.44 223.46 306.662 229.282C305.676 229.624 304.626 229.896 303.542 230.114L302.756 233.948ZM304.82 223.846C314.344 220.826 321.594 213.744 321.642 202.744C321.648 201.363 321.534 199.984 321.302 198.622C320.155 197.873 319.026 197.098 317.914 196.298C321.226 205.504 318.604 215.19 305.492 220.524L304.82 223.846ZM299.724 198.986C287.558 201.44 268.852 192.236 280.048 174.026C249.822 180.444 257.37 218.662 289.036 222.48C288.68 223.376 288.334 224.264 287.996 225.14C282.692 224.41 277.494 222.63 273.028 219.786C247.74 203.678 258.204 172.986 282.328 170.946C282.848 170.378 283.386 169.862 283.93 169.378C284.814 169.988 285.672 170.588 286.508 171.182C284.866 172.652 282.762 175.542 280.126 181.576C275.732 191.628 293.516 199.216 302.008 194.868C301.221 196.227 300.459 197.6 299.724 198.988V198.986ZM307.186 187.706C307.095 187.628 307.004 187.551 306.912 187.474C306.873 187.635 306.833 187.796 306.79 187.956C306.916 187.865 307.049 187.78 307.186 187.706Z" fill="#101828"/>
<path d="M314.044 190.874C298.808 178.648 303.648 180.274 283.878 166.868C271.66 158.584 267.534 153.414 262.596 143.268C260.214 138.378 258.086 133.338 256.998 127.94C256.512 125.526 257.328 123.584 259.55 122.578C273.478 116.276 284.632 143.778 299.994 145.454C305.224 146.024 302.04 140.314 298.89 136.204C287.352 121.156 284.372 113.488 275.57 111.33C274.09 110.968 273.21 110.81 273.278 110.094C273.438 108.422 278.366 107.712 283.968 112.162C286.766 114.382 287.8 115.696 302.33 135.854C309.444 145.724 304.136 149.246 300.014 148.42C291.09 146.63 284.894 140.926 272.706 128.512C265.426 121.096 257.84 124.296 259.204 128.006C272.462 164.098 280.142 156.494 306.288 179.004C312.746 184.564 323.412 195.542 345.472 203.764C355.62 207.546 366.02 208.2 369.054 209.99C375.406 213.74 341.97 213.284 314.044 190.874Z" fill="#101828"/>
<path d="M401.842 165.46C408.662 166.6 459.434 205.024 464.962 209.18C469.556 212.634 469.684 216.348 460 209.958C443.892 199.33 427.422 185.7 404.308 169.592C400.528 166.958 404.688 173.922 390.626 196.248C384.85 205.418 372.438 217.476 370.294 219.096C369.01 220.066 366.232 218.36 422.626 285.55C426.776 290.496 425.728 293.048 419.744 286.822C409.832 276.508 381.362 241.56 377.002 235.57C365.172 219.322 365.974 219.936 368.68 216.95C381.448 202.87 385.978 198.49 393.178 183.386C400.744 167.514 399.216 165.774 401.842 165.46Z" fill="#101828"/>
<path d="M298.188 92.1601C310.672 100.4 317.562 104.188 322.324 111.588C325.08 115.872 323.23 117.602 319.34 112.48C314.62 106.266 294.826 91.3001 282.538 89.3261C276.642 88.3801 268.632 100.51 265.952 105.846C262.956 111.814 267.334 118.986 265.52 119.32C265.06 119.404 264.882 119.044 264.724 118.7C259.56 107.488 263.676 101.406 273.13 90.8801C282.584 80.3521 293.674 91.3901 296.042 90.3401C312.712 82.9501 338.596 105.09 336.824 107.028C335.052 108.968 324.56 94.0921 305.636 90.9521C303.084 90.5281 300.736 91.1521 298.188 92.1541V92.1581V92.1601Z" fill="#101828"/>
<path d="M349.146 97.9683C364.448 98.3443 372.746 114.942 377.844 129.372C382.678 143.052 386.302 151.292 394.938 165.27C398.168 170.496 395.59 172 391.412 164.516C371.236 128.376 372.38 105.132 349.786 99.9323C347.556 99.4183 347.074 99.2023 347.1 98.6243C347.136 97.8203 348.112 97.9423 349.146 97.9683Z" fill="#101828"/>
<path d="M326.364 91.3521C338.656 91.1781 351.616 103.712 350.602 105.07C349.424 106.648 345.364 100.156 334.156 94.9961C328.212 92.2601 320.856 93.8761 320.856 92.3101C320.856 91.2301 321.978 91.4161 326.364 91.3521Z" fill="#101828"/>
<path d="M309.192 191.046C308.258 198.074 295.636 257.932 295.624 257.998C293.52 268.738 285.022 258.284 261.61 235.416C256.31 230.238 260.126 231.12 267.024 233.818C284.272 240.564 283.602 245.01 284.706 241.074C289.624 223.564 308.474 181.412 309.192 191.046Z" fill="#7F56D9"/>
</svg>
