<svg width="560" height="400" viewBox="0 0 560 400" fill="none" xmlns="http://www.w3.org/2000/svg">
<rect width="560" height="400" fill="white"/>
<path d="M209.704 153.526C209.701 149.89 209.338 146.264 208.622 142.7C208.681 141.367 208.56 140.032 208.26 138.732C207.9 138.37 207.178 137.288 206.816 138.37C205.734 141.618 206.456 145.588 206.096 148.834C206.096 154.248 206.096 159.298 205.734 164.712C205.734 166.512 205.012 169.04 202.848 169.04C200.05 168.764 197.275 168.282 194.548 167.598C191.913 167.303 189.261 167.182 186.61 167.236C178.672 167.958 169.258 171.552 165.682 179.504C164.952 181.163 164.606 182.966 164.669 184.777C164.731 186.589 165.201 188.363 166.044 189.968C167.837 193.225 170.805 195.677 174.342 196.824H173.982C168.93 198.624 163.972 195.686 161.354 191.412C158.216 186.292 158.106 179.866 158.828 174.454C158.828 174.31 158.771 174.172 158.669 174.071C158.568 173.969 158.43 173.912 158.286 173.912C158.142 173.912 158.004 173.969 157.903 174.071C157.801 174.172 157.744 174.31 157.744 174.454C156.662 179.504 155.832 184.588 157.384 189.608C158.006 191.723 159.066 193.684 160.496 195.362C161.925 197.041 163.692 198.4 165.682 199.35C176.532 204.35 185.882 192.856 190.94 184.918C193.466 180.948 196.352 176.98 197.436 172.288C199.224 172.587 201.036 172.709 202.848 172.65C204.419 172.67 205.937 172.079 207.081 171.002C208.226 169.925 208.907 168.446 208.982 166.876C209.702 162.465 209.944 157.989 209.704 153.526ZM179.034 193.938C176.146 191.772 172.538 191.412 170.374 188.164C167.488 183.114 171.444 178.406 175.426 175.536C180.081 172.037 185.858 170.368 191.662 170.846C192.776 170.913 193.872 171.156 194.91 171.566C194.188 171.566 190.58 184.556 179.034 193.938Z" fill="#101828"/>
<path d="M177.6 176.98C175.8 177.34 176.132 180.954 176.518 182.392C176.694 183.062 177.003 183.69 177.428 184.238C177.853 184.786 178.384 185.242 178.989 185.579C179.595 185.916 180.262 186.127 180.952 186.199C181.641 186.272 182.338 186.204 183 186C183.308 185.942 183.593 185.798 183.821 185.583C184.05 185.368 184.211 185.093 184.287 184.789C184.363 184.485 184.351 184.165 184.25 183.868C184.15 183.571 183.967 183.31 183.722 183.114C182.64 182.392 181.196 182.752 180.122 181.67C179.722 181.011 179.475 180.271 179.4 179.504C179.034 178.422 178.672 176.618 177.6 176.98Z" fill="#101828"/>
<path d="M193.64 155.826C193.984 155.985 194.36 156.067 194.746 156.066C195.133 156.065 195.522 155.981 195.892 155.82C196.262 155.659 196.605 155.423 196.903 155.127C197.2 154.83 197.445 154.478 197.624 154.091C197.804 153.704 197.913 153.289 197.947 152.87C197.981 152.452 197.939 152.037 197.822 151.651C197.706 151.265 197.518 150.914 197.269 150.618C197.019 150.323 196.714 150.089 196.37 149.93C196.026 149.771 195.65 149.689 195.264 149.69C194.877 149.692 194.488 149.775 194.118 149.936C193.748 150.098 193.405 150.333 193.108 150.63C192.811 150.927 192.566 151.279 192.387 151.666C192.207 152.053 192.098 152.468 192.064 152.886C192.03 153.305 192.073 153.719 192.189 154.105C192.306 154.492 192.494 154.842 192.743 155.138C192.993 155.433 193.296 155.667 193.64 155.826Z" fill="#101828"/>
<path d="M197.074 143.422C198.012 143.496 198.9 143.876 199.6 144.504C200.428 145.104 201.4 145.588 202.126 144.504C202.488 143.784 201.876 142.634 201.404 141.98C198.976 138.61 191.834 142.85 192.384 144.504C193.148 146.8 194.658 143.422 197.074 143.422Z" fill="#101828"/>
<path d="M266 222.442C260.948 218.114 253.118 223.586 250.484 228.216C249.444 230.044 251.568 231.464 253.01 229.66L252.65 230.02C256.618 227.134 259.866 222.804 265.278 223.886C266 223.886 266.714 223.164 266 222.442Z" fill="#101828"/>
<path d="M271.044 227.134C266.258 224.734 259.594 228.25 256.972 232.186C256.61 232.906 256.25 234.71 257.694 234.35C259.506 233.482 261.203 232.391 262.744 231.102C264.188 230.382 265.632 230.02 267.074 229.302C268.563 229.156 270.022 228.792 271.404 228.22C272.486 227.856 272.126 227.494 271.044 227.134Z" fill="#101828"/>
<path d="M276.096 236.876C280.786 239.402 285.476 241.928 290.528 244.454C293.054 245.536 295.218 246.978 297.744 248.054C300.072 249.514 302.482 250.839 304.962 252.022C305.307 252.228 305.714 252.305 306.11 252.239C306.506 252.173 306.866 251.969 307.126 251.662C307.486 251.3 307.486 251.3 307.486 250.94C307.848 250.218 307.486 249.496 306.766 248.776C304.483 247.24 302.067 245.912 299.548 244.806C297.024 243.362 294.498 242.28 292.332 241.206C287.411 238.853 282.35 236.805 277.178 235.072C276.943 234.976 276.68 234.967 276.439 235.047C276.198 235.127 275.993 235.291 275.862 235.509C275.731 235.728 275.683 235.985 275.726 236.236C275.769 236.487 275.9 236.714 276.096 236.876Z" fill="#101828"/>
<path d="M268.158 242.65C272.486 245.174 277.572 247.266 282.23 249.504C284.41 250.554 286.56 251.67 289.084 252.752C291.4 254.025 293.814 255.111 296.302 256C296.576 256.069 296.865 256.042 297.121 255.924C297.378 255.806 297.586 255.604 297.712 255.351C297.838 255.099 297.875 254.811 297.815 254.535C297.755 254.259 297.603 254.012 297.384 253.834C295.056 251.506 292.304 250.766 283.672 246.618C278.965 244.246 273.999 242.43 268.872 241.206C267.8 240.844 267.074 242.288 268.158 242.65Z" fill="#101828"/>
<path d="M261.302 249.866C263.469 251.279 265.764 252.484 268.158 253.466C270.013 254.461 271.942 255.308 273.93 256C275.73 256.722 277.9 257.8 279.704 258.526C281.868 259.246 284.394 260.69 286.56 260.326C286.717 260.304 286.867 260.244 286.996 260.152C287.125 260.059 287.229 259.936 287.3 259.794C287.371 259.652 287.406 259.494 287.403 259.335C287.399 259.177 287.357 259.021 287.28 258.882C285.578 257.248 283.454 256.123 281.146 255.634C280.926 255.546 269.822 250.674 269.6 250.584C267.312 249.439 264.887 248.59 262.384 248.058C262.148 247.959 261.883 247.948 261.64 248.027C261.396 248.107 261.189 248.272 261.058 248.492C260.926 248.712 260.878 248.972 260.923 249.225C260.968 249.477 261.103 249.705 261.302 249.866Z" fill="#101828"/>
<path d="M240.734 188.164C245.491 189.776 250.529 190.389 255.534 189.964C258.408 189.964 253.228 194.476 253.008 194.656C252.822 194.808 247.666 197.506 247.596 197.542C245.078 198.802 244.894 200.79 246.152 200.79C247.367 200.866 248.586 200.744 249.762 200.428C251.128 200.086 257.672 197.238 259.142 194.294C259.592 193.28 259.729 192.155 259.536 191.062C259.344 189.969 258.83 188.959 258.06 188.16C255.878 186.378 253.028 187.258 250.482 187.438C247.244 187.67 244.348 187.078 241.102 187.438C240.584 187.43 240.012 187.8 240.734 188.164Z" fill="#101828"/>
<path d="M276.456 231.464C267.436 230.742 261.754 239.128 256.256 244.814C253.456 247.841 249.999 250.187 246.152 251.67C244.821 252.354 243.357 252.74 241.862 252.802C240.368 252.864 238.877 252.601 237.494 252.03C236.79 251.678 234.034 249.958 234.224 252.204C227.164 255.884 202.77 271.96 201.41 273.32C201.182 273.556 201.037 273.859 200.996 274.185C200.955 274.51 201.021 274.84 201.184 275.124C201.347 275.409 201.598 275.633 201.899 275.763C202.2 275.893 202.535 275.921 202.854 275.844C214.073 269.457 224.825 262.283 235.03 254.376C235.769 255.211 236.761 255.781 237.854 256C239.617 256.541 241.502 256.541 243.266 256C247.688 255.2 251.807 253.203 255.174 250.226C262.39 244.814 266.72 234.71 276.462 233.268C277.9 233.268 277.538 231.464 276.456 231.464Z" fill="#101828"/>
<path d="M120.58 235.072C126.55 247.722 128.69 261.21 134.292 274.402C136.561 280.305 139.593 285.886 143.312 291.002C146.944 295.674 151.274 300.682 157.024 302.908C162.458 305.014 170.734 305.074 173.624 299.308C173.984 298.586 172.902 297.144 172.18 297.866C162.214 305.34 152.556 297.728 145.478 287.402C134.9 271.968 132.544 252.644 122.386 234.36C121.302 233.628 120.236 234.342 120.58 235.072Z" fill="#101828"/>
<path d="M170.374 305.432C176.152 309.972 187.336 307.232 193.106 295.69C193.828 294.246 194.548 292.442 195.27 290.638C196.145 288.976 196.52 287.097 196.352 285.226C196.352 284.504 195.632 284.144 194.91 284.504C193.11 286.67 192.384 290.278 190.94 292.804C189.755 295.545 188.174 298.098 186.25 300.382C184.43 302.508 181.982 304.002 179.259 304.649C176.536 305.296 173.678 305.063 171.096 303.982C170.374 303.628 169.652 304.71 170.374 305.432Z" fill="#101828"/>
<path d="M164.962 293.526C170.873 292.086 176.102 288.644 179.762 283.784C181.686 281.5 183.266 278.947 184.452 276.206C185.476 273.656 187.338 270.432 186.616 267.546C186.616 266.824 185.534 266.824 185.174 267.186C184.544 268.196 184.058 269.288 183.73 270.432C183.37 271.876 182.648 273.32 182.286 274.402C181.196 277.003 179.738 279.433 177.956 281.618C174.817 286.437 170.096 290.01 164.606 291.722C163.518 292.442 163.878 293.886 164.962 293.526Z" fill="#101828"/>
<path d="M169.652 227.494C172.631 238.01 172.506 249.162 169.292 259.608C168.154 263.208 166.404 266.464 165.322 269.71C164.962 270.432 166.404 271.154 166.766 270.794C171.458 266.102 173.01 256.53 174.342 249.866C175.012 242.17 174.028 234.419 171.456 227.134C171.096 226.412 169.652 226.772 169.652 227.494Z" fill="#101828"/>
<path d="M244.342 175.176C243.044 174.814 241.672 174.814 240.374 175.176C236.179 175.909 232.429 178.236 229.91 181.67C228.242 184.078 227.023 186.767 226.31 189.608C223.974 198.946 225.468 195.862 217.65 203.68C207.566 212.324 199.08 216.306 194.942 219.224C192.792 215.589 189.481 212.783 185.542 211.258C183.803 210.665 181.964 210.419 180.13 210.536C178.296 210.419 176.457 210.665 174.718 211.258C173.996 211.258 173.996 212.34 174.718 212.7C176.383 213.014 178.078 213.135 179.77 213.062C181.986 213.124 184.154 213.713 186.097 214.781C188.039 215.848 189.7 217.363 190.94 219.2C194.14 223.83 194.554 227.4 195.632 232.2C195.746 233.853 196.24 235.458 197.074 236.89C197.436 237.612 198.518 237.25 198.874 236.528C199.417 234.765 199.417 232.879 198.874 231.116C198.469 227.689 197.501 224.352 196.01 221.24C198.426 220.537 200.728 219.488 202.844 218.126C219.596 207.656 212.706 211.272 219.444 206.22C232.444 196.116 228.464 189.62 232.072 184.57C235.034 180.56 239.428 177.847 244.34 176.994C245.426 176.618 245.426 175.176 244.342 175.176Z" fill="#101828"/>
<path d="M260.94 215.588C260.769 215.368 260.55 215.189 260.301 215.064C260.051 214.939 259.777 214.871 259.498 214.866C256.436 213.964 253.178 213.964 250.116 214.866C246.361 215.747 242.809 217.339 239.652 219.556C234.376 223.074 226.708 232.678 225.538 235.968C219.63 238.504 198.412 246.786 192.822 249.304C191.845 247.808 190.561 246.538 189.055 245.577C187.548 244.616 185.854 243.987 184.086 243.732C182.107 236.238 179.324 228.979 175.786 222.082C169.449 209.997 160.878 199.223 150.528 190.33C146.382 186.688 141.597 183.845 136.416 181.944C147.328 168.944 147.18 167.524 151.972 161.464C153.09 160.048 155.22 158.216 155.22 156.052C155.22 155.33 154.498 154.608 153.776 154.968C150.89 155.69 149.446 160.02 148.002 162.186C145.838 165.432 143.672 169.04 141.146 172.288C139.038 175.1 137.272 178.938 134.846 181.47C133.365 181.067 131.854 180.783 130.328 180.622C130.228 180.433 130.061 180.288 129.86 180.215C129.66 180.141 129.439 180.143 129.24 180.222C123.106 184.552 116.824 188.756 111.92 194.656C106.386 201.343 101.774 208.742 98.2081 216.656C89.9301 234.868 89.1661 250.284 90.6321 270.056C90.9921 275.468 92.0741 280.88 92.7961 286.656C93.5305 292.132 94.6154 297.555 96.0441 302.892C96.1246 303.146 96.2942 303.363 96.5216 303.502C96.7491 303.642 97.0191 303.694 97.2822 303.651C97.5453 303.607 97.7838 303.47 97.9539 303.264C98.124 303.059 98.2142 302.799 98.2081 302.532C97.9637 297.922 97.3619 293.337 96.4081 288.82C94.4221 275.906 92.8841 259.22 93.8821 246.244C95.4706 229.362 101.715 213.252 111.92 199.71C118.17 190.782 123.686 187.824 129.598 182.03C136.193 183.607 142.277 186.835 147.28 191.412C152.325 195.735 157.031 200.439 161.354 205.484C179.47 227.538 181.366 249.708 184.446 261.412C184.519 261.625 184.666 261.803 184.861 261.915C185.056 262.027 185.285 262.064 185.505 262.02C185.725 261.976 185.922 261.853 186.058 261.675C186.194 261.496 186.261 261.274 186.246 261.05C186.563 256.048 185.952 251.031 184.446 246.25C189.498 248.774 192.384 254.188 193.466 259.96C194.133 263.408 194.255 266.939 193.828 270.424L192.744 275.836C192.384 277.636 191.662 279.084 191.302 280.888C191.282 281.105 191.333 281.323 191.447 281.509C191.56 281.694 191.731 281.839 191.933 281.92C192.135 282.001 192.358 282.014 192.569 281.959C192.78 281.903 192.967 281.781 193.102 281.61C194.429 280.216 195.309 278.456 195.628 276.558C196.319 274.569 196.802 272.513 197.07 270.424C198.259 263.869 197.202 257.104 194.07 251.224C205.055 247.652 215.846 243.51 226.4 238.814C227.858 238.854 229.51 236.214 230.27 235.072C236.658 226.77 244.578 218.112 255.168 218.112H259.498C259.858 218.112 260.58 217.752 260.58 217.392C261.302 216.308 261.302 215.948 260.94 215.588Z" fill="#101828"/>
<path d="M164.24 159.298C162.931 157.175 161.958 154.862 161.354 152.442C160.372 146.292 168.57 146.308 170.374 147.03C171.396 147.552 172.491 147.918 173.622 148.114C173.872 148.189 174.138 148.195 174.391 148.131C174.644 148.067 174.875 147.936 175.059 147.751C175.244 147.567 175.375 147.336 175.439 147.083C175.503 146.83 175.497 146.564 175.422 146.314C175.239 145.658 174.868 145.069 174.355 144.621C173.842 144.172 173.209 143.884 172.534 143.79C170.671 143.196 168.714 142.951 166.762 143.068C165.394 142.993 164.03 143.266 162.797 143.861C161.563 144.457 160.501 145.355 159.708 146.472C158.915 147.589 158.418 148.888 158.264 150.249C158.109 151.61 158.302 152.988 158.824 154.254C159.623 156.783 161.282 158.954 163.514 160.388C163.878 160.742 164.6 160.02 164.24 159.298Z" fill="#101828"/>
<path d="M210.064 134.4C222 122.8 215.778 102.414 201.4 104.092C197.442 104.554 193.462 105.892 188.772 105.892C185.453 105.783 182.169 105.176 179.03 104.092C176.52 103.316 174.338 101.206 171.812 100.846C171.188 100.753 170.552 100.88 170.012 101.206C169.652 101.928 170.03 102.272 170.734 103.006C174.446 106.853 179.464 109.171 184.8 109.504C197.984 110.494 202.67 105.742 207.894 109.144C215.778 114.28 214.388 127.186 208.976 133.32C208.905 133.391 208.849 133.476 208.811 133.569C208.773 133.662 208.753 133.762 208.753 133.863C208.754 133.963 208.774 134.063 208.813 134.156C208.852 134.249 208.908 134.333 208.98 134.404C209.051 134.475 209.136 134.531 209.229 134.569C209.322 134.607 209.422 134.627 209.523 134.627C209.623 134.626 209.723 134.606 209.816 134.567C209.909 134.528 209.993 134.471 210.064 134.4Z" fill="#101828"/>
<path d="M203.93 125.742C205.32 121.754 203.236 118.102 199.24 116.36C194.938 114.488 189.852 115.96 185.528 116.722C177.206 118.172 172.438 117.094 166.404 113.474C164.604 112.03 163.518 109.874 161.354 109.144C160.37 108.16 157.514 112.914 166.766 118.526C172.85 122.216 180.136 121.858 186.61 120.326C190.954 119.3 202.848 117.078 201.766 125.378C202.126 126.824 203.554 126.82 203.93 125.742Z" fill="#101828"/>
<path d="M183.724 131.516C183.324 130.19 182.518 129.024 181.419 128.182C180.32 127.34 178.984 126.865 177.6 126.824C174.194 126.441 170.746 126.81 167.498 127.906C157.682 130.13 152.582 124.394 148.734 122.856C147.652 122.494 145.134 122.134 146.208 124.298C149.094 130.072 158.116 132.598 163.888 132.236C169.66 131.874 177.24 126.824 181.93 132.236C183 133.32 184.084 132.6 183.724 131.516Z" fill="#101828"/>
<path d="M166.4 138.37C165.671 137.486 164.715 136.818 163.636 136.436C162.556 136.053 161.392 135.972 160.27 136.2C157.744 136.56 155.58 138 152.694 138.364C142.112 138.364 143.138 135.844 139.342 133.314C139.091 133.144 138.798 133.048 138.495 133.036C138.193 133.024 137.893 133.098 137.63 133.248C137.367 133.398 137.151 133.619 137.007 133.885C136.863 134.152 136.797 134.454 136.816 134.756C137.416 140.77 150.282 144.24 157.744 140.168C158.886 139.524 160.151 139.127 161.456 139.003C162.762 138.878 164.079 139.03 165.322 139.448C165.473 139.526 165.644 139.554 165.812 139.528C165.98 139.502 166.135 139.423 166.255 139.303C166.375 139.183 166.454 139.028 166.48 138.86C166.506 138.692 166.478 138.521 166.4 138.37Z" fill="#101828"/>
<path d="M346.816 274.762C346.816 270.794 346.816 266.824 346.456 262.856C346.456 254.556 346.096 246.618 345.374 238.32C345.248 234.316 344.765 230.33 343.93 226.412C343.57 225.33 342.486 225.69 342.486 226.412C342.309 228.418 342.273 230.435 342.378 232.446C320.606 248.064 288.44 263.514 284.034 267.186C283.614 267.852 284.394 268.268 285.476 268.268C291.476 266.552 311.178 255.524 315.064 253.468C324.542 248.468 333.464 242.392 342.486 236.496C342.794 281.496 342.776 259.36 342.848 279.964C339.63 281.35 336.878 284.11 332.024 287.024C327.934 289.888 307.438 303.704 298.824 309.034C294.121 311.372 289.65 314.151 285.472 317.334C284.75 318.056 285.472 319.134 286.194 318.776C301.416 314.094 334.594 288.95 339.236 286.302C340.48 285.474 341.836 284.644 343.122 283.676C343.221 284.204 343.37 284.721 343.566 285.22C343.677 285.462 343.854 285.668 344.078 285.812C344.302 285.956 344.563 286.032 344.829 286.032C345.095 286.032 345.356 285.956 345.58 285.812C345.804 285.668 345.982 285.462 346.092 285.22C347.538 281.978 346.816 278.01 346.816 274.762Z" fill="#101828"/>
<path d="M207.178 37.6999C220.014 31.4519 237.526 34.9899 251.56 38.4219C295.126 49.0759 344.472 59.9439 398.776 77.0219C420.594 83.8879 431.472 86.0319 440.632 97.2219C448.744 107.14 455.98 124.464 459.394 137.636C463.14 152.411 465.437 167.517 466.25 182.738C467.16 198.264 467.52 214.122 466.972 229.646C465.914 259.584 460.972 291.514 440.632 314.8C438.364 317.462 435.824 319.881 433.054 322.016C432.767 322.303 432.605 322.692 432.605 323.098C432.605 323.504 432.766 323.894 433.053 324.181C433.34 324.468 433.729 324.63 434.135 324.63C434.541 324.63 434.931 324.469 435.218 324.182C458.672 303.982 467.236 272.582 469.136 242.636C470.936 214.34 470.168 175.064 464.084 147.016C459.966 128.03 449.85 99.0619 434.136 87.8419C427.616 83.1859 420.022 81.1259 412.486 78.8199C379.096 68.6099 345.702 59.4619 312.178 51.0379C300.378 48.0699 246.114 34.7279 237.848 33.3559C226.976 31.5559 215.484 31.4579 206.096 37.3259C206.141 37.4224 206.206 37.5088 206.285 37.58C206.365 37.6513 206.457 37.7059 206.558 37.7408C206.659 37.7756 206.766 37.79 206.872 37.7829C206.979 37.7759 207.083 37.7477 207.178 37.6999Z" fill="#101828"/>
<path d="M427.28 114.2C427.514 108.78 427.28 102.654 423.68 98.324C419.712 93.632 413.216 92.19 407.444 90.746C389.4 86.052 229.188 43.474 220.528 41.67C216.56 40.588 212.23 39.87 208.26 39.144C205.239 38.6648 202.147 38.9123 199.24 39.866C197.769 40.6206 196.526 41.7533 195.638 43.1478C194.75 44.5422 194.25 46.148 194.188 47.8C192.914 63.096 195.004 83.2 196.354 99.4C196.342 99.5018 196.352 99.605 196.383 99.7028C196.413 99.8006 196.464 99.8908 196.532 99.9674C196.601 100.044 196.684 100.105 196.778 100.147C196.871 100.189 196.973 100.211 197.075 100.211C197.178 100.211 197.279 100.189 197.372 100.147C197.466 100.105 197.55 100.044 197.618 99.9674C197.686 99.8908 197.737 99.8006 197.768 99.7028C197.798 99.605 197.808 99.5018 197.796 99.4C197.48 84.252 194.962 64.486 196.354 47.8C196.452 46.0741 197.158 44.4386 198.346 43.1835C199.535 41.9285 201.13 41.1351 202.848 40.944C206.272 40.8664 209.685 41.3543 212.95 42.388C236.054 47.2 270.642 57.296 289.8 62.6C418.18 97.368 412.868 95.362 416.45 97.6C424.39 102.23 423.396 111.306 422.584 121.054C422.584 122.614 421.722 148.914 422.224 161.466C422.584 179.506 426.192 322.754 426.192 323.836C423.716 322.949 421.185 322.226 418.614 321.672C415.728 320.95 413.202 319.872 410.316 319.146C377.804 309.146 356.102 299.146 334.542 293.528C334.351 293.433 334.13 293.417 333.927 293.485C333.724 293.552 333.557 293.698 333.461 293.889C333.366 294.08 333.35 294.302 333.418 294.504C333.485 294.707 333.631 294.875 333.822 294.97C343.552 299.17 353.668 303.004 363.746 306.724C367.016 327.42 374.21 345.898 351.146 353.424C338.778 357.46 325.168 366.052 311.456 364.248C306.574 363.511 301.751 362.426 297.024 361.002C275.992 356.081 255.365 349.567 235.322 341.516C232.139 340.636 229.101 339.3 226.302 337.548C219.806 333.578 223.036 331.73 224.858 331.052C236.302 326.8 248.616 325.038 260.58 322.394C262.214 321.996 263.79 321.391 265.27 320.594C265.521 320.436 265.714 320.202 265.819 319.925C265.925 319.648 265.939 319.345 265.857 319.06C265.776 318.775 265.604 318.525 265.368 318.346C265.132 318.167 264.844 318.069 264.548 318.068C252.619 319.878 240.811 322.408 229.188 325.644C225.588 326.728 219.806 327.444 217.28 330.336C211.104 337.074 232.586 343.556 242.538 347.654C262.516 355.253 283.016 361.402 303.878 366.054C308.925 367.444 314.177 367.932 319.394 367.498C326.61 366.776 333.05 364.114 339.962 361.364C345.775 359.057 351.549 356.651 357.28 354.148C362.14 352.173 366.29 348.778 369.188 344.406C375.296 332.83 371.092 319.536 366.788 307.844C378.272 312.068 404.484 321.898 416.46 324.56C419.97 325.857 423.594 326.823 427.284 327.446C427.538 327.438 427.787 327.369 428.009 327.245C428.231 327.121 428.421 326.947 428.562 326.735C428.703 326.523 428.792 326.281 428.821 326.029C428.85 325.776 428.818 325.52 428.728 325.282C430.044 318.38 430.768 311.379 430.892 304.354C428.736 213.868 425.224 162.124 427.28 114.2Z" fill="#101828"/>
<path d="M295.218 329.6C304.962 332.848 343.57 343.672 346.096 344.032C348.495 345.031 351.074 345.522 353.672 345.476C353.968 345.475 354.256 345.377 354.492 345.198C354.728 345.019 354.9 344.769 354.981 344.484C355.062 344.199 355.049 343.896 354.943 343.619C354.837 343.342 354.645 343.108 354.394 342.95C352.23 341.506 342.486 339.35 339.962 338.982C334.91 337.898 305.682 330.322 295.58 328.156C294.858 327.8 294.136 329.246 295.218 329.6Z" fill="#101828"/>
<path d="M310.734 233.268C311.611 233.995 312.582 234.6 313.62 235.068C317.304 236.296 322.62 240.25 324.084 239.758C324.242 239.737 324.392 239.677 324.521 239.585C324.65 239.493 324.755 239.37 324.826 239.228C324.897 239.086 324.933 238.928 324.929 238.77C324.926 238.611 324.883 238.455 324.806 238.316C324.172 235.774 316.006 233.554 314.704 232.902C313.538 232.516 312.329 232.274 311.104 232.182C310.54 232.158 310.012 232.546 310.734 233.268Z" fill="#101828"/>
<path d="M334.548 231.824C334.17 229.934 330.694 228.654 322.28 226.05C319.772 225.274 317.59 224.25 315.064 223.526C312.986 222.926 310.906 221.85 308.828 221.484C308.828 221.284 307.928 203.722 307.126 196.102C306.766 193.216 307.126 190.33 305.682 187.804C303.06 183.084 297.416 182.62 290.528 179.866C288.8 179.209 286.916 179.083 285.116 179.504C284.331 179.858 283.653 180.41 283.146 181.106C282.64 181.802 282.325 182.618 282.23 183.474C281.484 183.474 264.378 177.674 250.476 173.37C250.239 173.315 249.992 173.31 249.753 173.353C249.513 173.397 249.285 173.49 249.082 173.625C248.88 173.76 248.707 173.935 248.574 174.14C248.442 174.344 248.353 174.574 248.312 174.814C247.951 178.292 247.951 181.799 248.312 185.278C248.672 186.36 250.112 186 250.476 185.278C251.247 182.569 251.731 179.787 251.92 176.978C258.054 178.778 264.188 180.578 269.962 182.752C271.404 183.112 284.762 188.886 284.762 185.638C284.762 184.918 284.402 184.556 284.402 183.838C284.402 181.674 286.928 181.312 288.372 181.674C291.58 182.504 294.717 183.59 297.752 184.922C298.988 185.258 300.14 185.85 301.134 186.657C302.128 187.465 302.943 188.471 303.526 189.612C304.737 194.076 305.225 198.705 304.97 203.324C304.97 217.656 305.69 225.456 305.69 235.436C305.69 236.88 305.33 239.406 306.412 240.488C306.612 240.662 306.869 240.758 307.134 240.758C307.399 240.758 307.656 240.662 307.856 240.488C309.656 239.406 308.938 236.888 308.938 235.436C308.938 228.524 308.95 225.998 308.896 223.506C310.373 224.435 311.963 225.171 313.628 225.694C316.154 226.776 318.32 227.494 320.846 228.58C329.23 231.38 332.662 233.678 334.196 232.91C334.548 232.546 334.91 232.186 334.548 231.824Z" fill="#101828"/>
<path d="M282.23 266.102C282.298 266.012 282.342 265.908 282.361 265.797C282.379 265.686 282.369 265.572 282.334 265.466C282.298 265.359 282.237 265.263 282.156 265.185C282.075 265.108 281.976 265.051 281.868 265.02C273.57 261.772 265.268 258.526 257.332 254.556C256.61 254.196 256.25 254.196 255.89 254.918C247.59 262.856 236.044 258.886 235.322 259.246C234.6 259.246 206.096 277.646 202.122 280.536C201.4 281.258 200.678 283.062 202.122 283.422C223.41 292.442 277.174 316.622 283.308 319.504C283.61 319.681 283.955 319.773 284.306 319.768C284.656 319.763 284.998 319.663 285.295 319.477C285.593 319.292 285.834 319.028 285.992 318.716C286.15 318.403 286.22 318.054 286.194 317.704C286.018 309.036 283.312 270.072 282.23 266.102ZM243.63 276.566C245.43 277.288 247.6 278.366 249.766 277.288C251.566 276.566 253.366 275.124 255.538 275.488C255.851 275.538 256.143 275.678 256.377 275.892C256.611 276.106 256.777 276.385 256.854 276.692C256.931 277 256.916 277.323 256.81 277.623C256.704 277.922 256.513 278.183 256.26 278.374C254.154 280.026 251.677 281.141 249.044 281.622C245.796 281.982 242.548 280.178 239.302 279.096C233.528 276.57 227.034 275.848 221.982 272.24C221.62 271.88 221.982 270.44 223.064 270.798C237.29 274.078 239.624 275.568 243.62 276.566H243.63Z" fill="#7F56D9"/>
<path d="M418.982 244.454C411.044 78.1138 441.714 111.67 341.766 81.7218C347.178 158.578 341.766 160.742 338.156 80.6378C315.426 74.5038 281.868 65.4838 257.694 59.3498C262.024 149.918 252.28 108.062 255.894 58.9898C190.58 40.2258 199.24 40.9478 203.2 100.846H204.644C223.406 103.01 225.55 130.394 211.5 138.37C208.97 139.808 219.798 180.226 202.118 176.618V209.818C208.614 208.018 221.602 195.386 221.602 195.386C222.324 189.612 224.166 184.23 225.932 182.034C231.092 175.634 235.692 171.658 241.448 170.488C253.04 168.132 266 174.454 278.982 178.062C279.704 178.062 281.87 175.52 284.394 175.896C295.952 177.626 303.864 177.712 309.652 185.638C313.61 191.06 313.252 196.102 313.62 211.618C412.6 241.436 410.654 241.076 418.982 244.454ZM228.106 87.1339C228.669 87.3943 229.286 87.5177 229.906 87.4939C232.432 88.2159 235.678 88.9379 237.844 86.7719C238.566 86.0518 238.566 85.3298 239.288 84.9718C240.37 84.2518 241.452 84.9718 241.452 86.4158C241.353 87.6309 240.844 88.7762 240.008 89.6638C239.018 90.4867 237.855 91.0758 236.605 91.3874C235.356 91.699 234.053 91.7251 232.792 91.4638C227.133 90.7601 221.705 88.7862 216.916 85.6898C215.84 84.9599 214.03 83.5258 214.39 81.7218C214.545 81.2107 214.824 80.7458 215.202 80.368C215.58 79.9903 216.045 79.7113 216.556 79.5558C216.654 80.555 217.049 81.5017 217.691 82.2737C218.333 83.0456 219.192 83.6072 220.156 83.8858C222.626 85.3654 225.307 86.4606 228.106 87.1339ZM230.27 149.918C232.37 150.586 234.605 150.71 236.766 150.278C237.486 149.918 239.292 148.834 240.012 149.196C241.096 149.556 240.734 150.996 240.012 152.082C239.767 152.456 239.45 152.777 239.078 153.025C238.706 153.273 238.287 153.444 237.848 153.526C234.34 155.028 228.834 153.71 225.58 152.082C225.218 151.722 224.136 151.36 223.78 151C220.168 148.474 227.744 149.556 230.27 149.918ZM255.89 129C259.49 128.278 259.1 141.264 258.414 147.762C258.034 151.362 260.58 166.886 256.972 166.162C254.446 155.69 255.168 141.618 255.89 129ZM281.868 164.722C282.804 165.482 283.925 165.98 285.116 166.164C292.144 168.508 298.182 170.856 305.316 170.856C306.293 170.938 307.276 170.815 308.202 170.494C309.286 170.134 310.002 169.412 311.09 169.05C313.254 168.33 313.254 170.134 312.172 171.576C310.772 174.364 306.784 174.464 303.872 174.464C296.495 173.376 289.324 171.183 282.6 167.958C280.436 166.876 276.466 164.712 279 161.824C279.663 161.081 280.55 160.575 281.526 160.382C283.326 159.66 284.412 160.742 284.412 161.102C283.312 162.546 281.508 164 281.868 164.712V164.722ZM338.518 156.422C344.29 155.34 342.848 190.7 343.93 200.082C343.57 245.896 338.156 174.092 338.518 156.412V156.422ZM388.318 203.69C383.433 204.167 378.503 203.552 373.884 201.89C370.284 200.446 364.836 198.664 362.338 195.396C361.885 194.623 361.745 193.707 361.946 192.835C362.147 191.962 362.675 191.2 363.42 190.704C364.504 189.982 367.318 189.584 365.586 192.87C364.832 194.296 367.028 195.396 368.834 196.116C373.599 199.022 379.137 200.407 384.71 200.086C388.31 200.086 391.566 200.086 393.73 195.396C394.09 194.312 397.33 193.952 396.256 197.92C396.25 199 396.24 202.53 388.312 203.68L388.318 203.69ZM368.472 121.782C369.194 123.582 371.358 124.308 372.802 125.03C378.576 127.196 387.602 130.082 391.926 125.03C394.09 122.504 396.276 124.676 395.894 125.752C395.5 126.95 394.788 128.018 393.835 128.844C392.882 129.67 391.724 130.222 390.482 130.442C386.737 131.706 382.681 131.706 378.936 130.442C374.311 129.44 369.906 127.606 365.936 125.03C363.29 123.074 365.962 116.784 367.018 118.896C367.469 119.388 367.726 120.028 367.74 120.696C368.466 121.052 368.466 121.412 368.466 121.772L368.472 121.782ZM283.672 98.6898C284.394 99.7719 300.992 105.546 305.672 104.102C307.116 103.742 308.204 102.684 309.642 102.302C312.18 101.622 310.364 105.55 309.642 106.272C306.756 109.518 302.064 108.072 298.096 107.354C288.772 105.024 284.864 104.088 281.858 101.942C279.332 100.142 280.058 97.6118 281.858 95.4458C282.22 95.0858 284.384 95.4458 283.658 96.5298C284.034 96.8758 283.672 98.3198 283.672 98.6798V98.6898ZM259.498 122.134C310.898 136.696 355.838 148.474 407.436 166.876C410.682 167.598 413.208 171.928 405.636 170.124C351.146 152.8 253.324 125.134 228.106 116.36C221.962 114.224 221.628 112.672 227.024 113.834C231.73 114.848 242.232 117.244 259.498 122.134Z" fill="#7F56D9"/>
<path d="M347.538 225.69L348.62 291.722C348.62 291.722 401.662 310.484 411.404 310.484C414.652 310.484 417.538 309.762 418.62 307.598C420.42 303.998 419.704 274.41 419.342 248.062C419.338 247.7 348.982 226.052 347.538 225.69ZM363.776 261.052C364.498 260.33 365.576 261.412 365.218 262.134C363.418 264.66 364.13 266.49 367.018 267.186C371.7 268.31 376.396 269.014 381.092 269.71C383.614 270.086 385.782 270.072 388.308 270.432C389.866 270.613 391.44 270.613 392.998 270.432C393.72 270.072 398.772 265.742 398.772 268.268C398.05 276.206 387.958 273.952 382.534 273.32C378.897 272.909 375.284 272.308 371.71 271.52C368.806 270.866 365.214 270.436 362.69 268.632C360.168 266.102 361.25 263.216 363.776 261.052Z" fill="#7F56D9"/>
</svg>
