<svg width="560" height="400" viewBox="0 0 560 400" fill="none" xmlns="http://www.w3.org/2000/svg">
<rect width="560" height="400" fill="white"/>
<path d="M135.646 65.7459C136.688 60.2099 140.484 38.0959 139.572 31.9559C138.66 25.8159 140.844 27.3659 142.338 31.8179C143.832 36.2699 148.088 36.2699 150.854 33.2699C153.62 30.2699 154 31.0299 154.4 32.9999C154.8 34.9699 156.626 35.9999 157.8 34.2999C158.974 32.5999 160.316 32.0319 159.528 37.9759C158.74 43.9199 155.728 68.1019 153.902 69.6639C152.076 71.2259 148.924 71.7659 148.786 69.6639C148.648 67.5619 146.644 68.6279 144.86 69.0159C144.512 69.1942 144.129 69.291 143.738 69.2989C143.348 69.3068 142.961 69.2256 142.606 69.0616C142.252 68.8975 141.939 68.6549 141.692 68.3521C141.446 68.0493 141.271 67.6943 141.182 67.3139C141.05 67.0132 140.837 66.7554 140.566 66.5698C140.295 66.3841 139.977 66.2781 139.649 66.2638C139.321 66.2494 138.995 66.3272 138.709 66.4885C138.423 66.6497 138.188 66.8878 138.03 67.1759C136.862 68.8839 135.144 68.4119 135.646 65.7459Z" fill="#7F56D9"/>
<path d="M401.83 265.028C411.658 264.568 413.814 277.802 402.878 278.454C391.942 279.106 389.442 265.6 401.83 265.028ZM411.43 274.706C409.786 283.968 394.83 282.706 393.11 275.578C386.128 281.508 393.014 291.904 404.322 290.778C414.748 289.686 417.36 277.864 411.43 274.656V274.706Z" fill="#7F56D9"/>
<path d="M409.834 53.234C405.38 49.088 398.966 51.948 398.94 56.834C393.99 58.894 394.264 66.802 401.082 69.276C400.82 71.364 400.516 73.424 400.294 75.526C400.184 76.59 401.94 76.714 402.094 75.726C402.412 73.736 402.784 71.758 403.116 69.782C409.214 70.68 413.348 66.838 413.196 61.708C413.196 60.574 411.468 60.326 411.384 61.528C410.748 70.928 398.942 68.898 397.558 63.284C397.359 62.4522 397.418 61.5796 397.727 60.782C398.035 59.9844 398.579 59.2995 399.286 58.818C401.154 63.408 408.382 62.966 410.832 59.634C411.495 58.645 411.757 57.4415 411.567 56.2663C411.377 55.0911 410.749 54.0318 409.808 53.302L409.834 53.234ZM409.266 58.308C407.554 60.794 401.192 61.074 400.848 56.926C400.596 53.968 404.448 51.576 407.87 54.036C409.238 55.074 410.342 56.748 409.266 58.308Z" fill="#101828"/>
<path d="M444.908 66.8002C444.578 63.4682 424.89 65.0982 415.198 65.1822C414.148 70.2562 408.12 71.6382 404.456 71.5422C404.456 73.6842 403.93 78.3162 401.178 78.4542C398.426 78.5922 398.952 74.7902 398.814 70.0762C397.114 69.6762 395.15 69.1502 393.188 65.1822C389.788 64.6142 362.204 63.1502 362.274 65.1822C364.03 111.194 359.826 138.968 363.656 141.762C367.486 144.556 435.964 144.526 439.974 142.978C443.984 141.43 448.024 98.2762 444.908 66.8002ZM388.446 113.306C386.938 113.306 387.062 111.136 388.528 110.998C395.082 110.416 416.678 109.324 423.632 109.85C423.814 109.858 423.992 109.901 424.157 109.977C424.322 110.053 424.47 110.161 424.594 110.295C424.717 110.429 424.813 110.585 424.875 110.756C424.938 110.926 424.966 111.108 424.959 111.289C424.952 111.471 424.909 111.649 424.832 111.814C424.756 111.979 424.648 112.128 424.514 112.251C424.381 112.374 424.224 112.47 424.054 112.532C423.883 112.595 423.702 112.624 423.52 112.616C423.52 112.964 396.528 113.066 388.446 113.306ZM427.364 95.8722C413.15 96.4002 398.964 97.4722 384.796 98.6382C383.344 98.7622 383.302 96.5502 384.726 96.3982C398.87 94.9042 413.068 93.9642 427.282 93.3142C427.452 93.3048 427.623 93.3295 427.784 93.3869C427.944 93.4444 428.092 93.5333 428.217 93.6486C428.343 93.7638 428.445 93.903 428.516 94.058C428.587 94.2131 428.627 94.3807 428.632 94.5512C428.637 94.7217 428.609 94.8916 428.548 95.0509C428.487 95.2101 428.394 95.3556 428.276 95.4786C428.158 95.6017 428.016 95.6999 427.86 95.7675C427.703 95.8351 427.535 95.8707 427.364 95.8722Z" fill="#7F56D9"/>
<path d="M184.85 167.074C184.18 164.652 166.034 165.692 153.978 165.926C153.115 168.027 151.716 169.866 149.921 171.258C148.126 172.65 145.998 173.548 143.748 173.862C144.66 179.144 145.324 182.158 142.102 182.518C138.038 182.974 137.816 180.706 137.208 174.76C131.886 175.204 124.42 171.858 124.074 168.222C121.46 168.498 96.022 167.848 94.376 168.996C97.7227 182.565 99.7145 196.433 100.322 210.396C101.4 232.396 92.11 253.53 94.376 255.452C96.642 257.374 186.068 256.324 187.81 254.402C189.552 252.48 193.418 197.966 184.85 167.074ZM118.35 212.49C116.968 212.398 117.258 210.306 118.626 210.362C133.89 210.925 149.157 211.597 164.426 212.38C166.238 212.476 165.81 215.256 164.082 215.146C148.8 214.372 133.564 213.52 118.35 212.49ZM164.886 227.174C152.989 227.307 141.09 227.473 129.19 227.672C127.806 227.672 127.35 225.542 128.816 225.446C141.384 224.63 153.702 225.362 166.144 224.446C170.182 224.142 170.5 227.114 164.846 227.212L164.886 227.174ZM169.366 198.928C157.796 199.97 129.966 199.896 117.714 199.606C116.332 199.606 116.498 197.504 117.852 197.476C132.148 197.186 155.734 196.522 169.214 196.328C170.68 196.314 170.874 198.8 169.366 198.928Z" fill="#7F56D9"/>
<path d="M293.81 277.622C297.596 289.734 286.41 288.836 280.372 287.134C279.5 289.098 276.224 295.734 272.772 294.504C269.32 293.274 270.752 289.182 273.372 284.826C272.058 284.038 268.92 281.854 268.312 279.06C264.164 279.586 233.748 281.494 234.246 284.134C242.458 334.432 232.502 358.696 236.872 361.488C241.242 364.28 316.508 361.848 318.248 359.568C319.988 357.288 327.512 312.768 319.218 277.666C319.236 276.244 300.6 277.466 293.81 277.622ZM255.224 329.136C254.963 329.076 254.732 328.921 254.578 328.702C254.423 328.483 254.354 328.214 254.385 327.947C254.416 327.681 254.543 327.435 254.744 327.256C254.944 327.078 255.204 326.98 255.472 326.98C267.914 327.824 283.246 327.242 294.596 327.78C294.903 327.821 295.184 327.971 295.388 328.204C295.592 328.437 295.705 328.736 295.705 329.045C295.705 329.355 295.592 329.654 295.388 329.886C295.184 330.119 294.903 330.27 294.596 330.31C281.46 330.622 268.318 330.23 255.224 329.136ZM299.624 319.058C296.984 319.984 262.406 317.674 257.082 317.468C255.7 317.468 255.7 315.144 257.082 315.2C262.752 315.382 297.01 315.726 299.942 316.984C300.942 317.426 300.496 318.766 299.68 319.058H299.624Z" fill="#7F56D9"/>
<path d="M141.854 177.2C141.632 175.708 141.784 173.344 140.194 173.688C138.604 174.032 139.448 177.02 139.834 178.874C140.498 182.122 142.144 180.656 142.184 179.966C142.171 179.035 142.061 178.108 141.854 177.2ZM143.152 156.78C147.536 156.78 152.596 161.038 151.268 165.2C148.71 173.246 130.088 174.158 126.23 167.288C124.502 164.218 128.082 158.384 132.286 157.43C132.424 155.204 132.562 153.6 132.632 151.816C135.865 152.293 139.161 152.089 142.31 151.216C142.53 152.816 142.862 154.784 143.222 156.746L143.152 156.78ZM131.678 149.218C134.442 150.6 141.95 149.73 143.596 148.166C145.572 145.554 143.498 140.452 137.196 141.032C129.468 141.696 129.178 147.42 131.68 149.19L131.678 149.218Z" fill="#101828"/>
<path d="M291.2 260.024C286.8 257.916 280.832 257.384 280.6 262.124C280.242 269.452 294.012 274 296.086 267.364C297.156 263.894 293.946 261.342 291.2 260.024ZM277.292 283.278C268.998 278.232 269.692 270.834 277.874 271.388C278.744 270.004 279.256 269.388 280.112 268.014C280.694 267.102 282.282 268.11 281.712 269.014C280.772 270.548 280.22 271.294 279.28 272.814C279.18 273.005 279.025 273.162 278.835 273.263C278.645 273.364 278.428 273.406 278.214 273.382C275.962 273.182 272.85 273.382 273.514 276.518C274.55 281.552 285.956 285.132 288.714 283.072C289.14 282.406 289.321 281.612 289.225 280.827C289.129 280.043 288.762 279.316 288.188 278.772C286.958 277.972 288.506 274.372 288.908 272.992C289.074 272.392 291.162 271.5 290.844 274.044C290.659 275.152 290.322 276.228 289.844 277.244C291.682 278.722 292.11 283.232 290.092 284.764C287.466 286.742 282.184 285.706 279.142 284.294C277.76 286.616 276.378 288.954 274.996 291.206C274.386 292.218 272.784 291.206 273.28 290.308C274.58 287.93 275.936 285.58 277.248 283.216L277.292 283.278ZM292.492 268.078C289.602 269.254 283.892 266.93 282.938 263.39C282.338 261.136 283.81 259.242 289.976 262.008C294.732 264.124 294.716 267.15 292.548 268.036L292.492 268.078Z" fill="#101828"/>
<path d="M391.776 156.706C389.716 158.848 387.794 161.184 385.806 163.342L362.12 188.228C358.434 185.816 354.902 183.174 351.546 180.32C362.358 168.968 369.822 161.82 381.186 151.202C383.586 156.202 380.234 158.002 389.482 154.438C389.426 154.744 389.318 155.038 389.164 155.308C389.078 155.468 389.034 155.647 389.038 155.828C389.043 156.01 389.094 156.187 389.188 156.342C389.282 156.497 389.415 156.625 389.573 156.713C389.732 156.801 389.911 156.846 390.092 156.844C390.667 156.818 391.24 156.751 391.806 156.644L391.776 156.706ZM458.914 194.338C447.947 184.91 437.633 174.748 428.042 163.922C429.882 162.54 432.492 162.18 439.004 157.202C445.42 167.002 458.43 178.522 467.016 187.08C463.934 190.55 462.522 188.586 462.33 190.896C459.564 189.762 459.564 191.738 458.914 194.338ZM458.36 196.938C459.106 197.462 459.662 196.688 460.118 196.094C460.64 195.019 461.066 193.899 461.39 192.748C462.522 193.148 464.416 194.13 464.39 191.366C466.02 191.062 467.32 189.278 468.716 188.434C469.532 187.95 470.542 187.176 469.656 186.306C460.892 177.54 447.232 165.568 440.622 155.738C439.24 153.738 437.154 155.986 435.868 156.938C429.356 161.708 424.322 162.468 426.19 164.804C426.116 164.6 445.4 188 458.36 196.938ZM362.702 190.26C363.67 189.748 391.888 160.508 395.232 156.07C395.868 155.226 394.792 154.452 393.92 154.686C393.122 154.771 392.318 154.771 391.52 154.686C391.836 152.654 390.84 151.59 389.956 152.198C388.098 153.109 386.14 153.801 384.122 154.258C383.956 153.374 383.044 150.042 381.882 149.682C381.282 149.482 380.882 148.728 380.306 149.198C369.535 158.771 359.293 168.925 349.628 179.614C347.994 181.438 358.13 187.91 360.162 189.5C360.455 189.873 360.857 190.147 361.312 190.283C361.766 190.419 362.252 190.411 362.702 190.26Z" fill="#7F56D9"/>
<path d="M427.172 169.12C414.242 168.506 401.428 167.046 388.556 165.996C388.309 165.992 388.069 166.082 387.885 166.247C387.7 166.413 387.585 166.641 387.563 166.888C387.54 167.134 387.611 167.38 387.762 167.576C387.913 167.773 388.132 167.905 388.376 167.946C401.159 169.827 414.037 170.999 426.95 171.456C428.456 171.456 428.678 169.2 427.172 169.12ZM433.088 192.416C416.76 192.416 400.446 191.6 384.16 190.494C383.876 190.498 383.604 190.609 383.398 190.804C383.191 190.999 383.066 191.265 383.046 191.548C383.026 191.831 383.113 192.112 383.289 192.334C383.466 192.556 383.72 192.704 384 192.748C400.26 194.214 416.6 194.822 432.916 194.974C434.568 194.974 434.734 192.416 433.088 192.416ZM384.988 204.984C383.606 204.86 383.246 206.92 384.616 207.07C400.199 208.793 415.86 209.716 431.538 209.836C433.158 209.836 432.922 207.334 431.338 207.32C431.332 207.032 414.012 207.748 384.988 204.984ZM432.616 223.276C419.15 222.94 396.104 223.606 383.87 220.716C382.75 220.454 382.238 222.404 383.358 222.694C395.98 225.998 418.474 225.294 432.326 225.832C433.988 225.9 434.278 223.316 432.616 223.276ZM433.088 235.718C415.114 235.718 403.57 236.424 384.824 234.666C383.58 234.556 383.122 236.466 384.408 236.602C396.63 237.986 421.42 239.12 433.42 237.708C434.61 237.57 434.2 235.718 433.088 235.718ZM448.656 251.492C448.504 234.156 450.108 213.182 450.038 197.062C450.038 195.68 452.07 195.514 452.112 196.862C452.582 214.834 451.186 231.662 451.004 249.398C451.004 253.242 450.122 253.798 448.752 253.878C422.594 255.262 392.994 257.916 367.722 252.924C365.206 252.428 365.218 252.04 365.232 249.248C365.302 230.648 367.114 210.41 367.996 191.664C367.996 190.378 370.07 190.282 370.016 191.554C369.254 210.354 367.706 233.03 367.526 250.81C396.064 254.8 419.982 253.028 448.656 251.492Z" fill="#101828"/>
<path d="M384.85 277.774C376.556 277.774 368.33 277.416 360.076 277.388C358.608 277.388 357.932 278.438 358.14 280.072C361.568 305.962 363.364 332.041 363.518 358.156C363.518 359.112 364.416 359.206 365.118 359.304C391.416 363.43 418.251 362.628 444.256 356.94C445.984 356.568 446.256 355.778 446.288 355.212C448.098 329.704 449.868 304.056 451.582 278.522C451.582 277.706 451.68 276.6 450.582 276.6C440.17 276.6 428.736 277.14 418.464 276.752C417.08 276.752 417.29 278.714 418.576 278.8C428.446 279.42 439.314 278.936 449.376 278.95C448.796 285.42 443.846 354.506 443.846 354.506C417.066 360.326 392.926 360.478 366.046 357.272C365.064 323.538 364.262 304.846 360.268 279.472C368.468 279.776 376.678 279.736 384.868 280.108C385.172 280.108 385.464 279.987 385.68 279.772C385.895 279.557 386.016 279.265 386.016 278.96C386.016 278.656 385.895 278.364 385.68 278.148C385.464 277.933 385.172 277.812 384.868 277.812L384.85 277.774ZM424.116 335.414C425.954 335.414 426.286 338.178 424.434 338.276C411.742 338.44 399.05 338.159 386.358 337.432C384.672 337.322 385.086 334.792 386.732 334.862C406.898 335.71 419.134 335.414 424.116 335.414ZM425.222 321.588C426.604 321.522 426.822 323.968 425.402 324.09C412.162 325.075 398.877 325.292 385.612 324.74C384.228 324.74 384.34 322.53 385.75 322.556C398.926 322.776 412.02 322.222 425.222 321.588ZM427.822 308.55C429.012 308.438 429.606 310.388 428.306 310.762C419.03 313.432 397.89 312.574 388.212 311.468C386.83 311.316 387.286 309.31 388.6 309.422C404.068 310.8 413.14 309.924 427.822 308.55Z" fill="#101828"/>
<path d="M100.322 57.978C99.8521 84.466 98.8421 110.514 97.9441 136.92C97.8588 137.389 97.963 137.872 98.2337 138.264C98.5044 138.657 98.9195 138.925 99.3881 139.012C104.264 139.984 116.228 140.7 123.894 142.132C125.494 142.438 125.858 139.932 124.254 139.63C118.474 138.552 105.654 136.602 100.072 136.866C101.58 111.08 102.312 84.604 102.838 58.724C106.198 59.324 125.54 59.724 130.406 60.3C131.594 60.438 131.374 58.13 130.31 58.046C121.46 57.382 110.76 56.54 102.022 56.374C101.801 56.3496 101.577 56.3736 101.367 56.4442C101.156 56.5148 100.963 56.6304 100.801 56.783C100.64 56.9356 100.513 57.1214 100.43 57.3278C100.347 57.5341 100.311 57.756 100.322 57.978ZM159.232 85.296C160.698 85.296 160.614 87.868 159.232 87.854C145.32 87.9643 131.413 87.2297 117.59 85.654C117.313 85.5945 117.068 85.4318 116.906 85.199C116.744 84.9661 116.676 84.6804 116.716 84.3995C116.757 84.1186 116.902 83.8636 117.123 83.6858C117.345 83.5081 117.625 83.4209 117.908 83.442C133.736 85.026 161.25 85.296 159.232 85.296ZM144.032 101.886C145.232 101.994 144.832 103.886 143.81 104.086C140.81 104.666 120.086 102.702 116.948 102.302C116.689 102.24 116.461 102.086 116.308 101.868C116.154 101.651 116.085 101.385 116.114 101.12C116.143 100.855 116.267 100.61 116.464 100.43C116.66 100.251 116.916 100.149 117.182 100.144C126.12 100.754 135.15 101.092 144.024 101.886H144.032ZM153.102 116.376C154.276 116.458 153.862 118.242 152.902 118.478C147.814 119.778 123.966 116.584 118.006 115.712C116.624 115.492 116.818 113.348 118.206 113.556C130.648 115.408 140.824 115.616 153.088 116.446L153.102 116.376ZM178.596 141.456C168.78 141.456 159.82 141.608 149.936 141.11C149.65 141.11 149.376 141.224 149.174 141.426C148.972 141.628 148.858 141.902 148.858 142.188C148.858 142.474 148.972 142.748 149.174 142.95C149.376 143.152 149.65 143.266 149.936 143.266C152.7 143.488 174.336 143.916 177.822 143.71C179.66 143.598 180.864 142.478 181.098 139.99C183.434 114.44 185.15 87.454 185.122 61.848C185.122 61.048 183.946 60.848 183.322 60.848C175.845 60.6895 168.375 60.3026 160.922 59.688C159.43 59.576 159.112 61.844 160.604 61.996C166.91 62.618 176.766 63.296 183.004 63.296C181.698 89.638 180.386 116.708 178.588 141.456H178.596Z" fill="#101828"/>
<path d="M263.13 48.63C262.514 46.892 255.402 45.064 255.028 41.51C254.864 39.754 270.348 36.728 271.716 38.966C273.9 42.506 267.182 46.778 267.376 47.69C268.758 54.216 270.79 60.216 272.776 66.59C273.828 69.978 276.634 69.728 274.532 63.23C272.932 58.24 271.284 53.262 269.666 48.272C272.154 46.17 277.008 39.672 273.026 36.562C270.372 34.488 252.924 36.422 252.44 40.792C252.04 44.484 257.97 48.728 260.86 49.75C260.362 56.456 259.822 63.162 259.352 69.866C259.357 70.1066 259.449 70.3374 259.609 70.5167C259.77 70.6959 259.989 70.8119 260.228 70.8438C260.467 70.8756 260.709 70.8212 260.911 70.6904C261.113 70.5595 261.261 70.3608 261.33 70.13C261.9 67 263.908 50.82 263.13 48.63Z" fill="#101828"/>
<path d="M199.962 267.088C163.876 267.322 125.996 271.222 91.584 274.512C90.45 274.622 89.584 274.636 90.202 276.712C91.7164 282.385 92.752 288.175 93.298 294.022C93.382 294.646 93.548 295.404 94.362 295.238C133.434 290.3 165.702 289 202 287.812C203.6 287.812 203.162 285.546 203.148 285.504C202.442 284.12 200.064 282.504 201.018 281.244C204.218 277.098 200.148 274.11 201.462 270.294C201.47 270.116 200.86 267.082 199.962 267.088ZM92.634 276.462C128.484 273.6 163.214 270.586 199.548 269.562C199.1 271.374 199.058 273.262 199.424 275.092C199.644 276.292 200.424 277.858 199.92 279.046C199.416 280.234 197.058 280.43 200.57 285.378C165.868 286.578 129.784 288.656 95.29 293.066C94.6882 287.49 93.8018 281.948 92.634 276.462Z" fill="#7F56D9"/>
<path d="M104.386 300.724C104.662 299.342 102.63 299.082 102.326 300.394C96.8105 323.399 96.3859 347.331 101.082 370.518C101.183 371.026 101.48 371.475 101.91 371.764C102.34 372.054 102.867 372.163 103.376 372.066C134.112 368.29 167.708 366.632 199.436 364.406C200.82 364.296 200.82 363.466 200.736 361.944C198.718 339.307 198.044 316.57 198.718 293.854C198.699 293.518 198.553 293.202 198.309 292.97C198.064 292.739 197.741 292.61 197.404 292.61C197.068 292.61 196.744 292.739 196.499 292.97C196.255 293.202 196.109 293.518 196.09 293.854C195.272 316.568 196.117 339.311 198.62 361.902C168.204 363.632 133.488 365.29 103.46 369.646C99.4834 346.798 99.8226 323.407 104.46 300.684L104.386 300.724ZM173.238 337.848C174.966 337.776 175.104 340.502 173.404 340.502C157.448 340.392 141.204 341.028 125.204 341.234C123.682 341.234 123.516 338.898 125.052 338.856C141.052 338.484 157.296 338.518 173.238 337.848ZM169.228 321.092C169.298 321.092 174.206 319.598 171.428 322.942C170.212 324.326 129.952 326.912 125.182 327.298C123.8 327.408 123.8 325.28 125.182 325.154C128.952 324.8 171.868 321.092 169.228 321.092ZM167.444 309.546C169.104 309.478 169.044 311.98 167.444 312.104C152.244 313.278 137.244 314.504 122.056 315.92C120.88 316.03 120.672 314.026 121.792 313.86C134.416 312 154.6 310.068 167.444 309.546Z" fill="#101828"/>
<path d="M337.07 240.348C296.255 245.534 255.164 248.244 214.022 248.464L212.654 225.6C213.672 225.702 214.7 225.586 215.67 225.262C216.641 224.938 217.532 224.411 218.284 223.718C219.036 223.025 219.633 222.18 220.035 221.239C220.438 220.298 220.636 219.283 220.618 218.26C220.577 216.275 219.807 214.373 218.456 212.918C217.105 211.462 215.267 210.553 213.29 210.364C212.906 205.027 212.832 199.672 213.068 194.326C222.386 194.602 223.216 180.5 213.318 178.98C213.068 173.56 211.934 169.952 212.142 163.55C224.586 163.48 219.742 148.688 211.106 148.204L210.026 134C220.078 136.2 222.166 118.266 209.806 118.086C209.28 113.73 208.976 109.362 208.588 104.994C222.512 102.532 217.948 86.606 207.676 87.434C207.004 81.9232 206.594 76.3837 206.446 70.834C213.082 70.944 236.268 68.566 243.112 68.07C244.494 67.972 244.112 65.692 242.794 65.746C230.488 66.328 218.46 68.208 205.754 68.512C204.594 68.512 204.29 69.078 204.276 70.142C204.226 76.3334 204.618 82.5205 205.45 88.656C205.574 89.306 205.962 90.038 206.834 89.844C214.782 88.144 219.014 100.78 208.672 102.454C207.072 102.702 206.272 103.2 206.39 104.054C207.11 109.054 206.764 114.202 207.496 119.254C207.522 119.462 207.59 119.662 207.697 119.842C207.804 120.022 207.947 120.178 208.118 120.3C208.288 120.423 208.481 120.508 208.686 120.552C208.891 120.595 209.103 120.596 209.308 120.554C217.708 120.306 218.198 132.68 210.04 131.338C208.312 131.048 207.912 131.938 207.87 132.722C207.87 133.98 208.436 145.772 208.962 148.994C209.063 149.464 209.32 149.885 209.692 150.189C210.064 150.492 210.528 150.661 211.008 150.666C215.792 150.998 221.572 159.93 212.608 161.312C210.99 161.562 209.774 160.746 209.774 163.774C209.774 170.574 210.824 177.944 210.81 179.438C210.84 179.898 211.027 180.334 211.339 180.674C211.651 181.013 212.07 181.236 212.526 181.304C219.548 181.788 219.548 191.134 214.06 191.66C210.88 191.964 210.88 191.66 210.7 194.342C210.326 199.971 210.418 205.622 210.976 211.236C211.074 211.836 211.254 212.618 212.082 212.618C213.619 212.628 215.093 213.229 216.198 214.298C217.303 215.367 217.953 216.82 218.014 218.356C218.003 219.044 217.84 219.722 217.535 220.339C217.231 220.957 216.792 221.499 216.253 221.926C215.713 222.353 215.085 222.656 214.414 222.811C213.743 222.965 213.047 222.969 212.374 222.822C211.102 222.504 210.326 223.432 210.466 225.2C210.576 226.748 211.682 247.058 211.972 249.132C212.124 250.238 212.442 250.764 213.824 250.764C255.028 250.856 296.194 248.284 337.066 243.062C338.752 242.862 338.766 240.172 337.066 240.394L337.07 240.348ZM334.11 60.748C335.73 60.864 336.184 61.522 336.226 63.002C336.67 75.9 336.488 88.868 337.11 101.712C338.204 124.58 341.438 147.336 341.894 170.204C342.35 193.072 342.226 215.098 342.378 238.128C342.297 238.42 342.123 238.677 341.882 238.861C341.641 239.044 341.347 239.143 341.044 239.143C340.741 239.143 340.447 239.044 340.206 238.861C339.965 238.677 339.791 238.42 339.71 238.128C339.71 225.128 339.49 177.328 339.158 165.862C338.262 134.93 332.948 115.45 334.18 63.332C319.124 62.808 306.86 61.95 289.22 62.332C287.836 62.332 288.072 60.368 289.344 60.286C304.262 59.5689 319.21 59.7211 334.11 60.742V60.748Z" fill="#7F56D9"/>
<path d="M254.296 207.8C251.006 204.288 237.154 201.744 234.43 213.87C232.66 221.694 237.194 229.616 245.214 230.47C256.274 231.576 262.564 216.728 254.296 207.87V207.8ZM243.36 102.55C231.374 99.4259 223.106 113.182 228.16 120.91C231.134 125.51 238.682 128.51 243.922 126.87C246.553 126.065 248.85 124.424 250.464 122.196C252.078 119.967 252.921 117.273 252.865 114.522C252.808 111.771 251.856 109.113 250.152 106.953C248.448 104.792 246.086 103.246 243.424 102.55H243.36ZM244.452 123.924C236.452 127.63 231.152 121.048 230.364 120.178C225.11 114.344 232.41 103.408 241.314 104.486C243.534 104.732 245.613 105.699 247.231 107.239C248.85 108.778 249.919 110.806 250.275 113.012C250.631 115.217 250.254 117.478 249.202 119.449C248.151 121.42 246.482 122.992 244.452 123.924ZM229.77 143.502C228.491 146.167 228.122 149.179 228.72 152.074C230.572 165.2 251.338 165.6 252 149.53C252.486 137.722 234.734 135 229.77 143.502ZM230.932 151.702C230.557 149.563 230.713 147.366 231.388 145.302C234.416 138.114 249.5 139.772 249.554 148.648C249.638 161.42 232.848 163.414 230.932 151.702ZM254.434 181.176C252.776 170.046 236.67 167.696 231.568 178.776C229.384 183.532 231.368 192.376 236.168 195.176C244.466 200 255.886 190.91 254.434 181.176ZM237.056 193.01C235.036 191.551 233.592 189.43 232.975 187.016C232.359 184.602 232.609 182.048 233.682 179.8C237.54 171.228 250.282 171.878 251.932 181.568C253.232 189.6 242.768 197.026 237.056 193.01ZM246.208 227.85C239.434 227.85 234.94 220.386 236.338 214.564C238.106 207.236 246.738 204.348 251.938 208.73C258.6 214.378 255.936 227.85 246.2 227.85H246.208Z" fill="#101828"/>
<path d="M313.36 105.814C309.21 105.214 269.312 107.32 261.39 108.108C260.09 108.232 260.448 110.334 261.694 110.334C274.398 110.444 301.192 107.984 313.36 108.178C314.562 108.178 314.52 105.982 313.36 105.814ZM297.224 216.414C294.556 216.168 270.824 218.39 267.928 218.68C267.779 218.687 267.633 218.722 267.498 218.785C267.363 218.848 267.242 218.937 267.141 219.047C267.04 219.156 266.962 219.285 266.911 219.425C266.86 219.565 266.837 219.713 266.844 219.862C266.85 220.011 266.886 220.157 266.949 220.292C267.012 220.427 267.101 220.548 267.21 220.649C267.32 220.75 267.449 220.828 267.589 220.879C267.729 220.93 267.877 220.953 268.026 220.946C270.79 220.81 294.874 219.398 297.322 218.778C298.442 218.506 298.456 216.53 297.224 216.418V216.414ZM288.224 207.614C281.571 208.138 274.916 208.641 268.26 209.122C267.964 209.152 267.692 209.295 267.499 209.521C267.307 209.747 267.209 210.039 267.227 210.335C267.245 210.632 267.377 210.91 267.595 211.111C267.813 211.313 268.101 211.422 268.398 211.416C276.072 210.946 283.716 210.434 291.376 209.896C297.018 209.518 296.174 207 288.224 207.624V207.614ZM322.056 183.144C303.432 185.218 282.804 186.198 264.444 187.944C264.189 187.976 263.955 188.099 263.785 188.291C263.615 188.484 263.521 188.732 263.521 188.988C263.521 189.245 263.615 189.492 263.785 189.685C263.955 189.877 264.189 190 264.444 190.032C282.678 189.41 303.844 187.904 322.082 185.732C323.714 185.532 323.682 182.968 322 183.148L322.056 183.144ZM265.412 176.89C263.812 177.14 264.112 179.656 265.702 179.366C280.748 177.29 295.914 176.2 311.102 176.102C312.594 176.102 312.636 173.49 311.102 173.476C295.804 173.353 280.522 174.495 265.412 176.89ZM281.506 154.6C280.36 153.738 265.426 154.82 263.214 154.918C261.928 154.918 262.024 157.24 263.338 157.212L279.432 156.826C282.832 156.732 282.018 155 281.506 154.6ZM261.32 146.24C261.046 146.271 260.793 146.401 260.61 146.607C260.426 146.812 260.325 147.078 260.325 147.353C260.325 147.628 260.426 147.894 260.61 148.1C260.793 148.305 261.046 148.435 261.32 148.466C277.234 148.022 294.64 146.612 310.552 145.188C312.212 145.036 312.168 142.424 310.484 142.576C313.878 142.576 267.428 145.706 261.32 146.24ZM294.92 115.64C288.008 115.674 273.228 117.022 265.886 117.492C265.619 117.522 265.373 117.65 265.195 117.85C265.016 118.05 264.917 118.309 264.917 118.577C264.917 118.845 265.016 119.104 265.195 119.304C265.373 119.504 265.619 119.632 265.886 119.662C271.286 120.008 289.39 118.28 295.21 118.046C296.56 118 296.312 115.636 294.916 115.644L294.92 115.64Z" fill="#101828"/>
<path d="M251.49 137.432C248.29 139.244 243.568 148.658 240.982 152.17C239.324 150.332 237.028 148.45 235.452 146.64C234.452 145.534 233.17 146.862 234.152 148.022C235.908 150.082 237.526 152.266 239.406 154.222C242.02 156.988 243.83 152.48 244.578 151.374C245.96 149.23 252.692 139.636 253.232 137.88C253.466 136.838 252.222 137.018 251.49 137.432Z" fill="#7F56D9"/>
<path d="M251.78 96.8C247.432 103.294 244.964 109.852 241.38 116.378L234.98 110.578C233.846 109.556 232.38 111.34 233.46 112.378C238.796 117.508 240.746 119.912 242.26 119.29C243.06 118.932 251.828 101.014 253.694 97.71C254.186 96.66 253.16 94.738 251.78 96.8Z" fill="#7F56D9"/>
<path d="M285.266 54.9621C281.729 54.5887 278.164 54.5566 274.62 54.8661C276.914 62.5801 279.376 68.7741 275.22 70.1581C271.064 71.5421 269.122 61.6121 267.22 55.2261L264.82 55.3641C264.82 62.8841 265.648 72.4241 259.952 72.4241C255.952 72.4241 258.152 63.7281 258.57 55.8241C251.74 56.4041 246.21 57.1241 245.988 57.8421C245.464 59.5021 248.436 74.6121 250.704 75.4841C252.972 76.3561 284.314 73.6581 285.268 72.9541C286.222 72.2501 286.58 55.9141 285.266 54.9621Z" fill="#7F56D9"/>
</svg>
