<svg width="560" height="400" viewBox="0 0 560 400" fill="none" xmlns="http://www.w3.org/2000/svg">
<rect width="560" height="400" fill="white"/>
<path d="M432.632 204.14C436.784 227.62 428.592 271.772 420.092 292.312C416.36 301.33 414.042 302.848 412.152 305.246C411.598 305.948 412.218 306.45 412.888 306.09C434.458 294.512 446.212 229.708 440.118 206.682C438.024 198.766 432.42 200.434 432.632 204.14Z" fill="#7F56D9"/>
<path d="M108.874 231.578C108.242 247.368 143.828 312.588 157.57 309.314C165.754 307.366 147.684 304.87 111.812 235.332C109.788 231.41 109.572 231.444 108.874 231.578Z" fill="#7F56D9"/>
<path d="M93.784 259.128C95.892 269.874 97.426 279.56 106.898 294.878C112.416 303.802 119.58 313.378 128.504 318.9C130.582 320.186 133.032 320.97 134.432 318.964C135.822 316.972 134.548 315.272 129.504 310.062C99.014 278.57 93.966 250.946 93.784 259.128Z" fill="#7F56D9"/>
<path d="M463.148 234.496C457.93 234.534 462.336 242.718 453.896 275.214C450.734 287.384 447.116 292.978 445.686 296.152C445.378 296.836 446.156 297.42 446.694 296.902C463.406 280.792 474.374 234.414 463.148 234.496Z" fill="#7F56D9"/>
<path d="M103.02 74.8881C108.236 63.4821 118.748 49.2581 127.116 39.9161C128.636 38.2201 131.888 36.2321 130.182 33.5721C129.282 32.1701 127.832 32.1401 126.338 32.4681C120.562 33.7381 113.474 44.2061 110.098 49.4101C99.6079 65.5701 99.7259 82.0941 103.024 74.8861L103.02 74.8881Z" fill="#7F56D9"/>
<path d="M92.23 48.554C92.386 49.632 91.788 50.802 92.776 51.0779C93.764 51.3539 93.97 50.108 94.344 49.424C99.666 39.682 106.496 35.134 109.818 29.78C111.626 26.866 109.424 23.5239 106.414 24.1419C102.812 24.8819 93.844 34.698 92.23 48.554Z" fill="#7F56D9"/>
<path d="M417.838 63.73C418.6 68.094 423.606 73.242 427.234 83.418C430.868 93.61 430.72 93.208 431.312 94.012C432.53 95.67 440.812 97.316 428.572 75.078C427.082 72.372 421.856 63.794 417.838 63.73Z" fill="#7F56D9"/>
<path d="M427.424 54.472C428.1 57.936 431.242 58.314 442.198 77C444.77 81.386 450.372 75.208 441.51 65.002C437.458 60.334 429.614 53.848 427.424 54.472Z" fill="#7F56D9"/>
<path d="M410.002 230.768C409.418 223.714 408.97 216.978 408.62 210.56C408.874 207.074 409.022 203.554 409.062 200C407.894 174.592 409.262 143.354 407.382 122.648C404.124 86.7579 406.1 88.8019 395.16 82.2859C385.772 76.6959 373.11 69.9539 359.036 63.2859C358.688 62.5579 358.328 61.8299 357.954 61.1059C357.258 59.7519 356.534 58.4339 355.782 57.1519C363.392 60.7159 371.47 64.7059 380.024 69.1679C393.086 75.9839 407.496 82.7899 408.272 91.0599C411.148 121.732 412.434 131.016 412.572 146.784C412.752 167.494 413.888 194.056 413.044 210.584C413.522 210.632 412.622 218.898 410.006 230.77L410.002 230.768Z" fill="#7F56D9"/>
<path d="M127.92 84.7979C128.298 73.4099 128.272 62.0859 137.246 56.3819C144.49 51.7759 218.218 34.0639 257.288 29.9659C259.41 29.7439 261.522 29.4539 263.592 28.9579C265.404 28.5219 270.272 28.6019 278.218 29.9999C276.062 31.1239 273.942 32.3959 271.896 33.8059C269.602 33.5399 267.392 33.3639 265.278 33.2879C238.26 34.3959 168.356 50.8599 148.694 56.2099C146.546 56.7939 146.83 56.8019 146.616 58.5779C145.32 69.2759 144.802 120.476 147.184 150.946C150.112 188.412 154.972 246.536 215.894 309.324C241.394 335.604 288.57 363.468 298.644 366.344C303.12 367.622 306.706 365.732 315.708 359.286C344.948 338.35 369.692 312.82 386.346 283.264C388.848 282.576 390.884 281.84 392.628 281.084C391.778 282.724 390.9 284.336 389.99 285.914C390.908 286.026 376.104 308.58 356.772 329.74C335.232 353.316 312.694 365.824 306.578 369.986C299.404 374.866 289.364 376.67 283.83 375.696C268.962 373.082 238.462 351.814 220.256 338.962C163.58 298.958 126.48 224.288 128.552 143.858C128.786 134.808 127.31 103.34 127.924 84.7999L127.92 84.7979Z" fill="#7F56D9"/>
<path d="M320.968 68.584C312.402 65.23 301.756 61.43 290.756 58.572C292.51 57.28 294.532 56.302 296.86 55.71C308.746 59.026 318.676 62.932 322.79 65.038C323.384 65.26 323.988 65.482 324.602 65.706C326.336 67.564 327.946 69.606 329.426 71.79C324.68 70.072 321.468 68.876 320.968 68.584Z" fill="#7F56D9"/>
<path d="M397.552 118.05C396.752 117.368 395.828 116.77 394.796 116.236C394.546 108.366 394.336 103.276 394.3 103.05C393.656 98.8618 392.512 96.9618 384.892 92.5798C382.732 91.3378 375.43 88.4958 366.49 85.1818C366.098 83.4658 365.66 81.7098 365.168 79.9258C382.932 86.5558 397.748 93.5098 397.846 99.9238C397.924 104.954 398.318 111.516 398.782 119.234C398.392 118.81 397.982 118.414 397.552 118.048V118.05Z" fill="#7F56D9"/>
<path d="M206.364 59.0578C218.168 54.9618 241.41 51.6978 250.242 50.7658C252.194 50.4058 254.242 50.1658 256.366 50.0298C255.496 51.4918 254.71 53.0038 254.018 54.5638C252.596 54.7358 251.212 54.9618 249.87 55.2518C211.314 58.6158 187.902 69.4978 184.754 69.8598C171.148 73.2158 167.666 82.7318 168.946 117.86C168.998 119.284 172.45 163.3 172.804 166.994C177.678 217.902 186.038 232.188 198.238 249.168C217.36 275.788 233.38 301.796 292.346 333.672C299.082 337.314 304.04 337.97 310.142 336.704C311.082 336.508 321.262 331.542 325.274 328.066C344.79 311.16 356.436 301.898 366.19 288.202C366.618 287.6 367.042 286.988 367.462 286.368C369.64 286.164 371.654 285.94 373.518 285.7C368.728 293.148 363.128 300.048 356.59 306.21C328.766 332.434 315.96 351.316 289.634 336.792C261.032 321.01 231.57 300.548 211.892 274.474C174.346 224.718 172.092 217.312 165.906 127.444C161.36 61.4158 168.016 72.3638 206.364 59.0598V59.0578Z" fill="#7F56D9"/>
<path d="M402.19 273.386C416.6 266.454 405.874 245.116 405.376 183.322C405.298 173.706 404.584 148.856 403.294 139.574C401.866 129.3 402.792 125.354 396.146 119.7C391.422 115.682 381.482 114.792 368.656 112.578C366.118 112.14 370.944 33.7219 303.198 26.3419C300.25 26.0199 284.074 27.6539 273.326 35.3819C262.558 43.1239 258.454 48.5439 255.08 57.6799C248.846 74.5659 249.118 104.056 249.438 105.628C249.638 106.606 249.022 106.756 248.26 106.836C241.292 107.56 239.498 109.726 236.042 112.322C205.538 135.242 218.982 123.58 215.44 208.048C215.016 218.162 216.158 246.354 217.228 255.662C220.364 282.948 233.2 282.086 266.782 283.732C391.12 289.824 389.864 279.312 402.186 273.384L402.19 273.386ZM243.91 186.674C243.798 175.694 242.482 154.972 243.594 125.684C243.794 120.436 247.62 111.82 252.366 110.884C263.87 108.618 325.028 111.556 336.174 112.464C348.718 113.486 358.086 115.69 364.582 116.546C386.94 119.496 396.232 119.906 398.96 130.216C401.628 140.296 401.99 172.704 402.934 217.17C404.214 277.41 422.518 270.814 344.308 269.388C334.618 269.212 263.558 267.536 248.646 263.118C240.844 260.806 244.268 221.506 243.91 186.674ZM244.364 112.136C240.792 115.508 239.328 119.67 239.268 124.442C239.096 138.288 238.948 152.136 239.398 165.986C242.066 248.026 235.8 241.084 243.874 264.146C244.924 267.146 247.056 268.688 250.074 269.12C278.476 273.19 365.086 273.74 393.78 273.74C388.394 276.434 382.518 279.68 372.936 279.78C350.832 280.01 326.422 283.006 269.62 280.174C257.532 279.572 228.486 279.07 223.842 268.06C217.952 254.102 221.412 194.674 220.686 147.012C220.526 136.504 219.774 131.824 222.798 128.884C227.004 124.798 240.662 113.028 244.364 112.136ZM253.088 106.632C254.154 88.0139 253.434 70.5439 262.574 51.5479C266.942 42.4679 292.898 21.0779 322.558 34.7319C346.206 45.6179 357.916 72.2639 359.564 81.2199C359.572 81.2639 365.462 109.662 364.054 111.732C363.366 111.858 364.028 111.846 346.294 109.142C345.042 108.952 345.874 108.024 345.7 103.652C345.366 95.2519 342.562 80.8419 337.616 74.0959C333.854 68.9639 332.966 62.6099 319.778 53.7799C313.046 49.2719 301.914 47.2599 291.764 50.8479C285.174 53.1779 276.938 62.2659 274.76 75.5099C273.746 81.6719 272.302 101.722 272.348 103.878C272.428 107.514 272.46 104.674 253.084 106.628L253.088 106.632ZM342.748 108.606C332.802 108.16 331.916 107.196 299.922 106.246C276.208 105.542 276.244 107.312 276.382 103.822C277.47 76.2379 279.306 68.3479 285.596 60.5119C290.49 54.4159 298.486 52.1859 305.37 53.0819C317.77 54.6959 323.698 60.5679 330.44 69.4619C340.114 82.2259 343.498 103.914 342.75 108.608L342.748 108.606Z" fill="#101828"/>
<path d="M342.886 210.046C342.648 197.486 341.95 197.772 343.526 196.866C355.226 190.148 357.1 174.572 346.986 165.83C334.11 154.702 315.6 160.778 311.058 174.04C307.91 183.228 312.66 192.614 319.786 196.546C320.878 197.148 321.21 197.918 321.18 199.114C320.988 206.578 321.698 214.018 321.894 221.472C322.002 225.58 323.306 230.278 327.414 230.348C342.828 230.61 343.282 230.984 342.886 210.046Z" fill="#101828"/>
</svg>
