<svg width="560" height="400" viewBox="0 0 560 400" fill="none" xmlns="http://www.w3.org/2000/svg">
<rect width="560" height="400" fill="white"/>
<path d="M123.096 249.2C128.346 252.698 136.912 262.116 139.124 269.43C140.654 274.492 137.108 277.004 132.924 275.66C124.098 272.828 105.984 252.038 116.63 252.158C122.346 252.222 128.964 260.414 132.182 265.138C132.522 265.638 132.982 266.308 132.31 266.802C130.726 267.952 123.898 255.502 117.842 254.618C110.842 253.598 124.896 268.818 131.494 272.56C134.574 274.304 137.834 274.304 136.908 270.922C134.742 263.01 124.074 253.944 123.096 249.2Z" fill="#101828"/>
<path d="M177.772 254C177.592 255.724 138.694 290.8 138.018 291.322C137.548 291.684 137.048 292.38 136.418 291.764C135.402 290.764 134.488 292.092 174.31 254.336C175.836 252.888 177.252 251.956 177.772 254Z" fill="#101828"/>
<path d="M169.738 278.096C159.556 286.906 146.916 300.014 145.548 298.432C144.396 297.098 159.148 285.158 168.264 276.474C169.82 275 171.414 276.646 169.738 278.096Z" fill="#101828"/>
<path d="M201.6 334.2C201.644 335.818 191.976 343.524 190.71 344.532C188.966 345.92 187.26 344.532 188.938 342.758C192.145 339.367 195.579 336.199 199.216 333.274C199.356 333.124 199.529 333.008 199.72 332.933C199.912 332.859 200.117 332.828 200.322 332.843C200.527 332.859 200.726 332.92 200.904 333.022C201.082 333.124 201.235 333.265 201.352 333.434C201.508 333.659 201.595 333.926 201.6 334.2Z" fill="#101828"/>
<path d="M191.684 358.502C189.866 360.23 190.914 359.274 122.228 289.422C106.028 272.94 105.762 273.382 107.428 271.756C115.088 264.284 116.496 264.036 115.04 262.592C114.04 261.604 113.04 262.678 112.284 263.35C109.683 265.666 107.228 268.142 104.934 270.762C102.906 273.074 102.908 273.076 104.998 275.414L105.024 275.444C118.664 290.696 177.9 350.626 177.846 350.576C189.806 362.8 189.62 363.538 191.846 361.564C193.08 360.482 206.566 348.402 220.49 335.452L219.05 332.804C209.882 341.321 200.76 349.887 191.684 358.502Z" fill="#101828"/>
<path d="M128.264 247.74C126.864 249.004 128.876 251.486 130.246 250.234C132.892 247.814 136.356 244.672 140.09 241.296L136.786 240.256C133.947 242.752 131.105 245.246 128.264 247.74Z" fill="#101828"/>
<path d="M148.092 130.62C114.574 127.4 112.514 128.41 111.736 132.6C110.73 137.903 110.113 143.273 109.89 148.666C110.016 152.866 109.704 153.822 112.362 154.386C114.028 156.38 149.518 160.264 168.504 162.212L167.23 158.442C157.94 157.462 142.362 155.608 115.85 151.822C112.75 151.378 112.538 150.994 112.92 148.022C115.152 130.622 113.754 132.052 118.488 132.222C132.351 132.994 146.176 134.346 159.926 136.274V132.222C156.001 131.552 152.054 131.018 148.092 130.62Z" fill="#7F56D9"/>
<path d="M122.374 190C120.434 207.4 124.374 203.924 104.656 200.764C102.256 200.38 103.242 199.21 104.39 186.482C104.546 184.75 104.34 185.218 119.652 188.234C121.274 188.562 122.818 188.242 122.374 190ZM105.974 197.6C105.63 199.016 106.736 198.718 117.234 200.43C119.344 200.774 118.458 199.516 119.644 191.77C119.918 189.97 119.726 190.7 108.264 187.898C106.692 187.516 107.138 187.526 105.978 197.598L105.974 197.6Z" fill="#7F56D9"/>
<path d="M119.946 213.148C118.926 226.42 119.37 226.148 117.76 225.834C101.776 222.66 101.482 223.452 101.666 221.06C103.15 201.878 98.8759 208.588 118.42 210.86C119.692 211.012 120.27 211.624 119.946 213.148ZM104.382 219.27C104.52 219.794 103.882 220.786 105.196 220.998C108.628 221.554 112.052 222.16 115.474 222.742C117.134 223.026 116.684 222.412 117.358 214.188C117.494 212.534 117.526 213.086 106.174 210.43C104.578 210.056 105 210.638 104.382 219.27Z" fill="#7F56D9"/>
<path d="M140.832 206.572C126.072 204.586 126.086 205.294 126.36 203.034C126.582 201.204 127.048 197.518 127.576 194.044C128.436 188.39 127.628 190.098 143.476 192.46C145.436 192.752 144.838 192.734 142.72 205.81C142.526 207 141.666 206.56 140.832 206.572ZM139.432 203.672C140.966 203.934 140.38 203.306 141.832 195.81C142.132 194.278 141.902 194.862 131.872 192.956C129.672 192.536 130.362 193.516 129.298 200.872C129.064 202.6 129.262 201.936 139.44 203.672H139.432Z" fill="#7F56D9"/>
<path d="M134.508 166.15C149.77 168.716 149.656 167.75 149.108 170.798C146.708 184.102 146.908 182.998 142.874 182.366C131.138 180.542 129.726 181.214 130.196 179.11C133.2 165.714 132.724 166.2 134.508 166.15ZM146.948 171.846C147.182 170.486 146.498 170.762 135.892 168.798C133.892 168.43 134.892 169.778 133.022 176.612C132.444 178.712 133.046 178.262 143.858 179.766C145.518 180 145.056 179.916 146.948 171.846Z" fill="#7F56D9"/>
<path d="M162.186 209.364C148.456 207.66 147.986 208.194 148.436 205.846C150.68 194.36 149.8 193.38 151.636 193.672C165.138 195.806 166.098 194.848 165.656 197.092C163.496 208.038 163.55 209.712 162.186 209.364ZM153.86 196.6C153.402 196.65 152.46 196.014 152.296 197.4C151.07 207.126 148.712 204.83 160.016 206.292C161.6 206.492 161.072 205.66 162.556 198.974C162.978 197.054 162.002 197.454 153.86 196.6Z" fill="#7F56D9"/>
<path d="M124.566 223.508C125.366 212.708 124.866 212.146 126.916 212.508C141.916 215.166 141.528 214.01 141.048 217.594C139.66 227.978 140.41 229.3 137.728 228.88C123.298 226.618 124.598 228.074 124.566 223.508ZM138.55 218.308C138.984 216.662 138.094 217.184 128.874 215.322C127.358 215.016 127.734 215.192 127.04 223.292C126.888 225.056 126.676 224.572 136.782 226.044C138.202 226.246 137.81 226.084 138.55 218.304V218.308Z" fill="#7F56D9"/>
<path d="M124.058 178.144C124.014 179.102 123.42 179.492 122.392 179.298C106.836 176.378 105.792 177.058 106.31 174.486C108.91 161.676 107.952 161.07 110.168 161.514C131.85 165.854 124.852 161.142 124.058 178.144ZM120.892 176.452C122.42 176.67 121.876 175.47 123.39 167.226C123.694 165.572 123.226 166.272 111.704 163.594C109.926 163.182 110.236 163.722 109.07 172.128C108.65 175.162 108.2 174.65 120.892 176.452Z" fill="#7F56D9"/>
<path d="M166 185.47C152.164 183.64 152.12 184.152 152.49 182.246C154.784 170.408 153.956 169.446 155.856 169.716C169.856 171.704 169.904 171.236 169.556 173.238C167.68 184.136 168.526 185.8 166 185.47ZM167.02 175.024C167.364 173.224 166.634 173.824 157.06 172.424C155.312 172.166 156.04 173.024 154.874 180.094C154.73 180.964 155.004 181.2 155.794 181.294C167.84 182.734 165.264 184.2 167.02 175.024Z" fill="#7F56D9"/>
<path d="M157.11 231.642C145.536 230.042 144.984 230.426 145.204 228.816C147.004 215.816 146.58 215.838 148.174 216.08C161.598 218.122 161.732 217.444 161.328 219.246C159.082 229.218 159.3 232.272 157.11 231.642ZM149.816 218.886C148.174 218.64 148.816 220.418 147.67 226.076C147.286 227.964 147.842 227.46 156.18 228.738C157.35 228.918 156.892 228.696 158.346 221.006C158.6 219.642 158.484 220.18 149.816 218.886Z" fill="#7F56D9"/>
<path d="M169.64 208.184C172.22 196.552 171.126 196.166 173.214 196.37C174.934 196.538 176.434 196.672 177.748 196.782V198.902C177.028 198.848 176.228 198.782 175.34 198.704C173.83 198.57 174.172 199.092 172.662 206.514C172.37 207.952 172.962 207.64 179.722 208.34L181.25 210.694C169.108 210.58 169.19 210.21 169.638 208.196L169.64 208.184Z" fill="#7F56D9"/>
<path d="M177.642 233.366C171.118 232.202 164.582 233.966 165.262 230.876C167.862 219.058 166.938 218.524 168.976 218.746C182.106 220.18 182.976 219.446 182.45 221.576C181.574 225.176 180.662 228.762 179.836 232.376C179.502 233.828 178.4 233.07 177.642 233.366ZM176.418 230.864C176.84 230.842 177.528 231.154 177.79 230.244C178.508 227.846 179.08 225.41 179.504 222.944C179.758 221.362 179.104 221.792 170.856 221.264C169.378 221.17 169.686 221.592 168.112 228.922C167.764 230.544 168.338 230.146 176.418 230.864Z" fill="#7F56D9"/>
<path d="M120.104 114.312C104.924 114.078 101.004 110.656 94.8099 164.808C87.0699 232.486 88.3719 231.478 100.936 235.75C114.356 240.314 169.49 246.218 180.536 245.94C182.156 246.035 183.759 245.561 185.066 244.599C186.374 243.638 187.304 242.249 187.696 240.674C187.908 240 188.168 239.052 188.466 237.866L186.298 233.662C185.78 236.192 185.338 238.088 185 239.188C183.834 242.988 182.584 242.828 175.656 242.698C169.628 242.586 145.776 240.298 141.4 239.688C105.836 234.688 93.5299 234.192 93.3079 222.956C93.0099 207.846 99.9739 134.718 107.308 120.556C108.274 118.688 108.998 117.866 115.416 118.122C121.83 118.378 139.466 119.576 156.702 121.676V118.122C141.048 115.85 125.848 114.398 120.104 114.312Z" fill="#7F56D9"/>
<path d="M246.928 350.966C248.528 353.596 251.822 351.32 254.928 350.402C288.928 340.324 392.766 306.932 424.68 291.454C426.8 290.41 427.986 288.934 427.732 287.2C426.376 268.172 421.116 243.606 416.542 225.302L411.402 222.852C413.08 228.622 414.342 233.224 415.026 236.18C418.813 252.592 421.808 269.176 424 285.876C424.106 286.224 424.142 286.59 424.106 286.952C424.068 287.314 423.957 287.665 423.781 287.984C423.606 288.302 423.368 288.583 423.082 288.808C422.795 289.032 422.467 289.196 422.116 289.292C410.132 294.962 251.096 352.162 248.904 347.596C246.568 342.736 244.504 338.312 242.636 334.136L238.89 335.55C241.454 341.184 244.126 346.356 246.928 350.966Z" fill="#101828"/>
<path d="M382.756 116.734C371.156 82.0658 366.956 74.3658 356.032 52.1478C353.986 47.9818 354.304 48.1018 350.102 48.6138C343.39 49.4298 338.262 50.0458 333.464 50.7718L334.792 53.9718C345.324 51.9118 352.122 51.2938 352.858 52.8618C358.984 65.9278 365.16 78.9678 369.968 92.6018C370.514 94.1698 388.97 150.248 402.24 192.738L407.074 193.884L382.756 116.734Z" fill="#101828"/>
<path d="M357.006 105.964C345.406 71.2958 341.206 63.5958 330.282 41.3778C328.236 37.2118 328.554 37.3318 324.352 37.8438C293.352 41.6158 296.164 41.0838 209.09 67.0978C190.638 72.6118 164.066 80.7318 148.53 89.0378C144.57 91.1578 146.668 89.6218 171.13 181.796C186.202 238.586 200.03 305.384 221.178 340.196C222.778 342.826 226.072 340.55 229.178 339.632C263.178 329.554 367.01 296.15 398.93 280.684C401.062 279.64 402.236 278.164 401.982 276.43C400.502 255.662 394.372 228.3 389.558 209.68L385.376 206.876L386.75 201.5L381.6 198.546C385.294 210.676 388.112 220.402 389.268 225.408C393.068 241.83 396.008 258.408 398.244 275.11C398.35 275.458 398.386 275.822 398.35 276.184C398.294 276.729 398.075 277.244 397.72 277.662C397.366 278.08 396.894 278.381 396.366 278.526C384.4 284.2 225.346 341.4 223.154 336.83C197.954 284.37 204.188 282.718 151.554 96.0138C150.23 91.3198 150.24 91.3138 154.608 89.2438L154.642 89.2278C178.516 77.8978 323.55 34.5178 327.1 42.0878C333.228 55.1578 339.402 68.1958 344.21 81.8318C344.532 82.7558 351.088 102.652 359.134 127.538L364.504 129.748L357.006 105.964Z" fill="#101828"/>
<path d="M206.2 91.6118C214.479 91.6852 222.404 94.9788 228.296 100.795C234.188 106.611 237.585 114.493 237.766 122.77C237.814 142.226 223.65 154.538 206.766 154.344C165.4 153.864 164.84 91.4158 206.2 91.6118ZM194.968 148.644C195.836 149.11 196.356 149.282 196.786 148.02C205.104 123.588 205.284 125.068 204.734 123.466C195.242 95.7818 196.286 95.8858 193.722 97.2538C172.496 108.6 172.87 136.766 194.968 148.644ZM234.948 123.844C235.048 105.862 217.294 90.4938 198.878 95.3878C197.692 95.7018 197.696 96.1558 198.03 97.1638C206.996 124.218 205.75 123.508 208.268 123.908C237.4 128.548 234.914 129.896 234.948 123.844ZM233.866 131.844C234.522 129.784 235.126 130.834 207.54 125.768C205.94 125.476 206.68 125.448 198.694 149.138C197.502 152.664 226.252 155.736 233.866 131.836V131.844Z" fill="#101828"/>
<path d="M371.166 251.342C373.098 251.47 373.524 253.57 371.476 254.296C361.448 257.844 350.648 260.95 297.476 277.752C228.046 299.688 228.652 299.84 228.14 298.096C227.54 296.094 369.24 251.756 371.166 251.342Z" fill="#101828"/>
<path d="M254.34 278.092C256.102 278.738 255.488 278.996 267.254 263.05C269.19 260.426 269.68 261.05 287.618 266.588C289.29 267.104 288.818 267.518 299.552 251.088C301.3 248.41 301.552 248.748 319.596 254.024C322.356 254.824 320.428 255.06 357.008 223.996C360.104 221.366 361.588 219.15 362.848 220.796C364.152 222.498 363.68 221.95 328.184 252.086C322.098 257.254 321.722 257.258 319.904 256.722C301.752 251.37 302.43 251.042 301.362 252.722C298.263 257.585 295 262.341 291.578 266.982C289.702 269.538 289.62 269.558 286.624 268.67C269.4 263.562 270.046 262.956 268.804 264.57C256.42 280.634 256.274 281.136 253.804 280.14C243.726 276.094 243.726 276.576 242.86 277.408C236.686 283.332 231.84 288.096 231.016 287.306C230.312 286.63 231.15 286.044 231.556 285.602C234.888 281.992 238.387 278.539 242.04 275.254C243.122 274.276 244.16 274.36 254.34 278.092Z" fill="#101828"/>
<path d="M238.32 263.4C239.948 263.56 250.006 267.38 251.532 267.97C252.4 268.306 252.908 268.326 253.436 267.37C260.264 255.106 268.016 243.4 275.256 231.38C276.692 228.992 276.56 229.402 291.968 236.118C293.932 236.974 293.168 237.004 303.86 220.162C305.3 217.894 304.77 217.162 316.178 223.198C318.148 224.24 317.778 223.722 326.246 214.278C328.06 212.258 328.924 213.906 328.228 214.7C318.328 225.998 318.864 226.252 316.914 225.356C313.65 223.854 310.33 222.46 307.148 220.802C304.522 219.434 305.968 221.944 295.226 237.602C293.764 239.734 293.862 239.39 278.892 232.844C275.522 231.37 277.382 234.96 254.292 269.38C252.972 271.346 253.024 271.394 239.6 266.292C237.692 265.566 238.566 265.728 229.158 278.99C227.21 281.736 225.65 280.74 227.494 277.926C237.42 262.8 236.872 263.248 238.32 263.4Z" fill="#101828"/>
<path d="M241.938 91.2377C240.234 91.2097 240.014 90.0177 241.028 89.2577C243.644 87.3057 314.428 62.5217 318.318 61.7217C318.494 61.6526 318.682 61.6203 318.871 61.6268C319.059 61.6333 319.245 61.6786 319.415 61.7597C319.586 61.8408 319.738 61.9561 319.862 62.0984C319.987 62.2408 320.08 62.4071 320.138 62.5871C320.195 62.7671 320.215 62.9569 320.196 63.1449C320.177 63.3328 320.119 63.5149 320.027 63.6797C319.935 63.8446 319.81 63.9888 319.66 64.1033C319.509 64.2179 319.337 64.3004 319.154 64.3457C304.584 70.2597 247.86 89.6397 241.938 91.2377Z" fill="#101828"/>
<path d="M248.752 110.076C247.004 109.924 247.056 108.476 248.088 107.938C253.564 105.092 319.272 82.156 321.878 81.668C324.326 81.21 324.536 83.632 322.75 84.35C312.954 88.294 256.9 107.876 248.752 110.076Z" fill="#101828"/>
<path d="M253.532 118.868C252.146 118.762 251.716 117.668 252.81 116.812C255.046 115.064 323.982 90.9019 327.078 90.3779C327.413 90.3042 327.764 90.3601 328.06 90.5345C328.356 90.7089 328.575 90.9889 328.673 91.3182C328.771 91.6474 328.741 92.0016 328.589 92.3094C328.436 92.6173 328.173 92.8561 327.852 92.9779C319.6 96.5019 260.058 117.184 253.532 118.868Z" fill="#101828"/>
<path d="M212.532 235.584C205.236 212.5 201.132 217.85 223.748 209.626C226.774 208.526 226.044 211.582 232.834 228.198C232.984 228.466 233.07 228.766 233.085 229.074C233.1 229.381 233.043 229.688 232.92 229.97C232.796 230.252 232.609 230.501 232.374 230.7C232.138 230.898 231.861 231.04 231.562 231.114C215.618 235.868 213.422 238.41 212.532 235.584ZM228.292 228.616C229.378 228.206 228.924 228.416 224.172 214.512C223.466 212.44 223.792 213.284 210.252 217.882C208.928 218.332 209.398 218.156 214.936 232.682C215.47 234.078 215.198 233.556 228.292 228.616Z" fill="#101828"/>
<path d="M220.336 193.754C221.536 196.67 219.716 196.384 202.656 202.12C199.856 203.06 200.32 202.468 194.534 185.098C193.134 180.898 193.406 181.672 211.102 175.184C214.366 173.986 213.562 177.296 220.336 193.754ZM211.56 179.782C211.09 178.41 211.16 178.358 197.994 183.328C196.25 183.986 196.994 183.624 202.342 198.078C202.814 199.352 202.782 199.58 215.582 194.216C217.032 193.61 216.43 193.978 211.56 179.782Z" fill="#101828"/>
<path d="M244.14 98.8637C245.252 97.9877 244.276 98.2957 285.44 83.4297C303.216 77.0097 304.944 76.2417 305.558 78.0857C306.304 80.3217 306.276 79.9637 247.61 100.252C243.142 101.8 243.148 99.6417 244.14 98.8637Z" fill="#101828"/>
<path d="M236.066 210.974C233.978 210.85 233.982 209.286 235.23 208.71C240.402 206.31 255.382 202.422 273.61 196.362C274.964 195.912 276.234 195.654 276.714 196.998C277.45 199.062 275.714 198.962 266.164 201.878C236.1 211.07 238.89 210.286 236.066 210.974Z" fill="#101828"/>
<path d="M224.428 175.188C222.364 174.962 222.36 173.606 223.628 172.902C226.978 171.048 242.938 166.902 261.508 160.732C263.054 160.22 264.744 159.704 265.128 161.416C265.528 163.18 263.786 163.338 259.414 164.672C224.474 175.318 227.45 174.462 224.428 175.188Z" fill="#101828"/>
<path d="M227.388 290.316C227.502 299.916 215.72 255.704 214.952 252.932C214.218 250.286 214.018 249.24 215.124 248.914C216.508 248.514 216.904 249.66 218.588 255.876C221.442 266.4 225.4 279.644 227.388 290.316Z" fill="#101828"/>
<path d="M238.56 218.946C236.54 219.062 236.63 217.522 237.888 217.064C245.688 214.212 239.588 216.24 266.102 207.648C267.152 207.308 268.102 207.048 268.454 208.108C268.93 209.56 266.868 209.806 264.338 210.622C256.29 213.218 245.572 217.076 238.56 218.946Z" fill="#101828"/>
<path d="M226.754 183.234C224.8 183.132 225.042 181.682 226.454 181.19C256.264 170.82 256.28 170.99 256.762 172.246C257.196 173.372 256.242 173.718 255.406 173.992C226.8 183.362 229.03 182.626 226.754 183.234Z" fill="#101828"/>
<path d="M336.508 119.868C376.846 119.434 397.108 158.812 385.638 188.288C385.238 189.32 385.994 189.536 386.69 189.872C388.024 190.516 389.408 191.748 390.678 191.642C393.102 191.442 392.554 185.842 396.428 187.592C410.872 194.126 453.696 215.266 464.356 225.744C474.344 235.562 469.256 242.17 463.044 243.198C444.218 246.314 401.524 218.598 385.184 208.598C384.625 208.315 384.201 207.822 384.004 207.227C383.808 206.632 383.855 205.984 384.136 205.424C385.162 201.978 385.03 202.074 381.9 200.498C380.192 199.638 379.378 200.146 378.358 201.518C360.92 224.99 321.13 227.398 299.912 200.704C275.6 170.112 293.43 120.33 336.508 119.868ZM383.974 171.306C383.856 140.24 354.052 118.026 325.55 126.292C294.714 135.232 282.84 171.944 304.642 198.422C331.656 231.232 384.134 212.874 383.974 171.306ZM394.388 204.876C399.738 193.696 403.09 193.946 396.988 190.876C395.8 190.276 395.202 190.584 394.588 191.732C386.566 206.836 385.674 206.092 387.664 207.366C400.896 215.834 428.054 231.142 447.218 237.902C465.204 244.246 469.818 238.488 466.044 232.624C459.802 222.91 440.09 213.868 404.656 194.918C403.48 194.288 403.4 195.918 402.416 197.318C400.776 199.65 399.3 204.044 396.45 206.772C396.244 206.964 391.894 210.088 394.388 204.876ZM381.902 196.096C381.764 197.136 382.956 196.98 385.264 198.446C386.482 199.22 387.086 198.9 387.684 197.62C389.118 194.556 389.184 194.588 386.17 192.82C383.626 191.33 384.678 191.298 381.902 196.096Z" fill="#7F56D9"/>
<path d="M377.456 173.352C377.283 182.058 373.921 190.398 368.007 196.79C362.094 203.182 354.04 207.181 345.374 208.03C339.866 208.589 334.303 207.975 329.05 206.23C323.796 204.485 318.972 201.647 314.894 197.904C310.815 194.16 307.576 189.596 305.388 184.511C303.2 179.426 302.114 173.935 302.2 168.4C302.74 147.084 318.482 133.114 335.62 132.544C361.35 131.674 377.522 152.8 377.456 173.352ZM320.55 182.682C320.452 183.418 320.55 184.166 321.312 184.418C323.434 185.116 327.356 169.508 329.97 159.74C333.384 146.976 334.728 143.94 332.476 143.45C329.85 142.87 320.978 179.454 320.55 182.682ZM332.132 176.186C332.054 177.358 333.532 178.708 334.182 176.456C336.058 169.934 337.582 163.324 339.02 156.69C339.22 155.736 339.342 154.87 338.31 154.584C336.688 154.138 336.59 154.114 332.132 176.186ZM318.932 152.21C316.222 153.704 310.674 174.678 312.656 175.21C314.728 175.772 319.584 156.534 318.924 152.21H318.932Z" fill="#7F56D9"/>
</svg>
