<svg width="560" height="400" viewBox="0 0 560 400" fill="none" xmlns="http://www.w3.org/2000/svg">
<rect width="560" height="400" fill="white"/>
<path fill-rule="evenodd" clip-rule="evenodd" d="M444.67 282.442C442.904 283.554 431.532 290.146 415.192 299.558C414.04 298.556 412.865 297.58 411.668 296.632C416.942 293.66 421.368 291.178 425.072 289.1C440.276 280.572 443.328 278.86 443.104 278.05C443.048 277.846 442.786 277.698 442.458 277.516C442.406 277.487 442.355 277.458 442.304 277.428L442.2 277.368C405.33 255.714 380.078 240.494 362.698 229.836L364.684 227.206C373.374 232.382 383.932 238.7 396.76 246.436L401.844 249.502H401.846C422.548 261.984 431.596 267.44 443.972 275.16C447.468 277.344 447.228 280.83 444.67 282.442ZM342.18 213.856C326.388 204.508 324.512 203.332 324.284 201.896C324.252 201.702 324.252 201.504 324.25 201.28V201.192C324.024 167.284 323.96 151.396 323.926 143C323.925 139.553 323.9 136.106 323.852 132.66C323.828 131.406 323.794 130.152 323.74 128.174L323.718 127.374C323.374 114.934 323.176 102.491 323.124 90.046C323.05 76.652 323.036 74.442 321.104 71.792L320.974 71.612C320.674 71.2 320.416 70.842 320.09 70.566C318.356 69.092 314.714 69.866 292.882 76.34C293.036 77.184 293.186 78.02 293.33 78.85C307.68 74.684 316.792 72.224 317.32 72.59C319.776 74.3 319.906 75.702 320.26 79.506V79.508C320.318 80.134 320.382 80.824 320.464 81.592C320.548 82.382 320.596 96.524 320.656 113.636C320.726 133.944 320.81 158.432 320.984 169.73L320.988 169.88C321.042 172.076 321.67 197.308 321.288 203.13L300.518 212.306C300.842 213.354 301.182 214.378 301.538 215.382C308.83 212.098 315.812 208.922 322.348 205.902C323.594 205.326 323.69 205.388 332.75 211.142C334.834 212.464 337.392 214.092 340.546 216.08L342.18 213.856ZM311.01 359.272C309.71 358.283 308.393 357.315 307.06 356.37C276.932 373.726 259.292 384.034 256.54 385.64L256.162 385.862V385.854C255.518 385.496 244.338 377.836 228.628 367.074L228.624 367.072C192.728 342.48 133.176 301.686 121.576 294.716C120.668 294.17 148.304 282.194 185.498 266.13C185.134 265.298 184.778 264.456 184.428 263.602L129.088 288.056C127.946 288.568 126.912 289.044 125.98 289.472V289.474C120.58 291.958 118.566 292.884 118.2 290.488C117.644 286.782 116.008 157.182 115.77 138.276L115.74 135.986V135.892C115.734 133.76 115.726 131.436 118.32 130.708C134 126.316 153.574 120.578 174.28 114.42C174.214 113.426 174.146 112.44 174.074 111.46C118.822 127.698 114.634 129.1 113.934 131.512C113.876 131.71 113.842 131.912 113.806 132.132L113.784 132.262C112.376 140.502 114.908 261.146 115.384 283.83C115.434 286.174 115.462 287.472 115.46 287.492L115.45 287.652C115.316 289.724 115.036 294.082 118.312 296.446C149.99 319.314 213.018 362.08 245.368 383.994C246.848 384.996 248.088 385.868 249.144 386.61C253.76 389.856 254.932 390.678 257.616 389.474C259.21 388.758 281.92 375.876 311.01 359.272Z" fill="#101828"/>
<path fill-rule="evenodd" clip-rule="evenodd" d="M268.934 334.796L266.408 333.562C261.048 336.5 257.048 338.696 256.59 338.984C255.8 339.488 255.768 339.464 251.558 336.326C250.086 335.23 248.104 333.752 245.402 331.784C239.282 327.322 239.13 327.228 238.998 327.108L238.98 327.092C238.576 326.72 238.148 326.562 238.106 326.334C238.032 325.914 239.27 325.258 244.408 322.612C243.368 322.066 242.328 321.514 241.296 320.956C215.454 334.64 211.996 336.782 212.286 337.608C212.358 337.814 212.664 337.938 212.914 338.14C212.958 338.176 233.634 351.694 235.972 352.432C237.56 351.77 250.752 344.676 268.934 334.796ZM377.622 275.306C388.218 269.476 395.096 265.678 395.69 265.324C399.794 262.89 398.964 262.458 395.866 260.846C395.242 260.526 394.623 260.196 394.01 259.856C379.266 251.622 377.46 249.86 376.082 250.146C375.726 250.22 375.398 250.43 374.886 250.7L353.76 261.812L356.726 263.49C373.77 254.386 374.256 254.138 375.524 253.492L376.094 253.2C377.81 254.036 384.244 257.536 384.28 257.564C392.762 261.906 394.582 262.712 394.498 263.118C394.474 263.232 394.3 263.314 394.08 263.436C384.904 268.524 379.034 271.834 375.224 273.946L377.622 275.306ZM252.96 340.692C253.076 341.128 250.816 342.198 236.418 350.332C235.38 349.6 227.042 344.168 225.984 343.48C218.324 338.472 216.734 337.66 216.83 337.306C216.858 337.202 217.028 337.138 217.232 337.022C221.782 334.42 223.818 333.38 226.608 331.952C228.38 331.048 230.454 329.986 233.668 328.274C234.86 327.638 235.094 327.814 237.666 329.738C238.44 330.318 239.428 331.056 240.718 331.98C249.938 338.578 251.418 339.586 252.08 340.036C252.268 340.164 252.39 340.248 252.606 340.402C252.77 340.52 252.932 340.588 252.96 340.692Z" fill="#101828"/>
<path fill-rule="evenodd" clip-rule="evenodd" d="M333.656 225.424C329.214 223.162 326.352 221.694 324.452 220.72L324.45 220.718C320.776 218.836 320.696 218.794 319.72 218.41L317.218 219.572L317.198 219.582L305.664 224.944C306.088 225.714 306.524 226.468 306.974 227.206C312.282 224.588 314.002 223.818 315.632 223.09C316.62 222.648 317.574 222.222 319.274 221.408L319.372 221.36C319.491 221.296 319.616 221.243 319.746 221.204C320.328 221.048 321.058 221.448 325.304 223.772C326.596 224.478 328.21 225.362 330.244 226.462C330.886 226.788 331.52 227.124 332.15 227.47L332.862 226.5L333.656 225.424ZM323.262 239.556L319.676 241.358C319.049 240.878 318.434 240.384 317.83 239.876C317.962 239.802 318.042 239.752 318.07 239.73C317.756 239.392 317.014 238.888 315.962 238.226C313.359 235.815 311.015 233.138 308.968 230.24C311.388 231.634 315.198 233.934 320.588 237.948C320.775 238.072 320.968 238.184 321.168 238.286V238.28C321.526 238.122 323.472 237.18 325.882 235.994L323.262 239.556ZM205.976 295.972C206.47 296.464 206.968 296.95 207.472 297.43C201.036 300.648 195.942 303.216 191.892 305.256C178.184 312.168 176.486 313.024 175.386 312.534C175.225 312.456 175.071 312.364 174.926 312.26L174.83 312.196L154.466 298.756C154.184 298.619 153.948 298.404 153.784 298.137C153.621 297.869 153.537 297.561 153.544 297.247C153.55 296.934 153.646 296.629 153.821 296.369C153.995 296.108 154.241 295.903 154.528 295.778C159.032 293.512 173.332 286.744 191.76 278.094C192.202 278.814 192.654 279.524 193.112 280.224C184.772 284.09 182.616 285.202 182.75 285.832C182.8 286.07 183.174 286.238 183.666 286.46C184.066 286.64 184.542 286.856 184.984 287.17L191.684 291.932C199.954 297.81 200.384 298.114 200.84 298.372L200.912 298.412L200.98 298.45C202.2 297.852 203.918 297 205.976 295.972ZM177.464 310.334L177.922 310.066C178.528 309.722 179.152 309.408 182.45 307.75C184.828 306.554 188.598 304.66 194.754 301.55L195.078 301.386C197.622 300.102 197.814 300.006 197.37 299.524C197.248 299.392 195.89 298.4 193.86 296.914C191.295 295.044 188.74 293.16 186.194 291.264C184.156 289.742 182.842 288.664 181.942 287.928C180.116 286.432 180.006 286.342 179.056 286.798C171.424 290.466 166.116 292.836 162.576 294.418C159.096 295.97 157.322 296.764 156.718 297.28C157.224 297.758 158.172 298.346 160.462 299.766C163.338 301.55 168.33 304.644 177.214 310.48L177.464 310.334Z" fill="#101828"/>
<path fill-rule="evenodd" clip-rule="evenodd" d="M354.746 240.32C357.696 241.936 359.772 243.078 361.256 243.894L361.262 243.896C364.97 245.934 364.996 245.95 365.782 246.3L365.906 246.35C366.028 246.398 366.128 246.438 366.15 246.504C366.248 246.816 364.518 247.708 354.504 252.876C351.629 254.358 348.756 255.843 345.884 257.33L348.116 258.604C359.86 252.408 367.676 248.234 368.618 247.614C371.114 245.964 370.496 245.63 369.35 245.008L369.198 244.926C365.814 243.074 362.962 241.508 360.552 240.186L356.528 237.978L354.746 240.32ZM233.212 316.406C233.872 316.796 234.538 317.184 235.208 317.568C218.894 326.026 207.396 331.946 206.034 332.562C199.354 328.236 194.466 325.12 190.918 322.86C183.56 318.172 181.968 317.156 182.116 316.634C182.156 316.49 182.33 316.382 182.552 316.246L182.634 316.196C183.04 315.942 194.768 309.968 211.78 301.336C212.428 301.892 213.082 302.442 213.742 302.986C205.444 307.13 195.958 311.928 188.472 315.974C188.31 316.062 188.14 316.144 187.976 316.224C187.27 316.57 186.68 316.86 187.302 317.232C187.422 317.302 189.812 318.848 192.906 320.846L192.934 320.866C198.78 324.644 207.11 330.026 207.4 330.174C207.722 330.014 207.906 329.912 208.36 329.656C209.786 328.858 213.864 326.57 233.212 316.406Z" fill="#101828"/>
<path fill-rule="evenodd" clip-rule="evenodd" d="M297.962 201.89C303.7 199.37 308.944 197.042 311.102 196.016C311.57 195.796 311.952 195.628 312.264 195.376C314.464 193.582 313.128 187.446 313.128 126.828C313.172 126.828 313.172 126.826 313.088 123.332C312.9 115.481 312.731 107.629 312.58 99.7762C312.41 90.5542 312.406 90.4162 311.69 88.6782C309.908 84.3522 306.186 85.5362 303.866 86.2722C303.628 86.3482 303.404 86.4182 303.2 86.4782C299.982 87.4142 297.256 88.2022 294.878 88.8902C294.976 89.6262 295.07 90.3502 295.16 91.0642C301.346 89.2202 304.966 88.1402 304.972 88.1362C305.758 87.7811 306.653 87.7512 307.461 88.0532C308.269 88.3552 308.925 88.9645 309.286 89.7482C310.412 91.3902 310.408 98.9762 310.398 117.526C310.347 142.251 310.564 166.975 311.05 191.694C311.078 193.224 311.04 193.24 309.69 193.8L309.526 193.868C305.416 195.58 301.386 197.26 297.438 198.91C297.6 199.906 297.774 200.899 297.962 201.89ZM175.066 126.73C153.336 133.142 136.672 138.01 133.338 138.862C132.547 138.992 131.835 139.419 131.348 140.056C130.862 140.694 130.638 141.493 130.722 142.29C132.884 254.584 131.22 268.306 133.648 269.074C134.048 269.2 134.556 268.976 135.21 268.782L135.44 268.678C137.356 267.8 151.312 261.406 179.752 249.002C180.058 250.186 180.376 251.354 180.71 252.502C139.41 270.34 136.62 271.478 133.93 271.278C133.674 271.258 133.42 271.226 133.132 271.196C131.382 271.014 130.09 268.364 130.09 266.578C130.09 254.554 129.762 236.262 129.416 216.954C128.906 188.594 128.36 158.046 128.754 141.962C128.856 137.772 129.232 137.662 150.718 131.396C154.868 130.186 159.806 128.746 165.68 127.002C168.866 126.058 171.958 125.142 174.954 124.25C174.994 125.076 175.03 125.904 175.066 126.73Z" fill="#101828"/>
<path d="M171 143.866C171 147.59 171.4 149.046 169.472 149.828C167.006 150.828 142.472 158.8 138.848 159.294C135.848 159.694 136.788 154.594 136.51 148.894C136.414 146.938 135.78 146.894 167.726 137.562C169.778 136.962 170.8 137.776 170.908 139.962C171.016 142.148 170.894 143.866 171 143.866Z" fill="#101828"/>
<path d="M200.852 171.474C200.998 170.02 201.234 169.988 201.652 169.834C210.038 166.69 268.15 151.33 268.63 151.294C271.076 151.094 271.03 151.12 271.546 153.234C273.559 162.747 274.005 172.525 272.866 182.182C272.752 183.158 272.25 183.362 266.606 184.966C265.714 185.22 212.084 200.366 201.94 202.366C199.924 202.766 200.242 201.086 200.22 198.69C200.218 198.494 200.706 172.898 200.852 171.474ZM270.162 172.088C270.198 166.265 269.838 160.445 269.084 154.67C268.844 153.59 271.402 153.61 223.284 166.37C203.558 171.6 207.18 170.6 203.64 171.92C202.64 172.29 203.51 172.736 203.6 178.708C203.803 183.066 203.745 187.432 203.426 191.782C203.412 193.988 203.278 196.191 203.026 198.382C202.706 199.888 199.186 200.382 246.322 187.222C269.044 180.878 265.64 181.916 269.096 180.942C270.512 180.538 270.162 181.068 270.162 172.088Z" fill="#7F56D9"/>
<path d="M253.474 46.0941C253.474 48.5461 253.578 49.2061 251.566 49.8041C221.292 58.8041 210.24 62.3341 189.766 67.3701C187.864 67.8381 188.518 62.8781 184.144 55.1341C182.594 52.3921 184.034 51.9341 184.882 51.6461C191.172 49.4721 198.222 47.4621 210.282 44.1821C248.636 33.7521 246.96 33.7821 249.046 35.5821C251.82 38.3854 253.406 42.1507 253.474 46.0941ZM248.568 38.8821C247.62 37.0221 247.406 36.9521 245.486 37.5281C216.898 46.1021 200.886 49.0261 187.146 53.7981C186.426 54.0481 186.442 53.7981 188.8 58.4121C191.308 63.3201 190.136 64.9721 191.554 64.7241C191.682 64.7021 191.52 64.4441 227.32 54.1921C250.934 47.4281 250.854 47.9361 250.732 46.7921C250.815 43.9987 250.062 41.2441 248.568 38.8821Z" fill="#7F56D9"/>
<path d="M206.14 257.616C205.254 257.642 204.658 257.616 204.428 256.952C204.323 256.682 204.318 256.383 204.414 256.109C204.51 255.836 204.701 255.606 204.952 255.46C209.404 252.632 260.352 233.192 275.698 228.214C278.832 227.198 279.22 229.55 278.352 230.44C275.868 233 210.916 256.564 206.14 257.616Z" fill="#7F56D9"/>
<path d="M299.11 254.708C298.888 256.484 299.11 255.796 271.71 269.276C271.64 269.31 229.334 290.206 227.1 290.26C226.875 290.276 226.651 290.222 226.457 290.106C226.264 289.99 226.11 289.818 226.018 289.612C225.927 289.405 225.902 289.176 225.947 288.954C225.991 288.733 226.103 288.53 226.266 288.374C227.788 286.374 252.742 274.592 295.866 253.56C297.76 252.634 299.096 253.382 299.11 254.708Z" fill="#7F56D9"/>
<path d="M240.552 299.61C240.488 299.498 240.447 299.374 240.431 299.245C240.415 299.117 240.425 298.986 240.46 298.861C240.494 298.737 240.553 298.62 240.633 298.518C240.712 298.416 240.811 298.33 240.924 298.266C251.144 291.358 295.51 268.644 299.416 266.63C300.498 266.072 302.266 264.932 303.144 266.63C304.104 268.486 304.048 268.63 281.474 280.356C242.456 300.638 241.502 301.262 240.552 299.61Z" fill="#7F56D9"/>
<path d="M199.15 137.288C198.408 137.212 197.562 137.088 197.566 136.304C197.551 136.077 197.614 135.851 197.745 135.664C197.876 135.478 198.067 135.342 198.286 135.278C206.4 132.364 271.534 115.148 272.332 115.178C272.65 115.226 272.945 115.373 273.177 115.597C273.408 115.821 273.563 116.111 273.621 116.428C273.678 116.745 273.636 117.072 273.499 117.363C273.361 117.654 273.137 117.895 272.856 118.052C268.868 119.548 203.358 136.636 199.15 137.288Z" fill="#7F56D9"/>
<path d="M202.106 236.77C201.154 236.796 200.556 236.832 200.306 236.146C199.506 233.924 201.84 233.792 264.586 214.058C267.236 213.224 268.16 212.836 268.856 214.472C268.967 214.819 268.952 215.193 268.815 215.53C268.677 215.867 268.426 216.144 268.104 216.314C267 217.016 211.976 234.548 202.106 236.77Z" fill="#7F56D9"/>
<path d="M196.954 93.6944C196.274 93.6944 195.488 93.6944 195.554 92.9304C195.581 92.7472 195.649 92.5724 195.753 92.4191C195.857 92.2657 195.994 92.1377 196.154 92.0444C203.97 88.8324 267.856 71.1044 270.964 70.2644C272.986 69.7204 273.902 71.1204 273.12 72.0644C272.106 73.3124 200.032 93.4764 196.954 93.6944Z" fill="#7F56D9"/>
<path d="M277.68 247.776C277.156 249.194 278.13 248.72 255.08 258.834C214.308 276.728 212.756 276.82 212.898 275.152C212.984 274.126 213.408 273.836 215.18 272.994C228.602 266.62 246.512 258.82 260.18 252.994C277.086 245.8 275.938 245.344 277.68 247.776Z" fill="#7F56D9"/>
<path d="M201.852 218.758C200.696 218.758 200.252 218.506 200.282 217.79C200.332 216.59 199.732 216.21 227.87 208.16C256.508 199.96 257.588 199.394 258.188 201.14C258.32 201.488 258.333 201.869 258.224 202.225C258.116 202.581 257.892 202.89 257.588 203.104C256.98 203.502 207.952 218.322 201.852 218.758Z" fill="#7F56D9"/>
<path d="M193.144 81.0262C187.544 79.7402 214.434 72.6262 221.824 70.5262C251.374 62.1662 250.424 62.2342 251.548 62.7262C252.762 63.2602 253.328 64.7262 249.112 65.9782C249.07 65.9902 195.788 81.6322 193.144 81.0262Z" fill="#7F56D9"/>
<path d="M196.702 108.628C195.04 107.692 196.102 106.568 197.84 106.028C207.668 102.922 215.152 100.53 242.05 93.6001C242.85 93.4001 243.896 93.6781 243.94 94.6381C243.996 95.8741 243.468 96.0701 242.14 96.4581C239.622 97.1861 198.256 109.504 196.702 108.628Z" fill="#7F56D9"/>
<path d="M200.6 151.614C198.438 151.614 198.548 150.014 199.674 149.54C203.052 148.1 218.388 143.986 221.02 143.306C235.176 139.654 234.304 139.79 235.362 140.518C235.551 140.64 235.706 140.809 235.812 141.008C235.917 141.208 235.969 141.431 235.963 141.656C235.958 141.882 235.894 142.102 235.778 142.295C235.663 142.489 235.499 142.65 235.304 142.762C232.712 144.298 203.834 151.086 200.6 151.614Z" fill="#7F56D9"/>
<path d="M198.268 121.588C198.076 121.535 197.903 121.427 197.772 121.277C197.641 121.127 197.557 120.941 197.53 120.743C197.504 120.546 197.536 120.345 197.623 120.165C197.71 119.986 197.848 119.836 198.02 119.734C200.258 118.334 222.3 113.212 222.55 113.172C223.98 112.95 225.318 114.906 223.422 115.826C221.876 116.578 200.284 122.228 198.268 121.588Z" fill="#7F56D9"/>
<path fill-rule="evenodd" clip-rule="evenodd" d="M291.358 138.594C290.08 183.646 288.916 224.64 318.658 245.956L318.844 246.088C318.143 247.431 317.52 248.814 316.98 250.23C283.7 227.114 285.514 181.95 287.216 139.554C287.96 121.064 288.68 103.102 286.46 87.7262C280.9 49.2542 272.074 32.1382 263.44 18.9262C263.134 18.4582 262.904 18.3122 262.366 18.4722C260.97 18.8882 257.714 19.8062 253.154 21.0922C234.026 26.4902 191.974 38.3522 168.318 46.6722C167.554 46.9402 168.152 48.0742 169.488 50.6022C172.472 56.2442 179.128 68.8382 182.474 94.2722C186.642 125.97 185.6 145.552 184.488 166.488C183.67 181.838 182.816 197.916 183.946 220.032C184.706 229.297 186.159 238.491 188.294 247.538C194.494 278.262 214.984 297.758 242.848 312.116C250.47 316.044 257.488 319.652 263.872 322.936L263.874 322.938C290.716 336.744 306.432 344.826 309.404 346.904C317.624 352.625 325.372 358.994 332.576 365.95C337.762 371.074 340.284 373.986 341.65 375.56C342.72 376.796 343.078 377.208 343.45 377.224C343.638 377.23 343.83 377.138 344.116 376.998L344.148 376.982C352.348 372.982 425.776 326.182 425.83 326.142L425.98 326.044C426.252 325.87 426.394 325.778 426.428 325.656C426.466 325.522 426.37 325.35 426.168 324.986C426.142 324.941 426.117 324.896 426.092 324.85C423.104 320.382 419.731 316.184 416.012 312.304C403.48 299.268 386.31 289.852 364.294 277.78H364.292C355.828 273.138 346.646 268.104 336.736 262.32C337.134 262.048 337.53 261.776 337.924 261.5C338.22 261.298 338.992 260.434 340.162 259.02C347.218 263.078 355.12 267.536 362.816 271.88L362.818 271.882C376.484 279.594 389.508 286.944 396.01 291.038C413.048 301.766 419.134 308.678 428.676 320.976C430.714 323.604 432.404 326.376 429.614 328.188C428.934 328.628 427.876 329.35 426.412 330.35L426.408 330.352C418.916 335.472 400.746 347.882 367.578 367.318C363.042 369.976 358.509 372.637 353.978 375.302C345.866 380.07 344.786 380.704 343.652 381.21C343.354 381.342 343.052 381.466 342.62 381.654C341.224 382.258 340.732 381.678 338.568 379.126C336.032 376.134 331.2 370.432 319.92 360.754C303.428 346.608 284.214 337.28 265.386 328.14C225.53 308.79 187.408 290.284 180.52 228.704C178.424 209.978 178.648 179.98 179.578 163.03C180.592 144.524 179.252 108.864 176.356 90.5602C173.756 74.0762 170.544 66.4462 164.7 52.6102C164.169 51.3699 163.578 50.1564 162.928 48.9742C161.462 46.2402 161.182 45.7202 164.9 44.0102C173.458 40.0502 199.006 31.8962 200.45 31.4462C202.282 30.8762 204.132 30.3662 205.984 29.8542C207.114 29.5402 208.246 29.2282 209.374 28.9022C264.278 13.0182 264.408 13.2342 265.73 15.4502L265.788 15.5482C266.898 17.3882 267.832 18.8862 268.66 20.2162C271.794 25.2362 273.452 27.8962 277.632 37.9482C290.586 69.0982 292.876 110.156 291.894 110.156C291.894 119.716 291.624 129.242 291.358 138.594Z" fill="#7F56D9"/>
<path d="M419.46 146.096C419.688 149.37 420.138 146.588 351.176 239.954C351.142 240 337.222 258.272 336.194 258.978C329.728 263.446 322.983 267.496 316 271.104C314.054 272.18 313.28 271.27 313.648 270.078C320.9 246.502 321.078 247.878 325.548 241.564C342.198 218.082 394.09 148.31 396.59 144.984C401.674 138.218 403.122 134.522 408.818 135.34C411.53 135.708 414.044 136.962 415.969 138.908C417.894 140.853 419.121 143.381 419.46 146.096ZM371.2 199.66C370.228 199.834 369.516 198.512 370.4 197.346C379.866 185.034 381.062 183.146 384.584 178.492C403.802 153.092 402.57 156.452 400.984 155.342C396.184 151.97 397.63 148.602 395.692 151.252C388.734 160.764 338.754 228.898 324.362 247.252C323.41 248.466 325.328 247.78 329.46 250.99C330.66 251.918 328.726 253.062 357.02 215.28C367.006 201.944 367.1 201.032 368.42 201.77C368.632 201.868 368.798 202.046 368.88 202.265C368.963 202.484 368.956 202.726 368.862 202.94C367.542 205.802 331.93 252.666 331.97 252.7C335.602 255.952 335.414 255.974 336.222 254.844C350.73 234.56 389.914 182.244 407.19 159.444C407.99 158.38 407.138 158.644 404.068 157.204C402.978 156.694 403.682 156.922 388.594 177.124C371.578 199.932 372 199.82 371.2 199.66ZM404.788 139C402.76 141.472 400.868 144.053 399.122 146.732C398.198 148.05 398.208 148.052 399.166 149.39C401.26 152.58 404.306 155.029 407.87 156.39C409.434 157.004 408.768 157.298 414.27 150.06C415.43 148.53 411.378 150.444 407.542 146.288C406.594 145.385 405.91 144.241 405.564 142.978C404.988 140.298 409.254 145.462 414.27 146.694C415.492 146.994 417.206 146.262 416.822 145.026C416.362 143.533 415.577 142.16 414.524 141.006C413.47 139.852 412.174 138.945 410.728 138.352C408.274 137.232 406.492 137.222 404.788 139ZM333.65 257.24C332.732 255.122 325.604 251.15 323.504 250.19C322.444 249.706 322.832 250.154 319.658 259.698C319.27 260.868 319.658 260.498 322.29 263.172C322.95 263.84 322.574 263.734 330.244 259.208C331.324 258.462 332.464 257.804 333.65 257.24Z" fill="#101828"/>
</svg>
