<svg width="48" height="48" viewBox="0 0 48 48" fill="none" xmlns="http://www.w3.org/2000/svg">
<path d="M0 24C0 10.7452 10.7452 0 24 0C37.2548 0 48 10.7452 48 24C48 37.2548 37.2548 48 24 48C10.7452 48 0 37.2548 0 24Z" fill="#F4EBFF"/>
<path d="M33 33H16.6C16.0399 33 15.7599 33 15.546 32.891C15.3578 32.7951 15.2049 32.6422 15.109 32.454C15 32.2401 15 31.9601 15 31.4V15M33 19L27.5657 24.4343C27.3677 24.6323 27.2687 24.7313 27.1545 24.7684C27.0541 24.8011 26.9459 24.8011 26.8455 24.7684C26.7313 24.7313 26.6323 24.6323 26.4343 24.4343L24.5657 22.5657C24.3677 22.3677 24.2687 22.2687 24.1545 22.2316C24.0541 22.1989 23.9459 22.1989 23.8455 22.2316C23.7313 22.2687 23.6323 22.3677 23.4343 22.5657L19 27M33 19H29M33 19V23" stroke="#7F56D9" stroke-width="2" stroke-linecap="round" stroke-linejoin="round"/>
</svg>
