<svg width="48" height="48" viewBox="0 0 48 48" fill="none" xmlns="http://www.w3.org/2000/svg">
<path d="M0 24C0 10.7452 10.7452 0 24 0C37.2548 0 48 10.7452 48 24C48 37.2548 37.2548 48 24 48C10.7452 48 0 37.2548 0 24Z" fill="#F4EBFF"/>
<path d="M26 34H18.8M18.8 34C17.1198 34 16.2798 34 15.638 33.673C15.0735 33.3854 14.6146 32.9265 14.327 32.362C14 31.7202 14 30.8802 14 29.2M18.8 34H19.2C20.8802 34 21.7202 34 22.362 33.673C22.9265 33.3854 23.3854 32.9265 23.673 32.362C24 31.7202 24 30.8802 24 29.2V28.8C24 27.1198 24 26.2798 23.673 25.638C23.3854 25.0735 22.9265 24.6146 22.362 24.327C21.7202 24 20.8802 24 19.2 24H18.8C17.1198 24 16.2798 24 15.638 24.327C15.0735 24.6146 14.6146 25.0735 14.327 25.638C14 26.2798 14 27.1198 14 28.8V29.2M14 29.2V22M22 14H26M34 22V26M30 34C30.93 34 31.395 34 31.7765 33.8978C32.8117 33.6204 33.6204 32.8117 33.8978 31.7765C34 31.395 34 30.93 34 30M34 18C34 17.07 34 16.605 33.8978 16.2235C33.6204 15.1883 32.8117 14.3796 31.7765 14.1022C31.395 14 30.93 14 30 14M18 14C17.07 14 16.605 14 16.2235 14.1022C15.1883 14.3796 14.3796 15.1883 14.1022 16.2235C14 16.605 14 17.07 14 18" stroke="#7F56D9" stroke-width="2" stroke-linecap="round" stroke-linejoin="round"/>
</svg>
