<svg width="376" height="376" viewBox="0 0 376 376" fill="none" xmlns="http://www.w3.org/2000/svg">
<g clip-path="url(#clip0_313_13802)">
<path opacity="0.196" d="M125.224 249.998V312.609H62.6123L125.224 249.998Z" fill="#4893FF"/>
<path opacity="0.5" d="M0.000976562 312.61H62.6123V375.222L0.000976562 312.61Z" fill="#4893FF"/>
<path d="M62.6123 312.61L125.224 375.222H62.6123V312.61Z" fill="#FFAE16"/>
</g>
<g clip-path="url(#clip1_313_13802)">
<path opacity="0.5" d="M7.42395e-09 250.221C-0.00012649 242.014 1.6163 233.887 4.757 226.305C7.89769 218.722 12.5011 211.832 18.3045 206.029C24.1079 200.225 30.9975 195.622 38.58 192.481C46.1625 189.34 54.2894 187.724 62.4967 187.724V250.221" fill="#4893FF"/>
<path d="M62.7246 187.724C79.3 187.724 95.1966 194.308 106.917 206.029C118.638 217.749 125.222 233.646 125.222 250.221H62.7246" fill="#FFAE16"/>
<path opacity="0.5" d="M7.42395e-09 250.221C-0.00012649 242.014 1.6163 233.887 4.757 226.305C7.89769 218.722 12.5011 211.832 18.3045 206.029C24.1079 200.225 30.9975 195.622 38.58 192.481C46.1625 189.34 54.2894 187.724 62.4967 187.724V250.221" fill="#4893FF"/>
<path d="M62.7256 187.725C79.301 187.725 95.1976 194.309 106.918 206.03C118.639 217.75 125.223 233.647 125.223 250.222H62.7256" fill="#FFAE16"/>
</g>
<g clip-path="url(#clip2_313_13802)">
<path opacity="0.196" d="M62.6123 62.6094C62.6123 46.0038 69.2088 30.0784 80.9507 18.3365C92.6926 6.59458 108.618 -0.00195313 125.224 -0.00195312V62.6094" fill="#4893FF"/>
<path d="M0 125.222C16.6056 125.222 32.531 118.625 44.2729 106.883C56.0148 95.1413 62.6114 79.2159 62.6114 62.6104H0" fill="#FFAE16"/>
</g>
<g clip-path="url(#clip3_313_13802)">
<path opacity="0.196" d="M187.611 312.61C187.611 329.216 194.208 345.141 205.95 356.883C217.692 368.625 233.617 375.222 250.223 375.222V312.61" fill="#4893FF"/>
<path d="M124.999 249.997C141.605 249.997 157.53 256.594 169.272 268.336C181.014 280.077 187.61 296.003 187.61 312.608H124.999" fill="#FFAE16"/>
</g>
<g clip-path="url(#clip4_313_13802)">
<path opacity="0.5" d="M249.998 249.999H312.609L249.998 312.61V249.999Z" fill="#4893FF"/>
<path d="M375.221 249.999V312.61H312.609L375.221 249.999Z" fill="#FFAE16"/>
<path d="M249.998 312.609H312.609V375.221L249.998 312.609Z" fill="#4893FF"/>
<path opacity="0.5" d="M312.609 312.609L375.221 375.221H312.609V312.609Z" fill="#4893FF"/>
</g>
<g clip-path="url(#clip5_313_13802)">
<path opacity="0.5" d="M125 125C141.606 125 157.531 131.597 169.273 143.338C181.015 155.08 187.611 171.006 187.611 187.611H125" fill="#4893FF"/>
<path d="M187.611 187.612C187.611 171.007 194.208 155.081 205.95 143.339C217.692 131.598 233.617 125.001 250.223 125.001V187.612" fill="#4893FF"/>
<path d="M125 250.218C133.222 250.218 141.364 248.598 148.96 245.452C156.557 242.305 163.459 237.693 169.273 231.879C175.087 226.065 179.699 219.163 182.845 211.567C185.992 203.97 187.611 195.829 187.611 187.606H125" fill="#4893FF"/>
<path d="M187.611 187.604C187.611 195.827 189.231 203.968 192.377 211.565C195.524 219.161 200.136 226.063 205.95 231.877C211.764 237.691 218.666 242.303 226.262 245.45C233.859 248.596 242 250.216 250.223 250.216V187.604" fill="#FFAE16"/>
</g>
<defs>
<clipPath id="clip0_313_13802">
<rect width="125.224" height="125.223" fill="white" transform="translate(0 249.998)"/>
</clipPath>
<clipPath id="clip1_313_13802">
<rect width="125.224" height="125.223" fill="white" transform="translate(0 124.999)"/>
</clipPath>
<clipPath id="clip2_313_13802">
<rect width="125.223" height="125.222" fill="white"/>
</clipPath>
<clipPath id="clip3_313_13802">
<rect width="125.223" height="125.222" fill="white" transform="matrix(1 0 0 -1 124.999 375.22)"/>
</clipPath>
<clipPath id="clip4_313_13802">
<rect width="125.223" height="125.223" fill="white" transform="translate(249.998 249.998)"/>
</clipPath>
<clipPath id="clip5_313_13802">
<rect width="125.223" height="125.223" fill="white" transform="translate(125 125)"/>
</clipPath>
</defs>
</svg>
