<svg width="652" height="391" viewBox="0 0 652 391" fill="none" xmlns="http://www.w3.org/2000/svg">
<g clip-path="url(#clip0_297_75644)">
<path opacity="0.5" d="M130.88 259.995C148.152 259.995 164.717 266.856 176.93 279.069C189.143 291.282 196.005 307.847 196.005 325.119H130.88" fill="#7F56D9"/>
<path d="M196.005 325.12C196.005 307.848 202.866 291.283 215.079 279.07C227.292 266.857 243.857 259.996 261.129 259.996V325.12" fill="#7F56D9"/>
<path d="M130.88 390.239C139.432 390.239 147.901 388.555 155.802 385.282C163.703 382.009 170.883 377.212 176.93 371.165C182.977 365.117 187.774 357.938 191.047 350.037C194.32 342.136 196.005 333.667 196.005 325.115H130.88" fill="#7F56D9"/>
<path d="M196.005 325.115C196.005 333.667 197.689 342.136 200.962 350.037C204.235 357.938 209.032 365.117 215.079 371.165C221.127 377.212 228.306 382.009 236.207 385.282C244.109 388.555 252.577 390.239 261.129 390.239V325.115" fill="#FFAE16"/>
</g>
<g clip-path="url(#clip1_297_75644)">
<path opacity="0.196" d="M651.12 0V65.1247H585.995L651.12 0Z" fill="#7F56D9"/>
<path opacity="0.5" d="M520.871 65.1265H585.995V130.251L520.871 65.1265Z" fill="#7F56D9"/>
<path d="M585.995 65.1265L651.12 130.251H585.995V65.1265Z" fill="#FFAE16"/>
</g>
<g clip-path="url(#clip2_297_75644)">
<path opacity="0.5" d="M521.123 129.997C521.123 138.534 519.441 146.987 516.175 154.874C512.908 162.761 508.12 169.927 502.083 175.964C496.047 182 488.881 186.789 480.994 190.056C473.107 193.322 464.654 195.004 456.117 195.004L456.117 129.997" fill="#7F56D9"/>
<path d="M455.88 195.003C438.639 195.003 422.104 188.154 409.913 175.963C397.722 163.772 390.873 147.237 390.873 129.996L455.88 129.996" fill="#FFAE16"/>
<path opacity="0.5" d="M521.123 129.997C521.123 138.534 519.441 146.987 516.175 154.874C512.908 162.761 508.12 169.927 502.083 175.964C496.047 182 488.881 186.789 480.994 190.056C473.107 193.322 464.654 195.004 456.117 195.004L456.117 129.997" fill="#7F56D9"/>
<path d="M455.879 195.003C438.638 195.003 422.103 188.154 409.912 175.963C397.721 163.772 390.872 147.237 390.872 129.996L455.879 129.996" fill="#FFAE16"/>
</g>
<g clip-path="url(#clip3_297_75644)">
<path opacity="0.5" d="M651.12 261.25C642.583 261.251 634.13 259.569 626.243 256.303C618.356 253.036 611.19 248.248 605.154 242.211C599.117 236.175 594.329 229.009 591.062 221.122C587.795 213.235 586.114 204.782 586.114 196.245L651.12 196.245" fill="#7F56D9"/>
<path d="M586.115 196.008C586.115 178.767 592.963 162.232 605.154 150.041C617.346 137.85 633.88 131.001 651.121 131.001L651.121 196.008" fill="#FFAE16"/>
<path opacity="0.5" d="M651.12 261.25C642.583 261.251 634.13 259.569 626.243 256.303C618.356 253.036 611.19 248.248 605.154 242.211C599.117 236.175 594.329 229.009 591.062 221.122C587.795 213.235 586.114 204.782 586.114 196.245L651.12 196.245" fill="#7F56D9"/>
<path d="M586.115 196.007C586.115 178.766 592.964 162.231 605.155 150.04C617.346 137.849 633.88 131 651.121 131L651.121 196.007" fill="#FFAE16"/>
</g>
<g clip-path="url(#clip4_297_75644)">
<path opacity="0.196" d="M66.0056 325.12C66.0056 342.393 72.8669 358.957 85.0802 371.171C97.2934 383.384 113.858 390.245 131.13 390.245V325.12" fill="#7F56D9"/>
<path d="M0.879883 259.993C18.152 259.993 34.7167 266.855 46.93 279.068C59.1432 291.281 66.0046 307.846 66.0046 325.118H0.879883" fill="#FFAE16"/>
</g>
<g clip-path="url(#clip5_297_75644)">
<path opacity="0.196" d="M585.995 325.126C585.995 342.398 592.856 358.963 605.07 371.176C617.283 383.389 633.848 390.25 651.12 390.25V325.126" fill="#7F56D9"/>
<path d="M520.87 259.999C538.142 259.999 554.706 266.861 566.92 279.074C579.133 291.287 585.994 307.852 585.994 325.124H520.87" fill="#FFAE16"/>
</g>
<g clip-path="url(#clip6_297_75644)">
<path opacity="0.5" d="M391.124 391L391.124 325.875L456.249 391L391.124 391Z" fill="#7F56D9"/>
<path d="M391.124 260.751L456.249 260.751L456.249 325.875L391.124 260.751Z" fill="#FFAE16"/>
<path d="M456.248 391L456.248 325.875L521.372 325.875L456.248 391Z" fill="#7F56D9"/>
<path opacity="0.5" d="M456.248 325.875L521.372 260.751L521.372 325.875L456.248 325.875Z" fill="#7F56D9"/>
</g>
<g clip-path="url(#clip7_297_75644)">
<path d="M260.875 260.749H325.999L260.875 325.873V260.749Z" fill="#FFAE16"/>
<path d="M260.875 325.876L325.999 391.001H260.875V325.876Z" fill="#7F56D9"/>
<path opacity="0.5" d="M391.12 325.876V391.001H325.995L391.12 325.876Z" fill="#7F56D9"/>
</g>
<g clip-path="url(#clip8_297_75644)">
<path opacity="0.196" d="M326.002 195.626C326.002 212.898 332.863 229.463 345.076 241.676C357.289 253.889 373.854 260.751 391.126 260.751L391.126 195.626" fill="#7F56D9"/>
<path opacity="0.5" d="M260.875 130.501C278.147 130.501 294.712 137.363 306.925 149.576C319.138 161.789 326 178.354 326 195.626L260.875 195.626" fill="#7F56D9"/>
<path d="M325.998 195.626C325.998 212.898 319.136 229.463 306.923 241.676C294.71 253.889 278.145 260.751 260.873 260.751L260.873 195.626" fill="#7F56D9"/>
</g>
<defs>
<clipPath id="clip0_297_75644">
<rect width="130.249" height="130.249" fill="white" transform="translate(130.88 259.995)"/>
</clipPath>
<clipPath id="clip1_297_75644">
<rect width="130.25" height="130.249" fill="white" transform="translate(520.87)"/>
</clipPath>
<clipPath id="clip2_297_75644">
<rect width="130.25" height="130.249" fill="white" transform="translate(521.123 260.247) rotate(-180)"/>
</clipPath>
<clipPath id="clip3_297_75644">
<rect width="130.25" height="130.249" fill="white" transform="translate(520.87 261.25) rotate(-90)"/>
</clipPath>
<clipPath id="clip4_297_75644">
<rect width="130.249" height="130.248" fill="white" transform="matrix(1 0 0 -1 0.879883 390.243)"/>
</clipPath>
<clipPath id="clip5_297_75644">
<rect width="130.249" height="130.248" fill="white" transform="matrix(1 0 0 -1 520.87 390.249)"/>
</clipPath>
<clipPath id="clip6_297_75644">
<rect width="130.249" height="130.249" fill="white" transform="translate(391.124 391) rotate(-90)"/>
</clipPath>
<clipPath id="clip7_297_75644">
<rect width="130.249" height="130.249" fill="white" transform="translate(260.875 260.75)"/>
</clipPath>
<clipPath id="clip8_297_75644">
<rect width="130.249" height="130.249" fill="white" transform="translate(391.124 130.501) rotate(90)"/>
</clipPath>
</defs>
</svg>
