<svg width="558" height="562" viewBox="0 0 558 562" fill="none" xmlns="http://www.w3.org/2000/svg">
<g opacity="0.4" clip-path="url(#clip0_315_13503)">
<mask id="mask0_315_13503" style="mask-type:alpha" maskUnits="userSpaceOnUse" x="-141" y="-278" width="840" height="840">
<rect width="840" height="840" transform="matrix(1 0 0 -1 -141 562)" fill="url(#paint0_linear_315_13503)"/>
</mask>
<g mask="url(#mask0_315_13503)">
<g clip-path="url(#clip1_315_13503)">
<g clip-path="url(#clip2_315_13503)">
<line y1="-0.546875" x2="840" y2="-0.546875" transform="matrix(0 -1 -1 0 16.5 562)" stroke="white" stroke-width="1.09375"/>
<line y1="-0.546875" x2="840" y2="-0.546875" transform="matrix(0 -1 -1 0 69 562)" stroke="white" stroke-width="1.09375"/>
<line y1="-0.546875" x2="840" y2="-0.546875" transform="matrix(0 -1 -1 0 121.5 562)" stroke="white" stroke-width="1.09375"/>
<line y1="-0.546875" x2="840" y2="-0.546875" transform="matrix(0 -1 -1 0 174 562)" stroke="white" stroke-width="1.09375"/>
<line y1="-0.546875" x2="840" y2="-0.546875" transform="matrix(0 -1 -1 0 226.5 562)" stroke="white" stroke-width="1.09375"/>
<line y1="-0.546875" x2="840" y2="-0.546875" transform="matrix(0 -1 -1 0 279 562)" stroke="white" stroke-width="1.09375"/>
<line y1="-0.546875" x2="840" y2="-0.546875" transform="matrix(0 -1 -1 0 331.5 562)" stroke="white" stroke-width="1.09375"/>
<line y1="-0.546875" x2="840" y2="-0.546875" transform="matrix(0 -1 -1 0 384 562)" stroke="white" stroke-width="1.09375"/>
<line y1="-0.546875" x2="840" y2="-0.546875" transform="matrix(0 -1 -1 0 436.5 562)" stroke="white" stroke-width="1.09375"/>
<line y1="-0.546875" x2="840" y2="-0.546875" transform="matrix(0 -1 -1 0 489 562)" stroke="white" stroke-width="1.09375"/>
<line y1="-0.546875" x2="840" y2="-0.546875" transform="matrix(0 -1 -1 0 541.5 562)" stroke="white" stroke-width="1.09375"/>
</g>
<rect x="0.546875" y="-0.546875" width="838.906" height="838.906" transform="matrix(1 0 0 -1 -141 560.906)" stroke="white" stroke-width="1.09375"/>
<g clip-path="url(#clip3_315_13503)">
<line y1="-0.546875" x2="840" y2="-0.546875" transform="matrix(1 0 0 -1 -141 509.5)" stroke="white" stroke-width="1.09375"/>
<line y1="-0.546875" x2="840" y2="-0.546875" transform="matrix(1 0 0 -1 -141 457)" stroke="white" stroke-width="1.09375"/>
<line y1="-0.546875" x2="840" y2="-0.546875" transform="matrix(1 0 0 -1 -141 404.5)" stroke="white" stroke-width="1.09375"/>
<line y1="-0.546875" x2="840" y2="-0.546875" transform="matrix(1 0 0 -1 -141 352)" stroke="white" stroke-width="1.09375"/>
<line y1="-0.546875" x2="840" y2="-0.546875" transform="matrix(1 0 0 -1 -141 299.5)" stroke="white" stroke-width="1.09375"/>
<line y1="-0.546875" x2="840" y2="-0.546875" transform="matrix(1 0 0 -1 -141 247)" stroke="white" stroke-width="1.09375"/>
<line y1="-0.546875" x2="840" y2="-0.546875" transform="matrix(1 0 0 -1 -141 194.5)" stroke="white" stroke-width="1.09375"/>
<line y1="-0.546875" x2="840" y2="-0.546875" transform="matrix(1 0 0 -1 -141 142)" stroke="white" stroke-width="1.09375"/>
<line y1="-0.546875" x2="840" y2="-0.546875" transform="matrix(1 0 0 -1 -141 89.5)" stroke="white" stroke-width="1.09375"/>
<line y1="-0.546875" x2="840" y2="-0.546875" transform="matrix(1 0 0 -1 -141 37)" stroke="white" stroke-width="1.09375"/>
</g>
<rect x="0.546875" y="-0.546875" width="838.906" height="838.906" transform="matrix(1 0 0 -1 -141 560.906)" stroke="white" stroke-width="1.09375"/>
</g>
</g>
</g>
<defs>
<linearGradient id="paint0_linear_315_13503" x1="420" y1="0" x2="420" y2="840" gradientUnits="userSpaceOnUse">
<stop stop-opacity="0"/>
<stop offset="0.991144"/>
</linearGradient>
<clipPath id="clip0_315_13503">
<rect width="558" height="562" fill="white" transform="matrix(1 0 0 -1 0 562)"/>
</clipPath>
<clipPath id="clip1_315_13503">
<rect width="840" height="840" fill="white" transform="matrix(1 0 0 -1 -141 562)"/>
</clipPath>
<clipPath id="clip2_315_13503">
<rect width="840" height="840" transform="matrix(1 0 0 -1 -141 562)" fill="white"/>
</clipPath>
<clipPath id="clip3_315_13503">
<rect width="840" height="840" transform="matrix(1 0 0 -1 -141 562)" fill="white"/>
</clipPath>
</defs>
</svg>
