<svg width="560" height="400" viewBox="0 0 560 400" fill="none" xmlns="http://www.w3.org/2000/svg">
<rect width="560" height="400" rx="8" fill="white"/>
<path d="M312.226 240.338C312.221 240.2 312.187 240.065 312.127 239.94C312.067 239.816 311.982 239.705 311.878 239.614C311.868 239.197 311.757 238.788 311.556 238.423C311.355 238.058 311.068 237.746 310.721 237.515C310.374 237.283 309.976 237.139 309.561 237.093C309.147 237.048 308.727 237.103 308.338 237.254C306.738 235.254 303.392 238.266 304.538 239.48C304.512 239.506 304.512 239.534 304.484 239.56C303.684 241.598 305.852 243.748 307.73 244.092C308.282 244.211 308.854 244.203 309.402 244.068C309.951 243.933 310.461 243.675 310.895 243.313C311.328 242.951 311.673 242.495 311.904 241.979C312.135 241.464 312.245 240.902 312.226 240.338Z" fill="#101828"/>
<path d="M253.818 260.666C253.602 260.307 253.279 260.024 252.895 259.855C252.511 259.687 252.085 259.642 251.674 259.726C251.476 259.781 251.295 259.887 251.149 260.033C251.003 260.179 250.898 260.359 250.842 260.558C250.19 262.486 252.132 264.558 253.47 263.696C254.362 263.29 254.282 261.4 253.818 260.666Z" fill="#101828"/>
<path d="M265.296 256.75C265.082 256.388 264.76 256.103 264.375 255.935C263.99 255.766 263.562 255.723 263.152 255.812C262.953 255.868 262.772 255.973 262.627 256.119C262.481 256.265 262.375 256.446 262.32 256.644C261.668 258.57 263.608 260.632 264.948 259.78C265.836 259.378 265.764 257.506 265.296 256.75Z" fill="#101828"/>
<path d="M266.128 268.496C264.73 265.566 263.06 262.774 261.14 260.156C260.653 259.288 259.962 258.552 259.128 258.01C259.042 257.964 258.945 257.944 258.848 257.953C258.751 257.961 258.659 257.997 258.582 258.057C258.506 258.116 258.448 258.197 258.416 258.289C258.384 258.381 258.38 258.48 258.404 258.574C258.532 259.404 258.782 259.522 260.872 262.892C262.502 265.55 263.945 268.319 265.19 271.178V271.258C263.902 271.232 260.416 271.234 260.04 271.312C259.13 271.512 259.316 272.712 260.04 272.974C261.141 273.263 262.284 273.363 263.42 273.27C264.424 273.396 265.443 273.323 266.42 273.056C268.346 272.2 266.692 269.676 266.128 268.496Z" fill="#101828"/>
<path d="M260.416 277.588C260.451 278.521 260.815 279.412 261.443 280.104C262.071 280.795 262.922 281.243 263.848 281.368C264.826 281.362 265.769 281.004 266.504 280.359C267.239 279.714 267.716 278.825 267.848 277.856C268.014 277.16 268.202 276.042 267.312 275.738C266.486 275.454 266.058 276.276 265.864 276.916C265.578 277.858 265.3 279.276 264.04 279.276C262.7 279.276 262.28 277.876 261.412 277.158C261.327 277.083 261.222 277.034 261.109 277.016C260.997 276.998 260.882 277.012 260.778 277.058C260.673 277.103 260.584 277.176 260.52 277.27C260.456 277.364 260.42 277.474 260.416 277.588Z" fill="#101828"/>
<path d="M232.66 297C230.5 297.326 228.386 297.902 226.358 298.716C211.794 303.818 196.622 309.742 183.638 319.016C181.661 320.389 179.771 321.885 177.98 323.494C176.135 324.977 174.788 326.989 174.118 329.26C173.958 329.984 174.918 330.738 175.486 330.06C176.719 328.464 178.035 326.934 179.428 325.476C184.342 321.254 189.691 317.566 195.384 314.476C205.27 309.243 215.555 304.804 226.144 301.202C228.518 300.489 230.803 299.508 232.954 298.278C233.572 297.942 233.41 296.922 232.66 297Z" fill="#101828"/>
<path d="M270.526 298.532C289.192 307.418 307.04 308.132 322.126 326.61C326.88 332.43 327.882 335.906 330.198 338.784C330.82 339.558 331.86 338.704 331.7 337.9C331.118 335.716 330.165 333.648 328.884 331.786C325.361 326.043 320.912 320.924 315.718 316.634C306.696 309.22 299.582 307.108 289.732 303.492C275.164 298.148 274.702 298.08 271.12 297.244C270.312 297.056 269.778 298.176 270.526 298.532Z" fill="#101828"/>
<path d="M362.832 247.9C362.348 248.7 361.888 250.342 362.698 251.118C362.843 251.249 363.012 251.35 363.197 251.414C363.381 251.478 363.577 251.505 363.771 251.492C363.966 251.48 364.157 251.429 364.331 251.341C364.506 251.254 364.661 251.132 364.788 250.984C365.201 250.453 365.436 249.806 365.46 249.134C365.69 246.924 363.662 246.536 362.832 247.9Z" fill="#101828"/>
<path d="M375.274 248.866C375.106 248.77 374.921 248.709 374.729 248.687C374.536 248.665 374.342 248.682 374.156 248.737C373.971 248.792 373.799 248.884 373.65 249.008C373.501 249.132 373.379 249.284 373.29 249.456C372.808 250.256 372.346 251.898 373.156 252.674C373.302 252.805 373.471 252.905 373.656 252.969C373.84 253.033 374.036 253.06 374.231 253.047C374.426 253.035 374.616 252.983 374.791 252.896C374.966 252.809 375.121 252.688 375.248 252.54C375.661 252.01 375.896 251.362 375.918 250.69C376 250.356 375.982 250.006 375.868 249.682C375.754 249.358 375.547 249.075 375.274 248.866Z" fill="#101828"/>
<path d="M364.842 259.2C366.113 258.347 367.176 257.22 367.954 255.902C369.035 254.038 369.693 251.96 369.884 249.814C369.934 249.198 369.054 249.038 368.758 249.52C367.358 251.792 366.718 254.884 364.226 256.948C363.684 257.398 362.748 257.698 362.348 258.316C361.484 259.652 363.448 261.05 364.36 261.776C365.54 262.714 367.228 264.026 368.812 263.652C368.925 263.62 369.028 263.562 369.115 263.484C369.202 263.405 369.27 263.308 369.314 263.2C369.358 263.091 369.377 262.974 369.369 262.858C369.361 262.741 369.327 262.627 369.268 262.526C368.46 261.2 366.576 261 364.842 259.2Z" fill="#101828"/>
<path d="M372.6 265.44C370.116 266.596 367.299 266.824 364.662 266.082C363.885 265.761 363.061 265.571 362.222 265.52C362.126 265.524 362.033 265.553 361.952 265.602C361.87 265.652 361.802 265.721 361.754 265.803C361.706 265.886 361.679 265.979 361.677 266.075C361.674 266.171 361.696 266.265 361.74 266.35C362.678 268.014 365.54 268.42 367.264 268.55C368.711 268.647 370.164 268.483 371.554 268.068C369.414 274.49 365.004 275.068 364.314 273.056C363.828 271.636 364.012 270.108 363.564 268.684C363.51 268.515 363.403 268.367 363.259 268.262C363.115 268.157 362.942 268.1 362.764 268.1C362.586 268.1 362.412 268.157 362.269 268.262C362.125 268.367 362.018 268.515 361.964 268.684C361.468 270.624 361.667 272.676 362.528 274.484C363.022 275.247 363.762 275.819 364.624 276.106C365.486 276.393 366.421 276.379 367.274 276.066C370.854 275.284 373.418 270.266 374.112 266.654C374.179 266.454 374.182 266.238 374.123 266.035C374.063 265.833 373.943 265.653 373.778 265.521C373.613 265.389 373.412 265.31 373.202 265.296C372.991 265.281 372.781 265.332 372.6 265.44Z" fill="#101828"/>
<path d="M384.5 300.2C383.657 299.98 382.763 300.065 381.978 300.442C377.317 301.742 372.336 301.204 368.06 298.94C366.32 298.05 364.84 296.754 363.154 295.802C363.07 295.753 362.976 295.725 362.879 295.719C362.782 295.714 362.685 295.731 362.596 295.77C362.507 295.809 362.429 295.869 362.367 295.944C362.306 296.019 362.263 296.107 362.242 296.202C361.332 295.942 361.264 296.226 356.986 296.578C349.138 297.224 332.186 295.062 321.8 305.454C319.206 307.757 317.483 310.882 316.92 314.304C316.924 314.52 316.997 314.729 317.129 314.9C317.262 315.071 317.446 315.194 317.654 315.252C317.862 315.309 318.084 315.297 318.285 315.219C318.486 315.14 318.656 314.998 318.77 314.814C319.909 312.209 321.428 309.787 323.276 307.626C332.948 297.442 348.792 299.868 357.172 298.884C358.808 298.684 361.41 298.59 362.572 297.248C362.598 297.222 362.598 297.222 362.598 297.194C365.508 301.82 373.354 304.09 379.252 303.416C380.888 303.23 384.198 303.034 384.964 301.244C385.011 301.146 385.036 301.039 385.037 300.931C385.038 300.822 385.016 300.715 384.972 300.615C384.928 300.516 384.863 300.428 384.782 300.356C384.7 300.284 384.604 300.231 384.5 300.2Z" fill="#101828"/>
<path d="M334.324 228.538C333.278 227.116 329.974 225.666 328.88 227.842C328.841 227.907 328.817 227.98 328.811 228.056C328.805 228.132 328.817 228.208 328.845 228.279C328.874 228.349 328.919 228.412 328.977 228.462C329.034 228.511 329.102 228.547 329.176 228.566C329.82 228.668 330.462 228.488 331.08 228.618C331.453 228.707 331.8 228.881 332.094 229.128C332.387 229.375 332.619 229.687 332.77 230.04C334.59 233.788 331.328 238.788 328.37 237.764C327.73 237.542 327.352 236.964 326.788 236.638C325.96 236.166 324.988 237.066 325.662 238.542C325.491 238.618 325.344 238.738 325.234 238.89C323.565 241.801 321.277 244.31 318.53 246.238C311.514 250.53 303.93 247.4 302.6 241.008C301.6 236.164 302.57 227.882 303.43 223.068C303.81 220.95 304.414 218.776 304.584 216.632C304.584 216.493 304.538 216.358 304.454 216.247C304.37 216.137 304.251 216.057 304.117 216.02C303.983 215.984 303.841 215.992 303.712 216.045C303.583 216.097 303.475 216.19 303.404 216.31C300.804 221.538 299.278 236.608 300.696 242.162C301.539 245.119 303.519 247.621 306.203 249.121C308.887 250.62 312.057 250.995 315.016 250.162C314.942 250.982 315.144 251.582 314.962 254.666C314.738 258.48 314.162 258.962 314.802 259.896C314.851 259.978 314.916 260.05 314.993 260.107C315.07 260.164 315.158 260.205 315.251 260.228C315.344 260.25 315.441 260.254 315.536 260.239C315.63 260.223 315.721 260.189 315.802 260.138C316.652 259.564 316.682 258.688 316.82 257.696C317.093 255.775 317.147 253.829 316.982 251.896C316.959 251.142 316.843 250.394 316.634 249.67C317.196 249.456 317.766 249.254 318.322 249C322.252 247.096 325.311 243.769 326.878 239.694C332.824 242.53 337.912 233.416 334.324 228.538Z" fill="#101828"/>
<path d="M331 241.17C330.004 243.687 329.574 246.393 329.741 249.094C329.908 251.796 330.667 254.428 331.964 256.804C332.502 257.688 334.13 257.102 333.708 256.054C331.252 249.94 331.354 247.874 332.072 241.464C332.074 241.337 332.033 241.212 331.957 241.111C331.881 241.009 331.772 240.935 331.65 240.902C331.527 240.868 331.397 240.876 331.279 240.925C331.161 240.973 331.063 241.06 331 241.17Z" fill="#101828"/>
<path d="M353.848 206.334C354.563 205.11 355.011 203.748 355.164 202.339C355.316 200.929 355.169 199.503 354.732 198.154C354.325 197.156 353.638 196.297 352.752 195.683C351.866 195.069 350.821 194.725 349.744 194.694C350.442 191.396 350.226 187.456 347.868 185.014C347.135 184.271 346.19 183.771 345.163 183.584C344.136 183.397 343.076 183.531 342.128 183.968C341.914 182.727 341.377 181.563 340.573 180.594C339.768 179.624 338.723 178.883 337.542 178.444C336.418 178.089 335.213 178.08 334.084 178.42C332.955 178.759 331.955 179.431 331.214 180.348C329.058 178.574 326.428 177.474 323.652 177.184C322.768 176.996 321.847 177.097 321.026 177.474C320.204 177.85 319.526 178.482 319.092 179.274C317.879 178.491 316.475 178.057 315.032 178.019C313.589 177.981 312.164 178.342 310.912 179.06C309.781 179.788 308.896 180.839 308.37 182.077C307.844 183.314 307.702 184.681 307.962 186C306.61 185.933 305.263 186.198 304.038 186.773C302.813 187.348 301.748 188.215 300.936 189.298C300.18 190.41 299.752 191.712 299.7 193.056C299.648 194.4 299.974 195.731 300.642 196.898C299.516 197.219 298.523 197.892 297.809 198.818C297.094 199.745 296.696 200.876 296.672 202.046C296.719 202.78 296.928 203.494 297.285 204.136C297.643 204.778 298.139 205.333 298.738 205.759C299.336 206.186 300.022 206.473 300.746 206.601C301.47 206.729 302.213 206.694 302.922 206.498C303.063 206.459 303.194 206.392 303.309 206.302C303.424 206.212 303.52 206.1 303.592 205.972C303.664 205.845 303.71 205.704 303.727 205.559C303.745 205.414 303.733 205.267 303.694 205.126C303.654 204.985 303.588 204.854 303.497 204.739C303.407 204.624 303.295 204.528 303.168 204.456C303.04 204.384 302.9 204.339 302.755 204.321C302.61 204.304 302.463 204.315 302.322 204.354C301.932 204.437 301.528 204.434 301.139 204.345C300.75 204.255 300.386 204.081 300.071 203.836C299.757 203.59 299.5 203.279 299.318 202.923C299.137 202.568 299.036 202.177 299.022 201.778C299.185 200.925 299.653 200.16 300.339 199.627C301.026 199.094 301.883 198.829 302.75 198.882C302.979 198.88 303.202 198.81 303.391 198.683C303.581 198.555 303.729 198.374 303.818 198.164C303.906 197.953 303.931 197.72 303.889 197.496C303.847 197.271 303.74 197.063 303.582 196.898C302.707 196.09 302.157 194.991 302.033 193.807C301.91 192.622 302.222 191.433 302.912 190.462C303.699 189.525 304.745 188.841 305.919 188.497C307.094 188.154 308.344 188.165 309.512 188.53C310.396 188.776 311.398 187.694 310.8 186.842C310.482 186.359 310.268 185.816 310.17 185.246C310.073 184.676 310.094 184.092 310.232 183.531C310.37 182.969 310.623 182.442 310.974 181.983C311.326 181.524 311.768 181.143 312.274 180.862C313.459 180.308 314.793 180.158 316.071 180.434C317.35 180.71 318.503 181.397 319.354 182.39C320.186 183.3 321.802 182.134 321.098 181.048C320.546 180.2 321.634 179.554 322.384 179.448C323.945 179.442 325.492 179.747 326.935 180.346C328.377 180.944 329.685 181.824 330.784 182.934C330.923 183.066 331.093 183.16 331.278 183.208C331.463 183.255 331.658 183.255 331.843 183.207C332.028 183.159 332.198 183.064 332.336 182.932C332.474 182.8 332.577 182.635 332.634 182.452C332.815 182.032 333.078 181.652 333.409 181.335C333.739 181.019 334.13 180.772 334.558 180.609C334.985 180.447 335.441 180.371 335.899 180.388C336.356 180.406 336.805 180.514 337.22 180.708C338.219 181.288 339.031 182.143 339.559 183.172C340.087 184.2 340.309 185.358 340.198 186.508C340.207 186.77 340.308 187.021 340.484 187.216C340.66 187.41 340.899 187.537 341.159 187.572C341.419 187.607 341.683 187.55 341.905 187.409C342.126 187.269 342.291 187.054 342.37 186.804C342.576 186.417 342.901 186.106 343.297 185.917C343.693 185.729 344.139 185.673 344.57 185.758C345.114 185.868 345.623 186.112 346.049 186.468C346.475 186.824 346.806 187.28 347.012 187.796C348.077 190.387 348.095 193.29 347.064 195.894C346.696 196.944 347.898 197.536 348.728 197.182C350.77 196.31 352.614 198.308 352.91 200.158C353.011 202.491 352.404 204.801 351.168 206.782C351.061 206.978 351.013 207.201 351.031 207.423C351.049 207.646 351.131 207.858 351.267 208.035C351.403 208.211 351.588 208.344 351.799 208.417C352.01 208.49 352.237 208.5 352.454 208.446C353.582 208.232 354.39 209.41 354.494 210.376C354.514 211.674 354.16 212.949 353.474 214.05C353.091 215.034 352.472 215.908 351.672 216.597C350.872 217.285 349.915 217.767 348.886 218C348.056 218.108 347.886 219.286 348.404 219.8C348.922 220.314 348.634 222.268 348.618 222.964C348.631 224.157 348.356 225.334 347.818 226.398C347.439 227.217 346.777 227.87 345.954 228.238C345.131 228.605 344.202 228.662 343.34 228.398C343.137 228.288 342.905 228.246 342.676 228.278C342.448 228.311 342.236 228.417 342.073 228.58C341.91 228.743 341.804 228.954 341.771 229.183C341.738 229.411 341.78 229.644 341.89 229.846C342.156 230.447 342.266 231.106 342.211 231.761C342.156 232.416 341.936 233.046 341.573 233.594C341.21 234.142 340.714 234.589 340.132 234.895C339.551 235.201 338.901 235.355 338.244 235.344C337.994 235.353 337.756 235.451 337.571 235.619C337.386 235.787 337.267 236.016 337.235 236.264C337.203 236.512 337.259 236.763 337.395 236.973C337.531 237.183 337.737 237.338 337.976 237.41C338.257 237.561 338.499 237.776 338.681 238.038C338.864 238.3 338.982 238.601 339.027 238.917C339.071 239.233 339.04 239.555 338.937 239.857C338.834 240.158 338.661 240.432 338.432 240.654C337.12 241.918 334.8 241.122 333.604 240.118C333.036 239.64 332.026 240.25 332.478 240.948C332.874 241.568 333.403 242.093 334.027 242.484C334.65 242.875 335.353 243.123 336.083 243.21C336.814 243.298 337.555 243.222 338.253 242.988C338.951 242.755 339.589 242.37 340.12 241.86C340.69 241.191 341.034 240.358 341.102 239.481C341.169 238.605 340.957 237.729 340.496 236.98C341.731 236.499 342.772 235.622 343.456 234.487C344.14 233.351 344.429 232.021 344.278 230.704C345.331 230.71 346.367 230.441 347.285 229.924C348.202 229.406 348.968 228.659 349.508 227.754C350.323 226.276 350.756 224.617 350.768 222.928C350.886 221.857 350.858 220.774 350.686 219.71C352.016 219.045 353.195 218.114 354.15 216.975C355.105 215.835 355.816 214.512 356.238 213.086C357.528 209.644 356.012 207.054 353.848 206.334Z" fill="#101828"/>
<path d="M308.446 222.236C308.359 222.092 308.239 221.971 308.096 221.882C307.953 221.794 307.79 221.741 307.622 221.728C307.455 221.715 307.286 221.742 307.131 221.807C306.976 221.872 306.838 221.973 306.73 222.102C306.395 222.435 306.159 222.854 306.05 223.314C305.941 223.773 305.962 224.254 306.112 224.702C306.152 224.851 306.226 224.989 306.328 225.104C306.431 225.22 306.558 225.31 306.701 225.369C306.844 225.427 306.998 225.451 307.152 225.439C307.306 225.428 307.455 225.381 307.588 225.302C308.083 224.986 308.444 224.499 308.603 223.933C308.761 223.367 308.705 222.763 308.446 222.236Z" fill="#101828"/>
<path d="M315.82 223.2C315.733 223.055 315.613 222.934 315.47 222.845C315.327 222.756 315.164 222.703 314.996 222.69C314.828 222.677 314.66 222.704 314.504 222.77C314.349 222.835 314.212 222.937 314.104 223.066C313.768 223.398 313.532 223.818 313.423 224.278C313.315 224.737 313.337 225.218 313.488 225.666C313.528 225.815 313.602 225.952 313.704 226.067C313.806 226.183 313.933 226.273 314.076 226.331C314.219 226.389 314.373 226.414 314.527 226.402C314.68 226.391 314.829 226.344 314.962 226.266C315.455 225.948 315.814 225.461 315.972 224.896C316.13 224.331 316.076 223.728 315.82 223.2Z" fill="#101828"/>
<path d="M310.136 223.952C309.108 225.17 308.267 226.534 307.642 228C306.879 229.472 306.294 231.03 305.898 232.64C305.236 236.154 309.762 235.514 311.772 234.678C312.604 234.332 312.12 233.096 311.342 233.096C310.076 233.096 308.594 233.572 308.124 233.336C307.856 233.524 307.804 233.418 307.936 233.068C308.018 232.854 308.072 232.586 308.15 232.372C309.986 227.308 310.474 226.748 311.074 224.514C311.218 223.982 310.514 223.528 310.136 223.952Z" fill="#101828"/>
<path d="M331.67 212.69C328.948 205.434 321.47 202.54 314.05 203.786C310.171 204.251 306.572 206.041 303.86 208.854C303.672 208.8 303.694 209.066 303.86 208.854L303.834 208.934C303.752 208.908 303.726 208.934 303.672 209.016C303.108 210.034 302.462 211.46 303.324 212.502C304.258 213.632 306.008 213.18 307.212 212.878C310.9 211.948 314.516 209.678 319.682 211.134C324.798 212.584 327.482 216.844 328.826 221.968C329.206 223.418 329.264 225.384 330.812 225.91C330.962 225.956 331.12 225.97 331.275 225.953C331.431 225.935 331.581 225.886 331.717 225.808C331.852 225.73 331.971 225.625 332.064 225.499C332.158 225.374 332.224 225.23 332.26 225.078C332.989 220.956 332.787 216.724 331.67 212.69Z" fill="#4A8DD0"/>
<path d="M312.254 260.826C312.968 262.778 315.502 263.794 317.35 264.34C319.608 264.932 321.933 265.229 324.268 265.224C326.856 265.403 329.455 265.063 331.91 264.224C333.682 263.53 336.264 262.16 336.524 260.068C336.558 259.913 336.547 259.752 336.493 259.603C336.438 259.454 336.342 259.324 336.216 259.228C336.089 259.132 335.938 259.075 335.78 259.062C335.622 259.049 335.464 259.082 335.324 259.156C333.416 260.288 332.724 263.27 324.034 262.938C315.664 262.616 314.914 260.642 312.878 260.138C312.785 260.112 312.686 260.112 312.594 260.138C312.501 260.165 312.417 260.217 312.352 260.288C312.287 260.36 312.244 260.448 312.226 260.543C312.209 260.638 312.218 260.736 312.254 260.826Z" fill="#101828"/>
<path d="M311.4 260.96C304.503 261.757 297.702 263.24 291.098 265.386C286.523 266.751 282.247 268.971 278.498 271.928C277.98 272.384 277.537 272.919 277.184 273.512C276.8 274.158 276.623 274.906 276.676 275.656C276.681 275.8 276.727 275.939 276.809 276.057C276.89 276.176 277.004 276.268 277.136 276.325C277.268 276.381 277.414 276.398 277.555 276.375C277.697 276.351 277.829 276.288 277.936 276.192C278.8 275.26 279.676 274.18 280.618 273.35C284.32 270.639 288.467 268.597 292.872 267.316C299.014 265.36 305.504 264.366 311.538 262.14C312.12 261.872 312.094 260.91 311.4 260.96Z" fill="#101828"/>
<path d="M337.704 260.906C340.068 262.222 342.618 263.171 345.266 263.722C346.394 264.09 347.542 264.4 348.644 264.85C349.635 265.473 350.722 265.926 351.862 266.19C351.972 266.19 352.081 266.164 352.179 266.114C352.278 266.064 352.363 265.992 352.428 265.904C352.494 265.815 352.537 265.712 352.556 265.603C352.574 265.495 352.567 265.383 352.534 265.278C352.032 263.088 348.334 262.266 346.5 261.738C341.3 260.236 339.806 259.632 338.026 259.7C337.886 259.705 337.752 259.754 337.642 259.841C337.532 259.928 337.454 260.048 337.418 260.183C337.381 260.319 337.39 260.462 337.441 260.592C337.493 260.722 337.585 260.832 337.704 260.906Z" fill="#101828"/>
<path d="M211.634 211.564C209.222 209.63 207.347 207.109 206.19 204.242C205.978 203.312 205.7 202.398 205.36 201.506C205.308 201.427 205.234 201.363 205.148 201.323C205.061 201.283 204.965 201.268 204.871 201.279C204.776 201.29 204.687 201.327 204.612 201.387C204.537 201.446 204.481 201.524 204.448 201.614C204.145 203.317 204.419 205.072 205.226 206.602C205.885 208.134 206.791 209.548 207.908 210.786C209.259 212.221 210.77 213.496 212.412 214.586C212.628 214.72 212.628 214.826 212.332 214.96C212.118 215.36 211.372 215.798 211.018 216.088C210.278 216.688 209.24 217.186 209.06 218.206C209.019 218.372 209.043 218.548 209.128 218.697C209.213 218.846 209.352 218.957 209.516 219.006C210.536 219.168 211.18 218.552 211.984 217.934C212.976 217.347 213.827 216.55 214.478 215.6C215.4 213.632 212.838 212.534 211.634 211.564Z" fill="#101828"/>
<path d="M204.77 225.508C204.632 225.774 204.392 226.334 204.1 226.446C203.64 226.624 203.214 226.046 203 225.75C202.4 224.838 202.428 223.646 201.82 222.772C201.62 222.474 201.036 222.372 200.854 222.772C200.549 223.731 200.596 224.768 200.988 225.696C201.215 226.654 201.776 227.5 202.57 228.082C202.959 228.34 203.41 228.491 203.876 228.519C204.342 228.548 204.808 228.453 205.226 228.244C205.607 228.003 205.924 227.673 206.148 227.282C206.372 226.891 206.497 226.451 206.512 226C206.634 225.05 205.188 224.698 204.77 225.508Z" fill="#101828"/>
<path d="M198.574 205.342C198.266 205.421 197.99 205.596 197.788 205.842C197.585 206.088 197.466 206.392 197.448 206.71C197.617 207.508 197.976 208.253 198.494 208.882C199.294 209.65 200.586 209.346 200.586 207.54C200.586 206.468 199.864 205.054 198.574 205.342Z" fill="#101828"/>
<path d="M181.358 219.636C181.278 219.504 181.15 219.408 181.001 219.368C180.852 219.328 180.694 219.346 180.558 219.42C179.614 219.948 179.434 220.978 178.788 221.754C178.083 222.618 177.077 223.184 175.972 223.336C174.737 223.3 173.532 222.945 172.475 222.306C171.418 221.667 170.544 220.765 169.938 219.688C167.21 214.956 171.774 208.016 175.302 210.786C175.443 210.93 175.632 211.016 175.832 211.03C176.033 211.043 176.232 210.982 176.39 210.859C176.549 210.735 176.657 210.558 176.693 210.36C176.73 210.162 176.692 209.958 176.588 209.786C176.202 209.175 175.647 208.691 174.99 208.391C174.332 208.091 173.602 207.989 172.888 208.098C169.012 208.514 165.272 214.698 167.632 220.058C168.356 221.639 169.503 222.989 170.946 223.959C172.389 224.93 174.073 225.482 175.81 225.556C177.389 225.466 178.879 224.8 180 223.684C180.988 222.698 182.304 221 181.358 219.636Z" fill="#101828"/>
<path d="M176.906 226.178C178.411 230.748 178.822 235.607 178.106 240.364C177.656 242.692 176.954 242.764 176.978 244.12C176.98 244.227 177.006 244.332 177.055 244.427C177.103 244.523 177.173 244.606 177.258 244.67C177.344 244.735 177.442 244.779 177.547 244.8C177.652 244.821 177.761 244.817 177.864 244.79C179.448 244.59 179.928 242.67 180.224 241.33C181.405 236.019 180.634 230.46 178.052 225.67C177.966 225.55 177.842 225.464 177.7 225.425C177.558 225.386 177.407 225.398 177.272 225.457C177.138 225.517 177.028 225.621 176.961 225.753C176.894 225.884 176.875 226.034 176.906 226.178Z" fill="#101828"/>
<path d="M172.964 189.84C173.382 189.249 173.555 188.518 173.446 187.802C173.398 187.637 173.287 187.497 173.138 187.412C172.989 187.327 172.812 187.303 172.646 187.346C171.224 187.556 170.592 190.004 170.232 191.208C168.842 196.772 169.549 202.652 172.218 207.728C172.534 208.328 173.338 207.89 173.236 207.3C172.24 201.514 170.114 196.12 172.964 189.84Z" fill="#101828"/>
<path d="M187.848 176.084C186.091 176.905 184.61 178.218 183.584 179.864C179.844 184.464 176.568 190.486 176.826 196.412C176.856 197.082 177.896 197.296 178.026 196.572C179.01 190.916 181.494 185.628 185.22 181.26C186.6 179.997 187.729 178.483 188.546 176.8C188.574 176.702 188.575 176.599 188.551 176.501C188.526 176.402 188.475 176.312 188.404 176.239C188.334 176.167 188.245 176.114 188.147 176.087C188.049 176.059 187.946 176.058 187.848 176.084Z" fill="#101828"/>
<path d="M201.686 171.6C201.683 171.503 201.658 171.409 201.614 171.323C201.57 171.237 201.508 171.162 201.431 171.103C201.355 171.044 201.266 171.002 201.172 170.981C201.078 170.96 200.98 170.961 200.886 170.982C199.642 171.382 199.8 172.152 197.286 174.764C193.554 178.65 188.918 181.86 187.658 187.314C187.528 187.878 188.386 188.314 188.658 187.714C191.92 180.4 202.1 174.942 201.686 171.6Z" fill="#101828"/>
<path d="M207.102 177.318C208.034 176.464 208.625 175.302 208.766 174.046C208.744 173.646 208.334 173.21 207.908 173.376C206.35 173.976 206.33 175.15 202.812 178.926C201.027 180.891 199.08 182.703 196.992 184.344C196.46 184.744 197.126 185.522 197.664 185.228C201.315 183.261 204.527 180.569 207.102 177.318Z" fill="#101828"/>
<path d="M212.172 181.6C212.808 180.736 213.72 179.644 213.432 178.516C213.413 178.441 213.379 178.371 213.331 178.309C213.284 178.248 213.224 178.197 213.157 178.16C213.089 178.122 213.014 178.099 212.937 178.092C212.86 178.084 212.782 178.092 212.708 178.116C211.742 178.33 211.226 179.344 210.696 180.1C208.576 183.016 206.138 185.687 203.428 188.064C202.924 188.5 203.558 189.29 204.1 188.95C207.266 187.079 210.013 184.577 212.172 181.6Z" fill="#101828"/>
<path d="M216.2 186.622C216.878 185.798 217.706 184.718 217.3 183.622C217.266 183.512 217.192 183.418 217.093 183.359C216.994 183.3 216.877 183.279 216.764 183.3C215.252 183.66 215.26 185.356 211.99 187.938C209.849 189.519 207.61 190.961 205.286 192.256C204.78 192.56 205.1 193.414 205.686 193.222C209.77 192.119 213.431 189.821 216.2 186.622Z" fill="#101828"/>
<path d="M218.446 186.302C218.383 186.187 218.282 186.097 218.159 186.048C218.037 185.999 217.902 185.993 217.776 186.032C216.704 186.408 216.228 187.78 215.712 188.688C215.025 189.844 214.216 190.922 213.298 191.906C211.459 193.853 209.312 195.483 206.942 196.732C206.824 196.805 206.735 196.918 206.694 197.05C206.652 197.183 206.659 197.326 206.715 197.454C206.771 197.581 206.87 197.684 206.996 197.744C207.122 197.803 207.265 197.815 207.398 197.778C211.594 196.44 215.171 193.643 217.482 189.894C218.068 188.916 219 187.47 218.446 186.302Z" fill="#101828"/>
<path d="M171.462 292.658C172.278 295.62 173.496 298.48 174.52 301.402C176.406 306.79 176.6 308.402 177.738 309.58C177.809 309.651 177.897 309.703 177.993 309.73C178.09 309.757 178.192 309.758 178.289 309.734C178.386 309.71 178.476 309.661 178.548 309.592C178.621 309.523 178.675 309.436 178.704 309.34C178.828 307.922 178.607 306.496 178.06 305.182C176.709 300.675 174.884 296.324 172.616 292.202C172.544 292.066 172.425 291.961 172.281 291.907C172.136 291.854 171.977 291.855 171.834 291.912C171.691 291.968 171.574 292.076 171.505 292.214C171.436 292.351 171.421 292.51 171.462 292.658Z" fill="#101828"/>
<path d="M199.38 248.57C199.192 248.615 199.011 248.688 198.844 248.786C199.12 247.933 199.129 247.016 198.87 246.158C198.046 240.594 198.686 237.11 198.146 235.558C198.121 235.473 198.071 235.396 198.004 235.339C197.936 235.281 197.853 235.244 197.765 235.233C197.676 235.222 197.587 235.237 197.507 235.275C197.427 235.314 197.36 235.376 197.314 235.452C196.882 236.404 196.653 237.436 196.644 238.482C196.456 240.989 196.528 243.508 196.858 246C196.996 247.046 196.966 248.28 197.858 249C197.945 249.073 198.046 249.128 198.154 249.162C197.618 249.456 197.132 249.762 196.572 250.046C193.247 251.362 189.582 251.55 186.14 250.582C179.886 249.108 177.516 245.074 174.984 242.322C174.897 242.242 174.786 242.193 174.669 242.181C174.551 242.169 174.433 242.194 174.331 242.254C174.229 242.314 174.149 242.405 174.102 242.514C174.056 242.622 174.045 242.743 174.072 242.858C175.094 246.74 179.744 251.458 185.926 252.834C188.577 253.473 191.325 253.6 194.024 253.21C196.252 252.844 199.46 251.894 200.246 249.51C200.285 249.386 200.291 249.254 200.263 249.128C200.235 249.001 200.174 248.884 200.086 248.789C199.998 248.693 199.886 248.623 199.762 248.584C199.638 248.546 199.507 248.541 199.38 248.57Z" fill="#101828"/>
<path d="M171.758 242.886C168.552 243.096 165.405 243.849 162.452 245.112C143.302 251.866 133.722 264.774 132.014 277.212C130.002 291.876 136.528 310.412 143.062 317.546C143.678 318.216 144.64 317.36 144.262 316.606C141.065 311.111 138.475 305.285 136.538 299.23C134.711 293.129 133.896 286.769 134.124 280.404C134.686 268.308 142.602 258.258 152.682 252.164C161.202 247.014 169.552 245.428 172.044 243.986C172.156 243.922 172.245 243.823 172.296 243.704C172.346 243.584 172.356 243.452 172.323 243.326C172.291 243.201 172.218 243.09 172.115 243.01C172.013 242.93 171.887 242.887 171.758 242.886Z" fill="#101828"/>
<path d="M214.638 250.072C214.358 249.002 213.108 248.414 212.172 247.98C208.719 246.332 204.866 245.707 201.068 246.18C200.952 246.218 200.851 246.291 200.779 246.39C200.707 246.489 200.668 246.608 200.668 246.73C200.668 246.852 200.707 246.971 200.779 247.07C200.851 247.169 200.952 247.242 201.068 247.28C204.524 247.759 207.904 248.679 211.126 250.016C212.038 250.416 213.17 251.112 214.21 250.792C214.36 250.749 214.487 250.65 214.567 250.517C214.646 250.383 214.672 250.224 214.638 250.072Z" fill="#101828"/>
<path d="M280.234 171.2C278.89 167.102 274.34 166.818 272.698 170.692C271.282 174.03 273.26 177.15 277.204 187.372C277.218 187.427 277.244 187.477 277.281 187.52C277.319 187.562 277.365 187.595 277.417 187.616C277.47 187.637 277.526 187.645 277.582 187.64C277.639 187.635 277.693 187.616 277.74 187.586C280.433 185.745 282.852 183.533 284.926 181.016C286.676 178.816 288.926 175.92 288.976 172.97C289.068 168.162 282.892 167.094 280.234 171.2Z" fill="#4A8DD0"/>
<path d="M327.138 142.24C327.825 142.385 328.529 142.44 329.23 142.402C329.536 142.402 329.83 142.281 330.046 142.064C330.263 141.848 330.384 141.554 330.384 141.248C330.384 140.942 330.263 140.649 330.046 140.432C329.83 140.216 329.536 140.094 329.23 140.094C328.529 140.035 327.822 140.09 327.138 140.256C326.928 140.324 326.745 140.456 326.615 140.634C326.485 140.813 326.415 141.028 326.415 141.248C326.415 141.469 326.485 141.684 326.615 141.862C326.745 142.04 326.928 142.173 327.138 142.24Z" fill="#101828"/>
<path d="M329.282 151.626C328.58 151.576 327.875 151.63 327.19 151.788C326.975 151.851 326.787 151.982 326.653 152.161C326.52 152.339 326.447 152.557 326.447 152.78C326.447 153.003 326.52 153.221 326.653 153.4C326.787 153.578 326.975 153.709 327.19 153.772C327.876 153.921 328.58 153.975 329.282 153.932C329.586 153.93 329.878 153.807 330.094 153.592C330.31 153.377 330.432 153.085 330.436 152.78C330.437 152.628 330.408 152.478 330.35 152.337C330.292 152.197 330.207 152.069 330.1 151.962C329.993 151.854 329.865 151.769 329.724 151.712C329.584 151.654 329.433 151.625 329.282 151.626Z" fill="#101828"/>
<path d="M334.674 135.134C334.566 135.077 334.441 135.056 334.32 135.074C334.198 135.093 334.086 135.15 333.999 135.237C333.912 135.324 333.855 135.436 333.837 135.558C333.818 135.679 333.839 135.803 333.896 135.912C335.153 137.615 336.206 139.46 337.032 141.408C338.454 145.874 338.255 150.699 336.47 155.032C335.082 158.844 333.734 159.856 334.378 161.146C334.416 161.212 334.471 161.267 334.537 161.304C334.603 161.342 334.678 161.361 334.754 161.36C335.88 161.28 336.39 160.02 336.846 159.108C338.734 155.524 339.814 151.57 340.01 147.524C340.1 143.286 338.64 137.4 334.674 135.134Z" fill="#101828"/>
<path d="M282.6 94.0499C268.768 68.3179 232.97 67.2499 214.162 79.8619C200.314 89.1519 194.394 105.93 194.692 122.046C195.04 140.748 208.468 155.872 224.38 158.518C226.606 158.888 228.858 159.054 231.11 159.216C231.384 161.954 235.05 167.556 240.846 170.532C242.158 171.206 244.116 172.382 245.618 171.658C246.944 171.658 246.072 168.82 246.018 168.146C245.708 164.094 246.54 160.914 246.394 157.848C255.902 157.689 265.022 154.054 272.032 147.63C279.198 141.23 283.52 131.864 285.87 122.718C288.43 113.091 287.263 102.853 282.6 94.0499ZM284.632 114C283.788 123.521 280.468 132.655 275 140.496C268.188 149.836 256.936 154.954 245.42 155.81C245.219 155.819 245.025 155.886 244.862 156.005C244.699 156.123 244.574 156.286 244.502 156.474C244.431 156.663 244.417 156.868 244.461 157.064C244.505 157.261 244.605 157.44 244.75 157.58C243.826 161.359 243.483 165.256 243.732 169.138C243.146 168.942 242.573 168.709 242.016 168.44C238.075 166.23 234.861 162.923 232.764 158.92C232.822 158.831 232.858 158.73 232.868 158.625C232.878 158.52 232.863 158.414 232.824 158.316C232.785 158.218 232.723 158.131 232.643 158.062C232.563 157.993 232.467 157.944 232.364 157.92C227.587 157.48 222.89 156.4 218.4 154.71C212.971 152.303 208.215 148.601 204.55 143.929C200.884 139.256 198.421 133.756 197.376 127.91C196.208 119.304 197.062 110.544 199.87 102.326C204.924 87.9619 215.994 78.0159 233.15 75.2139C241.48 73.8301 250.018 74.399 258.09 76.8759C265.949 79.3368 272.792 84.2921 277.581 90.9911C282.371 97.6901 284.846 105.768 284.632 114Z" fill="#101828"/>
<path d="M219.924 115C219.376 115.38 218.93 115.889 218.624 116.482C218.319 117.075 218.164 117.733 218.172 118.4C218.201 119.329 218.576 120.213 219.224 120.879C219.871 121.545 220.745 121.945 221.672 122C222.45 121.964 223.189 121.652 223.757 121.12C224.325 120.589 224.685 119.872 224.772 119.098C225.324 115.58 222.152 113.6 219.924 115Z" fill="#4A8DD0"/>
<path d="M237.814 115.016C237.254 115.39 236.797 115.9 236.485 116.498C236.174 117.095 236.018 117.762 236.032 118.436C236.061 119.365 236.436 120.25 237.084 120.916C237.732 121.582 238.606 121.982 239.534 122.036C240.311 122 241.051 121.688 241.618 121.156C242.186 120.624 242.546 119.907 242.632 119.134C243.178 115.65 240.104 113.68 237.814 115.016Z" fill="#4A8DD0"/>
<path d="M258.138 115.412C257.665 114.796 256.981 114.377 256.218 114.233C255.455 114.089 254.665 114.231 254 114.632C253.453 115.013 253.007 115.522 252.702 116.114C252.397 116.707 252.242 117.365 252.25 118.032C252.278 118.961 252.653 119.846 253.301 120.512C253.949 121.178 254.823 121.578 255.75 121.632C258.812 121.644 259.8 117.462 258.138 115.412Z" fill="#4A8DD0"/>
<path d="M145.236 82.7862C144.82 81.6922 144.502 79.9442 143.278 79.5142C143.156 79.4793 143.026 79.4783 142.903 79.5115C142.78 79.5446 142.669 79.6105 142.58 79.7022C141.622 80.8082 142.49 82.6562 142.956 83.8322C144.212 86.9982 148.344 94.4942 150.956 94.6922C151.134 94.6906 151.303 94.6196 151.428 94.4942C151.554 94.3689 151.625 94.1994 151.626 94.0222C151.568 91.6002 148.694 91.9122 145.236 82.7862Z" fill="#101828"/>
<path d="M167.548 69.8599C166.856 71.1827 166.448 72.6348 166.348 74.1239C165.816 77.8459 165.566 84.3079 166.948 87.8539C166.995 88.0185 167.1 88.1605 167.243 88.2541C167.387 88.3477 167.559 88.3866 167.729 88.3638C167.899 88.341 168.054 88.258 168.168 88.1299C168.282 88.0018 168.345 87.8371 168.348 87.6659C168.768 83.0519 167.798 82.4299 168.698 74.3379C168.955 72.9139 169.027 71.4625 168.912 70.0199C168.754 69.3779 167.846 69.3799 167.548 69.8599Z" fill="#101828"/>
<path d="M195.518 61.7882C195.47 61.3042 195.006 60.7342 194.444 60.9562C193.204 61.4502 192.716 62.6542 192.112 63.7462C190.053 67.2573 188.397 70.9904 187.178 74.8742C187.143 75.0258 187.163 75.1849 187.233 75.3236C187.304 75.4623 187.421 75.5717 187.564 75.6326C187.707 75.6935 187.868 75.7019 188.016 75.6565C188.165 75.6111 188.293 75.5146 188.378 75.3842C190.874 71.1842 191.656 69.4622 194.118 65.1402C194.688 64.1482 195.64 63.0202 195.518 61.7882Z" fill="#101828"/>
<path d="M395.87 181.044C394.318 180.718 392.734 180.575 391.15 180.616C387.97 180.456 382.288 179.99 378.626 179.57C380.774 176.394 384.876 169.428 385.304 166.348C385.394 165.706 384.554 164.928 384.018 165.624C382.521 167.925 381.184 170.327 380.018 172.812C378.609 175.265 377.078 177.646 375.432 179.946C374.842 180.776 375.646 181.656 376.45 181.746C379.14 182.036 393.154 183.592 395.812 182.98C396.022 182.924 396.209 182.802 396.345 182.632C396.48 182.461 396.557 182.251 396.564 182.034C396.57 181.816 396.506 181.602 396.381 181.423C396.256 181.245 396.077 181.112 395.87 181.044Z" fill="#101828"/>
<path d="M470.772 150.044C470.52 134.114 462.642 117.412 447.972 110.086C431.094 101.654 403.06 103.838 390.45 120.17C381.148 132.214 379.772 155.598 384.094 163.614C384.554 164.468 385.832 163.856 385.622 162.97C383.911 155.327 383.783 147.414 385.246 139.72C386.752 131.218 389.836 123.098 396.51 117.32C407.998 107.386 427.522 105.52 441.482 110.054C456.764 115.018 465.64 128.544 467.924 144.3C469.212 153.188 467.754 160.388 464.786 168.864C461.91 177.08 458.032 183 449.742 187.824C438.29 194.259 424.771 195.943 412.09 192.516C406.605 191.223 401.6 188.395 397.662 184.364C397.094 183.836 395.98 184.564 396.51 185.25C409.878 202.346 451.196 200.05 463.848 176.936C468.193 168.623 470.562 159.421 470.772 150.044Z" fill="#101828"/>
<path d="M449.264 138.352C447.583 137.819 445.828 137.557 444.064 137.574C442.24 137.478 409.818 136.448 408.906 136.448C407.917 136.495 406.932 136.602 405.956 136.77C405.18 136.86 404.828 138.06 405.742 138.272C408.868 138.992 405.492 138.838 443.848 140.256C445.664 140.411 447.493 140.276 449.266 139.856C449.421 139.8 449.554 139.698 449.648 139.563C449.742 139.428 449.793 139.268 449.792 139.104C449.792 138.939 449.741 138.779 449.647 138.645C449.552 138.51 449.419 138.408 449.264 138.352Z" fill="#101828"/>
<path d="M447.332 151.304C445.704 150.884 444.025 150.694 442.344 150.742C440.27 150.628 418.106 149.428 411.944 149.428C410.22 149.319 408.489 149.436 406.794 149.776C406.648 149.821 406.521 149.912 406.43 150.035C406.339 150.158 406.29 150.307 406.29 150.46C406.29 150.613 406.339 150.762 406.43 150.885C406.521 151.008 406.648 151.099 406.794 151.144C408.401 151.529 410.05 151.709 411.702 151.68C447.042 153.364 445.382 153.662 447.342 153.262C448.378 153.048 448.222 151.616 447.332 151.304Z" fill="#101828"/>
<path d="M445.536 162.246C442.322 161.685 439.064 161.424 435.802 161.468C432.576 161.324 429.348 161.216 426.12 161.146C419.67 160.83 413.206 161.009 406.784 161.682C405.954 161.792 406.248 163.004 406.972 163.082C414.854 163.868 420.556 163.174 435.56 163.94C438.774 164.293 442.01 164.418 445.242 164.314C446.368 164.2 446.77 162.542 445.536 162.246Z" fill="#101828"/>
<path d="M353.2 87.6402C350.246 86.8087 347.166 86.518 344.108 86.7822C341.572 81.0522 341.826 76.5822 343.308 70.6102C343.813 69.1066 344.067 67.5302 344.06 65.9442C343.975 65.2824 343.737 64.6496 343.365 64.0956C342.993 63.5416 342.498 63.0816 341.917 62.7519C341.337 62.4222 340.689 62.2318 340.022 62.1957C339.356 62.1597 338.691 62.279 338.078 62.5442C335.304 63.8315 333.129 66.1335 332 68.9762C330.773 71.8243 330.047 74.863 329.854 77.9582C327.103 77.4683 324.301 77.3245 321.514 77.5302C318.624 77.553 315.783 78.2705 313.228 79.6222C309.616 81.9142 308.538 86.6842 312.208 89.3302C311.381 89.8133 310.737 90.5573 310.378 91.4455C310.019 92.3337 309.965 93.3159 310.224 94.2382C310.494 94.973 310.93 95.6357 311.497 96.1751C312.065 96.7144 312.749 97.1158 313.496 97.3482C312.997 97.625 312.619 98.077 312.434 98.6168C312.249 99.1566 312.272 99.7457 312.496 100.27C313.128 101.992 314.696 102.39 316.33 102.63C316.055 102.975 315.89 103.395 315.856 103.835C315.823 104.275 315.922 104.715 316.142 105.098C317.458 107.446 321.398 107.886 323.786 108.208C326.791 108.663 329.854 108.563 332.822 107.914C333.923 107.753 334.943 107.245 335.734 106.463C336.526 105.682 337.047 104.668 337.222 103.57C340.486 102.97 341.11 102.954 341.352 102.47C341.888 103.758 343.552 104.024 344.92 104.32C345.928 104.525 346.95 104.658 347.976 104.72C348.889 104.895 349.833 104.793 350.686 104.426C352.154 103.558 352.172 101.236 352.428 99.7862C352.828 97.5642 353.158 95.3002 353.582 93.0542C353.868 91.5222 355.032 88.5682 353.2 87.6402ZM312.8 94.3442C311.522 92.9442 312.66 90.4242 315.374 90.6982C319.392 91.0982 322.468 91.8982 327.014 90.8322C327.254 90.7502 327.55 90.6982 327.79 90.6162C328.519 90.8389 329.201 91.1934 329.802 91.6622C329.928 91.7553 330.034 91.873 330.114 92.0081C330.193 92.1433 330.244 92.2931 330.264 92.4485C330.284 92.604 330.273 92.7619 330.23 92.9127C330.187 93.0635 330.115 93.2042 330.016 93.3262C329.508 94.1042 328.25 94.3262 327.388 94.6122C325.292 95.2822 323.137 95.751 320.952 96.0122C319.777 96.2394 318.575 96.2846 317.386 96.1462C315.709 96.0299 314.108 95.4008 312.8 94.3442ZM315.186 100.084C313.284 98.9542 316.552 98.3282 317.36 98.1522C320.165 98.0267 322.955 97.6681 325.7 97.0802C326.969 96.844 328.209 96.4753 329.4 95.9802C330.312 96.3802 331.4 96.9442 331.144 98.0722C330.614 100.336 321.892 101.84 319.638 100.996C318.12 100.872 316.622 100.566 315.176 100.084H315.186ZM325.786 106.284C323.813 106.154 321.865 105.775 319.986 105.158C319.502 104.998 318.116 104.62 318.028 104.032C317.954 103.548 319.028 103.12 319.342 103.12C323.782 103.12 326.942 103.15 330.872 101.002C331.612 101.462 333.86 100.916 335.164 102.422C335.11 102.597 335.11 102.784 335.164 102.958C335.988 106.734 327.8 106.414 325.77 106.278L325.786 106.284ZM341.206 101.162C341.08 101.03 340.922 100.931 340.747 100.874C340.572 100.818 340.387 100.806 340.206 100.84C338.892 101.082 337.55 101.322 336.206 101.564C335.952 100.944 335.499 100.426 334.918 100.09C334.206 99.6976 333.421 99.4514 332.612 99.3662C333.446 98.0722 333.248 96.2962 331.298 94.7522C331.703 94.3677 331.995 93.8794 332.142 93.3405C332.288 92.8017 332.284 92.2329 332.13 91.6962C331.962 91.2016 331.694 90.7467 331.344 90.3591C330.993 89.9716 330.567 89.6596 330.092 89.4422C330.172 89.3622 330.226 89.3362 330.306 89.2562C332.506 87.0762 330.194 84.4902 328.08 83.5162C325.534 82.1841 322.564 81.9144 319.82 82.7662C318.908 83.1662 319.444 84.5102 320.302 84.5362C322.354 84.2124 324.454 84.3964 326.418 85.0722C327.274 85.3942 328.58 85.9082 328.992 86.8142C329.542 88.0282 327.706 88.4582 326.926 88.6922C323.18 89.4599 319.312 89.4142 315.584 88.5582C313.714 87.9582 311.722 86.7882 312.124 84.5362C312.396 83.5499 312.932 82.6565 313.674 81.9517C314.416 81.247 315.335 80.7576 316.334 80.5362C320.952 79.2485 325.815 79.1194 330.494 80.1602C330.648 80.1982 330.808 80.2013 330.963 80.1692C331.119 80.1371 331.265 80.0706 331.391 79.9747C331.517 79.8787 331.62 79.7558 331.692 79.6148C331.764 79.4739 331.804 79.3185 331.808 79.1602C331.828 75.5949 332.662 72.0814 334.248 68.8882C337.282 63.4102 341.262 63.2782 342.16 65.5102C343.114 67.8822 340.864 70.1462 340.55 76.9342C340.292 80.7051 341.17 84.4668 343.07 87.7342C342.923 88.0621 342.807 88.4029 342.722 88.7522C341.543 92.7764 341.029 96.9662 341.2 101.156L341.206 101.162ZM351.852 92.0702C351.664 93.1162 350.642 99.0962 350.296 101.028C350.134 101.94 350.19 102.674 349.144 102.798C348.068 102.843 346.99 102.735 345.944 102.476C345.248 102.342 343.472 102.21 343.156 101.51C343.111 97.5507 343.582 93.6021 344.556 89.7642C344.63 89.5222 344.69 88.7642 344.932 88.6642C345.12 88.5928 345.322 88.5654 345.522 88.5842C346.122 88.5842 352.102 89.3262 352.146 89.3622C352.526 89.6862 351.944 91.6002 351.836 92.0642L351.852 92.0702Z" fill="#101828"/>
<path d="M208.256 221.888C208.701 223.611 208.997 225.37 209.14 227.144C209.422 228.667 209.166 230.241 208.416 231.596C205.216 235.996 195.43 231.468 190.772 228.672C189.387 227.956 188.173 226.951 187.21 225.725C186.247 224.499 185.559 223.081 185.192 221.566C184.954 220.278 182.992 220.816 183.208 222.102C183.64 223.879 184.447 225.543 185.576 226.981C186.705 228.42 188.129 229.6 189.752 230.442C193.268 232.508 197.047 234.087 200.988 235.136C204.156 235.766 208.188 235.584 210.214 232.614C211.092 231.118 211.46 229.377 211.26 227.654C211.118 225.51 210.783 223.382 210.26 221.298C210.158 221.062 209.974 220.871 209.741 220.761C209.508 220.652 209.243 220.631 208.996 220.704C208.749 220.777 208.538 220.937 208.401 221.155C208.265 221.374 208.213 221.634 208.256 221.888Z" fill="#101828"/>
<path d="M433.36 315.614C426.36 306.376 417.116 304.568 409.976 302.528C409.6 302.448 409.28 302.312 408.904 302.206C411.208 301.699 413.388 300.738 415.317 299.379C417.246 298.021 418.885 296.292 420.14 294.294C420.256 294.08 420.301 293.834 420.267 293.593C420.233 293.352 420.122 293.128 419.952 292.954C409.422 283.628 410.078 268.202 409.628 255.276C409.194 242.858 407.108 228.616 395.71 221.378C393.002 219.549 389.85 218.487 386.588 218.303C383.325 218.119 380.074 218.82 377.178 220.332C371.378 215.21 352.932 229.932 356.636 245.38C356.759 245.925 356.997 246.437 357.334 246.882C356.128 250.67 355.363 254.585 355.054 258.548C354.497 262.987 354.724 267.488 355.724 271.848C356.144 273.653 356.924 275.355 358.016 276.852C359.108 278.349 360.49 279.612 362.08 280.564C363.984 281.536 366.113 281.981 368.248 281.852C368.321 284.601 368.053 287.348 367.448 290.03C367.104 291.559 366.61 293.051 365.972 294.482C365.628 295.234 364.918 296.738 366.16 297.056C367.612 297.43 368.386 294.528 368.87 293.114C370.123 289.444 370.473 285.525 369.888 281.69C375.088 280.876 381.4 277.678 383.726 273.09C383.821 272.911 383.85 272.704 383.807 272.506C383.764 272.308 383.651 272.132 383.49 272.009C383.329 271.887 383.129 271.826 382.926 271.837C382.724 271.849 382.532 271.932 382.386 272.072C380.222 274.652 377.522 276.729 374.474 278.158C371.246 279.558 366.99 280.496 363.674 278.936C356.616 275.622 356.822 265.958 357.212 259.386C357.595 255.041 358.248 250.724 359.17 246.46C367.926 236.76 372.12 235.756 373.678 233.508C376.175 240.64 380.752 246.861 386.818 251.368C388.352 252.428 390.032 253.26 391.806 253.836C391.886 253.836 391.966 253.862 392.02 253.836C392.193 253.964 392.355 254.107 392.504 254.264C392.677 254.435 392.901 254.546 393.143 254.579C393.384 254.613 393.63 254.569 393.844 254.452C394.661 254.013 395.608 253.877 396.516 254.068C397.424 254.26 398.235 254.766 398.806 255.498C399.386 256.27 399.769 257.171 399.923 258.124C400.077 259.077 399.997 260.053 399.69 260.968C399.397 261.879 398.912 262.718 398.27 263.427C397.627 264.136 396.84 264.7 395.962 265.081C395.084 265.462 394.134 265.651 393.177 265.636C392.22 265.62 391.277 265.401 390.412 264.992C390.197 264.875 389.951 264.83 389.709 264.864C389.468 264.898 389.243 265.009 389.07 265.18C388.423 266.125 387.976 267.192 387.756 268.316C384.622 279.148 384.986 291.02 385.316 301.544C385.333 301.74 385.398 301.929 385.505 302.094C385.612 302.26 385.758 302.396 385.931 302.491C386.103 302.586 386.296 302.638 386.493 302.641C386.69 302.644 386.884 302.598 387.06 302.508C389.566 303.539 392.261 304.032 394.97 303.956C398.446 303.903 401.915 303.599 405.348 303.046C409.83 305.286 417.148 306.292 422.834 309.508C426.566 311.617 429.769 314.549 432.199 318.08C434.629 321.612 436.223 325.651 436.86 329.89C437.13 331.51 437.354 334.784 437.744 335.87C437.772 335.964 437.826 336.047 437.901 336.11C437.976 336.172 438.068 336.212 438.165 336.223C438.262 336.234 438.36 336.217 438.447 336.173C438.534 336.129 438.607 336.061 438.656 335.976C440.01 332.76 439.22 323.338 433.36 315.614ZM387.02 245.486C386.866 245.579 386.69 245.629 386.511 245.629C386.331 245.629 386.155 245.579 386.002 245.486C382.285 243.153 379.447 239.655 377.93 235.538C377.303 234.277 377.07 232.857 377.26 231.462C377.284 231.373 377.332 231.291 377.398 231.226C377.465 231.161 377.548 231.116 377.638 231.094C377.728 231.072 377.823 231.074 377.912 231.101C378 231.128 378.081 231.178 378.144 231.246C378.975 232.534 379.641 233.922 380.128 235.376C381.506 238.225 383.485 240.741 385.928 242.752C386.668 243.374 388.366 244.582 387.02 245.486ZM393.108 223.444C391.944 223.658 391.482 222.682 388.924 221.914C387.324 221.432 385.67 221.526 384.044 221.164C383.971 221.144 383.907 221.102 383.858 221.045C383.809 220.987 383.779 220.917 383.77 220.842C383.761 220.767 383.775 220.692 383.81 220.625C383.844 220.558 383.898 220.503 383.964 220.466C385.636 219.86 387.458 219.804 389.164 220.306C390.452 220.596 393.164 221.27 393.482 222.8C393.51 223.094 393.376 223.416 393.108 223.444Z" fill="#101828"/>
<path d="M277.712 231.568C278.636 226.418 278.816 220.626 276.13 215.934C275.078 213.951 273.475 212.315 271.516 211.221C269.556 210.127 267.322 209.622 265.082 209.766C260.256 210.366 257.082 214.282 253.256 216.872C243.64 223.4 232.364 221.094 225.5 229.236C217.9 238.236 219.358 251.036 224.052 261.036C222.218 261.857 220.709 263.264 219.76 265.036C219.093 266.343 218.763 267.796 218.801 269.263C218.838 270.73 219.243 272.165 219.976 273.436C220.825 274.821 221.995 275.981 223.388 276.816C224.781 277.652 226.355 278.139 227.976 278.236C229.675 278.506 231.414 278.321 233.018 277.7C235.224 283.427 236.042 289.595 235.406 295.7C235.333 296.18 235.315 296.666 235.352 297.15C235.164 296.962 234.98 296.798 234.788 296.612C234.691 296.523 234.569 296.467 234.438 296.453C234.307 296.438 234.176 296.466 234.062 296.532C233.948 296.598 233.858 296.698 233.806 296.819C233.753 296.939 233.741 297.074 233.77 297.202C234.676 300.502 238.09 302.586 241.09 303.772C247.543 306.184 254.634 306.28 261.15 304.042C264.186 302.986 268.012 301.384 269.892 298.678C270.508 297.792 269.356 296.986 268.552 297.336C267.689 297.745 266.863 298.23 266.084 298.784C266.03 297.334 264.624 296.852 264.368 291.25C264.332 290.472 264.448 289.668 264.368 288.916C266.074 288.7 267.722 288.157 269.222 287.316C270.929 286.195 272.352 284.694 273.38 282.931C274.408 281.167 275.014 279.189 275.148 277.152C275.369 272.007 274.62 266.867 272.94 262C271.54 256.698 269.589 251.556 267.12 246.66C273 242.888 276.416 238.8 277.712 231.568ZM272.94 273C273.236 274.969 273.107 276.979 272.561 278.894C272.015 280.809 271.064 282.585 269.774 284.102C266.932 286.972 262.32 287.134 258.512 286.81C254.435 286.514 250.574 284.863 247.544 282.118C247.429 282.011 247.279 281.948 247.121 281.94C246.964 281.933 246.809 281.981 246.684 282.077C246.559 282.172 246.471 282.309 246.437 282.463C246.403 282.617 246.425 282.778 246.498 282.918C247.416 284.651 248.849 286.057 250.6 286.94C254.344 288.711 258.484 289.478 262.614 289.166C261.942 292.023 262.158 295.017 263.232 297.748C263.54 298.52 263.794 299.41 264.518 299.812C261.178 301.671 257.479 302.798 253.67 303.117C249.86 303.437 246.026 302.941 242.422 301.664C240.301 300.858 238.333 299.696 236.602 298.23C238.002 297.292 237.93 294.85 238.076 293.35C238.698 286.96 236.688 279.238 234.858 276.696C235.261 276.437 235.596 276.086 235.834 275.67C236.072 275.255 236.207 274.788 236.226 274.31C236.225 274.135 236.178 273.963 236.089 273.812C236.001 273.661 235.874 273.535 235.722 273.448C235.57 273.361 235.398 273.316 235.223 273.317C235.048 273.317 234.876 273.364 234.724 273.452C233.096 274.228 232.69 276.422 227.966 275.678C226.774 275.584 225.621 275.206 224.604 274.576C223.587 273.946 222.735 273.082 222.12 272.056C221.633 271.167 221.361 270.175 221.328 269.162C221.295 268.148 221.501 267.141 221.93 266.222C222.358 265.303 222.997 264.498 223.794 263.872C224.592 263.246 225.526 262.816 226.52 262.618C228.269 262.122 230.134 262.23 231.813 262.926C233.492 263.622 234.887 264.864 235.772 266.452C236.386 267.58 238.428 267.122 238.294 265.782C237.769 260.723 238.526 255.614 240.494 250.924C251.566 253.29 258.918 251.63 265.756 247.6C266.584 250.03 272.182 263.458 272.94 273ZM268.648 235.536C270.921 232.27 272.189 228.411 272.296 224.434C272.348 223.2 272.136 221.966 272.188 220.732C272.192 220.591 272.237 220.454 272.317 220.337C272.397 220.221 272.509 220.13 272.64 220.077C272.771 220.023 272.914 220.008 273.053 220.034C273.192 220.06 273.32 220.126 273.422 220.224C275.464 222.15 274.822 226.07 274.468 228.59C274.079 231.628 272.926 234.518 271.116 236.99C270.028 238.416 267.55 236.984 268.648 235.536Z" fill="#101828"/>
<path d="M125.658 158.17C126.529 158.304 127.415 158.304 128.286 158.17C129.239 158.056 130.151 157.713 130.942 157.17C131.656 156.642 132.213 155.928 132.551 155.107C132.889 154.285 132.996 153.387 132.861 152.509C132.726 151.631 132.353 150.807 131.783 150.125C131.214 149.444 130.468 148.931 129.628 148.642C128.465 148.302 127.269 148.087 126.06 148C126.139 151.395 126.005 154.792 125.658 158.17Z" fill="#4A8DD0"/>
<path d="M161.514 178.364C159.546 177.49 157.81 176.167 156.444 174.502C155.844 173.902 154.244 172.234 153.736 171.552C157.765 165.746 159.865 158.818 159.736 151.752C160.07 137.454 149.654 120.27 133.32 116.996C125.996 115.736 118.46 116.778 111.752 119.978C105.044 123.178 99.4934 128.38 95.8643 134.866C90.0903 145.2 88.6283 159.83 94.7123 171.31C98.147 177.61 103.202 182.878 109.354 186.57C117.278 190.606 128.706 190.718 135.474 188.796C139.948 187.524 142.762 185.112 146.63 181.396C146.649 181.421 146.673 181.441 146.701 181.455C146.729 181.469 146.759 181.476 146.79 181.476C149.321 182.428 152.052 182.723 154.728 182.334C156.58 182.076 160.604 180.934 161.728 179.546C161.835 179.475 161.918 179.375 161.968 179.257C162.018 179.14 162.033 179.01 162.01 178.885C161.987 178.759 161.928 178.643 161.84 178.55C161.752 178.457 161.639 178.393 161.514 178.364ZM114.714 147.524C114.774 147.09 114.985 146.691 115.31 146.398C115.636 146.106 116.055 145.938 116.493 145.925C116.93 145.912 117.358 146.055 117.701 146.328C118.043 146.601 118.278 146.986 118.362 147.416C118.92 150.678 114.166 149.892 114.714 147.524ZM115.714 157.258C115.908 156.946 116.192 156.701 116.528 156.554C116.865 156.407 117.238 156.365 117.598 156.435C117.958 156.505 118.289 156.683 118.546 156.945C118.803 157.207 118.975 157.54 119.038 157.902C119.644 161.416 113.884 160.172 115.71 157.258H115.714ZM127.646 161.146C125.958 161.234 123.046 161.226 122.82 159.054C122.745 156.862 122.906 154.669 123.302 152.512C123.58 150.286 123.88 148.036 124.302 145.78C124.326 145.684 124.372 145.595 124.437 145.52C124.502 145.445 124.584 145.387 124.676 145.35C124.768 145.313 124.867 145.299 124.965 145.308C125.064 145.318 125.159 145.35 125.242 145.404C125.378 145.242 126.174 144.614 128.888 145.19C138.378 147.21 138.36 160.584 127.642 161.146H127.646Z" fill="#4A8DD0"/>
</svg>
