<svg width="560" height="400" viewBox="0 0 560 400" fill="none" xmlns="http://www.w3.org/2000/svg">
<rect width="560" height="400" fill="white"/>
<path d="M272.738 193.024C263.506 192.534 253.644 192.152 243.826 191.424C239.134 191.068 234.482 190.024 229.826 189.31C229.61 189.27 229.399 189.203 229.2 189.11C225.94 187.814 225.544 187.324 226.744 184.024C229.8 175.582 233.032 167.208 236.182 158.824C237.042 156.532 239.046 156.342 241.024 156.3C248.594 156.11 256.176 156.056 263.746 155.824C275.884 155.442 288.036 154.978 300.174 154.5C306.76 154.242 313.348 153.914 319.922 153.56C321.161 153.421 322.414 153.658 323.516 154.242C324.618 154.826 325.519 155.728 326.1 156.832C330.97 164.768 335.325 173.009 339.138 181.504C339.318 181.899 339.46 182.31 339.562 182.732C340.162 185.332 339.63 186.51 337.024 187.056C332.292 188.038 327.518 188.964 322.718 189.524C314.449 190.489 306.16 191.271 297.856 191.87C289.704 192.412 281.522 192.63 272.738 193.024ZM295.446 161.37C295.734 162.992 295.01 163.402 293.47 163.37C290.306 163.281 287.14 163.294 283.976 163.41C283.336 163.424 282.722 163.574 282.376 163.342C281.959 162.314 281.671 161.24 281.516 160.142C281.338 159.42 281.094 159.556 281.024 160.21V163.266H265.988C265.988 162.12 265.96 161.206 265.96 160.184C265.728 158.724 264.938 159.434 264.802 160.32C264.802 161.323 264.697 162.324 264.488 163.306H249.888C250.202 157.21 249.37 160.088 249.18 162.08C249.138 162.53 249.084 162.87 249.042 163.224C249.016 163.484 248.642 163.424 247.642 163.47C245.732 163.552 243.824 163.58 241.928 163.67C237.482 163.508 239.24 164.47 240.646 164.394C243.346 164.394 245.868 164.544 248.76 164.544C248.296 167.744 247.942 170.544 247.438 173.314C247.37 173.682 247.314 174.172 247.11 174.24C244.274 174.268 240.91 174.24 237.29 174.076C234.55 175.276 243.96 174.514 247.15 175.386C247.056 176.71 246.878 178.332 246.782 179.586C246.66 180.774 247.182 180.986 247.246 179.614C247.41 178.782 247.588 177.95 247.738 177.118C247.914 176.15 248.01 175.428 248.31 175.372C248.903 175.301 249.5 175.278 250.096 175.304C253.48 175.372 256.534 175.454 259.916 175.428C261.54 175.414 263.162 175.428 264.854 175.428C265.1 178.428 265.318 181.278 265.55 184.142C265.672 184.128 265.794 184.128 265.918 184.114C266.054 181.196 266.19 178.292 266.318 175.428C266.465 175.393 266.618 175.383 266.768 175.4C271.842 175.278 276.806 174.964 281.88 174.936C282.058 174.936 282.644 174.896 282.766 175.018C282.858 175.379 282.913 175.749 282.93 176.122C283.258 178.604 283.408 181.122 283.694 183.596C283.816 184.66 284.13 185.71 284.348 186.76C284.548 187.306 284.908 187.32 284.976 186.678C284.758 182.806 284.554 178.946 284.334 175.046C284.569 175.014 284.808 175.009 285.044 175.032C289.244 175.072 293.418 174.95 297.606 175.072C297.89 175.147 298.153 175.285 298.375 175.477C298.597 175.668 298.772 175.908 298.888 176.178C299.774 178.454 300.524 180.8 301.356 183.106C301.832 184.442 302.392 185.752 302.91 187.06C303.224 187.498 303.496 187.538 303.524 186.842C302.406 182.982 301.302 179.124 300.142 175.14C304.752 175.14 309.048 175.196 313.342 175.114C313.874 175.1 314.228 175.086 314.61 175.046C314.81 175.032 315.224 176.096 315.51 176.71C316.424 178.674 317.666 180.474 318.648 182.396C318.92 182.914 319.26 182.902 319.152 182.178C318.292 179.874 316.86 177.178 316.028 174.95C319.93 174.596 324.444 174.65 328.358 174.282C329.04 174.282 329.08 173.764 328.304 173.818C325.644 173.818 322.984 173.832 320.324 173.818C318.699 173.851 317.073 173.784 315.456 173.618C314.678 173.494 314.378 171.722 313.192 169.472C312.392 167.97 311.706 166.416 310.764 164.452H327.09C327.676 164.412 327.948 163.948 326.244 163.812C321.348 163.444 316.628 163.444 311.732 163.294C311.169 163.437 310.574 163.374 310.054 163.116C309.718 162.779 309.486 162.353 309.386 161.888C309.095 161.049 308.761 160.225 308.386 159.42C307.986 158.534 307.758 158.916 307.812 159.62C308.044 160.724 308.29 161.82 308.562 163.126C305.362 163.126 302.33 163.058 299.288 163.152C297.638 163.208 296.206 163.22 296.22 160.998C295.91 159.106 295.296 159.87 295.446 161.37Z" fill="#4A8DD0"/>
<path d="M427.916 162.924C419.092 160.292 410.392 157.714 401.608 155.11C400.872 160.892 400.858 166.71 398.594 172.158C397.708 166.212 399.154 160.456 399.822 154.414C395.92 153.31 391.992 152.178 387.902 151.014C388.134 155.434 388.352 159.614 388.584 164.12C387.912 163.875 387.337 163.418 386.945 162.818C386.554 162.219 386.368 161.509 386.414 160.794C386.156 157.916 385.938 155.024 385.938 152.146C385.938 150.768 385.46 150.318 384.232 149.964C375.626 147.4 367.043 144.786 358.484 142.122C356.637 141.492 354.844 140.712 353.124 139.79C352.107 139.301 351.246 138.537 350.639 137.585C350.031 136.633 349.701 135.531 349.686 134.402C349.046 122.428 348.24 110.454 347.94 98.4661C347.682 87.8961 347.954 77.3121 348.104 66.7301C348.066 63.3452 348.62 59.9797 349.742 56.7861C350.109 55.4281 350.924 54.2342 352.056 53.3989C353.187 52.5636 354.569 52.1361 355.974 52.1861C360.755 52.2166 365.527 52.5902 370.254 53.3041C385.242 55.9041 399.836 60.1521 414.51 64.0661C427.223 67.2957 439.764 71.1673 452.084 75.6661C454.934 76.7441 457.798 77.7941 460.58 79.0341C462.312 79.8184 463.961 80.7731 465.504 81.8841C470.142 85.2001 470.782 89.8841 469.268 94.8841C467.7 100.084 465.614 105.114 463.812 110.242C460.001 120.196 455.64 129.93 450.748 139.4C448.046 145.04 445.185 150.602 442.168 156.08C440.947 158.191 439.39 160.088 437.558 161.698C436.573 162.571 435.392 163.195 434.115 163.515C432.838 163.836 431.503 163.844 430.222 163.54C428.868 165.365 428.142 167.579 428.155 169.851C428.167 172.124 428.916 174.33 430.29 176.14C433.904 181.446 437.586 186.71 440.942 192.178C442.907 195.44 443.714 199.27 443.232 203.048C442.606 208.544 438.896 211.628 434.286 213.848C428.148 216.573 421.584 218.216 414.886 218.704C395.446 220.628 375.894 221.162 356.378 220.304C345.862 219.922 335.378 218.904 324.886 218.15C315.04 217.454 305.206 216.418 295.358 218.014C291.2 218.621 287.204 220.048 283.602 222.214C282.291 222.837 281.187 223.825 280.42 225.058C279.654 226.291 279.258 227.718 279.28 229.17C279.32 230.424 279.116 231.68 279.13 232.92C279.055 233.535 279.12 234.158 279.32 234.744C279.521 235.33 279.852 235.863 280.288 236.302C280.795 236.989 281.152 237.775 281.338 238.608C286.208 238.608 290.938 238.648 295.672 238.594C314.276 238.402 332.876 238.193 351.472 237.966C352.236 238.007 353.001 237.993 353.762 237.926C356.914 237.394 358.454 238.926 359.464 241.826C361.222 246.858 362.736 251.974 364.464 257.026C367.79 266.826 371.174 276.582 374.514 286.362C374.813 287.297 375.036 288.255 375.182 289.226C375.32 289.954 375.209 290.707 374.868 291.365C374.526 292.023 373.975 292.547 373.3 292.854C371.89 293.428 370.4 293.782 368.882 293.904C333.108 294.804 297.334 295.65 261.548 295.186C252.056 295.062 242.548 295.268 233.084 294.844C224.11 294.444 215.15 293.59 206.202 292.644C201.374 292.14 199.492 289.794 200.174 284.98C200.83 280.316 202.174 275.76 203.23 271.15C204.594 265.15 205.902 259.15 207.362 253.176C207.974 250.809 208.716 248.477 209.586 246.192C209.956 245.162 210.631 244.27 211.52 243.632C212.409 242.994 213.47 242.641 214.564 242.62C231.912 240.41 249.364 240.22 266.798 239.592C268.926 239.51 271.054 239.392 273.182 239.392C274.204 239.392 274.708 239.038 274.736 238.03C274.683 237.483 274.802 236.933 275.075 236.456C275.349 235.979 275.765 235.6 276.264 235.37C276.508 235.246 276.632 234.66 276.664 234.264C276.774 232.52 276.884 230.774 276.864 229.042C276.836 224.622 279.332 221.868 282.85 219.808C287.516 217.178 292.684 215.561 298.016 215.062C306.934 214.298 315.908 214.476 324.788 215.594C348.133 217.924 371.615 218.585 395.054 217.572C403.942 217.428 412.804 216.571 421.554 215.008C425.656 214.188 429.66 212.94 433.5 211.284C440.348 208.23 442.23 203.114 439.842 195.954C438.183 191.871 435.946 188.047 433.2 184.6C431.646 182.364 430.172 180.072 428.494 177.918C426.998 176.127 426.066 173.932 425.816 171.611C425.567 169.291 426.012 166.948 427.094 164.88C427.406 164.245 427.681 163.592 427.916 162.924ZM299.266 292.886C321.414 292.436 346.168 291.916 370.922 291.412C372.612 291.372 373.036 290.948 372.544 289.284C371.59 286.066 370.472 282.884 369.422 279.696L357.556 243.582C357.378 242.577 356.83 241.675 356.019 241.054C355.209 240.433 354.195 240.138 353.178 240.228C326.624 240.772 300.084 241.278 273.53 241.904C254.232 242.354 234.93 242.75 215.69 244.318C214.785 244.304 213.898 244.576 213.156 245.096C212.413 245.615 211.854 246.355 211.556 247.21C210.888 249.106 210.18 251.01 209.702 252.952C208.134 259.294 206.796 265.676 205.12 271.978C203.685 276.316 202.805 280.819 202.5 285.378C202.474 288.72 203.428 290.002 206.77 290.316C214.694 291.078 222.618 292.088 230.556 292.238C252.6 292.654 274.634 292.68 299.266 292.886ZM350.164 93.9281C350.654 106.128 351.2 119.254 351.692 132.388C351.605 133.733 351.97 135.069 352.728 136.183C353.486 137.298 354.595 138.127 355.878 138.54C361.566 140.54 367.226 142.658 372.994 144.39C381.846 147.05 390.806 149.368 399.698 151.946C409.832 154.878 419.938 157.934 430.058 160.934C430.989 161.27 431.99 161.363 432.966 161.203C433.942 161.043 434.862 160.635 435.636 160.02C437.236 158.731 438.591 157.165 439.636 155.396C443.714 147.95 447.836 140.516 451.46 132.852C455.17 124.996 458.402 116.896 461.62 108.822C463.688 103.797 465.478 98.6607 466.98 93.4381C468.48 87.9821 466.354 84.4761 461.17 82.2541C447.478 76.3492 433.364 71.4756 418.946 67.6741C402.784 63.4461 386.746 58.6741 370.298 55.6181C365.843 54.8737 361.348 54.3955 356.836 54.1861C355.685 53.9938 354.503 54.2399 353.523 54.8759C352.544 55.5119 351.839 56.4917 351.546 57.6221C351.103 58.9566 350.824 60.3401 350.714 61.7421C350.492 72.1481 350.354 82.5541 350.164 93.9281Z" fill="#191919"/>
<path d="M392.142 246.132C393.868 242.968 396.232 240.196 399.084 237.993C401.937 235.79 405.216 234.203 408.714 233.332C418.255 230.711 428.408 231.457 437.464 235.446C444.61 238.474 450.652 243.274 453.434 250.776C457.92 262.886 456.338 277.084 445.878 286.412C439.828 291.67 432.341 294.996 424.384 295.96C419.381 296.952 414.203 296.555 409.41 294.814C398.28 290.164 391.08 282.144 389.06 269.992C387.35 259.772 388.848 251.976 392.142 246.132ZM406.954 261.462C407.296 263.958 406.982 266.004 407.404 268.186C408.005 272.421 409.772 276.406 412.506 279.696C417.306 285.03 423.238 285.684 429.716 283.556C433.228 282.606 436.281 280.423 438.316 277.406C439.556 275.388 440.287 273.098 440.447 270.734C440.606 268.37 440.188 266.003 439.23 263.836C435.974 256.382 430.312 250.235 423.15 246.378C420.837 245.084 418.142 244.65 415.54 245.15C413.648 245.515 411.909 246.441 410.552 247.809C409.194 249.176 408.281 250.921 407.93 252.816C407.446 255.678 407.12 258.564 406.954 261.462Z" fill="#4A8DD0"/>
<path d="M219.276 164.78C217.408 165.462 215.566 166.076 213.78 166.812C211.598 167.712 210.03 167.562 209.43 166.238C208.83 164.914 209.852 163.294 211.926 162.42C213.37 161.806 214.802 161.356 216.344 160.742C217.558 160.266 218.908 159.46 218.158 159.342C217.158 159.682 216.158 160.01 215.184 160.364C213.152 161.102 211.12 161.864 209.074 162.564C208.61 162.738 208.103 162.757 207.628 162.618C206.934 162.332 205.952 161.936 205.788 161.378C205.765 160.996 205.836 160.613 205.996 160.264C206.155 159.916 206.398 159.611 206.702 159.378C209.034 157.892 211.474 156.568 213.888 155.218C217.888 153.254 218.076 152.464 214.544 153.854C213.044 154.496 211.584 155.232 210.098 155.886C206.17 157.592 203.688 156.256 203.156 151.986C202.87 149.668 202.896 147.322 202.756 144.73L177.956 157.13C179.332 161.848 180.656 166.404 181.992 170.974C182.442 172.574 182.034 172.678 181.406 171.174C179.286 166.931 177.657 162.46 176.55 157.848L169.732 161.15C172.622 165.268 175.76 169.15 176.496 174.214C176.646 175.014 176.496 175.196 176.006 174.488L168.244 161.858C163.798 163.946 159.558 166.018 155.262 167.942C148.862 170.82 142.414 173.588 135.99 176.41C131.708 178.292 127.752 177.21 124.016 174.584C121.883 173.041 120.149 171.011 118.956 168.664C114.619 160.304 110.313 151.935 106.04 143.556C101.226 134.156 96.3979 124.776 91.6659 115.356C88.9099 109.872 89.8519 104.356 92.3339 99.1562C93.3408 97.6198 94.7691 96.406 96.4479 95.6602C113.993 85.8944 132.039 77.0582 150.512 69.1882C158.272 65.8882 166.004 62.5322 173.778 59.2722C176.956 57.8601 180.217 56.6445 183.544 55.6322C186.051 54.9171 188.658 54.6171 191.262 54.7442C197.046 55.1262 200.292 58.3042 201.506 64.0182C203.442 73.1162 205.256 82.2542 207.452 91.2962C209.052 97.8962 211.284 104.348 213.052 110.908C214.566 116.526 215.792 122.228 217.17 127.888C217.541 129.602 217.481 131.382 216.996 133.067C216.51 134.752 215.614 136.291 214.388 137.544C212.206 139.992 209.437 141.846 206.342 142.93C206.08 142.985 205.832 143.094 205.614 143.249C205.396 143.404 205.212 143.602 205.074 143.831C204.936 144.06 204.846 144.315 204.811 144.58C204.775 144.845 204.795 145.115 204.868 145.372C205.1 146.926 205.018 148.522 205.1 150.104C205.115 150.756 205.193 151.405 205.332 152.042C206.014 154.592 206.778 154.96 209.178 153.938C211.178 153.092 213.134 152.138 215.178 151.386C216.365 151.003 217.623 150.887 218.86 151.046C219.111 151.041 219.358 151.106 219.574 151.234C219.79 151.361 219.967 151.546 220.084 151.768C220.202 151.99 220.255 152.24 220.239 152.49C220.223 152.741 220.137 152.982 219.992 153.186C219.133 154.553 217.91 155.654 216.46 156.364C214.004 157.714 211.46 158.888 208.93 160.142C208.616 160.524 207.554 161.48 213.09 159.284C214.454 158.752 215.804 158.152 217.196 157.742C217.882 157.565 218.604 157.58 219.282 157.784C219.842 157.96 220.592 158.452 220.682 158.902C220.718 159.235 220.675 159.571 220.557 159.884C220.438 160.197 220.247 160.477 220 160.702C218.172 161.752 216.222 162.584 214.326 163.512C209.294 165.544 211.298 165.53 213.904 164.684C215.648 164.112 217.572 163.884 219.386 163.416C220.053 163.102 220.699 162.747 221.322 162.352C222.058 162.052 222.604 162.134 223.068 161.316C224.668 158.534 226.354 155.806 228.018 153.05C228.128 152.86 230.432 151.374 228.418 155.874C223.754 164.112 219.018 172.308 214.398 180.56C213.303 182.615 212.377 184.755 211.63 186.96C211.282 187.95 211.26 189.025 211.567 190.029C211.873 191.032 212.492 191.911 213.334 192.538C216.427 195.156 220.134 196.945 224.108 197.738C231.015 199.351 238.074 200.223 245.166 200.338C260.966 200.828 276.78 201.374 292.588 201.292C303.144 201.238 313.712 200.292 324.256 199.506C331.47 198.96 338.684 198.106 345.856 197.132C350.295 196.731 354.479 194.881 357.764 191.868C361.228 188.486 361.564 186.03 358.826 182.116C351.954 172.311 345.058 162.523 338.138 152.752C337.66 152.156 337.261 151.5 336.95 150.802C336.878 150.268 336.906 149.726 337.032 149.202C337.538 149.38 338.246 149.402 338.532 149.762C340.552 152.258 342.57 154.762 344.424 157.386C350.18 165.57 355.922 173.786 361.554 182.058C362.644 183.459 363.194 185.205 363.104 186.977C363.014 188.75 362.29 190.431 361.064 191.714C359.327 193.901 357.16 195.71 354.697 197.028C352.234 198.346 349.528 199.146 346.744 199.378C335.764 200.716 324.758 202.01 313.744 202.692C300.202 203.524 286.604 204.016 273.034 204.042C263.404 204.056 253.748 203.224 244.134 202.474C237.628 201.97 231.134 201.084 224.686 200.116C220.63 199.484 216.777 197.914 213.434 195.532C209.26 192.614 208.06 189.218 210.034 184.472C211.344 181.336 213.234 178.43 214.848 175.416C215.162 174.83 215.434 174.202 215.72 173.588C215.584 173.48 215.448 173.388 215.32 173.274C213.92 174.674 212.52 176.056 211.146 177.474C206.66 182.138 202.346 186.992 197.672 191.452C191.8 197.02 184.458 200 176.86 202.38C169.442 204.712 161.914 206.746 154.59 209.38C144.17 213.116 135.686 219.826 128.062 227.682C119.875 235.972 113.429 245.817 109.106 256.636C103.907 269.47 101.93 283.382 103.35 297.156C103.77 301.457 105.11 305.618 107.278 309.356C109.02 312.605 111.713 315.244 114.996 316.921C118.278 318.597 121.995 319.232 125.648 318.74C132.59 318.154 138.946 315.522 145.288 312.876C152.462 309.876 159.594 306.766 166.888 304.052C169.73 303.14 172.686 302.631 175.67 302.538C182.504 302.292 181.604 303.382 179.612 303.982C168.51 303.956 159.222 309.424 149.526 313.476C142.771 316.636 135.692 319.05 128.414 320.676C123.184 321.819 117.716 320.975 113.075 318.307C108.434 315.64 104.951 311.34 103.306 306.246C100.997 299.35 100.12 292.055 100.728 284.808C101.437 268.266 106.818 252.264 116.248 238.654C125.29 225.616 136.406 214.706 151.248 208.404C157.536 205.732 164.26 204.108 170.752 201.926C175.648 200.29 180.57 198.694 185.352 196.772C192.866 193.744 198.444 188.098 203.928 182.372C207.38 178.751 210.894 175.191 214.47 171.692C215.151 170.856 215.899 170.076 216.706 169.36C217.334 168.96 217.894 169.264 218.48 168.802C219.712 167.848 219.672 166.484 219.276 164.78ZM94.5119 115.886C97.5659 122.556 101.018 129.06 104.312 135.62C109.426 145.836 114.568 156.038 119.628 166.294C121.42 170.134 124.626 173.134 128.576 174.668C129.757 175.179 131.034 175.431 132.321 175.408C133.607 175.384 134.874 175.086 136.036 174.532C139.444 172.868 142.867 171.213 146.304 169.566C154 165.87 161.722 162.216 169.4 158.478C181.484 152.6 193.568 146.722 205.6 140.708C208.067 139.462 210.354 137.889 212.4 136.03C213.428 135.238 214.215 134.176 214.675 132.962C215.134 131.748 215.246 130.43 215 129.156C212.872 120.556 210.6 111.972 208.358 103.394C206.884 97.7602 205.18 92.1822 203.844 86.5222C202.044 78.9542 200.542 71.3222 198.824 63.7222C198.65 62.4993 198.182 61.3369 197.459 60.3347C196.737 59.3325 195.783 58.5205 194.678 57.9682C193.095 57.2152 191.377 56.7851 189.626 56.703C187.875 56.6209 186.125 56.8886 184.478 57.4902C178.15 59.8082 171.85 62.2502 165.678 64.9642C143.064 74.9202 120.506 84.9842 98.6779 96.6042C91.1559 100.46 93.2439 113.13 94.5119 115.886Z" fill="#191919"/>
<path d="M139.982 295.954C139.693 295.984 139.4 295.948 139.128 295.847C138.855 295.746 138.609 295.584 138.409 295.373C138.208 295.163 138.059 294.909 137.973 294.631C137.886 294.353 137.865 294.059 137.91 293.772C137.978 292.326 138.974 292.066 140.174 291.998C150.238 291.494 160.305 290.981 170.374 290.458C173.574 290.28 176.784 289.94 179.99 289.79C181.462 289.722 181.9 289.012 181.45 287.812C180.494 285.274 179.45 282.78 178.34 280.296C178.067 279.72 177.611 279.251 177.044 278.961C176.476 278.672 175.828 278.579 175.202 278.696C170.374 279.118 165.546 279.582 160.718 280.004C157.296 280.304 153.886 280.632 150.462 280.85C147.422 281.05 144.366 281.192 141.326 281.206C140.189 281.149 139.068 280.92 138 280.528C137.783 280.476 137.581 280.374 137.411 280.229C137.241 280.084 137.108 279.901 137.023 279.694C136.938 279.488 136.903 279.264 136.921 279.042C136.938 278.819 137.009 278.604 137.126 278.414C140.768 269.496 142.54 260.084 144.546 250.716C145.746 245.068 147.192 239.49 148.528 233.872C148.881 232.386 149.263 230.912 149.674 229.452C149.822 228.785 150.206 228.194 150.754 227.786C151.302 227.378 151.978 227.181 152.66 227.23C163.598 226.644 174.522 226.044 185.448 225.32C190.648 224.98 192.322 225.988 194.516 230.884C195.083 232.647 195.187 234.526 194.816 236.34C193.548 246.27 192.348 256.226 190.698 266.1C189.47 273.436 187.602 280.666 186.02 287.948C185.909 288.369 185.831 288.797 185.788 289.23C185.845 289.805 185.777 290.385 185.589 290.931C185.401 291.478 185.097 291.977 184.698 292.394C184.299 292.812 183.815 293.139 183.278 293.352C182.741 293.566 182.165 293.66 181.588 293.63C178.232 293.97 174.864 294.338 171.508 294.558C160.862 295.2 146.04 296.178 139.982 295.954ZM150.552 242.082C150.538 244.032 151.352 244.796 153.402 244.714C160.14 244.428 166.89 244.182 173.628 243.868C175.639 243.81 177.644 243.614 179.628 243.282C180.021 243.167 180.382 242.965 180.686 242.691C180.991 242.417 181.23 242.079 181.386 241.7C182.204 239.232 182.86 236.7 183.446 234.158C183.896 232.158 183.406 231.54 181.346 231.472C178.578 231.39 175.794 231.322 173.026 231.472C166.78 231.826 160.548 232.33 154.3 232.74C153.808 232.715 153.326 232.876 152.949 233.192C152.572 233.509 152.328 233.956 152.268 234.444C151.712 237 151.124 239.546 150.552 242.082Z" fill="#4A8DD0"/>
<path d="M327.06 48.498C329.905 48.5542 332.658 49.5172 334.917 51.2468C337.177 52.9764 338.825 55.3823 339.622 58.114C340.145 60.0074 340.461 61.9522 340.562 63.914C340.944 74.048 341.34 84.18 341.504 94.328C341.464 105.179 340.761 116.017 339.4 126.782C338.718 133.182 338.05 139.582 337.462 145.982C337.326 147.51 336.494 147.946 335.24 148C329.744 148.246 324.24 148.628 318.738 148.682C307.172 148.792 295.606 148.492 284.054 148.806C269.23 149.206 254.418 150.02 239.608 150.66C236.566 150.791 233.524 150.937 230.484 151.096C229.242 151.164 228.806 150.482 228.588 149.364C226.4 137.858 223.886 126.4 222.072 114.85C219.762 100.418 218.517 85.835 218.348 71.22C218.338 67.7915 218.839 64.3806 219.836 61.1C221.786 54.718 226.34 51.348 233.078 50.448C242.003 49.3294 250.99 48.7737 259.986 48.784C268.756 48.704 313.476 48.498 327.06 48.498ZM273.434 50.8C260.574 50.868 247.684 50.568 234.878 52.164C230.924 52.654 227.09 53.486 224.568 57.004C222.635 59.4055 221.462 62.3287 221.2 65.4C220.924 71.331 220.955 77.2723 221.294 83.2C222.083 96.8091 223.659 110.361 226.014 123.788C227.48 131.44 228.926 139.091 230.35 146.742C230.361 147.027 230.436 147.305 230.57 147.557C230.703 147.808 230.892 148.027 231.121 148.196C231.35 148.365 231.615 148.48 231.895 148.533C232.174 148.586 232.463 148.575 232.738 148.502C235.67 148.256 238.616 148.16 241.562 147.984C260.942 146.852 280.336 146.032 299.762 146.1C310.728 146.142 321.678 145.938 332.644 145.788C335.004 145.76 335.044 145.638 335.276 143.188C336.276 132.932 337.322 122.69 338.222 112.42C339.708 95.576 338.604 78.734 337.964 61.904C337.676 54.238 332.03 50.474 325.102 50.474C311.662 50.462 277.2 50.776 273.434 50.8Z" fill="#191919"/>
<path d="M218.116 313.4C216.442 309.139 213.304 305.613 209.266 303.456C208.038 302.776 206.866 301.97 205.638 301.274C205.287 301.042 204.873 300.923 204.452 300.934C195.532 302.23 187.594 305.476 181.62 312.582C180.364 314.015 179.709 315.878 179.792 317.782C179.603 321.542 180.102 325.304 181.266 328.884C181.934 330.562 182.916 332.104 183.938 334.068C184.342 333.582 184.716 333.072 185.058 332.54C185.19 332.133 185.406 331.757 185.692 331.438C185.977 331.119 186.326 330.862 186.716 330.685C187.106 330.508 187.529 330.414 187.957 330.41C188.386 330.405 188.81 330.489 189.204 330.658C191.579 331.429 193.89 332.382 196.118 333.508C199.65 335.294 203.1 337.286 206.566 339.208C209.634 340.9 209.88 343.068 208.38 345.892C208.118 346.365 207.903 346.863 207.738 347.378C207.637 347.808 207.444 348.211 207.172 348.559C206.9 348.907 206.555 349.191 206.162 349.392C205.769 349.593 205.336 349.707 204.895 349.724C204.454 349.741 204.014 349.662 203.606 349.492C197.707 347.249 192.053 344.407 186.734 341.01C182.578 338.459 179.451 334.53 177.898 329.908C176.547 326.386 175.97 322.614 176.205 318.849C176.44 315.083 177.483 311.413 179.262 308.086C180.852 305.268 183.081 302.861 185.769 301.059C188.456 299.257 191.529 298.109 194.74 297.708C199.314 296.797 204.052 297.208 208.4 298.894C212.748 300.58 216.526 303.47 219.29 307.226C220.97 309.755 222.392 312.446 223.532 315.26C223.605 315.52 223.623 315.792 223.586 316.06C223.6 322.77 223.6 329.46 223.64 336.178C223.723 337.164 223.419 338.143 222.793 338.908C222.167 339.674 221.268 340.167 220.286 340.282C218.897 340.423 217.496 340.401 216.112 340.214C215.334 340.182 214.6 339.847 214.065 339.282C213.53 338.716 213.237 337.964 213.248 337.186C212.902 331.151 212.611 325.114 212.376 319.074C212.391 317.983 212.613 316.905 213.03 315.896C213.199 315.398 213.465 314.938 213.813 314.542C214.16 314.147 214.582 313.824 215.055 313.592C215.527 313.36 216.041 313.224 216.566 313.191C217.092 313.158 217.618 313.229 218.116 313.4ZM217.858 336.516C217.966 336.516 218.076 336.53 218.186 336.53V320.75C218.076 320.75 217.966 320.764 217.858 320.764V336.516ZM200.7 341.48C200.81 341.29 200.918 341.08 201.028 340.894L188 333.814L187.7 334.36L200.7 341.48Z" fill="#191919"/>
<path d="M417.674 161.356C418.547 162.1 419.305 162.968 419.924 163.934C421.186 166.388 422.121 168.997 422.706 171.694C423.674 178.364 420.074 182.864 414.782 186.26C411.19 188.476 407.07 189.691 402.85 189.778C396.607 190.221 390.34 189.375 384.439 187.291C378.538 185.208 373.128 181.932 368.548 177.668C364.266 173.712 361.716 168.868 362.562 162.83C363.362 157.02 365.998 152.43 371.762 150.172C372.491 149.931 373.233 149.731 373.984 149.572L374.23 150.092C373.794 150.378 373.358 150.692 372.908 150.964C369.975 152.59 367.657 155.134 366.312 158.205C364.966 161.277 364.667 164.706 365.46 167.964C366.284 170.866 367.933 173.467 370.206 175.452C377.698 182.506 387.5 186.593 397.784 186.95C402.197 187.389 406.651 186.757 410.768 185.108C415.2 183.13 418.8 180.266 420.15 175.33C420.855 171.939 420.374 168.408 418.786 165.33C418.296 164.13 417.736 162.972 417.204 161.784C417.354 161.634 417.511 161.491 417.674 161.356Z" fill="#191919"/>
<path d="M153.266 173.944C150.32 177.144 151.866 181.01 154.18 184.078C157.672 188.742 162.868 190.066 168.364 190.202C175.654 190.178 182.792 188.108 188.964 184.228C194.059 181.644 198.172 177.469 200.68 172.336C201.92 169.912 202.378 167.163 201.989 164.468C201.6 161.774 200.385 159.266 198.51 157.292C193.86 152.204 196.152 152.178 196.738 152.668C203.584 158.52 207.022 164.848 202.338 174.382C199.364 180.422 194.196 184.242 188.44 187.27C181.94 191.037 174.489 192.843 166.986 192.47C160.986 191.978 155.516 190.218 152.108 184.696C151.136 183.236 150.545 181.557 150.388 179.81C150.23 178.064 150.512 176.306 151.208 174.696C154.22 171.094 154.22 172.894 153.266 173.944Z" fill="#191919"/>
<path d="M171.814 289.066C162.014 289.366 152.214 289.516 142.424 289.666C141.2 287.88 173.314 286.68 171.814 289.066Z" fill="#191919"/>
<path d="M173.302 282.56C167.778 283.065 162.245 283.497 156.702 283.856C151.702 284.184 146.69 284.362 141.686 284.594C139.956 283.312 174.132 280.542 173.302 282.56Z" fill="#191919"/>
<path d="M183.788 339.924C189.444 344.508 195.919 347.975 202.87 350.14C200.7 351.14 198.724 352.294 196.214 350.752C193.28 349.017 190.258 347.437 187.158 346.02C184.69 344.82 184.144 342.666 183.788 339.924Z" fill="#191919"/>
<path d="M224.732 336.774V316.574C225.433 316.985 226.037 317.543 226.503 318.208C226.969 318.874 227.286 319.633 227.432 320.432C227.772 323.734 227.704 327.074 228.046 330.362C228.167 331.636 227.919 332.918 227.331 334.055C226.744 335.192 225.841 336.136 224.732 336.774Z" fill="#191919"/>
<path d="M407.922 252.83C408.272 250.937 409.184 249.193 410.54 247.825C411.896 246.458 413.632 245.531 415.522 245.164C418.124 244.65 420.825 245.085 423.134 246.392C430.293 250.251 435.953 256.397 439.212 263.848C440.164 266.017 440.578 268.383 440.419 270.746C440.26 273.109 439.532 275.399 438.298 277.42C436.267 280.44 433.212 282.624 429.698 283.57C423.218 285.684 417.286 285.03 412.486 279.71C409.771 276.41 408.012 272.429 407.4 268.2C406.982 266.018 406.45 257.18 407.922 252.83ZM413.31 248.588C411.973 249.819 410.921 251.326 410.228 253.006C409.085 256.771 408.705 260.726 409.11 264.639C409.515 268.552 410.697 272.345 412.586 275.796C413.539 277.748 415.012 279.398 416.844 280.566C418.676 281.733 420.794 282.371 422.966 282.41C426.532 282.518 430.038 281.476 432.966 279.438C434.246 278.622 435.32 277.521 436.104 276.22C437.149 274.414 437.744 272.383 437.839 270.299C437.933 268.214 437.525 266.138 436.648 264.244C433.539 257.837 428.647 252.462 422.56 248.764C421.487 247.987 420.242 247.481 418.931 247.289C417.621 247.097 416.283 247.224 415.032 247.66C424.234 269.278 423 271.936 413.31 248.588Z" fill="#191919"/>
<path d="M150.552 242.082C151.124 239.546 151.726 236.994 152.27 234.458C152.33 233.969 152.573 233.522 152.95 233.206C153.327 232.889 153.81 232.728 154.302 232.754C160.55 232.354 166.782 231.84 173.028 231.486C175.796 231.336 178.58 231.39 181.348 231.486C183.394 231.554 183.898 232.18 183.448 234.172C182.862 236.708 182.206 239.246 181.388 241.714C181.232 242.092 180.993 242.431 180.689 242.705C180.384 242.978 180.023 243.18 179.63 243.296C177.646 243.628 175.641 243.823 173.63 243.882C166.894 244.196 160.142 244.442 153.404 244.728C151.344 244.81 150.538 244.032 150.552 242.082ZM177.352 235.372C175.278 233.448 158.244 233.762 156.634 235.372H177.352ZM161.476 238.7C159.908 238.918 160.794 240.228 161.858 239.954C163.7 239.872 165.54 239.754 167.368 239.554C168.118 239.464 169.686 237.54 161.476 238.7Z" fill="#191919"/>
<path d="M188.494 229.384C187.494 234.172 186.584 239 185.398 243.746C183.312 252.092 181.088 260.398 178.852 268.704C177.092 274.842 175.402 275.504 177.148 268.09C179.124 259.772 181.147 251.467 183.216 243.174C184.269 238.896 185.365 234.629 186.504 230.374C187.104 226.494 189.4 225.894 188.494 229.384Z" fill="#191919"/>
<path d="M248.312 174.286C248.776 170.93 249.24 167.67 249.676 164.576C254.676 164.576 259.564 164.834 264.624 164.834V173.78C259.2 173.944 253.836 174.108 248.312 174.286Z" fill="#4A8DD0"/>
<path d="M282.654 173.236C277.28 173.386 272.152 173.636 266.984 173.7C266.693 173.729 266.4 173.724 266.11 173.686C265.913 170.762 265.877 167.83 266 164.902C266.4 164.848 275.724 164.766 280.02 164.726C280.946 164.712 281.42 164.97 281.548 165.926C281.89 168.284 282.258 170.644 282.654 173.236Z" fill="#4A8DD0"/>
<path d="M296.878 164.656C301.078 164.656 304.878 164.644 308.69 164.67C308.871 164.671 309.049 164.71 309.214 164.785C309.378 164.86 309.525 164.97 309.644 165.106C311.044 167.848 312.412 170.604 313.886 173.604H311.13C307.694 173.576 304.27 173.522 300.834 173.536C300.621 173.566 300.404 173.554 300.196 173.5C299.987 173.446 299.792 173.351 299.62 173.221C299.449 173.091 299.305 172.928 299.197 172.742C299.09 172.555 299.02 172.35 298.992 172.136C298.366 169.744 297.642 167.358 296.878 164.656Z" fill="#4A8DD0"/>
<path d="M282.544 164.8H295.638C296.346 167.54 297.056 170.254 297.806 173.146H284.018C283.54 170.454 283.062 167.752 282.544 164.8Z" fill="#4A8DD0"/>
<path d="M215.73 283.57C213.13 283.556 212.362 282.724 212.402 280.066C212.394 279.033 212.476 278.001 212.648 276.982C214.026 269.982 215.376 262.982 216.89 256.02C217.298 254.326 218.014 252.722 219.004 251.288C219.336 250.875 219.747 250.532 220.213 250.279C220.679 250.027 221.191 249.869 221.718 249.816C228.454 249.296 235.206 248.816 241.956 248.588C257.6 248.07 273.244 247.702 288.886 247.292C289.866 247.252 290.847 247.303 291.818 247.442C292.985 247.474 294.099 247.937 294.945 248.742C295.791 249.546 296.309 250.636 296.4 251.8C297.326 256.724 298.214 261.662 299.018 266.612C299.482 269.462 299.85 272.326 300.082 275.212C300.187 275.699 300.191 276.202 300.095 276.691C300 277.179 299.806 277.644 299.525 278.055C299.245 278.466 298.883 278.817 298.463 279.084C298.043 279.352 297.573 279.531 297.082 279.612C293.449 280.545 289.744 281.169 286.006 281.48C271.634 282.342 223.572 283.612 215.73 283.57ZM293.77 260.684C293.782 260.398 293.81 260.112 293.824 259.826C289.8 258.748 285.624 259.472 281.48 259.28C280.936 256.908 280.404 254.616 279.88 252.31L279.224 252.434C278.27 254.724 279.402 257.058 279.388 259.662H263.096C262.946 257.548 262.782 255.366 262.618 253.184C262.428 253.17 262.238 253.17 262.06 253.156C260.996 255.256 261.66 257.658 261.186 259.866H245.912C246.008 257.848 246.09 255.952 246.172 254.042C245.948 254.018 245.724 253.986 245.502 253.948C245.102 255.912 244.67 257.876 244.22 260.016H229.736C229.936 258.08 230.136 256.116 230.336 254.138C230.092 254.098 229.832 254.056 229.586 254.002C229.014 256.088 228.454 258.19 227.896 260.262C225.796 260.44 223.804 260.604 221.812 260.78C221.812 261.012 221.826 261.258 221.826 261.49H227.69C227.03 263.475 226.524 265.509 226.178 267.572C225.978 269.632 225.058 270.34 223.136 270.396C221.904 270.512 220.682 270.717 219.48 271.01L219.562 271.704L225.304 271.336C224.51 274.211 224.283 277.212 224.636 280.174C224.786 280.202 224.936 280.216 225.072 280.242C225.672 277.228 226.258 274.228 226.9 271.01C232.028 270.722 237.116 270.422 242.406 270.122V279.002L243.034 279.042C244.098 276.192 243.688 273.054 244.276 270.028C249.84 269.714 255.296 269.4 260.778 269.086C260.9 272.196 260.028 275.25 261.992 277.842C262.168 277.842 262.36 277.828 262.538 277.828V269.072C269.016 268.758 275.138 268.458 281.236 268.158C281.557 269.538 281.953 270.899 282.422 272.236C282.795 272.844 283.268 273.385 283.822 273.836C284.026 273.167 284.141 272.475 284.162 271.776C283.985 270.587 283.748 269.409 283.452 268.244C286.03 267.822 288.418 267.444 290.818 267.044L290.736 266.376H283.126C282.726 264.508 282.348 262.79 281.898 260.648C286.022 260.684 289.896 260.684 293.77 260.684Z" fill="#191919"/>
<path d="M335.816 283.174C332.324 283.092 330.58 281.934 329.83 278.538C328.384 272.004 327.184 265.418 325.956 258.844C325.556 256.702 325.356 254.534 325.156 252.352C324.991 251.721 324.986 251.059 325.142 250.426C325.297 249.793 325.609 249.208 326.048 248.726C326.487 248.244 327.039 247.878 327.655 247.664C328.27 247.449 328.93 247.391 329.574 247.496C335.07 247.538 340.574 247.674 346.05 247.81C347.016 247.787 347.965 248.073 348.756 248.628C349.548 249.182 350.142 249.976 350.45 250.892C351.814 254.492 353.178 258.108 354.364 261.79C356.124 267.272 357.816 272.79 359.364 278.332C360.224 281.428 359.678 282.192 356.542 282.956C355.156 283.259 353.744 283.42 352.326 283.434C349.81 283.502 338.8 283.256 335.816 283.174ZM354.05 279.574C354.214 279.492 354.392 279.41 354.556 279.328C353.232 276.192 351.918 273.069 350.614 269.958C351.414 269.758 352.1 269.59 352.796 269.414C352.105 268.949 351.332 268.621 350.518 268.446C350.096 268.308 349.518 268.118 349.36 267.776C347.96 264.976 346.632 262.116 345.282 259.266C345.922 258.994 346.386 258.79 347.028 258.516C346.604 258.162 346.358 257.794 346.126 257.808C344.476 257.902 344.15 256.648 343.576 255.544C342.936 254.288 342.158 253.116 341.436 251.902C341.258 251.998 341.08 252.08 340.918 252.174C341.49 253.88 342.076 255.574 342.704 257.438H334.8C334.226 255.38 333.68 253.416 333.136 251.438C332.936 251.478 332.736 251.534 332.536 251.574C332.736 253.634 332.936 255.68 333.136 257.684C332.058 258.012 331.198 258.27 330.326 258.544C330.352 258.72 330.38 258.898 330.394 259.09C331.308 259.158 332.208 259.212 333.258 259.29L333.818 268.66C333.148 268.878 332.63 269.06 332.126 269.218V269.654C332.74 269.854 333.354 270.024 333.98 270.214C334.8 273.596 334.78 277.32 337.718 279.98C337.05 276.706 336.394 273.446 335.658 269.806C339.476 269.806 342.954 269.86 346.418 269.778C346.97 269.696 347.534 269.809 348.013 270.097C348.491 270.386 348.853 270.833 349.038 271.36C350.21 274.373 351.907 277.154 354.05 279.574Z" fill="#191919"/>
<path d="M306.78 265.336C306.173 265.411 305.559 265.264 305.052 264.92C304.545 264.576 304.181 264.06 304.026 263.468C303.163 259.94 302.535 256.359 302.144 252.748C301.884 249.42 303.302 248.124 306.698 247.892C309.848 247.674 313.012 247.646 316.164 247.606C316.883 247.51 317.611 247.683 318.21 248.091C318.809 248.498 319.236 249.113 319.41 249.816C320.336 253.716 321.224 257.644 321.906 261.598C321.988 261.979 321.988 262.374 321.905 262.755C321.822 263.137 321.659 263.496 321.427 263.81C321.195 264.123 320.898 264.384 320.557 264.574C320.217 264.764 319.839 264.879 319.45 264.912C317.65 265.294 309.166 265.35 306.78 265.336ZM309.536 259.852C311.048 259.73 312.89 259.908 314.35 259.784C314.75 260.808 314.732 261.34 315.058 262.184C315.372 263.096 315.918 263.234 315.858 262.06C315.966 261.202 316.076 260.328 316.158 259.55C319.09 259.332 319.43 258.624 318.434 258.392C317.316 258.16 317.358 258.392 315.762 258.092C315.42 258.024 315.49 257.218 315.448 256.454C315.42 255.936 315.284 255.242 315.284 254.75H318.762C320.126 254.35 319.162 253.672 317.74 253.686C316.744 253.691 315.749 253.608 314.766 253.44C314.366 250.208 313.388 249.582 313.226 250.946C313.048 251.746 313.362 252.472 313.184 253.264C311.93 253.264 310.184 253.222 308.902 253.222C308.656 252.486 308.424 251.764 308.178 251.054C307.948 250.276 307.742 250.276 307.702 251.108C307.62 251.908 307.552 252.708 307.47 253.508C306.434 253.876 305.438 253.876 304.456 254.23C303.27 254.57 303.896 254.994 304.402 254.966C305.438 254.966 306.678 254.748 307.77 254.748L307.97 258.116C307.124 258.444 306.43 258.404 305.734 258.676C305.31 258.786 304.302 259.562 305.802 259.548C306.602 259.686 307.402 259.808 308.188 259.948C308.488 260.522 308.474 261.422 308.774 261.994C309.048 262.936 309.512 262.826 309.456 261.994C309.576 261.462 309.44 260.534 309.536 259.852Z" fill="#191919"/>
<path d="M318.278 268.718C318.962 268.808 319.596 269.124 320.08 269.616C320.564 270.107 320.87 270.747 320.95 271.432C321.4 273.724 321.782 276.032 322.014 278.36C322.145 278.857 322.158 279.378 322.051 279.88C321.945 280.383 321.723 280.854 321.402 281.256C321.082 281.657 320.671 281.978 320.205 282.193C319.738 282.408 319.227 282.51 318.714 282.492C316.395 282.708 314.061 282.7 311.744 282.466C308.944 282.166 307.872 280.692 307.816 277.856C307.762 275.796 307.598 273.736 307.544 271.656C307.464 271.264 307.472 270.859 307.568 270.471C307.664 270.083 307.845 269.721 308.099 269.411C308.352 269.102 308.671 268.853 309.033 268.682C309.394 268.511 309.79 268.423 310.19 268.424C310.618 268.35 311.051 268.305 311.486 268.288C313.756 268.31 316.023 268.453 318.278 268.718ZM316.422 275.182C315.734 275.095 315.042 275.049 314.35 275.046C312.7 275.156 311.99 274.486 312.14 272.796C312.091 272.1 311.94 271.415 311.69 270.764C311.512 270.804 311.336 270.832 311.144 270.872C311.091 272.139 311.036 273.405 310.98 274.672C310.422 274.85 309.98 274.986 309.098 275.258C309.986 275.722 310.544 276.008 311.036 276.258C311.28 277.404 311.512 278.494 311.73 279.586C311.976 279.572 312.208 279.544 312.454 279.532C312.508 278.426 312.55 277.332 312.604 276.176L316.3 276.668C316.628 277.594 316.94 278.44 317.24 279.268C317.44 279.228 317.64 279.2 317.84 279.158C317.95 278.34 318.06 277.522 318.168 276.8L319.768 276C319.89 275.8 320.026 275.6 320.15 275.4C317.368 275.878 317.844 274.01 317.45 272.754C317.284 272.359 317.084 271.98 316.85 271.622C316.7 271.678 316.564 271.718 316.414 271.772L316.422 275.182Z" fill="#191919"/>
<path d="M353.656 105.644C353.806 94.2367 354.662 82.8496 356.22 71.5481C356.546 68.7921 356.792 66.0101 357.188 63.2681C357.474 61.3041 357.988 60.8421 359.93 61.2101C366.066 62.4101 372.23 63.5421 378.286 65.0821C389.838 68.0161 401.39 71.0161 412.818 74.3701C424.618 77.8341 436.264 81.7701 447.978 85.5261C451.088 86.5261 454.178 87.6141 457.252 88.6781C459.026 89.2901 459.312 89.8361 458.548 91.5681C455.82 97.8561 452.93 104.076 450.348 110.416C446.052 120.946 441.96 131.542 437.76 142.112C436.396 145.55 435.046 149 433.586 152.396C432.468 155.014 431.8 155.164 429.086 154.396C417.984 151.244 406.868 148.162 395.754 145.052C383.384 141.585 371.014 138.126 358.644 134.674C357.597 134.533 356.64 134.006 355.961 133.196C355.282 132.386 354.93 131.352 354.974 130.296C354.678 122.078 354.12 113.868 353.656 105.644ZM431.244 152.506C438.611 131.545 447.098 110.994 456.666 90.9421C424.794 79.1041 392.306 70.7161 359.466 62.5421C358.51 72.5421 357.466 82.0181 356.738 91.5241C356.037 104.648 356.265 117.806 357.42 130.898C357.483 131.207 357.62 131.496 357.82 131.74C358.02 131.984 358.276 132.175 358.566 132.298C366.566 134.63 374.55 136.934 382.582 139.144C395.758 142.744 408.96 146.25 422.134 149.836C425.094 150.622 428.04 151.564 431.244 152.506Z" fill="#191919"/>
<path d="M206.988 128.42C207.003 129.022 206.827 129.614 206.487 130.11C206.147 130.607 205.659 130.984 205.092 131.188C198.818 134.57 192.558 137.966 186.272 141.294C171.132 149.314 155.975 157.302 140.8 165.256C137.542 166.962 134.104 168.352 130.708 169.812C130.457 169.954 130.179 170.041 129.892 170.067C129.605 170.093 129.315 170.058 129.043 169.963C128.771 169.869 128.521 169.717 128.312 169.519C128.103 169.32 127.939 169.079 127.83 168.812C124.352 162.47 120.602 156.278 117.37 149.812C112.652 140.38 108.096 130.86 103.854 121.2C102.017 116.435 100.423 111.58 99.0802 106.652C98.5902 105.138 99.1362 104.28 100.568 103.57C119.498 94.3702 138.346 84.9942 157.368 75.9802C165.864 71.9562 174.688 68.6422 183.368 65.0142C183.623 64.9182 183.882 64.8367 184.146 64.7702C188.182 63.4742 189.136 63.8142 190.346 67.8522C192.31 74.5202 193.986 81.2862 195.896 87.9822C198.378 96.6702 201.052 105.288 203.496 113.982C204.82 118.764 205.828 123.618 206.988 128.42ZM129.48 168.502C132.332 167.044 135.182 165.666 137.936 164.152C144.606 160.484 151.152 156.57 157.916 153.064C172.932 145.264 188.044 137.652 203.128 129.988C203.397 129.906 203.647 129.769 203.86 129.586C204.074 129.402 204.247 129.176 204.369 128.923C204.491 128.669 204.559 128.393 204.568 128.111C204.578 127.83 204.529 127.55 204.424 127.288C203.292 123.25 202.338 119.172 201.192 115.15C198.45 105.576 195.558 96.0422 192.886 86.4542C191.168 80.3302 189.722 74.1262 188.14 67.9462C187.88 66.9462 187.716 65.7922 186.14 66.4742C175.352 71.1242 164.442 75.5022 153.79 80.4542C136.428 88.5142 119.23 96.9422 101.978 105.208C101.256 105.562 100.956 105.902 101.242 106.844C104.021 115.615 107.499 124.148 111.642 132.362C117.52 144.294 123.426 156.242 129.48 168.502Z" fill="#191919"/>
<path d="M329.556 58.3859C331.248 58.3859 331.834 59.0539 331.738 60.6359C331.192 70.1559 330.416 79.6759 330.238 89.2099C329.924 102.129 328.959 115.024 327.346 127.846C327.128 129.634 327.046 131.434 326.828 133.22C326.57 135.388 325.71 136.126 323.514 136.194C311.362 136.548 299.198 136.766 287.046 137.258C274.784 137.762 262.538 138.54 250.29 139.154C246.158 139.354 242.012 139.412 237.878 139.59C236.678 139.644 236.214 139.19 236.12 138.034C235.37 129.456 234.564 120.892 233.828 112.312C233.796 111.938 230.138 69.4099 230.028 66.2019C229.956 65.7924 229.978 65.3721 230.09 64.972C230.203 64.5719 230.405 64.2024 230.68 63.8907C230.955 63.579 231.296 63.3331 231.679 63.1713C232.062 63.0095 232.477 62.9359 232.892 62.9559C242.768 62.0559 252.642 60.9919 262.53 60.3779C275.426 59.5599 320.132 58.3719 329.556 58.3859ZM329.298 60.6639C329.148 60.6499 328.942 60.6239 328.724 60.6239C315.904 60.8959 303.098 61.0239 290.278 61.4819C278.126 61.9059 265.988 62.5999 253.85 63.2819C247.208 63.6499 240.58 64.2819 233.952 64.7279C232.532 64.8239 232.246 65.6419 232.232 66.7739C232.232 67.5959 234.078 82.0239 234.864 91.9739C235.792 103.498 236.406 115.036 237.238 126.56C237.498 130.23 238.016 133.884 238.384 137.308C267.146 136.012 295.624 134.744 324.238 133.462C324.482 131.198 324.796 128.716 325.028 126.234C325.764 118.364 326.652 110.508 327.142 102.634C327.62 94.8039 327.592 86.9359 327.974 79.0939C328.274 72.9799 328.848 66.9099 329.298 60.6639Z" fill="#191919"/>
<path d="M227.228 269.782C227.964 266.972 228.646 264.354 229.342 261.68H243.742C243.342 264.012 242.942 266.29 242.528 268.622L227.228 269.782Z" fill="#191919"/>
<path d="M261.118 261.694V267.464C255.554 267.818 250.098 268.186 244.37 268.554C244.752 266.208 245.108 264 245.476 261.708C250.74 261.694 255.896 261.694 261.118 261.694Z" fill="#191919"/>
<path d="M263.042 267.354V261.694C268.642 261.504 274.212 261.312 279.926 261.108L281.1 266.414C275.03 266.74 269.11 267.04 263.042 267.354Z" fill="#191919"/>
<path d="M347.464 268.458H335.612C335.366 265.458 335.094 262.28 334.812 258.926C337.486 258.926 340.09 258.898 342.682 258.952C342.881 258.985 343.07 259.062 343.235 259.178C343.4 259.294 343.537 259.446 343.636 259.622C344.926 262.486 346.14 265.376 347.464 268.458Z" fill="#191919"/>
<path d="M309.372 258.052C309.276 256.92 309.172 255.926 309.086 254.766H313.312C313.544 255.68 313.764 257.07 314.008 258.052C312.386 258.216 310.954 257.888 309.372 258.052Z" fill="#191919"/>
<path d="M407.228 134.912C409.068 126.346 410.964 117.796 413.01 109.272C414.946 101.238 417.088 93.26 419.174 85.254C419.428 84.3074 419.809 83.3993 420.306 82.554C420.948 81.204 422.692 80.89 421.956 83.18C421.492 85.254 420.88 87.286 420.374 89.346C417.21 102.574 414.128 115.818 410.896 129.02C406.886 145.714 405.264 143.38 407.228 134.912Z" fill="#191919"/>
<path d="M369.776 128.228C370.104 121.464 376.854 74.6161 378.232 70.3481C379.032 67.5481 379.704 69.8421 379.092 71.9301C377.796 79.9901 376.322 88.0361 375.15 96.1301C374.25 102.39 373.8 108.704 372.994 114.978C372.422 119.396 371.594 123.788 370.84 128.178C370.744 128.76 369.776 130.67 369.776 128.228Z" fill="#191919"/>
<path d="M421.738 97.2702C428.942 99.3616 435.955 102.063 442.7 105.344C444.76 106.744 443.532 107.69 441.924 107.034C435.211 104.367 428.514 101.657 421.834 98.9062C420.02 98.2382 420.238 96.8202 421.738 97.2702Z" fill="#191919"/>
<path d="M417.946 114.058C424.644 116.582 431.518 118.71 437.708 122.432C438.239 122.696 438.73 123.033 439.168 123.432C440.342 124.346 439.59 125.286 438.368 124.864C437.604 124.604 436.88 124.222 436.13 123.896C431.494 121.794 426.83 119.722 422.206 117.58C420.338 116.708 418.536 115.684 416.71 114.73C416.488 114.426 415.56 113.172 417.946 114.058Z" fill="#191919"/>
<path d="M383.974 73.894C389.756 75.108 395.484 76.608 401.24 77.984C401.672 78.0321 402.09 78.1682 402.468 78.384C404.554 79.066 403.612 80.608 401.922 80.212C397.522 79.244 393.138 78.212 388.774 77.102C386.728 76.584 384.71 75.916 382.718 75.234C382.078 75.066 381.11 73.294 383.974 73.894Z" fill="#191919"/>
<path d="M427.6 148.932C421.899 146.982 416.216 144.996 410.552 142.972C408.82 142.412 408.82 140.994 410.442 141.372C416.362 143.321 422.277 145.308 428.186 147.332C431.162 148.522 429.69 149.572 427.6 148.932Z" fill="#191919"/>
<path d="M429.662 139.058C427.602 138.348 425.626 137.776 423.73 136.97C420.396 135.527 417.094 134.009 413.828 132.416C412.228 131.802 412.71 130.288 414.278 131.038C419.478 133.098 424.651 135.203 429.798 137.352C431.612 138.362 430.89 139.522 429.662 139.058Z" fill="#191919"/>
<path d="M432.512 95.0319C429.322 93.8459 426.198 92.4559 423.074 91.0779C422.134 90.6779 422.134 89.0999 423.566 89.4779C424.778 89.7595 425.968 90.1285 427.126 90.5819C429.772 91.5639 432.39 92.5599 435.008 93.6099C435.69 93.8879 436.782 96.2739 432.512 95.0319Z" fill="#191919"/>
<path d="M430.222 143.286C428.652 144.062 417.796 139.316 416.856 137.434C418.642 136.712 429.348 141.39 430.222 143.286Z" fill="#191919"/>
<path d="M433.932 129.742C432.58 129.252 431.332 128.842 430.132 128.342C428.276 127.564 426.436 126.742 424.636 125.846C423.53 125.246 424.118 123.964 425.126 124.482C428.182 125.6 431.196 126.842 434.25 128C436.072 128.678 435.05 130.424 433.932 129.742Z" fill="#191919"/>
<path d="M427.044 108.712C424.664 107.781 422.308 106.789 419.978 105.738C419.542 105.548 418.86 103.68 420.566 104.252C422.816 105.052 425.026 105.97 427.248 106.852C429.962 107.948 428.762 109.516 427.044 108.712Z" fill="#191919"/>
<path d="M427.22 115.968C424.477 114.549 421.633 113.336 418.71 112.34C417.606 112.054 417.728 110.662 419.338 111.126C420.286 111.362 421.221 111.649 422.138 111.986C424.048 112.762 425.902 113.662 427.812 114.44C427.929 114.465 428.04 114.515 428.136 114.587C428.233 114.659 428.312 114.751 428.369 114.857C428.426 114.963 428.46 115.08 428.468 115.2C428.475 115.32 428.457 115.44 428.413 115.552C428.37 115.664 428.302 115.765 428.216 115.849C428.13 115.932 428.026 115.996 427.913 116.036C427.799 116.075 427.678 116.09 427.559 116.078C427.439 116.066 427.323 116.029 427.22 115.968Z" fill="#191919"/>
<path d="M422.024 130.56C420.198 131.36 414.374 129.02 413.706 127.314C415.244 127.227 416.783 127.471 418.218 128.032C419.654 128.592 420.952 129.454 422.024 130.56Z" fill="#191919"/>
<path d="M423.43 85.6499C426.703 86.285 429.819 87.5593 432.6 89.3999C430.426 90.0959 424.098 87.5039 423.43 85.6499Z" fill="#191919"/>
<path d="M358.892 119.022C360.856 119.422 362.93 119.09 364.908 119.422C367.008 119.776 366.462 121.29 364.662 121.1C362.33 120.84 361.306 120.786 358.634 120.336C357.692 119.69 357.256 118.682 358.892 119.022Z" fill="#191919"/>
<path d="M362.124 73.3059C364.161 73.5633 366.176 73.9738 368.152 74.5339C370.226 75.2579 368.454 75.9339 367.608 75.9339C365.987 75.7056 364.392 75.3178 362.848 74.7759C360.216 74.2199 361.88 73.2519 362.124 73.3059Z" fill="#191919"/>
<path d="M422.952 124.52C420.396 124.354 417.93 123.511 415.806 122.078C415.713 121.99 415.644 121.88 415.606 121.758C415.568 121.637 415.562 121.507 415.588 121.382C415.658 121.274 415.75 121.183 415.858 121.114C415.966 121.045 416.088 121 416.214 120.982C418.77 121.443 421.122 122.678 422.952 124.52Z" fill="#191919"/>
<path d="M360.338 89.1138C361.838 89.4958 362.969 89.8918 364.137 90.1138C365.923 90.4538 365.173 92.1718 363.713 91.7898C362.623 91.5038 361.491 91.3138 360.387 91.0678C358.799 90.7238 358.66 89.1138 360.338 89.1138Z" fill="#191919"/>
<path d="M369.258 71.8201C366.67 71.888 364.098 71.3997 361.716 70.3881C363.556 69.2161 368.276 70.0741 369.258 71.8201Z" fill="#191919"/>
<path d="M363.516 106.162C362.116 106.066 360.87 106.038 359.642 105.876C359.342 105.834 358.842 105.344 358.878 105.098C358.906 104.784 359.356 104.266 359.642 104.266C361.044 104.235 362.446 104.285 363.842 104.416C364.688 104.252 365.33 106.162 363.516 106.162Z" fill="#191919"/>
<path d="M415.874 137.094C415.069 137.179 414.255 137.089 413.487 136.83C412.72 136.571 412.018 136.15 411.428 135.594C411.338 135.505 411.271 135.394 411.233 135.273C411.195 135.152 411.187 135.023 411.21 134.898C411.276 134.793 411.364 134.703 411.468 134.634C411.571 134.565 411.688 134.519 411.81 134.498C412.63 134.629 413.413 134.927 414.112 135.373C414.811 135.82 415.411 136.406 415.874 137.094Z" fill="#191919"/>
<path d="M362.902 123.538C361.554 123.888 360.125 123.752 358.866 123.156C358.428 122.956 357.866 121.9 359.066 122.078C360.23 122.242 362.302 122.418 362.902 123.538Z" fill="#191919"/>
<path d="M358.892 108.152C360.038 107.076 362.806 107.416 362.806 108.426C362.8 109.312 360.324 109.272 358.892 108.152Z" fill="#191919"/>
<path d="M182.138 105.056C181.225 104.217 180.423 103.264 179.752 102.22C177.938 98.3882 176.316 94.4602 174.638 90.5742C173.37 87.6289 172.115 84.6735 170.874 81.7082C170.56 80.9442 170.218 80.5622 169.274 80.9982C158.132 86.1822 146.948 91.2822 135.818 96.5062C127.744 100.284 119.74 104.226 111.678 108.044C110.52 108.59 110.328 109.204 110.834 110.322C114.434 118.178 117.926 126.102 121.608 133.922C124.526 140.122 127.676 146.21 130.718 152.348C130.964 152.838 131.208 153.316 131.468 153.794C131.568 154.097 131.735 154.372 131.958 154.6C132.182 154.827 132.454 155 132.754 155.105C133.055 155.211 133.376 155.246 133.692 155.207C134.008 155.169 134.311 155.058 134.578 154.884C138.41 152.824 142.188 150.684 146.034 148.652C151.709 145.651 157.405 142.691 163.122 139.772C168.074 137.572 167.638 139.554 163.818 141.518C158.582 144.424 153.29 147.206 148.038 150.084C144.752 151.898 141.574 153.902 138.238 155.648C133.056 158.376 131.12 157.816 128.474 152.58C122 139.766 115.038 127.2 109.61 113.868C108.998 112.304 108.51 110.695 108.15 109.054C108.035 108.541 108.119 108.004 108.385 107.551C108.65 107.098 109.078 106.762 109.582 106.612C126.209 98.8669 142.825 91.1069 159.43 83.3322C162.582 81.8582 165.786 80.4662 168.964 79.0482C170.764 78.2482 171.35 78.3402 172.238 80.1402C174.238 84.2442 176.152 88.3902 178.02 92.5642C179.398 95.6462 180.68 98.7642 181.962 101.88C182.316 102.766 182.534 103.706 182.82 104.606C182.601 104.769 182.374 104.919 182.138 105.056Z" fill="#191919"/>
<path d="M119.948 117.972C120.616 117.346 133.148 109.772 138.904 106.816C147.852 102.216 156.904 97.8162 165.922 93.3422C168.268 92.1822 168.432 92.0602 169.782 94.1062C170.41 95.0462 171.106 95.9602 171.638 96.9562C172.278 98.1282 171.882 98.9562 170.668 99.5882C164.64 102.724 158.64 105.93 152.612 109.08C144.224 113.458 135.812 117.796 127.412 122.174C126.551 122.746 125.658 123.269 124.738 123.742C124.194 123.942 123.074 123.906 122.87 123.578C121.816 121.886 121 120.06 119.948 117.972ZM165.2 96.3562C163.304 97.1742 161.422 98.0462 159.554 98.9562C148.629 104.161 138.063 110.089 127.926 116.7C127.408 117.042 124.558 119.456 129.672 116.932C137.65 112.568 145.602 108.132 153.62 103.84C157.316 101.862 161.162 100.17 164.914 98.3022C169.086 96.3422 166.4 95.8382 165.2 96.3562Z" fill="#4A8DD0"/>
<path d="M199.31 124.068C199.368 124.791 199.219 125.516 198.881 126.159C198.543 126.801 198.029 127.334 197.4 127.696C194.332 129.634 191.236 131.542 188.03 133.248C183.995 135.617 179.661 137.434 175.142 138.648C174.278 138.938 173.339 138.92 172.487 138.597C171.634 138.274 170.919 137.666 170.464 136.876C167.478 131.774 164.546 126.62 161.864 121.354C161.58 120.817 161.409 120.227 161.362 119.621C161.314 119.016 161.391 118.407 161.588 117.832C161.785 117.257 162.097 116.729 162.506 116.279C162.914 115.83 163.411 115.468 163.964 115.218C169.735 112.298 175.522 109.42 181.326 106.584C183.926 105.316 186.55 104.17 189.168 102.97C190.886 102.18 191.842 102.342 192.7 104.034C193.582 105.894 194.335 107.812 194.952 109.776C196.235 113.527 197.475 117.286 198.674 121.054C198.948 122.044 199.16 123.051 199.31 124.068ZM190.71 104.668C190.335 104.73 189.965 104.82 189.604 104.94C181.544 108.74 173.456 112.522 165.424 116.396C163.282 117.432 162.914 119.11 164.128 121.346C166.379 125.506 168.665 129.648 170.988 133.772C172.706 136.8 173.144 136.936 176.458 135.844C176.563 135.817 176.664 135.776 176.758 135.722C182.922 132.654 189.128 129.626 195.25 126.462C197.174 125.462 197.392 123.924 196.588 121.688C195.114 117.596 193.738 113.488 192.318 109.386C191.8 107.866 191.276 106.34 190.718 104.676L190.71 104.668Z" fill="#191919"/>
<path d="M130.2 127.902C132.778 126.278 135.328 124.614 138 123.168C149.103 117.196 160.227 111.263 171.374 105.368C171.852 105.11 172.384 104.932 172.86 104.7C175.724 103.322 175.562 105.068 173.57 106.2C168.388 108.97 163.15 111.616 157.97 114.384C148.722 119.334 139.504 124.354 130.27 129.332C129.972 129.51 127.012 130.548 130.2 127.902Z" fill="#191919"/>
<path d="M166.836 88.336C160.126 91.8 153.376 95.196 146.678 98.66C136.75 103.802 126.834 109.012 116.92 114.182C116.606 114.344 114.246 114.644 118.024 112.326C126.986 107.43 135.918 102.466 144.974 97.726C151.998 94.056 159.186 90.688 166.318 87.21C166.392 87.176 166.472 87.1569 166.553 87.1538C166.634 87.1506 166.716 87.1636 166.792 87.1918C166.868 87.22 166.938 87.263 166.998 87.3183C167.058 87.3736 167.106 87.4401 167.14 87.514C167.174 87.588 167.193 87.6679 167.196 87.7492C167.199 87.8305 167.186 87.9117 167.158 87.988C167.13 88.0643 167.087 88.1344 167.032 88.1941C166.976 88.2538 166.91 88.302 166.836 88.336Z" fill="#191919"/>
<path d="M152.898 125.814C146.27 129.674 139.136 133.274 135.086 135.306C134.336 134.638 153.948 122.91 152.898 125.814Z" fill="#191919"/>
<path d="M138.782 138.812C140.408 137.742 142.135 136.833 143.938 136.098C146.106 135.32 145.938 137.052 145.002 137.558C142.402 139.016 139.778 140.38 137.132 141.73C136.764 141.908 134.09 142 138.782 138.812Z" fill="#191919"/>
<path d="M147.58 136.316C147.048 136.716 145.942 135.744 147.128 134.87C148.528 133.834 149.938 132.838 151.398 131.912C152.361 131.301 153.369 130.763 154.412 130.302C154.604 130.239 154.809 130.223 155.008 130.256C155.208 130.289 155.397 130.37 155.558 130.492C155.647 130.669 155.689 130.866 155.682 131.063C155.674 131.261 155.617 131.454 155.516 131.624C152.87 133.248 149.6 135.144 147.58 136.316Z" fill="#191919"/>
<path d="M154.452 112.148C153.976 113.704 146.992 117.414 144.278 117.672C145.07 115.872 152.244 111.93 154.452 112.148Z" fill="#191919"/>
<path d="M115.066 110.416C115.242 109.066 115.624 109.066 116.306 109.066C116.566 109.148 116.794 109.306 116.963 109.52C117.131 109.734 117.23 109.994 117.248 110.266C117.506 111.536 116.988 111.866 116.374 111.866C115.61 112.148 115.01 110.812 115.066 110.416Z" fill="#191919"/>
<path d="M311.254 126.046C311.254 127.356 310.626 127.846 309.344 127.902C298.944 128.325 288.544 128.779 278.144 129.266C275.088 129.402 274.144 128.638 273.834 125.364C273.37 120.264 272.943 115.159 272.552 110.048C272 103.2 271.498 96.3561 270.98 89.5101C270.612 84.6941 270.884 84.4081 275.644 84.2041C285.504 83.7821 295.364 83.3321 305.226 82.9081C310.558 82.6761 310.694 82.8801 310.872 88.1081C311.076 94.1181 311.24 119.4 311.254 126.046ZM276.254 127.22C287.22 126.742 298.076 126.278 308.946 125.802V85.0221L272.886 86.6721C274 100.16 275.112 113.6 276.244 127.22H276.254Z" fill="#191919"/>
<path d="M318.51 74.3162C318.482 80.1402 318.66 79.1842 313.45 79.3622C295.802 79.9622 278.158 80.5762 260.518 81.2042C255.132 81.4042 249.744 81.7362 244.358 82.0042C244.031 82.0182 243.704 82.0182 243.376 82.0042C240.524 81.9502 240.538 81.9362 240.442 79.1262C240.388 77.4902 240.28 75.8662 240.224 74.2302C240.169 73.9342 240.18 73.6295 240.257 73.3382C240.334 73.047 240.475 72.7766 240.669 72.5467C240.864 72.3168 241.107 72.1332 241.382 72.0092C241.656 71.8853 241.955 71.8241 242.256 71.8302C245.34 71.5302 248.422 71.0522 251.518 70.8762C271.484 69.7702 291.45 68.6122 311.472 68.7482C313.272 68.7622 315.072 68.8982 316.858 68.8842C317.84 68.8842 318.258 69.3062 318.318 70.2062C318.386 71.6002 318.44 72.9522 318.51 74.3162ZM242.284 80.2902C243.634 80.2902 244.834 80.3442 246.022 80.2762C259.85 79.6082 273.68 78.7902 287.522 78.2762C296.784 77.9362 306.058 78.0182 315.322 77.9502C316.522 77.9362 317.04 77.5262 317.012 76.3502C316.972 74.8222 316.932 73.2962 316.958 71.7682C316.972 70.6622 316.508 70.3682 315.458 70.4722C313.998 70.6222 312.526 70.6502 311.058 70.7042C292.576 71.3322 274.1 71.9549 255.63 72.5722C251.062 72.7362 246.506 73.0222 241.882 73.2682L242.284 80.2902Z" fill="#191919"/>
<path d="M244.726 93.778C244.794 87.232 244.752 87.014 249.172 86.304C253.782 85.568 258.472 85.304 263.138 84.844C264.502 84.708 265.138 85.4579 265.306 86.7259C265.463 87.6367 265.554 88.5579 265.578 89.482C265.668 97.2815 266.375 105.062 267.692 112.75C268.32 117.618 268.892 122.486 269.452 127.35C269.642 128.986 268.988 129.722 267.252 129.846C261.864 130.214 256.476 130.573 251.09 130.924C248.608 131.086 248.336 130.896 248.008 128.324C247.436 123.781 246.931 119.23 246.494 114.672C245.816 107 245.2 99.342 244.726 93.778ZM249.908 129.2C255.65 128.682 261.46 128.15 267.066 127.646C265.906 114.076 262.524 100.834 263.588 86.846C257.914 87.296 252.512 87.7319 246.73 88.2099C247.8 102.124 248.858 115.682 249.908 129.2Z" fill="#191919"/>
<path d="M172.688 120.768C177.221 118.683 181.762 116.616 186.312 114.568C186.67 114.45 187.035 114.349 187.404 114.268C189.626 113.656 188.822 115.292 187.84 115.62C183.338 117.528 178.84 119.384 174.31 121.238C170.968 122.706 172.346 120.932 172.688 120.768Z" fill="#191919"/>
<path d="M175.36 115.558C177.462 114.322 179.66 113.26 181.934 112.38C183.216 111.848 184.702 112.858 182.616 113.636C180.362 114.822 178.045 115.883 175.674 116.814C174.584 117.086 173.642 116.622 175.36 115.558Z" fill="#191919"/>
<path d="M179.562 122.664C179.697 122.301 179.907 121.97 180.177 121.692C180.446 121.414 180.771 121.195 181.13 121.049C181.489 120.903 181.874 120.833 182.261 120.843C182.649 120.854 183.03 120.945 183.38 121.11C182.975 121.724 182.393 122.201 181.712 122.478C181.03 122.756 180.281 122.82 179.562 122.664Z" fill="#191919"/>
<path d="M277.866 96.2458C286.466 95.9058 295.078 95.5778 303.684 95.3198C305.948 97.7998 276.898 98.3338 277.866 96.2458Z" fill="#191919"/>
<path d="M295.61 107C293.278 107.214 290.94 107.359 288.6 107.436C285.878 107.536 283.154 107.568 280.43 107.532C279.844 107.518 278.658 106.454 280.28 106.086C284.276 105.51 288.314 105.281 292.35 105.404C293.81 105.336 295.27 105.362 296.728 105.404C297.016 105.426 298.148 106.762 295.61 107Z" fill="#191919"/>
<path d="M300.042 100.72C298.188 102.192 287.278 102.656 285.914 101.402C287.36 99.9021 297.888 99.3281 300.042 100.72Z" fill="#191919"/>
<path d="M291.068 89.9861C289.172 90.1361 286.554 89.0601 290.96 88.5141C294.424 88.1721 297.902 87.6401 301.38 87.6401C304.08 87.6401 302.948 89.2641 301.338 89.5101C298.788 89.7681 291.928 89.9181 291.068 89.9861Z" fill="#191919"/>
<path d="M302.444 106.762C301.68 106.762 300.916 106.68 300.166 106.72C299.96 106.746 299.751 106.69 299.587 106.563C299.422 106.436 299.315 106.249 299.289 106.043C299.262 105.837 299.319 105.629 299.445 105.464C299.572 105.3 299.76 105.192 299.966 105.166C301.625 104.904 303.307 104.813 304.986 104.894C306.512 104.894 306.294 106.476 305.026 106.584C304.176 106.666 303.316 106.72 302.444 106.762Z" fill="#191919"/>
<path d="M284.618 101.416C283.09 102.78 278.89 102.848 277.73 101.606C278.769 100.995 279.945 100.657 281.15 100.623C282.355 100.59 283.548 100.863 284.618 101.416Z" fill="#191919"/>
<path d="M280.254 88.91C282.051 88.7669 283.856 88.7529 285.654 88.868C288.436 88.8 287.454 89.836 285.914 90.096C283.936 90.422 281.55 90.082 279.53 90.26C278.672 90.246 277.226 89.222 280.254 88.91Z" fill="#191919"/>
<path d="M304.026 99.478C304.418 99.4504 304.812 99.5014 305.184 99.628C305.36 99.7174 305.514 99.8464 305.632 100.005C305.75 100.164 305.83 100.347 305.866 100.542C305.852 100.802 305.334 101.184 304.994 101.238C304.35 101.336 303.693 101.318 303.056 101.184C301.966 101.02 301.802 99.928 302.934 99.584C303.296 99.5295 303.66 99.4941 304.026 99.478Z" fill="#191919"/>
<path d="M295.364 75.0002C287.482 75.3402 279.586 75.6542 271.702 75.9002C269.86 75.9002 270.448 74.4682 271.662 74.3722C279.422 73.7862 287.21 73.6362 294.982 73.3362C297.342 73.2942 297.028 75.0122 295.364 75.0002Z" fill="#191919"/>
<path d="M261.256 76.7302C258.964 77.2482 257.778 75.3802 261.146 75.0262C262.546 74.8762 263.928 74.5882 265.334 74.4802C268.048 74.2622 267.516 76.1162 265.456 76.2942C264.214 76.4162 261.4 76.7022 261.256 76.7302Z" fill="#191919"/>
<path d="M299.974 75.0379C299.73 74.9439 299.416 74.6379 299.416 74.4119C299.443 74.2651 299.507 74.1275 299.602 74.0126C299.697 73.8977 299.821 73.8093 299.96 73.7559C301.233 73.5326 302.517 73.3784 303.806 73.2939C303.977 73.3086 304.14 73.3679 304.281 73.4658C304.421 73.5638 304.533 73.6969 304.606 73.8519C304.601 74.0262 304.553 74.1964 304.465 74.3468C304.377 74.4972 304.252 74.6228 304.102 74.7119C302.747 75.0046 301.358 75.1142 299.974 75.0379Z" fill="#191919"/>
<path d="M251.858 104.498C254.34 104.212 256.822 103.966 259.278 103.544C262.006 103.08 261.528 105.37 259.374 105.426C257.054 105.698 254.722 105.826 252.404 105.93C250.6 106.12 250.058 104.716 251.858 104.498Z" fill="#191919"/>
<path d="M253.29 97.7339C255.055 97.4591 256.836 97.2994 258.622 97.2559C260.56 97.2559 259.918 98.8559 258.936 98.8099C256.646 98.8779 254.336 98.8519 252.05 98.8519C250.8 98.8659 250.8 97.7999 253.29 97.7339Z" fill="#191919"/>
<path d="M252.95 93.5881C251.394 93.5881 250.862 91.9881 252.936 91.6361C254.259 91.3287 255.605 91.128 256.96 91.0361C258.854 91.0361 259.196 93.5321 257.572 93.5741C256.033 93.6755 254.49 93.6802 252.95 93.5881Z" fill="#191919"/>
<path d="M118.816 108.126C118.992 106.776 119.374 106.776 120.056 106.776C120.316 106.857 120.545 107.015 120.713 107.23C120.881 107.444 120.981 107.704 120.998 107.976C121.256 109.244 120.738 109.576 120.124 109.576C119.362 109.844 118.762 108.522 118.816 108.126Z" fill="#191919"/>
<path d="M122.02 106.42C122.198 105.07 122.58 105.07 123.262 105.07C123.522 105.151 123.75 105.31 123.918 105.524C124.086 105.738 124.185 105.998 124.202 106.27C124.462 107.54 123.944 107.87 123.33 107.87C122.58 108.152 121.966 106.816 122.02 106.42Z" fill="#191919"/>
</svg>
