<svg width="560" height="400" viewBox="0 0 560 400" fill="none" xmlns="http://www.w3.org/2000/svg">
<rect width="560" height="400" fill="white"/>
<path d="M104.216 275.544C103.55 275.336 102.798 275.336 102.634 274.586C102.424 273.628 103.258 273.294 103.842 272.962C126.68 259.968 126.534 261.386 126.164 259.136C125.87 257.346 125.862 255.556 125.58 253.764C125.19 251.268 126.04 251.464 138.614 250.516C141.822 250.274 158.394 249.14 158.478 249.142C160.102 249.162 160.722 250.716 159.144 251.516C133.248 264.652 134.396 259.74 136.406 269.09C136.962 271.678 136.656 271.422 104.216 275.544Z" fill="#4A8DD0"/>
<path d="M128.118 199.42C124.454 198.962 124.45 198.916 122.704 202.832C121.034 206.578 121.036 206.546 117.29 204.998C108.37 201.31 91.0538 193.546 90.8878 193.38C89.5978 192.3 89.6798 191.128 91.3458 191.132C121.122 191.174 116.598 195.386 120.372 186.426C121.668 183.346 121.754 184.246 141.11 194.172C151.734 199.62 152.078 199.704 151.77 200.918C151.404 202.368 151.684 202.35 128.116 199.418L128.118 199.42Z" fill="#4A8DD0"/>
<path d="M213.488 125.292C214.244 127.538 214.698 128.13 207.95 129.998C204.328 130.998 209.202 157.586 206.534 157.938C205.202 158.116 205.152 157.986 199.954 145.696C191.696 126.17 191.208 126.828 194.832 125.374C199.62 123.454 200.372 123.792 200.412 121.75C201.108 86.1859 200.274 86.0259 213.488 125.292Z" fill="#4A8DD0"/>
<path d="M165.598 173.224C165.014 177.304 162.612 173.54 147.442 155.9C146.19 154.444 145.488 154.66 140.446 157.19C138.366 158.234 138.274 158.318 130.41 140.408C124.742 127.5 124.13 127.18 125.496 126.332C126.418 125.76 126.294 125.492 144.318 143.822C146.198 145.732 146.442 144.654 150.898 142.906C155.146 141.24 153.854 141.446 165.224 171.846C165.432 172.306 165.724 172.808 165.598 173.224Z" fill="#4A8DD0"/>
<path d="M373.317 129.416C374.251 123.256 380.099 126.084 379.897 121.586C379.127 104.554 392.099 96.2263 400.053 112.006C401.043 113.97 398.881 115.134 397.763 113.34C389.773 100.536 383.803 107.85 382.355 123.084C382.275 123.918 382.811 124.008 383.355 124.124C392.321 126.052 391.265 135.564 384.271 136.66C376.939 137.81 372.705 133.456 373.319 129.414L373.317 129.416Z" fill="#101828"/>
<path d="M418.041 139.036C408.547 138.662 406.801 129.136 413.543 127C419.959 124.97 413.575 120.33 419.997 109.8C423.989 103.26 432.133 103.694 437.071 114.466C437.661 115.754 435.771 117.014 434.655 115.466C433.311 113.6 431.983 110.566 428.783 109.178C423.275 106.788 420.773 114.838 419.621 120.714C418.145 128.248 420.371 126.044 422.245 127.128C428.449 130.708 427.451 138.372 418.039 139.038L418.041 139.036Z" fill="#101828"/>
<path d="M313.892 118.713C313.268 120.463 315.268 120.043 317.14 121.379C322.85 125.453 319.93 131.453 315.266 132.539C305.104 134.905 299.108 124.419 308.186 120.421C309.228 119.963 310.76 120.461 311.226 119.255C311.678 118.087 310.356 111.387 314.6 104.389C318.562 97.8527 326.492 98.0287 331.758 109.011C332.298 110.137 330.592 111.219 329.676 110.301C329.092 109.717 327.938 107.207 325.844 105.263C318.72 98.6427 314.726 108.927 313.892 118.713Z" fill="#101828"/>
<path d="M343 122.252C348.706 120.632 342.696 113.872 349.996 104.928C355.068 98.716 362.136 102.772 365.82 110.342C366.856 112.468 364.612 113.508 363.488 111.632C355.902 98.976 349.424 106.514 348.246 120.668C348.166 121.628 348.706 121.788 349.412 121.958C356.718 123.758 357.114 132.526 349.954 134.202C339.164 136.728 334.338 124.714 343 122.252Z" fill="#101828"/>
<path d="M354.036 259.01C354.026 262.134 353.496 262.664 350.372 262.424C324.018 260.412 323.962 261.09 324.178 257.968C326.06 230.894 325.01 230.866 328.092 231.066C355.03 232.808 354.984 232.106 354.91 234.23C354.24 253.55 354.056 251.886 354.036 259.008V259.01ZM351.746 235.274C351.08 234.608 351.742 235.404 329.842 233.4C327.176 233.156 327.764 234.442 327.426 240.522C326.436 258.388 325.842 258.446 328.05 258.512C349.826 259.172 350.908 261.052 351.038 258.388C352.158 235.482 352.662 236.19 351.746 235.274Z" fill="#4A8DD0"/>
<path d="M400.967 260.01C402.257 235.44 401.425 235.722 404.173 235.69C408.921 235.634 426.535 237.034 429.659 237.19C432.407 237.326 431.435 238.106 430.825 259.928C430.655 266.05 431.283 267.138 428.119 267.05C419.623 266.814 411.123 265.97 402.675 265.092C400.383 264.854 400.967 263.59 400.967 260.01ZM428.577 243.978C428.785 243.978 428.501 242.646 428.661 241.354C428.965 238.898 428.829 239.664 405.633 237.856C403.467 237.688 404.537 237.736 403.051 260.802C402.813 264.51 404.153 261.954 426.371 264.384C428.497 264.616 427.785 264.592 428.577 243.978Z" fill="#4A8DD0"/>
<path d="M310.518 260.261C286.49 258.263 286.284 258.929 286.324 256.679C286.458 248.933 287.67 240.147 287.906 231.235C287.994 227.903 287.86 228.993 315.6 230.569C317.932 230.701 317.242 230.659 315.808 257.179C315.618 260.679 315.556 260.261 310.518 260.261ZM308.062 257.345C313.726 257.553 312.9 257.471 313.226 252.057C314.376 232.945 315.1 233.065 312.768 232.901C289.948 231.295 290.084 230.529 289.948 232.443C289.414 239.859 289.316 247.355 288.49 254.765C288.17 257.639 291.196 255.515 308.062 257.347V257.345Z" fill="#4A8DD0"/>
<path d="M368.152 233.65C394.22 235.074 394.098 234.192 393.972 237.482C392.9 265.384 393.972 265.218 389.974 264.966C382.728 264.51 365.78 263.168 365.112 263.092C362.242 262.768 363.104 262.84 364.57 238.772C364.892 233.482 364.362 233.442 368.152 233.65ZM390.182 261.176C390.254 259.302 390.22 261.176 391.182 239.396C391.302 236.688 391.39 237.77 368.652 235.982C364.946 235.69 367.478 238.23 365.446 259.136C365.32 260.426 365.654 261.11 367.154 261.134C383.642 261.404 390.084 263.798 390.182 261.176Z" fill="#4A8DD0"/>
<path d="M350.954 225.988C327.634 224.238 326.048 225.196 326.342 221.574C326.63 218.034 327.774 203.502 327.924 197.796C328.018 194.256 327.8 194.908 343.666 195.88C357.034 196.7 357.208 196.088 356.908 199.378C354.434 226.536 359.074 225.946 350.952 225.988H350.954ZM333.464 197.546C329.84 197.348 329.95 197.17 329.592 202.794C328.374 221.864 327.594 222.16 330.3 222.2C350.996 222.504 353.174 225.114 353.12 221.576C353.086 219.244 354.16 200.92 354.202 200.38C354.362 198.38 354.366 198.688 333.464 197.546Z" fill="#4A8DD0"/>
<path d="M319.054 199.626C317.846 223.53 318.804 224.24 315.43 224.03C297.148 222.882 297.108 222.512 290.944 222.198C287.488 222.022 288.486 222.072 289.902 201.21C290.318 195.09 289.61 192.92 292.776 193.132C319.262 194.898 319.17 193.964 319.136 196.088C319.08 199.588 319.22 199.628 319.052 199.628L319.054 199.626ZM294.192 195.378C290.694 195.134 293.346 195.784 290.778 218.448C290.518 220.738 290.736 219.736 310.392 221.072C317.722 221.57 314.216 221.772 316.388 199.418C316.708 196.126 316.844 196.958 294.192 195.378Z" fill="#4A8DD0"/>
<path d="M328.134 183.01C329.8 159.274 328.926 159.43 331.716 159.564C353.292 160.61 352.456 160.844 356.244 160.98C359.368 161.094 358.238 161.52 357.202 188.09C357.112 190.422 355.62 190.418 347.04 189.63C326.47 187.744 328.134 190.004 328.134 183.01ZM334.506 161.98C333.34 162.272 331.5 161.146 331.382 163.688C331.072 170.392 330.642 177.098 330.3 183.76C330.096 187.716 329.966 185.74 351.954 187.508C355.618 187.802 354.36 187.924 355.702 164.938C355.826 162.814 355.868 163.52 334.506 161.98Z" fill="#4A8DD0"/>
<path d="M296.275 157.693C321.015 158.849 321.097 158.277 320.929 161.357C319.621 185.097 319.871 181.513 319.805 185.385C319.745 188.967 318.639 188.345 304.897 187.301C290.697 186.221 290.281 186.717 290.489 183.969C290.489 183.929 292.277 160.649 292.279 160.565C292.341 157.565 292.405 157.511 296.277 157.691L296.275 157.693ZM318.097 163.689C318.225 160.357 318.437 161.741 295.985 159.941C292.737 159.681 294.923 161.271 292.653 182.053C292.317 185.135 292.575 183.895 315.391 185.509C317.641 185.669 317.247 185.719 318.097 163.689Z" fill="#4A8DD0"/>
<path fill-rule="evenodd" clip-rule="evenodd" d="M270.578 156.91C283.888 157.516 283.92 157.518 283.784 160.022C282.69 179.878 282.686 180.618 282.676 182.596C282.674 182.982 282.67 183.416 282.66 184.05C282.608 187.17 281.762 187.1 272.466 186.34C271.088 186.228 269.526 186.1 267.752 185.966C265.819 185.82 263.886 185.681 261.952 185.55L259.92 185.408C258.985 184.454 257.976 183.576 256.902 182.782C258.062 183.008 260.102 183.108 263.626 183.278C266.98 183.442 271.678 183.67 278.246 184.134H278.27C278.678 184.164 278.996 184.188 279.25 184.07C280.17 183.648 280.252 181.398 280.626 171.024C280.714 168.592 280.818 165.716 280.952 162.312L280.956 162.2C280.984 161.52 281.004 161.044 280.8 160.702C280.332 159.914 278.688 159.822 273.254 159.522C268.445 159.268 263.64 158.95 258.84 158.566C256.916 158.412 256.9 158.906 256.732 163.656C256.618 166.924 256.432 172.206 255.508 180.676C255.458 181.136 255.422 181.496 255.468 181.786L255.078 181.536C254.568 181.216 254.04 180.906 253.498 180.61L254.13 172.36V172.348V172.34C254.61 166.08 255.134 159.276 255.134 159.23C255.196 156.188 255.258 156.154 259.132 156.356C263.756 156.598 267.518 156.77 270.578 156.91ZM268.902 258.564C270.292 258.676 271.78 258.796 273.372 258.928C273.904 258.928 274.382 258.934 274.808 258.938C278.392 258.974 278.492 258.974 278.662 255.846C278.99 249.79 279.278 245.12 279.502 241.514C280.088 232.002 280.218 229.922 279.388 229.418C279.156 229.276 278.848 229.258 278.454 229.236C275.408 229.064 272.7 228.896 270.29 228.74C270.53 229.564 270.75 230.394 270.946 231.228C272.386 231.336 273.942 231.45 275.622 231.568L275.646 231.57C276.104 231.602 276.44 231.626 276.68 231.792C277.358 232.262 277.24 233.878 276.794 240.078C276.604 242.712 276.354 246.174 276.08 250.724C276.04 251.414 276.016 252.018 275.996 252.546C275.858 256.154 275.856 256.194 270.916 256.012V256.014C270.574 255.977 270.231 255.94 269.888 255.906C269.588 256.798 269.262 257.686 268.902 258.564ZM267.706 221.936C270.362 222.136 273.766 222.372 278.284 222.656C280.896 222.818 280.912 222.43 281.346 211.146C281.474 207.858 281.636 203.646 281.908 198.254C281.928 198.254 281.944 198.254 281.956 198.248C281.998 198.224 281.996 198.122 281.988 197.68C281.98 197.2 281.964 196.324 281.99 194.714V194.688C281.996 194.358 282 194.102 281.898 193.9C281.554 193.212 279.998 193.132 273.172 192.782C270.263 192.635 267.355 192.478 264.448 192.31C264.748 193.07 264.992 193.83 265.184 194.58L268.258 194.766C276.382 195.252 278.614 195.386 279.132 196.398C279.328 196.782 279.28 197.29 279.212 197.992L279.202 198.086C278.508 205.286 278.398 210.146 278.324 213.41C278.24 217.16 278.204 218.802 277.378 219.466C276.738 219.984 275.614 219.906 273.618 219.768L273.206 219.74C270.928 219.585 268.65 219.445 266.37 219.32C266.842 220.178 267.288 221.052 267.706 221.936Z" fill="#4A8DD0"/>
<path d="M403.884 187.342C405.55 163.606 404.676 163.762 407.466 163.896C429.042 164.942 428.206 165.176 431.994 165.312C435.118 165.426 433.988 165.852 432.952 192.422C432.862 194.754 431.37 194.75 422.79 193.962C402.22 192.076 403.884 194.378 403.884 187.342ZM410.256 166.312C409.09 166.604 407.25 165.478 407.132 168.02C406.822 174.724 406.392 181.43 406.05 188.092C405.846 192.048 405.716 190.072 427.704 191.84C431.368 192.134 430.11 192.256 431.452 169.27C431.576 167.146 431.66 167.894 410.256 166.312Z" fill="#4A8DD0"/>
<path d="M401.968 223.072C403.634 199.336 402.76 199.492 405.55 199.626C427.126 200.672 426.29 200.904 430.078 201.042C433.202 201.156 432.072 201.58 431.036 228.152C430.946 230.484 429.454 230.48 420.874 229.692C400.304 227.806 401.968 230.068 401.968 223.072ZM408.34 202C407.174 202.292 405.334 201.166 405.216 203.708C404.906 210.412 404.476 217.118 404.134 223.78C403.93 227.736 403.8 225.758 425.788 227.528C429.452 227.822 428.18 227.944 429.536 204.958C429.658 202.876 429.702 203.582 408.34 202Z" fill="#4A8DD0"/>
<path d="M372.025 162.065C396.759 163.355 396.847 162.649 396.679 165.729C395.371 189.469 395.621 185.885 395.555 189.757C395.495 193.339 394.389 192.717 380.647 191.673C366.447 190.593 366.031 191.089 366.239 188.341C366.239 188.301 368.029 165.021 368.029 164.937C368.195 161.897 368.153 161.861 372.027 162.063L372.025 162.065ZM393.847 168.021C393.975 164.689 394.187 166.073 371.735 164.273C368.487 164.013 370.673 165.603 368.403 186.385C368.067 189.467 368.323 188.241 391.141 189.841C393.431 190.001 392.997 190.051 393.847 168.021Z" fill="#4A8DD0"/>
<path d="M385.143 118.672C385.435 117.88 384.519 116.288 386.475 116.382C417.383 117.852 415.425 117.466 415.085 118.798C414.841 119.758 415.421 121.362 413.335 121.088C406.845 120.238 384.391 120.712 385.143 118.672Z" fill="#101828"/>
<path d="M306.062 115.424C277.286 113.8 279.374 114.218 279.702 113.092C279.956 112.218 279.452 110.722 281.368 110.844C309.434 112.634 309.318 111.968 309.436 112.718C309.568 113.55 309.394 114.426 309.27 115.3C309.27 115.592 306.062 115.508 306.062 115.424Z" fill="#101828"/>
<path d="M374.69 119.088C348.79 117.72 350.248 118.048 350.662 116.756C350.956 115.84 350.246 114.372 352.412 114.508C379.49 116.206 378.972 115.128 378.44 116.674C377.722 118.752 380.064 119.374 374.692 119.09L374.69 119.088Z" fill="#101828"/>
<path d="M344.25 115.091C343.994 115.963 344.834 117.503 342.792 117.381C315.852 115.787 315.656 116.555 316.306 115.049C316.646 114.261 315.806 112.669 317.638 112.759C346.96 114.195 344.614 113.839 344.248 115.091H344.25Z" fill="#101828"/>
<path d="M391.922 227.718L368.276 226.492C366.776 226.4 365.612 225.144 365.704 223.644L366.93 199.998C367.022 198.498 368.278 197.334 369.778 197.426L393.424 198.652C394.924 198.744 396.088 200 395.996 201.5L394.77 225.146C394.755 225.503 394.669 225.853 394.517 226.177C394.366 226.5 394.151 226.79 393.886 227.029C393.621 227.269 393.31 227.453 392.973 227.571C392.636 227.689 392.279 227.739 391.922 227.718Z" fill="#4A8DD0"/>
<path d="M277.452 130.456C267.874 131.17 265.706 120.038 272.996 118.172C274.952 117.672 275.206 116.632 275.286 114.966C275.982 100.476 284.11 96.1478 289.902 100.39C292.066 101.974 297.354 108.006 295.108 109.26C293.024 110.422 293.11 107.052 289.486 103.846C282.7 97.8458 278.754 107.67 277.91 116.672C277.774 118.128 279.242 117.174 281.992 118.92C287.238 122.254 286.324 129.794 277.452 130.456Z" fill="#101828"/>
<path fill-rule="evenodd" clip-rule="evenodd" d="M449.538 119.871C455.714 120.165 455.888 120.173 456.562 120.921C468.022 133.281 469.784 134.621 469.956 136.143C469.992 136.457 469.96 136.779 469.932 137.207L460.936 293.413C460.728 296.787 459.938 297.535 456.522 297.411C431.384 296.211 409.322 295.161 389.956 294.241C254.856 287.817 251.116 287.641 251.26 285.709C251.398 283.773 337.91 288.461 398.584 291.747C429.34 293.413 453.456 294.719 456.314 294.621C457.022 294.579 455.648 291.455 450.9 291.247C341.92 286.109 296.128 283.339 273.244 281.879C274.166 281.321 274.388 280.599 274.082 279.679C291.628 280.611 315.58 281.989 340.224 283.405C394.85 286.547 452.882 289.883 452.108 288.999C451.218 287.987 450.536 287.179 449.73 286.517C444.466 282.205 433.968 284.281 326.302 278.213C307.811 277.173 289.318 276.184 270.822 275.247C270.294 274.673 269.722 274.061 269.11 273.411L268.036 272.265C324.95 274.899 438.848 281.399 445.86 281.835C446.228 281.861 446.524 281.979 446.772 281.913C448.538 281.443 447.79 271.531 452.648 150.617C452.772 147.743 452.73 147.741 449.946 147.617H449.94L448.176 147.549C428.932 146.823 423.316 146.609 249.884 136.623C249.703 136.617 249.521 136.617 249.34 136.623C248.414 136.645 247.302 136.671 247.302 135.499C247.336 134.111 248.47 134.283 249.424 134.427C249.616 134.457 249.8 134.485 249.968 134.499L256.918 134.871C291.778 136.731 432.906 144.267 451.69 145.785C452.892 145.879 452.892 145.877 453.17 137.415C453.258 134.739 453.374 131.217 453.564 126.587C453.646 124.253 452.522 123.031 450.19 122.921C425.108 121.713 422.178 121.821 422.004 121.181C421.97 121.049 422.052 120.885 422.08 120.671C422.098 120.496 422.11 120.32 422.116 120.145C422.162 119.193 422.206 118.241 423.996 118.381C437.364 119.293 445.042 119.657 449.538 119.871ZM242.574 177.117C243.577 156.593 244.613 136.071 245.68 115.551C245.884 111.801 245.888 111.801 249.596 112.077L249.844 112.095C253.598 112.359 257.353 112.601 261.11 112.823C264.868 113.053 268.626 113.283 272.374 113.553C273.788 113.675 273.794 112.937 273.804 112.223C273.804 111.969 273.808 111.719 273.874 111.513C273.958 111.251 274.038 111.055 273.986 110.905C273.786 110.311 271.572 110.403 259.756 109.805C256.11 109.871 253.196 109.707 250.908 109.577C246.058 109.305 244.008 109.189 243.724 111.763C241.884 129.257 240.572 152.683 239.504 176.973C240.524 176.953 241.55 177.005 242.574 177.117ZM249.898 280.501C253.508 280.629 257.278 280.855 263.17 281.233C262.31 280.522 261.46 279.8 260.62 279.067L260.528 278.989C257.514 278.845 254.912 278.729 252.788 278.647C251.842 279.307 250.878 279.925 249.898 280.501ZM460.524 257.221C461.866 234.689 464.064 197.773 467.764 137.413C467.786 137.003 467.848 136.773 467.818 136.555C467.74 135.979 467.03 135.485 463.308 131.915C462.784 131.411 461.262 164.691 459.634 200.361C457.97 236.755 456.194 275.637 455.246 283.665C454.932 286.325 453.794 285.405 453.702 283.331C453.518 279.225 454.238 265.547 456.594 220.699C457.738 198.927 459.268 169.809 461.268 130.875C461.278 130.489 461.304 130.241 461.26 130.007C461.13 129.303 460.38 128.715 456.728 124.877C456.084 124.189 454.982 157.063 453.764 193.353C452.694 225.225 451.534 259.735 450.522 276.461C450.102 283.267 451.848 285.189 455.636 289.357C456.368 290.163 457.176 291.053 458.06 292.079C458.424 292.503 458.466 291.799 460.524 257.221Z" fill="#101828"/>
<path d="M272.205 242.354C272.107 266.174 252.175 286.42 228.313 286.538C201.245 286.672 180.265 266.008 180.465 238.98C180.641 215.16 199.913 194.77 225.981 195.046C251.217 195.312 272.313 216.034 272.205 242.354ZM224.731 197.546C201.911 197.844 183.003 215.87 182.629 239.314C182.253 263.01 201.661 283.85 227.021 283.914C251.257 283.974 270.251 264.842 269.831 240.688C269.419 216.992 249.717 197.218 224.731 197.546Z" fill="#101828"/>
<path d="M254.924 176.93C255.706 177.566 254.844 178.756 254.008 178.18C252.06 176.834 250.22 176.058 249.428 178.18C249.054 179.18 250.136 179.012 250.552 179.222C274.372 189.592 264.33 213.832 259.714 207.29C251.874 196.178 239.006 189.278 225.108 191.716C223.024 192.082 222.558 191.59 222.942 189.426C223.996 183.508 227.862 180.114 233.228 178.182C241.942 175.044 246.666 179.384 247.804 177.14C249.37 174.05 250.462 173.88 253.3 175.808C253.874 176.198 254.418 176.522 254.924 176.932V176.93ZM260.67 204.664C260.748 204.768 260.852 204.85 260.971 204.902C261.09 204.955 261.22 204.976 261.349 204.963C261.479 204.951 261.603 204.905 261.71 204.831C261.817 204.757 261.903 204.657 261.96 204.54C265.434 197.552 261.924 187.456 251.132 182.094C241.308 177.212 228.808 178.708 225.146 188.466C225.101 188.594 225.088 188.731 225.11 188.865C225.131 188.999 225.186 189.125 225.268 189.233C225.351 189.34 225.459 189.425 225.583 189.48C225.707 189.536 225.843 189.559 225.978 189.548C241.702 188.174 250.124 191.672 260.67 204.664Z" fill="#101828"/>
<path d="M166.305 190.924C167.137 190.978 167.351 192.144 166.555 192.464C163.489 193.71 160.191 196.66 162.515 198.294C164.103 199.41 164.515 200.752 165.763 199.002C176.231 184.312 197.161 188.216 196.163 193.006C192.203 211.994 169.007 233.362 164.931 227.154C159.929 219.536 159.521 211.604 163.099 203.376C164.459 200.246 156.595 199.746 160.517 194.672C162.097 192.628 164.263 190.792 166.305 190.924ZM185.753 190.59C166.931 192.256 159.105 209.204 163.849 221.614C166.141 227.61 166.341 228.186 172.095 224.07C182.829 216.392 189.785 205.772 194.083 193.378C194.807 191.288 187.913 190.588 185.755 190.588L185.753 190.59Z" fill="#101828"/>
<path d="M169.554 241.978C169.518 239.272 170.428 229.194 172.678 227.694C173.178 227.36 173.806 226.814 174.344 227.152C175.058 227.602 174.344 228.276 174.22 228.818C166.932 252.346 178.546 274.592 197.04 284.204C198.576 285.002 198.072 286.032 197.748 286.994C197.19 288.654 170 275.708 169.554 241.978Z" fill="#101828"/>
<path d="M210.073 287.454C209.865 291.078 208.641 293.862 205.867 302.362C204.861 305.442 202.619 304.524 199.163 303.944C196.415 303.484 196.605 301.984 200.163 284.58C201.117 279.916 210.655 283.956 210.073 287.454ZM207.949 287.828C208.365 286.078 205.615 285.666 203.785 284.912C202.577 284.414 202.157 284.912 201.911 286.078C200.941 290.636 200.177 295.235 199.621 299.862C199.507 300.822 199.081 301.894 200.703 301.986C202.037 302.062 203.535 302.944 204.077 300.654C204.785 297.656 207.241 292.366 207.949 287.828Z" fill="#101828"/>
<path d="M213.737 184.22C213.717 186.592 209.537 185.72 209.157 187.55C208.829 189.134 211.857 192.61 210.489 193.046C208.521 193.68 208.615 187.216 206.783 187.966C205.867 188.34 206.089 188.434 207.699 193.172C208.067 194.256 206.877 194.666 206.449 193.632C204.743 189.492 204.991 188.424 203.493 189.3C203.409 189.342 203.243 189.384 203.119 189.424C201.953 189.548 200.749 191.17 199.745 190.09C198.501 188.752 198.199 186.746 197.621 185.01C197.425 184.422 198.081 184.056 198.621 183.844C211.185 178.924 211.239 178.556 211.697 179.43C211.749 179.546 213.739 184.09 213.737 184.22ZM200.453 188.382C200.557 188.481 200.689 188.545 200.83 188.567C200.972 188.589 201.116 188.568 201.245 188.506C204.659 187.132 208.025 185.866 211.239 184.3C212.361 183.754 211.277 182.512 210.823 181.72C210.109 180.472 209.971 180.986 200.079 185.05C199.493 185.292 199.187 185.558 199.537 186.3C200.133 187.564 199.881 187.83 200.453 188.382Z" fill="#101828"/>
<path d="M267.623 283.164C265.191 283.164 264.479 282.32 259.419 278C257.959 276.754 259.247 275.634 260.501 276.668C261.827 277.758 263.205 278.878 264.541 279.958C266.867 281.838 273.579 280.956 271.579 279.084C269.041 276.708 266.995 273.84 264.625 271.296C264.083 270.714 263.289 270.084 264.209 269.298C265.039 268.586 265.533 269.472 265.999 270.006C273.655 278.784 279.075 282.08 267.623 283.164Z" fill="#101828"/>
<path d="M224.605 200.502C260.711 201.206 276.037 236.664 260.669 262.218C260.245 262.922 259.797 263.464 258.919 262.968C257.881 262.38 258.511 261.766 258.919 261.136C283.123 223.83 232.517 182.93 199.619 213.538C199.369 213.746 198.063 215.63 196.953 213.704C195.855 211.798 210.863 200.236 224.605 200.502Z" fill="#101828"/>
<path d="M186.461 239.23C186.469 231.942 189.207 223.266 190.667 223.03C191.499 222.896 192.305 223.536 191.625 225.112C181.675 248.15 197.415 274.196 221.025 277.624C244.723 281.066 254.177 265.21 255.589 266.214C256.757 267.044 255.755 268.546 254.547 269.628C227.807 293.61 186.417 274.334 186.459 239.228L186.461 239.23Z" fill="#101828"/>
<path d="M224.358 235.566C224.482 237.482 222.868 237.478 222.36 236.066C219.25 227.426 220.902 232.982 213.782 210.288C213.442 209.208 213.112 208.07 214.24 207.706C215.568 207.278 215.832 208.37 217.446 213.37C219.582 219.988 222.86 229.444 224.358 235.566Z" fill="#101828"/>
<path d="M244.602 259.864C243.26 259.03 240.698 256.786 235.308 252.348C229.484 247.55 228.946 247.068 229.77 246.102C230.614 245.112 231.126 245.408 245.678 258.096C246.88 259.144 246.322 260.932 244.602 259.864Z" fill="#101828"/>
<path d="M225.355 245.768C220.025 245.724 220.857 237.732 225.897 237.898C231.019 238.066 230.311 245.808 225.355 245.768ZM227.353 241.978C227.353 241.936 227.353 241.854 227.395 241.812C227.437 239.106 223.947 239.398 223.771 242.02C223.613 244.394 226.853 244.394 227.353 241.978Z" fill="#101828"/>
</svg>
