<svg width="560" height="400" viewBox="0 0 560 400" fill="none" xmlns="http://www.w3.org/2000/svg">
<rect width="560" height="400" fill="white"/>
<path d="M330.18 253.07C311.282 247.246 285.518 248.89 266.508 252.3C249.406 255.366 244.02 262.11 236.77 278.884C229.725 294.884 225.027 311.817 222.82 329.16C222.696 330.294 224.352 330.398 224.556 329.308C227.284 313.25 231.761 297.539 237.906 282.456C244.192 267.372 248.624 258.16 265.578 254.874C285.61 250.992 317.946 249.14 336.076 257.994C345.64 262.662 349.694 269.218 354.166 278.464C363.966 298.712 370.12 320.882 373.81 336.182C374.068 337.248 375.702 336.726 375.61 335.694C374.388 321.586 362.516 290.132 356.522 277.852C350.362 265.226 344.14 257.374 330.18 253.07Z" fill="#101828"/>
<path d="M251.684 252.526C252.432 253.254 253.734 252.302 253.16 251.392C246.308 240.544 249.56 229.936 253.692 218.728C259.664 202.546 274.368 192.8 291.4 191.872C302.934 191.246 316.378 192.898 325.176 200.946C336.108 210.946 343.856 226.712 343.81 241.65C343.999 244.788 343.058 247.891 341.156 250.394C340.45 251.242 341.78 252.356 342.584 251.664C347.12 247.772 346.464 240.244 345.75 234.924C343.807 222.276 337.967 210.548 329.044 201.376C319.14 191.046 305.226 188.746 291.514 189.626C273.81 190.764 258.9 199.066 252.046 216.142C248.022 226.176 242.692 243.76 251.684 252.526Z" fill="#101828"/>
<path d="M336.69 277.058C335.342 273.11 336.222 272.536 331.722 271.658C309.898 267.406 280.892 266.568 258.988 272.19C256.22 272.902 257.014 273.144 256.46 275.684C253.847 287.175 252.102 298.847 251.242 310.6C251.106 313.516 250.912 314 253.682 313.47C284.724 307.544 311.05 306.91 341.882 313.844C344.82 314.506 345.2 313.3 344.832 310.872C343.128 299.381 340.403 288.065 336.69 277.058ZM253.318 311.31C254.366 298.911 256.322 286.606 259.17 274.494C278.134 269.81 305.75 268.642 333.422 274.494C337.227 286.636 340.22 299.018 342.382 311.558C314.448 305.174 281.456 304.4 253.318 311.31Z" fill="#101828"/>
<path d="M329.532 291.678C326.366 289.31 311.114 288.478 307.042 289.806C305.762 285.394 304.456 280.994 303.176 276.582C303.079 276.401 302.935 276.251 302.758 276.145C302.582 276.04 302.381 275.985 302.176 275.985C301.971 275.985 301.77 276.04 301.594 276.145C301.418 276.251 301.273 276.401 301.176 276.582C298.871 282.589 296.913 288.723 295.312 294.954C293.216 290.994 291.36 286.912 289.642 282.774C289.555 282.57 289.409 282.396 289.223 282.273C289.038 282.151 288.82 282.086 288.598 282.086C288.376 282.086 288.159 282.151 287.973 282.273C287.787 282.396 287.642 282.57 287.554 282.774C286.754 284.986 285.954 287.198 285.354 289.476C279.594 289.33 270.078 289.794 264.754 291.746C264.565 291.791 264.402 291.909 264.298 292.073C264.194 292.237 264.158 292.435 264.197 292.625C264.237 292.815 264.349 292.983 264.509 293.092C264.67 293.201 264.867 293.243 265.058 293.21C271.403 292.164 277.829 291.696 284.258 291.81C287.15 291.84 286.858 291.678 288.658 286.378C290.437 290.511 292.422 294.553 294.614 298.502C294.719 298.783 294.932 299.012 295.205 299.137C295.479 299.262 295.79 299.273 296.072 299.168C297.398 298.674 296.314 297.168 302.072 280.628C302.912 283.554 303.766 286.478 304.612 289.406C305.596 292.806 305.496 292.042 309.148 291.674C320.58 290.522 327.748 293.238 329.416 293.182C330.292 293.094 330.2 292.176 329.532 291.678Z" fill="#101828"/>
<path d="M132.826 283.364C132.754 283.107 132.587 282.887 132.359 282.748C132.132 282.609 131.86 282.562 131.599 282.615C131.338 282.668 131.106 282.818 130.951 283.035C130.796 283.252 130.728 283.519 130.762 283.784C132.088 289.918 135.004 295.595 139.216 300.247C143.428 304.898 148.79 308.361 154.762 310.288C172.908 316.142 198.814 304.72 211.81 291.474C211.979 291.323 212.081 291.112 212.094 290.887C212.107 290.661 212.029 290.439 211.879 290.271C211.729 290.102 211.517 290 211.292 289.987C211.066 289.974 210.845 290.051 210.676 290.202C197.066 300.694 176.45 312.874 158.506 308.746C152.301 307.296 146.617 304.157 142.085 299.678C137.553 295.198 134.348 289.552 132.826 283.364Z" fill="#101828"/>
<path d="M213.736 306.32C206.282 311.72 204.97 313.974 195.68 318.738C193.302 315.65 191.493 312.163 190.338 308.44C190.106 307.818 187.872 307.04 189.5 312.114C190.393 314.884 191.755 317.481 193.526 319.792C185.14 323.854 175.93 325.93 166.612 325.86C165.991 323.186 165.675 320.451 165.672 317.706C165.672 317.184 165.762 312.726 164.084 314.416C162.406 316.106 163.8 323.922 164.356 325.758C152.683 325.277 141.597 320.506 133.224 312.358C136.247 310.334 138.737 307.611 140.482 304.42C140.505 304.297 140.495 304.17 140.455 304.051C140.414 303.933 140.344 303.827 140.25 303.744C140.157 303.661 140.043 303.603 139.921 303.576C139.799 303.55 139.672 303.555 139.552 303.592C137.806 304.306 134.096 310.216 131.318 310.392C126.161 304.679 122.266 297.943 119.886 290.624C119.566 289.658 117.962 290.148 118.184 291.134C123.056 312.666 143.828 327.696 165.468 328.312C181.708 328.774 204.186 320.18 215.098 307.58C215.892 306.772 214.566 305.72 213.736 306.32Z" fill="#101828"/>
<path d="M434.384 287.946C439.272 276.104 432.034 261.012 426.922 250.36C426.252 248.96 424.244 250.292 424.904 251.664C429.704 261.664 436.468 275.928 432.196 286.824C425.366 304.244 399.18 299.3 386.83 291.688C386.002 291.178 385.166 292.488 385.888 293.088C398.4 303.78 427.248 305.24 434.384 287.946Z" fill="#101828"/>
<path d="M439.216 244.496C438.458 243.124 436.5 244.496 437.186 245.824C441.216 253.642 445.352 261.396 447.676 269.924C445.488 272.924 442.676 272.852 439.33 273.134C438.116 273.236 437.22 275.702 442.29 275.176C444.499 274.945 446.6 274.104 448.358 272.748C451.386 286.79 447.984 300.172 436.812 309.596C432.672 307.646 431.372 304.844 429.282 300.932C428.96 300.332 426.312 299.07 427.58 301.976C429.163 305.602 431.613 308.784 434.714 311.242C425.482 317.854 415.092 318.376 404.314 316.742C405.734 312.691 406.001 308.325 405.086 304.13C405.014 304.001 404.906 303.895 404.775 303.825C404.645 303.756 404.497 303.725 404.349 303.737C404.202 303.749 404.061 303.803 403.943 303.893C403.826 303.983 403.736 304.105 403.686 304.244C403.186 306.194 403.856 313.76 401.886 316.344C396.22 315.441 390.736 313.634 385.644 310.992C384.658 310.468 383.514 311.716 384.51 312.308C403.388 323.524 425.04 321.824 437.35 312.308C460.902 294.104 451.106 266.03 439.216 244.496Z" fill="#101828"/>
<path d="M295.362 202.34C271.068 202.34 260.202 209.508 260.202 219.14C260.202 228.772 278.54 233.868 295.362 232.998C314.516 231.998 327.288 226.84 326.572 217.398C325.856 207.956 312.532 202.34 295.362 202.34ZM277.442 219.352C275.026 219.862 275.116 212.152 278.076 212.174C280.538 212.186 279.404 218.99 277.442 219.398V219.352ZM311.242 218.99C309.054 219.19 308.6 212.072 311.412 212.19C314.224 212.308 314.158 218.802 311.242 219.042V218.99Z" fill="#101828"/>
<path d="M131.466 275.516C137.636 272.736 147.646 266.516 143.022 257.176C142.662 256.448 141.222 256.882 141.434 257.776C143.46 266.646 138.338 268.494 131.046 272.86C128.902 267.86 121.792 267.586 117.346 270.26C102.896 264.238 105.312 251.502 105.29 244.696C105.29 243.926 103.95 243.562 103.724 244.448C100.238 258.048 105.992 268.128 115.236 272.086C114.625 272.784 114.144 273.587 113.818 274.456C103.974 273.056 97.7361 266.606 94.2761 257.512C93.8881 256.492 92.2761 257.082 92.4761 258.126C94.4381 268.15 103.612 275.326 113.412 276.906C113.438 277.615 113.624 278.309 113.956 278.936C103.386 281.466 98.2481 278.018 91.6701 270.918C91.1241 270.33 89.6181 270.826 90.0941 271.656C95.9461 281.856 107.412 283.722 115.906 280.99C116.512 281.373 117.164 281.677 117.846 281.896C110.646 287.93 104.358 286.45 96.2981 284.754C95.3901 284.564 94.6481 285.898 95.6161 286.332C104.584 290.332 114.898 288.894 120.942 282.51C125.046 282.888 131.102 280.222 131.466 275.516Z" fill="#101828"/>
<path d="M420.752 244.86C419.12 252.118 441.166 243.102 435.984 238.168C437.482 233.054 438.874 223.73 430.314 225.442C427.682 225.933 425.086 226.601 422.544 227.442C421.506 227.8 422.012 229.356 423.054 229.242C427.654 228.748 432.994 226.242 434.204 228.698C435.204 230.738 434.204 235.174 433.556 237.362C431.398 237.363 429.264 237.816 427.291 238.691C425.319 239.566 423.551 240.845 422.102 242.444C411.502 240.924 407.254 237.908 403.48 227.802C403.128 226.86 401.562 227.122 401.756 228.12C404.034 239.904 412.37 243.374 420.752 244.86Z" fill="#101828"/>
<path d="M415.784 212.672C416.402 213.884 420.584 214.154 416.584 209.52C412.748 205.868 408.496 202.678 403.916 200.016C403.116 199.666 402.546 200.764 403.032 201.354C405.628 204.514 413.836 208.844 415.784 212.672Z" fill="#101828"/>
<path d="M419.096 224.6C422.17 222.332 426.108 220.364 429.734 221.65C433.134 222.86 432.616 219.638 430.472 219.28C428.211 218.929 425.9 219.095 423.712 219.765C421.524 220.435 419.516 221.592 417.838 223.148C417.646 223.315 417.527 223.551 417.509 223.806C417.491 224.06 417.575 224.311 417.741 224.503C417.908 224.696 418.145 224.814 418.399 224.832C418.653 224.85 418.904 224.767 419.096 224.6Z" fill="#101828"/>
<path d="M410.8 220.748C410.142 221.564 411.31 222.528 412.092 221.962C415.481 219.076 419.681 217.313 424.114 216.914C424.406 216.839 424.658 216.658 424.822 216.405C424.986 216.153 425.049 215.848 424.999 215.551C424.948 215.254 424.788 214.987 424.55 214.803C424.312 214.619 424.014 214.531 423.714 214.556C418.761 214.835 414.119 217.061 410.8 220.748Z" fill="#101828"/>
<path d="M338.526 207.784C346.16 216.166 348.304 230.672 348.526 235.934C366.824 228.278 356.934 205.924 338.526 207.784Z" fill="#101828"/>
<path d="M243.656 237.976C242.974 231.998 244.914 219.364 252.468 209.292C230.294 209.292 226.644 234.154 243.656 237.976Z" fill="#101828"/>
<path d="M222.82 310.934C226.341 296.652 231.344 282.777 237.746 269.534C219.986 265.954 205.082 297.268 222.82 310.934Z" fill="#101828"/>
<path d="M357.364 273.69C363.964 285.87 372.2 306.456 373.992 319.056C392.036 307.782 384.188 274.688 357.364 273.69Z" fill="#101828"/>
<path d="M365.384 128.212C364.476 128.19 363.584 129.56 364.584 129.686C405.95 134.972 432.122 145.112 454.67 153.924C459.932 185.544 463.394 216.208 466.748 247.956C466.908 249.476 469.348 249.578 469.176 247.956C464.466 203.056 457.25 147.868 447.104 103.182C446.848 102.05 445.268 102.512 445.448 103.582C448.1 119.456 451.516 135.214 454.204 151.114C432.128 141.096 390.652 128.842 365.384 128.212Z" fill="#4A8DD0"/>
<path d="M365.326 225.228C365.43 226.702 367.744 226.804 367.652 225.306C366.709 210.106 365.658 194.916 364.498 179.736C397.174 183.99 424.898 188.536 455.752 201.736C457.102 202.314 457.498 200.706 456.152 200.09C430.816 188.42 397.06 179.93 364.294 177.6C361.936 146.23 359.468 109.666 355.074 76.3318C354.96 75.4698 353.442 75.6058 353.532 76.4798C356.132 101.814 358.306 133.72 360.552 160.09C309.516 149.418 244.788 148.906 194.332 164.626C194.114 164.695 193.932 164.848 193.827 165.05C193.722 165.253 193.701 165.49 193.77 165.708C193.839 165.926 193.992 166.108 194.195 166.213C194.398 166.318 194.634 166.339 194.852 166.27C243.836 154.67 301.236 149.962 360.734 162.46C362.283 183.39 363.814 204.313 365.326 225.228Z" fill="#4A8DD0"/>
<path d="M225.384 230.672C201.252 231.872 144.45 241.09 115.758 257.562C114.864 258.076 115.758 259.582 116.698 259.128C148.206 243.886 191.442 234.742 225.758 233.042C227.29 232.966 226.904 230.6 225.384 230.672Z" fill="#4A8DD0"/>
<path d="M130.468 105.2C123.668 151.46 117.034 205.242 113.364 255.01C113.28 256.144 114.924 256.144 115.02 255.09C119.42 206.674 126.112 155.074 132.894 105.382C133.112 103.784 130.692 103.68 130.468 105.2Z" fill="#4A8DD0"/>
<path d="M136.626 102.274C233.594 53.8539 344.932 52.8159 441.79 100.674C443.118 101.33 443.99 99.2079 442.676 98.5539C346.676 50.8699 231.348 51.2219 135.876 100.436C134.744 101 135.468 102.852 136.626 102.274Z" fill="#4A8DD0"/>
<path d="M397.6 235.628C387.016 233.068 369.618 231.444 358.902 233.2C357.938 233.358 358.12 234.892 359.084 234.902C373.226 235.052 382.776 234.902 396.93 237.782C398.318 238.066 399.024 235.974 397.6 235.628Z" fill="#4A8DD0"/>
<path d="M200.524 83.652C200.64 82.234 198.458 81.768 198.334 83.198C196.23 107.784 193.64 133.1 192.2 159.64C192.2 160.582 193.774 160.682 193.856 159.754C196.122 134.284 198.504 108.176 200.524 83.652Z" fill="#4A8DD0"/>
<path d="M469.306 252.56C462.982 249.734 451.532 246.146 444.66 246.56C443.708 246.616 443.776 247.972 444.66 248.16C453.816 250.22 459.292 250.724 468.398 254.67C468.537 254.73 468.686 254.762 468.837 254.764C468.988 254.766 469.137 254.738 469.277 254.682C469.418 254.626 469.545 254.544 469.653 254.438C469.761 254.333 469.848 254.208 469.907 254.069C469.967 253.931 469.999 253.782 470.001 253.631C470.003 253.48 469.975 253.33 469.919 253.19C469.864 253.05 469.781 252.922 469.676 252.814C469.57 252.706 469.445 252.62 469.306 252.56Z" fill="#4A8DD0"/>
<path d="M211.252 169.11C209.948 169.128 210.294 171.844 210.288 173.646C210.288 174.43 210.104 175.898 211.354 175.734C212.408 175.594 212.194 174.282 212.194 173.578C212.2 172.036 212.49 169.092 211.252 169.11Z" fill="#4A8DD0"/>
<path d="M230.862 171.162C230.964 169.734 231.084 168.294 231.112 166.864C231.13 165.9 229.728 165.31 229.252 166.864C228.99 168.236 228.856 169.629 228.852 171.026C228.853 171.281 228.951 171.526 229.126 171.712C229.3 171.898 229.539 172.011 229.793 172.028C230.048 172.045 230.299 171.966 230.498 171.805C230.696 171.644 230.826 171.415 230.862 171.162Z" fill="#4A8DD0"/>
<path d="M349.336 168.236C349.235 169.557 349.209 170.882 349.256 172.206C349.315 172.436 349.455 172.636 349.65 172.772C349.844 172.907 350.081 172.967 350.317 172.942C350.553 172.917 350.772 172.809 350.934 172.636C351.096 172.463 351.19 172.237 351.2 172C351.245 170.767 351.211 169.533 351.098 168.304C351.036 166.614 349.358 166.716 349.336 168.236Z" fill="#4A8DD0"/>
<path d="M313.552 163.688C313.405 165.575 313.379 167.47 313.474 169.36C313.524 170.178 315.424 170.948 315.378 167.76C315.358 166.376 315.292 164.992 315.232 163.61C315.222 163.387 315.123 163.178 314.958 163.027C314.793 162.877 314.576 162.799 314.353 162.809C314.13 162.819 313.921 162.918 313.77 163.083C313.62 163.247 313.542 163.465 313.552 163.688Z" fill="#4A8DD0"/>
<path d="M191.8 173.25C191.462 175.204 191.314 177.187 191.358 179.17C191.358 179.918 193.268 180.61 193.388 178.252C193.472 176.63 193.588 174.996 193.57 173.362C193.55 173.149 193.455 172.951 193.301 172.802C193.148 172.654 192.946 172.565 192.733 172.551C192.52 172.538 192.309 172.601 192.138 172.729C191.967 172.857 191.847 173.042 191.8 173.25Z" fill="#4A8DD0"/>
<path d="M294.636 162.6C294.582 162.425 294.469 162.275 294.315 162.176C294.161 162.077 293.977 162.036 293.796 162.06C293.615 162.084 293.448 162.171 293.325 162.307C293.202 162.443 293.132 162.617 293.126 162.8C293.126 162.8 292.764 167.416 293.512 168.04C294.26 168.664 295.29 168.54 295.1 166.418C294.986 165.13 294.8 163.87 294.636 162.6Z" fill="#4A8DD0"/>
<path d="M334.2 166.66C334.346 165.778 333 165.06 332.476 166.46C332.144 167.836 332.243 169.282 332.76 170.6C333.428 171.96 334.914 171.45 334.54 169.954C334.126 168.908 334.008 167.768 334.2 166.66Z" fill="#4A8DD0"/>
<path d="M273.426 161.908C271.838 161.908 272.52 166.036 272.7 167.136C273.088 169.484 275.138 169.756 274.652 166.626C274.288 164.29 274.652 161.908 273.426 161.908Z" fill="#4A8DD0"/>
<path d="M251.356 163.36C250.222 163.382 250.414 165.06 250.392 166.672C250.374 167.93 249.992 170.142 251.356 170.072C252.72 170.002 252.356 168.178 252.308 166.672C252.26 165.166 252.524 163.338 251.356 163.36Z" fill="#4A8DD0"/>
<path d="M373.276 105.088C399.106 109.262 414.038 112.976 438.128 123.97C439.512 124.604 440.396 122.53 439.068 121.828C422.7 113.146 392.818 103.828 373.606 102.932C373.32 102.888 373.029 102.96 372.796 103.131C372.562 103.302 372.407 103.559 372.363 103.845C372.319 104.131 372.391 104.422 372.562 104.656C372.733 104.889 372.99 105.044 373.276 105.088Z" fill="#4A8DD0"/>
<path d="M436.426 108.6C419.846 99.764 391.948 91.47 373.038 90.452C371.712 90.382 371.304 92.348 372.688 92.55C397.35 96.15 413.074 100.41 435.416 110.698C435.678 110.752 435.951 110.717 436.191 110.599C436.431 110.48 436.624 110.285 436.74 110.043C436.856 109.802 436.888 109.529 436.832 109.268C436.775 109.006 436.632 108.771 436.426 108.6Z" fill="#4A8DD0"/>
<path d="M374.83 116.474C373.618 116.406 373.322 118.438 374.558 118.628C399.256 122.448 418.416 126.2 441.802 136.684C443.188 137.306 444.402 135.252 443.002 134.62C423.538 125.88 396.47 117.682 374.83 116.474Z" fill="#4A8DD0"/>
<path d="M312.748 140.292C320.148 140.292 342.948 143.218 347.906 144.828C348.224 141.606 348.008 135.686 347.906 132.182C341.986 130.182 320.608 127.102 312.656 127.282C312.85 130.684 312.532 136.956 312.748 140.292Z" fill="#4A8DD0"/>
<path d="M331.188 83.7542C330.487 83.215 329.625 82.9268 328.741 82.9357C327.856 82.9447 327 83.2503 326.31 83.8035C325.62 84.3568 325.135 85.1257 324.934 85.9871C324.733 86.8485 324.827 87.7525 325.2 88.5542L272.076 133.09C271.236 132.476 270.206 132.179 269.168 132.252C268.13 132.325 267.151 132.764 266.406 133.49C258.387 128.467 250.687 122.952 243.348 116.978C244.04 114.154 242 110.728 238.87 111.238C238.14 111.411 237.458 111.749 236.877 112.224C236.296 112.7 235.831 113.302 235.518 113.984C235.204 114.666 235.049 115.411 235.066 116.161C235.083 116.912 235.27 117.649 235.614 118.316C228.214 126.662 220.87 134.916 213.316 143.154C210.47 142.246 206.516 145.806 208.19 148.824C210.462 152.916 217.854 148.96 215.108 144.57C221.994 137.97 230.772 127.48 237.36 119.914C238.171 120.096 239.01 120.106 239.825 119.945C240.639 119.783 241.411 119.452 242.09 118.974C249.437 124.921 257.125 130.435 265.114 135.486C263.582 141.656 274.3 141.848 273.2 135.236L326.72 90.3582C330.872 92.9522 334.814 86.6002 331.188 83.7542Z" fill="#4A8DD0"/>
<path d="M213.442 91.466C234.352 85.356 248.306 81.944 270.398 81.906C271.952 81.906 272.282 79.472 270.716 79.478C252.456 79.544 229.734 82.538 212.614 89.55C211.352 90.066 212.2 91.83 213.442 91.466Z" fill="#4A8DD0"/>
<path d="M167.656 197.066C158.626 198.542 149.931 201.615 141.978 206.14C141.106 206.642 142.148 207.806 142.942 207.456C154.142 202.51 157.106 201.98 168.018 199.232C170.732 198.55 170.268 196.544 167.656 197.066Z" fill="#4A8DD0"/>
<path d="M214.758 208.148C216.22 208.07 215.982 205.81 214.53 205.878C207.159 206.045 199.856 207.327 192.868 209.678C191.95 210.018 192.268 211.602 193.268 211.402C200.319 209.674 207.512 208.585 214.758 208.148Z" fill="#4A8DD0"/>
<path d="M136.184 208.068C136.133 207.325 135.818 206.625 135.296 206.094C134.773 205.564 134.077 205.238 133.335 205.176C132.593 205.115 131.853 205.321 131.25 205.758C130.647 206.195 130.221 206.833 130.048 207.558C128.58 213.732 136.874 213.918 136.184 208.068Z" fill="#4A8DD0"/>
<path d="M130.83 191.078C129.458 197.652 140.448 194.878 136.5 190.034C136.158 189.526 135.675 189.13 135.111 188.892C134.546 188.655 133.925 188.588 133.323 188.698C132.721 188.809 132.164 189.094 131.721 189.516C131.278 189.939 130.969 190.482 130.83 191.078Z" fill="#4A8DD0"/>
<path d="M128.414 225.42C128.238 230.332 135.316 229.958 135.356 225.488C135.309 224.604 134.927 223.772 134.288 223.16C133.65 222.548 132.801 222.203 131.917 222.194C131.032 222.185 130.177 222.514 129.527 223.113C128.876 223.713 128.478 224.538 128.414 225.42Z" fill="#4A8DD0"/>
<path d="M171.728 180.338C169.074 178.69 146.566 186.234 142.874 188.356C141.844 188.956 142.796 190.536 143.862 190.136C152.183 186.668 160.892 184.217 169.8 182.834C172.91 182.34 172.134 180.6 171.728 180.338Z" fill="#4A8DD0"/>
<path d="M234.366 189.898C227.402 188.436 200.07 191.752 193.094 194.526C192.164 194.896 192.392 196.576 193.458 196.326C206.87 193.409 220.563 191.975 234.288 192.05C234.516 191.982 234.717 191.845 234.863 191.657C235.009 191.469 235.092 191.24 235.1 191.002C235.109 190.764 235.043 190.53 234.911 190.332C234.779 190.134 234.589 189.982 234.366 189.898Z" fill="#4A8DD0"/>
<path d="M141.56 222.63C141.386 222.755 141.264 222.939 141.217 223.147C141.17 223.356 141.201 223.575 141.304 223.762C141.408 223.949 141.576 224.092 141.778 224.164C141.979 224.235 142.2 224.23 142.398 224.15C153.918 219.062 159.398 218.618 168.484 216.302C169.708 215.99 169.428 214.056 168.234 214.204C161.24 215.07 146.87 219.028 141.56 222.63Z" fill="#4A8DD0"/>
<path d="M385.582 188.764C382.108 188.17 378.592 187.859 375.068 187.834C374.24 187.902 373.408 187.834 373.492 188.968C373.692 191.68 373.932 194.368 374.274 197.078C374.392 197.996 375.942 198.02 375.942 197.078C375.942 194.606 375.772 192.144 375.682 189.678C378.882 190.006 382.066 190.528 385.282 190.664C385.489 190.625 385.678 190.522 385.825 190.371C385.971 190.22 386.067 190.027 386.1 189.819C386.133 189.612 386.101 189.399 386.008 189.21C385.915 189.021 385.767 188.865 385.582 188.764Z" fill="#4A8DD0"/>
<path d="M455.424 210.188C453.522 208.404 448.164 207.172 445.772 206.956C445.575 206.941 445.379 206.999 445.222 207.12C445.066 207.241 444.959 207.416 444.924 207.611C444.889 207.806 444.927 208.007 445.031 208.175C445.135 208.343 445.298 208.467 445.488 208.522C448.364 209.043 451.132 210.043 453.676 211.482C453.652 213.376 453.751 215.27 453.972 217.152C454.136 218.416 455.842 217.934 455.842 217.244C455.614 215.362 455.493 213.468 455.48 211.572C455.544 211.028 455.82 210.562 455.424 210.188Z" fill="#4A8DD0"/>
<path d="M448.766 239.53C451.098 239.823 453.383 240.414 455.566 241.288C456.45 241.734 457.336 241.832 457.46 240.766C457.584 239.7 457.79 234.966 456.622 234.366C454.806 233.414 455.488 237.144 455.488 239.072C453.388 238.081 451.063 237.662 448.75 237.858C448.542 237.88 448.35 237.979 448.212 238.135C448.073 238.291 447.997 238.493 447.999 238.701C448.001 238.91 448.081 239.111 448.222 239.264C448.364 239.417 448.558 239.512 448.766 239.53Z" fill="#4A8DD0"/>
<path d="M377.814 224.978C380.614 225.39 383.484 225.778 386.252 226.044C386.491 226.047 386.724 225.966 386.909 225.813C387.094 225.661 387.219 225.448 387.261 225.212C387.303 224.977 387.26 224.733 387.14 224.526C387.02 224.319 386.83 224.162 386.604 224.082C383.517 223.458 380.39 223.057 377.246 222.882C377.246 221.374 377.446 215.192 376.51 214.262C376.325 214.115 376.09 214.045 375.854 214.069C375.619 214.092 375.402 214.207 375.25 214.388C374.538 215.228 375.316 221.09 375.364 222.972C375.4 224.286 375.522 224.64 377.814 224.978Z" fill="#4A8DD0"/>
<path d="M386.116 168.52C400.202 170.998 400.536 144.668 385.05 142.254C372.726 140.332 372.4 166.11 386.116 168.52Z" fill="#4A8DD0"/>
<path d="M416.534 175.858C430.29 178.638 429.088 154.026 416.534 150.306C404.932 146.868 402.788 173.08 416.534 175.858Z" fill="#4A8DD0"/>
<path d="M444.15 184.046C455.978 188.236 453.666 164.482 442.55 160.4C431.434 156.318 430.242 179.12 444.15 184.046Z" fill="#4A8DD0"/>
<path d="M168.8 162.27C176.21 157.076 181.601 149.485 184.066 140.778C184.88 137.818 182.65 136.928 181.798 140.472C179.472 148.416 174.552 155.351 167.824 160.172C155.074 168.282 141.024 162.142 137.918 147.322C137.038 142.378 137.419 137.291 139.027 132.533C140.636 127.776 143.418 123.5 147.118 120.104C148.354 118.956 147.06 117.176 145.984 118.152C138.114 125.296 133.466 137.578 135.784 148.23C139.172 163.884 154.554 171.264 168.8 162.27Z" fill="#4A8DD0"/>
<path d="M174.6 111.45C172.186 115.204 161.74 140.53 161 142.196C163.732 141.494 178.624 137.898 184.42 136.016C186.064 123.552 180.472 113.378 174.6 111.45Z" fill="#4A8DD0"/>
<path d="M148.83 115.612C148.92 116.486 156.83 141.886 157.83 142.344C159.052 142.896 172.13 110.744 171.564 110.418C167.11 107.89 155.544 109.352 148.83 115.612Z" fill="#4A8DD0"/>
</svg>
