<svg width="560" height="400" viewBox="0 0 560 400" fill="none" xmlns="http://www.w3.org/2000/svg">
<rect width="560" height="400" fill="white"/>
<path d="M185.394 304.908C172.732 316.518 156.788 332.144 158.874 333.606C160.062 334.446 174.35 319.66 188.034 306.542L185.394 304.908Z" fill="#4A8DD0"/>
<path d="M127.428 305.904C127.2 301.592 130.316 298.868 131.302 301.33C132.288 303.792 134.262 304.292 135.25 302.81C135.376 302.496 135.436 302.158 135.425 301.82C135.413 301.481 135.332 301.148 135.184 300.843C135.037 300.538 134.828 300.266 134.57 300.047C134.312 299.827 134.011 299.663 133.686 299.566C133.332 299.524 133 299.372 132.737 299.132C132.473 298.892 132.291 298.576 132.216 298.228C132.14 297.879 132.175 297.516 132.316 297.189C132.456 296.861 132.695 296.586 133 296.4C136.692 294.27 142.944 294.458 142.496 296.882C142.08 299.128 132.306 309.378 131.52 310.164C128.724 312.96 127.616 309.506 127.428 305.904Z" fill="#4A8DD0"/>
<path d="M129.44 295.348C129.441 296.442 129.019 297.493 128.264 298.284C127.509 299.075 126.479 299.544 125.386 299.594C124.186 299.552 123.043 299.069 122.177 298.237C121.311 297.405 120.782 296.282 120.692 295.084C120.784 289.358 129.444 289.828 129.442 295.348H129.44Z" fill="#4A8DD0"/>
<path d="M165.452 336.21C164.742 337.562 166.006 338.292 167.168 337.236C173.482 331.502 186.72 318.696 194.968 310.842L193.02 309.482C182.6 318.402 166.96 333.34 165.452 336.21Z" fill="#4A8DD0"/>
<path d="M163.444 289.804C150.91 301.334 135.616 316.39 137.666 317.824C138.826 318.636 152.502 304.532 165.898 291.648L163.444 289.804Z" fill="#4A8DD0"/>
<path d="M144.24 320.426C143.53 321.778 144.794 322.51 145.958 321.454C151.952 316.018 164.162 304.222 172.438 296.314L170.546 294.786C160.168 303.782 145.688 317.67 144.24 320.426Z" fill="#4A8DD0"/>
<path fill-rule="evenodd" clip-rule="evenodd" d="M132.214 272.048C115.774 280.886 99.198 291.258 90.634 300.72C89.086 302.43 90.074 302.958 96.91 306.612C107.962 312.516 134.296 326.588 189.908 367.022C191.456 368.15 191.586 368.02 194.248 365.346C197.808 361.776 205.888 353.668 227.908 337.954L230.084 336.404C229.034 335.728 227.9 334.994 226.672 334.198C209.9 345.966 200.3 353.652 191.8 363.032C190.734 364.21 187.798 361.894 181.352 356.812C170.65 348.376 150.272 332.31 112.712 311.926C97.352 303.588 94.216 302.494 94.306 301.83C94.33 301.654 94.58 301.508 94.89 301.266C106.176 292.33 118.023 284.128 130.36 276.71L135.434 274.168C134.308 273.428 133.234 272.722 132.214 272.048Z" fill="#4A8DD0"/>
<path fill-rule="evenodd" clip-rule="evenodd" d="M234.212 79.2803C228.598 80.5183 224.988 81.3743 224.992 81.4083C120.706 105.286 110.028 106.648 108.828 110.772C108.678 111.286 108.676 111.844 108.658 112.494C108.202 128.73 110.366 194.724 111.698 235.318C111.93 242.412 112.138 248.73 112.298 253.872C112.458 258.782 112.518 258.824 143.778 279.306C148.82 282.61 154.676 286.448 161.474 290.922C237.674 341.08 241.894 344.514 244.538 343.562C244.756 343.484 244.964 343.374 245.198 343.26C246.75 342.51 408.102 254.072 408.55 251.384C408.61 251.02 408.674 250.7 408.674 250.382C408.68 247.156 402.31 243.918 322.524 194.132C319.252 192.096 315.958 190.096 312.642 188.132C304.27 183.144 303.256 182.54 303.268 178.438L303.276 176.59C303.308 169.646 303.396 150.386 302.972 130.11C302.116 130.38 301.253 130.626 300.384 130.846C300.572 142.358 300.61 153.098 300.638 160.38C300.652 164.354 300.662 167.3 300.692 168.772C300.922 180.52 301.074 182.222 300.364 182.738C300.214 182.846 300.028 182.902 299.798 182.988C288.872 187.032 213.852 216.94 213.158 217.218C125.472 252.224 116.07 256.79 115.128 255.444C114.926 255.154 115.112 254.592 115 254C114.684 252.352 111.47 138.54 111.47 138.484C111.37 131.602 111.192 126.404 111.06 122.462C110.646 110.282 110.64 110.102 114.524 109.306C127.138 106.72 147.674 101.91 170.478 96.5683C191.248 91.7043 213.898 86.3983 234.154 81.9303C234.15 81.0403 234.168 80.1563 234.212 79.2803ZM180.036 298.3C212.416 319.714 243.678 340.388 245.24 339.434L245.234 339.428C260.56 330.072 307.952 304.028 347.28 282.418C379.11 264.928 405.656 250.34 405.642 249.852L405.638 249.79C405.572 249.14 404.05 248.636 350.974 215.23C306.034 186.954 303.572 184.232 301.928 184.66C301.784 184.698 301.648 184.76 301.488 184.83C289.892 189.978 200.1 225.438 142.492 248.188L117.788 257.946C131.368 266.114 156.008 282.41 180.036 298.3Z" fill="#101828"/>
<path fill-rule="evenodd" clip-rule="evenodd" d="M234.86 90.1162C228.25 91.7457 221.657 93.4398 215.08 95.1982C215.094 95.2482 204.472 97.7202 190.426 100.99C169.778 105.796 141.726 112.324 129.192 115.41C123.592 116.79 123.28 117.182 123.252 123.024C123.208 134.234 123.252 136.36 124.622 184.24C125.962 231.218 125.56 234.862 127.156 236.328C127.352 236.506 127.576 236.652 127.836 236.84L127.942 236.916C130.678 238.916 131.014 239.162 290.168 176.47C291.284 176.03 292.092 175.794 292.666 175.292C294.746 173.482 293.806 168.206 293.566 137.254C293.558 136.272 293.53 134.492 293.476 132.152C292.758 132.244 292.044 132.322 291.332 132.386C291.474 138.444 291.57 145.24 291.606 152.864C291.69 170.48 291.904 172.82 290.944 173.502C290.758 173.634 290.526 173.702 290.242 173.81C144.23 228.616 129.428 236.556 128.25 234.888C128.03 234.572 128.292 233.914 128.25 233.162L127.464 204.19C126.568 171.162 125.224 121.69 125.228 121.656C125.244 120.564 125.198 119.828 125.484 119.256C126.414 117.392 130.86 117.278 152.428 112.236C170.224 108.067 188.011 103.857 205.788 99.6082C216.736 97.0002 226.592 94.6502 235.34 92.5962C235.16 91.7762 235 90.9502 234.86 90.1162Z" fill="#101828"/>
<path d="M225.087 311.001C223.249 310.183 208.595 301.011 204.385 298.389C201.673 296.699 197.473 302.355 347.207 225.021C349.381 223.897 348.511 223.957 365.589 233.883C370.511 236.743 376.461 232.343 279.973 282.743C228.227 309.777 228.545 309.757 225.087 311.001ZM339.063 249.331C337.663 248.165 337.435 248.255 324.997 240.131C323.437 239.111 324.617 239.341 268.269 267.243C283.607 278.843 282.893 278.825 284.835 277.793L339.063 249.331ZM226.799 287.955C243.599 300.051 242.385 300.011 244.243 299.041C281.011 279.817 280.273 280.225 280.927 279.641C264.917 268.207 266.223 268.271 264.267 269.241L226.799 287.955ZM364.655 235.895C348.491 226.939 349.349 226.671 347.227 227.783C343.103 229.941 346.713 228.011 327.273 237.941C342.317 248.091 341.567 248.055 342.725 247.441L364.655 235.895ZM207.619 297.637C224.927 308.673 224.893 308.637 224.943 308.673C225.855 309.505 225.211 309.163 240.685 300.951C225.207 290.151 224.597 288.273 219.663 291.309C215.891 293.629 211.687 295.233 207.619 297.637Z" fill="#101828"/>
<path d="M182.646 269.727C170.486 275.359 170.374 276.037 168.164 274.577C148.878 261.835 145.524 261.551 150.282 259.459C182.182 245.441 227.578 226.187 298.3 195.945C300.036 195.201 299.1 195.225 317.95 205.323C320.2 206.531 326.468 203.103 182.646 269.727ZM175.522 251.091C176.822 252.275 180.704 254.617 191.87 262.425C193.206 263.359 192.27 263.319 232.946 244.239C217.474 232.135 217.774 232.973 216.582 233.491L175.522 251.091ZM298.2 214.021C283.464 204.453 284.936 204.233 282.978 205.083L251.072 218.801C252.34 220.013 251.092 218.835 264.898 228.455C266.14 229.327 265.258 229.263 298.2 214.021ZM262.234 230.643C259.718 228.585 255.31 225.583 249.332 221.027C247.682 219.771 248.532 219.597 228.028 228.627C225.568 229.545 223.17 230.627 220.856 231.869C225.798 235.423 230.602 238.869 235.394 242.343C236.428 243.083 235.682 243.001 262.238 230.643H262.234ZM151.558 261.243C171.368 273.623 170.218 273.567 171.85 272.785C179.18 269.275 181.43 268.239 189.85 264.291C184.004 259.951 180.032 257.403 175.632 253.861C172.432 251.271 172.902 252.211 151.562 261.237L151.558 261.243ZM314.8 206.401C299.4 197.319 300.212 197.683 298.938 198.233C286.894 203.433 290.994 201.599 286.91 203.501C301.364 212.815 300.246 213.129 301.542 212.531L314.8 206.401Z" fill="#101828"/>
<path d="M197.81 293.27C196.588 292.608 197.78 293.31 176.038 279.702C174.518 278.752 173.838 279.354 190.506 271.482C325.274 207.846 322.186 207.866 326.462 210.466C347.726 223.392 349.816 218.59 329.444 228.644C243.758 270.928 205.33 289.892 197.81 293.27ZM225.044 257.706C241.48 268.228 240.978 270.21 243.522 268.946L286.412 247.696C270.938 236.86 271.18 235.878 267.602 237.606C256.156 243.136 249.218 246.272 225.044 257.706ZM180 279.128C181.2 280.084 187.8 284.076 198.102 290.674C199.25 291.41 198.446 291.398 238.922 271.15C233.546 267.11 228.362 263.236 223.216 259.318C221.734 258.188 180.062 279.1 180 279.128ZM315.77 233.242C299.53 222.522 300.97 222.012 299.328 222.778C272.488 235.378 273.208 234.424 274.728 235.512C289.696 246.27 288.994 246.452 290.198 245.858L315.77 233.242ZM302.61 221.278C319.344 230.782 318.064 232.162 320.23 231.078L340.218 221.238C322.474 211.116 323.436 211.164 322.032 211.91C317.426 214.356 311.132 217.254 302.61 221.278Z" fill="#101828"/>
<path d="M346.278 270.544C330.386 261.798 330.314 262.17 330.878 261.012C331.542 259.63 331.648 259.87 347.546 268.498C350.222 269.95 350.214 271.458 347.6 272.942C332.195 281.685 316.699 290.266 301.114 298.682C286.69 306.456 286.596 306.99 283.94 305.282C269.39 295.944 269.59 295.766 270.186 294.882C270.842 293.908 270.798 293.782 284.834 302.99C287.164 304.518 285.482 304.232 315.316 287.66C334.674 276.906 345.366 271.282 346.278 270.544Z" fill="#101828"/>
<path d="M191.268 133.88C190.56 110.152 190.32 110.434 193.98 109.228C197.64 108.022 199.6 107.6 229 101.376C233.624 100.396 233.788 97.6702 234.86 140.066C235.016 146.224 232.06 143.126 197.33 154.698C190.702 156.904 191.812 152.182 191.268 133.88ZM193.968 132.106C193.968 152.494 193.202 152.8 196.038 152.306C199.038 151.79 200.466 150.684 229.942 142.838C235.278 141.418 231.704 141.422 231.438 105.404C231.414 102.164 231.39 102.952 211.72 107.302C193.936 111.238 193.2 110.588 193.15 114C193.068 120.044 193.558 126.068 193.968 132.106Z" fill="#101828"/>
<path d="M211.179 127.108C207.567 128.04 203.905 128.766 200.211 129.282C198.811 129.482 198.461 128.934 198.843 127.498C201.633 116.986 217.369 125.528 211.179 127.108Z" fill="#101828"/>
<path d="M203.624 121.344C198.878 121.302 199.184 113.824 205.004 113.852C209.704 113.876 209.506 121.4 203.624 121.344Z" fill="#101828"/>
<path d="M227.05 109.344C229.77 109.444 230.25 111.484 214.838 113.82C213.65 114 209.8 112.444 227.05 109.344Z" fill="#101828"/>
<path d="M223.892 114.22C224.87 114.26 225.552 114.106 225.658 114.88C225.752 115.586 225.14 115.834 224.602 115.96C215.372 118.092 214.72 118.398 214.492 117.16C214.264 115.92 215.612 116 223.892 114.22Z" fill="#101828"/>
<path d="M205.878 146.068C203.648 145.434 204.124 145.348 202.364 146.802C202.206 146.933 202.014 147.017 201.81 147.044C201.607 147.072 201.399 147.042 201.212 146.957C201.025 146.873 200.865 146.738 200.75 146.567C200.636 146.397 200.571 146.197 200.564 145.992C200.48 143.672 200.708 144.102 198.778 142.872C198.605 142.762 198.467 142.606 198.378 142.421C198.289 142.236 198.254 142.03 198.276 141.826C198.298 141.623 198.377 141.429 198.503 141.267C198.629 141.106 198.798 140.983 198.99 140.912C201.17 140.112 200.83 140.464 201.402 138.252C201.453 138.053 201.56 137.872 201.709 137.73C201.857 137.588 202.043 137.491 202.245 137.45C202.446 137.408 202.655 137.424 202.848 137.495C203.041 137.566 203.21 137.69 203.336 137.852C204.77 139.676 204.336 139.464 206.608 139.324C206.813 139.311 207.018 139.356 207.199 139.453C207.38 139.551 207.53 139.697 207.633 139.875C207.735 140.054 207.786 140.257 207.778 140.463C207.771 140.668 207.707 140.867 207.592 141.038C206.296 142.964 206.364 142.482 207.206 144.608C207.281 144.799 207.3 145.007 207.263 145.209C207.225 145.411 207.132 145.598 206.994 145.75C206.856 145.901 206.679 146.011 206.482 146.068C206.284 146.124 206.075 146.124 205.878 146.068Z" fill="#4A8DD0"/>
<path d="M239.542 120.556C240.014 136.324 239.056 140.386 244.762 138.484C260.514 133.236 268.678 131.492 272.858 130.242L270.286 128.962C247.386 135.098 246.146 136.002 243.658 136.432C241.218 136.858 241.878 136.592 241.878 119.032C241.524 113.832 241.1 108.642 241.164 103.43L239.344 102.3C239.014 104.81 239.22 109.84 239.542 120.556Z" fill="#4A8DD0"/>
<path d="M246.07 115.06C245.74 116.3 246.048 116.766 247.248 116.6C247.854 116.516 248.46 116.426 249.064 116.326L246.662 113.516C246.407 114.007 246.209 114.525 246.07 115.06Z" fill="#4A8DD0"/>
<path d="M252.132 131.06C250.222 130.514 250.634 130.426 249.102 131.694C248.965 131.806 248.799 131.877 248.624 131.9C248.449 131.923 248.271 131.896 248.11 131.824C247.949 131.751 247.811 131.635 247.712 131.488C247.613 131.342 247.557 131.171 247.55 130.994C247.478 129.01 247.69 129.378 246.014 128.312C245.865 128.217 245.745 128.082 245.669 127.923C245.592 127.764 245.562 127.586 245.581 127.41C245.6 127.234 245.668 127.067 245.777 126.928C245.886 126.789 246.032 126.683 246.198 126.622C248.064 125.942 247.78 126.254 248.278 124.332C248.321 124.161 248.412 124.005 248.54 123.883C248.667 123.76 248.827 123.676 249 123.639C249.173 123.603 249.353 123.616 249.519 123.676C249.685 123.737 249.831 123.843 249.94 123.982C251.166 125.546 250.78 125.382 252.762 125.25C252.938 125.24 253.114 125.279 253.27 125.363C253.425 125.447 253.554 125.573 253.642 125.726C253.73 125.88 253.773 126.054 253.767 126.231C253.761 126.408 253.706 126.579 253.608 126.726C252.502 128.376 252.544 127.954 253.274 129.8C253.339 129.965 253.356 130.144 253.325 130.318C253.293 130.492 253.214 130.653 253.095 130.784C252.976 130.915 252.824 131.01 252.654 131.059C252.484 131.108 252.302 131.108 252.132 131.06Z" fill="#4A8DD0"/>
<path d="M140.26 197.864C139.602 175.126 139.688 175.178 143.36 173.718C147.25 172.17 150.08 171.504 180.98 163.258C186.33 161.83 186.08 161.08 186.546 201.046C186.622 207.646 186.946 204.486 149.922 219.614C138.696 224.2 140.968 222.418 140.26 197.864ZM143.16 197.78C143.654 218.98 142.368 219.032 144.92 218.71C146.352 218.53 147.17 218.026 152.46 215.974C185.72 203.072 184.704 205.688 184.472 200.488C182.806 163.388 184.956 164.308 180.992 165.414C168.948 168.766 151.566 173.502 145.152 175.358C141.714 176.354 142.662 176.49 143.16 197.78Z" fill="#101828"/>
<path d="M163.514 189.6C163.278 190.816 163.038 190.722 152.942 193.56C149.886 194.42 147.988 194.908 148.614 192.63C151.2 183.2 164.05 186.832 163.514 189.6Z" fill="#101828"/>
<path d="M153.516 185.672C148.516 185.582 149.77 177.54 155.896 177.672C161.086 177.8 159.726 185.786 153.516 185.672Z" fill="#101828"/>
<path d="M166.218 176.948C164.488 177.072 164.534 175.842 165.72 175.422C185.494 168.454 185.45 172.6 166.218 176.948Z" fill="#101828"/>
<path d="M167.132 181.056C165.194 181.084 165.406 179.878 166.378 179.378C169.616 178.173 172.956 177.263 176.358 176.658C177.03 176.502 181.618 177.664 167.132 181.056Z" fill="#101828"/>
<path d="M154.584 211.67C152.352 211.034 152.828 210.95 151.07 212.404C150.911 212.533 150.72 212.615 150.517 212.642C150.314 212.669 150.108 212.639 149.92 212.556C149.733 212.472 149.573 212.338 149.458 212.168C149.343 211.998 149.278 211.799 149.27 211.594C149.186 209.274 149.414 209.704 147.484 208.476C147.355 208.393 147.245 208.284 147.16 208.156C147.076 208.028 147.018 207.884 146.993 207.733C146.967 207.582 146.972 207.427 147.01 207.278C147.047 207.129 147.114 206.989 147.208 206.868C147.335 206.706 147.505 206.584 147.698 206.514C149.876 205.714 149.538 206.064 150.098 203.854C150.149 203.655 150.255 203.474 150.404 203.332C150.553 203.191 150.739 203.094 150.94 203.054C151.142 203.01 151.351 203.025 151.545 203.096C151.738 203.166 151.907 203.291 152.032 203.454C153.466 205.278 153.032 205.066 155.306 204.926C155.512 204.911 155.717 204.955 155.898 205.052C156.08 205.15 156.23 205.297 156.33 205.476C156.433 205.654 156.483 205.858 156.476 206.063C156.468 206.268 156.403 206.468 156.288 206.638C154.994 208.564 155.06 208.084 155.904 210.21C155.979 210.4 155.999 210.608 155.962 210.809C155.925 211.01 155.833 211.197 155.696 211.348C155.559 211.5 155.382 211.61 155.186 211.667C154.99 211.724 154.781 211.725 154.584 211.67Z" fill="#4A8DD0"/>
<path d="M166.422 208.22C164.19 207.584 164.668 207.5 162.908 208.954C162.749 209.083 162.557 209.165 162.355 209.192C162.152 209.219 161.945 209.189 161.758 209.106C161.571 209.022 161.411 208.888 161.296 208.718C161.181 208.548 161.116 208.349 161.108 208.144C161.026 205.824 161.254 206.254 159.324 205.026C159.194 204.944 159.082 204.836 158.997 204.708C158.911 204.58 158.853 204.436 158.827 204.284C158.801 204.132 158.807 203.977 158.846 203.828C158.884 203.678 158.953 203.539 159.048 203.418C159.175 203.257 159.344 203.135 159.536 203.064C161.716 202.264 161.376 202.614 161.948 200.404C161.999 200.205 162.105 200.025 162.253 199.884C162.402 199.742 162.587 199.645 162.788 199.604C162.989 199.562 163.198 199.577 163.391 199.648C163.584 199.719 163.754 199.842 163.88 200.004C165.314 201.828 164.88 201.616 167.154 201.476C167.36 201.461 167.565 201.505 167.747 201.602C167.929 201.7 168.079 201.847 168.18 202.026C168.283 202.204 168.333 202.408 168.326 202.613C168.318 202.819 168.253 203.018 168.138 203.188C166.842 205.114 166.91 204.632 167.752 206.76C167.828 206.952 167.848 207.16 167.811 207.363C167.774 207.565 167.681 207.753 167.542 207.905C167.404 208.057 167.225 208.167 167.027 208.223C166.829 208.278 166.62 208.278 166.422 208.22Z" fill="#4A8DD0"/>
<path d="M240.87 164.144C241.086 145.144 240.01 144.398 243.524 143.242C252.552 140.272 252.55 140.396 272.898 135.042C279.008 133.442 278.088 131.082 278.828 168.042C278.924 168.99 278.688 169.942 278.162 170.737C277.635 171.531 276.85 172.119 275.94 172.4C273.54 173.42 245.124 184.46 244.868 184.512C240.48 185.378 241.682 185.884 240.9 169.138C240.802 167.052 240.854 165.598 240.87 164.144ZM243.27 163.944C243.654 182.524 242.41 183.23 246.01 181.804C277.566 169.318 277.31 171.444 277.11 167.484C275.51 135.684 277.758 135.642 274.124 136.644L245.034 144.644C242 145.482 242.916 146.664 243.274 163.936L243.27 163.944Z" fill="#101828"/>
<path d="M254.856 154.472C256.576 154.472 260.128 155.672 259.898 157.252C259.726 158.428 259.17 158.364 251.048 160.592C249.146 161.118 248.344 161.392 247.866 160.76C247.02 159.632 248.97 154.47 254.856 154.472Z" fill="#101828"/>
<path d="M252.04 153.678C247.682 153.738 248.6 146.826 253.576 146.854C257.748 146.878 257.062 153.6 252.04 153.678Z" fill="#101828"/>
<path d="M272.624 141.8C274.164 141.864 274.004 142.816 272.872 143.256C269.37 144.552 265.777 145.589 262.124 146.36C261.024 146.572 260.56 145.446 261.788 145.028C265.332 143.737 268.951 142.659 272.624 141.8Z" fill="#101828"/>
<path d="M262.386 148.43C271.468 144.948 272.464 146.978 270.73 147.63C259.818 151.69 261.4 148.81 262.386 148.43Z" fill="#101828"/>
<path d="M253.106 176.064C251.202 175.518 251.608 175.45 250.106 176.69C249.971 176.803 249.807 176.875 249.633 176.899C249.459 176.923 249.281 176.897 249.121 176.826C248.961 176.754 248.824 176.638 248.726 176.492C248.628 176.346 248.573 176.176 248.568 176C248.498 174.02 248.69 174.386 247.044 173.34C246.896 173.246 246.777 173.113 246.701 172.955C246.624 172.797 246.594 172.621 246.613 172.446C246.632 172.272 246.699 172.106 246.807 171.968C246.914 171.83 247.059 171.725 247.224 171.664C249.086 170.982 248.798 171.282 249.282 169.392C249.326 169.223 249.416 169.069 249.543 168.948C249.67 168.827 249.828 168.744 250 168.708C250.171 168.672 250.35 168.685 250.514 168.745C250.679 168.805 250.823 168.91 250.932 169.048C252.15 170.608 251.782 170.424 253.732 170.304C253.907 170.293 254.082 170.332 254.236 170.415C254.391 170.498 254.519 170.623 254.606 170.776C254.693 170.928 254.736 171.102 254.73 171.277C254.723 171.453 254.668 171.623 254.57 171.768C253.466 173.416 253.526 172.998 254.242 174.816C254.307 174.98 254.325 175.158 254.294 175.332C254.262 175.505 254.183 175.666 254.064 175.796C253.946 175.926 253.793 176.02 253.623 176.068C253.454 176.115 253.274 176.114 253.106 176.064Z" fill="#4A8DD0"/>
<path d="M263.212 172.274C261.308 171.728 261.714 171.658 260.212 172.9C260.077 173.012 259.913 173.084 259.739 173.107C259.566 173.131 259.389 173.105 259.229 173.033C259.069 172.961 258.932 172.846 258.834 172.701C258.736 172.556 258.681 172.386 258.674 172.21C258.602 170.23 258.796 170.594 257.15 169.55C257.001 169.457 256.881 169.323 256.804 169.165C256.727 169.006 256.697 168.829 256.715 168.654C256.734 168.479 256.802 168.313 256.91 168.174C257.019 168.036 257.165 167.93 257.33 167.87C259.192 167.19 258.904 167.49 259.388 165.602C259.432 165.432 259.522 165.278 259.649 165.157C259.776 165.036 259.934 164.952 260.106 164.916C260.277 164.88 260.456 164.893 260.62 164.953C260.785 165.013 260.93 165.118 261.038 165.256C262.256 166.816 261.888 166.632 263.838 166.512C264.013 166.501 264.188 166.54 264.343 166.623C264.497 166.706 264.626 166.831 264.713 166.984C264.8 167.136 264.843 167.31 264.836 167.485C264.83 167.661 264.774 167.831 264.676 167.976C263.572 169.624 263.632 169.208 264.348 171.026C264.414 171.19 264.433 171.369 264.402 171.542C264.371 171.716 264.291 171.877 264.173 172.008C264.054 172.138 263.901 172.232 263.731 172.28C263.561 172.327 263.381 172.325 263.212 172.274Z" fill="#4A8DD0"/>
<path d="M196.61 158.2C200.766 156.492 223.908 150.536 229.56 149.054C234.038 147.88 233.444 147.23 234.16 184.524C234.24 188.704 233.442 188.184 205.442 198.856C201.398 200.396 194.616 204.73 194.578 198.788C194.328 162.562 192.176 160.024 196.61 158.2ZM196.576 180.08C196.922 199.734 195.746 200.212 199.244 198.96C202.232 197.89 199.16 198.732 229.814 187.454C234.262 185.818 231.45 185.274 231.502 152.654C231.502 149.712 231.68 150.468 214.648 155.144C194.954 160.544 196.182 159.402 196.062 163.144C195.88 168.8 196.476 174.432 196.576 180.08Z" fill="#101828"/>
<path d="M208.55 169.97C212.73 169.97 215.916 173.04 213.192 173.994C209.671 175.249 206.061 176.238 202.392 176.952C199.664 177.468 201.974 169.984 208.55 169.97Z" fill="#101828"/>
<path d="M210.368 165.072C210.256 169.344 202.832 171.172 202.862 166.108C202.888 161.648 210.502 159.974 210.368 165.072Z" fill="#101828"/>
<path d="M216.71 161.38C215.054 161.494 214.992 160.432 216.072 160.014C230.362 154.464 235.222 156.982 216.71 161.38Z" fill="#101828"/>
<path d="M217.372 165.168C215.624 165.208 215.8 163.924 216.856 163.54C217.912 163.156 225.894 160.486 226.234 161.718C226.556 162.878 224 163.564 217.372 165.168Z" fill="#101828"/>
<path d="M207.728 191.848C205.824 191.302 206.23 191.232 204.728 192.472C204.592 192.584 204.429 192.655 204.255 192.679C204.081 192.702 203.904 192.677 203.744 192.605C203.584 192.533 203.447 192.418 203.349 192.273C203.251 192.127 203.196 191.957 203.19 191.782C203.12 189.806 203.312 190.168 201.666 189.122C201.518 189.028 201.399 188.895 201.323 188.737C201.247 188.579 201.216 188.403 201.235 188.228C201.254 188.054 201.321 187.888 201.429 187.75C201.537 187.612 201.681 187.507 201.846 187.446C203.708 186.764 203.42 187.066 203.906 185.176C203.95 185.007 204.04 184.853 204.167 184.732C204.293 184.611 204.451 184.528 204.622 184.492C204.794 184.456 204.972 184.469 205.136 184.529C205.301 184.588 205.445 184.693 205.554 184.83C206.774 186.39 206.404 186.206 208.354 186.086C208.529 186.075 208.704 186.113 208.859 186.196C209.014 186.279 209.142 186.404 209.23 186.556C209.317 186.709 209.36 186.883 209.354 187.058C209.348 187.234 209.292 187.404 209.194 187.55C208.088 189.198 208.148 188.782 208.864 190.6C208.928 190.764 208.946 190.942 208.914 191.115C208.882 191.288 208.803 191.448 208.684 191.578C208.566 191.708 208.414 191.802 208.245 191.85C208.076 191.898 207.896 191.897 207.728 191.848Z" fill="#4A8DD0"/>
<path d="M217.834 188.056C215.93 187.51 216.336 187.44 214.834 188.682C214.699 188.794 214.536 188.865 214.363 188.889C214.19 188.913 214.013 188.888 213.854 188.817C213.694 188.746 213.557 188.632 213.458 188.488C213.36 188.344 213.304 188.175 213.296 188C213.224 186.02 213.418 186.386 211.772 185.34C211.623 185.246 211.504 185.112 211.428 184.954C211.351 184.796 211.321 184.619 211.339 184.444C211.358 184.27 211.425 184.104 211.534 183.965C211.642 183.826 211.787 183.721 211.952 183.66C213.814 182.98 213.526 183.28 214.01 181.392C214.054 181.223 214.144 181.069 214.271 180.948C214.398 180.827 214.556 180.744 214.728 180.708C214.899 180.672 215.078 180.685 215.242 180.745C215.407 180.805 215.552 180.91 215.66 181.048C216.878 182.608 216.51 182.424 218.46 182.302C218.635 182.292 218.81 182.331 218.964 182.414C219.119 182.498 219.247 182.623 219.334 182.775C219.421 182.928 219.464 183.101 219.457 183.277C219.451 183.452 219.396 183.623 219.298 183.768C218.194 185.414 218.254 184.998 218.97 186.816C219.034 186.979 219.051 187.157 219.019 187.33C218.987 187.502 218.907 187.662 218.789 187.791C218.67 187.92 218.518 188.013 218.349 188.06C218.18 188.107 218.002 188.106 217.834 188.056Z" fill="#4A8DD0"/>
<path d="M227.522 184.686C225.618 184.14 226.026 184.07 224.522 185.312C224.387 185.424 224.223 185.496 224.049 185.519C223.876 185.543 223.699 185.517 223.539 185.445C223.379 185.374 223.242 185.258 223.145 185.113C223.047 184.967 222.992 184.797 222.986 184.622C222.914 182.642 223.106 183.008 221.46 181.962C221.312 181.868 221.193 181.734 221.117 181.576C221.041 181.418 221.011 181.242 221.03 181.067C221.049 180.893 221.116 180.727 221.224 180.589C221.332 180.451 221.477 180.346 221.642 180.286C223.502 179.604 223.216 179.904 223.7 178.014C223.744 177.845 223.835 177.691 223.961 177.571C224.088 177.45 224.246 177.367 224.417 177.331C224.588 177.296 224.766 177.308 224.931 177.368C225.095 177.428 225.24 177.533 225.348 177.67C226.566 179.23 226.198 179.046 228.148 178.924C228.323 178.914 228.498 178.953 228.652 179.036C228.806 179.12 228.934 179.245 229.021 179.397C229.109 179.549 229.152 179.723 229.146 179.898C229.14 180.074 229.085 180.244 228.988 180.39C227.884 182.036 227.942 181.62 228.658 183.438C228.723 183.601 228.741 183.78 228.71 183.953C228.679 184.126 228.599 184.287 228.481 184.418C228.362 184.548 228.209 184.642 228.04 184.689C227.87 184.737 227.691 184.736 227.522 184.686Z" fill="#4A8DD0"/>
<path d="M140.35 122.238C142.788 121.114 142.406 121.306 177.398 113.73C180.014 113.164 181.88 113.024 182.12 115.79C183.11 127.19 183.45 142.376 183.56 153.808C183.608 158.74 184.16 157.584 150.896 167.096C145.806 168.552 138.764 172.324 138.716 166.066C138.4 123.876 136.836 123.856 140.35 122.238ZM140.89 145.698C141.196 167.366 140.09 167.136 143.142 166.762C144.982 166.534 149.384 164.562 178.498 156.842C183.91 155.408 180.298 155.222 180.298 117.916C180.298 114.572 180.362 115.16 160.568 119.702C135.9 125.362 140.514 118.822 140.89 145.698Z" fill="#101828"/>
<path d="M160.428 139.2C160.228 140.528 159.746 140.426 149.356 142.47C147.194 142.894 145.556 143.124 146.078 141.106C148.428 132.154 160.896 136.186 160.428 139.2Z" fill="#101828"/>
<path d="M151.174 134.458C146.396 134.478 146.54 126.794 152.574 126.658C157.488 126.542 157.556 134.43 151.174 134.458Z" fill="#101828"/>
<path d="M163.152 126.638C161.328 126.654 161.3 125.484 162.616 125.062C180.3 119.386 183.734 123.028 163.152 126.638Z" fill="#101828"/>
<path d="M163.694 130.844C162.15 130.694 162.178 129.394 163.446 129.026C174.82 125.728 175.38 127.762 173.46 128.72C170.254 129.638 166.991 130.347 163.694 130.844Z" fill="#101828"/>
<path d="M151.494 160.53C149.262 159.896 149.74 159.81 147.98 161.264C147.822 161.395 147.63 161.479 147.426 161.506C147.223 161.534 147.016 161.503 146.828 161.419C146.641 161.335 146.481 161.2 146.366 161.029C146.252 160.859 146.187 160.659 146.18 160.454C146.098 158.136 146.326 158.564 144.396 157.338C144.223 157.228 144.084 157.072 143.995 156.887C143.906 156.702 143.87 156.495 143.892 156.291C143.914 156.087 143.993 155.893 144.12 155.731C144.246 155.57 144.415 155.446 144.608 155.376C146.788 154.576 146.448 154.926 147.02 152.716C147.072 152.517 147.178 152.337 147.327 152.196C147.476 152.054 147.661 151.957 147.862 151.915C148.063 151.874 148.272 151.889 148.464 151.96C148.657 152.031 148.826 152.154 148.952 152.316C150.386 154.14 149.952 153.93 152.226 153.788C152.432 153.775 152.636 153.82 152.817 153.917C152.998 154.015 153.149 154.161 153.251 154.339C153.353 154.518 153.404 154.721 153.397 154.926C153.389 155.132 153.325 155.331 153.21 155.502C151.914 157.428 151.982 156.946 152.824 159.072C152.898 159.263 152.918 159.471 152.88 159.673C152.842 159.874 152.749 160.062 152.611 160.213C152.473 160.365 152.295 160.474 152.098 160.53C151.901 160.586 151.692 160.586 151.494 160.53Z" fill="#4A8DD0"/>
<path d="M164.316 157.57C162.084 156.936 162.562 156.85 160.802 158.304C160.643 158.434 160.451 158.517 160.248 158.544C160.044 158.571 159.838 158.541 159.651 158.457C159.463 158.373 159.304 158.238 159.189 158.068C159.074 157.898 159.009 157.699 159.002 157.494C158.922 155.174 159.148 155.604 157.218 154.374C157.045 154.264 156.906 154.108 156.817 153.923C156.729 153.738 156.693 153.532 156.715 153.328C156.737 153.124 156.816 152.931 156.942 152.769C157.068 152.608 157.237 152.485 157.43 152.414C159.61 151.614 159.27 151.966 159.83 149.754C159.881 149.555 159.987 149.374 160.136 149.232C160.285 149.09 160.471 148.993 160.672 148.952C160.873 148.91 161.082 148.925 161.275 148.997C161.468 149.068 161.637 149.192 161.764 149.354C163.198 151.178 162.764 150.966 165.038 150.826C165.243 150.813 165.448 150.858 165.629 150.955C165.81 151.053 165.96 151.199 166.062 151.377C166.165 151.556 166.215 151.759 166.208 151.964C166.201 152.17 166.136 152.369 166.022 152.54C164.726 154.466 164.794 153.984 165.636 156.11C165.71 156.3 165.73 156.508 165.693 156.709C165.656 156.91 165.564 157.097 165.427 157.248C165.29 157.4 165.113 157.51 164.917 157.567C164.721 157.624 164.512 157.625 164.316 157.57Z" fill="#4A8DD0"/>
<path d="M176.648 154.61C174.418 153.974 174.894 153.89 173.134 155.344C172.975 155.474 172.783 155.556 172.58 155.583C172.376 155.609 172.17 155.579 171.983 155.494C171.796 155.41 171.636 155.275 171.522 155.105C171.407 154.935 171.342 154.737 171.334 154.532C171.254 152.212 171.48 152.642 169.55 151.416C169.376 151.306 169.237 151.15 169.148 150.965C169.059 150.78 169.023 150.573 169.045 150.369C169.067 150.165 169.146 149.971 169.273 149.809C169.399 149.648 169.569 149.525 169.762 149.454C171.942 148.654 171.602 149.004 172.174 146.794C172.225 146.595 172.331 146.414 172.48 146.272C172.629 146.13 172.815 146.033 173.016 145.992C173.217 145.95 173.426 145.966 173.619 146.037C173.812 146.108 173.982 146.232 174.108 146.394C175.54 148.218 175.108 148.008 177.38 147.868C177.585 147.855 177.79 147.899 177.971 147.996C178.152 148.093 178.302 148.239 178.405 148.418C178.507 148.596 178.558 148.799 178.551 149.005C178.543 149.21 178.478 149.41 178.364 149.58C177.068 151.506 177.136 151.024 177.978 153.15C178.053 153.341 178.073 153.55 178.036 153.752C177.999 153.955 177.906 154.142 177.768 154.295C177.629 154.447 177.451 154.557 177.253 154.613C177.055 154.668 176.845 154.667 176.648 154.61Z" fill="#4A8DD0"/>
<path d="M376.92 149.092C371.568 149.246 363.974 145.592 359.14 143.264C343.906 135.934 341.576 141.05 315.768 133.792C311.118 132.484 306.298 132.624 308.33 137.282C315.408 153.522 352.882 152.002 374.902 185.73C383.134 198.33 395.122 205.31 409.808 207.894C412.448 208.36 412.408 208.294 413.472 205.694C424.038 179.964 427.392 179.962 424.44 178.854C411.24 173.902 400.51 158.042 393.24 146.006C385.096 132.538 377.466 123.548 360.508 123.262C338.02 122.886 343.096 126.724 337.884 122.172C345.109 121.005 352.415 120.417 359.734 120.412C397.23 120.498 392.55 160.528 426.046 177.372C426.902 177.8 427.088 177.722 428.834 173.912C430.53 170.216 434.17 170.62 442.54 173.312C464.876 180.496 481.778 190.536 452.756 179.338C451.744 178.938 451.468 179.15 451.174 180.118C449.374 186.026 440.522 209.092 434.374 217.13C433.038 218.876 431.6 219.5 432.91 215.876C435.922 207.554 447.404 183.056 448.71 179.05C448.942 178.332 449.086 177.902 448.16 177.566C434.902 172.748 433.36 172.494 431.486 175.29C424.561 187.288 418.639 199.837 413.782 212.81C412.106 217.382 410.718 222.152 414.182 225.466C422.658 233.578 456.708 246.564 455.74 248.82C454.084 252.682 423.364 236.464 419.14 233.832C405.516 225.326 407.74 220.844 411.418 210.678C405.783 210.288 400.269 208.864 395.15 206.478C366.836 194.522 375.226 174.564 332.69 156.222C323.302 152.174 310.508 147.568 306.236 138.522C303.74 133.238 307.036 128.522 319.848 132.182C339.236 137.706 346.092 133.382 362.068 141.768C376.726 149.478 375.8 147.8 376.92 149.092Z" fill="#101828"/>
<path d="M337.2 82.5622C337.112 98.0162 329.318 111.006 326.964 112.962C326.194 113.606 325.29 113.142 341.278 127.868C346.702 132.868 347.694 133.358 345.608 134.002C342.594 134.934 328.794 132.538 327.02 132.182C323.08 131.382 321.22 129.304 316.488 124.296C314.424 122.118 311.858 129.296 294.912 131.958C264.65 136.718 238.574 116.504 234.534 89.2402C228.6 49.2162 270.616 20.6142 306.586 37.0202C324.684 45.2762 335.864 60.1802 337.2 82.5622ZM334.294 82.9782C334.294 59.8862 316.294 36.5262 286.548 35.6502C262.8 34.9502 239.116 52.0702 237.4 78.5442C235.284 111.012 263.8 134.254 294.762 129.066C305.74 127.306 315.738 121.709 322.977 113.269C330.216 104.83 334.226 94.0965 334.294 82.9782ZM337.784 130.746C334.828 126.494 331.392 122.596 327.546 119.128C327.41 118.947 327.236 118.796 327.038 118.685C326.839 118.575 326.62 118.507 326.393 118.487C326.167 118.467 325.939 118.495 325.724 118.569C325.509 118.643 325.312 118.761 325.146 118.916C323.968 120.08 324.546 120.77 332.958 127.916C334.304 129.249 335.964 130.222 337.784 130.746Z" fill="#101828"/>
<path d="M336.774 164.464C336.58 165.625 336.109 166.723 335.402 167.664C334.136 169.548 335.02 171.178 335.344 172.916C335.482 173.646 335.972 173.294 336.388 173.196C336.767 173.042 337.174 172.971 337.583 172.988C337.992 173.005 338.392 173.109 338.758 173.294C339.123 173.479 339.444 173.74 339.699 174.059C339.955 174.379 340.139 174.749 340.24 175.146C341.5 178.838 341.77 188.774 339.938 179.764C339.234 176.294 338.722 174.062 336.834 174.348C336.12 174.456 335.734 174.66 335.954 175.53C338.326 184.916 338.206 189.454 342.354 186.146C346.8 182.6 349.636 176 348.332 167.8C348.682 167.956 348.989 168.195 349.226 168.497C349.463 168.798 349.623 169.153 349.692 169.53C353.546 182.156 339.714 186.898 349.98 191.174C351.252 191.702 349.996 186.634 355.476 187.334C357.824 187.5 360.054 188.427 361.828 189.974C360.406 191.642 351.898 185.532 351.71 191.458C351.68 192.372 352.696 192.216 353.242 192.42C363.392 196.242 365.256 191.366 363.184 187.792C360.216 182.674 355.958 181.818 355.068 180.51C356.268 179.126 362.326 181.974 364.95 187.486C365.307 188.234 365.504 189.049 365.53 189.877C365.556 190.706 365.409 191.531 365.1 192.3C364.79 193.069 364.324 193.765 363.731 194.345C363.138 194.924 362.432 195.374 361.656 195.666C360.618 196.056 359.492 196.15 358.404 195.936C354.886 195.277 351.461 194.195 348.204 192.714C347.113 192.276 346.175 191.527 345.505 190.561C344.836 189.595 344.465 188.453 344.438 187.278C336.182 191.466 337.378 188.854 333.12 171.7C331.12 173.068 329.216 175.194 325.164 175.286C320.62 175.39 321.928 172.286 322.478 156.708C322.526 155.34 325.122 152.756 323.69 171.68C323.406 175.446 329.95 172.346 332.2 168.53C333.622 166.118 334.31 164.662 334.902 163.702C336.352 161.362 337.062 161.8 336.774 164.464Z" fill="#101828"/>
<path d="M321.4 141.824C317.084 141.674 311.934 139.092 312.378 138.076C312.676 137.396 312.662 137.57 318.988 139.344C324.124 140.784 324.336 136.82 325.532 138.016C326.832 139.316 323.238 141.888 321.4 141.824Z" fill="#101828"/>
<path d="M242.014 83.3104C241.699 73.0508 245.182 63.036 251.793 55.1846C258.404 47.3331 267.68 42.1971 277.844 40.7604C322.244 33.9184 346.458 85.4364 316.444 113.22C288.644 138.938 242.77 120.4 242.014 83.3104ZM285.908 122.71C327.144 122.754 342.896 68.6984 306.604 48.0564C290.388 38.8344 269.218 41.5464 256.652 54.1704C229.72 81.2224 250.708 122.664 285.908 122.704V122.71Z" fill="#101828"/>
<path d="M302.902 61.6983C302.922 95.9683 305.03 108.474 304.53 113.572C304.378 115.124 306.15 114.772 307.608 114.27C307.53 98.9563 306.928 74.8543 305.524 58.6463C305.18 54.6623 302.496 54.8623 298.724 55.6783C267.752 62.3823 256.042 64.8583 250.8 66.1523C250.118 66.3203 250.27 66.7783 249.692 68.7683C249.674 68.8291 249.669 68.8931 249.678 68.956C249.686 69.0189 249.708 69.0793 249.741 69.1334C249.774 69.1875 249.818 69.234 249.87 69.27C249.923 69.3059 249.982 69.3306 250.044 69.3423C250.127 69.3577 250.213 69.3493 250.292 69.3183C254.394 67.8583 261.714 67.2123 274.524 64.2703C303 57.7303 302.898 56.8883 302.902 61.6983Z" fill="#4A8DD0"/>
<path d="M278.232 74.2523C275.604 74.2723 275.564 72.5923 277.462 71.9823C302.906 63.8003 307.852 69.0563 278.232 74.2523Z" fill="#4A8DD0"/>
<path d="M279 80.31C276.778 80.094 276.818 78.218 278.644 77.69C295.014 72.952 295.822 75.874 293.044 77.252C288.433 78.5697 283.742 79.5911 279 80.31Z" fill="#4A8DD0"/>
<path d="M279.902 118.772C276.702 117.856 277.406 117.712 274.846 119.822C274.619 120.012 274.342 120.134 274.048 120.175C273.755 120.215 273.456 120.173 273.185 120.052C272.914 119.931 272.683 119.737 272.517 119.491C272.351 119.246 272.257 118.958 272.246 118.662C272.126 115.33 272.474 115.958 269.68 114.178C269.432 114.018 269.233 113.792 269.107 113.525C268.98 113.258 268.931 112.96 268.964 112.667C268.997 112.373 269.112 112.095 269.295 111.863C269.478 111.631 269.722 111.455 270 111.354C273.13 110.21 272.642 110.736 273.47 107.526C273.544 107.24 273.697 106.981 273.911 106.777C274.124 106.573 274.391 106.433 274.68 106.373C274.969 106.312 275.27 106.334 275.547 106.435C275.824 106.537 276.068 106.714 276.25 106.946C278.304 109.568 277.65 109.266 280.964 109.062C281.185 109.048 281.407 109.08 281.615 109.157C281.823 109.233 282.012 109.353 282.171 109.507C282.329 109.662 282.453 109.848 282.535 110.054C282.617 110.26 282.655 110.481 282.646 110.702C282.636 110.998 282.542 111.285 282.376 111.53C280.516 114.294 280.604 113.584 281.818 116.666C281.926 116.942 281.954 117.242 281.9 117.533C281.846 117.824 281.712 118.094 281.513 118.313C281.313 118.531 281.057 118.69 280.773 118.771C280.488 118.853 280.187 118.853 279.902 118.772Z" fill="#4A8DD0"/>
<path d="M297.646 114.514C294.446 113.6 295.15 113.454 292.59 115.566C292.362 115.754 292.086 115.874 291.793 115.914C291.5 115.953 291.202 115.909 290.933 115.788C290.664 115.667 290.434 115.472 290.269 115.227C290.104 114.982 290.011 114.696 290 114.4C289.878 111.07 290.226 111.698 287.432 109.92C287.182 109.762 286.98 109.537 286.851 109.271C286.722 109.004 286.671 108.707 286.702 108.412C286.734 108.118 286.848 107.838 287.031 107.605C287.213 107.372 287.458 107.195 287.736 107.094C290.866 105.952 290.378 106.474 291.206 103.268C291.262 103.055 291.362 102.855 291.499 102.682C291.636 102.509 291.808 102.367 292.003 102.264C292.199 102.161 292.413 102.1 292.633 102.084C292.854 102.069 293.075 102.1 293.282 102.174C293.56 102.276 293.804 102.453 293.986 102.686C296.042 105.31 295.386 105.006 298.7 104.804C298.921 104.79 299.143 104.822 299.351 104.899C299.559 104.975 299.748 105.095 299.907 105.25C300.065 105.404 300.19 105.591 300.271 105.796C300.353 106.002 300.391 106.223 300.382 106.444C300.372 106.74 300.279 107.027 300.112 107.272C298.252 110.036 298.34 109.326 299.556 112.406C299.664 112.681 299.694 112.981 299.642 113.272C299.587 113.563 299.453 113.832 299.254 114.051C299.055 114.27 298.8 114.429 298.516 114.512C298.232 114.594 297.931 114.596 297.646 114.514Z" fill="#4A8DD0"/>
<path d="M256.074 88.4004C259.014 84.2984 263.858 84.0924 262.956 87.0604C262.054 90.0284 263.494 91.9184 265.47 91.2924C265.814 91.0975 266.114 90.833 266.351 90.5159C266.587 90.1987 266.755 89.8358 266.844 89.4502C266.933 89.0646 266.941 88.6647 266.866 88.276C266.792 87.8873 266.638 87.5182 266.414 87.1924C266.116 86.8958 265.92 86.5132 265.852 86.0988C265.784 85.6843 265.848 85.259 266.035 84.883C266.222 84.507 266.523 84.1994 266.894 84.0037C267.266 83.8079 267.69 83.734 268.106 83.7924C273.028 84.5444 278.59 89.2844 276.416 91.1664C274.398 92.9124 258 95.1184 256.704 95.2624C252.108 95.7724 253.622 91.8124 256.074 88.4004Z" fill="#4A8DD0"/>
<path d="M265.628 80.2344C264.83 81.233 263.678 81.8851 262.411 82.0547C261.144 82.2242 259.861 81.8981 258.828 81.1444C257.765 80.2288 257.077 78.9538 256.895 77.563C256.713 76.1721 257.049 74.7629 257.84 73.6044C262.104 68.4504 269.664 75.2004 265.628 80.2344Z" fill="#4A8DD0"/>
</svg>
