<svg width="560" height="400" viewBox="0 0 560 400" fill="none" xmlns="http://www.w3.org/2000/svg">
<rect width="560" height="400" fill="white"/>
<path d="M423.226 62.8398C442.976 67.8798 463.128 75.6498 468.272 80.4318C474.028 85.7838 464.814 96.0578 449.176 99.1178L447.638 94.8218C459.742 92.5278 466.818 85.3938 464.974 83.6818C460.622 79.6358 440.348 71.8058 420.75 66.8758L423.226 62.8398Z" fill="#101828"/>
<path fill-rule="evenodd" clip-rule="evenodd" d="M419.686 176.82C423.284 182.112 424.914 186.928 420.766 189.168C407.378 196.398 391.966 187.554 388.486 181.924C389.161 181.785 389.837 181.649 390.514 181.516C396.98 185.324 410.66 193.348 419.066 186.008C421.122 184.214 419.552 181.384 416.262 177.292C417.442 177.126 418.582 176.968 419.686 176.818V176.82ZM378.916 184.004C381.906 189.417 384.885 194.837 387.852 200.264C388.524 201.406 389.55 202.774 390.744 204.366C393.344 207.836 396.744 212.37 399.02 217.938C403.62 229.184 364.35 232.372 355.28 206.068C354.416 203.56 355.324 203.362 355.556 203.638C355.96 204.116 356.436 204.764 357.002 205.536C359.514 208.96 363.806 214.81 371.58 219.004C377.429 222.402 384.32 223.54 390.952 222.204C398.812 220.572 396.37 217.144 388.292 205.808C385.744 202.232 382.634 197.868 379.112 192.528C378.748 192.208 377.406 189.662 375.492 186.032L374.92 184.952C376.234 184.632 377.566 184.316 378.916 184.004ZM344.208 193.728C350.292 203.66 357.068 223.24 357.528 231.156C357.99 239.09 354.166 241.546 346.902 246.21L346.43 246.512C345.912 246.846 345.366 247.204 344.796 247.578C338.496 251.716 329.266 257.78 322.756 252.126C314.548 245 321.948 230.678 321.962 236.242C321.751 239.232 322.001 242.236 322.702 245.15C323.017 246.304 323.578 247.377 324.345 248.296C325.112 249.214 326.068 249.957 327.147 250.473C328.227 250.99 329.405 251.268 330.601 251.289C331.798 251.309 332.985 251.072 334.082 250.594C338.007 248.75 341.755 246.552 345.282 244.028C347.734 242.428 342.546 235.428 336.682 238.584C334.986 239.5 333.282 240.74 331.726 241.872C330.284 242.92 328.968 243.878 327.904 244.398C326.14 245.262 326.558 243.5 326.776 243.136C329.376 238.798 342.672 227.554 348.34 241.808C358.112 236.19 355.126 228.09 351.262 217.614C350.586 215.782 349.882 213.876 349.218 211.898C345.92 202.106 342.898 197.496 340.92 194.808C341.994 194.452 343.09 194.092 344.208 193.728ZM321.41 201.356C322.698 220.74 318.692 229.672 311.66 245.352C298.806 274.014 273.644 291.352 243.1 302.666C245.844 306.538 248.629 310.381 251.456 314.194C252.458 315.548 252.678 315.844 252.814 316.174C252.852 316.266 252.882 316.36 252.922 316.482L252.928 316.498C254.056 319.46 254.367 322.671 253.827 325.794C253.288 328.917 251.918 331.838 249.862 334.25C241.862 344.122 188.262 389.792 185.916 385.746C195.146 376.41 206.094 367.392 216.346 358.948C228.73 348.748 240.098 339.384 246.202 331.302C250.602 325.468 250.508 321.088 246.474 315.008C244.432 311.932 200.734 250.628 194.784 244.902C190.16 240.452 189.846 240.628 181.362 245.4C179.318 246.55 176.8 247.966 173.632 249.648C171.73 250.658 170.112 251.504 168.742 252.222C161.896 255.804 161.228 256.154 162.264 257.418C163.033 258.711 163.676 260.075 164.184 261.492C165.648 264.142 171.184 271.94 177.722 281.152C188.314 296.076 201.538 314.708 204.342 321.15C206.04 325.05 202.812 322.872 202.51 322.55C199.046 318.782 191.87 308.768 185.764 300.248H185.762C182.424 295.59 179.406 291.38 177.49 288.88C167.044 275.264 162.106 267.678 159.492 263.662C156.724 259.41 156.56 259.156 155.22 259.978C151.918 262.002 148.978 263.712 145.702 265.618C139.434 269.266 131.934 273.63 118.298 282.284C107.946 288.854 101.754 292.97 97.8956 295.534L97.8936 295.536H97.8916C91.9356 299.494 91.5435 299.756 89.9936 299.64L90.2876 299.288C93.8796 294.974 96.9016 291.346 109.878 283.03C132.916 268.266 166.856 248.664 178.92 242.35L180.212 241.668C186.456 238.362 193.182 234.8 196.954 240.686C197.434 241.434 199.172 243.732 202.338 247.918C208.66 256.278 220.674 272.164 239.71 298.234L239.804 298.366L239.88 298.474C240.376 299.182 240.836 299.838 242.11 299.272L243.502 298.66C262.07 290.476 281.74 281.806 298.926 259.472C301.262 254.366 303.49 249.974 305.526 245.956C312.662 231.89 317.476 222.398 316.486 202.846C318.135 202.377 319.777 201.881 321.41 201.356Z" fill="#101828"/>
<path fill-rule="evenodd" clip-rule="evenodd" d="M371.76 181.928C380.74 171.824 392.028 160.008 406.78 147.242C407.46 148.334 408.544 149.326 410.102 150.126C420.362 155.396 431.662 142.448 422.342 136.276C421.902 135.986 421.462 135.734 421.018 135.516C425.797 131.759 430.613 128.05 435.466 124.388C437.178 124.328 438.57 125.084 440.94 149.04C441.014 149.802 440.642 150.146 439.872 150.506C433.362 153.542 431.012 158.986 432.44 162.872C432.536 163.143 432.72 163.374 432.962 163.529C433.204 163.684 433.49 163.754 433.777 163.729C434.063 163.703 434.332 163.583 434.543 163.387C434.754 163.192 434.893 162.931 434.94 162.648C434.625 160.439 435.115 158.191 436.319 156.313C437.523 154.435 439.361 153.052 441.5 152.416C442.99 151.852 443.554 151.074 443.524 149.742C443.404 144.718 442.36 125.714 437.884 122.574C441.335 119.994 444.809 117.444 448.304 114.924C452.476 128.578 455.65 152.958 453.244 166.912L453.204 167.15C453.088 167.85 453.004 168.356 452.744 168.744C452.058 169.758 450.164 169.956 443.308 170.67C437.216 171.306 427.204 172.35 410.644 174.738C395.654 176.898 382.798 179.384 371.76 181.928ZM419.572 136.654C419.889 136.77 420.199 136.906 420.5 137.06C426.82 140.304 424.034 148.75 416.3 149.694C411.174 150.322 409.076 147.9 408.21 146.008C411.935 142.817 415.725 139.698 419.572 136.654ZM418.52 165.006C415.274 165.544 409.63 166.48 400.186 168.936C400.087 168.972 399.981 168.989 399.875 168.984C399.77 168.98 399.666 168.955 399.57 168.91C399.474 168.865 399.388 168.802 399.317 168.723C399.246 168.645 399.191 168.553 399.156 168.454V168.45C398.894 167.596 398.748 167.12 421.484 162.924C421.585 162.894 421.692 162.886 421.797 162.899C421.902 162.912 422.003 162.946 422.094 163C422.185 163.053 422.265 163.125 422.327 163.21C422.39 163.295 422.434 163.393 422.458 163.496C422.588 164.33 421.726 164.474 418.52 165.006Z" fill="#4A8DD0"/>
<path fill-rule="evenodd" clip-rule="evenodd" d="M322.02 202.44C326.416 200.976 330.248 196.534 334.714 189.604C336.794 189.76 339.382 190.274 342.682 191.354C344.482 191.942 345.634 190.402 344.522 189.506C342.668 188.024 339.778 187.074 336.394 186.93C338.366 183.73 340.476 180.09 342.82 176.05C346.836 169.13 351.532 161.036 357.374 151.95C361.513 153.492 365.935 154.128 370.342 153.816C388.864 152.466 395.128 133.136 382 117.896C385.164 113.998 388.403 110.161 391.716 106.388C391.994 106.794 392.316 107.19 392.686 107.568C393.801 108.641 395.138 109.456 396.603 109.956C398.067 110.455 399.623 110.628 401.162 110.46C414.15 109.516 416.164 93.8902 404.908 91.9182C408.727 87.8232 412.587 83.767 416.488 79.7502C419.712 82.5962 424.102 86.7362 430.154 92.7042C430.784 93.3262 430.68 93.8322 430.2 94.5642C426.144 100.764 427.882 106.79 432.12 109.392C433.382 110.168 435.288 109.158 434.368 107.832C434.22 107.636 434.063 107.447 433.898 107.266C432.372 105.526 428.572 101.196 433.168 95.3442C433.409 95.1274 433.601 94.8623 433.732 94.5661C433.863 94.27 433.93 93.9494 433.929 93.6255C433.928 93.3016 433.859 92.9815 433.725 92.6863C433.592 92.391 433.398 92.1273 433.156 91.9122C430.872 89.3422 424.66 82.6502 418.606 77.5842C421.768 74.3542 424.274 71.8542 426.232 69.8882C437.716 79.7642 449.64 92.1242 455.186 101.542L455.322 101.77C455.744 102.482 456.044 102.986 456.048 103.492C456.058 104.726 454.316 105.972 448.336 110.25C442.916 114.126 434.016 120.494 419.786 131.6C397.434 149.272 376.638 168.826 357.626 190.05C357.042 190.822 356.428 191.654 355.786 192.526C349.866 200.564 341.554 211.848 333.31 207.972C331.39 207.07 327.276 205.086 322.02 202.44ZM403.506 93.4242C410.572 94.1582 413.068 102.06 406.836 106.698C405.04 108.158 402.784 108.933 400.47 108.887C398.156 108.84 395.934 107.975 394.198 106.444C393.718 105.952 393.338 105.424 393.05 104.878C394.356 103.405 395.673 101.941 397 100.486C399.158 98.1225 401.327 95.7685 403.506 93.4242ZM380.49 119.768C393.742 135.788 384.23 155.028 363.76 151.372C362.012 151.062 360.293 150.612 358.618 150.026C360.347 147.369 362.108 144.734 363.902 142.12C365.211 142.136 366.506 141.852 367.688 141.29C370.492 139.96 371.546 141.164 372.352 142.086C372.988 142.816 373.472 143.368 374.544 142.346C375.326 141.598 374.496 140.97 373.674 140.346C373.054 139.876 372.438 139.408 372.518 138.896C372.604 138.352 373.172 137.832 373.738 137.314C373.97 137.102 374.202 136.89 374.4 136.676C376.282 134.628 377.848 130.702 375.874 130.364C374.914 130.2 374.7 130.654 374.202 131.704C373.762 132.634 373.096 134.032 371.492 135.88C370.46 137.07 370.068 136.946 368.6 135.428C372.426 130.105 376.39 124.883 380.49 119.768ZM365.984 139.116C368.914 138.492 368.844 137.946 367.664 136.736C367.096 137.536 366.536 138.328 365.984 139.116ZM420.166 118.924C417.418 121.178 412.678 125.064 405.426 132.26C404.546 133.134 403.162 132.074 404.014 131.226C409.384 125.886 418.052 118.436 421.142 115.78L421.574 115.408C421.761 115.246 422 115.153 422.248 115.147C422.496 115.141 422.738 115.221 422.934 115.374C423.682 116.04 422.94 116.65 420.166 118.924ZM351.872 180.434C359.128 173.234 363.87 169.346 366.616 167.094C369.386 164.822 370.13 164.212 369.38 163.548C369.184 163.396 368.942 163.316 368.694 163.322C368.446 163.328 368.208 163.42 368.02 163.582L367.876 163.706C365.076 166.112 356.016 173.898 350.46 179.4C349.6 180.248 350.99 181.308 351.872 180.434Z" fill="#4A8DD0"/>
<path fill-rule="evenodd" clip-rule="evenodd" d="M337.164 173.78C332.366 183.602 325.632 197.388 315.45 194.566C312.12 193.646 303.41 191.134 292.894 187.806C292.894 185.826 292.884 183.826 292.874 181.802C292.866 180.342 292.858 178.868 292.854 177.384C294.814 177.9 296.784 178.382 298.764 178.828C299.617 179.083 300.52 179.118 301.39 178.929C302.26 178.74 303.068 178.334 303.738 177.748C310.95 172.12 318.258 173.858 321.19 174.556C321.592 174.652 321.91 174.728 322.138 174.762C324.306 175.096 325.248 173.21 323.782 172.422C318.858 169.776 309.658 170.264 301.794 175.558C301.427 175.873 300.986 176.09 300.512 176.187C300.038 176.284 299.547 176.258 299.086 176.112C296.866 175.448 294.792 174.82 292.854 174.226C292.87 168.528 292.988 162.666 293.442 156.638C295.435 157.098 297.509 157.063 299.486 156.538C314.67 153.078 312.412 133.698 296.97 135.738C296.824 135.756 296.68 135.778 296.536 135.798C298.303 128.173 300.842 120.747 304.112 113.636C312.522 124.55 328.584 132.51 344.564 128.872C365.928 124 367.762 100.242 347.25 85.976C341.708 82.122 334.91 79.468 328.11 78.508C332.532 71.968 336.404 64.558 338.894 54.718C340.906 46.782 340.2 37.288 337.014 31.846C342.674 26.7968 348.425 21.8506 354.264 17.01C354.647 16.6919 355.027 16.3712 355.406 16.048C356.762 14.896 357.534 14.24 358.414 14.032C359.576 13.756 360.924 14.264 364.058 15.446L364.178 15.49C381.476 22.012 414.584 42.162 427.95 56.974L428.15 57.196L428.152 57.2C428.812 57.926 429.276 58.436 429.38 59.01C429.624 60.35 427.926 62.04 422.268 67.676C417.068 72.856 408.524 81.368 395.068 96C374.044 119.158 355.165 144.175 338.662 170.744C338.184 171.692 337.688 172.712 337.164 173.78ZM296.096 137.762C305.458 135.704 311.426 144.776 305 151.442C303.569 152.956 301.751 154.051 299.743 154.608C297.735 155.165 295.613 155.163 293.606 154.602C294.084 148.942 294.915 143.318 296.096 137.762ZM319.764 89.646C322.076 86.716 324.374 83.802 326.568 80.726C333.38 81.3868 339.895 83.8438 345.448 87.846C367.3 103.046 361.522 127.822 336.594 127.334C322.594 127.06 311.354 119.678 305.452 110.834C307.2 107.368 309.18 104.023 311.376 100.822V100.85L311.382 100.91C311.496 102.31 312.602 102.178 313.192 101.152C314.766 98.412 315.992 96.414 317.64 97.522C320.122 99.194 321.964 100.354 323.31 101.202C326.686 103.326 326.94 103.486 326.366 104.842C321.844 115.552 332.314 119.942 338.678 115.602C341.528 113.662 342.994 114.802 344.116 115.674C345.002 116.364 345.674 116.884 346.642 115.578C347.348 114.626 346.266 114.078 345.194 113.538C344.388 113.132 343.588 112.728 343.558 112.154C343.528 111.55 344.042 110.886 344.552 110.226C344.766 109.958 344.968 109.682 345.158 109.396C346.802 106.826 347.654 102.258 345.358 102.228C344.242 102.214 344.104 102.748 343.788 103.982C343.508 105.078 343.084 106.724 341.706 109.028C340.692 110.724 340.22 110.384 337.378 108.338C336.826 107.942 336.184 107.478 335.432 106.958L335.4 106.986C334.568 106.406 333.866 105.932 333.28 105.536C330.568 103.704 330.33 103.542 331.09 102.418C334.316 97.662 335.114 93.278 329.422 91.574C323.936 89.932 320.606 91.508 318.302 92.6C317.822 92.826 317.388 93.032 316.988 93.182C317.912 91.994 318.838 90.818 319.764 89.646ZM366.82 35.6L366.872 35.554C368.504 34.102 369.796 32.952 397.716 51.614C398.572 52.186 398.572 52.758 398.2 53.644C395.058 61.124 398.428 67.428 403.8 69.548C405.4 70.178 407.316 68.748 405.974 67.456C405.761 67.2669 405.54 67.0874 405.312 66.918C403.188 65.278 397.898 61.188 401.728 53.984C401.945 53.6922 402.097 53.3576 402.174 53.0025C402.252 52.6473 402.252 52.2798 402.177 51.9243C402.101 51.5687 401.951 51.2334 401.735 50.9406C401.52 50.6478 401.245 50.4042 400.928 50.226C395.416 46 372.384 29.25 366.2 32.428C358.646 36.31 353.286 34.614 349.728 33.488C347.604 32.816 346.122 32.348 345.2 33.39C342.234 36.73 360.872 40.886 366.82 35.6ZM369.192 76.076C384.376 72.622 382.118 53.236 366.676 55.276C355.842 56.704 350.876 68.752 358.974 74.378C360.459 75.3693 362.138 76.0335 363.9 76.3266C365.662 76.6196 367.465 76.5349 369.192 76.078V76.076ZM365.714 57.322C375.132 55.176 381.16 64.29 374.714 70.976C372.912 72.8852 370.508 74.1164 367.906 74.4628C365.304 74.8091 362.662 74.2495 360.424 72.878C354.152 68.522 357.426 59.2 365.714 57.322ZM328.448 94.362C324.776 93.336 317.048 94.674 319.692 96.386L319.684 96.382C321.257 97.4013 322.815 98.4434 324.358 99.508C327.664 101.774 328.02 102.018 328.648 100.592C328.865 100.104 329.099 99.6242 329.348 99.152C330.418 97.068 331.39 95.178 328.448 94.362ZM336.718 110.056L336.612 109.986L336.602 109.98C334.466 108.914 332.944 107.774 331.846 106.95C330.252 105.756 329.55 105.23 329.156 106.572C327.178 113.212 331.478 115.254 335.668 113.758C339.996 112.208 339.168 111.664 336.718 110.056ZM379.056 99.2C385.566 90.028 390.014 84.946 392.584 82.008C395.154 79.07 395.85 78.276 394.856 77.682C394.609 77.5466 394.323 77.4998 394.046 77.5493C393.769 77.5988 393.517 77.7416 393.332 77.954C390.892 80.858 382.29 91.184 377.236 98.31C376.458 99.4 378.282 100.3 379.056 99.2ZM343.484 144.002C340.914 146.94 336.464 152.022 329.952 161.2C329.176 162.302 327.35 161.4 328.132 160.31C333.192 153.192 341.788 142.858 344.226 139.954C344.411 139.742 344.664 139.6 344.941 139.551C345.219 139.502 345.505 139.549 345.752 139.684C346.744 140.276 346.05 141.068 343.484 144.002Z" fill="#4A8DD0"/>
<path d="M304.676 111.874C278.996 166.158 308.692 209.906 275.492 243.012C274.292 244.38 272.612 245.234 270.8 245.4C289.986 219.588 288.068 203.282 288.386 170.736C289.232 84.0242 342.786 80.4402 336.072 39.2822C334.462 29.4102 329.102 28.5342 324.732 32.8342C298.8 58.3662 319.978 38.0902 295.59 59.8142C274.336 78.7422 285.124 76.0242 248.122 124.77C247.97 124.97 244.26 127.67 246.096 123.57C252.696 108.81 269.006 92.1702 267.252 90.5162C255.994 99.2715 246.263 109.829 238.452 121.76C225.302 142.546 230.772 155.91 228.698 181.228C225.098 225.254 201.526 244.766 201.336 244.546C200.992 244.168 200.684 243.76 200.412 243.326C203.55 237.886 213.27 224.908 217.964 214.11C239.26 165.11 204.864 137.152 258.482 93.2102C290.482 66.9842 266.028 81.7302 297.038 54.5202C322.508 32.1642 320.076 31.8482 324.998 28.7102C337.398 20.8162 342.49 39.9782 338.894 54.1662C332.126 80.8902 315.18 89.6762 304.676 111.874Z" fill="#101828"/>
<path d="M321.694 48.908C323.762 45.308 326.18 41.928 328.472 38.472C329.738 36.566 331.172 37.562 329.718 40.072C322.05 53.288 322.068 55.158 316.358 55.912C311.646 56.15 309.422 54.42 309.758 53.488C310.178 52.296 317.928 55.448 321.694 48.908Z" fill="#101828"/>
</svg>
