<svg width="560" height="400" viewBox="0 0 560 400" fill="none" xmlns="http://www.w3.org/2000/svg">
<rect width="560" height="400" fill="white"/>
<path fill-rule="evenodd" clip-rule="evenodd" d="M387.562 136.104C387.616 133.968 387.662 132.104 387.614 130.156C389.561 131.738 391.46 133.379 393.308 135.076C393.348 139.678 393.374 145.04 393.368 151.286C393.366 153.602 393.954 153.588 399.078 153.472C402.208 153.387 405.339 153.375 408.47 153.438H408.492C408.882 153.446 409.21 153.454 409.486 153.406C411.476 156.222 413.331 159.131 415.044 162.124C423.164 176.312 426.992 190.996 427.048 205.41C426.272 206.144 425.986 206.964 426.36 207.468C426.564 207.742 426.78 207.838 427.022 207.822C426.995 208.924 426.945 210.026 426.874 211.126C424.248 204.616 415.312 204.378 412.768 210.21C412.85 208.824 412.892 207.432 412.892 206.034C412.892 184.91 403.488 165.334 387.552 149.398L387.526 147.818C387.506 146.678 387.482 145.322 387.47 143.718C387.448 140.666 387.508 138.248 387.562 136.104ZM389.13 261.034C390.767 265.991 392.429 270.94 394.114 275.882C381.876 287.34 366.574 297.032 348.798 304.1C348.735 298.973 348.644 293.846 348.526 288.72C364.586 281.65 378.436 272.192 389.13 261.034ZM200.514 283.858C183.884 274.964 170.194 263.34 160.714 249.906C158.795 255.116 156.954 260.354 155.192 265.62C166.692 279.3 182.132 291.13 200.722 299.956C200.645 294.59 200.575 289.224 200.514 283.858ZM413.49 218.586C413.264 217.501 412.845 216.466 412.252 215.53C412.374 214.64 412.476 213.746 412.564 212.85C412.624 212.906 412.692 212.958 412.772 213.006C413.548 213.484 413.912 212.882 414.268 212.29C414.4 212.072 414.532 211.854 414.684 211.692C419.96 206.09 425.004 210.138 425.084 215.358L423.852 215.698L423.148 215.89C420.832 216.528 420.318 216.668 413.49 218.586ZM350.736 108.654C348.06 112.74 346.732 117.734 347.498 122.864C327.584 114.27 304.34 109.33 279.53 109.33C276.368 109.33 273.23 109.41 270.124 109.568C269.436 109.302 268.751 109.03 268.068 108.752C264.648 107.368 262.952 106.68 262.476 109.09L262.272 110.136C240.822 112.154 220.956 117.88 203.944 126.4C203.672 126.21 203.432 125.928 203.744 125.626C205.004 124.394 204.96 122.906 204.914 121.422C204.899 121.057 204.895 120.691 204.9 120.326C205.04 114.394 200.204 114.506 195.662 114.608L195.414 114.614C216.278 103.85 240.336 97.5798 264.92 95.7998L265.066 97.2178C265.93 105.586 271.004 106.736 279.25 108.494C286.626 110.068 290.284 103.446 293.92 96.8618L294.032 96.6598C294.19 96.3738 294.35 96.0958 294.514 95.8218C314.042 97.2658 333.226 101.542 350.734 108.656L350.736 108.654ZM161.464 161.092C153.796 161.1 148.462 161.1 144.756 160.92C144.52 161.32 144.286 161.72 144.056 162.124C135.284 177.44 131.516 193.334 132.09 208.846C137.008 210.149 141.845 211.743 146.574 213.62C146.303 211.1 146.168 208.568 146.168 206.034C146.168 189.822 151.698 174.528 161.464 161.092Z" fill="#4A8DD0"/>
<path d="M314.674 63.148C314.28 84.226 300.91 84.216 294.034 96.658C290.36 103.308 286.704 110.082 279.252 108.492C271.006 106.732 265.932 105.584 265.068 97.216C263.17 78.85 264.552 86.936 260.326 75.66C255.548 62.908 260.126 45.256 274.67 38.404C293.794 29.396 315.038 43.664 314.674 63.148ZM261.84 65.1C261.76 73.626 265.064 76.856 266.222 81.756C269.08 93.832 266.722 100.232 271.084 102.994C272.036 103.598 272.398 103.472 272.758 102.394C274.79 96.3 276.414 90.074 277.738 83.788C278.008 82.508 277.698 81.992 276.502 81.516C272.48 79.916 271.07 74.932 273.514 71.396C275.694 68.24 280.212 67.73 281.404 73.228C282.362 77.648 279.97 80.316 282.44 80.56C283.636 80.678 284.868 81.476 285.468 79.484C287.93 71.312 294.89 70.556 295.788 76.376C296.52 81.116 292.754 84.976 288.018 84.266C287.26 84.152 286.59 83.91 286.224 85.024C285.872 86.102 279.928 104.588 281.442 105.424C286.422 108.174 290.694 92.004 300.648 84.224C321.582 67.868 307.002 35.388 282.12 40.158C270.254 42.432 261.956 52.63 261.838 65.102L261.84 65.1ZM277.18 105.224C279.252 105.742 278.804 98.58 283.316 85.142C283.556 84.426 284.114 83.538 282.678 83.348C281.722 83.222 280.638 82.348 280.288 84.304C276.62 104.73 271.682 104.226 277.18 105.224ZM278.854 75.898C278.894 65.896 271.586 75.616 277.1 78.728C278.982 79.788 278.614 78.248 278.854 75.898ZM293.278 77.452C293.29 75.14 291.912 74.096 290.13 76.296C289.168 77.486 288.614 78.926 287.978 80.28C286.78 82.83 293.258 81.634 293.278 77.45V77.452Z" fill="#101828"/>
<path d="M261.122 119.37C261.194 115.904 261.808 112.518 262.476 109.13C263.444 104.23 269.45 112.344 284.75 112.676C286.184 112.708 286.554 113.316 286.304 114.668C285.542 118.778 284.136 122.668 282.36 126.422C280.308 130.756 260.942 128.134 261.122 119.37ZM266.342 115.466C265.902 115.23 265.19 115.11 265.466 114.39C266.074 112.8 272.204 117.66 282.798 117.1C284.114 117.03 283.954 116.064 284.152 115.268C284.312 114.628 283.912 114.642 283.434 114.628C269.158 114.312 265.022 108.174 264.348 110.446C263.546 113.154 261.642 120.8 264.148 122.48C269.894 126.332 279.698 127.584 280.844 124.95C285.706 113.77 281.668 123.696 266.342 115.466Z" fill="#101828"/>
<path d="M369.263 141.366C363.247 141.398 362.855 139.434 361.653 141.606C361.325 142.198 359.183 145.71 358.425 145.87C355.595 146.466 353.165 154.038 346.471 161.728C340.613 168.46 330.319 166.21 348.423 142.124C350.339 139.576 347.391 140.134 351.611 135.032C352.369 134.116 352.415 133.552 351.651 132.522C336.943 112.722 362.547 87.4361 381.933 104.59C396.371 117.366 388.507 141.262 369.263 141.366ZM368.905 139.174C378.947 139.174 386.995 131.046 386.995 120.886C386.995 110.486 378.149 101.642 367.709 101.6C357.549 101.56 349.459 109.608 349.459 119.69C349.459 130.288 358.307 139.174 368.905 139.174ZM340.695 161.05C340.057 169.378 354.713 146.666 354.641 145.67C354.551 144.436 352.609 144.194 351.653 143.28C350.777 142.442 350.377 142.76 349.859 143.638C344.781 152.274 342.129 155.91 340.695 161.05ZM360.577 140.012C360.497 139.614 360.259 139.494 359.979 139.374C354.643 137.096 354.567 134.596 353.525 136.106C350.435 140.582 350.735 140.61 354.521 142.96C358.185 145.234 357.749 143.876 360.577 140.012Z" fill="#101828"/>
<path d="M417.127 95.5079C417.279 91.9399 417.829 91.9739 419.389 91.9979C434.889 92.2339 435.337 91.0819 435.327 93.9499C435.207 132.122 434.609 143.598 434.609 151.168C434.609 153.518 434.251 152.824 419.467 153C418.047 153.016 417.503 153.02 417.327 149.876C417.125 146.31 416.967 99.2259 417.125 95.5079H417.127ZM419.229 149.176C419.219 151.726 419.747 150.57 430.505 150.85C433.573 150.93 432.255 150.93 432.975 107.578C433.185 94.9479 434.249 94.1039 431.621 94.1899C419.347 94.5959 419.149 93.3139 419.149 95.9039C419.149 95.9839 419.269 139.492 419.229 149.176Z" fill="#101828"/>
<path d="M408.47 153.438C394.564 153.15 393.366 154.594 393.368 151.286C393.408 107.058 391.854 107.192 395.6 107.178C411.34 107.118 411.408 106.66 411.338 108.732C409.838 153.552 412.174 153.516 408.47 153.438ZM395.282 149.652C395.272 152.362 396.6 150.224 407.076 151.246C409.866 151.518 407.382 149.738 409.388 110.524C409.514 108.054 408.63 109.308 396.718 108.97C394.048 108.894 395.422 108.93 395.282 149.652Z" fill="#101828"/>
<path d="M387.473 143.716C387.551 153.12 388.031 153.906 385.719 153.876C371.057 153.69 370.061 154.832 370.219 151.844C370.617 144.354 369.343 142.8 371.295 142.8C372.251 142.8 372.281 142.72 372.131 150.49C372.089 152.722 373.929 150.576 383.725 151.766C385.639 151.998 385.359 151.926 385.399 137.182C385.403 135.388 386.793 133.676 387.391 133.914C387.989 134.074 387.391 133.874 387.471 143.714L387.473 143.716Z" fill="#101828"/>
<path d="M369.143 136.026C347.825 136.226 347.307 104.826 367.669 104.548C376.515 104.428 383.985 111.68 384.045 120.408C384.105 129.212 377.669 135.946 369.143 136.026ZM382.253 120.846C382.333 112.994 375.877 106.462 367.869 106.38C366.091 106.353 364.326 106.677 362.674 107.334C361.023 107.991 359.517 108.967 358.243 110.207C356.97 111.448 355.954 112.927 355.254 114.561C354.553 116.195 354.183 117.95 354.163 119.728C354.041 127.538 360.777 134.41 368.587 134.47C376.157 134.53 382.175 128.494 382.253 120.842V120.846Z" fill="#101828"/>
<path d="M372.181 129.976C372.103 131.448 371.841 131.544 371.095 131.564C369.657 131.604 370.059 131.554 370.059 113.674C370.059 111.92 370.139 111.244 371.215 111.244C371.887 111.244 372.053 111.216 372.079 113.418C372.097 114.874 372.255 128.618 372.181 129.976Z" fill="#101828"/>
<path d="M415.124 271.7C413.656 272.234 414.14 269.63 399.824 246.876C399.624 246.558 399.306 246.238 399.506 245.482C408.232 253.77 417.246 270.928 415.126 271.7H415.124Z" fill="#101828"/>
<path d="M395.36 241.018C406.904 276.662 406.318 276.8 408.31 276.162C408.35 276.162 453.532 261.69 455.964 261.06C457.836 260.576 458.594 262.612 456.642 263.252C447.314 266.31 452.604 264.602 409.266 278.034C405.678 279.146 405.56 278.632 404.764 276.32L392.85 241.256C391.416 236.952 391.416 236.914 395.64 235.398C408.512 230.78 437.836 221.89 437.916 221.89C438.792 221.65 440.034 220.772 440.466 222.208C440.91 223.68 440.824 223.284 397.354 236.99C392.932 238.384 395.76 236.59 405.96 245.956C420.584 259.382 418.672 265.406 425.724 263.13C467.61 249.61 468.746 251.424 466.566 248.706C462.52 243.662 462.624 243.328 463.378 242.65C464.216 241.896 464.492 242.93 464.772 243.288C471.856 252.292 472.382 251.418 462.182 254.166C459.074 255.004 461.702 255.92 463.418 265.362C464.214 269.746 462.264 272.9 457.92 274.208C405.868 289.874 400.022 292.976 397.434 285.444C395.162 278.83 381.798 240.182 380.898 233.128C380.166 227.392 384.228 227.224 392.812 224.442C393.292 224.286 393.94 224.002 394.008 224.88C394.056 225.516 394.404 226.224 393.29 226.474C378.038 229.884 381.384 228.238 398.708 282.258C401.07 289.626 404.766 287.602 420.942 282.616C466.65 268.526 463.282 273.444 458.038 256.318C457.72 255.282 457.042 255.8 456.524 255.96C423.52 266.16 427.79 264.712 423.492 266.08C419.902 267.224 419.706 263.65 406.876 250.102C402.612 245.6 395.48 239.902 395.202 240.18C395.082 240.38 395.284 240.778 395.362 241.016L395.36 241.018Z" fill="#101828"/>
<path d="M463.216 234.762C461.922 224.342 448.822 222.952 444.318 226.004C438.7 229.81 436.672 234.568 438.592 239.664C443.892 253.81 464.81 247.634 463.216 234.764V234.762ZM459.91 240.938C457.718 244.644 453.056 246.636 448.554 245.8C435.804 243.488 437.916 225.996 450.906 226.276C459.034 226.436 463.896 234.324 459.912 240.94L459.91 240.938Z" fill="#101828"/>
<path d="M441.701 215C443.461 216.826 444.157 220.98 445.801 223.298C446.965 224.936 447.125 223.348 447.089 223.038C446.777 220.408 444.847 215.988 442.949 213.636C440.909 211.108 441.227 214.508 441.701 215Z" fill="#101828"/>
<path d="M424.569 220.856C422.263 219.652 426.447 218.144 424.729 212.966C423.459 209.14 419.239 206.92 414.727 211.69C414.165 212.284 413.879 213.66 412.815 213.004C411.809 212.384 412.407 211.168 412.775 210.294C415.259 204.408 424.425 204.486 427.039 211.37C428.737 215.838 426.843 222.042 424.569 220.856Z" fill="#101828"/>
<path d="M398.311 225.678C398.317 227.51 397.915 230.494 396.159 229.902C393.891 229.138 397.285 227.148 395.363 222.73C393.263 217.904 386.767 217.594 384.725 223.048C383.813 225.48 384.407 226.582 383.251 226.474C381.341 226.296 381.893 218.972 387.435 217.07C392.929 215.186 398.293 219.46 398.313 225.676L398.311 225.678Z" fill="#101828"/>
<path d="M413.731 220.18C413.699 222.134 412.055 226.082 410.383 225.002C409.585 224.486 409.895 223.84 410.303 223.17C414.617 216.09 404.001 209.874 399.345 216.038C398.899 216.63 398.669 217.99 397.711 217.432C396.477 216.714 398.227 211.432 404.285 211.056C409.065 210.76 413.811 215.12 413.729 220.18H413.731Z" fill="#101828"/>
<path d="M400.697 246.338C409.035 254.998 417.143 270.942 415.123 271.66C413.651 272.182 414.207 269.548 399.823 246.836C399.103 245.826 399.261 244.846 400.697 246.338Z" fill="#101828"/>
<path d="M439.589 212.688C439.829 217.868 435.241 218.424 436.561 215.198C438.109 211.41 436.321 207.708 432.457 206.512C428.989 205.438 427.549 208.908 426.481 207.468C425.597 206.278 428.395 203.316 432.657 203.922C436.523 204.472 439.787 208.464 439.589 212.688Z" fill="#101828"/>
<path d="M400.58 224.602C399.624 221.892 400.982 222.026 408.39 220.02C408.828 219.902 409.582 219.224 409.704 220.298C409.974 222.65 410.422 221.892 400.58 224.602Z" fill="#101828"/>
<path d="M415.442 220.538C415.004 218.864 415.204 217.8 417.156 217.55C418.632 217.36 420.06 216.688 421.538 216.394C421.974 216.308 422.872 215.52 423.012 216.672C423.29 218.948 423.092 218.388 415.442 220.538Z" fill="#101828"/>
<path d="M435.884 213.684C436.004 214.68 435.818 215.018 430.984 216.154C430.626 216.238 429.844 216.87 429.748 215.994C429.68 215.356 429.188 214.314 430.466 214.002C434.962 212.902 436.124 211.85 435.884 213.684Z" fill="#101828"/>
<path d="M454.053 231.894C452.659 236.556 452.307 235.344 456.443 237.392C457.081 237.708 457.561 238.15 457.161 238.906C456.209 240.702 453.725 237.416 452.299 238.228C450.855 239.05 451.183 243.048 449.351 242.372C447.081 241.534 452.985 236.962 446.403 235.24C444.851 234.834 445.001 232.51 447.359 233.408C448.431 233.816 449.669 234.718 450.587 234.444C451.939 234.04 451.581 229.946 453.455 230.42C454.093 230.58 453.933 231.216 454.053 231.894Z" fill="#101828"/>
<path d="M261.4 344.218C199.6 344.218 201.596 348.522 201.314 334.138C201.078 322.144 199.904 257.238 200.556 246.638C200.804 242.614 202.07 242.164 227.014 242.654C260.644 243.316 272.516 242.154 342.286 242.972C346.15 243.018 347.28 243.25 347.386 246.916C348.698 291.936 348.688 300.628 348.9 336.17C348.938 342.506 347.944 342.144 343.202 342.226C286.74 343.198 291.126 342.664 291.482 344.576C293.8 356.966 292.636 358.032 295.706 357.884C301.124 357.624 303.75 361.508 303.158 362.784C302.676 363.818 303.198 363.518 273.394 364.02C248.81 364.432 249.16 364.66 248.81 363.582C248.074 361.316 252.436 358.768 257.696 358.602C260.126 358.526 258.49 358.442 261.4 344.218ZM209.402 260.504C206.572 260.5 207.786 260.464 208.486 321.148C208.524 324.496 208.486 323.566 213.666 323.42C239.604 322.682 319.336 322.126 338.9 322.066C341.53 322.058 340.294 322.106 340.334 304.016C340.34 300.988 340.374 302.42 260.086 302.74C226.518 302.874 215.72 303.01 212.246 302.748C209.884 302.57 210.064 301.528 212.216 301.37C217.832 300.958 241.512 300.57 338.742 300.27C341.452 300.262 340.116 300.31 340.096 261.5C340.096 260.486 339.02 260.206 336.716 260.28C328.914 260.53 304.698 260.61 209.404 260.504H209.402ZM237.334 331.07C202.032 331.436 203.376 330.354 203.586 332.584C204.158 338.682 203.11 341.772 207.65 342.186C209.324 342.34 208.012 342.16 343.522 339.596C347.466 339.522 346.112 337.246 346.352 330.67C346.432 328.478 354.242 329.858 237.336 331.068L237.334 331.07ZM318.34 258.232C341.65 258.192 340.29 258.432 340.096 256.678C339.686 252.974 340.894 251.584 338.742 251.618C329.778 251.76 245.264 251.47 236.34 251.458C206.576 251.418 207.356 250.424 207.612 252.852C208.172 258.156 206.894 259.188 209.246 259.148C209.366 259.146 295.588 258.27 318.34 258.232ZM286.224 346.052C285.906 344.338 283.87 344.896 283.794 346.212C283.384 353.184 291.126 372.39 286.224 346.052Z" fill="#101828"/>
<path d="M333.202 268.272C333.142 295.406 334.038 295.244 330.772 295.248C295.708 295.288 295.83 296.444 295.788 293.416C295.412 266.64 294.154 266.232 297.302 266.242C333.282 266.362 333.21 264.486 333.202 268.272ZM298.896 268.272C296.664 268.266 297.7 268.232 297.78 291.94C297.788 294.052 297.74 293.196 329.776 293.294C332.048 293.302 331.052 293.334 331.09 269.308C331.094 267.036 330.814 268.352 298.896 268.272Z" fill="#101828"/>
<path d="M219.006 290.864C217.372 290.824 217.372 289.12 218.926 289.032C227.138 288.562 270.326 287.956 284.034 287.956C285.11 287.956 286.254 287.838 286.346 288.912C286.454 290.188 285.23 290.156 283.916 290.188C227.662 291.558 218.37 290.826 219.008 290.866L219.006 290.864Z" fill="#101828"/>
<path d="M271.002 269.636C272.764 269.766 272.762 270.066 272.796 270.702C272.872 272.136 272.876 272.094 247.494 272.056C216.852 272.012 216.678 271.896 216.734 270.662C216.762 270.056 216.894 269.744 219.502 269.586C222.724 269.39 268.358 269.44 271.004 269.634L271.002 269.636Z" fill="#101828"/>
<path d="M268.019 275.908C269.795 276.042 269.785 276.346 269.769 276.998C269.725 278.914 269.513 278.094 221.557 278.034C220.645 278.034 217.329 277.95 217.373 276.878C217.419 275.762 217.493 275.882 232.195 275.722C232.195 275.722 265.451 275.716 268.019 275.908Z" fill="#101828"/>
<path d="M261.02 316.873C258.674 316.731 258.462 316.203 258.61 314.573C259.018 310.111 256.976 307.869 260.642 307.759C284.07 307.059 274.508 307.527 284.35 307.361C286.622 307.323 285.796 308.557 285.984 315.011C286.024 316.359 285.796 316.731 283.256 316.801C281.29 316.855 262.972 316.993 261.02 316.875V316.873ZM268.054 309.473C259.368 309.411 259.688 308.835 260.006 313.577C260.166 315.967 259.926 315.175 279.65 315.011C284.352 314.973 284.272 314.971 284.232 310.269C284.224 309.319 284.284 309.063 282.08 309.019C280.4 308.985 272.118 309.503 268.054 309.473Z" fill="#101828"/>
<path d="M218.854 284.072C216.41 283.894 216.848 282.6 218.46 282.394C221.65 281.986 233.076 282.12 274.192 282.02C275.986 282.016 277.178 282.1 277.14 283.136C277.096 284.372 275.864 284.212 271.164 284.212C247.058 284.212 221.544 284.27 218.854 284.074V284.072Z" fill="#101828"/>
<path d="M275.784 333.5C279.37 333.652 279.212 339.02 275.544 338.958C271.998 338.9 271.838 333.332 275.784 333.5Z" fill="#101828"/>
<path d="M216.377 253.41C216.297 254.206 214.029 255.48 216.177 257.196C216.377 257.356 215.661 258.51 215.021 257.754C212.995 255.358 211.747 259.552 210.599 257.994C209.517 256.524 213.109 256.082 211.117 254.608C210.041 253.812 211.465 252.344 212.313 253.412C213.967 255.5 215.501 251.258 216.377 253.41Z" fill="#101828"/>
<path d="M222.232 255.362C222.072 257.434 219.548 257.512 219.364 255.562C219.19 253.726 221.714 253.49 222.232 255.362Z" fill="#101828"/>
<path d="M135.688 285.008C126.204 284.33 103.37 277.37 93.8502 273.932C89.7842 272.462 89.7842 271.78 90.1442 269.31C92.7582 251.418 102.998 226.766 110.306 210.22C112.504 205.242 112.538 205.16 117.876 205.956C130.101 207.767 142.003 211.324 153.218 216.516C158.476 218.948 160.152 218.986 159.076 221.576C141.156 264.692 139.512 286.364 135.686 285.01L135.688 285.008ZM115.048 208.146C113.812 207.708 95.2762 253.242 92.6942 268.79C92.4102 270.502 92.1722 270.836 102.496 274.13C112.652 277.37 122.87 280.276 133.336 282.298C134.732 282.568 135.334 282.378 135.726 280.864C151.708 219.316 160.422 222.708 153.576 219.422C140.37 213.082 122.26 208.982 115.048 208.146Z" fill="#101828"/>
<path d="M143.1 298.516C133.538 297.758 110.5 290.92 100.106 286.922C96.5984 285.572 97.2784 285.208 98.2744 278.594C98.5144 277 101.03 277.12 100.704 279.232C99.9624 284.056 99.9504 284.084 104.53 285.726C119.442 291.076 141.112 296.57 142.502 295.846C143.26 295.452 143.28 293.65 143.578 292.46C156.194 241.896 165.972 235.12 162.584 233.648C157.166 231.294 156.608 231.098 157.364 229.584C158.042 228.23 158.082 229.102 165.572 232.334C168.8 233.726 166.158 232.53 154.056 269.152C144.722 297.4 145.37 299.196 143.098 298.518L143.1 298.516Z" fill="#101828"/>
<path d="M120.348 234.842C123.456 235.16 140.89 239.432 139.992 242.094C139.642 243.132 138.598 242.808 137.84 242.612C133.104 241.392 120.624 237.16 119.99 236.914C119.39 236.682 118.7 236.394 118.834 235.56C118.976 234.68 119.75 234.842 120.348 234.842Z" fill="#101828"/>
<path d="M144.177 227.87C141.945 227.67 128.599 223.122 126.845 222.53C125.889 222.208 124.211 222.13 124.533 220.698C124.847 219.302 126.367 220.014 127.243 220.18C146.719 223.886 147.405 227.87 144.177 227.87Z" fill="#101828"/>
<path d="M132.54 257.794C130.946 257.634 131.802 257.86 115.008 252.336C113.93 251.982 112.698 251.54 112.976 250.582C113.694 248.112 131.298 254.336 133.416 255.762C134.608 256.564 134.652 257.874 132.54 257.794Z" fill="#101828"/>
<path d="M107.518 246.158C112.938 246.426 112.18 253.07 107.518 252.972C102.736 252.87 102.498 245.91 107.518 246.158Z" fill="#101828"/>
<path d="M113.216 231.096C118.754 231.116 118.158 238.052 113.376 237.91C108.834 237.774 108.236 231.078 113.216 231.096Z" fill="#101828"/>
<path d="M118.874 216.274C124.134 216.354 123.894 223.026 119.074 223.088C114.532 223.146 113.734 216.196 118.874 216.274Z" fill="#101828"/>
<path d="M171.908 161.088C139.076 161.03 136.466 161.688 136.446 156.388L136.128 119.888C136.148 116.382 136.686 115.914 156.968 115.744C160.634 115.714 162.674 115.706 163.902 111.918C165.346 107.458 165.01 101.554 167.05 96.6582C169.392 91.0382 176.568 91.4022 179.76 95.9402C181.948 99.0502 182.47 102.514 182.908 112.994C183.028 115.862 185.06 114.788 194.742 114.628C199.524 114.548 205.052 113.99 204.902 120.328C204.86 122.158 205.32 124.09 203.746 125.628C203.342 126.02 203.868 126.38 204.184 126.542C205.468 127.204 205.41 128.136 205.26 133.674C205.176 136.782 201.986 136.514 203.826 137.658C205.056 138.422 205.504 139.61 205.3 140.966C204.948 143.318 205.654 145.942 203.468 147.82C202.31 148.814 205.06 148.656 204.942 152.88C204.66 162.96 206.656 161.15 171.91 161.088H171.908ZM197.888 157.86C201.234 157.852 202.186 156.824 202.27 153.596C202.346 150.728 202.35 149.316 198.086 149.096C191.354 148.746 189.34 149.492 189.36 147.58C189.374 146.306 189.878 145.89 199.68 146.106C201.354 146.142 201.984 145.348 202.15 143.874C202.912 137.136 199.004 138.838 190.914 138.256C188.644 138.092 188.524 135.588 191.074 135.426C197.37 135.03 201.47 136.462 202.112 133.076C204.052 122.836 189.214 130.646 189.162 125.824C189.13 122.836 201.89 127.34 202.192 122.158C202.446 117.778 201.076 117.384 188.844 117.894C183.984 118.096 179.332 118.69 179.002 113.63C178.424 104.784 178.762 101.478 177.208 98.3702C175.854 95.6602 171.664 94.5042 170.354 98.8102C168.392 105.26 169.078 109.526 167.246 113.55C164.416 119.766 159.198 119.404 151.626 119.13C148.318 119.01 150.842 119.45 150.192 153.874C150.118 157.778 150.232 157.704 154.136 157.818C155.57 157.86 156.062 157.54 156.088 156.024C156.162 151.96 156.57 130.046 156.884 126.02C156.964 124.984 158.23 124.668 158.518 125.98C158.904 127.736 158.518 156.462 158.518 156.502C158.478 158.456 158.398 157.956 197.886 157.856L197.888 157.86ZM147.086 121.322C147.126 118.612 146.13 119.258 141.588 119.37C138.122 119.456 138.92 120.566 139.118 130.25C139.68 157.782 138.68 157.46 142.026 157.542C146.688 157.658 147.306 158.022 147.286 156.108C147.286 156.028 147.008 126.5 147.086 121.322Z" fill="#101828"/>
</svg>
