<svg width="560" height="400" viewBox="0 0 560 400" fill="none" xmlns="http://www.w3.org/2000/svg">
<rect width="560" height="400" fill="white"/>
<path fill-rule="evenodd" clip-rule="evenodd" d="M441.794 300.924L466.964 337.13C468.734 339.686 466.056 342.528 462.596 342.528C358.538 342.528 283.93 342.652 230.392 342.742C100.286 342.96 94.6159 342.97 93.1159 340.472C93.0482 340.356 92.9848 340.237 92.9259 340.116L92.9159 340.098L92.8739 340.014C92.7812 339.845 92.7029 339.669 92.6399 339.486C92.1939 338.048 93.7519 335.986 108.126 316.958L112.756 310.828L109.602 310.834L108.888 311.776C91.8239 334.372 89.4579 337.506 90.0839 339.832C90.1839 340.206 90.3639 340.56 90.5699 340.972L90.6899 341.21C91.8399 343.52 94.5219 345 97.5299 345H462.596C468.282 345 471.866 339.892 468.982 335.69L446.138 302.854L444.934 302.316C443.762 301.792 442.706 301.318 441.794 300.924ZM440.714 295.056L440.248 294.388C439.512 294.418 439.038 294.476 439.038 294.656C439.628 294.776 440.186 294.908 440.714 295.056ZM348.036 280.318H316.956C317.158 281.556 317.32 282.316 317.58 282.788H348.088C348.068 282.022 348.05 281.198 348.036 280.318ZM262.604 282.788H220.79C220.791 281.965 220.77 281.141 220.726 280.318H262.866C262.766 281.14 262.678 281.964 262.604 282.788Z" fill="#101828"/>
<path d="M201.598 291.443C203.862 292.477 204.77 295.521 201.556 297.005C188.988 302.811 136.218 302.443 135.884 294.451C135.518 285.675 190.834 286.523 201.598 291.443ZM200.404 294.079C197.272 291.855 174.284 287.945 143.962 292.595C119.49 296.349 188.004 301.411 200.404 294.079Z" fill="#4A8DD0"/>
<path fill-rule="evenodd" clip-rule="evenodd" d="M169.55 249.24C169.592 249.994 169.642 250.706 169.7 251.38C149.26 251.426 122.332 251.442 115.848 250.848C113.968 250.676 113.792 250.118 115.968 249.958C120.668 249.616 136.352 249.328 169.55 249.24Z" fill="#4A8DD0"/>
<path d="M123.732 299.764C114.422 299.594 114.834 287.522 124.062 287.858C131.89 288.142 132.508 299.924 123.732 299.764Z" fill="#4A8DD0"/>
<path fill-rule="evenodd" clip-rule="evenodd" d="M169.372 244.454C164.748 244.444 159.752 244.472 154.42 244.558C112.412 245.224 107.078 244.612 106.568 245.902C106.464 246.164 106.56 246.504 106.588 246.948C106.736 249.264 106.788 251.018 106.83 252.348C106.946 256.098 106.956 256.442 108.69 256.382C124.15 255.84 148.932 255.81 170.346 255.836C170.516 256.578 170.716 257.242 170.952 257.834C142.688 257.884 109.904 258.018 107.442 258.028L107.294 258.03C105.686 258.07 104.416 258.86 103.216 259.76C99.458 262.578 107.13 262.478 144.59 262C153.052 261.892 163.032 261.764 174.746 261.646C175.94 262.052 177.4 262.206 179.188 262.186C180.972 262.166 182.756 262.177 184.54 262.22C187.688 262.284 192.186 262.376 214.574 262.116C214.556 264.804 214.502 267.752 214.244 267.876C213.5 268.234 199.168 268.2 181.224 268.156C149.91 268.082 107.596 267.98 107.292 269.894C106.868 272.57 107.458 273.694 110.218 273.644C116.11 273.538 199.456 273.072 206.83 273.438C208.518 273.522 208.436 275.99 206.788 275.992C181.37 276.034 119.942 275.906 108.694 275.828C106.94 275.816 106.116 275.852 105.726 275.46C105.226 274.958 105.436 273.752 105.316 270.842L105.312 270.844C105.306 270.675 105.304 270.506 105.306 270.336C105.306 269.646 105.306 269.042 104.786 268.934C104.008 268.774 102.046 269.68 97.236 273.11C96.036 273.966 95.628 272.902 96.454 272.204C98.33 270.622 99.492 269.466 100.848 268.626C106.028 265.412 114.04 266.764 175.35 266.394C179.09 266.372 182.836 266.326 186.45 266.282C196.77 266.158 206.012 266.046 210.988 266.518C212.8 266.688 212.924 263.718 211.07 263.798C208.49 263.908 203.27 263.878 193.63 263.826C180.67 263.754 159.718 263.638 126.448 263.756C121.621 263.78 116.794 263.844 111.968 263.948C98.736 264.206 92.972 264.316 97.526 261.366C102.15 258.368 104.014 257.752 104.734 256.486C105.51 255.124 104.962 253.01 105.106 246.37C105.148 244.392 101.646 245.096 100.12 246.246C98.8024 247.222 97.4613 248.166 96.098 249.076L95.052 249.79C91.506 252.218 96.494 243.66 105.558 243.528C133.444 243.12 154.154 242.85 169.338 242.776C169.348 243.35 169.358 243.91 169.372 244.454Z" fill="#4A8DD0"/>
<path d="M217.46 277.886C194.226 278.164 112.566 278.474 107.746 278.834C105.19 279.024 105.266 280.07 105.15 286.58C104.748 309.404 103.956 309.084 107.622 309.074C218.736 308.786 218.734 309.28 218.736 307.096C218.756 277.844 219.314 277.864 217.458 277.886H217.46ZM215.77 304.088C215.77 305.27 180.504 305.902 109.97 305.984C106.756 305.988 108.468 305.242 107.952 284.396C107.866 280.936 107.788 281.876 144.62 281.676C215.77 281.292 215.77 281.388 215.77 283.118V304.088Z" fill="#4A8DD0"/>
<path d="M288.776 253.702C283.132 253.682 282.72 245.112 288.858 245.092C294.668 245.072 294.668 253.724 288.776 253.702Z" fill="#101828"/>
<path d="M185.944 118.24C187.962 118.446 188.01 120.966 189.94 119.27C193.12 116.478 194.358 119.076 192.454 120.506C189.132 123 194.262 123.182 192.784 125.246C192.164 126.108 191.126 125.42 190.436 124.75C188.764 123.13 188.424 124.638 185.946 125.944C185 126.444 183.912 125.83 184.462 124.338C184.764 123.52 187.708 122.406 185.038 120.094C184.264 119.424 184.996 118.24 185.944 118.24Z" fill="#101828"/>
<path d="M200.692 119.93C203.906 119.93 203.864 124.42 200.816 124.42C197.974 124.42 197.52 119.93 200.692 119.93Z" fill="#101828"/>
<path fill-rule="evenodd" clip-rule="evenodd" d="M347.244 101.97C280.83 101.702 176.416 102.328 173.832 102.584C167.936 103.154 167.948 104.762 168.144 129.158C168.174 133.064 168.21 137.552 168.228 142.712C168.27 159.316 168.846 207.56 169.094 221.402C169.186 226.452 169.222 230.906 169.254 234.828C169.432 257.304 169.472 262.336 179.188 262.23C180.972 262.209 182.756 262.221 184.54 262.264C188.46 262.344 194.47 262.468 234.478 261.9C261.424 261.5 265.668 260.856 266.044 261.784C266.134 262.002 266.008 262.308 265.914 262.724C264.842 267.38 263.03 277.474 262.578 282.994C262.442 284.51 262.082 284.522 260.342 284.588C258.912 284.64 256.548 284.73 252.608 285.714C249.436 286.496 246.882 288.186 245.646 291.44C244.646 294.142 245.71 294.118 275.946 293.396C279.37 293.316 283.168 293.224 287.38 293.128C328.03 292.172 331.658 292.99 332.588 291.764C332.7 291.618 332.772 291.442 332.864 291.232C333.73 289.172 329.98 283.898 320.586 283.528C319.208 283.476 318.444 283.498 317.958 283.14C317.294 282.652 317.148 281.462 316.672 278.42C314.508 264.038 313.33 261.218 314.018 260.65C314.206 260.494 314.536 260.508 315.024 260.498L315.02 260.5C341.434 260.038 360.184 260.028 373.474 260.022C401.68 260.008 405.286 260.006 405.37 255.72C405.392 254.85 405.228 253.992 405.062 253.132C404.908 252.324 404.752 251.514 404.752 250.694C404.762 216.348 404.776 190.066 404.744 169.934C400.656 170.734 396.494 171.092 392.33 171.002C392.254 189.765 392.232 208.528 392.266 227.292L392.268 227.294C390.034 227.306 386.598 227.322 382.19 227.34C338.886 227.534 201.534 228.146 182.688 229.642C181.016 229.766 180.962 223.688 180.634 187.036C180.477 168.594 180.283 150.153 180.052 131.712C180.044 131.132 180.032 130.722 180.216 130.436C180.932 129.32 184.588 130.09 202.752 130.022L344.598 129.09C344.438 128.21 344.302 127.324 344.188 126.436L181.33 127.426C179.918 127.426 179.918 127.306 179.918 124.52C179.918 122.994 179.916 120.67 179.682 117.126C179.6 115.646 180.136 115.354 181.494 115.396C185.334 115.506 209.954 115.598 241.1 115.716C273.676 115.836 313.39 115.984 343.924 116.206C344.297 111.319 345.417 106.518 347.244 101.97ZM307.89 286.168C308.92 285.962 308.894 285.126 308.856 283.996C308.846 283.758 308.841 283.521 308.84 283.284L308.674 281.968C307.972 276.41 307.17 270.046 305.874 264.744C305.296 262.272 298.91 260.418 303.772 276.65C306.696 286.408 306.862 286.374 307.89 286.168ZM173.494 247.334C173.872 254.748 174.028 257.81 178.732 258.688L178.734 258.69C178.888 258.718 179.028 258.746 179.168 258.768C182.064 259.258 185.14 258.69 317.574 256.136C323.126 256.028 341.992 255.908 360.76 255.788C377.644 255.68 394.448 255.574 401.414 255.476V239.49C294.97 239.972 244.606 240.862 216.558 241.358C194.212 241.754 186.032 241.898 174.942 241.386C173.54 241.302 173.17 241.756 173.252 243.074C173.356 244.632 173.428 246.048 173.492 247.334H173.494Z" fill="#101828"/>
<path d="M221.416 139.827C250.668 139.787 250.68 138.879 250.584 141.599C250.256 150.953 251.572 152.179 248.36 152.187C239.956 152.207 206.214 152.787 194.1 153.011C191.628 153.057 192.388 152.639 192.04 142.259C191.922 138.759 191.834 139.869 221.414 139.829L221.416 139.827Z" fill="#101828"/>
<path d="M345.796 192.976C346.412 217.284 346.208 216.2 343.324 216.172C328.122 216.022 327.29 217.366 327.298 214.482C327.34 200.474 327.262 175.55 327.628 167.186C327.796 163.354 327.174 164.66 343.736 164.26C347.69 164.164 345.216 170.11 345.796 192.976ZM328.986 213.37C328.982 215.306 329.152 214.844 340.646 214.73C343.9 214.698 343.896 214.688 343.9 211.352C343.92 196.768 344.044 182.142 344.106 167.558C344.114 165.456 344.188 165.972 331.17 165.952C328.698 165.948 328.998 165.582 328.986 168.012C328.924 181.896 329.028 194.542 328.986 213.37Z" fill="#101828"/>
<path fill-rule="evenodd" clip-rule="evenodd" d="M354.42 151.454C354.036 151.966 354.046 152.832 353.996 154.29C353.71 162.54 353.696 183.47 353.682 200.67C353.678 205.548 353.676 210.124 353.666 214.028C353.66 216.604 354.07 216.588 359.58 216.372C363.065 216.222 366.552 216.157 370.04 216.176C372.592 216.24 372.754 216.244 372.164 186.836C371.99 178.14 372.092 171.384 372.212 166.188C371.612 165.897 371.019 165.593 370.432 165.276L370.388 175.304C370.334 186.85 370.28 198.392 370.268 209.95C370.268 212.778 369.184 214.206 367.014 214.234C364.698 214.266 362.842 214.316 361.356 214.356C355.458 214.516 355.35 214.518 355.354 212.544V212.548C355.374 201.074 355.36 191.422 355.348 182.526C355.334 172.99 355.322 164.32 355.354 155.198C355.36 153.768 355.296 153.108 355.482 152.81C355.122 152.363 354.768 151.911 354.42 151.454Z" fill="#101828"/>
<path d="M338.792 222.35C291.702 222.35 291.742 222.598 291.702 221.402C291.66 220.208 291.002 220.392 362.646 220.372C385.346 220.366 385.4 220.248 385.346 221.484C385.28 223.01 338.792 222.39 338.792 222.35Z" fill="#101828"/>
<path d="M303.238 177.24C320.046 177.464 320.124 176.539 320.088 178.843C319.53 216.045 320.624 215.982 318.192 216.006C301.714 216.166 301.662 216.872 301.672 214.522C301.796 181.192 301.136 177.207 303.238 177.235V177.24ZM303.28 213.287C303.272 215.183 303.238 214.419 317.082 214.481C319.1 214.491 318.338 214.524 318.482 180.082C318.488 178.432 318.564 179.192 304.228 179.008C302.414 178.984 303.424 178.969 303.28 213.287Z" fill="#101828"/>
<path d="M291.33 180.615C291.33 145.389 291 145.411 292.278 145.389C293.678 145.369 293.38 145.389 293.144 202.861C293.092 215.551 293.268 215.461 292.362 215.509C290.96 215.583 291.414 217.157 291.414 180.573H291.332L291.33 180.615Z" fill="#101828"/>
<path d="M196.696 167.968C196.778 166.938 196.698 167.444 255.734 166.484C257.876 166.45 259.172 166.03 259.236 167.266C259.294 168.378 259.318 168.26 248.484 168.296C205.966 168.438 196.574 169.492 196.696 167.968Z" fill="#101828"/>
<path d="M228.254 193.016C197.066 193.14 197.066 193.264 197.066 192.316C197.066 191.162 197.066 191.466 243.002 190.874C259.688 190.658 259.66 190.38 259.646 191.614C259.626 193.388 259.688 192.892 228.252 193.014L228.254 193.016Z" fill="#101828"/>
<path d="M227.72 180.986C195.008 180.986 196.346 181.232 196.408 180.244C196.47 179.294 196.408 179.594 255.446 178.76C257.96 178.724 258.908 178.43 258.99 179.54C259.156 181.808 230.852 180.616 227.72 180.986Z" fill="#101828"/>
<path d="M194.39 179.586C194.472 182.428 190.294 182.512 190.27 179.71C190.25 177.196 194.142 176.702 194.39 179.586Z" fill="#101828"/>
<path d="M192.948 193.84C190.434 193.88 189.9 189.888 192.866 189.678C195.75 189.474 195.502 193.8 192.948 193.84Z" fill="#101828"/>
<path d="M194.554 167.35C194.554 170.152 190.692 170.356 190.434 167.556C190.196 164.96 194.554 164.508 194.554 167.35Z" fill="#101828"/>
<path d="M411.344 73.3341C412.14 70.6181 412.442 71.7221 402.692 67.4841C401 66.7481 400.88 66.2081 401.62 64.5581C408.594 49.0301 433.788 58.4281 428.852 75.4781C428.28 77.4541 427.778 77.7061 425.844 76.9601C423.41 76.0201 420.942 75.2261 418.592 74.1201C417.892 73.7881 416.946 73.0881 416.326 74.4481C415.422 76.4281 415.42 76.5901 417.026 77.4561C430.298 84.6161 438.66 95.6241 442.116 110.21C454.492 162.446 382.672 192.73 353.25 146.794C343.406 131.426 342.394 111.622 353.044 94.5141C356.966 88.2141 359.504 87.7701 357.452 86.5601C356.624 86.0721 356.252 84.2461 354.732 85.7801C346.75 93.8221 346.71 93.1861 345.05 90.8861C334.66 76.4961 354.482 59.2061 366.968 71.3581C368.492 72.8421 367.796 73.5441 360.54 80.1741C359.592 81.0401 359.638 81.6541 360.458 82.4821C362.034 84.0781 361.986 84.0521 363.712 82.6461C376.298 72.4141 384.794 75.2381 381.716 70.4921C380.888 69.2161 378.668 72.3861 377.472 68.8441C376.402 65.6721 374.706 63.6381 377.06 62.8281C380.842 61.5281 384.684 60.6201 388.678 60.1921C389.42 60.1121 389.992 60.4401 390.12 61.1401C391.318 67.7001 391.192 68.5601 388.884 68.6801C388.06 68.7221 387.266 68.8901 387.648 69.9601C387.928 70.7441 387.194 72.2561 389.132 72.0601C406.304 70.3241 410.286 76.9261 411.338 73.3401L411.344 73.3341ZM394.824 166.074C419.79 166.218 440.39 145.474 440.308 120.714C440.226 95.7061 419.832 75.4781 394.494 75.5181C369.444 75.5581 349.052 95.3341 349.052 120.96C349.052 145.844 369.568 165.93 394.824 166.074ZM427.124 71.7281C427.144 60.1101 412.294 53.5281 403.764 64.6421C402.44 66.3681 402.952 65.5381 423.91 73.9521C427.12 75.2401 427.118 75.1881 427.124 71.7281ZM346.126 88.5381C347.064 90.1101 347.116 90.1061 348.35 88.9081C365.436 72.3341 366.596 73.1361 364.624 71.9761C351.284 64.1201 340.216 78.6441 346.126 88.5381Z" fill="#4A8DD0"/>
<path d="M394.616 161.006C372.204 161.176 353.258 142.466 353.828 119.56C354.368 97.8901 372.738 79.9441 395.274 80.3001C417.274 80.6441 435.17 98.7561 435.032 120.714C434.884 143.95 415.834 160.846 394.616 161.006ZM394.204 158.122C414.31 158.082 431.556 142.136 431.942 121.578C432.338 100.402 415.874 83.4421 395.068 83.0581C390.075 82.936 385.108 83.8053 380.454 85.6157C375.799 87.4262 371.55 90.1417 367.952 93.6053C364.355 97.0688 361.479 101.212 359.493 105.794C357.507 110.376 356.45 115.307 356.382 120.3C356.074 140.9 372.862 158.164 394.202 158.12L394.204 158.122Z" fill="#4A8DD0"/>
<path d="M391.28 116.14C390.496 116.216 390.28 116.33 387.324 94.8401C387.244 94.2621 386.994 93.6041 387.818 93.4001C388.642 93.1921 388.804 93.9341 388.89 94.4701C392.22 115.536 392.638 116.01 391.28 116.14Z" fill="#4A8DD0"/>
<path d="M397.912 124.264C399.344 125.012 398.554 124.39 410.562 132.248C411.308 132.736 412.126 133.36 411.634 134.06C411.056 134.882 410.064 134.272 408.174 132.988C396.986 125.4 398.012 126.01 397.05 125.16C396.486 124.662 397.092 123.832 397.914 124.262L397.912 124.264Z" fill="#4A8DD0"/>
<path d="M369.732 106.252C369.156 108.024 368.058 106.808 363.634 103.616C362.772 102.994 363.588 101.73 364.294 102.05C365.89 102.774 369.156 104.398 369.732 106.252Z" fill="#4A8DD0"/>
<path d="M361.04 127.716C360.298 127.84 359.476 127.796 359.392 126.81C359.312 125.862 360.134 125.746 360.834 125.698C365.04 125.41 365.846 125.41 365.902 126.398C365.968 127.594 364.748 127.386 361.04 127.716Z" fill="#4A8DD0"/>
<path d="M423.456 116.964C422.674 116.884 422.046 116.884 421.85 116.184C421.632 115.404 422.3 115.144 422.838 114.988C426.16 114.028 427.942 113.588 428.236 114.782C428.52 115.936 427.288 115.976 423.456 116.966V116.964Z" fill="#4A8DD0"/>
<path d="M423.25 140.613C422.962 142.715 419.722 140.633 418.018 139.419C417.078 138.749 418.018 137.611 418.678 137.853C419.828 138.275 422.674 139.501 423.252 140.613H423.25Z" fill="#4A8DD0"/>
<path d="M400.138 154.29C400.096 154.95 400.136 155.67 399.272 155.774C398.404 155.878 398.2 155.156 398.2 154.496C398.2 153.716 397.006 149.676 398.488 149.51C399.476 149.47 399.394 150.17 400.136 154.29H400.138Z" fill="#4A8DD0"/>
<path d="M373.852 149.18C372.946 149.13 372.574 148.232 373.192 147.368C373.932 146.336 374.844 145.434 375.706 144.526C376.368 143.826 377.938 144.532 377.066 145.72C374.82 148.78 374.47 149.216 373.852 149.18Z" fill="#4A8DD0"/>
<path d="M386.082 86.3483C386.126 85.7283 386.18 85.3083 386.748 85.1983C387.534 85.0463 387.744 85.6923 387.86 86.2703C388.602 89.9303 388.602 90.6423 387.736 90.7603C386.278 90.9623 386.048 86.8163 386.082 86.3483Z" fill="#4A8DD0"/>
<path d="M410.148 95.3345C412.656 92.2405 412.996 91.7405 413.774 92.1625C414.894 92.7685 413.708 93.7085 411.178 96.6945C410.762 97.1865 409.282 96.4045 410.148 95.3345Z" fill="#4A8DD0"/>
<path d="M342.334 293.748C360.38 293.748 434.038 290.786 443.808 291.234C444.92 291.286 444.92 292.472 443.808 292.594C439.936 293.016 340.202 296.34 339.656 294.778C339.21 293.498 339.63 293.528 347.896 288.762C349.176 288.024 347.896 288.152 431.53 286.496C435.774 286.412 435.732 286.33 435.898 285.302C436.43 282.006 434.412 283.886 407.182 284.396C405.452 284.428 351.852 285.92 351.81 285.92C349.584 285.962 349.73 286.044 349.708 271.582C349.702 267.626 349.634 270.134 434.908 267.75C437.504 267.678 437.082 269.358 436.968 272.818C436.936 273.808 435.864 274.176 435.608 272.9C435.21 270.92 436.102 269.518 433.63 269.646C419.002 270.404 419.952 269.864 358.812 270.964C351.602 271.094 351.634 270.964 351.56 272.364C351.328 276.77 351.354 276.64 355.638 276.69C361.86 276.762 430.992 274.84 436.8 274.672C442.28 274.512 448.83 278.504 448.336 279.492C448.048 279.986 447.926 279.816 443.556 277.926C439.356 276.108 443.488 275.586 352.836 278.586C351.888 278.618 351.552 278.874 351.518 279.864C351.37 284.024 351.394 284.086 355.474 283.984C376.242 283.466 427.326 281.512 434.7 281.512C437.502 281.512 434.658 277.846 436.718 277.846C437.912 277.846 437.17 278.3 437.666 286.25C437.83 288.886 437.79 287.71 412.864 288.558C342.128 290.96 354.608 287.446 342.332 293.75L342.334 293.748Z" fill="#4A8DD0"/>
<path d="M447.012 301.438C437.454 297.23 437.2 296.678 437.256 301.66C437.288 304.42 437.298 304.548 434.536 304.708C420.776 305.51 363.344 305.488 347.606 306.026C326.1 306.762 327.578 306.622 340.602 299.022C342.214 298.082 416.162 296.102 422.752 296.014C431.466 295.9 441.326 294.192 447.342 300.89C447.898 301.51 447.728 301.752 447.01 301.436L447.012 301.438ZM336.154 304.008C336.442 304.956 351.934 303.704 432.394 302.73C435.854 302.688 435.792 302.73 435.69 299.228C435.638 297.456 434.948 297.996 428.48 298.24C336.032 301.716 347.278 297.416 336.154 304.008Z" fill="#4A8DD0"/>
<path d="M341.8 310.31C340.852 310.31 339.348 310.598 339.328 309.322C339.308 308.046 339.368 307.694 430.502 307.55C435.322 307.542 436.554 306.89 436.518 308.498C436.472 310.434 341.842 310.31 341.802 310.31H341.8Z" fill="#4A8DD0"/>
</svg>
