<svg width="48" height="48" viewBox="0 0 48 48" fill="none" xmlns="http://www.w3.org/2000/svg">
<path d="M0 24C0 10.7452 10.7452 0 24 0C37.2548 0 48 10.7452 48 24C48 37.2548 37.2548 48 24 48C10.7452 48 0 37.2548 0 24Z" fill="#E1ECF7"/>
<path d="M24 20.0001V24.0001M24 28.0001H24.01M15 19.9415V28.0586C15 28.4013 15 28.5726 15.0505 28.7254C15.0951 28.8606 15.1682 28.9847 15.2646 29.0893C15.3737 29.2077 15.5234 29.2909 15.823 29.4573L23.223 33.5684C23.5066 33.726 23.6484 33.8047 23.7985 33.8356C23.9315 33.863 24.0685 33.863 24.2015 33.8356C24.3516 33.8047 24.4934 33.726 24.777 33.5684L32.177 29.4573C32.4766 29.2909 32.6263 29.2077 32.7354 29.0893C32.8318 28.9847 32.9049 28.8606 32.9495 28.7254C33 28.5726 33 28.4013 33 28.0586V19.9415C33 19.5989 33 19.4276 32.9495 19.2748C32.9049 19.1396 32.8318 19.0155 32.7354 18.9108C32.6263 18.7925 32.4766 18.7093 32.177 18.5429L24.777 14.4318C24.4934 14.2742 24.3516 14.1954 24.2015 14.1645C24.0685 14.1372 23.9315 14.1372 23.7985 14.1645C23.6484 14.1954 23.5066 14.2742 23.223 14.4318L15.823 18.5429C15.5234 18.7093 15.3737 18.7925 15.2646 18.9108C15.1682 19.0155 15.0951 19.1396 15.0505 19.2748C15 19.4276 15 19.5989 15 19.9415Z" stroke="#4A8DD0" stroke-width="2" stroke-linecap="round" stroke-linejoin="round"/>
</svg>
