<svg width="48" height="48" viewBox="0 0 48 48" fill="none" xmlns="http://www.w3.org/2000/svg">
<path d="M0 24C0 10.7452 10.7452 0 24 0C37.2548 0 48 10.7452 48 24C48 37.2548 37.2548 48 24 48C10.7452 48 0 37.2548 0 24Z" fill="#E1ECF7"/>
<path d="M33 22H15M28 14V18M20 14V18M21 28L23 30L27.5 25.5M19.8 34H28.2C29.8802 34 30.7202 34 31.362 33.673C31.9265 33.3854 32.3854 32.9265 32.673 32.362C33 31.7202 33 30.8802 33 29.2V20.8C33 19.1198 33 18.2798 32.673 17.638C32.3854 17.0735 31.9265 16.6146 31.362 16.327C30.7202 16 29.8802 16 28.2 16H19.8C18.1198 16 17.2798 16 16.638 16.327C16.0735 16.6146 15.6146 17.0735 15.327 17.638C15 18.2798 15 19.1198 15 20.8V29.2C15 30.8802 15 31.7202 15.327 32.362C15.6146 32.9265 16.0735 33.3854 16.638 33.673C17.2798 34 18.1198 34 19.8 34Z" stroke="#4A8DD0" stroke-width="2" stroke-linecap="round" stroke-linejoin="round"/>
</svg>
