<svg width="48" height="48" viewBox="0 0 48 48" fill="none" xmlns="http://www.w3.org/2000/svg">
<path d="M0 24C0 10.7452 10.7452 0 24 0C37.2548 0 48 10.7452 48 24C48 37.2548 37.2548 48 24 48C10.7452 48 0 37.2548 0 24Z" fill="#E1ECF7"/>
<path d="M28 19.9998V16.5005C28 15.6687 28 15.2529 27.8248 14.9973C27.6717 14.774 27.4346 14.6223 27.1678 14.5769C26.8623 14.5249 26.4847 14.6992 25.7295 15.0477L16.859 19.1418C16.1855 19.4527 15.8488 19.6081 15.6021 19.8491C15.3841 20.0622 15.2176 20.3224 15.1155 20.6097C15 20.9346 15 21.3055 15 22.0473V26.9998M28.5 26.4998H28.51M15 23.1998L15 29.7998C15 30.9199 15 31.48 15.218 31.9078C15.4097 32.2841 15.7157 32.5901 16.092 32.7818C16.5198 32.9998 17.0799 32.9998 18.2 32.9998H29.8C30.9201 32.9998 31.4802 32.9998 31.908 32.7818C32.2843 32.5901 32.5903 32.2841 32.782 31.9078C33 31.48 33 30.9199 33 29.7998V23.1998C33 22.0797 33 21.5197 32.782 21.0918C32.5903 20.7155 32.2843 20.4096 31.908 20.2178C31.4802 19.9998 30.9201 19.9998 29.8 19.9998L18.2 19.9998C17.0799 19.9998 16.5198 19.9998 16.092 20.2178C15.7157 20.4096 15.4097 20.7155 15.218 21.0918C15 21.5197 15 22.0797 15 23.1998ZM29 26.4998C29 26.776 28.7761 26.9998 28.5 26.9998C28.2239 26.9998 28 26.776 28 26.4998C28 26.2237 28.2239 25.9998 28.5 25.9998C28.7761 25.9998 29 26.2237 29 26.4998Z" stroke="#4A8DD0" stroke-width="2" stroke-linecap="round" stroke-linejoin="round"/>
</svg>
