<svg width="652" height="391" viewBox="0 0 652 391" fill="none" xmlns="http://www.w3.org/2000/svg">
<g clip-path="url(#clip0_311_12661)">
<path opacity="0.5" d="M130.88 259.995C148.152 259.995 164.717 266.856 176.93 279.069C189.143 291.282 196.005 307.847 196.005 325.119H130.88" fill="#429CC9"/>
<path d="M196.004 325.12C196.004 307.848 202.866 291.283 215.079 279.07C227.292 266.857 243.857 259.996 261.129 259.996V325.12" fill="#429CC9"/>
<path d="M130.88 390.239C139.432 390.239 147.901 388.555 155.802 385.282C163.703 382.009 170.883 377.212 176.93 371.165C182.977 365.117 187.774 357.938 191.047 350.037C194.32 342.136 196.005 333.667 196.005 325.115H130.88" fill="#429CC9"/>
<path d="M196.004 325.115C196.004 333.667 197.689 342.136 200.962 350.037C204.235 357.938 209.032 365.117 215.079 371.165C221.126 377.212 228.306 382.009 236.207 385.282C244.108 388.555 252.577 390.239 261.129 390.239V325.115" fill="#FFAE16"/>
</g>
<g clip-path="url(#clip1_311_12661)">
<path opacity="0.196" d="M651.12 0V65.1247H585.995L651.12 0Z" fill="#429CC9"/>
<path opacity="0.5" d="M520.87 65.1265H585.995V130.251L520.87 65.1265Z" fill="#429CC9"/>
<path d="M585.995 65.1265L651.12 130.251H585.995V65.1265Z" fill="#FFAE16"/>
</g>
<g clip-path="url(#clip2_311_12661)">
<path opacity="0.5" d="M390.872 260.247C390.872 251.71 392.553 243.257 395.82 235.37C399.087 227.483 403.875 220.317 409.911 214.281C415.948 208.244 423.114 203.456 431.001 200.189C438.888 196.922 447.341 195.241 455.878 195.241V260.247" fill="#429CC9"/>
<path d="M456.115 195.242C473.356 195.242 489.891 202.091 502.082 214.282C514.273 226.473 521.122 243.007 521.122 260.248H456.115" fill="#FFAE16"/>
<path opacity="0.5" d="M390.872 260.247C390.872 251.71 392.553 243.257 395.82 235.37C399.087 227.483 403.875 220.317 409.911 214.281C415.948 208.244 423.114 203.456 431.001 200.189C438.888 196.922 447.341 195.241 455.878 195.241V260.247" fill="#429CC9"/>
<path d="M456.116 195.242C473.357 195.242 489.892 202.091 502.083 214.282C514.274 226.473 521.123 243.007 521.123 260.248H456.116" fill="#FFAE16"/>
</g>
<g clip-path="url(#clip3_311_12661)">
<path opacity="0.5" d="M651.12 261.25C642.583 261.251 634.13 259.569 626.243 256.303C618.356 253.036 611.19 248.248 605.153 242.211C599.117 236.175 594.329 229.009 591.062 221.122C587.795 213.235 586.113 204.782 586.113 196.245L651.12 196.245" fill="#429CC9"/>
<path d="M586.114 196.008C586.114 178.767 592.963 162.232 605.154 150.041C617.345 137.85 633.88 131.001 651.121 131.001L651.121 196.008" fill="#FFAE16"/>
<path opacity="0.5" d="M651.12 261.25C642.583 261.251 634.13 259.569 626.243 256.303C618.356 253.036 611.19 248.248 605.153 242.211C599.117 236.175 594.329 229.009 591.062 221.122C587.795 213.235 586.113 204.782 586.113 196.245L651.12 196.245" fill="#429CC9"/>
<path d="M586.114 196.007C586.114 178.766 592.963 162.231 605.154 150.04C617.345 137.849 633.88 131 651.121 131L651.121 196.007" fill="#FFAE16"/>
</g>
<g clip-path="url(#clip4_311_12661)">
<path opacity="0.196" d="M66.0054 325.12C66.0054 342.393 72.8667 358.957 85.0799 371.171C97.2932 383.384 113.858 390.245 131.13 390.245V325.12" fill="#429CC9"/>
<path d="M0.879883 259.993C18.152 259.993 34.7167 266.855 46.93 279.068C59.1432 291.281 66.0046 307.846 66.0046 325.118H0.879883" fill="#FFAE16"/>
</g>
<g clip-path="url(#clip5_311_12661)">
<path opacity="0.196" d="M585.995 325.126C585.995 342.398 592.856 358.963 605.07 371.176C617.283 383.389 633.848 390.25 651.12 390.25V325.126" fill="#429CC9"/>
<path d="M520.869 259.999C538.141 259.999 554.706 266.861 566.919 279.074C579.132 291.287 585.994 307.852 585.994 325.124H520.869" fill="#FFAE16"/>
</g>
<g clip-path="url(#clip6_311_12661)">
<path opacity="0.5" d="M391.124 391L391.124 325.875L456.249 391L391.124 391Z" fill="#429CC9"/>
<path d="M391.124 260.751L456.249 260.751L456.249 325.875L391.124 260.751Z" fill="#FFAE16"/>
<path d="M456.248 391L456.248 325.875L521.373 325.875L456.248 391Z" fill="#429CC9"/>
<path opacity="0.5" d="M456.248 325.875L521.373 260.751L521.373 325.875L456.248 325.875Z" fill="#429CC9"/>
</g>
<defs>
<clipPath id="clip0_311_12661">
<rect width="130.249" height="130.249" fill="white" transform="translate(130.88 259.995)"/>
</clipPath>
<clipPath id="clip1_311_12661">
<rect width="130.25" height="130.249" fill="white" transform="translate(520.869)"/>
</clipPath>
<clipPath id="clip2_311_12661">
<rect width="130.25" height="130.249" fill="white" transform="translate(390.872 129.998)"/>
</clipPath>
<clipPath id="clip3_311_12661">
<rect width="130.25" height="130.249" fill="white" transform="translate(520.87 261.25) rotate(-90)"/>
</clipPath>
<clipPath id="clip4_311_12661">
<rect width="130.249" height="130.248" fill="white" transform="matrix(1 0 0 -1 0.879883 390.243)"/>
</clipPath>
<clipPath id="clip5_311_12661">
<rect width="130.249" height="130.248" fill="white" transform="matrix(1 0 0 -1 520.869 390.249)"/>
</clipPath>
<clipPath id="clip6_311_12661">
<rect width="130.249" height="130.249" fill="white" transform="translate(391.124 391) rotate(-90)"/>
</clipPath>
</defs>
</svg>
