<svg width="652" height="391" viewBox="0 0 652 391" fill="none" xmlns="http://www.w3.org/2000/svg">
<g clip-path="url(#clip0_311_11633)">
<path opacity="0.5" d="M130.88 259.994C148.152 259.994 164.717 266.855 176.93 279.068C189.143 291.282 196.005 307.846 196.005 325.118H130.88" fill="#4893FF"/>
<path d="M196.005 325.119C196.005 307.847 202.866 291.282 215.079 279.069C227.292 266.856 243.857 259.995 261.129 259.995V325.119" fill="#4893FF"/>
<path d="M130.88 390.238C139.432 390.238 147.901 388.554 155.802 385.281C163.703 382.008 170.883 377.211 176.93 371.164C182.977 365.116 187.774 357.937 191.047 350.036C194.32 342.135 196.005 333.666 196.005 325.114H130.88" fill="#4893FF"/>
<path d="M196.005 325.114C196.005 333.666 197.689 342.135 200.962 350.036C204.235 357.937 209.032 365.116 215.079 371.164C221.127 377.211 228.306 382.008 236.207 385.281C244.109 388.554 252.577 390.238 261.129 390.238V325.114" fill="#FFAE16"/>
</g>
<g clip-path="url(#clip1_311_11633)">
<path opacity="0.196" d="M651.12 0V65.1247H585.995L651.12 0Z" fill="#4893FF"/>
<path opacity="0.5" d="M520.871 65.1265H585.995V130.251L520.871 65.1265Z" fill="#4893FF"/>
<path d="M585.995 65.1265L651.12 130.251H585.995V65.1265Z" fill="#FFAE16"/>
</g>
<g clip-path="url(#clip2_311_11633)">
<path opacity="0.5" d="M521.123 -0.00012207C521.123 8.5366 519.442 16.9898 516.175 24.8767C512.908 32.7636 508.12 39.9299 502.083 45.9663C496.047 52.0027 488.881 56.7911 480.994 60.058C473.107 63.3249 464.654 65.0063 456.117 65.0063L456.117 -0.000127753" fill="#4893FF"/>
<path d="M455.88 65.0054C438.639 65.0054 422.104 58.1565 409.913 45.9654C397.722 33.7743 390.873 17.2397 390.873 -0.00110432L455.88 -0.00109863" fill="#FFAE16"/>
<path opacity="0.5" d="M521.123 -0.00012207C521.123 8.5366 519.442 16.9898 516.175 24.8767C512.908 32.7636 508.12 39.9299 502.083 45.9663C496.047 52.0027 488.881 56.7911 480.994 60.058C473.107 63.3249 464.654 65.0063 456.117 65.0063L456.117 -0.000127753" fill="#4893FF"/>
<path d="M455.879 65.0054C438.638 65.0054 422.104 58.1565 409.912 45.9654C397.721 33.7743 390.873 17.2397 390.873 -0.00110432L455.879 -0.00109863" fill="#FFAE16"/>
</g>
<g clip-path="url(#clip3_311_11633)">
<path opacity="0.5" d="M651.12 261.25C642.583 261.25 634.13 259.568 626.243 256.302C618.356 253.035 611.19 248.247 605.154 242.21C599.117 236.174 594.329 229.008 591.062 221.121C587.795 213.234 586.114 204.781 586.114 196.244L651.12 196.244" fill="#4893FF"/>
<path d="M586.115 196.007C586.115 178.766 592.964 162.231 605.155 150.04C617.346 137.849 633.88 131 651.121 131L651.121 196.007" fill="#FFAE16"/>
<path opacity="0.5" d="M651.12 261.25C642.583 261.25 634.13 259.568 626.243 256.302C618.356 253.035 611.19 248.247 605.154 242.21C599.117 236.174 594.329 229.008 591.062 221.121C587.795 213.234 586.114 204.781 586.114 196.244L651.12 196.244" fill="#4893FF"/>
<path d="M586.115 196.006C586.115 178.765 592.964 162.23 605.155 150.039C617.346 137.848 633.88 130.999 651.121 130.999L651.121 196.006" fill="#FFAE16"/>
</g>
<g clip-path="url(#clip4_311_11633)">
<path opacity="0.196" d="M66.0056 325.12C66.0056 342.392 72.8669 358.957 85.0801 371.17C97.2934 383.383 113.858 390.245 131.13 390.245V325.12" fill="#4893FF"/>
<path d="M0.879913 259.993C18.1521 259.993 34.7167 266.854 46.93 279.068C59.1432 291.281 66.0046 307.846 66.0046 325.118H0.879913" fill="#FFAE16"/>
</g>
<g clip-path="url(#clip5_311_11633)">
<path opacity="0.196" d="M585.995 325.125C585.995 342.397 592.857 358.962 605.07 371.175C617.283 383.389 633.848 390.25 651.12 390.25V325.125" fill="#4893FF"/>
<path d="M520.87 259.999C538.142 259.999 554.706 266.86 566.92 279.073C579.133 291.287 585.994 307.851 585.994 325.124H520.87" fill="#FFAE16"/>
</g>
<g clip-path="url(#clip6_311_11633)">
<path opacity="0.5" d="M391.124 390.999L391.124 325.874L456.249 390.999L391.124 390.999Z" fill="#4893FF"/>
<path d="M391.124 260.75L456.249 260.75L456.249 325.875L391.124 260.75Z" fill="#FFAE16"/>
<path d="M456.248 390.999L456.248 325.874L521.373 325.874L456.248 390.999Z" fill="#4893FF"/>
<path opacity="0.5" d="M456.248 325.875L521.372 260.75L521.372 325.875L456.248 325.875Z" fill="#4893FF"/>
</g>
<g clip-path="url(#clip7_311_11633)">
<path d="M260.875 260.748H326L260.875 325.872V260.748Z" fill="#FFAE16"/>
<path d="M260.875 325.875L325.999 391H260.875V325.875Z" fill="#4893FF"/>
<path opacity="0.5" d="M391.12 325.875V391H325.995L391.12 325.875Z" fill="#4893FF"/>
</g>
<defs>
<clipPath id="clip0_311_11633">
<rect width="130.249" height="130.249" fill="white" transform="translate(130.88 259.994)"/>
</clipPath>
<clipPath id="clip1_311_11633">
<rect width="130.25" height="130.249" fill="white" transform="translate(520.87)"/>
</clipPath>
<clipPath id="clip2_311_11633">
<rect width="130.25" height="130.249" fill="white" transform="translate(521.123 130.25) rotate(-180)"/>
</clipPath>
<clipPath id="clip3_311_11633">
<rect width="130.25" height="130.249" fill="white" transform="translate(520.87 261.25) rotate(-90)"/>
</clipPath>
<clipPath id="clip4_311_11633">
<rect width="130.249" height="130.248" fill="white" transform="matrix(1 0 0 -1 0.879944 390.243)"/>
</clipPath>
<clipPath id="clip5_311_11633">
<rect width="130.249" height="130.248" fill="white" transform="matrix(1 0 0 -1 520.87 390.248)"/>
</clipPath>
<clipPath id="clip6_311_11633">
<rect width="130.249" height="130.249" fill="white" transform="translate(391.124 390.999) rotate(-90)"/>
</clipPath>
<clipPath id="clip7_311_11633">
<rect width="130.249" height="130.249" fill="white" transform="translate(260.875 260.75)"/>
</clipPath>
</defs>
</svg>
