<svg width="560" height="400" viewBox="0 0 560 400" fill="none" xmlns="http://www.w3.org/2000/svg">
<rect width="560" height="400" rx="8" fill="white"/>
<path d="M203.182 156.332L201.394 176.75L354.638 173.856L353.784 156.332H203.182Z" fill="#EAA115"/>
<path d="M272.532 217.778C266.408 218.302 260.298 218.962 254.182 219.556C251.865 214.289 250.274 208.731 249.452 203.036C256.192 202.606 262.93 202.138 269.698 201.936C269.974 207.314 270.926 212.637 272.532 217.778ZM229.532 203.858C235.652 203.78 241.872 203.552 248.068 203.136C248.843 208.845 250.395 214.421 252.682 219.71C246.63 220.29 240.226 220.8 234.042 220.946C231.759 215.484 230.243 209.734 229.532 203.858ZM255.366 234.246C250.861 234.398 246.355 234.516 241.85 234.6C239.004 230.802 236.59 226.701 234.65 222.37C240.85 222.194 247.05 221.69 253.264 221.086C255.192 225.62 257.562 229.953 260.34 234.022C258.68 234.098 257.019 234.164 255.356 234.222L255.366 234.246ZM261.942 234C259.135 229.895 256.732 225.529 254.766 220.962C260.81 220.362 266.864 219.716 272.966 219.206C274.585 224.079 276.838 228.719 279.666 233.006C261.65 234.184 261.942 233.8 261.942 234ZM303.682 235.8C305.866 239.33 308.894 242.4 309.358 243.822C311.216 249.55 301.422 236.894 300.784 235.722C301.382 235.668 303.682 235.54 303.682 235.784V235.8ZM296.738 231.4C290.88 231.962 287.512 232.452 281.758 232.87C281.634 232.879 281.51 232.857 281.397 232.804C281.285 232.751 281.188 232.669 281.116 232.568C278.446 228.666 276.302 224.43 274.74 219.968C274.709 219.879 274.696 219.786 274.701 219.692C274.707 219.599 274.731 219.507 274.772 219.423C274.812 219.339 274.87 219.264 274.94 219.202C275.01 219.14 275.091 219.092 275.18 219.062C275.472 218.96 287.288 218.148 287.832 218.112C288.018 218.093 288.19 218.004 288.313 217.863C288.436 217.723 288.501 217.54 288.494 217.353C288.487 217.167 288.41 216.989 288.277 216.857C288.145 216.726 287.967 216.649 287.78 216.644C287.78 216.644 278.942 217.268 274.55 217.608C274.388 217.622 274.227 217.58 274.092 217.489C273.958 217.398 273.859 217.263 273.812 217.108C272.394 212.399 271.502 207.547 271.152 202.642C271.139 202.453 271.202 202.267 271.326 202.125C271.45 201.983 271.626 201.895 271.814 201.882C272.66 201.826 285.096 201.732 288.57 201.708C288.74 201.707 288.905 201.767 289.036 201.877C289.166 201.987 289.252 202.14 289.28 202.308C289.88 205.928 292.646 215.922 293.634 219.494C293.687 219.68 293.811 219.837 293.979 219.933C294.148 220.028 294.347 220.054 294.534 220.004C294.721 219.954 294.88 219.833 294.979 219.667C295.077 219.5 295.106 219.302 295.06 219.114C294.132 215.77 291.374 205.958 290.798 202.514C290.783 202.421 290.787 202.326 290.809 202.234C290.832 202.143 290.872 202.056 290.928 201.98C290.983 201.905 291.054 201.84 291.134 201.792C291.215 201.743 291.305 201.711 291.398 201.698C291.434 201.698 291.47 201.634 291.508 201.634H308.108C308.273 201.62 308.436 201.669 308.567 201.77C308.697 201.871 308.786 202.017 308.814 202.18C309.011 203.464 309.237 204.74 309.492 206.01C309.538 206.19 309.651 206.345 309.808 206.444C309.965 206.543 310.154 206.578 310.336 206.542C310.518 206.505 310.679 206.4 310.786 206.248C310.893 206.097 310.937 205.909 310.91 205.726C310.697 204.611 310.497 203.494 310.31 202.376C310.296 202.283 310.3 202.188 310.323 202.097C310.345 202.006 310.385 201.92 310.441 201.845C310.497 201.77 310.567 201.706 310.648 201.658C310.728 201.609 310.817 201.577 310.91 201.564C311.11 201.532 330.02 201.364 328.818 201.376C328.992 201.374 329.16 201.436 329.291 201.55C329.423 201.663 329.507 201.821 329.53 201.994C330.022 205.986 330.772 209.941 331.776 213.836C331.805 213.942 331.809 214.054 331.787 214.162C331.765 214.27 331.718 214.372 331.65 214.459C331.582 214.546 331.495 214.616 331.395 214.663C331.296 214.711 331.186 214.734 331.076 214.732C326.022 214.622 320.776 214.654 315.628 214.87C315.446 214.882 315.275 214.965 315.152 215.099C315.028 215.234 314.962 215.411 314.965 215.594C314.969 215.777 315.042 215.951 315.171 216.081C315.3 216.211 315.473 216.286 315.656 216.292C318.178 216.266 322.18 215.984 331.946 216.198C332.094 216.203 332.236 216.253 332.354 216.342C332.472 216.432 332.559 216.555 332.604 216.696C333.855 220.632 335.498 224.433 337.508 228.042C337.567 228.148 337.599 228.267 337.599 228.389C337.599 228.51 337.569 228.63 337.51 228.736C337.451 228.843 337.366 228.932 337.263 228.997C337.159 229.061 337.041 229.098 336.92 229.104C333.224 229.258 322.098 229.634 320.24 229.734C320.107 229.74 319.974 229.71 319.857 229.645C319.74 229.58 319.643 229.484 319.578 229.368C319.167 228.624 318.767 227.875 318.378 227.122C318.303 226.973 318.177 226.855 318.023 226.79C317.869 226.725 317.697 226.716 317.538 226.766L317.418 226.804C317.329 226.832 317.245 226.878 317.174 226.938C317.102 226.999 317.043 227.073 317 227.157C316.957 227.24 316.93 227.331 316.923 227.425C316.915 227.518 316.925 227.612 316.954 227.702C316.994 227.82 317.002 227.946 316.978 228.068L316.808 228.928C316.783 229.051 316.727 229.165 316.644 229.259C316.561 229.353 316.455 229.424 316.336 229.464L314.674 230.016C314.508 230.075 314.369 230.192 314.282 230.344C314.194 230.497 314.164 230.676 314.196 230.849C314.228 231.022 314.32 231.178 314.456 231.289C314.593 231.4 314.764 231.459 314.94 231.456C316.128 231.38 317.315 231.313 318.502 231.256C318.636 231.248 318.769 231.278 318.887 231.343C319.004 231.409 319.1 231.506 319.164 231.624C320.666 234.412 329.364 247.348 327.806 241.64C327.648 241.06 325.086 238.64 321.188 232.176C321.091 232.014 321.062 231.821 321.107 231.639C321.153 231.456 321.269 231.299 321.43 231.202C321.798 230.982 330.644 230.852 338.514 230.494C338.636 230.489 338.758 230.516 338.867 230.573C338.975 230.629 339.067 230.713 339.134 230.816C341.236 233.966 348.76 245.478 349.3 242.518C349.36 241.822 349.1 241.876 348.604 241.204C345.96 238.084 343.495 234.817 341.222 231.418C341.153 231.313 341.113 231.193 341.106 231.068C341.099 230.943 341.125 230.818 341.181 230.707C341.237 230.595 341.322 230.5 341.427 230.432C341.532 230.364 341.653 230.324 341.778 230.318C345.308 230.144 353.978 229.998 351.224 228.328C350.79 228.064 350.332 228.47 340.122 228.976C339.994 228.981 339.867 228.952 339.754 228.892C339.641 228.832 339.547 228.743 339.48 228.634C337.333 225.036 335.589 221.213 334.28 217.234C334.22 217.055 334.234 216.859 334.319 216.691C334.403 216.522 334.551 216.394 334.73 216.334C335.076 216.22 350.568 216.88 351.018 216.898C351.952 216.936 351.948 215.498 351.018 215.45C345.364 215.22 339.706 214.972 334.046 214.808C333.894 214.804 333.747 214.752 333.627 214.659C333.507 214.567 333.42 214.438 333.378 214.292C332.296 210.286 331.494 206.209 330.978 202.092C330.968 202 330.976 201.906 331.003 201.817C331.029 201.728 331.072 201.645 331.131 201.573C331.189 201.501 331.261 201.441 331.343 201.397C331.424 201.353 331.514 201.325 331.606 201.316C334.094 201.052 355.306 201.916 351.07 199.516C350.57 199.23 350.928 199.632 331.344 199.936C331.17 199.94 331 199.879 330.868 199.765C330.736 199.651 330.65 199.493 330.628 199.32C330.156 195.614 330.098 191.662 329.628 187.86C329.615 187.756 329.579 187.655 329.524 187.566C329.468 187.477 329.394 187.401 329.306 187.344C327.234 186.06 328.986 196.242 329.248 199.2C329.265 199.387 329.207 199.574 329.087 199.719C328.966 199.863 328.794 199.955 328.606 199.972C328.606 199.972 316.596 200.096 310.618 200.132C310.444 200.133 310.276 200.07 310.146 199.956C310.015 199.842 309.93 199.684 309.908 199.512C309.46 195.678 309.26 191.819 309.308 187.96C309.309 187.865 309.291 187.772 309.255 187.684C309.219 187.597 309.165 187.518 309.098 187.452C306.824 185.252 308.136 196.252 308.458 199.348C308.478 199.534 308.424 199.721 308.306 199.867C308.189 200.013 308.018 200.107 307.832 200.128C307.808 200.128 307.782 200.188 307.758 200.188H291.05C290.887 200.2 290.725 200.153 290.595 200.053C290.465 199.954 290.377 199.81 290.346 199.65C289.668 195.478 289.454 191.05 288.824 186.75C288.813 186.658 288.783 186.57 288.736 186.49C288.689 186.411 288.627 186.342 288.552 186.288C286.276 184.688 288.522 196.256 288.926 199.47C288.939 199.569 288.931 199.67 288.902 199.766C288.873 199.862 288.824 199.951 288.758 200.026C288.692 200.102 288.611 200.163 288.52 200.205C288.429 200.247 288.33 200.269 288.23 200.27C282.792 200.318 277.23 200.324 271.71 200.47C271.527 200.476 271.348 200.41 271.212 200.287C271.076 200.164 270.994 199.993 270.982 199.81C270.744 195.936 270.982 191.828 270.734 187.868C270.729 187.757 270.697 187.65 270.641 187.554C270.586 187.459 270.508 187.378 270.414 187.32C268.43 186.12 269.554 196.876 269.634 199.834C269.639 200.021 269.571 200.203 269.442 200.34C269.314 200.476 269.137 200.557 268.95 200.564C262.616 200.764 256.304 201.128 249.966 201.564C249.781 201.576 249.599 201.516 249.457 201.396C249.316 201.276 249.226 201.106 249.208 200.922C248.889 196.606 248.971 192.269 249.45 187.968C249.467 187.795 249.421 187.622 249.322 187.48C247.122 184.41 247.588 197.704 247.836 200.994C247.85 201.18 247.791 201.364 247.671 201.507C247.551 201.65 247.38 201.74 247.194 201.758C241.594 202.13 235.738 202.31 230.06 202.4C229.882 202.403 229.709 202.338 229.575 202.219C229.442 202.1 229.359 201.935 229.342 201.758C228.964 197.216 229.098 192.647 229.742 188.136C229.766 187.982 229.738 187.824 229.662 187.688C227.478 183.688 227.634 198.314 227.894 201.742C227.901 201.834 227.891 201.926 227.862 202.014C227.834 202.102 227.788 202.183 227.729 202.253C227.669 202.323 227.596 202.381 227.514 202.423C227.432 202.465 227.342 202.49 227.25 202.498C223.512 202.792 209.98 201.614 211.3 203.666C211.362 203.755 211.444 203.829 211.539 203.882C211.635 203.934 211.741 203.964 211.85 203.968C216.984 204.234 222.326 203.856 227.512 203.894C227.685 203.896 227.85 203.961 227.979 204.076C228.108 204.191 228.19 204.349 228.212 204.52C228.882 209.837 230.203 215.053 232.146 220.048C232.187 220.154 232.201 220.268 232.189 220.38C232.176 220.493 232.137 220.601 232.074 220.696C232.011 220.79 231.927 220.868 231.827 220.923C231.728 220.978 231.617 221.008 231.504 221.012C227.058 221.062 222.452 220.844 217.92 220.472C217.826 220.463 217.73 220.473 217.641 220.503C217.551 220.533 217.468 220.582 217.398 220.646C214.982 222.924 229.798 222.372 232.672 222.4C232.809 222.4 232.942 222.439 233.056 222.514C233.17 222.589 233.26 222.696 233.314 222.822C234.985 226.605 237.011 230.221 239.366 233.622C239.472 233.777 239.513 233.968 239.479 234.152C239.445 234.337 239.339 234.501 239.184 234.608C238.454 235.108 225.752 233.792 228.184 236.058C228.311 236.172 228.475 236.237 228.646 236.24C232.622 236.346 236.778 236.1 240.792 236.08C240.901 236.078 241.01 236.102 241.108 236.15C241.207 236.198 241.292 236.268 241.358 236.356C243.51 239.186 253.01 249.772 253.574 246.882C253.574 246.268 253.298 246.348 252.696 245.796C249.477 243.232 246.532 240.342 243.906 237.174C243.821 237.071 243.766 236.946 243.748 236.814C243.73 236.682 243.75 236.547 243.806 236.425C243.861 236.304 243.949 236.2 244.061 236.127C244.172 236.053 244.302 236.013 244.436 236.01C262.2 235.61 261.194 235.228 261.588 235.81C263.634 238.766 272.498 248.646 273.22 245.996C273.314 245.252 272.944 245.264 272.286 244.754C269.072 242.444 266.221 239.668 263.828 236.516C263.769 236.444 263.724 236.361 263.697 236.272C263.669 236.182 263.66 236.089 263.669 235.996C263.678 235.903 263.705 235.813 263.749 235.73C263.792 235.648 263.852 235.575 263.924 235.516C264.432 235.094 265.186 235.574 280.26 234.43C280.38 234.421 280.5 234.443 280.609 234.493C280.718 234.543 280.813 234.619 280.884 234.716C283.242 237.882 292.284 248.764 292.714 245.916C292.738 245.274 292.464 245.336 291.9 244.716C288.761 241.798 285.842 238.652 283.168 235.304C283.089 235.204 283.038 235.084 283.021 234.958C283.004 234.831 283.021 234.703 283.07 234.585C283.12 234.467 283.2 234.365 283.302 234.289C283.404 234.213 283.525 234.165 283.652 234.152C287.302 233.786 292.052 233.462 295.972 233.188C296.185 233.173 296.384 233.078 296.531 232.923C296.677 232.768 296.76 232.563 296.762 232.35L296.738 231.4Z" fill="#101828"/>
<path d="M303.248 221.882C303.651 220.499 304.2 219.162 304.886 217.894C305.563 219.131 306.358 220.299 307.26 221.382C307.472 221.532 309.23 221.012 311.21 221.06C310.35 222.448 309.24 224.226 309.24 224.226C309.696 225.398 310.052 226.606 310.304 227.838C309.006 227.232 307.642 226.777 306.24 226.484C305.003 227.017 303.796 227.617 302.626 228.284C302.648 227.064 302.8 225.85 303.082 224.662L299.918 222.862L303.248 221.882Z" fill="#EAA115"/>
<path d="M315 232.344C328.132 218.982 309.302 206.01 297.864 212.89C285.504 221.668 294.88 240.632 308.714 237.818C313.996 236.91 313.496 232.818 310.3 234.018C301.018 238.71 292.078 228.018 296.004 219.362C299.534 210.47 313.974 213.008 316.404 221.532C318.8 225.188 308.354 233.864 315 232.344Z" fill="#EAA115"/>
<path d="M263.236 197.388C257.78 193.286 258.958 194.958 261.752 190.566C264.304 188.13 261.208 185.816 259.552 188.692C258.412 189.748 257.52 192.652 256.552 192.222C254.804 191.022 251.854 188.012 250.478 190.52C249.262 192.766 256.732 193.7 254.678 195.546C253.235 197.402 251.918 199.353 250.738 201.386C251.52 204.644 254.1 201.762 254.996 200.078C256.24 198.926 257.014 195.694 258.196 197.128C259.746 198.09 260.796 199.64 262.642 200.166C262.93 200.095 263.191 199.944 263.397 199.732C263.603 199.519 263.745 199.253 263.807 198.963C263.869 198.673 263.849 198.372 263.748 198.094C263.647 197.815 263.469 197.571 263.236 197.388Z" fill="#EAA115"/>
<path d="M284.6 196.364C283.926 195.402 280.152 193.848 280.944 193.056C282.184 191.364 284.744 190.238 284.344 188.444C282.246 184.844 279.826 191.798 277.926 191.428C275.852 189.61 272.34 187.876 273.326 191.698C273.704 192.6 276.776 193.248 275.97 194.098C274.908 195.542 272.25 197.02 273.724 198.722C275.486 200.386 277.01 196.752 278.336 195.792C279.484 195.04 281.81 198.544 283.212 198.714C284.582 198.974 285.778 197.368 284.6 196.364Z" fill="#EAA115"/>
<path d="M302.094 189.16C300.418 190.39 298.416 194.616 297.16 192.56C295.822 191.478 295.108 190.56 293.63 189.508C293.287 189.36 292.9 189.349 292.549 189.477C292.199 189.606 291.91 189.863 291.743 190.197C291.576 190.532 291.544 190.917 291.652 191.275C291.76 191.632 292.002 191.935 292.326 192.12C295.386 195.264 297.192 194.85 294.662 197.034C292.604 198.68 291.886 200.97 294.622 201.034C295.985 199.925 297.236 198.686 298.358 197.334C299.908 198.298 302.434 201.548 303.698 199.902C305.142 197.828 301.874 196.79 300.678 195.516C299.754 194.574 304.772 191.546 304.528 190.346C304.558 190.052 304.497 189.756 304.353 189.498C304.21 189.24 303.991 189.032 303.725 188.903C303.46 188.774 303.161 188.729 302.869 188.775C302.577 188.821 302.307 188.955 302.094 189.16Z" fill="#EAA115"/>
<path d="M326.444 195.318C320.958 192.164 323.934 193.132 325.93 189.298C326.16 188.556 325.608 187.996 324.884 187.732C322.406 186.92 321.514 192.816 319.75 190.98C317.85 190.016 313.63 187.696 312.75 189.436C312.633 189.624 312.56 189.836 312.538 190.057C312.515 190.277 312.544 190.5 312.621 190.708C312.698 190.916 312.822 191.103 312.983 191.255C313.144 191.407 313.338 191.521 313.55 191.586C314.55 192.036 319.326 193.332 318.318 194.082C316.832 195.922 312.222 199.05 316.25 199.94C321.474 196.906 319.292 193.416 324.272 197.372C326.11 199.178 328.2 196.824 326.444 195.318Z" fill="#EAA115"/>
<path d="M242.082 211.328C243.75 209.672 247.882 206.05 243.364 206.046C241.79 206.666 240.58 209.766 239.284 209.502C237.484 208.688 235.012 206.302 233.658 208.266C233.478 208.535 233.411 208.864 233.471 209.182C233.531 209.5 233.713 209.782 233.978 209.968C234.642 210.682 238.246 211.396 237.466 212.282C236.222 214.258 234.004 215.898 233.764 218.282C235.852 222.036 238.642 214.576 240.182 213.53C242.074 214.604 243.506 216.668 245.512 217.646C250.222 216.652 243.484 212.522 242.082 211.328Z" fill="#EAA115"/>
<path d="M344.59 195C343.99 194.4 340.148 192.818 341.19 192.26C343.156 190.822 347.056 188.438 343.456 187.236C341.697 188.165 340.058 189.307 338.578 190.636C337.728 190.11 336.932 188.476 335.62 188.364C333.64 188.764 333.964 190.588 335.468 191.696C336.228 192.606 336.338 192.514 336.008 192.8C335.76 191.978 335.944 192.158 336.328 192.514C334.74 194.162 332.928 195.042 332.072 196.932C333.26 202.006 337.006 194.086 338.892 194.666C345.762 200.504 345.958 195.9 344.59 195Z" fill="#EAA115"/>
<path d="M228.482 217.71C227.198 216.136 222 213.648 222.856 212.98C224.118 211.472 225.982 210.536 226.926 208.614C226.945 208.32 226.878 208.027 226.731 207.772C226.584 207.517 226.365 207.311 226.101 207.179C225.838 207.048 225.541 206.998 225.249 207.035C224.957 207.072 224.683 207.195 224.46 207.388C223.112 208.686 221.474 210.276 220.06 211.658C219.453 211.286 218.84 210.922 218.222 210.568C216.274 209.124 213.98 208.738 214.246 211.35C215.016 212.54 216.772 212.856 217.936 213.75C216.936 215.066 214.676 216.19 214.264 218.016C215.83 222.562 218.938 215.176 220.802 215.558C223.174 216.882 224.746 218.94 227.344 220.112C227.636 220.148 227.932 220.091 228.19 219.949C228.448 219.807 228.654 219.588 228.78 219.322C228.906 219.056 228.945 218.757 228.892 218.468C228.838 218.178 228.695 217.913 228.482 217.71Z" fill="#EAA115"/>
<path d="M141.346 224.424C143.442 221.372 138.482 216.856 135.388 220.364C133.064 223.526 138.16 228.188 141.346 224.424ZM136.346 221.94C136.746 219.768 141.68 220.906 139.764 223.73C138.372 224.866 136.556 224.2 136.35 221.94H136.346Z" fill="#101828"/>
<path d="M158.746 226.962C163.32 223.674 160.746 218.94 155.976 219.344C152.876 221.288 153.542 227.648 158.746 226.962ZM156.324 221.27C156.431 221.153 156.5 221.007 156.524 220.85C164.244 221.642 154.126 230.188 156.324 221.27Z" fill="#101828"/>
<path d="M180.34 232C180.632 228.512 174.358 225.688 172.584 230.284C170.81 234.88 179.534 237.674 180.34 232ZM174.038 231.43C173.752 228.766 178.784 228.92 178.668 231.944C178.312 234.52 174.884 234.086 174.038 231.42V231.43Z" fill="#101828"/>
<path d="M240.746 288.332C243.25 286.858 242.672 279.812 237.916 281.314C233.8 282.8 235.984 289.252 240.746 288.332ZM239.546 282.764C240.776 282.794 241.524 286.936 239.248 286.782C236.976 286.33 236.738 282.498 239.542 282.764H239.546Z" fill="#101828"/>
<path d="M390.02 256.956C354.92 217.11 357.18 196.454 355.552 156.194C352.05 154.082 346.752 154.756 342.122 154.644C342.524 152.818 342.277 150.908 341.424 149.244C338.454 139.676 327.792 139.89 322.724 146.93C319.432 139.998 307.936 138.554 303.612 146.362C300.926 138.338 287.794 138.32 283.75 146.04C280.644 139.04 270.658 138.218 265.71 144.696C261.654 138.676 251.284 139.34 247.242 146.07C243.612 139.902 234.12 140.83 230.042 146.938C226.042 138.274 211.326 139.468 209.944 149.624C209.81 151.381 209.99 153.147 210.476 154.84C207.735 154.88 204.992 154.916 202.248 154.948C196.744 168.426 199.216 186.972 198.998 202.308C198.532 228.308 211.866 247.336 230.654 261.398C237.432 265.57 270.654 261.576 275.178 261.518C326.688 260.852 355.36 259.444 371.244 259.428C371.316 261.378 371.81 264.672 368.998 264.694C334.048 264.966 300.608 266.482 266.014 266.876C185.146 266.292 205.228 274.96 198.324 243.512C191.724 187.816 200.214 151.986 195.724 154.59C193.238 155.202 194.666 158.604 194.082 160.856C192.156 193.544 192.032 225.332 197.432 257.544C199.932 268.356 197.432 270.772 204.934 270.114C229.644 270.08 357.364 268.47 367.334 267.714C349.984 279.482 205.254 276.286 199.71 276.68C189.564 277.402 187.55 276.532 190.44 181.404C190.586 176.62 190.92 157.526 189.412 155.892C187.47 158.354 184.916 188.476 185.544 224.752C171.944 212.952 149.448 210.044 131.862 211.178C126.404 211.53 119.818 211.058 115.142 214.348C112.01 229.43 108.724 245.078 105.464 260.712C89.664 331.746 95.802 285.178 154.64 320.078C181.862 339.462 197.014 368.368 231.672 367.746C235.738 357.842 237.506 346.746 240.978 336.146C246.696 313.482 256.738 285.746 256.084 280.002C281.216 279.372 355.052 276.782 368.186 276.13C370.26 276.698 369.996 270.454 369.364 267.51C375.52 266.96 373.62 259.488 373.536 259.416C391.93 259.418 390.828 259.586 390.02 256.956ZM228.092 364.62C166.426 352.046 180.712 307.178 100.586 299.766C109.986 256.146 114.472 234.618 116.686 223.884C118.07 217.18 121.832 215.11 131.086 214.484C166.96 212.026 179.962 225.358 185.632 228.444C185.866 238.614 186.356 249.202 187.182 259.75C185.28 261.498 184.312 267.512 182.782 269.834C164.298 249.046 160.516 258.888 163.31 249.088C166.686 233.844 161.544 246.652 160.56 252.906C152.733 249.988 144.568 248.07 136.26 247.2C136.472 244.056 141.11 234.532 138.144 234.73C133.674 242.88 138.886 248.47 127.424 247.082C124.89 249.716 131.486 248.196 134.21 248.682C129.874 261.928 133.646 264.816 123.35 262.612C120.784 264.878 127.282 264.298 129.878 265.138C124.538 285.912 128.646 278.068 114.334 280.102C114.134 283.102 122.308 280.422 125.504 281.748C125.266 284.062 120.704 295.348 124.268 292.736C126.458 276.048 131.774 283.67 143.59 285.714C154.774 287.026 145.218 295.34 144.938 302.74C148.196 303.482 149.168 291.326 150.988 288.708C176.858 306.258 168.294 304.564 167.788 311.836C170.088 312.436 170.012 308.476 171.334 306.06C192.758 331.282 191.15 323.368 187.534 336.018C189.588 339.462 190.52 329.688 191.632 327.464C208.924 339.594 211.658 333.2 206.572 345.064C208 348.722 209.882 340.426 210.904 337.85C213.33 338.62 225.104 343.916 222.428 340.096C204.556 336.968 214.752 330.356 216.33 318.342C218.766 319.18 230.79 324.674 228.112 320.808C211.512 316.956 218.33 314.996 220.41 303.84C224.3 305.096 235.722 310.988 235.434 307.766C226.32 302.506 217.76 306.482 222.886 295.062C221.07 291.912 220.396 298.96 219.358 301.61C190.206 289.576 210.462 285.518 203.72 282.704C202.885 285.237 202.064 287.771 201.256 290.304C180.312 268.116 183.656 272.524 187.444 263.01C187.804 267.238 188.22 271.452 188.696 275.622C188.896 277.898 192.674 280.524 194.792 280.548C214.834 280.748 234.318 280.504 253.554 280.042C237.908 330.976 231.674 365.788 228.092 364.62ZM154.662 272.126C147.404 268.506 139.746 265.754 131.844 263.926L135.844 248.802C168.2 254.146 159.758 251.846 154.662 272.126ZM161.586 255.08C161.804 255.172 162.012 255.264 162.206 255.358C189.986 272.886 180.648 271.328 176.268 287.398C151.478 266.54 155.018 279.642 161.586 255.08ZM142.362 268.65C159.888 273.956 152.562 274.998 150.03 286.484C142.803 283.549 135.246 281.5 127.526 280.382C132.66 263.75 127.564 263.888 142.362 268.65ZM155.662 274.45C182.198 290.704 175.084 288.13 170.7 303.036C167.799 299.883 164.721 296.898 161.48 294.096C146.966 284.612 152.902 286.358 155.662 274.446V274.45ZM176.992 290.13C201.44 312.012 196.392 302.62 190.74 324.788C186.561 321.118 182.72 317.08 179.262 312.724C168 302.13 173.964 301.54 177 290.126L176.992 290.13ZM197.446 307.836C200.586 311.836 217.446 316.61 214.192 319.976C212.792 324.976 211.392 329.896 209.766 335.682C185.186 324.936 193.258 325.944 197.446 307.832V307.836ZM202.01 293.21C202.316 293.446 202.61 293.682 202.932 293.904C221.812 307.218 219.866 298.716 215.264 316.186C192.868 305.43 198.166 307.386 202.01 293.2V293.21ZM196.6 305.156C172.44 284.966 177.128 291.29 183.364 272.82C185.614 275.29 187.764 277.856 189.974 280.344C203.8 295.864 200.374 291.2 196.6 305.156ZM338.888 154.4C334.051 154.187 329.215 154.024 324.38 153.912C324.538 152.7 324.386 151.468 323.94 150.33C331.88 139.356 340.49 146.494 338.888 154.4ZM321.588 153.844C316.454 153.726 305.988 154.3 305.706 153.43C305.752 137.932 322.336 144.6 321.588 153.848V153.844ZM301.698 153.58C296.35 153.556 291 153.563 285.648 153.6C285.724 152.256 285.505 150.912 285.006 149.662C293.298 136.372 302.536 145.186 301.698 153.584V153.58ZM268.482 145.774C277.374 139.068 283.446 146.204 282.438 153.614C277.426 153.651 272.415 153.71 267.404 153.79C267.278 151.178 266.582 148.57 268.482 145.774ZM264.426 153.848C259.458 153.93 254.49 154.004 249.524 154.098C249.812 152.338 249.508 150.533 248.66 148.964C258.258 137.47 265.8 145.642 264.426 153.848ZM246.254 154.176L231.568 154.444C231.758 153.06 231.648 151.651 231.248 150.312C239.122 139.468 247.646 146.358 246.254 154.176ZM222.298 144.176C229.814 147.594 230.51 151.236 228.716 154.528C223.453 154.632 218.191 154.725 212.93 154.808C213.157 153.175 213.126 151.517 212.838 149.894C212.2 145.4 217.972 142.2 222.298 144.166V144.176ZM335.582 256.928C239.782 258.7 235.746 262.328 231.592 258.528C194.558 229.732 201.32 201.188 202.896 161.77C203.666 157.48 203.022 157.77 208.386 157.75C214.433 157.675 220.456 157.583 226.456 157.474C224.977 159.636 222.921 161.339 220.522 162.39C220.058 161.024 219.146 160.096 218.096 160.096C216.578 160.096 215.346 162.04 215.346 164.44C215.346 166.84 216.578 168.786 218.096 168.786C219.394 168.786 220.48 167.366 220.77 165.458C223.014 165.136 225.131 164.218 226.901 162.801C228.671 161.384 230.029 159.519 230.834 157.4L245.252 157.126C243.828 159.269 241.775 160.918 239.376 161.848C238.804 161.34 238.08 161.034 237.316 160.98C236.553 160.925 235.793 161.124 235.154 161.546C234.515 161.967 234.034 162.588 233.784 163.312C233.535 164.035 233.531 164.821 233.774 165.547C234.017 166.273 234.492 166.898 235.127 167.326C235.762 167.754 236.52 167.96 237.284 167.912C238.048 167.865 238.775 167.566 239.352 167.063C239.928 166.56 240.323 165.88 240.474 165.13C244.06 163.454 246.968 160.607 248.72 157.058C253.663 156.966 258.596 156.878 263.52 156.794C261.348 160.818 259.062 161.912 257.278 162.32C257.019 161.916 256.665 161.581 256.247 161.345C255.828 161.11 255.358 160.981 254.878 160.97C254.036 161.083 253.264 161.497 252.705 162.136C252.145 162.775 251.837 163.596 251.837 164.445C251.837 165.294 252.145 166.115 252.705 166.754C253.264 167.393 254.036 167.807 254.878 167.92C255.581 167.886 256.252 167.617 256.784 167.156C257.315 166.694 257.676 166.067 257.808 165.376C260.96 164.4 265.076 161.4 266 159.084C266.528 158.379 266.919 157.581 267.154 156.732C271.991 156.657 276.829 156.597 281.668 156.55C280.607 158.719 278.779 160.418 276.538 161.318C276.313 160.959 276.004 160.66 275.637 160.447C275.27 160.234 274.858 160.114 274.434 160.096C272.834 160.096 271.536 161.846 271.536 164.004C271.536 166.162 272.834 167.914 274.434 167.914C275.2 167.811 275.905 167.441 276.425 166.869C276.944 166.297 277.245 165.56 277.274 164.788C279.228 164.279 281.001 163.236 282.395 161.776C283.789 160.316 284.749 158.497 285.168 156.522C290.436 156.482 295.706 156.47 300.978 156.486C299.16 158.976 296.659 160.885 293.778 161.984C293.192 161.792 292.562 161.782 291.971 161.956C291.38 162.13 290.855 162.479 290.467 162.958C290.079 163.436 289.845 164.021 289.797 164.636C289.748 165.25 289.888 165.865 290.196 166.398C290.505 166.931 290.968 167.358 291.525 167.623C292.082 167.887 292.706 167.976 293.314 167.877C293.923 167.779 294.487 167.499 294.932 167.073C295.377 166.647 295.683 166.095 295.808 165.492C299.326 163.892 303.932 159.548 304.228 156.492C309.747 156.524 315.27 156.598 320.798 156.714C318.574 159.355 315.518 161.16 312.132 161.832C311.393 161.726 310.639 161.849 309.972 162.184C309.304 162.519 308.755 163.05 308.398 163.706C308.041 164.362 307.893 165.111 307.974 165.853C308.054 166.596 308.36 167.296 308.85 167.859C309.34 168.423 309.99 168.823 310.714 169.007C311.438 169.19 312.2 169.148 312.9 168.886C313.599 168.624 314.201 168.154 314.626 167.54C315.051 166.926 315.277 166.197 315.276 165.45V165.238C318.984 163.474 321.965 160.478 323.712 156.762C340.37 157.162 334.474 157.13 337.842 157.292C336.172 159.255 334.149 160.887 331.878 162.106C331.193 161.816 330.435 161.744 329.708 161.9C328.981 162.056 328.319 162.433 327.814 162.978C327.308 163.523 326.982 164.211 326.881 164.948C326.78 165.685 326.908 166.435 327.248 167.096C327.589 167.758 328.124 168.298 328.783 168.644C329.441 168.99 330.19 169.125 330.928 169.03C331.666 168.936 332.356 168.616 332.906 168.115C333.456 167.614 333.838 166.956 334 166.23C337.398 164.249 339.971 161.112 341.25 157.392C346.516 157.464 353.062 157.462 352.802 159.226C353.248 213.298 361.788 226.776 385.83 256.496C369.078 256.312 352.324 256.6 335.582 256.918V256.928Z" fill="#101828"/>
<path d="M477.716 59.826C408.796 81.244 420.728 58.544 408.636 81.356C364.342 66.212 375.636 41.818 362.914 60.414C349.756 77.792 332.838 88.168 314.458 98.262C346.292 151.734 485.094 122.71 477.716 59.826ZM416.844 73.128C416.876 73.0833 416.898 73.0321 416.908 72.978C416.928 73.032 416.898 73.084 416.844 73.128ZM333.772 112.08C328.363 108.292 323.288 104.05 318.6 99.4C338.25 89.528 356.084 75.842 369.156 57.56C378.546 70.1845 391.728 79.4755 406.774 84.076C390.084 105.562 359.85 133.866 333.772 112.08ZM435.338 111.9C413.5 121.872 388.704 122.848 364.738 121.624C387.686 113.94 405.126 93.126 417.516 73.572C437.45 73.3322 457.227 70.0054 476.142 63.71C472.838 85.64 455.232 102.814 435.338 111.9Z" fill="#101828"/>
<path d="M242.91 54.7999C222.64 37.5419 227.072 26.9999 220.71 34.8719C202.51 63.3219 121.342 59.2299 163.162 99.9399C191.722 133.34 190.712 138.34 194.306 130.14C209.368 101.22 260.122 106.098 267.8 76.0519C260.01 69.4319 251.038 61.7159 242.91 54.7999ZM236.51 99.2279C220.21 106.038 200.028 111.828 191.276 129.162C179.676 113.604 164 98.6539 153.852 82.0659C161.712 56.0979 209.08 61.4119 223.34 36.7059C249.2 78.5619 291.122 71.9659 236.5 99.2239L236.51 99.2279Z" fill="#101828"/>
<path d="M161.92 74.1401C161.812 74.1777 161.714 74.2375 161.631 74.3158C161.548 74.394 161.482 74.4888 161.438 74.5941C152.852 84.8181 173.714 77.8941 161.92 74.1401ZM162.652 78.6541C161.834 79.0541 159.982 78.2541 161.704 75.6221C162.8 75.3401 165 76.6621 162.652 78.6541Z" fill="#101828"/>
<path d="M172.616 68.6941C169.816 67.7721 168.694 73.1861 172.294 74.2161C176.432 75.2001 177.634 68.8261 172.616 68.6941ZM174.282 71.7541C173.904 74.4121 168.894 69.7341 173.132 70.4141C172.876 70.7861 174.52 70.0701 174.282 71.7541Z" fill="#101828"/>
<path d="M182.388 64.0502C179.31 65.5142 182.25 70.5162 185.734 68.5422C186.184 68.0535 186.449 67.4231 186.484 66.7598C186.518 66.0964 186.32 65.4419 185.923 64.9092C185.526 64.3765 184.956 63.9992 184.31 63.8423C183.665 63.6855 182.985 63.759 182.388 64.0502ZM184.588 67.3582C183.496 68.1582 181.262 65.1122 184.074 65.3782C184.74 65.7802 185.454 66.2002 184.588 67.3582Z" fill="#101828"/>
<path d="M192.894 60.6742C189.772 61.4062 191.176 67.8042 195.548 65.7582C196.035 65.3184 196.362 64.7292 196.478 64.0831C196.594 63.4371 196.493 62.7708 196.189 62.1889C195.885 61.6071 195.397 61.1426 194.8 60.8684C194.204 60.5943 193.533 60.5259 192.894 60.6742ZM194.742 64.3622C193.142 65.5362 191.116 61.3842 194.582 62.5102C194.783 62.7713 194.905 63.0845 194.933 63.4128C194.962 63.7411 194.895 64.0706 194.742 64.3622Z" fill="#101828"/>
<path d="M203.056 56.856C199.546 57.976 202.736 63.982 206.548 60.748C208.168 58.72 205.976 56.242 203.056 56.856ZM204.962 59.916C203.33 60.85 201.51 57.366 205.22 58.694C205.44 58.974 205.656 59.236 204.962 59.916Z" fill="#101828"/>
<path d="M212.17 51.0341C208.37 53.3581 213.668 58.9641 216.12 54.2121C216.239 53.6965 216.21 53.1577 216.037 52.6577C215.864 52.1576 215.554 51.7164 215.141 51.3847C214.729 51.0529 214.232 50.8441 213.706 50.7821C213.181 50.7201 212.648 50.8074 212.17 51.0341ZM214.37 54.2201C213.126 55.5041 210.77 52.0041 213.918 52.3881C214.384 52.9401 214.8 53.1521 214.368 54.2201H214.37Z" fill="#101828"/>
<path d="M219.646 45.6999C216.14 46.6699 219.194 51.7979 222.728 49.7379C224.38 47.9999 223 44.7739 219.646 45.6999ZM221.8 48.3999C221.6 48.9779 219.458 48.3999 219.718 47.5019C219.968 47.2579 222.024 46.4519 221.8 48.3999Z" fill="#101828"/>
<path d="M370.214 75.9142C373.5 78.6182 377.596 72.3622 373.652 71.6402C371.674 68.9702 366.672 73.0002 370.214 75.9142ZM372.454 72.4802C372.565 72.5444 372.69 72.5799 372.817 72.5834C372.945 72.5869 373.072 72.5583 373.186 72.5002C373.203 72.6108 373.249 72.7148 373.319 72.8019C373.39 72.889 373.482 72.956 373.586 72.9962C374 77.1742 367.582 72.9062 372.454 72.4802Z" fill="#101828"/>
<path d="M382.04 85.124C386.802 87.71 388.458 82.636 385.03 79.212C381.334 77.824 378.326 82.098 382.04 85.124ZM381.928 81.458C382.826 78.766 387.354 82.874 384.34 84.282C382.722 83.862 382.238 83.93 381.928 81.458Z" fill="#101828"/>
<path d="M395.34 91.6818C398.078 93.1498 403.042 89.6258 398.902 86.7378C395.2 85.4438 390.778 88.4798 395.34 91.6818ZM395.74 88.1018C398.248 86.7898 400.94 91.6018 395.634 90.0078C395.468 89.9056 395.332 89.7605 395.241 89.5879C395.15 89.4152 395.108 89.2213 395.117 89.0264C395.127 88.8315 395.189 88.6428 395.297 88.4802C395.405 88.3175 395.554 88.1868 395.73 88.1018H395.74Z" fill="#101828"/>
</svg>
