<svg width="560" height="400" viewBox="0 0 560 400" fill="none" xmlns="http://www.w3.org/2000/svg">
<rect width="560" height="400" fill="white"/>
<path d="M155.412 277.236C155.326 274.036 155.65 273.712 188.118 265.652C207.092 260.942 206.588 259.818 208.156 264.352C209.466 267.93 210.39 271.638 210.912 275.412C211.35 279.068 211.656 277.782 162.282 290.716C157.95 291.85 156.908 285.974 155.412 277.236ZM160.388 277.738C160.478 278.738 159.374 279.882 186.06 272.424C210.08 265.71 160.12 274.762 160.388 277.738Z" fill="#EAA115"/>
<path d="M148.658 215.178C130.036 206.95 124.686 180 144.896 165.074C148.312 162.552 152.195 160.734 156.319 159.723C160.443 158.712 164.727 158.53 168.922 159.186C171.554 159.75 171.522 159.75 170.658 162.216C170.328 163.156 169.858 163.406 168.818 163.216C153.31 160.458 135.064 172.642 136.446 191.894C138.798 224.694 191.934 217.158 187.938 184.51C186.938 176.33 185.166 172.244 179.236 167.56C177.904 166.506 178.036 162.252 180.056 163.606C209.834 183.494 181.366 229.63 148.658 215.178Z" fill="#EAA115"/>
<path d="M180.22 147.434C180.22 151.376 167.52 200.59 167.5 200.634C165.5 206.016 160.178 201.192 148.246 191.368C147.704 190.924 146.61 190.544 147.246 189.644C148.264 188.208 155.702 193.216 158.682 195.086C163.312 198 163.712 198.8 163.97 197.274C165.326 189.2 174.348 149.454 180.22 147.434Z" fill="#EAA115"/>
<path fill-rule="evenodd" clip-rule="evenodd" d="M160.514 108.622L153.762 109.814L153.062 109.938C153.016 109.938 148.152 110.858 148.49 110.928C143.78 111.956 139.398 112.882 135.324 113.74C98.2 121.576 86.904 123.96 90.69 149.202C93.246 166.176 124.026 300.132 129.024 308.49C135.694 319.638 154.684 320.232 167.384 317.636C208.352 309.256 222.09 305.17 233.364 298.824C244.464 292.58 246.384 288.022 245.694 275.306C244.95 261.636 241.23 247.634 237.092 232.062C235.192 224.914 233.204 217.434 231.378 209.506C228.967 199.039 226.56 188.571 224.158 178.102V178.096C217.258 148.036 215.152 138.848 210.846 122.226C207.346 108.714 204.946 103.878 191.588 104.284C190.267 105.523 188.983 106.799 187.736 108.112C191.83 107.712 195.456 107.572 198.212 107.832C205.712 110.214 206.308 112.824 218.94 168.172L219.776 171.832C224.466 192.376 228.676 209.438 232.182 223.652C243.722 270.42 247.642 286.31 235.982 293.684C224.27 301.084 212.582 303.946 203.494 306.11C201.102 306.68 198.57 307.308 195.936 307.96V307.962C170.286 314.324 135.19 323.03 129.602 302.262C128.709 298.968 127.802 295.678 126.882 292.392C125.064 285.872 123.248 279.35 121.66 272.78L116.204 250.198C89.6 140.166 88.254 134.602 99.756 127.888C106.6 123.888 111.376 122.02 145.368 115.56C147.398 115.174 149.942 114.656 152.826 114.07C156.396 113.344 160.486 112.51 164.764 111.694C163.313 110.717 161.897 109.693 160.514 108.622ZM177.522 118.322C173.086 119.85 172.386 121.348 171.676 122.87C171.19 123.914 170.696 124.97 168.99 126.056C163.496 129.556 150.534 131.912 144.062 132.642C136.358 133.506 133.9 131.706 131.77 130.146C130.222 129.012 128.848 128.006 125.762 128.242C119.342 128.734 102.666 134.544 103.466 136.208C103.728 136.748 105.778 135.948 108.838 134.748C113.102 133.08 119.33 130.642 125.43 129.996C128.538 129.668 129.882 130.742 131.43 131.976C133.09 133.296 134.98 134.804 139.516 134.98C147.226 134.842 154.881 133.643 162.264 131.416C167.2 129.912 171.8 128 173.96 122.852C174.14 122.666 174.3 122.492 174.448 122.336C174.801 121.935 175.184 121.56 175.594 121.216C176.712 120.338 178.226 119.966 184.244 118.488L184.902 118.328C185.036 118.336 194.686 116.296 195 115.328C194 114.218 186.266 116.088 184.94 116.456C183.102 116.812 181.54 117.166 180.204 117.518C179.788 118.118 179.304 118.596 178.486 118.564C178.161 118.499 177.839 118.418 177.522 118.322ZM221.682 224.054C230.93 266.128 234.656 283.092 235.096 275.882C234.412 271.872 201.434 119.486 199.72 119.822C198.588 120.046 208.424 164.19 212.88 184.178L214.072 189.538C216.944 202.49 219.47 213.99 221.682 224.054ZM139.352 298.484C139.364 298.53 105.302 145.338 102.502 141.368C101.348 145.142 138.092 298.8 138.106 298.844C138.478 300.188 139.684 299.662 139.352 298.484ZM143.176 301.85C181.062 306.506 220.988 288.246 229.234 284.474C230.022 284.114 230.52 283.884 230.7 283.822C236.922 281.648 198.13 305.822 155.764 304.822C153.332 304.756 142.4 303.906 143.176 301.85ZM182.952 219.464C170.784 222.388 148.16 227.828 154.946 228.426C161.996 227.212 179.562 222.528 186.17 220.764L187.442 220.426C189.474 219.874 190.554 217.626 185.602 218.826L182.952 219.464ZM158.136 234.048C158.026 233.382 158.55 233.224 159.01 233.086H159.014L159.134 233.048L162.704 232.012L162.71 232.01L162.714 232.008C169.27 230.1 169.5 230.034 185.518 226.062C189.674 225.032 189.69 227.034 186.644 227.862C159.11 235.292 158.294 235.026 158.136 234.048ZM149.86 123.588C149.996 121.218 146.512 120.288 145.98 123.652C145.988 124.167 146.2 124.657 146.57 125.015C146.94 125.373 147.436 125.569 147.951 125.561C148.466 125.553 148.956 125.341 149.314 124.971C149.672 124.601 149.868 124.103 149.86 123.588ZM155.052 122.724C153.13 122.324 153.708 120.184 155.2 120.396C155.391 120.409 155.576 120.469 155.738 120.57C155.901 120.672 156.036 120.811 156.132 120.977C156.228 121.143 156.282 121.329 156.289 121.521C156.296 121.712 156.256 121.902 156.172 122.074C156.071 122.281 155.91 122.454 155.711 122.569C155.511 122.685 155.282 122.739 155.052 122.724Z" fill="#101828"/>
<path d="M345.284 305.938C349.728 306.89 350.654 307.2 391.334 320.338C391.786 320.416 392.214 320.596 392.585 320.866C392.956 321.135 393.26 321.486 393.474 321.892C393.686 322.299 393.802 322.749 393.813 323.208C393.823 323.667 393.728 324.122 393.534 324.538C392.694 327.962 391.628 331.328 390.344 334.612C388.598 338.778 389.646 338.47 364.638 330.412C337.188 321.576 337.792 322.436 338.292 318.994C338.874 314.978 341.252 305.074 345.284 305.938ZM377.33 321.638C371.13 316.106 337.778 307.388 346.898 311.99C352.722 314.928 374.906 321.312 377.33 321.638Z" fill="#EAA115"/>
<path fill-rule="evenodd" clip-rule="evenodd" d="M423.832 184.582C424.02 185.422 424.202 186.264 424.378 187.112C428.298 187.772 432.118 187.638 435.656 185L436.332 184.804C436.952 184.624 437.416 184.486 437.89 184.424C439.296 184.232 440.79 184.68 446.72 186.458L447.378 186.656C447.488 186.734 456.838 189.874 457.6 189.2C457.3 187.74 449.686 185.43 448.376 185.066C437.528 181.218 435.632 182.52 433.688 183.854C432.74 184.504 431.78 185.164 429.764 185.234C428.1 185.292 426.054 185.038 423.832 184.582ZM358.45 150.03C358.928 150.582 359.458 151.194 360.038 151.878C353.564 157.564 345.262 184.718 332.294 227.14V227.144C329.688 235.666 326.894 244.804 323.89 254.508L322.47 259.094C304.81 316.128 303.576 320.112 307.428 326.446C313.916 337.114 329.898 343.398 341.828 347.114C345.186 348.16 348.834 349.376 352.652 350.646C375.71 358.328 404.964 368.07 413.792 355.03C420.66 344.898 423.616 335.048 432.458 305.594L432.46 305.592C437.326 289.38 443.974 267.232 454.04 235.83C456.6 227.846 465.844 198.93 466.886 190.504C468.346 178.714 447.712 172.548 432.614 168.034C426.618 166.242 421.494 164.712 418.974 163.192C418.972 163.196 418.74 163.112 418.302 162.958L416.776 162.418C416.11 160.843 415.412 159.283 414.68 157.738C416.986 158.522 419.32 159.322 421.672 160.128C426.696 161.861 431.73 163.563 436.774 165.236C474.464 177.656 472.892 182.984 466.412 204.962C465.964 206.482 465.492 208.082 465.008 209.77C461.702 221.278 456.742 236.696 451.612 252.644C445.138 272.772 438.392 293.742 434.36 308.76C430.518 323.066 424.266 344.584 416.05 356.91C412.306 362.528 406.81 364.398 400.392 364.45C389.659 364.36 379.004 362.6 368.812 359.234C365.311 358.159 361.802 357.108 358.286 356.082C329.046 347.468 296.31 337.826 303.774 311.764C305.304 306.408 348.904 157.522 354.774 154.074C355.604 152.413 356.816 150.972 358.312 149.872L358.45 150.03ZM421.19 174.606C421.072 174.219 420.952 173.833 420.83 173.448C420.991 173.589 421.11 173.772 421.174 173.977C421.238 174.182 421.243 174.398 421.19 174.606ZM459.156 193.042C458.56 192.442 458.262 192.142 409.07 344.502C408.882 345.442 408.882 345.868 409.332 346.084C410.172 346.49 410.582 345.328 410.898 344.436L410.918 344.38C413.804 336.232 460.692 193.61 459.254 193.116C459.216 193.104 459.186 193.072 459.156 193.042ZM364.4 161.98C365.822 164.944 316.558 317.396 315.672 317.142C314.288 316.75 361.736 165.828 364.4 161.98ZM317.828 321.448C317.982 321.386 318.152 321.371 318.315 321.407C318.478 321.443 318.626 321.527 318.74 321.648C346.844 344.73 401.47 350.098 403.91 350.338L403.982 350.344L403.996 350.346C378.496 355.714 319.064 330.75 317.828 321.448ZM365.324 268.014C350.562 263.23 363.392 274.838 393.324 279.978C393.616 279.996 393.874 280.018 394.102 280.036H394.104C395.302 280.136 395.694 280.168 395.84 279.454C395.962 278.824 395.506 278.646 395.066 278.474C394.948 278.426 394.83 278.38 394.724 278.326C393.662 277.768 374.324 270.934 365.324 268.014ZM387.154 286.306C358.954 279.906 357.12 273.384 360.934 274.388C361.934 274.654 389.348 284.344 388.88 285.722C388.706 286.24 388.168 286.258 387.638 286.276C387.476 286.278 387.315 286.288 387.154 286.306Z" fill="#101828"/>
<path d="M275.884 52.032C274.192 51.919 272.541 51.464 271.03 50.6946C269.519 49.9252 268.18 48.8573 267.093 47.5556C266.006 46.2538 265.195 44.7453 264.708 43.1211C264.221 41.4969 264.069 39.7908 264.26 38.106C264.56 34.7562 266.152 31.6546 268.699 29.4576C271.245 27.2605 274.546 26.1403 277.904 26.334C292.626 27.692 293.182 53.666 275.884 52.032ZM286.628 41.008C287.882 26.286 267.554 24.776 266.488 37.86C266.002 43.826 270.716 49.744 276.272 50.15C277.554 50.2337 278.839 50.063 280.055 49.6477C281.27 49.2324 282.392 48.5808 283.354 47.7303C284.317 46.8798 285.102 45.8473 285.664 44.6922C286.225 43.5371 286.553 42.2823 286.628 41V41.008Z" fill="#101828"/>
<path d="M280.488 33.4319C271.37 31.0319 268.218 38.5839 271.648 45.0639C269.946 44.3939 268.888 42.0019 268.978 39.0339C269.2 31.6579 277.878 29.9779 280.488 33.4319Z" fill="#101828"/>
<path fill-rule="evenodd" clip-rule="evenodd" d="M228.252 82.9078C234.344 86.6578 235.494 94.5278 226.632 97.2838C230.676 98.8338 237.144 92.8138 233.424 86.4358C232.158 84.2658 230.416 82.8838 228.82 82.7078L228.252 82.9078ZM216.448 87.3258C215.6 87.7058 214.754 88.1038 213.914 88.5198C213.462 97.2078 223.28 106.62 232.582 101.924C235.529 100.31 237.733 97.6125 238.728 94.4027C239.723 91.193 239.431 87.7222 237.914 84.7238C237.166 83.1582 236.102 81.7648 234.788 80.6318C233.956 80.9258 232.998 81.2578 231.9 81.6378C233.668 82.7178 235.18 84.2398 236.146 86.1118C242.176 97.7718 224.132 107.262 217.4 94.1118C216.272 92.0396 215.934 89.6285 216.448 87.3258Z" fill="#101828"/>
<path d="M381.4 119.78C378.078 119.562 374.97 118.065 372.729 115.603C370.487 113.142 369.287 109.908 369.38 106.58C369.748 100.732 375.734 95.4538 382.58 94.9338C399.564 93.6458 399.384 120.98 381.4 119.78ZM393.068 107.18C393.211 104.721 392.392 102.303 390.784 100.437C389.177 98.5711 386.907 97.403 384.454 97.1798C378.996 96.5078 372.454 101.38 372.02 106.66C371.664 110.93 374.49 116.896 380.174 117.63C381.708 117.805 383.261 117.673 384.743 117.241C386.225 116.81 387.606 116.088 388.806 115.117C390.006 114.146 391.001 112.946 391.732 111.587C392.463 110.227 392.917 108.736 393.066 107.2L393.068 107.18Z" fill="#101828"/>
<path d="M389.662 110.2C388.078 115.716 378.834 117.144 375.846 111.238C375.188 110.265 374.854 109.109 374.894 107.935C374.933 106.761 375.344 105.63 376.066 104.704C375.138 114.034 383.75 116.4 389.662 110.2Z" fill="#101828"/>
<path d="M401.714 166.442C402.914 165.682 402.868 166.374 404.994 170.568C405.806 172.168 406.594 171.472 406.544 170.18C406.372 165.58 403.506 165.58 405.782 163.764C406.544 163.164 408.248 162.628 407.642 161.646C407.152 160.846 405.786 162.076 404.948 162.558C402.52 163.958 403.052 161.932 399.012 160.44C395.856 159.276 393.046 161.176 393.942 167.024C394.188 168.624 394.166 168.024 387.768 171.44C385.614 172.592 387.592 167.208 386.464 164.32C385.702 164.984 385.12 165.83 384.774 166.78C384.428 167.729 384.328 168.751 384.484 169.75C384.814 174.374 383.246 173.45 381.57 175.482C382.17 175.524 382.51 175.65 382.736 175.544C387.032 173.524 385.888 181.344 392.474 179.842C396.274 178.976 397.212 174.442 396.584 170.61C396.326 169.042 397 169.428 401.714 166.442ZM388.59 176.542C386.496 173.884 387.208 174.318 392.724 171.43C394.388 170.56 394.452 170.29 394.324 173.274C394.084 178.734 390.968 179.56 388.59 176.542ZM395.938 164.08C396.15 160.204 400.7 163.132 400.892 164.21C401.028 164.966 399.914 165.01 399.396 165.41C399.164 165.59 398.906 165.734 398.632 165.84C397.786 166.188 395.692 168.516 395.938 164.08Z" fill="#101828"/>
<path d="M387.086 134.86C381.58 137.46 362.938 148.938 364.774 151.012C365.4 151.72 365.158 151.56 390.34 134.262C389.788 134.111 389.208 134.086 388.645 134.189C388.082 134.293 387.549 134.523 387.086 134.86Z" fill="#101828"/>
<path d="M405.43 204.57C413.368 200.77 417.186 198.792 419.078 195.79L399.838 204.312C400.645 204.893 401.603 205.226 402.596 205.272C403.589 205.318 404.573 205.074 405.43 204.57Z" fill="#101828"/>
<path fill-rule="evenodd" clip-rule="evenodd" d="M391 127C410.466 146 421.346 169.442 425.628 196.3C425.855 197.267 425.79 198.279 425.443 199.209C425.096 200.14 424.481 200.946 423.676 201.528C420.395 204.209 416.891 206.603 413.202 208.686C412.234 208.32 411.24 207.954 410.224 207.586C413.866 205.836 417.178 203.926 419.504 202.148C422.306 200.01 423.522 199.304 423.85 198.308C424.17 197.338 423.654 196.094 422.942 192.994C415.458 160.47 397.236 136.43 390.786 130.23C390.499 129.841 390.101 129.547 389.645 129.388C389.189 129.228 388.695 129.209 388.228 129.334C387.917 129.416 387.626 129.559 387.372 129.756C377.851 134.787 368.612 140.336 359.696 146.376C358.784 146.996 358.342 147.29 358.306 147.63C358.27 147.97 358.638 148.35 359.348 149.132C376.994 168.592 382.462 183.09 385.424 199.796C384.544 199.562 383.692 199.342 382.872 199.136C381.089 191.445 378.41 183.99 374.892 176.922C367.69 163.092 361.798 156.29 358.454 152.43C355.496 149.014 354.53 147.9 356.414 146.258C364.532 139.18 377.628 131.562 387.456 126.468C388.002 126.085 388.675 125.927 389.334 126.026C389.994 126.125 390.59 126.474 391 127Z" fill="#101828"/>
<path d="M373.862 199.748C383.03 200.462 425.192 213.682 427.812 218.536C430.552 223.61 441.212 222.936 437.286 233.772C426.618 263.148 426.034 271.7 414.638 268.804C409.826 267.58 411.404 271.004 401.992 269.068C385.09 265.596 362.05 255.564 355.754 252.146C353.314 250.822 350.794 248.508 351.384 245.792C354.446 232.683 358.48 219.82 363.45 207.31C365.568 202 368.04 199.296 373.862 199.748ZM405.148 266.7C412.418 267.752 412.76 262.326 415.498 255.656C416.476 253.272 414.684 254.752 403.554 249.446C398.33 246.954 400.1 240.582 402.626 236.236C405.358 231.534 408.09 234.926 420.746 237.52C422.46 237.87 423.514 238.362 426.946 226.166C427.357 225.045 427.354 223.815 426.938 222.696C426.522 221.577 425.72 220.644 424.676 220.064C415.168 213.55 378.076 202.636 373.16 202.586C371.454 202.568 368.806 201.6 365.972 209.218C361.596 220.507 357.812 232.015 354.634 243.698C353.598 247.658 356.482 249.216 361.58 251.862C370.632 256.556 391 264.652 405.148 266.7ZM402.536 244.65C401.682 248.28 420.832 253.53 424.484 254.286C427.416 254.886 427.3 254.188 430.084 245.64C430.97 242.908 431.228 242.578 427.584 242.04C408.72 239.2 404.642 230.904 402.536 244.65ZM435.224 229.596C435.462 226.77 430.348 222.828 430.168 225.29C429.692 228.723 428.741 232.074 427.342 235.246C426.142 238.57 426.082 238.55 429.382 239.416C431.144 239.878 431.886 240.532 432.264 239.346C433.494 236.176 434.484 232.918 435.224 229.6V229.596ZM418.024 266.5C422.75 267.1 423.106 264.2 425.858 257.626C426.702 255.612 424.432 256.786 420.604 255.582C418.298 254.858 419.11 256.852 415.87 263.428C414.452 266.324 414.356 266.278 418.032 266.5H418.024Z" fill="#EAA115"/>
<path d="M414.136 243.714C413.718 248.824 406.602 248.436 406.976 243.562C407.102 242.607 407.55 241.725 408.246 241.06C408.942 240.395 409.845 239.988 410.804 239.906C411.738 240 412.602 240.446 413.22 241.154C413.84 241.86 414.166 242.776 414.136 243.714Z" fill="#EAA115"/>
<path d="M340.716 83.2919C339.33 82.0339 340.778 80.3219 336.096 79.5839C334.752 79.3719 331.754 77.8059 332.168 76.8279C332.388 76.3059 332.368 76.2799 337.466 77.7859C339.35 78.3419 338.256 76.8159 338.05 75.2339C337.692 72.4539 337.05 70.3659 333.438 70.0039C330.384 69.6999 329.67 66.7419 331.542 64.2359C332.542 62.8819 336.014 61.4119 334.002 57.7799C333.966 57.7144 333.946 57.6408 333.946 57.5659C333.946 57.4917 333.963 57.4185 333.997 57.3524C334.031 57.2863 334.08 57.2292 334.14 57.1859C334.201 57.143 334.272 57.1155 334.346 57.1059C335.814 56.9179 333.99 61.3579 339.796 60.0239C340.758 59.8039 342.44 59.7839 342.524 60.8619C342.608 61.9399 340.954 61.6219 340.05 61.8119C336.902 62.4699 337.064 62.4119 337.794 65.5879C338.332 67.9479 339.194 69.5339 341.886 69.4739C342.626 69.4559 347.312 71.2359 347.026 74.8739C346.53 81.1539 340.44 78.0739 341.04 82.4019C341.072 82.6379 340.86 82.9159 340.716 83.2919ZM339.964 71.2139C338.964 71.0139 339.342 71.5559 340.66 77.4379C341.25 80.0799 351.524 73.5539 339.964 71.2139ZM335.02 68.4139C335.478 68.2299 336.252 68.8719 336.358 67.8539C336.244 66.3997 335.748 65.0016 334.918 63.8019C334.324 64.0432 333.789 64.4099 333.35 64.8769C332.91 65.3439 332.577 65.9002 332.372 66.5079C332.4 68.2719 333.876 68.1159 335.02 68.3999V68.4139Z" fill="#101828"/>
<path d="M372.154 80.9902L364.934 54.7422C368.074 56.5422 374.162 80.4342 372.154 80.9902Z" fill="#101828"/>
<path d="M312.354 92.3542C301.2 68.1162 301.222 68.1942 301.788 67.8502C304.118 66.4342 313.2 90.2762 312.354 92.3542Z" fill="#101828"/>
<path d="M361.77 50.0401C371.084 50.1801 371.746 50.3221 372.782 52.8401C377.028 63.1821 378.476 74.1501 379.912 85.1081C380.174 87.1081 379.488 87.6981 377.512 87.6761C353.418 87.4101 332.596 88.8601 310.496 98.4661C307.748 99.6661 307.124 98.3101 300.114 84.4001C291.2 66.7121 290.368 67.1361 293.714 65.3721C315.116 54.0661 337.546 49.6781 361.77 50.0401ZM377.228 84.8401C370.628 53.0021 370.518 52.9821 368.498 52.9901C343.014 53.0901 319.198 56.9761 295.808 67.1001C293.342 68.1661 296.046 68.3001 302.208 81.3001C309.324 96.3281 308.704 96.7741 310.822 95.4701C319.978 89.8401 347.258 82.2741 377.228 84.8421V84.8401Z" fill="#101828"/>
<path d="M308.322 356.384C295.574 361.29 281.202 365.714 263.882 363.33C223.328 357.746 200.622 316.374 206.482 315.13C208.412 314.73 231.574 378.798 308.224 353.73C309.836 353.202 308.524 353.376 303.33 352.13C301.348 351.654 291.06 348.502 291.67 346.556C292.308 344.516 298.914 346.574 301.07 347.092C310.232 349.292 318.766 348.044 314.646 354.55C305.806 368.5 303.528 375.042 301.01 373.488C299.876 372.788 300.41 371.706 300.842 370.806C306.706 358.358 310.4 355.414 308.322 356.384Z" fill="#101828"/>
<path d="M200.866 92.6001C198.894 92.9761 199.676 89.5861 195.244 91.3701C193.228 92.1801 189.222 92.2101 189.218 90.9241C189.218 90.0081 193.618 89.8441 195.542 88.8441C190.456 82.3541 191.036 82.4601 189.786 83.0001C183.976 85.5061 181.604 83.1761 181.91 79.7601C182.29 75.5401 184.51 75.4461 182.454 73.6701C182.052 73.3261 181.702 72.9252 181.416 72.4801C181.148 72.0501 180.196 71.7481 180.828 71.0941C181.3 70.6041 182.948 72.0941 183.028 72.1741C185.356 74.4681 185.092 71.6061 189.072 70.1861C189.672 69.9701 190.472 69.6801 190.826 70.3061C191.144 70.8781 190.384 71.2861 189.964 71.6661C186.68 74.6281 185.918 74.7101 187.056 75.7481C191.174 79.5041 190.908 80.2741 192.388 79.6081C200.244 76.0681 205.14 81.5921 202.058 86.7381C200.328 89.6001 200.326 89.6001 200.866 92.6001ZM193.11 81.7001C198.548 88.0741 198.258 88.4641 200.256 85.6041C202.118 82.9381 201.728 79.0521 193.11 81.6941V81.7001ZM188.922 80.6781C185.3 76.8141 184.974 75.9841 184.134 78.6221C183.188 81.5881 184.466 83.1861 188.922 80.6721V80.6781Z" fill="#101828"/>
<path d="M229.858 78.4441C223.762 71.2601 218.378 63.4881 211.622 56.7501C214.43 55.2361 227.936 73.9261 229.858 78.4441Z" fill="#101828"/>
<path d="M177.678 114.05C170.437 111.47 163.899 107.233 158.586 101.678C158.114 101.206 158.54 100.868 159.08 101.258C165.121 105.629 171.392 109.671 177.868 113.366C178.428 113.68 178.368 114.28 177.678 114.05Z" fill="#101828"/>
<path d="M178.496 120.98C174.466 120.188 163.028 114.388 153.496 104.872C151.576 102.954 151.526 102.62 152.646 100.114C157.646 89.2293 164.739 79.4347 173.52 71.2881C191.094 54.5421 204.72 52.7121 212.174 50.0761C215.774 48.8001 217.874 50.1421 220.286 52.5021C228.138 60.0719 234.599 68.9632 239.372 78.7701C240.836 81.8121 240.392 80.8381 220.572 88.0601C203.512 94.2801 186.996 109.26 180.382 119.66C179.94 120.376 179.438 121.014 178.496 120.98ZM236.896 79.3521C231.301 69.7313 224.61 60.7916 216.956 52.7121C216.576 52.2679 216.059 51.9639 215.486 51.8486C214.913 51.7333 214.318 51.8134 213.796 52.0761C187.996 60.3761 168.276 74.4381 154.56 101.016C154.442 101.178 154.358 101.362 154.315 101.557C154.271 101.753 154.269 101.955 154.308 102.151C154.346 102.348 154.425 102.534 154.54 102.698C154.654 102.863 154.801 103.002 154.972 103.106C161.592 109.042 168.924 114.133 176.8 118.26C177.027 118.442 177.295 118.568 177.581 118.625C177.866 118.682 178.162 118.669 178.441 118.588C178.721 118.507 178.978 118.36 179.189 118.159C179.4 117.958 179.559 117.71 179.654 117.434C185.5 107.434 201.874 91.3941 220.372 85.0141C232.584 80.8021 236.346 80.9141 236.886 79.3541L236.896 79.3521Z" fill="#101828"/>
</svg>
