<svg width="560" height="402" viewBox="0 0 560 402" fill="none" xmlns="http://www.w3.org/2000/svg">
<rect width="560" height="400" transform="translate(0 1)" fill="white"/>
<path fill-rule="evenodd" clip-rule="evenodd" d="M227.296 267.446C229.374 268.638 231.135 269.872 231.41 270.586C244.403 270.68 258.003 270.753 271.781 270.805C272.43 269.852 272.987 268.779 273.413 267.535C257.538 267.501 241.937 267.47 227.296 267.446ZM444.669 269.784C435.047 270.483 387.708 270.865 332.632 270.901C332.009 269.896 331.567 268.851 331.239 267.69C386.884 267.868 435.417 268.132 445.459 268.52C447.837 268.61 447.152 269.603 444.669 269.784Z" fill="#101828"/>
<path fill-rule="evenodd" clip-rule="evenodd" d="M203.375 302.69C200.808 306.207 198.269 309.744 195.757 313.301C195.664 313.434 195.556 313.56 195.447 313.683C193.293 316.175 192.784 316.764 374.458 315.819C373.116 315.161 371.799 314.451 370.512 313.691C313.967 313.566 204.621 313.626 197.994 313.868L198.531 313.13L198.533 313.126C199.156 312.274 199.672 311.566 200.203 310.869C202.275 308.132 204.338 305.389 206.394 302.64L203.375 302.69ZM219.35 284.926C220.245 283.671 220.978 282.63 221.585 281.768C224.52 277.605 224.52 277.603 225.358 277.643C234.19 278.068 247.896 278.283 263.522 278.363C263.653 278.232 263.793 278.106 263.94 277.981C264.65 277.393 265.373 276.82 266.107 276.263L266.41 276.027C228.118 275.873 223.885 275.971 221.774 278.138C221.514 278.418 221.269 278.714 221.043 279.022L220.846 279.278C220.401 279.852 219.947 280.441 219.489 281.04C219.431 282.488 219.386 283.774 219.35 284.926ZM339.028 277.026C339.506 277.368 339.958 277.716 340.372 278.07C360.243 277.875 374.782 277.664 376.042 277.645L376.13 277.643C376.265 277.628 376.401 277.627 376.536 277.641C377.069 277.728 377.515 278.361 379.903 281.752C380.502 282.602 381.224 283.627 382.102 284.863C383.049 284.863 384.02 284.906 385.01 284.992C383.503 282.998 382.032 281.073 380.641 279.278L380.546 279.155C380.064 278.532 379.68 278.033 379.21 277.639C377.364 276.086 374.197 276.102 358.587 276.18C354.159 276.202 348.732 276.23 342.049 276.228L337.934 276.226C338.282 276.488 338.646 276.755 339.028 277.026Z" fill="#101828"/>
<path d="M409.004 100.062C408.537 98.6045 228.928 100.952 193.429 101.82C192.214 101.76 191.013 102.109 190.018 102.81C189.024 103.512 188.293 104.526 187.942 105.692C186.82 109.075 187.439 216.815 188.276 225.319C188.346 226.034 189.106 226.123 189.176 225.319C189.578 220.68 189.476 189.103 189.544 108.057C189.544 102.63 194.501 103.836 204.993 103.752C422.175 101.907 409.432 101.402 409.004 100.062Z" fill="#101828"/>
<path d="M198.613 109.603C198.594 110.301 198.303 110.963 197.803 111.45C197.303 111.937 196.633 112.209 195.935 112.209C195.237 112.209 194.567 111.937 194.066 111.45C193.566 110.963 193.276 110.301 193.256 109.603C193.168 105.844 198.515 106.198 198.613 109.603Z" fill="#101828"/>
<path d="M203.405 110.952C202.921 110.955 202.455 110.769 202.106 110.434C201.756 110.099 201.551 109.641 201.534 109.157C201.517 108.673 201.689 108.202 202.013 107.843C202.338 107.484 202.789 107.265 203.272 107.233C203.756 107.231 204.222 107.416 204.572 107.752C204.921 108.087 205.126 108.545 205.143 109.028C205.161 109.512 204.989 109.983 204.664 110.343C204.34 110.702 203.888 110.92 203.405 110.952Z" fill="#101828"/>
<path d="M413.486 106.411C413.49 106.25 413.54 106.094 413.63 105.961C413.72 105.827 413.847 105.723 413.994 105.659C414.142 105.595 414.305 105.574 414.464 105.6C414.623 105.625 414.771 105.695 414.891 105.802C415.052 105.949 415.15 106.15 415.164 106.367C415.522 108.086 415.516 199.537 414.843 225.112C414.821 225.916 415.229 227.365 413.786 227.293C412.453 227.224 412.863 225.866 412.847 225.007C412.232 191.189 413.345 107.519 413.486 106.411Z" fill="#101828"/>
<path fill-rule="evenodd" clip-rule="evenodd" d="M422.523 87.6018C429.208 93.081 429.325 106.574 430.266 140.169C430.935 164.1 431.693 219.609 426.246 243.276C425.709 245.75 424.47 248.016 422.677 249.803C420.883 251.589 418.613 252.821 416.137 253.348C410.762 254.933 405.201 255.8 399.599 255.929C394.829 256.022 390.064 256.293 385.296 256.562C379.718 256.878 374.138 257.196 368.549 257.228C335.203 257.421 330.666 256.993 330.18 258.197C330.079 258.448 330.154 258.769 330.18 259.183C330.783 268.46 331.163 271.42 339.024 277.034C342.465 279.492 344.491 282.27 341.476 285.239C335.418 291.203 297.3 289.619 278.856 288.853L277.212 288.785C261.606 288.141 259.783 281.47 263.936 277.989C264.642 277.398 265.371 276.835 266.101 276.274C269.747 273.466 273.393 270.657 274.177 264.094L274.342 262.725C274.949 257.738 274.989 257.409 273.16 257.364C259.48 257.029 255.846 257.222 252.893 257.378C248.855 257.594 246.091 257.74 220.665 256.375C220.832 251.125 220.946 246.042 221.027 241.684C249.595 242.354 288.981 242.444 290.725 242.223C301.013 240.925 253.846 239.528 221.069 239.266C221.124 236.022 221.171 232.778 221.21 229.534C246.228 229.524 274.282 229.719 301.354 229.908C365.19 230.352 423.57 230.758 423.826 228.352H423.834C426.435 203.842 429.142 113.949 423.906 96.2508C422.159 90.3434 419 88.1304 414.883 87.6882L414.807 87.6862C411.384 87.5777 293.304 83.8612 219.473 87.0852C215.73 87.248 212.239 87.3505 209.001 87.447C191.206 87.9656 180.981 88.2651 178.246 97.3101C172.748 115.489 174.909 172.335 175.848 196.97C175.92 198.843 175.989 200.716 176.057 202.59C176.525 215.777 176.835 222.589 177.239 226.105L173.199 226.129C169.842 197.929 171.189 149.009 171.538 136.352C171.546 136.079 171.554 135.822 171.558 135.582C172.867 88.7214 174.676 86.4601 193.204 84.0179C218.193 80.7437 346.069 81.622 377.298 83.214C403.215 84.5406 416.001 82.2532 422.525 87.6018H422.523ZM293.779 285.834C317.832 286.423 347.462 287.147 336.688 279.571H336.696C329.494 274.508 327.008 270.25 327.808 258.858C327.832 258.524 327.912 258.269 327.838 258.072C327.494 257.169 323.848 257.525 296.114 257.437C280.663 257.386 277.682 256.974 277.17 257.911C277.049 258.134 277.067 258.434 277.09 258.834C277.381 263.861 276.917 269.708 273.821 273.676C272.967 274.771 285.109 274.594 298.361 274.401C306.719 274.279 315.517 274.15 321.776 274.331C317.253 277.464 286.681 278.087 273.315 276.057C273.23 276.045 273.146 276.029 273.059 276.013C272.553 275.923 272.02 275.826 271.516 276.234C270.342 277.185 269.325 277.967 268.473 278.624C265.072 281.243 264.264 281.866 266.4 283.131C270.087 285.313 277.395 285.47 286.661 285.669L288.975 285.719L293.779 285.834ZM302.375 240.01C302.188 240.427 302.084 240.876 302.07 241.333H302.078C302.091 242.229 302.448 243.086 303.076 243.725C303.704 244.365 304.555 244.738 305.451 244.768C306.347 244.795 307.219 244.475 307.886 243.875C308.553 243.276 308.963 242.442 309.03 241.548C309.044 241.091 308.968 240.635 308.807 240.207C308.603 239.673 308.271 239.197 307.839 238.821C307.408 238.445 306.891 238.181 306.334 238.052C305.776 237.923 305.196 237.934 304.643 238.082C304.091 238.23 303.583 238.512 303.165 238.903C302.832 239.216 302.563 239.593 302.375 240.01ZM316.387 239.847C316.056 239.514 315.605 239.325 315.135 239.323L315.143 239.329C314.901 239.312 314.659 239.345 314.431 239.427C314.203 239.509 313.994 239.637 313.818 239.803C313.641 239.967 313.5 240.166 313.403 240.388C313.306 240.609 313.256 240.848 313.255 241.089C313.253 241.331 313.3 241.571 313.394 241.794C313.489 242.017 313.628 242.218 313.804 242.384C313.979 242.551 314.186 242.68 314.413 242.764C314.64 242.848 314.881 242.885 315.123 242.872C315.474 242.875 315.819 242.773 316.113 242.579C316.406 242.386 316.635 242.109 316.771 241.784C316.907 241.46 316.942 241.102 316.874 240.757C316.806 240.412 316.636 240.096 316.387 239.847ZM374.486 238.72C308.793 239.021 321.342 241.184 370.486 240.529H370.494C407.8 240.032 411.215 240.5 411.466 239.815C411.498 239.725 411.476 239.614 411.47 239.477C411.466 239.387 411.464 239.307 411.438 239.232C411.167 238.448 408.296 238.563 374.486 238.72Z" fill="#101828"/>
<path d="M359.715 204.377C319.402 204.324 305.043 159.847 333.022 138.851C359.779 118.771 399.722 139.494 395.245 172.478C394.497 179.013 391.932 185.209 387.841 190.36C383.75 195.512 378.297 199.413 372.1 201.623C361.936 205.378 359.389 203.295 360.708 205.386C361.065 205.952 360.675 206.234 356.945 212.258C356.73 212.651 356.412 212.979 356.025 213.205C355.638 213.432 355.196 213.548 354.748 213.542C334.045 213.355 333.154 213.743 333.241 212.181C333.301 211.154 334.228 211.158 335.05 211.15C361.491 210.863 350.7 215.04 359.715 204.377ZM383.177 166.896C384.024 156.177 371.318 140.826 352.149 143.691C329.235 147.108 322.725 175.941 342.668 188.192C358.792 198.095 383.133 189.818 383.177 166.896ZM355.074 137.739C355.074 135.1 356.153 133.92 349.162 135.327C319.05 141.357 311.147 178.6 337.775 195.044C341.548 197.374 340.853 196.511 343.09 192.789C344.607 190.256 337.094 191.026 330.865 178.518C323.659 164.046 332.023 144.507 352.824 140.861C355.212 140.428 355.072 140.414 355.074 137.739ZM358.708 134.772C357.61 134.686 357.176 135.028 357.274 136.153C357.548 139.325 356.47 140.364 358.728 140.539C377.302 141.974 386.896 156.547 386.373 168.056C385.615 184.763 376.082 187.151 377.391 188.831C379.664 191.758 379.622 192.584 380.506 191.818C401.764 173.4 391.127 137.283 358.708 134.772ZM375.877 195.223C377.957 193.997 377.973 194.017 376.681 192.103C375.63 190.534 375.602 189.509 373.978 190.536C359.238 199.874 346.746 192.604 345.689 193.08C344.553 193.591 344.483 195.396 343.729 196.525C343.198 197.329 343.196 197.786 344.296 198.16C349.45 200.032 354.955 200.74 360.416 200.232C365.876 199.724 371.156 198.014 375.877 195.223Z" fill="#EAA115"/>
<path d="M377.903 64.0948C367.489 65.6365 363.875 66.7762 363.395 63.8014C363.14 62.2316 365.246 61.2627 366.828 61.0979C380.594 59.6648 389.824 57.4035 388.2 63.52C386.85 68.7268 385.207 73.8537 383.282 78.8764C382.637 80.5266 381.674 81.817 380.016 81.3065C377.342 80.4864 378.894 77.0855 381.25 69.7932C381.975 67.544 382.351 67.4013 375.778 72.5388C275.56 150.915 282.732 149.839 284.623 126.63C284.846 123.89 286.096 124.083 266.752 136.549C206.181 175.581 206.335 175.005 204.844 173.332C203.055 171.332 200.754 171.296 284.129 119.575C286.667 118.001 289.875 117.78 289.757 121.241C289.206 138.125 279.861 140.053 312.886 114.9C312.95 114.871 377.774 64.8124 377.903 64.0948Z" fill="#EAA115"/>
<path d="M261.247 166.999C261.263 165.019 261.697 164.605 263.618 164.571C281.304 164.245 280.965 163.525 281.003 166.755C281.184 182.566 281.437 196.831 281.499 215.156C281.512 218.634 281.451 218.839 278.014 219.04C272.903 219.337 267.783 219.61 262.654 219.472C259.765 219.395 260.827 219.492 261.247 166.999ZM278.862 176.598C279.148 163.855 281.604 166.679 265.114 166.977C262.404 167.025 263.468 167.107 263.687 189.036C263.687 189.887 263.719 213.219 263.769 214.067C263.944 217.03 265.699 215.892 276.818 215.797C280.432 215.767 278.058 212.437 278.862 176.598Z" fill="#EAA115"/>
<path d="M234.735 180.377C234.831 178.285 235.097 179.099 252.529 178.723C255.279 178.663 254.586 178.598 254.839 216.682C254.859 220.216 254.718 220.22 251.201 220.533C246.176 220.981 241.175 220.332 236.166 220.593C234.817 220.662 234.369 220.159 234.389 218.774C234.544 207.356 234.281 190.146 234.735 180.377ZM241.356 181.569C236.733 181.613 236.873 181.304 236.898 184.168C237.185 217.257 236.662 217.194 238.148 217.221C258.537 217.572 250.196 221.715 252.332 182.216C252.429 180.418 251.279 181.477 241.356 181.569Z" fill="#EAA115"/>
<path d="M208.778 194.568C208.778 191.714 210.386 192.99 226.478 192.572C229.589 192.489 228.634 192.906 229.055 218.099C229.097 220.529 229.36 220.593 210.104 220.774C207.324 220.804 208.772 220.296 208.778 194.568ZM211.268 207.39C211.433 217.735 210.733 218.121 212.675 217.952C224.787 216.897 226.327 218.905 226.283 216.447C226.162 209.844 226.253 202.547 226.387 195.933C226.421 194.182 226.263 195.108 212.496 195.253C210.185 195.281 211.075 195.269 211.268 207.39Z" fill="#EAA115"/>
<path d="M214.056 125.611C251.701 124.919 253.181 124.927 253.251 127.621C253.303 129.48 251.597 129.832 242.67 129.966C201.783 130.555 200.44 130.539 200.197 128.097C199.936 125.442 206.886 125.743 214.056 125.611Z" fill="#EAA115"/>
<path d="M222.458 137.956C233.939 138.109 237.131 137.337 237.231 140.026C237.275 141.281 236.307 141.884 234.293 142.036C227.585 142.545 207.646 143.122 202.836 142.237C202.398 142.215 201.983 142.031 201.67 141.722C201.358 141.413 201.171 141 201.143 140.562C201.116 140.124 201.251 139.691 201.522 139.345C201.794 139 202.183 138.767 202.615 138.69C204.661 137.956 220.283 137.926 222.458 137.956Z" fill="#EAA115"/>
<path d="M344.119 122.007C362.778 122.574 361.849 122.16 362.754 123.615C366.171 129.122 366.533 129.663 365.568 130.248C364.866 130.67 364.488 130.047 364.179 129.605C359.176 122.539 364.844 124.97 340.441 123.725C339.588 123.681 338.175 123.87 338.147 122.974C338.117 121.957 338.439 122.25 344.119 122.007Z" fill="#EAA115"/>
<path d="M317.478 171.988C317.541 173.073 317.539 173.093 306.5 173.65C296.166 174.172 295.877 174.02 295.865 172.771C295.853 171.437 296.018 171.698 312.97 170.962C312.982 171.385 317.386 170.205 317.478 171.988Z" fill="#EAA115"/>
<path d="M337.247 124.186C337.196 124.925 336.857 125.614 336.303 126.105C335.75 126.597 335.025 126.852 334.286 126.815C333.547 126.78 332.85 126.457 332.346 125.916C331.842 125.374 331.569 124.657 331.587 123.917C331.7 123.166 332.069 122.478 332.631 121.968C333.193 121.458 333.914 121.157 334.672 121.117C335.402 121.225 336.068 121.597 336.542 122.162C337.017 122.728 337.268 123.448 337.247 124.186Z" fill="#EAA115"/>
<path d="M292.046 176.189C288.416 176.104 289.146 170.601 292.331 170.631C296.235 170.663 295.495 176.277 292.046 176.189Z" fill="#EAA115"/>
<path d="M329.474 214.803C329.122 214.807 328.773 214.74 328.448 214.605C328.123 214.471 327.829 214.272 327.583 214.021C327.21 213.644 326.96 213.163 326.866 212.641C326.771 212.119 326.838 211.581 327.056 211.098C327.273 210.614 327.633 210.208 328.086 209.933C328.539 209.658 329.065 209.527 329.595 209.556C332.672 209.605 333.265 214.845 329.474 214.803Z" fill="#EAA115"/>
<path d="M407.782 294.063C414.598 298.907 416.901 305.837 415.595 313.918C412.58 332.476 370.756 318.05 363.182 307.733C352.272 292.881 378.002 272.895 407.782 294.063ZM411.024 318.384C413.462 315.441 415.124 308.408 412.489 305.642C400.863 293.438 382.741 291.271 380.783 292.839C379.769 293.574 378.556 293.986 377.304 294.022C376.052 294.058 374.817 293.715 373.762 293.04C373.296 292.613 372.719 292.326 372.098 292.209C371.476 292.093 370.835 292.152 370.245 292.38C363.725 293.787 364.243 294.006 362.933 298.368C362.386 300.187 364.01 300.449 364.856 301.156C367.2 303.252 369.936 304.862 372.907 305.894C375.877 306.926 379.022 307.359 382.16 307.168C394.94 306.362 406.276 306.499 411.024 318.394V318.384ZM362.856 301.192C361.327 316.167 417.126 328.84 407.35 315.216C396.861 300.613 380.701 317.656 362.856 301.202V301.192ZM412.397 303.946C414.497 296.963 381.013 277.06 365.966 292.449C367.891 291.884 369.865 291.496 371.861 291.285C373.379 291.114 376.046 287.436 381.002 291.172C382.309 292.165 398.891 289.976 412.397 303.956V303.946Z" fill="#101828"/>
<path d="M169.012 263.433C223.453 264.979 219.937 263.059 225.091 265.71C226.239 266.301 231.764 269.602 231.428 270.846C231.428 270.876 144.707 268.697 135.149 269.087C134.114 269.129 134.197 270.412 135.184 270.508C138.57 270.846 154.829 270.402 192.963 271.652C218.691 272.496 219.604 270.958 219.374 273.059C218.972 276.709 219.374 276.99 219.2 287.627C219.2 288.287 218.93 288.508 218.235 288.476C198.026 287.557 145.039 287.766 135.003 288.546C132.993 288.705 132.739 290.076 134.822 290.23C140.516 290.656 163.822 290.258 217.561 290.367C219.149 290.367 219.772 290.166 218.802 299.718C218.46 303.149 218.99 302.355 174.222 303.084C129.359 303.816 129.783 305.569 129.6 300.968C129.582 300.546 129.509 300.178 129.515 299.888C129.562 297.846 130.305 298.296 133.274 298.343C203.405 299.438 197.869 297.396 197.859 296.897C197.839 295.949 196.573 296.357 195.849 296.355C195.797 296.355 132.456 295.852 130.709 295.921C129.166 295.981 129.537 295.704 129.554 285.581C129.554 283.145 132.609 283.412 149.73 283.087C190.654 282.307 204.874 281.615 214.106 279.74C214.307 279.698 215.312 278.846 214.052 278.805C212.544 278.757 207.3 279.189 182.76 279.171C159.698 279.153 147.987 281.302 133.113 281.66C124.599 281.861 126.153 279.953 115.656 279.284C115.347 279.264 114.967 279.398 114.881 278.994C114.806 278.645 115.114 278.412 115.399 278.295C128.464 272.976 138.313 277.214 171.096 276.317C188.985 275.829 207.712 276.317 213.178 275.768C215.218 275.567 215.372 274.572 213.031 274.54C129.656 273.385 129.69 274.902 129.688 271.885C129.678 258.868 129.268 259.011 131.316 259.055C193.968 260.37 208.416 259.913 211.656 259.602C212.661 259.503 213.425 258.681 211.68 258.531C202.173 257.7 132.709 257.045 130.84 257.075C129.895 257.091 129.499 257.043 129.479 256.103C129.405 252.581 122.263 252.921 198.999 254.967C220.534 255.54 220.486 254.79 220.132 257.075C219.509 261.107 220.759 262.269 218.108 262.191C200.784 261.68 150.739 261.558 140.016 261.387C137.529 261.349 137.161 262.754 139.901 262.979C143.535 263.28 152.606 262.967 169.012 263.433Z" fill="#EAA115"/>
<path d="M212.185 246.108C202.834 244.786 171.914 244.275 131.873 245.877C128.737 246.004 129.614 244.812 130.818 244.609C137.704 243.449 144.003 241.916 150.47 241.333C182.218 238.474 207.453 241.495 212.156 240.519C216.86 239.542 213.389 239.045 211.941 238.981C126.878 235.162 140.653 243.672 113.741 245.857C112.414 245.966 112.45 244.973 113.084 244.494C117.5 240.736 122.36 237.532 127.556 234.955C131.21 233.393 200 231.654 219.147 233.825C221.559 234.099 221.041 233.648 220.715 250.372C220.607 255.919 220.737 251.831 131.051 251.847C130.022 251.847 129.556 251.793 129.552 250.894C129.537 247.027 129.521 247.636 133.37 247.564C197.353 246.37 196.183 248.096 211.841 248.231C215.76 248.265 212.388 246.139 212.185 246.108Z" fill="#EAA115"/>
<path d="M221.232 228.722C221.127 233.249 221.823 232.34 217.529 231.894C184.893 228.507 148.385 231.184 129.893 232.746C125.556 234.308 115.807 235.22 118.738 233.08C128.289 226.095 129.27 226.133 130.969 226.139C220.293 226.493 221.338 224.244 221.232 228.722Z" fill="#EAA115"/>
</svg>
