<svg width="560" height="400" viewBox="0 0 560 400" fill="none" xmlns="http://www.w3.org/2000/svg">
<rect width="560" height="400" fill="white"/>
<path d="M183.07 114.358C181.882 118.838 125.638 140.138 121.234 141.588C119 142.322 117.806 142.702 117.306 141.514C115.706 137.714 175.76 113.982 178.152 113.054C180.1 112.302 182.782 112.1 183.07 114.358Z" fill="#EAA115"/>
<path d="M161.8 199.04C162.014 199.93 161.178 200.268 160.536 200.534C137.25 210.162 136.168 210.734 135.372 208.92C134.14 206.126 160.984 195.668 161.8 199.04Z" fill="#EAA115"/>
<path d="M147.57 164.782C147.686 165.49 147.05 165.846 146.51 166.086C138.892 169.528 131.101 172.576 123.17 175.218C121.522 175.618 120.17 173.97 122.22 172.86C129.474 168.912 147.058 161.64 147.57 164.782Z" fill="#EAA115"/>
<path d="M168.42 282.272C166.516 282.324 166.55 280.172 168.038 279.438C173.745 276.48 179.599 273.816 185.578 271.456C187.872 270.782 189.124 273.32 186.752 274.586C186.706 274.61 169.8 282.556 168.42 282.272Z" fill="#EAA115"/>
<path d="M129.4 193.588C124.448 193.254 129.66 188.492 146.688 183.934C149.616 183.15 151.014 185.216 148.26 186.308C141.612 188.948 133.144 192.894 129.4 193.588Z" fill="#EAA115"/>
<path fill-rule="evenodd" clip-rule="evenodd" d="M200.496 100.08L201.368 102.354C201.924 103.8 204.21 108.598 207.054 114.466L205.588 120.098C201.047 110.028 196.536 99.9438 192.056 89.8461C160.748 103.038 139.31 111.94 124.664 118.022C96.88 129.558 93.524 130.95 93.564 132.242C93.5828 132.434 93.6342 132.621 93.716 132.796V132.8C109.228 172.19 111.476 178.096 114.922 187.16C118.282 196 122.786 207.84 141.848 256.666L139.228 262.386L138.694 260.926C135.368 251.874 132.184 243.2 129.792 237.092C127.772 231.937 125.751 226.781 123.73 221.626C91.362 139.04 88.298 131.226 90.59 129.048C90.83 128.82 91.13 128.654 91.458 128.472L91.518 128.438C101.072 123.102 186.088 87.5081 191.984 85.9841C194.812 85.2561 195.444 86.9061 200.496 100.08ZM148.214 286.474C149.181 288.991 150.174 291.498 151.192 293.994C151.904 296.03 152.532 297.848 153.092 299.47V299.474C156.908 310.534 157.582 312.488 160.404 311.864C164.316 310.998 176.614 306.59 191.388 301.028V295.488C180.752 300.016 161.9 307.946 161.62 307.23L151.008 280.108L148.214 286.474Z" fill="#EAA115"/>
<path d="M190.312 183.124C190.478 191.724 190.578 189.936 153.354 274.762C131.464 324.644 131.12 325.362 128.27 330.942C123.552 340.164 107.94 332.616 112.17 322.742C116.37 312.93 116.042 312.178 117.954 313.504C120.938 315.57 130.086 321.168 131.514 317.834C179.054 206.774 192.754 185.678 186.084 183.892C185.084 183.622 184.284 182.348 183.258 182.804C182.388 183.188 181.858 184.284 181.068 184.908C174.75 189.854 177.118 190.01 145.668 256.43C121.054 308.404 120.668 310.508 119.036 309.692C118.13 309.238 118.186 308.538 121.502 301.262C179.424 174.128 172.584 189.972 187.942 174.54C188.584 173.894 189.266 173.122 190.272 173.636C191.172 174.092 190.964 173.8 190.312 183.124ZM115.712 320.858C114.442 323.576 112.522 325.922 115.092 328.858C115.934 329.99 117.06 330.88 118.355 331.439C119.651 331.998 121.071 332.205 122.472 332.04C125.846 331.592 126.558 328.622 127.738 326.076C123.236 325.831 118.971 323.98 115.718 320.858H115.712ZM117.444 316.236C116.114 319.332 115.772 318.774 118.604 320.798C120.88 322.258 123.358 323.378 125.958 324.122C128.44 324.98 128.438 324.902 129.53 322.522C130.738 319.914 128.166 323.35 117.45 316.236H117.444Z" fill="#101828"/>
<path d="M181.04 197.49C181.02 197.536 133.012 303.864 127.208 313.69C126.692 314.564 125.988 314.204 126.316 313.244C129.58 303.662 166.48 225.334 178.976 198.692C180.076 196.358 181.04 196.572 181.04 197.49Z" fill="#101828"/>
<path d="M250.352 160.872C250.768 141.038 271.352 122.946 292.298 124.656C315.086 126.516 331.262 145.12 329.954 165.606C326.432 220.822 245.884 214.716 250.352 160.872ZM288.574 166.93C286.668 178.306 288.668 185.258 285.19 184.366C283.369 183.965 281.663 183.156 280.2 182C276.93 179.288 275.034 174.308 273.434 175.316C272.496 175.916 272.966 177.716 273.268 178.33C278.236 188.304 284.706 187.2 286.09 188.646C287.368 189.978 284.938 193.942 287.12 194.116C288.672 194.236 288.908 192.962 289.12 189.928C289.32 186.986 295.496 189.898 300.43 182.236C305.502 174.36 302.29 169.092 293.596 165.056C291.362 164.02 291.876 164.332 293.408 148.246C293.656 145.626 293.746 145.646 296.228 146.63C298.816 147.629 301.156 149.18 303.084 151.174C303.422 151.526 303.72 152.246 304.378 151.814C306.61 150.362 300.542 145.138 297.544 144.404C290.474 142.67 295.846 137.34 293.188 137.116C292.228 137.034 292.048 137.848 291.65 141.536C291.35 144.314 285.934 140.42 280.066 147.774C275.666 153.282 276.866 160.534 286.012 164.624C288.442 165.704 288.762 165.8 288.574 166.93Z" fill="#EAA115"/>
<path d="M292.342 309.768C241.45 306.2 261.502 307.65 241.2 305.9C238.2 305.642 237.44 301.45 237.628 298.77C238.486 286.53 238.524 286.676 238.678 286.17C240.878 278.97 238.628 279.97 312.194 285.21C315.554 285.45 316.712 286.56 316.794 289.96C317.206 295.907 316.74 301.882 315.41 307.692C314.298 311.722 313.978 310.728 292.386 309.21L292.342 309.768ZM245.572 287.744C245.322 290.122 257.842 290.482 280.44 291.632C321.778 293.736 246.02 283.434 245.572 287.744Z" fill="#EAA115"/>
<path d="M229.15 76.1624C229.442 86.7464 211.29 280.51 207.258 306.396C207.032 307.848 205.964 308.556 206.058 306.47C207.164 281.496 223.044 102.47 227.544 76.4364C228.2 72.6484 229.054 72.6404 229.15 76.1624Z" fill="#101828"/>
<path d="M352.352 81.7002C341.352 80.8302 336.818 79.5722 333.238 83.7382C329.548 88.0342 324.39 89.0522 319.142 89.0722C307.743 89.2296 296.377 87.8026 285.37 84.8322C269.006 80.2522 274.854 72.5222 264.706 70.3782C249.88 67.2482 232.43 71.1782 232.174 68.7962C231.886 66.1342 257.13 65.7502 265.944 67.9262C276.482 70.5262 271.09 77.7562 286.206 81.5062C297.208 84.2399 308.51 85.5764 319.846 85.4842C333.17 85.3822 330.336 77.8363 339.306 77.9803C342.29 78.0283 367.062 79.1143 366.506 82.0503C366.352 82.9102 366.158 82.8003 352.352 81.7023V81.7002Z" fill="#101828"/>
<path d="M341.08 327.706C318.68 336.558 261.432 334.864 226.866 322.342C224.13 321.342 209.666 315.204 211.002 312.862C211.984 311.152 217.056 318.158 245.824 324.074C305.414 336.33 339.696 325.158 341.08 327.706Z" fill="#101828"/>
<path d="M309.702 219C311.268 219.294 311.492 219.678 311.446 220.382C311.328 222.226 310.628 222.616 269.946 218.982C259.666 218.066 259.396 217.752 259.486 216.694C259.55 215.966 259.566 215.54 265.076 215.694C276.952 216.05 309.302 218.926 309.702 219Z" fill="#101828"/>
<path d="M307.614 230.352C307.446 231.552 305.826 231.686 304.574 231.608C262.174 228.98 262.15 228.408 262.274 227.008C262.364 225.996 263.102 225.672 267.5 225.962C308.496 228.666 307.888 228.38 307.614 230.352Z" fill="#101828"/>
<path d="M301.5 71.8002C301.512 72.1935 301.444 72.585 301.3 72.9512C301.156 73.3173 300.939 73.6504 300.662 73.9302C300.244 74.3518 299.706 74.6339 299.121 74.7378C298.536 74.8416 297.934 74.7622 297.396 74.5104C296.858 74.2586 296.411 73.8466 296.117 73.331C295.822 72.8154 295.694 72.2214 295.75 71.6302C295.729 71.037 295.892 70.4518 296.216 69.9551C296.541 69.4584 297.012 69.0744 297.564 68.8562C297.93 68.711 298.322 68.6423 298.715 68.6541C299.109 68.666 299.495 68.7582 299.852 68.9251C300.208 69.092 300.527 69.3301 300.788 69.6247C301.049 69.9193 301.247 70.2642 301.37 70.6382C301.492 71.0122 301.536 71.4082 301.5 71.8002Z" fill="#101828"/>
<path d="M309.246 70.468C311.862 70.932 311.246 74.246 309.302 74.088C309.058 74.1027 308.813 74.0677 308.583 73.9852C308.352 73.9026 308.141 73.7743 307.962 73.6079C307.782 73.4415 307.638 73.2405 307.539 73.0169C307.439 72.7934 307.386 72.552 307.382 72.3073C307.378 72.0626 307.424 71.8197 307.517 71.5932C307.609 71.3667 307.747 71.1613 307.921 70.9894C308.095 70.8175 308.302 70.6827 308.53 70.5931C308.758 70.5035 309.001 70.461 309.246 70.468Z" fill="#101828"/>
<path d="M287.9 162.51C282.55 159.954 278.368 156.448 281.374 151.336C282.118 149.751 283.263 148.387 284.697 147.381C286.13 146.375 287.802 145.761 289.546 145.6C290.79 145.514 290.59 145.936 290.464 147C288.938 159.98 290.28 163.646 287.9 162.51Z" fill="#EAA115"/>
<path d="M290.858 174.446C291.282 168.434 290.258 166.562 292.702 167.808C304.362 173.758 299.524 182.018 291.188 184.482C289.442 185 290.046 185.988 290.858 174.446Z" fill="#EAA115"/>
<path fill-rule="evenodd" clip-rule="evenodd" d="M384.584 104.93C387.098 72.8602 387.84 63.3702 332.06 57.8422C317.502 56.4002 304.33 54.7182 292.494 53.2062C247.786 47.4962 222.154 44.2222 212.962 65.5342C203.18 88.2002 188.6 292.546 188.2 307.752C187.818 322.282 197.374 331.736 210.708 337.52C226.576 344.402 233.508 345.056 255.04 347.088L255.046 347.09C259.02 347.464 263.494 347.886 268.614 348.404C361.054 357.742 362.384 344.266 368.81 279.136V279.13C369.012 277.1 369.216 275.02 369.43 272.888L369.452 272.69L369.574 271.594L366.108 271.224C365.652 276.318 365.214 281.238 364.8 285.938C363.5 300.66 360.84 317.592 356.246 329.76C353.766 336.336 349.668 341.066 342.782 342.968C325.148 347.844 307.948 346.994 291.106 345.6C288.47 345.382 285.702 345.168 282.832 344.946C245.89 342.086 192.276 337.938 192.666 308.37C192.94 287.438 208.2 97.0882 215.2 71.5662C221.16 49.7922 242.834 52.5822 289.912 58.6462C299.684 59.9062 310.552 61.3042 322.6 62.6542C326.022 63.0382 329.344 63.3842 332.548 63.7182C362.152 66.8042 381.858 68.8582 381.014 89.5902C380.288 107.422 377.556 141.516 374.328 178.844L378.784 179.176C380.632 158.3 382.456 135.802 383.928 113.768C384.136 110.646 384.366 107.704 384.584 104.93ZM363.492 178.09C367.34 138.736 370.544 103.816 371.332 92.9762C371.55 90.0002 370.544 88.7342 370 91.9342C368.168 102.744 364.038 138.064 359.72 177.848L363.492 178.09ZM354.056 269.89C352.797 269.747 351.539 269.603 350.28 269.458C347.932 293.788 346.304 312.594 346.13 318.89C346.084 320.57 347.438 320.62 347.792 318.976C349.056 313.116 351.362 294.344 354.056 269.89Z" fill="#101828"/>
<path d="M337.2 267.91C317.876 265.57 320.2 268.46 330 182.75C330.758 176.114 334.446 176.416 349.974 177.272C398.862 179.96 449.15 185.82 456.098 186.914C475.79 190.01 471.528 186.044 461.908 267.16C460.836 276.194 457.508 277.468 450.582 277.384C418.332 277 371.698 272.09 337.2 267.91ZM453.758 273.166C456.648 272.678 457.932 271.854 459.838 252.518C461.732 233.28 466.654 206.718 465.638 194.918C465.67 194.211 465.434 193.518 464.978 192.978C464.521 192.437 463.878 192.088 463.176 192C450.776 188.614 371.958 182.144 352.308 181.222C336.798 180.494 335.274 180.398 334.186 183.716C332.472 188.946 333.12 189.398 328.866 227.988C326.126 252.842 324.84 261.732 329.852 262.802C350.15 267.124 443.468 274.902 453.748 273.166H453.758Z" fill="#EAA115"/>
<path d="M445.988 216.684C433.752 215.648 433.002 215.484 432.92 211.6C432.52 192.778 434.92 195.03 454.374 197.284C457.448 197.64 458.738 198.884 458.774 201.726C458.848 206.007 458.264 210.274 457.042 214.378C455.894 218.2 451.8 217.178 445.988 216.684Z" fill="#EAA115"/>
<path d="M379.684 250C404.782 252.4 405.842 251.714 405.544 255.364C405.108 260.726 403.628 258.474 369.652 256.092C364.334 255.72 363.318 253.092 365.094 250.394C366.136 248.812 366.594 249.216 379.67 250.136L379.684 250Z" fill="#EAA115"/>
<path d="M402.492 203.446C404.91 203.724 404.868 205.94 402.304 205.778C396.456 205.406 348.06 202.142 341.732 201.156C340.438 200.956 340.57 199.652 341.856 199.668C354.04 199.824 403.774 203.6 402.492 203.446Z" fill="#EAA115"/>
<path d="M371.546 218.134C339.746 215.9 339.834 216.098 339.836 214.836C339.836 213.332 337.902 213.342 399.306 217.8C400.494 217.886 401.75 218 401.626 219.18C401.472 220.654 400.426 220.302 391.358 219.678C387.242 219.4 371.53 218.37 371.546 218.134Z" fill="#EAA115"/>
<path d="M346 247.21C355.238 248.342 357.614 247.67 357.4 251.85C357.228 255.336 355.214 254.924 349.834 254.396C339.806 253.414 339.202 253.92 339.578 249.596C339.98 244.972 345.896 248.08 346 247.21Z" fill="#EAA115"/>
</svg>
