<svg width="651" height="391" viewBox="0 0 651 391" fill="none" xmlns="http://www.w3.org/2000/svg">
<g clip-path="url(#clip0_294_69631)">
<path opacity="0.5" d="M0 259.995C17.2721 259.995 33.8368 266.856 46.0501 279.069C58.2633 291.282 65.1247 307.847 65.1247 325.119H0" fill="#4893FF"/>
<path d="M65.1246 325.12C65.1246 307.848 71.986 291.283 84.1992 279.07C96.4125 266.857 112.977 259.996 130.249 259.996V325.12" fill="#4893FF"/>
<path d="M0 390.239C8.5523 390.239 17.0208 388.555 24.9221 385.282C32.8234 382.009 40.0027 377.212 46.0501 371.165C52.0975 365.117 56.8945 357.938 60.1673 350.037C63.4401 342.136 65.1247 333.667 65.1247 325.115H0" fill="#4893FF"/>
<path d="M65.1246 325.115C65.1246 333.667 66.8092 342.136 70.082 350.037C73.3548 357.938 78.1519 365.117 84.1992 371.165C90.2466 377.212 97.4259 382.009 105.327 385.282C113.229 388.555 121.697 390.239 130.249 390.239V325.115" fill="#FFAE16"/>
</g>
<g clip-path="url(#clip1_294_69631)">
<path opacity="0.196" d="M650.24 0V65.1247H585.115L650.24 0Z" fill="#4893FF"/>
<path opacity="0.5" d="M519.991 65.1265H585.115V130.251L519.991 65.1265Z" fill="#4893FF"/>
<path d="M585.115 65.1265L650.24 130.251H585.115V65.1265Z" fill="#FFAE16"/>
</g>
<g clip-path="url(#clip2_294_69631)">
<path opacity="0.5" d="M389.992 260.247C389.992 251.71 391.673 243.257 394.94 235.37C398.207 227.483 402.995 220.317 409.032 214.281C415.068 208.244 422.234 203.456 430.121 200.189C438.008 196.922 446.461 195.241 454.998 195.241V260.247" fill="#4893FF"/>
<path d="M455.235 195.242C472.476 195.242 489.01 202.091 501.202 214.282C513.393 226.473 520.241 243.007 520.241 260.248H455.235" fill="#FFAE16"/>
<path opacity="0.5" d="M389.992 260.247C389.992 251.71 391.673 243.257 394.94 235.37C398.207 227.483 402.995 220.317 409.032 214.281C415.068 208.244 422.234 203.456 430.121 200.189C438.008 196.922 446.461 195.241 454.998 195.241V260.247" fill="#4893FF"/>
<path d="M455.236 195.242C472.477 195.242 489.012 202.091 501.203 214.282C513.394 226.473 520.243 243.007 520.243 260.248H455.236" fill="#FFAE16"/>
</g>
<g clip-path="url(#clip3_294_69631)">
<path opacity="0.5" d="M519.99 390.749C519.99 382.212 521.671 373.759 524.938 365.872C528.204 357.985 532.993 350.819 539.029 344.782C545.065 338.746 552.232 333.957 560.118 330.691C568.005 327.424 576.458 325.742 584.995 325.742V390.749" fill="#4893FF"/>
<path d="M585.232 325.743C602.473 325.743 619.008 332.592 631.199 344.783C643.39 356.974 650.239 373.509 650.239 390.75H585.232" fill="#FFAE16"/>
<path opacity="0.5" d="M519.99 390.749C519.99 382.212 521.671 373.759 524.938 365.872C528.204 357.985 532.993 350.819 539.029 344.782C545.065 338.746 552.232 333.957 560.118 330.691C568.005 327.424 576.458 325.742 584.995 325.742V390.749" fill="#4893FF"/>
<path d="M585.233 325.743C602.474 325.743 619.009 332.592 631.2 344.783C643.391 356.974 650.24 373.509 650.24 390.75H585.233" fill="#FFAE16"/>
</g>
<g clip-path="url(#clip4_294_69631)">
<path opacity="0.196" d="M195.375 325.117C195.375 307.845 202.236 291.28 214.45 279.067C226.663 266.854 243.228 259.993 260.5 259.993V325.117" fill="#4893FF"/>
<path d="M130.249 390.244C147.522 390.244 164.086 383.383 176.299 371.17C188.513 358.956 195.374 342.392 195.374 325.12H130.249" fill="#FFAE16"/>
</g>
<g clip-path="url(#clip5_294_69631)">
<path opacity="0.196" d="M585.115 195.375C585.115 212.647 591.977 229.212 604.19 241.425C616.403 253.638 632.968 260.5 650.24 260.5V195.375" fill="#4893FF"/>
<path d="M519.99 130.248C537.262 130.248 553.827 137.11 566.04 149.323C578.253 161.536 585.114 178.101 585.114 195.373H519.99" fill="#FFAE16"/>
</g>
<g clip-path="url(#clip6_294_69631)">
<path opacity="0.5" d="M390.244 260.75H455.369L390.244 325.875V260.75Z" fill="#4893FF"/>
<path d="M520.494 260.75V325.875H455.369L520.494 260.75Z" fill="#FFAE16"/>
<path d="M390.244 325.875H455.369V390.999L390.244 325.875Z" fill="#4893FF"/>
<path opacity="0.5" d="M455.369 325.875L520.494 390.999H455.369V325.875Z" fill="#4893FF"/>
</g>
<g clip-path="url(#clip7_294_69631)">
<path d="M259.995 260.749H325.12L259.995 325.873V260.749Z" fill="#FFAE16"/>
<path d="M259.995 325.876L325.12 391.001H259.995V325.876Z" fill="#4893FF"/>
<path opacity="0.5" d="M390.24 325.876V391.001H325.116L390.24 325.876Z" fill="#4893FF"/>
</g>
<g clip-path="url(#clip8_294_69631)">
<path opacity="0.196" d="M325.12 195.624C342.392 195.624 358.956 188.763 371.17 176.55C383.383 164.336 390.244 147.772 390.244 130.5H325.12" fill="#4893FF"/>
<path opacity="0.5" d="M259.995 260.751C259.995 243.479 266.856 226.914 279.069 214.701C291.283 202.487 307.847 195.626 325.12 195.626V260.751" fill="#4893FF"/>
<path d="M325.12 195.628C342.392 195.628 358.956 202.489 371.17 214.703C383.383 226.916 390.244 243.48 390.244 260.753H325.12" fill="#4893FF"/>
</g>
<defs>
<clipPath id="clip0_294_69631">
<rect width="130.249" height="130.249" fill="white" transform="translate(0 259.995)"/>
</clipPath>
<clipPath id="clip1_294_69631">
<rect width="130.25" height="130.249" fill="white" transform="translate(519.99)"/>
</clipPath>
<clipPath id="clip2_294_69631">
<rect width="130.25" height="130.249" fill="white" transform="translate(389.992 129.998)"/>
</clipPath>
<clipPath id="clip3_294_69631">
<rect width="130.25" height="130.249" fill="white" transform="translate(519.99 260.499)"/>
</clipPath>
<clipPath id="clip4_294_69631">
<rect width="130.249" height="130.248" fill="white" transform="translate(130.249 259.995)"/>
</clipPath>
<clipPath id="clip5_294_69631">
<rect width="130.249" height="130.248" fill="white" transform="matrix(1 0 0 -1 519.99 260.498)"/>
</clipPath>
<clipPath id="clip6_294_69631">
<rect width="130.249" height="130.249" fill="white" transform="translate(390.244 260.75)"/>
</clipPath>
<clipPath id="clip7_294_69631">
<rect width="130.249" height="130.249" fill="white" transform="translate(259.995 260.75)"/>
</clipPath>
<clipPath id="clip8_294_69631">
<rect width="130.249" height="130.249" fill="white" transform="translate(259.995 130.501)"/>
</clipPath>
</defs>
</svg>
