<svg width="64" height="64" viewBox="0 0 64 64" fill="none" xmlns="http://www.w3.org/2000/svg">
<g id="lightbulb-05">
<path id="Icon" d="M32.0007 5.3335V8.00016M8.00065 32.0002H5.33398M14.6673 14.6668L13.0671 13.0666M49.334 14.6668L50.9346 13.0666M58.6673 32.0002H56.0007M26.6673 36.0002H37.334M32.0007 36.0002V49.3335M41.334 44.9974C45.3715 42.0929 48.0007 37.3536 48.0007 32.0002C48.0007 23.1636 40.8372 16.0002 32.0007 16.0002C23.1641 16.0002 16.0007 23.1636 16.0007 32.0002C16.0007 37.3536 18.6298 42.0929 22.6673 44.9974V50.1335C22.6673 53.1204 22.6673 54.6139 23.2486 55.7548C23.7599 56.7583 24.5758 57.5742 25.5794 58.0855C26.7202 58.6668 28.2137 58.6668 31.2007 58.6668H32.8007C35.7876 58.6668 37.2811 58.6668 38.4219 58.0855C39.4255 57.5742 40.2414 56.7583 40.7527 55.7548C41.334 54.6139 41.334 53.1204 41.334 50.1335V44.9974Z" stroke="#7F56D9" stroke-width="5.33333" stroke-linecap="round" stroke-linejoin="round"/>
</g>
</svg>
