<svg width="21" height="20" viewBox="0 0 21 20" fill="none" xmlns="http://www.w3.org/2000/svg">
<g id="building-07">
<path id="Icon" d="M6.75033 9.16667H4.33366C3.86695 9.16667 3.63359 9.16667 3.45533 9.25749C3.29853 9.33739 3.17105 9.46487 3.09115 9.62167C3.00033 9.79993 3.00033 10.0333 3.00033 10.5V17.5M14.2503 9.16667H16.667C17.1337 9.16667 17.3671 9.16667 17.5453 9.25749C17.7021 9.33739 17.8296 9.46487 17.9095 9.62167C18.0003 9.79993 18.0003 10.0333 18.0003 10.5V17.5M14.2503 17.5V5.16667C14.2503 4.23325 14.2503 3.76654 14.0687 3.41002C13.9089 3.09641 13.6539 2.84144 13.3403 2.68166C12.9838 2.5 12.5171 2.5 11.5837 2.5H9.41699C8.48357 2.5 8.01686 2.5 7.66034 2.68166C7.34674 2.84144 7.09177 3.09641 6.93198 3.41002C6.75033 3.76654 6.75033 4.23325 6.75033 5.16667V17.5M18.8337 17.5H2.16699M9.66699 5.83333H11.3337M9.66699 9.16667H11.3337M9.66699 12.5H11.3337" stroke="#344054" stroke-width="1.66667" stroke-linecap="round" stroke-linejoin="round"/>
</g>
</svg>
