<svg width="21" height="20" viewBox="0 0 21 20" fill="none" xmlns="http://www.w3.org/2000/svg">
<g id="users-03">
<path id="Icon" d="M15.5004 13.1974C16.7136 13.8069 17.7538 14.785 18.5131 16.008C18.6634 16.2502 18.7386 16.3713 18.7646 16.539C18.8174 16.8798 18.5844 17.2988 18.267 17.4336C18.1108 17.5 17.9351 17.5 17.5837 17.5M13.8337 9.6102C15.0685 8.99657 15.917 7.72238 15.917 6.25C15.917 4.77762 15.0685 3.50343 13.8337 2.8898M12.167 6.25C12.167 8.32107 10.4881 10 8.41702 10C6.34595 10 4.66702 8.32107 4.66702 6.25C4.66702 4.17893 6.34595 2.5 8.41702 2.5C10.4881 2.5 12.167 4.17893 12.167 6.25ZM2.63304 15.782C3.96163 13.7871 6.05816 12.5 8.41702 12.5C10.7759 12.5 12.8724 13.7871 14.201 15.782C14.4921 16.219 14.6376 16.4375 14.6208 16.7166C14.6078 16.9339 14.4653 17.2 14.2917 17.3313C14.0686 17.5 13.7619 17.5 13.1484 17.5H3.68565C3.07216 17.5 2.76542 17.5 2.54238 17.3313C2.36873 17.2 2.22626 16.9339 2.21321 16.7166C2.19646 16.4375 2.34199 16.219 2.63304 15.782Z" stroke="#344054" stroke-width="1.66667" stroke-linecap="round" stroke-linejoin="round"/>
</g>
</svg>
