<svg width="146" height="56" viewBox="0 0 146 56" fill="none" xmlns="http://www.w3.org/2000/svg">
<g clip-path="url(#clip0_315_13567)">
<path d="M143.847 12.8971L124.161 1.53157C122.823 0.762588 121.177 0.762588 119.847 1.53157L100.161 12.8971C98.8228 13.6661 98 15.0964 98 16.6344V39.3655C98 40.9112 98.8228 42.3338 100.161 43.1028L119.847 54.4684C121.185 55.2374 122.831 55.2374 124.161 54.4684L143.847 43.1028C145.185 42.3338 146.008 40.9035 146.008 39.3655V16.6344C146.008 15.0887 145.185 13.6661 143.847 12.8971ZM101.622 41.4726C102.945 40.0499 106.613 38.858 111.565 38.1506L111.534 20.1256L116.955 16.6267V37.6046C118.44 37.5123 119.985 37.4585 121.577 37.4508V19.9103L118.047 18.0416V13.5431L123.469 8.90612V37.4662C123.699 37.4662 123.93 37.4738 124.161 37.4815V29.0073L127.644 27.2464V18.5722L132.312 22.5325V28.5921L129.636 27.0849L129.551 37.8045C130.743 37.9199 131.881 38.0583 132.958 38.2275V31.4296L134.95 32.7369V38.5735C138.618 39.2886 141.294 40.3114 142.378 41.4726C132.443 38.412 111.565 38.4043 101.614 41.4726H101.622Z" fill="#7F56D9"/>
</g>
<path d="M76.7979 25.0156C77.8334 25.0156 78.7765 25.256 79.6271 25.7368C80.4962 26.1991 81.1804 26.8463 81.6796 27.6784C82.1974 28.5105 82.4563 29.4259 82.4563 30.4244C82.4563 31.4414 82.1974 32.3845 81.6796 33.2536C81.1804 34.1042 80.4962 34.7884 79.6271 35.3062C78.7765 35.8054 77.8334 36.0551 76.7979 36.0551C76.0027 36.0551 75.2631 35.8979 74.5789 35.5836C73.8947 35.2692 73.303 34.8346 72.8037 34.2799C72.4339 34.8162 71.9623 35.2415 71.3891 35.5558C70.8158 35.8517 70.1594 35.9996 69.4197 35.9996H67.7832C67.5983 35.9996 67.5059 35.9072 67.5059 35.7222V33.2536C67.5059 33.0687 67.5983 32.9762 67.7832 32.9762H69.4197C69.956 32.9762 70.4183 32.7913 70.8066 32.4215C71.1949 32.0332 71.3891 31.5616 71.3891 31.0069V27.8726H69.7248V25.0156H76.7979ZM76.7979 33.0317C77.5375 33.0317 78.157 32.7821 78.6563 32.2828C79.174 31.7835 79.4329 31.1641 79.4329 30.4244C79.4329 29.7032 79.174 29.1023 78.6563 28.6215C78.157 28.1222 77.5375 27.8726 76.7979 27.8726H74.2183V30.4244C74.2183 31.1641 74.4679 31.7835 74.9672 32.2828C75.4665 32.7821 76.0767 33.0317 76.7979 33.0317Z" fill="#101828"/>
<path d="M57.6871 16.0844L52.8054 21.2436L51.3908 19.8012L56.2725 14.6421L57.6871 16.0844ZM67.7835 32.9765C67.9684 32.9765 68.0609 33.0689 68.0609 33.2538V35.7225C68.0609 35.9074 67.9684 35.9998 67.7835 35.9998H66.5353C65.7957 35.9998 65.1392 35.8519 64.566 35.556C63.9928 35.2417 63.5212 34.8164 63.1514 34.2801C62.6521 34.8164 62.0604 35.2417 61.3762 35.556C60.7105 35.8519 59.9986 35.9998 59.2404 35.9998H50.42C50.235 35.9998 50.1426 35.9074 50.1426 35.7225V33.2538C50.1426 33.0689 50.235 32.9765 50.42 32.9765H59.2682C59.9339 32.9765 60.5071 32.7453 60.9879 32.283C61.4687 31.8207 61.709 31.2383 61.709 30.5356C61.709 29.648 61.2745 28.9453 60.4054 28.4275L53.8871 24.156V21.8538L59.2959 16.1399L61.2653 17.9983L56.7995 22.6582L62.2361 26.2086C62.9757 26.6893 63.549 27.3088 63.9558 28.067C64.3626 28.8251 64.566 29.6757 64.566 30.6188V31.0071C64.566 31.5619 64.7602 32.0334 65.1485 32.4217C65.5368 32.7916 65.9991 32.9765 66.5353 32.9765H67.7835Z" fill="#101828"/>
<path d="M49.0568 35.9996C48.1692 35.9996 47.3555 35.787 46.6159 35.3617C45.8762 34.9179 45.2937 34.3261 44.8684 33.5865C44.4431 32.8468 44.2305 32.0332 44.2305 31.1456V17.582H47.0874V30.9792C47.0874 31.5339 47.2816 32.0054 47.6699 32.3938C48.0582 32.7821 48.5205 32.9763 49.0568 32.9763H50.4159C50.6008 32.9763 50.6933 33.0687 50.6933 33.2536V35.7222C50.6933 35.9072 50.6008 35.9996 50.4159 35.9996H49.0568Z" fill="#101828"/>
<path d="M33.8692 36C33.6843 36 33.5918 35.9076 33.5918 35.7227V33.254C33.5918 33.0691 33.6843 32.9767 33.8692 32.9767H36.5042C37.0405 32.9767 37.5028 32.7825 37.8911 32.3942C38.2794 32.0058 38.4736 31.5343 38.4736 30.9796V25.7095H41.3305V31.146C41.3305 32.0336 41.1179 32.8472 40.6926 33.5869C40.2672 34.3265 39.6848 34.9183 38.9451 35.3621C38.2054 35.7874 37.3918 36 36.5042 36H33.8692ZM35.1174 38.5241H37.9188V41.3533H35.1174V38.5241Z" fill="#101828"/>
<path d="M23.4336 33.2539C23.4336 33.069 23.5261 32.9766 23.711 32.9766H25.3752C25.9115 32.9766 26.3738 32.7916 26.7621 32.4218C27.1504 32.0335 27.3446 31.562 27.3446 31.0072V26.5415H30.2015V31.0072C30.2015 31.562 30.3957 32.0335 30.784 32.4218C31.1723 32.7916 31.6346 32.9766 32.1709 32.9766H33.8628C34.0477 32.9766 34.1402 33.069 34.1402 33.2539V35.7226C34.1402 35.9075 34.0477 35.9999 33.8628 35.9999H32.1709C31.4497 35.9999 30.7932 35.8428 30.2015 35.5284C29.6283 35.214 29.1567 34.7795 28.7869 34.2247C28.4171 34.7795 27.9363 35.214 27.3446 35.5284C26.7713 35.8428 26.1149 35.9999 25.3752 35.9999H23.711C23.5261 35.9999 23.4336 35.9075 23.4336 35.7226V33.2539ZM25.2088 38.5518H28.038V41.381H25.2088V38.5518ZM29.4803 38.5518H32.2818V41.381H29.4803V38.5518Z" fill="#101828"/>
<path d="M14.42 35.9996C14.235 35.9996 14.1426 35.9072 14.1426 35.7222V33.2536C14.1426 33.0687 14.235 32.9763 14.42 32.9763H15.6681C16.2044 32.9763 16.6667 32.7913 17.055 32.4215C17.4433 32.0332 17.6375 31.5616 17.6375 31.0069V17.582H20.4944V31.0069C20.4944 31.5616 20.6886 32.0332 21.0769 32.4215C21.4652 32.7913 21.9275 32.9763 22.4638 32.9763H23.712C23.8969 32.9763 23.9893 33.0687 23.9893 33.2536V35.7222C23.9893 35.9072 23.8969 35.9996 23.712 35.9996H22.4638C21.7241 35.9996 21.0492 35.8332 20.439 35.5004C19.8472 35.149 19.3849 34.6867 19.0521 34.1135C18.7192 34.6867 18.2569 35.149 17.6652 35.5004C17.0735 35.8332 16.4078 35.9996 15.6681 35.9996H14.42Z" fill="#101828"/>
<path d="M6.8874 32.9766C7.42366 32.9766 7.8767 32.8194 8.24653 32.5051C8.63485 32.1722 8.82901 31.7377 8.82901 31.2014C8.82901 31.0535 8.77354 30.7946 8.66259 30.4248L6.13849 23.5459L8.85675 22.5474L12.102 31.5343C12.25 31.9781 12.4996 32.3294 12.8509 32.5883C13.2208 32.8472 13.6461 32.9766 14.1268 32.9766H14.432C14.6169 32.9766 14.7093 33.0691 14.7093 33.254V35.7226C14.7093 35.9075 14.6169 36 14.432 36H13.9882C13.2115 36 12.5181 35.8243 11.9079 35.473C11.2976 35.1216 10.8446 34.6778 10.5487 34.1416C10.0864 34.7703 9.55943 35.2418 8.9677 35.5562C8.39446 35.852 7.70103 36 6.8874 36H0.507812V32.9766H6.8874Z" fill="#101828"/>
<defs>
<clipPath id="clip0_315_13567">
<rect width="48" height="54.0903" fill="white" transform="translate(98 0.954834)"/>
</clipPath>
</defs>
</svg>
