<svg width="146" height="55" viewBox="0 0 146 55" fill="none" xmlns="http://www.w3.org/2000/svg">
<g clip-path="url(#clip0_315_13692)">
<path d="M143.847 11.9423L124.161 0.576737C122.823 -0.192246 121.177 -0.192246 119.847 0.576737L100.161 11.9423C98.8228 12.7113 98 14.1416 98 15.6796V38.4107C98 39.9564 98.8228 41.379 100.161 42.148L119.847 53.5135C121.185 54.2825 122.831 54.2825 124.161 53.5135L143.847 42.148C145.185 41.379 146.008 39.9487 146.008 38.4107V15.6796C146.008 14.1339 145.185 12.7113 143.847 11.9423ZM101.622 40.5177C102.945 39.0951 106.613 37.9032 111.565 37.1957L111.534 19.1708L116.955 15.6719V36.6497C118.44 36.5575 119.985 36.5036 121.577 36.4959V18.9554L118.047 17.0868V12.5883L123.469 7.95129V36.5113C123.699 36.5113 123.93 36.519 124.161 36.5267V28.0525L127.644 26.2915V17.6174L132.312 21.5777V27.6373L129.636 26.1301L129.551 36.8497C130.743 36.965 131.881 37.1034 132.958 37.2726V30.4748L134.95 31.7821V37.6187C138.618 38.3338 141.294 39.3566 142.378 40.5177C132.443 37.4572 111.565 37.4495 101.614 40.5177H101.622Z" fill="#7F56D9"/>
</g>
<path d="M76.7979 24.0605C77.8334 24.0605 78.7765 24.3009 79.6271 24.7817C80.4962 25.244 81.1804 25.8912 81.6796 26.7233C82.1974 27.5555 82.4563 28.4708 82.4563 29.4693C82.4563 30.4864 82.1974 31.4294 81.6796 32.2985C81.1804 33.1491 80.4962 33.8333 79.6271 34.3511C78.7765 34.8504 77.8334 35.1 76.7979 35.1C76.0027 35.1 75.2631 34.9428 74.5789 34.6285C73.8947 34.3141 73.303 33.8796 72.8037 33.3248C72.4339 33.8611 71.9623 34.2864 71.3891 34.6007C70.8158 34.8966 70.1594 35.0445 69.4197 35.0445H67.7832C67.5983 35.0445 67.5059 34.9521 67.5059 34.7672V32.2985C67.5059 32.1136 67.5983 32.0212 67.7832 32.0212H69.4197C69.956 32.0212 70.4183 31.8362 70.8066 31.4664C71.1949 31.0781 71.3891 30.6066 71.3891 30.0518V26.9175H69.7248V24.0605H76.7979ZM76.7979 32.0766C77.5375 32.0766 78.157 31.827 78.6563 31.3277C79.174 30.8285 79.4329 30.209 79.4329 29.4693C79.4329 28.7482 79.174 28.1472 78.6563 27.6664C78.157 27.1671 77.5375 26.9175 76.7979 26.9175H74.2183V29.4693C74.2183 30.209 74.4679 30.8285 74.9672 31.3277C75.4665 31.827 76.0767 32.0766 76.7979 32.0766Z" fill="white"/>
<path d="M57.6871 15.1294L52.8054 20.2885L51.3908 18.8462L56.2725 13.687L57.6871 15.1294ZM67.7835 32.0214C67.9684 32.0214 68.0609 32.1138 68.0609 32.2988V34.7674C68.0609 34.9523 67.9684 35.0448 67.7835 35.0448H66.5353C65.7957 35.0448 65.1392 34.8968 64.566 34.601C63.9928 34.2866 63.5212 33.8613 63.1514 33.325C62.6521 33.8613 62.0604 34.2866 61.3762 34.601C60.7105 34.8968 59.9986 35.0448 59.2404 35.0448H50.42C50.235 35.0448 50.1426 34.9523 50.1426 34.7674V32.2988C50.1426 32.1138 50.235 32.0214 50.42 32.0214H59.2682C59.9339 32.0214 60.5071 31.7902 60.9879 31.328C61.4687 30.8657 61.709 30.2832 61.709 29.5805C61.709 28.6929 61.2745 27.9902 60.4054 27.4725L53.8871 23.2009V20.8987L59.2959 15.1848L61.2653 17.0432L56.7995 21.7031L62.2361 25.2535C62.9757 25.7343 63.549 26.3537 63.9558 27.1119C64.3626 27.87 64.566 28.7206 64.566 29.6637V30.052C64.566 30.6068 64.7602 31.0783 65.1485 31.4666C65.5368 31.8365 65.9991 32.0214 66.5353 32.0214H67.7835Z" fill="white"/>
<path d="M49.0568 35.0445C48.1692 35.0445 47.3555 34.8319 46.6159 34.4066C45.8762 33.9628 45.2937 33.3711 44.8684 32.6314C44.4431 31.8917 44.2305 31.0781 44.2305 30.1905V16.627H47.0874V30.0241C47.0874 30.5788 47.2816 31.0504 47.6699 31.4387C48.0582 31.827 48.5205 32.0212 49.0568 32.0212H50.4159C50.6008 32.0212 50.6933 32.1136 50.6933 32.2985V34.7672C50.6933 34.9521 50.6008 35.0445 50.4159 35.0445H49.0568Z" fill="white"/>
<path d="M33.8692 35.0449C33.6843 35.0449 33.5918 34.9525 33.5918 34.7676V32.299C33.5918 32.114 33.6843 32.0216 33.8692 32.0216H36.5042C37.0405 32.0216 37.5028 31.8274 37.8911 31.4391C38.2794 31.0508 38.4736 30.5792 38.4736 30.0245V24.7544H41.3305V30.1909C41.3305 31.0785 41.1179 31.8921 40.6926 32.6318C40.2672 33.3715 39.6848 33.9632 38.9451 34.407C38.2054 34.8323 37.3918 35.0449 36.5042 35.0449H33.8692ZM35.1174 37.569H37.9188V40.3983H35.1174V37.569Z" fill="white"/>
<path d="M23.4336 32.2989C23.4336 32.1139 23.5261 32.0215 23.711 32.0215H25.3752C25.9115 32.0215 26.3738 31.8366 26.7621 31.4667C27.1504 31.0784 27.3446 30.6069 27.3446 30.0521V25.5864H30.2015V30.0521C30.2015 30.6069 30.3957 31.0784 30.784 31.4667C31.1723 31.8366 31.6346 32.0215 32.1709 32.0215H33.8628C34.0477 32.0215 34.1402 32.1139 34.1402 32.2989V34.7675C34.1402 34.9524 34.0477 35.0449 33.8628 35.0449H32.1709C31.4497 35.0449 30.7932 34.8877 30.2015 34.5733C29.6283 34.259 29.1567 33.8244 28.7869 33.2697C28.4171 33.8244 27.9363 34.259 27.3446 34.5733C26.7713 34.8877 26.1149 35.0449 25.3752 35.0449H23.711C23.5261 35.0449 23.4336 34.9524 23.4336 34.7675V32.2989ZM25.2088 37.5967H28.038V40.4259H25.2088V37.5967ZM29.4803 37.5967H32.2818V40.4259H29.4803V37.5967Z" fill="white"/>
<path d="M14.42 35.0445C14.235 35.0445 14.1426 34.9521 14.1426 34.7672V32.2985C14.1426 32.1136 14.235 32.0212 14.42 32.0212H15.6681C16.2044 32.0212 16.6667 31.8363 17.055 31.4664C17.4433 31.0781 17.6375 30.6066 17.6375 30.0518V16.627H20.4944V30.0518C20.4944 30.6066 20.6886 31.0781 21.0769 31.4664C21.4652 31.8363 21.9275 32.0212 22.4638 32.0212H23.712C23.8969 32.0212 23.9893 32.1136 23.9893 32.2985V34.7672C23.9893 34.9521 23.8969 35.0445 23.712 35.0445H22.4638C21.7241 35.0445 21.0492 34.8781 20.439 34.5453C19.8472 34.1939 19.3849 33.7316 19.0521 33.1584C18.7192 33.7316 18.2569 34.1939 17.6652 34.5453C17.0735 34.8781 16.4078 35.0445 15.6681 35.0445H14.42Z" fill="white"/>
<path d="M6.8874 32.0215C7.42366 32.0215 7.8767 31.8643 8.24653 31.55C8.63485 31.2171 8.82901 30.7826 8.82901 30.2463C8.82901 30.0984 8.77354 29.8395 8.66259 29.4697L6.13849 22.5908L8.85675 21.5923L12.102 30.5792C12.25 31.023 12.4996 31.3743 12.8509 31.6332C13.2208 31.8921 13.6461 32.0215 14.1268 32.0215H14.432C14.6169 32.0215 14.7093 32.114 14.7093 32.2989V34.7675C14.7093 34.9524 14.6169 35.0449 14.432 35.0449H13.9882C13.2115 35.0449 12.5181 34.8692 11.9079 34.5179C11.2976 34.1665 10.8446 33.7227 10.5487 33.1865C10.0864 33.8152 9.55943 34.2867 8.9677 34.6011C8.39446 34.897 7.70103 35.0449 6.8874 35.0449H0.507812V32.0215H6.8874Z" fill="white"/>
<defs>
<clipPath id="clip0_315_13692">
<rect width="48" height="54.0903" fill="white" transform="translate(98)"/>
</clipPath>
</defs>
</svg>
