<svg width="560" height="400" viewBox="0 0 560 400" fill="none" xmlns="http://www.w3.org/2000/svg">
<rect width="560" height="400" rx="8" fill="white"/>
<path fill-rule="evenodd" clip-rule="evenodd" d="M292.908 123.518L289.696 124.158C284.692 125.152 279.084 126.27 273.04 127.45C270.994 127.85 270.948 127.846 271.154 125.87C271.824 119.47 267.61 113.27 261.644 111.282C249.81 107.344 238.394 119.734 245.024 131.608C245.244 132.004 245.406 132.282 245.352 132.506C245.162 133.3 242.258 133.44 229.66 135.928C172.162 147.284 165.6 148.918 165.3 148.14C165.236 147.97 165.462 147.69 165.532 147.37C166.904 141.046 163.324 133.636 155.606 131.29C143.578 127.634 132.5 140.556 140.066 152.576C140.282 152.922 140.456 153.15 140.416 153.332C140.272 153.984 137.37 154.028 123.846 156.822C107.346 160.232 103.794 160.606 103.296 162.042C103.152 162.454 103.26 162.954 103.386 163.638C109.742 198.184 111.264 203.32 110.264 203.87C110.018 204.004 109.624 203.866 109.114 203.814C103.682 203.268 98.804 205.842 96.044 210.238C88.356 222.482 102.374 237.128 114.646 230.038C114.766 229.97 114.866 229.846 114.962 229.732C115.98 228.51 116.302 228.12 129.928 301.526C129.942 301.598 129.952 301.674 129.962 301.75C130.01 302.092 130.06 302.45 130.392 302.57C130.824 302.726 130.98 302.424 131.132 302.13C131.184 302.016 131.25 301.908 131.328 301.81C141.214 290.862 156.508 302.816 150.376 314.484C147.176 320.578 139.796 322.352 134.236 318.808C133.926 318.612 133.684 318.412 133.544 318.468C132.948 318.704 134.184 323.576 139.924 353.106C140.22 354.626 140.464 355.922 140.668 357.024C141.752 362.808 141.838 363.268 143.334 362.946C143.942 362.816 144.194 362.778 144.92 362.67C146.66 362.41 151.118 361.74 169.676 358.43C180.008 356.588 182.362 355.828 182.68 356.34C182.77 356.484 182.698 356.73 182.596 357.082C182.074 358.89 181.334 367.904 189.784 372.414C202.324 379.104 215.96 364.864 208.278 352.706C208.194 352.574 208.03 352.466 207.876 352.362C206.39 351.382 205.824 351.008 286.856 336.656C285.732 344.976 289.94 351.222 296.97 353.208C309.038 356.616 319.282 343.572 312.846 332.804C312.674 332.516 312.528 332.316 312.558 332.15C312.664 331.596 314.762 331.42 324.56 329.572C390.086 317.218 399.744 315.9 399.71 314.916C399.704 314.748 399.42 314.59 399.08 314.39C394.678 311.788 393.608 298.83 404.544 295.614C410.564 293.844 417.376 298.168 418.646 304.536C419.588 309.264 417.358 311.424 417.692 311.942C417.95 312.346 419.758 311.76 425.81 310.618C450.714 305.922 454.396 305.176 455.97 304.856C456.374 304.774 456.638 304.722 457.086 304.636C457.263 304.616 457.434 304.564 457.592 304.482C458.704 303.81 457.81 299.814 450.37 263.622C450.08 262.212 450.71 262.184 452.132 262.12C453.684 262.05 456.184 261.938 459.458 259.932C474.384 250.784 461.932 228.02 446.04 235.36L446.048 235.364C445.686 235.532 445.44 235.724 445.226 235.69C444.524 235.582 444.198 233.016 441.414 218.95L441.408 218.922C437.554 199.454 437.382 198.582 435.344 198.946C434.246 199.144 428.678 200.228 421.876 201.552C417.636 202.378 412.916 203.296 408.502 204.152C394.42 206.882 390.684 207.314 390.614 208.084C390.578 208.46 391.424 208.918 392.364 209.766C401.678 218.176 391.478 234.214 379.544 228.334C373.24 225.228 371.25 218.164 374.756 212.1C375.734 210.41 374.714 210.626 368.682 211.904C366.8 212.304 364.43 212.806 361.482 213.386C339.264 217.76 335.508 219.244 334.616 218.224C334.426 218.006 334.366 217.672 334.284 217.226C333.572 213.336 326.866 179.506 326.298 179.334C325.756 179.17 325.428 179.602 325.138 179.984C325.066 180.083 324.989 180.178 324.908 180.27C321.368 184.152 315.04 184.762 310.402 181.706C304.7 177.948 303.61 169.294 308.424 164.47C313.758 159.124 318.274 160.63 320.732 161.45C322.184 161.936 322.92 162.182 322.684 160.638C322.57 159.89 321.364 154.352 319.584 146.182L318.55 141.434C317.804 141.93 317.016 142.358 316.194 142.714C317.016 146.756 318.012 151.596 319.234 157.39C319.456 158.448 319.146 158.418 318.37 158.342L318.328 158.338C312.308 157.76 306.172 161.084 303.818 167.322C299.472 178.842 311.112 190.382 323.004 185.01C323.568 184.756 323.932 184.454 324.234 184.506C325.326 184.7 325.594 189.556 331.546 218.21C331.622 218.578 331.68 218.838 331.6 219.044C331.312 219.778 329.264 219.82 320.046 221.628C294.754 226.588 290.426 227.992 289.934 227.152C289.804 226.928 289.946 226.542 290.036 226.02C292.03 214.438 278.7 205.304 268.416 212.218C262.238 216.372 260.156 224.04 264.178 231.296C264.372 231.648 264.622 231.882 264.602 232.09C264.516 232.974 259.574 233.388 225.002 240.3C223.864 240.526 223.848 240.442 223.046 236.152C222.914 235.44 222.76 234.612 222.574 233.65C218.01 209.97 216.716 205.834 217.58 205.32C217.79 205.194 218.132 205.286 218.588 205.36C227.7 206.862 236.574 197.76 234.004 188.224C231.384 178.51 220.918 174.776 213.29 179.384C212.138 180.078 212.114 179.944 210.742 172.516C209.802 167.438 208.236 158.95 205.246 144.988C205.19 144.798 205.171 144.599 205.19 144.402C205.442 143.042 210.07 142.494 249.87 134.806C249.947 134.791 250.024 134.78 250.102 134.774C250.426 134.738 250.782 134.7 250.838 134.286C250.878 133.98 250.632 133.866 250.392 133.754C250.301 133.716 250.214 133.669 250.132 133.614C237.862 124.694 251.802 105.802 264.08 115.414C268.442 118.826 269.76 124.654 267.206 129.476C266.028 131.696 266.398 131.622 275.456 129.796C277.276 129.428 279.45 128.99 282.03 128.486C285.402 127.826 289.032 127.068 292.6 126.31C292.626 125.373 292.729 124.439 292.908 123.518ZM117.102 224.666C118.44 224.798 119.148 231.38 124.326 258.862L124.328 258.864C124.346 259.004 124.387 259.139 124.448 259.266C125.23 260.67 131.754 258.864 219.144 241.432C220.472 241.166 221.002 240.334 220.73 238.94C214.486 206.89 212.846 201.206 213.572 200.886C213.732 200.814 214.012 201.008 214.38 201.236C222.04 205.962 231.532 200.108 231.654 191.53C231.796 181.49 219.682 175.558 211.846 183.494C211.294 184.054 210.93 184.528 210.612 184.498C209.612 184.406 209.076 179.324 204.6 156.158C202.772 146.692 202.61 144.598 201.802 144.312C201.572 144.23 201.29 144.294 200.902 144.376C200.864 144.384 161.106 152.346 160.852 151.912C160.724 151.694 160.99 151.216 161.38 150.512C162.18 149.064 163.506 146.662 163.048 143.612C161.506 133.338 150.508 129.828 143.674 136.202C138.03 141.466 139.25 150.886 145.418 154.156C147.214 155.108 144.498 155.606 137.182 156.948C135.116 157.326 132.684 157.772 129.884 158.314C108.832 162.392 106.1 162.568 105.912 163.35C105.886 163.464 105.912 163.59 105.944 163.744C105.952 163.784 111.984 194.252 112.728 198.318C112.958 199.574 113.194 200.724 113.404 201.756C114.292 206.096 114.746 208.314 112.494 207.168C100.86 201.252 88.918 219.084 101.782 227.394C105.996 230.116 112.118 229.798 115.588 225.904C116.242 225.17 116.7 224.628 117.102 224.666ZM202.282 349.97C202.302 349.146 208 348.456 238.87 342.628L238.872 342.626C240.762 342.27 240.82 342.194 240.454 340.3C240.444 340.258 232 299.304 232.682 298.942C232.786 298.888 233.062 299.022 233.494 299.232C234.522 299.734 236.438 300.672 239.07 300.536C252.432 299.852 254.17 280.612 240.898 277.652C235.266 276.394 232.406 279.24 230.828 280.808C229.924 281.706 229.444 282.186 229.104 281.23L229.034 281.036C228.55 279.702 228.504 279.574 221.958 245.37C221.728 244.166 221.724 244.166 205.346 247.468C192.246 250.108 168.676 254.86 126.14 262.794C125.844 262.85 125.63 262.886 125.496 263.012C124.946 263.518 125.724 265.47 127.744 275.936C131.116 293.406 131.354 297.39 132.348 297.588C132.62 297.642 132.948 297.416 133.408 297.106C140.188 292.544 151.27 296.384 153.834 305.334C156.764 315.558 147.744 325.39 136.906 322.868C142.798 353.67 143.072 359.48 145.086 360.164C145.552 360.322 146.11 360.206 146.85 360.062C180.874 353.448 186.55 352.166 186.858 352.964C186.928 353.148 186.714 353.442 186.498 353.808C180.542 363.8 190.95 375.244 200.898 370.456C209.088 366.514 210.078 356.288 203.148 350.786C202.7 350.43 202.278 350.196 202.282 349.97ZM320.354 327.276C323.714 326.69 327.876 325.968 332.98 325.032H332.974C349.78 321.95 352.452 321.71 352.626 320.918C352.672 320.712 352.548 320.468 352.46 320.128C351.768 317.456 351.34 315.466 345.66 287.834L345.26 285.894C343.982 279.716 343.882 279.234 345.154 279.87C351.966 283.284 360.498 279.352 361.618 270.758C362.652 262.814 354.688 256.25 347.608 258.536C344.534 259.528 342.966 261.25 342.046 262.26C341.154 263.238 340.87 263.548 340.416 261.884L340.382 261.76C340.216 261.144 340.1 260.514 335.844 239.492C332.998 225.44 332.872 222.614 331.906 222.29C331.67 222.21 331.386 222.28 330.998 222.372C329.56 222.712 302.16 228.114 299.552 228.628L299.354 228.668C288.728 230.942 285.658 231.79 285.294 231.134C284.966 230.542 286.854 228.72 287.364 225.612C288.666 217.668 281.014 210.71 274.03 212.378C262.782 215.064 261.666 229.03 269.606 233.204C269.684 233.246 269.776 233.28 269.87 233.316C270.208 233.446 270.576 233.588 270.458 234.052C270.35 234.478 269.886 234.564 269.466 234.644L269.352 234.666C259.134 236.667 248.921 238.695 238.714 240.75C234.462 241.604 231.226 242.256 225.882 243.298C225.53 243.368 225.258 243.416 225.074 243.57C224.224 244.284 225.242 247.226 228.608 264.63C230.616 275.008 230.852 276.99 231.384 277.074C231.544 277.098 231.728 276.956 231.994 276.816C244.184 270.408 257.234 283.074 251.468 295.05C248.996 300.188 244.634 302.994 238.808 303.056C237.754 303.068 237.026 302.8 236.644 303.054C235.7 303.684 236.882 307.502 240.588 326.616C242.97 338.898 243.07 341.242 243.904 341.542C244.104 341.612 244.344 341.568 244.666 341.514C248.346 340.9 255.192 339.582 262.502 338.176C275.648 335.646 290.294 332.828 290.702 333.298C290.984 333.62 290.78 333.864 290.574 334.108C290.48 334.222 290.384 334.336 290.338 334.458C286.02 345.898 295.57 353.228 304.206 350.446C312.28 347.846 314.796 337.38 308.534 331.502C306.582 329.67 308.37 329.358 320.354 327.276ZM447.776 258.61C448.762 259.014 450.104 259.562 451.532 259.354L451.53 259.352C459.282 259.394 464.03 253.178 463.348 247.038C462.114 235.936 449.164 233.276 443.836 239.932C443.78 240.004 443.728 240.078 443.678 240.154C443.498 240.422 443.314 240.698 442.96 240.642C442.494 240.566 442.396 240.108 442.312 239.722L442.28 239.578C437.916 220.876 436.462 211.354 435.732 206.586C435.038 202.036 435.004 201.814 433.734 202.07C399.574 208.982 397.954 209.29 397.274 209.418L397.132 209.446C395.896 209.684 396.138 210.076 396.764 211.082C397.46 212.202 398.628 214.084 398.752 217.364C399.182 228.794 386.516 236.45 376.706 229.67C371.926 226.366 370.02 221.576 370.846 215.782C370.894 215.446 371.026 215.174 370.944 215.006C370.604 214.308 366.614 215.386 337.96 221.066C336.75 221.306 336.06 221.42 335.742 221.826C335.286 222.406 335.586 223.578 336.19 226.556L342.464 257.288C342.622 258.07 343.124 257.808 344.116 257.29C345.886 256.362 349.22 254.614 354.97 256.524C361.742 258.774 366.34 267.086 363.628 274.416C361.59 279.926 355.308 284.586 348.85 283.684C348.504 283.636 348.272 283.594 348.144 283.692C347.714 284.02 348.494 285.94 350.164 294.58C351.028 299.048 351.876 303.518 352.722 307.988C353.406 311.59 354.088 315.194 354.78 318.796C355.166 320.8 355.218 320.792 357.188 320.462L359.228 320.122C360.8 319.852 362.366 319.542 377.172 316.8C391.928 314.07 394.618 313.91 394.798 313.154C394.842 312.962 394.726 312.732 394.604 312.412C389.882 299.994 401.654 289.816 412.178 293.718C417.82 295.81 421.474 300.966 421.578 307.152C421.586 307.594 421.52 307.92 421.652 308.116C422.206 308.946 426.268 307.434 454.186 302.422C454.394 302.384 454.588 302.46 454.72 302.402C455.386 302.102 454.508 298.366 446.234 259.392C445.906 257.846 446.58 258.12 447.776 258.61Z" fill="#52897B"/>
<path d="M305.468 114.13C308.124 113.05 308.646 115.656 294.272 90.9202C287.952 80.0442 287.772 80.2542 290.728 78.3722C298.972 73.1242 366.88 33.5802 375.35 28.7082C379.83 26.1322 380.422 24.7602 382.3 27.2882C384.754 30.5942 385.59 32.1882 400.864 58.2882C402.424 60.9522 400.8 59.6102 395.434 61.4902C388.88 63.7902 385.428 72.8542 390.228 78.3642C394.422 83.1782 401.242 84.4142 406.472 79.7462C409.252 77.2662 409.474 72.9262 411.31 76.0762C433.82 114.728 434.5 114.176 432.082 115.642C399.326 135.496 399.05 133.858 401.098 135.588C410.718 143.722 403.614 160.648 390.528 158.602C384.676 157.688 380.992 154.27 379.316 148.622C378.828 146.976 378.81 146.976 377.324 147.868C362.636 156.67 346.098 165.86 346.06 165.882C341.796 168.392 340.37 169.672 338.934 167.256L320.716 136.216C319.162 133.526 317.388 141.646 307.028 139.858C294.946 137.772 291.59 119.768 305.468 114.13ZM409.928 79.4522C399.5 92.1562 381.658 80.5162 386.496 67.5082C388.246 62.8002 391.434 59.7742 396.282 58.5922C398.412 58.0742 397.98 59.7182 381.266 29.9182C380.584 28.7002 380.08 28.8662 379.162 29.4682C374.118 32.7802 296.644 77.9442 292.888 79.9302C290.53 81.1782 290.248 78.6702 310.638 113.31C311.472 114.726 311.916 115.76 308.776 116.006C303.636 116.406 298.58 121.796 298.61 126.766C298.658 134.986 306.576 139.676 313.788 136.958C319.716 134.724 319.876 129.152 321.482 131.928C341.118 165.88 340.326 166.28 342.65 164.898C359.116 155.098 377.18 144.764 380.462 142.626C382.616 141.222 381.414 145.57 381.552 146.638C382.254 152.082 386.816 155.992 391.662 156.418C400.716 157.212 406.688 146.52 401.134 138.98C398.842 135.866 393.87 134.89 396.592 133.28C396.63 133.256 420.194 119.436 420.538 119.21C426.978 114.996 430.596 114.61 429.46 112.686L409.928 79.4522Z" fill="#52897B"/>
<path d="M416.886 111.004C416.848 110.984 412.282 106.698 403.28 104.544C395.182 102.604 387.096 102.624 379.152 105.57C376.028 106.73 376.192 107.618 369.668 95.9642C369.312 95.3262 368.908 94.6662 369.338 93.7402C371.488 89.1162 372.114 84.4202 370.49 79.3922C363.48 57.7122 335.86 56.0542 327.412 72.4202C322.77 81.4122 325.504 90.6082 331.162 96.8322C332.16 97.9322 333.688 98.4982 334.28 99.9462C337.758 108.468 348.188 118.718 360.078 113.556C360.474 113.384 361.026 112.88 361.29 113.682C361.536 114.43 362.482 115.058 361.962 115.924C361.94 115.964 345.374 131.584 345.026 152.388C345.018 152.88 345.01 153.478 345.644 153.6C348.166 154.088 346.788 138.292 359.378 123.576C365.33 133.182 379.984 133.5 385.26 121.932C389.638 112.334 383.71 107.472 387.018 107.046C401.292 105.21 410.096 110.926 415.33 113.338C417.146 114.178 418.14 111.744 416.884 111L416.886 111.004ZM372.958 106.6C378.146 114.856 364.184 120.59 363.126 111.81C362.974 110.546 366.566 109.982 368.532 99.4242C373.006 106.566 372.46 105.806 372.958 106.6ZM365.84 84.6222C367.302 84.9022 367.902 87.7242 366.094 91.1262C365.16 90.0022 364.624 88.7342 363.874 87.6082C362.892 86.1342 364.63 84.3942 365.84 84.6222ZM363.766 72.2662C353.68 69.4822 343.636 67.5522 333.066 69.0722C342.084 60.6062 357.3 63.6202 363.766 72.2662ZM331.898 94.4462C331.024 93.7002 327.75 88.9782 327.374 81.8542C327.294 80.3262 327.336 80.2802 336.738 80.3502C334.648 84.9802 331.682 89.1842 331.898 94.4502V94.4462ZM355.668 101.822C355.492 104.932 351.156 105.082 352.758 103.612C353.464 102.964 353.714 102.012 354.29 101.274C354.878 100.522 355.742 100.532 355.668 101.822ZM347.376 103.914C346.466 104.958 345.59 106.422 343.824 105.554C340.384 103.862 338.046 101.038 336.602 97.6022C335.564 95.1342 341.238 93.7622 340.852 92.7842C340.428 91.7042 337.386 92.3882 335.096 94.8242C332.916 92.4202 336.418 93.0942 341.934 85.6442C342.92 84.3122 343.484 86.2962 347.06 86.8142C346.226 87.3102 345.556 87.8662 345.122 88.6742C344.908 89.0742 344.236 89.3862 344.722 89.9342C345.402 90.6962 346.4 89.1062 349.012 88.0442C352.436 86.6502 353.02 88.2842 356.506 87.3642C357.846 87.0102 357.59 87.8362 358.122 93.4762C358.634 98.8982 353.858 96.4742 347.376 103.914ZM330.482 78.6082C327.906 78.7342 327.41 79.6362 328.158 77.1502C330.366 69.8162 330.312 71.1602 340.286 70.8502C350.602 70.5302 365.834 74.6202 366.43 75.9642C367.692 78.8102 370.35 85.3582 367.552 83.9882C356.034 78.3502 343.286 77.9782 330.482 78.6082ZM371.488 127.968C364.996 128.24 361.06 122.302 360.99 122.02C360.802 121.248 364.046 118.204 364.814 118.492C370.702 120.696 376.73 116.326 377.28 110.422C377.334 109.842 377.64 109.512 378.17 109.366C381.796 108.362 383.096 107.388 383.5 108.786C386.606 119.552 379.706 128.24 371.486 127.968H371.488Z" fill="#101828"/>
<path d="M347.25 101.014C345.338 101.084 345.422 99.0343 344.474 95.8083C344.19 94.8403 345.13 94.2463 345.61 95.5543C346.478 97.9223 346.756 100.06 348.6 99.2243C348.862 99.1043 349.312 98.8163 349.548 99.1983C349.872 99.7183 349.2 99.7923 349.006 100.084C348.592 100.708 347.978 100.984 347.248 101.014H347.25Z" fill="#101828"/>
<path d="M351.108 91.0742C353.04 91.3882 352.99 93.8342 351.7 93.8082C350.614 93.7882 350.602 92.8082 350.372 92.0962C350.172 91.4782 350.626 91.2202 351.11 91.0762L351.108 91.0742Z" fill="#101828"/>
<path d="M341.21 97.0601C342.52 97.2801 343.176 99.9321 341.712 99.7881C340.214 99.6401 339.642 97.2221 341.21 97.0601Z" fill="#101828"/>
<path d="M371.796 251.69C372.53 236.14 388.268 229.416 399.866 237.15C404.5 240.24 404.528 248.528 406.67 248.842C409.504 249.258 410.584 251 409.838 253.764C407.28 263.23 403.772 253.552 408.728 273.88C409.27 276.102 433.298 268.778 449.43 293.108C450.406 294.578 448.362 296.58 446.922 294.832C444.2 291.526 443.216 288.266 434.136 282.596C427.356 278.362 418.202 277.606 417.722 277.532C416.402 277.33 416.952 277.922 413.894 285.142C413.08 287.066 412.278 287.258 410.58 286.052C408.903 284.878 407.326 283.567 405.866 282.132C404.658 280.934 401.176 281.718 400.078 282.59C398.61 283.758 396.898 286.266 393.376 291.012C389.348 296.442 387.006 284.668 385.048 285.978C375.882 292.11 369.136 300.318 364.672 309.602C364.066 310.862 362.69 310.35 363.09 309.01C366.118 298.854 376.564 285.758 393.21 278.44C394.092 278.052 393.502 277.446 393.46 276.912C393.348 275.5 393.052 274.892 391.26 275.368C380.546 278.216 372.69 262.06 371.796 251.69ZM374.464 251.97C374.1 263.388 386.51 282.83 398.56 267.304C399.52 266.068 401.12 266.794 400.36 268.528C399.254 271.054 395.066 273.746 394.984 274.092C394.85 274.664 394.918 274.686 395.878 277.84C396.006 278.258 396.098 278.638 396.626 278.846C404.362 281.89 406.762 275.848 406.278 274.3C405.232 270.952 404.846 267.488 404.278 264.056C403.456 259.1 404.814 258.722 407.146 254.88C408.574 252.53 407.176 250.51 404.6 251.366C401.702 252.33 401.206 253.006 400.73 252.426C400.158 251.728 401.524 250.49 402.346 250.08C403.428 249.538 403.238 249.484 400.288 242.724C396.312 233.608 375.032 234.062 374.46 251.97H374.464ZM391.012 289.732C397.078 281.366 397.148 281.492 396.852 281.192C395.744 280.076 395.734 280.498 388.002 284.214C387.05 284.672 387.38 284.62 391.012 289.732ZM411.806 277.362C408.754 277.558 408.192 277.024 406.684 279.52C406.17 280.372 406.39 279.91 410.992 283.652C411.932 284.416 411.694 283.618 413.41 279.828C414.52 277.378 414.42 277.194 411.806 277.364V277.362Z" fill="#101828"/>
<path d="M394.956 261.796C395.394 265.792 390.668 266.956 390.338 265.754C390.008 264.552 393.41 265.032 393.294 261.054C393.274 260.394 393.182 259.756 394.024 259.764C395.072 259.774 394.956 260.9 394.956 261.796Z" fill="#101828"/>
<path d="M393.962 247.498C392.054 247.76 390.256 247.774 388.66 248.696C388.296 248.906 387.878 248.814 387.662 248.362C386.73 246.404 391.486 244.848 393.962 247.498Z" fill="#101828"/>
<path d="M375.302 253.46C375.264 249.44 380.258 248.154 380.52 249.716C380.674 250.634 379.322 250.648 377.472 251.786C376.766 252.22 376.148 252.8 375.302 253.46Z" fill="#101828"/>
<path d="M383.676 260.276C383.718 259.916 383.672 259.38 384.236 259.266C384.87 259.138 385.012 259.662 384.992 260.106C384.88 262.618 387.678 260.298 387.794 261.834C387.9 263.216 383.638 264.092 383.676 260.276Z" fill="#101828"/>
<path d="M379.882 256.924C379.952 258.74 378.044 258.24 377.908 256.632C377.802 255.38 379.152 254.724 379.882 256.924Z" fill="#101828"/>
<path d="M392.248 253.288C392.306 255.104 390.54 254.82 390.356 252.884C390.226 251.52 391.864 251.286 392.248 253.288Z" fill="#101828"/>
<path d="M132.266 198.616C126.53 195.764 127.044 189.68 130.98 187.208C131.536 186.858 131.798 186.668 131.326 185.892C128.568 181.344 130.53 176.142 135.622 174.532C136.704 174.192 137.096 173.942 136.84 172.692C136.238 169.758 138.676 166.678 141.782 166.342C148.098 165.658 146.958 168.428 148.11 166.238C151.232 160.302 157.086 159.914 160.764 164.15C161.354 164.83 161.594 164.86 162.358 164.368C166.02 162.016 171.19 163.602 172.138 167.812C172.248 168.304 172.368 168.528 172.986 168.556C177.336 168.766 178.814 170.848 177.456 174.884C177.18 175.704 177.698 175.52 178.09 175.644C181.67 176.776 184.428 178.774 185.27 182.694C186.31 187.544 182.64 188.638 183.904 189.924C191.34 197.5 182.884 210.518 173.48 208.922C173.25 208.882 172.85 208.718 172.82 208.984C172.698 210.044 173.198 211.014 173.37 212.036C173.642 213.652 183.89 209.91 198.798 218.912C206.226 223.398 211.91 230.42 212.6 232.354C213.11 233.782 211.35 234.968 210.124 233.54C200.262 222.056 190.872 214.812 174.644 215.202C173.85 215.222 173.558 215.51 173.27 216.2C171.23 221.088 165.22 222.426 161.248 218.86C160.676 218.346 160.3 218.392 159.696 218.676C143.516 226.284 135.092 245.568 134.62 246.27C134.254 246.814 133.894 247.428 133.08 247.054C131.096 246.138 139.652 225.198 158.644 216.45C159.3 216.148 159.992 216.036 159.716 214.906C159.462 213.87 159.216 213.638 158.184 213.988C154.122 215.362 152.448 212.71 151.166 214.472C146.526 220.846 137.96 217.248 137.77 211.964C137.748 211.342 137.708 210.92 136.906 210.938C132.168 211.054 127.964 205.686 132.272 198.614L132.266 198.616ZM142.088 189.694C145.156 188.046 148.338 188.68 148.292 189.514C148.272 189.878 145.958 190.828 143.388 191.906C141.926 192.52 141.874 193.276 143.254 198.546C143.784 200.576 139.156 199.5 138.966 205.394C138.788 210.85 144.852 214.224 149.328 211.034C151.544 209.456 153.54 213.93 159.406 211.058C164.744 208.444 164.724 204.372 166.524 205.59C167.408 206.188 167.088 207.01 166.562 207.674C165.728 208.726 165.01 210.066 163.908 210.676C161.286 212.128 161.734 214.066 162.356 216.328C163.53 220.598 172.284 218.804 170.942 212.37C170.474 210.128 169.986 207.882 169.706 205.608C168.182 193.274 169.836 208.06 177.612 204.864C183.724 202.35 181.21 192.116 173.366 193.956C174.076 192.286 174.982 191.246 173.892 190.256C172.148 188.68 170.152 191.676 168.428 192.246C165.384 193.254 162.718 192.326 160.918 189.992C157.23 185.21 153.07 189.662 152.418 188.092C151.868 186.772 155.466 185.6 156.772 185.136C155.728 183.726 154.936 182.236 154.176 180.602C151.354 184.042 148.544 186.722 143.782 187.14C142.108 187.286 141.46 187.86 142.084 189.694H142.088Z" fill="#101828"/>
<path d="M179.17 199.76C179.17 201.912 177.616 203.566 175.606 203.566C173.184 203.566 170.65 201.148 170.672 198.858C170.716 194.396 179.168 194.016 179.168 199.758L179.17 199.76Z" fill="#101828"/>
<path d="M143.926 200.884C147.06 209.104 149.966 208.486 148.042 209.596C142.39 212.856 137.2 203.948 143.926 200.884Z" fill="#101828"/>
<path d="M153.518 204.695C153.804 203.275 157.428 205.187 158.544 201.189C158.828 200.171 160.166 200.187 160.194 201.753C160.272 206.045 153.062 206.959 153.518 204.695Z" fill="#101828"/>
<path d="M149.682 197.746C149.932 197.1 149.286 195.866 150.43 195.834C151.436 195.808 151.1 196.994 151.14 197.654C151.348 201.036 153.562 198.104 154.124 199.544C154.484 200.466 152.06 201.524 150.942 200.934C149.664 200.26 149.82 198.952 149.682 197.746Z" fill="#101828"/>
<path d="M159.718 192.909C159.588 194.821 157.502 194.649 157.422 192.693C157.356 191.057 159.372 190.619 159.718 192.909Z" fill="#101828"/>
<path d="M146.718 195.24C146.802 197.434 144.748 197.23 144.638 195.25C144.604 194.63 144.684 193.976 145.476 193.936C146.478 193.886 146.598 194.692 146.72 195.242L146.718 195.24Z" fill="#101828"/>
<path d="M193.812 325.732C188.408 328.474 177.11 327.312 170.528 324.544C168.93 323.872 168.424 321.894 164.768 324.332C150.54 333.828 147.772 344.1 145.786 347.444C144.96 348.834 143.116 348.188 143.586 346.458C145.732 338.54 153.266 327.59 164.266 320.98C166.446 319.67 160.22 321.898 158.292 300.144C157.29 288.832 157.12 274.184 165.502 266.814C179.834 254.212 199.956 261.788 205.66 275.092C210.516 286.418 205.51 293.076 210.418 308.362C212.08 313.542 208.444 315.64 210.676 316.41C220.426 319.77 228.742 326.078 232.138 330.366C233.79 332.45 231.608 334.68 229.566 332.722C223.344 326.762 216.364 322.202 208.146 319.396C206.08 318.69 206.36 320.174 203.342 321.166C201.732 321.696 201.296 320.338 202.424 319.462C206.17 316.552 208.87 313.534 207.956 309.652C204.288 294.056 205.886 300.544 205.338 286.742C204.184 257.642 164.224 255.57 161.03 281.892C159.886 291.318 160.134 300.768 162.282 310.028C165.876 325.526 179.562 324.296 193.38 324.1C194.232 324.088 194.692 325.29 193.814 325.736L193.812 325.732Z" fill="#101828"/>
<path d="M200.198 280.44C199.944 284.978 205.908 308.046 189.654 309.436C183.404 309.97 177.778 308.918 173.69 303.772C168.868 297.706 166.84 288.43 167.912 282.842C169.002 277.156 170.576 276.952 177.38 270.31C185.064 262.808 201.672 272.364 200.198 280.438V280.44ZM179.738 282.52C180.03 282.49 185.72 281.53 185.686 282.966C185.674 283.438 180.926 284.574 180.042 284.928C177.508 285.942 177.562 290.094 173.898 292.856C171.794 294.442 171.384 294.454 173.444 299.156C177.442 308.274 187.466 308.878 193.328 306.548C200.77 303.588 199.548 291.796 198.738 283.968C198.232 279.08 192.752 286.18 180.634 276.62C180.538 278.678 180.188 280.536 179.736 282.522L179.738 282.52Z" fill="#101828"/>
<path d="M199.684 312.718C196.454 318.032 179.926 321.694 170.212 309.158C163.432 300.408 166.64 296.082 167.424 299.248C170.456 311.494 184.284 319.222 199.684 312.718Z" fill="#101828"/>
<path d="M182.414 298.44C181.858 295.864 186.658 296.946 188.32 297.556C188.846 297.75 189.5 297.914 189.342 298.588C189.02 299.962 183.036 297.112 183.956 299.448C185.356 303.002 189.544 300.722 189.634 301.802C189.756 303.258 182.336 304.87 182.416 298.438L182.414 298.44Z" fill="#101828"/>
<path d="M191.246 289.9C192 290.754 192.328 291.758 192.628 292.716C193.024 293.98 191.12 295.77 189.836 295.476C189.348 295.364 189.084 294.886 189.486 294.62C191.374 293.374 190.156 291.762 190.276 290.354C190.294 290.154 190.778 289.37 191.246 289.9Z" fill="#101828"/>
<path d="M195.494 288.438C194.48 288.412 194.38 287.628 194.358 286.848C194.338 286.176 194.392 285.406 195.256 285.432C196.754 285.476 197.114 288.48 195.494 288.438Z" fill="#101828"/>
<path d="M184 289.712C183.88 291.79 181.978 290.948 182.004 289.256C182.012 288.71 182.03 288.066 182.788 288.066C183.786 288.066 183.928 288.838 184.002 289.714L184 289.712Z" fill="#101828"/>
<path d="M283.934 265.684C280.904 261.99 277.164 267.32 276.22 265.036C275.64 263.63 277.76 262.902 279.158 262.336C276.658 260.248 276.72 260.028 276.01 260.604C270.04 265.446 263.694 262.382 264.73 265.43C264.868 265.836 264.846 266.302 264.926 266.988C267.966 264.86 272.22 265.164 272.102 266.822C272.006 268.166 269.668 267.102 264.738 269.598C262.964 270.496 263.062 267.344 263.152 265.356C263.198 264.346 263.002 263.862 261.828 263.566C255.762 262.038 251.598 254.912 253.108 248.88C255.352 239.922 269.712 236.52 278.484 247.102C281.138 250.304 281.82 247.776 289.564 248.372C298.134 249.032 301.326 258.808 301.912 266.794C302.03 268.406 304.818 269.11 302.93 272.93C298.888 281.104 298.902 275.48 302.7 293.13C302.852 293.84 303.248 293.654 303.682 293.622C320.66 292.316 336.656 298.614 346.132 313.092C346.85 314.19 347.036 315.274 345.928 315.984C343.292 317.672 343.476 312.384 334.958 305.728C334.152 305.098 333.698 305.072 332.854 305.778C306.602 327.724 275.708 326.664 263.16 320.636C262.35 320.248 261.958 320.36 261.478 321.058C254.88 330.682 255.518 332.816 253.964 332.046C251.196 330.676 264.186 306.372 285.728 298.102C286.426 297.834 286.57 297.472 286.416 296.742C285.88 294.226 285.916 294.278 283.398 294.692C276.1 295.894 269.96 289.754 267.018 283.142C266.842 282.746 265.862 282.022 267.14 281.664C267.908 281.45 268.688 280.666 269.282 282.074C271.804 288.044 278.85 295.832 287.442 290.148C289.7 288.654 291.158 286.576 291.784 285.848C292.942 284.5 294.736 285.728 293.712 287.288C289.792 293.25 287.006 292.056 288.164 294.632C288.694 295.81 288.452 297.626 289.388 298.21C291.91 299.78 297.676 300.578 300.032 294.828C300.434 293.844 300.088 294.798 297.816 282.7C296.69 276.702 300.254 274.448 301.448 271.434C302.642 268.42 298.468 267.788 294.388 270.29C293.792 270.654 293.294 271.158 292.502 270.992C292.064 270.9 291.86 271.016 292.038 271.544C292.528 273.012 292.12 272.69 280.136 276.232C278.424 276.738 278.408 275.18 278.15 274.666C277.328 273.022 278.73 272.28 274.752 273.626C274.206 273.81 274.568 274.186 274.64 274.49C275.424 277.812 275.42 277.83 272.086 278.814C262.452 281.656 262.012 282.182 261.528 280.18C259.356 271.196 256.618 273.71 272.09 269.556C274.336 268.954 272.666 272.484 275.058 271.848C276.418 271.486 277.292 271.1 276.586 269.436C275.88 267.772 277.822 267.608 283.93 265.678L283.934 265.684ZM332.058 303.71C329.073 301.771 325.866 300.197 322.506 299.022C321.55 298.684 320.966 298.846 320.268 299.51C297.544 321.128 274.324 308.794 273.554 308.924C271.93 309.198 265.214 316.242 263.556 318.472C276.346 323.966 301.63 325.506 332.058 303.71ZM275.652 307.338C291.836 313.488 308.364 306.796 318.35 297.896C312.526 296.536 302.238 296.156 301.46 297.588C299.312 301.542 295.21 302.842 291.194 301.204C288.302 300.026 286.066 301.132 282.08 303.258C279.896 304.422 277.714 305.592 275.652 307.336V307.338ZM290.296 271.124C288.89 266.65 289.082 266.006 287.64 266.41C285.874 266.902 284.096 267.354 282.354 267.922C281.086 268.336 279.32 268.264 278.68 269.296C278.04 270.328 279.114 271.34 279.69 273.904C279.926 274.96 279.922 274.632 289.642 271.746C289.942 271.658 290.382 271.646 290.296 271.124ZM273.494 276.454C272.116 271.65 272.33 271.072 270.868 271.49C262.226 273.958 261.214 273.732 261.85 275.514C263.032 278.83 262.548 279.852 263.774 279.488C273.486 276.6 273.558 276.87 273.494 276.454Z" fill="#101828"/>
<path d="M286.762 277.822C287.664 277.776 287.788 278.578 287.894 279.282C288.636 284.146 283.38 285.744 282.902 284.312C282.714 283.748 283.232 283.548 283.6 283.326C288.07 280.612 284.79 277.922 286.76 277.824L286.762 277.822Z" fill="#101828"/>
<path d="M278.044 281.266C275.314 281.3 275.11 277.4 276.32 277.246C277.656 277.076 276.17 280.328 279.44 279.48C280.64 279.168 280.778 281.23 278.044 281.266Z" fill="#101828"/>
<path d="M281.012 270.896C281 269.146 282.88 269.222 283.124 271.448C283.284 272.918 281.338 273.092 281.012 270.896Z" fill="#101828"/>
<path d="M269.796 275.348C269.896 277.018 267.846 277.042 267.638 274.818C267.512 273.458 269.316 272.926 269.796 275.348Z" fill="#101828"/>
<path d="M257.184 149.214C257.31 145.106 254.416 143.994 257.852 143.414C265.588 142.104 269.436 146.2 269.966 145.794C270.446 145.424 269.556 143.242 269.256 142.716C268.476 141.346 268.646 141.04 270.282 140.966C275.48 140.732 278.26 144.38 278.856 144.16C280.246 143.65 277.874 138.156 280.55 139.802C288.398 144.632 289.844 154.228 289.104 158.946C288.886 160.336 293.896 169.39 290.966 180.04C287.374 193.1 278.666 190.248 279.118 192.484C279.426 194.008 278.604 195.132 280.438 195.076C303.378 194.37 321.14 212.222 318.05 214.58C315.57 216.472 306.378 197.912 280.622 197.86C279.838 197.86 279.602 198.306 279.262 198.782C275.718 203.766 268.012 203.028 266.876 201.304C265.866 199.772 264.68 200.358 263.498 200.874C241.6 210.412 237.802 228.512 236.376 229.486C231.18 233.038 239.246 205.77 264.058 197.794C264.534 197.64 264.83 197.464 264.764 196.862C264.374 193.242 264.168 189.602 263.378 186.034C262.736 183.14 256.156 186.798 250.286 175.468C245.528 166.284 245.776 157.056 250.214 147.848C251.192 145.814 251.668 145.708 253.742 146.698C255.496 147.538 256.38 148.506 257.186 149.212L257.184 149.214ZM269.704 163.348C271.708 163.348 273.298 163.202 275.034 164.328C275.394 164.562 275.936 164.83 275.806 165.322C275.488 166.522 269.958 164.086 267.82 167.918C262.428 177.582 256.786 170.644 256.152 174.426C255.788 176.6 257.308 177.472 259.53 178.576C264.992 181.292 266.076 186.298 266.682 196.506C266.832 199.028 267.458 200.606 271.958 200.226C273.511 200.093 274.995 199.526 276.242 198.59C277.674 197.53 277.546 195.894 277.456 194.35C277.196 189.932 275.366 193.11 269.83 189.618C268.832 188.988 269.128 187.978 270.418 188.374C295.226 195.97 290.152 162.754 287.354 163.148C286.268 163.302 285.166 163.292 284.094 163.604C283.518 163.772 282.654 164.41 282.354 163.724C281.832 162.526 285.298 161.266 286.604 161.264C286.858 161.264 287.226 161.416 287.318 160.984C286.688 157.692 281.552 164.008 270.52 157.192C270.64 159.358 270.24 161.3 269.702 163.346L269.704 163.348ZM260.274 180.994C260.102 178.982 257.764 179.328 257.72 180.814C257.668 182.568 260.046 182.876 260.274 180.994Z" fill="#101828"/>
<path d="M277.244 182.846C273.796 182.706 271.738 179.606 273.154 178.626C274.064 177.996 274.284 178.936 274.666 179.478C275.482 180.632 277.492 181.184 278.804 180.568C280.982 179.548 281.312 182.792 277.242 182.844L277.244 182.846Z" fill="#101828"/>
<path d="M282.836 173.866C282.782 177.16 277.67 177.206 279.108 175.74C279.748 175.086 282.028 174.864 280.802 172.856C280.446 172.272 280.314 171.554 280.018 170.924C279.558 169.944 280.798 169.424 281.2 170.124C281.916 171.372 282.632 172.636 282.836 173.866Z" fill="#101828"/>
<path d="M273.774 169.82C273.82 170.984 272.544 169.172 268.722 171.858C267.942 172.406 267.67 171.804 267.838 171.262C268.606 168.8 272.406 167.826 273.774 169.818V169.82Z" fill="#101828"/>
<path d="M287.992 166.914C287.876 167.858 286.738 166.466 283.454 168.182C283.204 168.312 282.932 168.604 282.698 168.228C281.666 166.568 286.68 164.262 287.992 166.914Z" fill="#101828"/>
</svg>
