<svg width="560" height="400" viewBox="0 0 560 400" fill="none" xmlns="http://www.w3.org/2000/svg">
<rect width="560" height="400" fill="white"/>
<path fill-rule="evenodd" clip-rule="evenodd" d="M198.094 301.22L120.354 314.4C116.504 315.047 112.555 314.14 109.373 311.879C106.191 309.618 104.035 306.188 103.378 302.34L90.2099 224.6C89.561 220.75 90.4663 216.799 92.7269 213.616C94.9876 210.433 98.419 208.276 102.268 207.62L181.668 194.17L182.046 196.642L102.686 210.086C99.4869 210.631 96.635 212.424 94.7564 215.07C92.8778 217.716 92.1259 221 92.6659 224.2L105.838 301.918C106.385 305.114 108.176 307.964 110.82 309.842C113.463 311.719 116.744 312.473 119.942 311.936L197.73 298.758L198.094 301.22ZM196 287.132L196.37 289.608L129.944 300.858C129.776 300.881 129.605 300.869 129.442 300.824C129.278 300.779 129.126 300.701 128.993 300.594C128.861 300.488 128.752 300.356 128.672 300.207C128.593 300.057 128.544 299.893 128.53 299.724C128.516 299.555 128.536 299.386 128.589 299.225C128.642 299.064 128.727 298.916 128.838 298.789C128.95 298.661 129.086 298.558 129.239 298.485C129.391 298.411 129.557 298.37 129.726 298.362C129.74 298.358 164.744 292.426 196 287.132ZM190.128 248.854C187.321 251.41 184.516 253.968 181.712 256.528C170.65 266.62 170.086 267.134 169.446 267.262C169.411 267.268 169.375 267.274 169.34 267.28L169.292 267.288C169.003 267.337 168.707 267.329 168.421 267.264C168.136 267.199 167.865 267.078 167.627 266.908C167.388 266.738 167.185 266.523 167.029 266.274C166.873 266.026 166.768 265.749 166.72 265.46C165.474 258.138 164.492 252.49 163.732 248.12C161.428 234.864 161.172 233.388 161.792 232.64C161.868 232.546 161.96 232.464 162.064 232.372L162.14 232.302L162.216 232.232C162.316 232.138 162.408 232.054 162.508 231.986C163.298 231.446 164.718 231.826 177.322 235.2C180.346 236.01 184.014 236.992 188.47 238.174L188.89 240.88L163.97 234.306L169.1 264.57L189.67 245.902L190.128 248.854ZM154.556 212.428C154.371 212.696 154.089 212.881 153.77 212.944L144.67 214.486C144.347 214.537 144.016 214.458 143.751 214.266C143.486 214.074 143.307 213.785 143.254 213.462C143.198 213.139 143.272 212.808 143.459 212.539C143.645 212.271 143.93 212.086 144.252 212.026L153.352 210.484C153.592 210.451 153.836 210.488 154.056 210.59C154.275 210.693 154.459 210.858 154.587 211.064C154.715 211.27 154.78 211.508 154.774 211.75C154.769 211.993 154.693 212.228 154.556 212.428ZM101.6 221.656L137.512 215.572C137.833 215.511 138.118 215.326 138.305 215.058C138.491 214.789 138.565 214.458 138.51 214.136C138.455 213.813 138.276 213.525 138.01 213.334C137.745 213.142 137.415 213.063 137.092 213.112L101.186 219.2C100.955 219.253 100.744 219.372 100.578 219.541C100.412 219.71 100.298 219.923 100.248 220.154C100.199 220.386 100.217 220.627 100.3 220.849C100.382 221.071 100.527 221.265 100.716 221.408C100.969 221.601 101.284 221.69 101.6 221.656ZM124.474 300.652C124.56 301.413 124.35 302.178 123.889 302.79C123.428 303.402 122.749 303.813 121.994 303.94C121.239 304.069 120.462 303.904 119.825 303.478C119.188 303.053 118.738 302.399 118.568 301.652C118.482 300.891 118.691 300.125 119.153 299.514C119.614 298.902 120.292 298.491 121.048 298.364C121.803 298.235 122.579 298.4 123.217 298.826C123.854 299.251 124.304 299.905 124.474 300.652Z" fill="#101828"/>
<path fill-rule="evenodd" clip-rule="evenodd" d="M274.204 60.9318L279.724 28.6538C280.476 24.2829 282.93 20.3886 286.55 17.8255C290.169 15.2624 294.658 14.2397 299.03 14.9818L450.43 40.8678C454.802 41.6189 458.697 44.0741 461.261 47.6945C463.824 51.3149 464.846 55.8046 464.102 60.1778L449.008 148.444C448.257 152.814 445.803 156.708 442.185 159.271C438.566 161.834 434.078 162.856 429.706 162.114L378.568 153.37L378.06 150.414L430.176 159.324C433.808 159.942 437.537 159.093 440.544 156.965C443.551 154.836 445.59 151.601 446.214 147.97L461.308 59.7038C461.926 56.0719 461.077 52.3433 458.948 49.3365C456.82 46.3296 453.585 44.2902 449.954 43.6658L298.554 17.7758C294.922 17.1577 291.193 18.0062 288.186 20.135C285.179 22.2638 283.14 25.4988 282.516 29.1298L277.136 60.5838L274.204 60.9318ZM375.766 136.496L376.052 138.41L376.214 139.45L423.686 147.574C423.87 147.605 424.058 147.6 424.24 147.558C424.422 147.517 424.594 147.44 424.746 147.332C424.898 147.224 425.027 147.087 425.126 146.929C425.226 146.772 425.293 146.596 425.324 146.412C425.355 146.228 425.35 146.04 425.309 145.858C425.267 145.676 425.19 145.504 425.082 145.352C424.974 145.2 424.838 145.071 424.68 144.971C424.522 144.872 424.346 144.805 424.162 144.774L375.766 136.496ZM333.84 36.7458L293.04 29.7718C292.669 29.7059 292.34 29.496 292.123 29.1881C291.907 28.8801 291.821 28.4989 291.884 28.1278C291.916 27.9439 291.984 27.7681 292.084 27.6104C292.184 27.4527 292.314 27.3163 292.466 27.2089C292.619 27.1016 292.791 27.0254 292.974 26.9847C293.156 26.944 293.344 26.9396 293.528 26.9718L334.316 33.9458C334.592 33.9942 334.848 34.123 335.051 34.3162C335.255 34.5094 335.396 34.7583 335.459 35.0317C335.521 35.3051 335.501 35.5909 335.402 35.8531C335.303 36.1154 335.128 36.3424 334.9 36.5058C334.592 36.723 334.211 36.8093 333.84 36.7458ZM352.246 40.0398C352.617 40.1032 352.999 40.0165 353.306 39.7987C353.613 39.581 353.822 39.2501 353.885 38.8788C353.949 38.5075 353.862 38.1262 353.644 37.8188C353.426 37.5115 353.095 37.3032 352.724 37.2398L342.386 35.4698C342.202 35.4384 342.014 35.4435 341.832 35.4849C341.65 35.5263 341.478 35.603 341.326 35.7108C341.174 35.8187 341.044 35.9554 340.945 36.1132C340.846 36.2711 340.779 36.4469 340.747 36.6308C340.716 36.8146 340.721 37.0029 340.762 37.1847C340.804 37.3666 340.88 37.5386 340.988 37.6907C341.096 37.8429 341.233 37.9724 341.391 38.0718C341.548 38.1711 341.724 38.2384 341.908 38.2698L352.246 40.0398ZM432.8 66.3218C434.64 81.8538 411.236 85.0878 409.044 68.8898C406.924 53.2698 430.784 49.3438 432.8 66.3218ZM434.202 97.7398C441.376 98.8198 432.294 80.3418 411.894 81.3138C409.548 81.2845 407.221 81.7377 405.058 82.6453C402.895 83.5529 400.941 84.8955 399.318 86.5898C397.09 89.2058 397.264 90.8438 400.834 91.6438C411.876 94.1198 423.016 96.0558 434.202 97.7398Z" fill="#101828"/>
<path fill-rule="evenodd" clip-rule="evenodd" d="M401.164 323.821C401.602 368.393 395.906 371.567 266.098 384.821C255.964 385.855 234.392 385.285 224.066 380.821C208.892 374.279 207.882 367.443 199.046 307.658C196.952 293.397 194.808 279.143 192.614 264.896C191.046 254.751 189.56 245.185 188.158 236.161V236.155C168.108 107.111 165.3 89.0345 185.546 77.5225C201.152 68.6505 231.146 65.5145 257.408 62.7685C262.579 62.2389 267.747 61.6776 272.912 61.0845C279.112 60.3585 284.882 59.6565 290.26 59.0025C328 54.4125 346.294 52.1885 356.452 60.2365C366.006 67.8065 368.36 84.4645 372.926 116.793L372.928 116.797C373.852 123.341 374.868 130.529 376.052 138.413C376.418 140.857 377.344 146.247 378.634 153.763V153.765C381.47 170.289 386.07 197.085 390.376 225.439C388.556 225.249 386.828 225.078 385.186 224.928C381.29 199.361 376.426 168.809 370.602 132.227C369.442 124.872 368.328 117.511 367.26 110.143C360.654 65.0985 359.828 59.4725 325.936 60.9765C318.686 61.2965 218.362 73.9665 218.312 73.9765C197.304 77.2785 178 82.3125 176.238 100.001C175.124 111.181 177.976 135.019 179.184 143.289L183.662 173.963V173.967L183.668 174.007V174.013C199.956 285.648 208.28 342.693 213.31 361.781C217.918 379.263 234.782 379.787 252.356 380.333L253.474 380.367C263.628 380.691 268.152 380.099 278.232 378.781L278.236 378.779H278.242C282.188 378.263 286.984 377.635 293.3 376.909C297.224 376.457 302.17 376.013 307.716 375.517H307.722H307.728L307.732 375.515H307.736C326.184 373.863 351.232 371.621 367.202 366.495L369.248 365.841C392.068 358.565 400.692 355.815 395.44 301.307C396.91 301.445 398.428 301.59 399.99 301.74C400.682 310.028 401.102 317.513 401.164 323.821ZM385.388 331.891C385.348 332.591 385.306 333.331 384.354 333.451C383.154 333.603 382.984 332.648 382.836 331.805L382.808 331.651C382.708 331.097 380.958 318.704 378.318 299.709C379.272 299.801 380.254 299.895 381.266 299.989L385.42 331.467C385.404 331.603 385.396 331.747 385.388 331.891ZM371.202 224.059C352.182 81.1745 351.588 81.4365 350.566 81.8845C350.52 81.9077 350.471 81.9245 350.42 81.9345C349.026 82.1305 358.774 156.535 367.934 224.066C369.023 224.043 370.113 224.04 371.202 224.059ZM350.868 245.805L345.354 246.62L341.172 247.241C274.552 257.107 268.688 257.977 268.392 259.762C268.373 259.947 268.38 260.133 268.414 260.314V260.322C268.722 262.692 268.726 262.691 345.53 250.655L350.388 249.893C350.54 248.519 350.7 247.148 350.868 245.805ZM349.462 259.373L327.524 262.791C274.178 271.095 269.52 271.821 269.304 273.231C269.282 273.367 269.302 273.506 269.324 273.662V273.665C269.568 275.398 269.572 275.396 326.622 266.635C333.32 265.607 340.804 264.456 349.166 263.176C349.25 261.988 349.348 260.711 349.462 259.373ZM191.622 103.435C188.386 104.015 229.374 380.767 228.986 355.941L228.982 355.913C228.548 352.719 194.57 102.909 191.622 103.435ZM264.766 320.643C264.706 320.459 264.652 320.301 264.674 320.153C264.822 319.219 268.058 318.771 291.906 315.467L291.908 315.465C302.316 314.023 316.65 312.039 336.364 309.231L336.542 309.205C337.342 309.091 337.922 309.007 338.37 309.21C339.55 309.753 339.812 312.301 340.762 321.575C340.972 323.627 341.216 326.007 341.512 328.767L341.518 328.823C341.588 329.477 341.646 330.015 341.492 330.481C340.798 332.579 335.82 333.263 308.436 337.027C299.126 338.307 287.228 339.941 272.03 342.109L271.21 342.229C269.518 342.483 268.432 342.645 267.698 342.211C266.386 341.437 266.196 338.765 265.664 331.319V331.315C265.468 328.565 265.226 325.167 264.864 320.973C264.852 320.921 264.839 320.871 264.824 320.821L264.766 320.643ZM337.342 320.395C336.778 314.941 336.622 313.421 335.918 313.103C335.646 312.979 335.294 313.035 334.806 313.111L334.77 313.117L269.8 322.859L269.784 322.861C267.884 323.139 267.82 323.149 269.364 337.501L269.368 337.537C269.402 337.865 269.43 338.123 269.562 338.309C270.056 339.007 272.026 338.661 281.426 337.005L281.896 336.923C310.736 331.845 324.898 330.233 331.784 329.447C337.678 328.777 338.242 328.713 338.116 327.601V327.605C337.845 325.205 337.588 322.805 337.344 320.403L337.342 320.401V320.395ZM327.43 135.293C212.502 152.207 212.492 152.285 212.922 155.115V155.119C213.328 157.801 213.43 158.479 330.62 139.509C332.816 139.156 335.015 138.821 337.216 138.505C344.852 137.389 347.288 137.033 346.378 134.465C345.712 132.571 345.088 132.665 332.636 134.521H332.622C331.08 134.753 329.356 135.009 327.43 135.293ZM215.838 170.193C215.811 170.033 215.804 169.871 215.818 169.711C216.09 167.765 222.922 166.731 316.424 152.597C323.582 151.517 331.248 150.357 339.458 149.115C345.878 148.143 347.102 148.197 347.408 149.881C347.8 152.047 346.548 152.237 332.434 154.387L327.376 155.161L298.614 159.591L298.546 159.601L298.392 159.625L298.356 159.631C222.666 171.295 216.506 172.243 215.926 170.859C215.88 170.723 215.857 170.581 215.858 170.439C215.854 170.359 215.847 170.28 215.838 170.201V170.193ZM217.898 185.195V185.213C218.058 187.885 219.65 187.639 316.254 172.713H316.258L333.95 169.981L335.01 169.817C349.058 167.649 350.048 167.497 349.658 165.569L349.656 165.561C349.62 165.387 349.588 165.227 349.518 165.089C348.8 163.709 344.086 164.411 292.158 172.129C279.464 174.015 263.95 176.321 244.984 179.117C217.772 183.129 217.808 183.719 217.898 185.195ZM258.76 95.6005C243.148 95.0365 239.636 91.8885 236.82 89.3645C234.696 87.4605 232.97 85.9125 226.746 86.1005C217.436 86.3805 207 88.4865 199.5 90.0005C193.542 91.2025 189.438 92.0325 189.22 91.2745C188.686 89.4105 226.292 80.8325 235.004 84.8605C236.672 85.6325 237.734 86.5245 238.796 87.4205C240.59 88.9285 242.392 90.4445 247.116 91.3905C258.422 93.6525 299.876 91.4165 306.304 80.7305C309.684 75.1125 314.578 74.2305 326.742 72.0385C329.35 71.5685 332.292 71.0385 335.626 70.3885C347.642 68.0445 347.098 70.6065 344.04 71.3045C337.929 72.695 331.792 73.9732 325.634 75.1385C314.726 77.2465 311.43 77.8845 309 82.0625C302.334 93.5305 270.918 95.4005 258.76 95.6005ZM273.394 125.655C273.5 125.323 273.48 124.951 273.456 124.509L273.454 124.443C272.983 121.915 272.53 119.384 272.096 116.851V116.847V116.843C270.828 109.509 270.804 109.375 268.582 109.735L208.414 119.535C206.364 119.861 206.39 120.009 207.8 128.325V128.329C208.11 130.159 208.488 132.383 208.926 135.093C209.272 137.183 209.706 137.447 211.872 137.093C222.654 135.339 233.44 133.611 244.23 131.909C268.87 128.009 272.842 127.379 273.394 125.655ZM210.636 129.619C210.34 127.941 210.04 126.239 209.982 124.429L209.94 124.333C209.76 123.919 209.622 123.599 209.684 123.323C209.896 122.357 212.538 121.927 224.39 119.999C229.408 119.183 236.076 118.099 244.908 116.591C250.984 115.551 255.484 114.725 258.824 114.111C266.044 112.783 267.832 112.455 268.394 113.137C268.58 113.363 268.634 113.697 268.702 114.139L268.708 114.167C269.05 116.327 269.434 118.48 269.862 120.625C270.57 124.243 270.584 124.321 269.032 124.567C244.44 128.461 230.326 131.033 222.216 132.513C213.576 134.087 211.744 134.421 211.308 133.789C211.19 133.619 211.174 133.379 211.152 133.075C211.144 132.939 211.133 132.804 211.118 132.669C210.996 131.649 210.816 130.639 210.636 129.619ZM380 343.381C336.786 371.091 232.578 368.715 234.458 361.215C234.638 360.491 235.394 360.647 237.668 361.113C243.488 362.311 259.268 365.557 300.858 361.309C340.876 357.223 363.032 348.991 373.19 345.217C377.26 343.705 379.404 342.909 380 343.381ZM264.766 216.689L264.69 216.687C263.706 216.673 262.562 216.654 262.396 215.367C262.222 214.083 263.308 213.695 264.356 213.423C272.184 211.396 348.534 200.202 350.504 200.135C350.981 200.064 351.467 200.184 351.856 200.469C352.243 200.757 352.501 201.186 352.576 201.663C352.612 201.899 352.601 202.14 352.543 202.372C352.486 202.604 352.383 202.823 352.24 203.015C352.099 203.207 351.921 203.37 351.716 203.494C351.511 203.617 351.284 203.699 351.048 203.734C347.946 204.382 278.74 215.199 264.766 216.689ZM245.054 285.899C260.538 284.101 261.69 283.966 261.304 280.998C260.394 274.034 259.358 267.07 258.324 260.11C258.02 258.074 257.718 256.038 257.418 254.003C257.066 251.622 256.286 251.738 238.454 254.393L238.43 254.395C236.258 254.719 233.836 255.079 231.13 255.477C229.312 255.745 228.376 256.382 228.874 260.214C229.656 266.218 230.216 270.9 230.654 274.55C232.182 287.334 232.194 287.424 234.918 287.094C238.84 286.62 242.192 286.231 245.054 285.899ZM252.31 256.079L253.612 255.887V255.891C253.668 255.879 253.718 255.863 253.768 255.849C253.894 255.815 253.998 255.785 254.09 255.807C254.534 255.911 254.7 257.187 255.662 264.563C256.09 267.833 256.672 272.299 257.506 278.395C257.558 278.769 257.63 279.096 257.694 279.382C257.914 280.37 258.026 280.867 256.748 281.007C247.336 282.047 241.932 283.068 238.802 283.658C234.882 284.4 234.528 284.467 234.33 283.057C233.573 277.659 232.773 272.269 231.93 266.885C231 260.909 230.794 259.588 231.29 259.222C231.432 259.118 231.63 259.092 231.882 259.057H231.888C237.836 258.229 248.488 256.646 252.31 256.079ZM254.24 234.111C254.284 234.954 254.318 235.6 254.08 236.122C253.314 237.816 249.708 238.225 234.422 239.951C232.494 240.169 230.378 240.406 228.06 240.673L227.95 240.685C227.276 240.763 226.772 240.82 226.37 240.646C225.17 240.128 224.856 237.561 223.614 227.365C223.182 223.825 222.638 219.365 221.906 213.753C221.54 210.952 221.722 209.443 224.058 209.101L228.364 208.469C250.012 205.289 250.134 205.271 250.488 207.683C251.536 214.825 252.55 221.971 253.508 228.721L253.51 228.73L254.222 233.734L254.24 234.111ZM226.252 229.458C227.14 236.146 227.328 237.572 227.942 237.788C228.11 237.846 228.306 237.816 228.558 237.777H228.564C235.16 236.779 239.824 236.125 243.118 235.665C251.018 234.557 251.022 234.557 250.848 233.577C249.034 223.359 248.458 217.389 248.128 213.949C247.72 209.732 247.68 209.321 246.178 209.549C238.882 210.659 233.948 211.353 230.624 211.821C225.118 212.597 224.028 212.751 223.938 213.135C223.918 213.23 223.958 213.339 224.006 213.475L224.062 213.637C224.827 218.906 225.557 224.18 226.252 229.458ZM263.264 228.223C263.242 228.363 263.264 228.51 263.284 228.674L263.286 228.676C263.544 230.505 263.84 230.552 345.58 217.79C346.558 217.639 347.44 217.505 348.238 217.385C353.842 216.543 355.17 216.342 354.938 214.529C354.706 212.706 352.714 212.982 350.816 213.277C338.572 215.181 328.036 216.811 318.968 218.215L318.94 218.219C268.102 226.09 263.492 226.805 263.264 228.223ZM266.918 77.9205C271.29 77.8585 270.968 84.3445 267.074 84.5205C262.938 84.7185 262.862 77.9785 266.918 77.9205ZM278.688 77.1005C281.454 77.3865 281.062 81.0385 278.746 80.8405C278.486 80.8684 278.224 80.8418 277.975 80.7626C277.727 80.6834 277.497 80.5532 277.302 80.3803C277.106 80.2074 276.949 79.9957 276.84 79.7586C276.73 79.5216 276.672 79.2643 276.668 79.0034C276.664 78.7424 276.714 78.4834 276.815 78.243C276.917 78.0025 277.067 77.7858 277.257 77.6068C277.447 77.4278 277.672 77.2903 277.918 77.2031C278.164 77.1159 278.428 77.081 278.688 77.1005Z" fill="#52897B"/>
<path d="M411.2 227.902C486.924 237.572 469.822 229.93 464.674 284.324C464.064 290.78 463.788 301.154 456.92 304.832C455.614 305.53 457.398 308.664 458.364 321.948C458.824 328.258 455.148 324.466 448.026 319.778C421.756 302.484 429.252 304.818 420.426 303.846C341.728 295.172 347.906 302.67 348.864 268.646C349.082 260.874 351.286 237.952 353.396 231.392C356.132 222.916 363.334 221.8 411.2 227.902ZM455.508 321C454.822 313.762 454.384 312.426 453.592 306.614C452.66 299.788 459.154 307.462 461.644 286.384C465.308 255.364 470.008 240.668 461.282 238.166C451.996 235.504 375.032 225.632 361.864 227.298C354.978 228.168 354.804 233.92 353.58 244.828C352.12 258.719 351.476 272.683 351.65 286.65C351.97 297.162 374.872 295.536 406.938 299.604C431.042 302.666 418.636 296.298 455.508 321Z" fill="#101828"/>
<path d="M407.95 256.886C409.494 256.962 410.992 257.436 412.298 258.263C413.605 259.089 414.675 260.239 415.406 261.602C416.136 262.964 416.502 264.493 416.467 266.038C416.432 267.584 415.997 269.094 415.206 270.422C414.575 271.483 413.732 272.402 412.729 273.121C411.726 273.841 410.585 274.345 409.378 274.602C408.171 274.859 406.923 274.865 405.714 274.618C403.373 274.3 401.246 273.091 399.776 271.243C398.305 269.394 397.605 267.05 397.822 264.698C398.221 262.362 399.484 260.261 401.36 258.814C403.237 257.367 405.589 256.678 407.95 256.886Z" fill="#101828"/>
<path d="M435.834 260.107C449.416 261.807 445.566 279.427 433.72 277.759C421.644 276.057 424.082 258.637 435.834 260.107Z" fill="#101828"/>
<path d="M378.112 271.929C365.954 270.363 368.446 252.73 380.09 254.062C393.66 255.61 389.974 273.459 378.112 271.929Z" fill="#101828"/>
</svg>
