<svg width="560" height="400" viewBox="0 0 560 400" fill="none" xmlns="http://www.w3.org/2000/svg">
<rect width="560" height="400" fill="white"/>
<path d="M213.502 347.524C215.45 347.35 213.67 347.632 251.308 339.04C256.92 337.758 247.394 333.996 243.306 330.802C240.728 328.788 238.072 328.302 234.844 329.032C201.73 336.506 190.514 336.88 196.148 339.596C204.246 343.5 213.46 348.064 213.504 347.526L213.502 347.524Z" fill="#101828"/>
<path d="M263.092 355.006C301.992 345.228 307.318 345.396 302.134 342.012C293.5 336.376 292.568 335.238 288.966 336.158C254.952 344.838 246.154 345.07 252.146 348.73C264.262 356.13 263.134 355.006 263.092 355.006Z" fill="#101828"/>
<path d="M247.616 317.844C234.31 309.324 240.648 310.58 200.632 317.596C198.45 317.978 197.936 318.722 200.224 320.126C211.07 326.782 211.938 327.386 213.626 327.812C246.94 321.194 253.568 321.654 247.616 317.844Z" fill="#101828"/>
<path d="M261.412 336.64C306.1 327.178 300.882 330.054 284.652 319.858C282.802 318.696 284.408 318.868 248.492 326.334C246.65 326.716 246.774 327.604 247.954 328.412C258.446 335.61 258.908 336.372 261.412 336.64Z" fill="#101828"/>
<path d="M380.284 325.416C382.524 325.226 380.336 325.616 418.276 316.08C420.694 315.472 421.114 313.924 418.306 313.028C405.302 308.88 404.948 308.028 400.542 309.104C367.962 317.062 364.094 316.874 368.868 319.598C378.038 324.83 378.872 325.31 380.282 325.414L380.284 325.416Z" fill="#101828"/>
<path d="M258.966 371.01C271.348 367.8 436.604 323.468 447.54 319.92C448.842 319.498 447.132 317.986 446.612 318.108C433.664 321.174 269.846 364.858 257.656 368.708C256.168 369.178 256.85 371.56 258.966 371.01Z" fill="#101828"/>
<path d="M331.172 305.344C354.326 300.83 374.556 298.376 367.536 295.966C351.974 290.62 352.85 290.766 351.248 291.048C318.616 296.814 319.092 296.294 318.724 297.64C318.206 299.536 330.282 305.278 331.172 305.344Z" fill="#101828"/>
<path d="M356.328 314.74C363.94 313.204 382.788 308.348 391.586 306.126C393.716 305.588 393.258 304.544 391.672 304.026C384.118 301.55 379.032 297.754 372.59 300.718C371.414 301.26 343.796 305.826 343.608 307.106C343.374 308.688 356.58 314.524 356.328 314.74Z" fill="#101828"/>
<path d="M277.028 305.978C274.268 304.086 274.334 304.592 247.504 309.346C246.866 309.46 246.084 309.464 245.938 310.266C245.792 311.068 246.55 311.334 247.092 311.68C261.676 321 255.084 320.076 284.412 314.384C288.99 313.496 283.064 310.112 277.028 305.978Z" fill="#101828"/>
<path d="M347.114 333.914C370.83 327.666 375.228 327.96 371.678 325.824C362.388 320.232 360.172 318.59 356.24 319.97C352.308 321.35 332.824 324.172 332.352 326.32C332.08 327.562 333.358 327.774 334.022 328.234C334.082 327.422 341.488 335.396 347.112 333.916L347.114 333.914Z" fill="#101828"/>
<path d="M294.578 312.336C295.282 312.292 321.748 307.71 321.902 306.702C321.986 306.156 322.366 306.06 311.908 299.372C309.416 297.78 311.72 297.992 283.372 302.992C276.294 304.24 294.582 312.292 294.578 312.336Z" fill="#101828"/>
<path d="M312.39 342.586C313.454 342.4 337.282 336.9 337.362 335.772C337.442 334.644 336.944 334.428 328.036 328C326.118 326.616 327.672 326.672 302.096 332.918C300.382 333.336 300.096 334.372 301.524 335.414C302.916 336.43 310.672 342.458 312.392 342.588L312.39 342.586Z" fill="#101828"/>
<path d="M188.062 319.83C188.11 319.83 189.272 319.532 168.54 323.336C167.194 323.582 166.452 325.172 168.266 326.066C182.922 333.29 182.746 333.558 184.658 333.27C184.714 333.262 201.042 330.344 202.11 330.11C202.892 329.938 203.538 329.498 203.786 328.618C204.078 327.572 203.172 327.364 202.636 327.038C202.592 327.012 188.18 318.202 188.062 319.83Z" fill="#101828"/>
<path d="M348.186 314.644C335.238 306.658 341.738 306.792 316.634 312.296C314.018 312.87 315.976 314.112 321.112 317.426C328.934 322.47 323.454 322.478 347.69 316.762C349.036 316.444 349.454 315.426 348.186 314.644Z" fill="#101828"/>
<path d="M243.072 347.694C240.854 347.898 230.364 350.67 228.924 351.058C221.49 353.052 229.982 356.458 236.754 359.594C239.292 360.77 237.032 361.648 253.85 357.302C254.726 357.076 255.12 356.39 255.26 355.592C255.41 354.746 254.64 354.55 254.092 354.212C243.194 347.492 243.09 347.736 243.072 347.694Z" fill="#101828"/>
<path d="M304.794 326.684C325.018 322.092 322.822 324.286 310.25 315.126C307.914 313.424 307.404 314.044 292.37 317.174C290.6 317.542 290.252 318.288 291.958 319.47C303.434 327.418 305.298 326.718 304.794 326.684Z" fill="#101828"/>
<path d="M204.572 352.16C202.954 351.514 202.224 354.412 203.764 355.172C206.044 356.298 226.584 366.064 232.17 368.692C238.764 371.794 239.438 371.812 240.048 370.666C241.338 368.238 204.534 352.72 204.574 352.16H204.572Z" fill="#101828"/>
<path d="M181.978 341.352C164.628 333.174 164.888 333.016 164.224 334.086C162.864 336.278 170.048 339.12 181.602 344.554C184.324 344.702 184.188 342.392 181.98 341.352H181.978Z" fill="#101828"/>
<path d="M329.996 213.764L339.514 259.748C339.688 260.56 338.498 261.012 338.182 260.244C336.122 255.254 332.058 236.558 328.05 216.618C328.809 215.746 329.462 214.788 329.996 213.764Z" fill="#101828"/>
<path d="M155.72 137.812L153.188 141.542L126.146 142.726C106.41 143.584 100.188 142.058 100.552 156.316C100.882 169.25 106.526 195.276 114.436 245.856C125.474 316.432 126.038 321.54 127.89 321.988C130.23 322.554 128.046 317.762 139.01 316.324C148.94 315.022 231.518 300.948 339.616 282.816C351.23 280.868 356.516 281.86 354.732 274.592C350.17 255.996 323.11 146.93 318.346 135.332C317.346 134.632 316.58 134.326 308.3 134.552C307.778 133.27 307.092 131.83 306.208 130.364C312.692 130.274 318.658 130.602 320.698 132.024C322.082 132.988 325.334 135.26 336.522 183.028C356.276 267.374 359.638 277.602 359.042 279.02C357.55 282.564 357.508 281.74 390.646 291.028C395.84 292.484 442.934 306.322 458.278 313.902C463.956 316.706 467.478 321.554 461.788 324.936C454.076 329.52 429.426 335.248 367.68 352.078C347.878 357.476 261.298 381.982 244.732 383.586C237.48 384.288 218.192 373.262 209.874 369.122C198.368 363.394 209.426 369.78 130.288 330.044C121.594 325.68 121.984 319.82 115.484 281.032C115.476 280.98 97.3258 170.802 96.0758 154.322C95.0098 140.266 96.3478 140.114 155.72 137.812ZM137.314 328.798C141.46 331.098 227.872 373.278 231.292 374.92C246.692 382.312 247.032 381.054 291.956 368.232C315.53 361.504 458.494 322.272 458.45 322.306C463.84 318.548 455.186 315.3 398.94 297.616C354.984 283.796 361.898 286.218 354.738 284.614C351.848 283.966 354.66 284.642 312.28 291.654C138.136 320.466 119.944 319.164 137.314 328.798Z" fill="#101828"/>
<path d="M115.75 157.732C122.288 157.146 133.968 156.386 148.516 155.546L147.338 158.798C134.66 159.396 124.644 159.842 119.136 160.038C116.732 160.124 118.002 160.538 119.678 170.164C119.808 170.904 130.046 170.584 145.67 169.684L145.646 171.514C132.734 172.366 128.318 172.592 122.14 172.764C119.106 172.848 120.124 172.208 124.054 196.044C141.566 302.254 140.01 302.496 143.436 301.914C244.944 284.624 342.632 269.864 342.75 269.76C343.236 273.024 342.23 272.628 313.108 277.376C161.252 302.138 144.816 304.844 141.258 304.81C138.498 305.018 139.374 305.188 133.81 272.738C133.69 272.034 129.944 251.294 129.014 241.668C120.274 190.982 113.99 157.896 115.75 157.738V157.732Z" fill="#101828"/>
<path d="M168.336 210.972C169.764 216.446 172.198 219.848 175.002 223.736C177.86 227.698 182.426 236.524 198.22 245.726C220.3 258.59 264.99 259.548 288.236 234.934C293.284 229.588 297.588 223.128 301.472 215.04C304.131 217.605 307.366 219.495 310.906 220.552C308.688 253.146 306.702 275.03 304.514 275.556C299.866 276.674 190.414 293.984 190.358 293.994C188.95 294.202 172.328 255.586 153.534 210.932C153.262 210.286 154.036 209.702 154.582 210.138C158.068 212.928 162.634 213.534 168.334 210.974L168.336 210.972ZM281.926 270.816C282.386 272.24 284.314 272.396 285.142 271.12C287.298 267.8 288.658 240.326 287.606 240.224C286.104 240.078 281.05 268.108 281.926 270.816ZM224.832 259.324C227.718 281.972 232.368 274.322 231.738 271.186C230.89 266.964 223.612 249.746 224.832 259.324Z" fill="#52897B"/>
<path d="M90.534 56.6758C105.554 40.8598 138.802 26.3858 154.666 21.4998C178.374 14.1978 214.27 10.1458 245.416 11.6558C269.39 12.8198 294.446 20.0558 308.852 26.5198C317.206 30.2658 324.128 33.9958 323.57 42.6358C322.868 53.4938 319.806 81.2418 315.152 154.128C314.066 153.488 312.934 153.222 311.762 153.426C307.04 122.846 288.878 119.066 266.886 116.232C278.716 114.852 286.658 113.646 292.796 110.492C309.978 101.672 309.224 76.4878 303.72 59.3858C297.324 39.5098 284.942 34.0258 271.734 29.7578C253.176 23.7558 221.854 21.3758 200.164 27.6138C178.468 33.8538 176.602 44.5618 174.084 45.6118C155.584 53.3238 156.916 76.3818 169.752 85.6878C165.768 93.4378 173.92 105.4 182.26 110.548C186.624 113.24 192.72 115.26 200.496 116.602C193.916 117.648 175.176 121.282 172.82 127.518C154.918 131.716 145.402 161.054 145.948 184.118C145.994 186.042 143.332 186.61 142.588 184.836C123.278 138.692 104.298 92.7958 99.018 80.7718C89.368 58.7978 89.346 57.9278 90.534 56.6758ZM148.78 132.586C150.086 134.666 155.402 135.306 146.054 113.304C141.486 102.554 123.95 64.3638 121.304 61.4038C119.902 68.1018 146.328 128.682 148.78 132.586Z" fill="#52897B"/>
<path d="M220.342 202.4C220.404 214.66 219.912 229.78 213.584 240.284C213.136 241.026 212.676 241.074 211.974 240.8C204.388 237.85 195.886 235.182 181.95 217.148C181 215.92 175.992 208.616 175.814 207.934C175.274 205.88 172.056 206.914 172.528 208.984C174.296 216.736 183.614 231.938 200.512 241.79C211.916 248.438 235.464 252.996 255.808 248.092C281.05 242.006 292.982 225.62 301.456 203.508C310.872 178.934 313.436 135.154 288.236 125.54C266.944 117.416 202.67 114.992 178.608 127.724C175.426 129.408 177.24 131.612 181.494 129.934C193.812 125.07 194.888 125.42 198.636 127.898C217.34 140.258 220.228 180.094 220.34 202.402L220.342 202.4ZM201.246 125.196C201.516 124.02 260.196 120.884 285.082 129.084C295.85 132.632 300.864 141.352 302.402 152.308C305.928 177.398 298.89 209.652 281.258 228.5C266.514 244.262 239.17 248.366 219.336 242.956C215.912 242.022 221.936 241.91 224.374 225.618C228.332 199.192 224.938 137.542 201.246 125.196Z" fill="#101828"/>
<path d="M277.912 110.128C287.43 108.578 295.316 106.07 299.534 97.494C304.47 87.46 302.526 70.572 299.378 60.79C293.7 43.142 283.164 38.252 270.326 34.1C248.378 27 197.206 23.256 180.874 44.382C179.988 45.528 178.56 48.692 175.83 49.828C154.784 58.6 166.364 91 187.352 84.062C198.016 80.538 203.41 66.994 196.674 56.312C189.72 45.284 180.222 51.086 183.95 46.482C199.434 27.356 256.552 30.88 279.012 42.056C296.18 50.598 299.744 73.846 297.53 89.756C296.192 99.374 289.9 103.21 280.608 104.86C261.19 108.306 202.312 114.076 185.888 101.432C181.08 97.73 179.856 94.682 176.992 88.854C176.328 87.504 174.142 85.968 173.58 88.42C172.164 94.602 178.584 102.942 184.646 106.678C203.322 118.19 256.438 113.622 277.908 110.128H277.912ZM196.112 66.354C196.824 84.764 169.042 88.01 167.98 67.946C167.546 59.744 173.874 52.358 181.222 51.892C189.632 51.36 196.256 57.822 196.112 66.354Z" fill="#101828"/>
<path d="M156.818 206.162C169.402 216.932 197.368 177.002 197.106 153.336C196.924 136.944 178.296 123.242 164.596 137.542C148.192 154.664 146.906 197.678 156.818 206.162ZM155.79 181.498C155.824 176.82 155.752 169.658 157.638 163.566C159.682 156.966 163.244 141.808 173.648 137.622C186.472 132.46 205.418 148.106 179.568 186.776C177.25 190.244 169.592 199.424 165.35 201.758C161.658 203.79 158.49 202.608 157.382 195.764C156.55 190.626 155.42 185.512 155.79 181.498Z" fill="#101828"/>
<path d="M245.906 86.6221C264.16 86.5701 270.002 85.7041 283.178 84.9381C293.252 84.3541 290.768 64.9741 282.844 56.4381C274.008 46.9201 224.874 50.3581 213.634 59.5241C210.754 61.8741 209.288 64.9041 209.134 68.5341C208.248 89.3441 209.98 86.7241 245.906 86.6221ZM230.118 82.5021C225.552 82.6561 221.012 82.1261 216.468 81.7821C214.462 81.6281 213.696 80.5261 213.53 78.7161C212.484 67.3561 213.318 63.8641 218.13 61.6461C229.076 56.6021 255.284 52.4721 274.78 57.0901C284.146 59.3101 286.708 69.3161 285.574 78.0041C284.836 83.6541 261.638 81.4261 230.118 82.5021Z" fill="#101828"/>
<path d="M326.268 192.634C315.45 149.33 309.62 155.658 312.394 163.674C314.116 168.652 321.612 189.666 322.562 201.696C323.296 210.988 317.254 212.684 313.34 210.818C307.052 207.822 306.418 205.694 303.97 205.288C302.226 204.998 301.036 206.2 301.964 208.144C307.244 219.184 334.346 224.976 326.268 192.634Z" fill="#101828"/>
<path d="M231.184 67.2402C230.068 65.4562 228.456 65.1402 227.03 66.6282C225.52 68.2042 225.684 72.5562 227.312 74.0082C231.15 77.4282 233.286 70.6002 231.184 67.2402Z" fill="#101828"/>
<path d="M271.976 73.7101C275.87 74.1541 276.196 67.8981 274.528 65.8301C273.158 64.1341 271.244 64.3781 270.378 66.3661C269.416 68.5761 269.636 73.4421 271.976 73.7101Z" fill="#101828"/>
</svg>
