<svg width="560" height="400" viewBox="0 0 560 400" fill="none" xmlns="http://www.w3.org/2000/svg">
<rect width="560" height="400" fill="white"/>
<path d="M419.026 218.332C419.042 217.512 418.354 217.41 417.688 217.234C408.272 214.75 334.556 203.226 334.506 203.218C332.038 202.852 332.072 205.93 334.014 206.238C416.522 219.276 418.984 220.476 419.026 218.332Z" fill="#101828"/>
<path d="M414.908 230.184C415.048 228.922 413.872 228.69 412.938 228.522C323.874 212.6 330.398 214.592 330.218 216.16C329.978 218.246 329.946 217.612 400.762 229.438C412.17 231.344 414.74 231.72 414.91 230.182L414.908 230.184Z" fill="#101828"/>
<path d="M331.76 167.494C331.824 171.054 337.314 171.062 337.142 167.178C336.986 163.666 331.688 163.494 331.76 167.494Z" fill="#101828"/>
<path d="M428.796 192.936C429.272 191.93 431.022 191.632 430.634 190.77C429.984 189.322 428.184 193.116 427.13 189.756C426.838 188.824 425.696 189.236 425.968 190.228C426.336 191.574 427.668 192.29 425.616 193.244C425.248 193.416 424.568 193.698 424.876 194.286C425.218 194.94 425.794 194.646 426.254 194.302C428.43 192.67 427.828 196.204 429.13 195.584C429.926 195.204 429.398 194.27 428.798 192.938L428.796 192.936Z" fill="#101828"/>
<path d="M326.934 167.89C328.944 168.15 328.884 164.578 326.73 164.762C324.34 164.966 324.756 168.03 326.934 167.89Z" fill="#101828"/>
<path d="M421.032 190.24C419.158 190.46 419.522 193.234 421.108 193.062C422.778 192.882 422.854 190.47 421.032 190.24Z" fill="#101828"/>
<path d="M333.938 354.194C336.536 353.622 334.062 354.536 350.452 348.096C355.822 345.986 345.53 344.868 315.578 335.71C312.658 334.818 310.18 335.08 307.67 336.756C303.686 339.414 294.664 342.218 299.738 343.784C333.774 354.29 332.156 353.902 333.938 354.196V354.194Z" fill="#101828"/>
<path d="M287.796 357.658C288.468 357.638 288.192 357.822 298.3 352.64C304.066 349.684 295.99 348.856 265.288 338.532C262.036 337.438 261.102 338.42 252.77 343.012C247.768 345.77 252.678 345.978 287.796 357.658Z" fill="#101828"/>
<path d="M335.184 336.05C336.766 335.778 337.604 335.274 348.046 329.904C350.248 328.772 349.828 328.052 347.846 327.55C311.508 318.348 317.43 317.614 304.6 324.534C298.862 327.63 304.988 327.666 335.184 336.05Z" fill="#101828"/>
<path d="M290.612 340.882C292.934 340.806 293.402 340.12 303.562 334.234C304.018 333.97 304.434 333.602 304.434 333.144C304.434 332.448 303.688 332.424 303.208 332.288C270.676 322.958 272.166 322.898 270.384 323.838C254.746 332.092 250.146 329.094 290.61 340.878L290.612 340.882Z" fill="#101828"/>
<path d="M182.012 322.36C183.33 322.34 183.854 322.102 192.916 317.796C197.498 315.618 193.924 315.524 164.498 305.956C160.522 304.662 160.132 305.418 147.884 308.342C145.238 308.974 145.518 310.428 147.7 311.154C181.954 322.536 179.966 322.034 182.012 322.362V322.36Z" fill="#101828"/>
<path d="M120.028 313.838C127.014 316.614 277.754 369.782 288.228 372.76C289.516 373.126 290.248 372.164 289.186 371.718C279.756 367.758 129.276 315.148 121.62 313.256C120.276 312.924 118.906 313.392 120.028 313.838Z" fill="#101828"/>
<path d="M228.582 307.28C229.548 307.152 240.93 302.906 240.566 301.05C240.32 299.784 240.712 300.32 211.094 292.742C209.64 292.37 210.458 292.298 195.77 296.142C189.146 297.876 207.59 301.532 228.582 307.282V307.28Z" fill="#101828"/>
<path d="M204.792 314.188C217.358 308.782 217.068 308.69 217.022 308.042C216.938 306.848 191.844 300.746 190.798 300.166C185.074 296.994 180.134 300.138 173.01 301.892C171.516 302.26 171.024 303.188 172.946 303.83C180.888 306.48 197.892 312.252 204.792 314.19V314.188Z" fill="#101828"/>
<path d="M278.354 311.596C272.516 314.982 266.83 317.682 270.982 318.816C297.578 326.07 291.43 326.444 305.508 318.9C306.032 318.62 306.75 318.428 306.67 317.678C306.59 316.928 305.874 316.874 305.292 316.724C280.932 310.5 281.026 310.046 278.356 311.594L278.354 311.596Z" fill="#101828"/>
<path d="M224.38 328.134C225.026 327.758 226.214 327.654 226.05 326.492C225.768 324.486 208.034 320.546 204.51 319.004C200.986 317.462 198.832 318.82 189.902 323.324C186.49 325.046 190.558 325.076 211.946 332.462C215.102 333.552 217.284 332.268 224.38 328.134Z" fill="#101828"/>
<path d="M261.768 316.232C262.384 316.052 278.91 309.984 272.724 308.408C246.99 301.852 249.122 301.816 246.72 303.11C236.634 308.54 236.978 308.656 237.018 309.164C237.09 310.1 261.124 316.144 261.768 316.232Z" fill="#101828"/>
<path d="M243.296 342.838C245.526 342.446 251.328 338.512 253.792 336.988C255.178 336.13 254.986 335.156 253.436 334.654C230.33 327.154 231.768 327.198 229.906 328.34C221.264 333.638 220.792 333.802 220.788 334.846C220.784 335.89 242.332 342.594 243.296 342.838Z" fill="#101828"/>
<path d="M359.262 330.476C355.974 330.512 348.464 334.496 345.356 336.102C344.844 336.366 343.996 336.494 344.19 337.476C344.354 338.304 344.918 338.754 345.628 338.966C346.592 339.252 361.412 343.062 361.464 343.074C363.2 343.47 363.056 343.212 377.04 337.576C378.77 336.878 378.198 335.366 376.976 335.046C358.164 330.116 359.216 330.472 359.262 330.476Z" fill="#101828"/>
<path d="M212.292 314.666C211.07 315.298 211.384 316.264 212.6 316.648C234.502 323.574 229.462 323.196 237.006 319.09C241.96 316.396 243.846 315.386 241.478 314.678C218.762 307.874 224.754 308.208 212.292 314.666Z" fill="#101828"/>
<path d="M306.716 352.32C305.086 352.86 306.616 352.132 296.128 357.558C295.604 357.83 294.88 357.958 294.958 358.748C295.032 359.492 295.346 360.148 296.14 360.418C311.318 365.574 309.294 364.614 311.712 363.706C318.158 361.284 326.206 358.744 319.504 356.39C318.206 355.934 308.74 352.662 306.714 352.322L306.716 352.32Z" fill="#101828"/>
<path d="M251.382 328.736C253.3 328.9 262.03 323.962 263.692 322.986C264.196 322.69 264.906 322.438 264.762 321.688C264.646 321.084 263.986 320.992 263.472 320.844C249.858 316.914 249.43 316.32 247.162 317.724C234.964 325.284 233.09 323.118 251.382 328.736Z" fill="#101828"/>
<path d="M341.842 359.078C308.602 371.804 307.414 372.492 307.926 373.658C308.408 374.754 309.03 374.782 315.31 372.384C320.628 370.354 340.2 362.784 342.376 361.904C343.846 361.31 343.378 358.592 341.844 359.076L341.842 359.078Z" fill="#101828"/>
<path d="M363.498 353.668C374.502 349.464 381.308 347.346 380.208 345.234C379.672 344.204 379.9 344.368 363.37 350.696C361.268 351.5 360.984 353.616 363.498 353.668Z" fill="#101828"/>
<path fill-rule="evenodd" clip-rule="evenodd" d="M227.9 275.456C225.04 274.824 223.242 274.428 222.126 274.156H222.124C218.568 273.288 220.256 275.898 221.436 276.438C223.1 277.198 226.588 278 233.182 279.516C236.818 280.352 241.398 281.406 247.136 282.788L259.752 285.828L260.866 286.098C260.277 284.998 259.824 283.83 259.518 282.62C243.066 278.8 233.468 276.684 227.9 275.456ZM398.076 316.198L401.55 317.062C401.86 317.14 402.124 317.206 402.374 317.166C403.888 316.934 404.814 312.842 411.654 283.838C412.48 284.14 413.274 284.356 414.038 284.498C413.294 287.478 412.712 289.744 412.502 290.564L412.422 290.88C406.264 315.522 405.834 319.494 404.382 319.912C404.098 319.994 403.774 319.938 403.36 319.876C402.53 319.822 400.954 319.55 396.824 318.636C397.404 317.674 397.8 316.97 398.076 316.198ZM420.55 256.386C420.016 255.494 419.4 254.712 418.724 254.028C421.357 243.011 424.01 231.999 426.684 220.992C427.244 218.694 427.744 216.648 428.194 214.828C431.146 202.832 431.682 200.652 429.578 200.434C417.838 199.226 266.344 177.038 262.108 176.044C259.626 175.464 260.666 174.424 262.636 174.564C271.598 175.188 321.004 182.15 364.236 188.244C400.49 193.352 432.404 197.85 432.496 197.486C433.017 195.419 433.602 193.369 434.25 191.338C435.122 188.56 435.18 188.372 433.694 188.208C409.34 185.516 382.192 182.176 377.702 181.624L377.058 181.544C356.275 178.953 335.489 176.396 314.698 173.874C260.098 167.232 254.882 166.596 254.186 163.324C257.442 163.324 407.624 181.112 437.668 186.118C438.722 186.294 435.328 199.318 429.616 221.218C426.549 232.929 423.527 244.652 420.55 256.386Z" fill="#101828"/>
<path fill-rule="evenodd" clip-rule="evenodd" d="M269.758 148.664C263.9 147.952 257.44 147.364 253.402 147.744C254.706 148.812 255.5 149.86 255.8 151.24C258.546 151.368 263.65 151.91 273.818 153.12C272.644 152.018 271.312 150.55 269.758 148.664ZM286.406 150.916C338.36 158.022 374.606 162.156 399.806 165.028C456.092 171.448 457.266 171.58 455.3 184.54C453.014 199.616 428.72 299.736 428.708 299.784C427.368 305.186 426.234 309.888 425.244 313.99C419.784 336.624 418.736 340.968 411.71 343.86C356.284 366.666 347.23 369.998 342.004 371.922C340.106 372.62 338.714 373.132 335.788 374.324C334.396 374.892 332.68 375.63 330.76 376.456C321.726 380.342 308.18 386.172 302.716 385.228C289.814 382.998 231.224 361.934 203.178 351.85L203.174 351.848L203.168 351.846L203.124 351.83L203.118 351.828C198.3 350.096 194.388 348.688 191.77 347.76C179.534 343.424 167.288 339.117 155.032 334.84L155.028 334.838C105.578 317.546 100.944 315.926 106.374 309.418C111.536 303.232 168.66 291.254 174.852 290.01C180.11 288.954 184.476 288.096 188.098 287.386C201.544 284.748 204.718 284.124 205.062 282.778C205.17 282.362 205.006 281.878 204.79 281.242L204.756 281.14C204.52 280.44 205.434 277.622 209.742 264.35C216.515 243.511 223.192 222.64 229.774 201.74L231.05 204.15L232.39 206.696L231.076 210.99C226.554 225.782 222.984 237.462 222.364 237.286C217.83 250.613 213.383 263.97 209.022 277.356C207.276 282.708 210.228 283.332 217.09 284.784H217.092C218.65 285.114 220.41 285.486 222.364 285.966C252.062 293.266 279.64 300.064 303.912 306.048H303.916C359.908 319.85 398.316 329.318 404.628 330.63C411.208 332 412.436 334.316 413.136 335.634C413.498 336.316 413.718 336.73 414.466 336.608C416 336.356 416.86 332.678 427.428 287.446C428.808 281.532 430.358 274.906 432.094 267.486C436.882 247.026 441.026 231.122 444.256 218.726C451.148 192.28 453.88 181.792 449.85 177.05C447.202 173.932 441.63 173.3 432.394 172.25C431.14 172.108 429.82 171.956 428.43 171.792C366.87 164.482 327.15 159.624 301.394 156.472C294.122 155.584 287.962 154.83 282.738 154.196C283.618 153.502 284.558 152.628 285.638 151.628L285.658 151.61L286.406 150.916ZM232.35 242.844C234.614 235.025 236.844 227.196 239.038 219.358L237.752 216.908L228.788 248.21C229.492 247.962 230.214 247.769 230.948 247.632L231.228 246.684C231.008 245.392 231.452 244.05 232.35 242.844ZM150.67 328.682L150.672 328.684C179.234 338.696 219.554 352.832 260.322 367.846C263.922 369.172 267.204 370.39 270.206 371.502C300.926 382.896 302.306 383.41 315.678 378.182C318.938 376.908 401.354 344.056 405.326 342.228C417.776 336.494 411.5 335.02 341.346 318.524L341.342 318.522C317.696 312.962 286.792 305.696 246.904 295.986C227.536 291.272 218.576 288.82 214.11 287.598C209.694 286.388 209.67 286.382 208.326 286.58C207.192 286.746 206.438 286.834 205.766 286.914C202.464 287.3 201.156 287.452 166.762 295.498C113.794 307.89 105.602 310.284 110.302 314.114V314.112C111.204 314.846 126.848 320.332 150.67 328.682Z" fill="#101828"/>
<path d="M249.212 176.908C312.1 252.95 311.298 255.286 313.112 254.222C324.568 247.506 342.914 254.118 348.05 269.082C348.61 270.712 350.176 271.746 351.898 271.712C360.908 271.54 372.324 279.092 372.372 291.3C372.376 292.566 372.878 293.08 374.13 292.782C379.762 291.44 395.294 297.348 393.94 313.096C393.86 314.026 393.72 314.69 393.456 315.138C349.192 304.582 349.156 304.768 349.272 304.242C350.41 299.146 346.074 290.572 340.198 285.914C336.604 283.066 330.616 281.37 330.208 284.264C329.782 287.284 334.408 283.754 341.504 292.5C343.872 295.418 345.526 298.716 346.218 302.43C346.638 304.69 340.99 302.658 265.444 284.566C264.142 283.128 260.58 273.808 269.252 268.73C271.286 267.54 269.936 268.384 242.824 216.554C240.778 212.642 230.906 193.77 228.684 189.75C226.79 186.322 246.728 176.14 249.214 176.904L249.212 176.908ZM261.682 230.278C261.722 230.346 288.932 276.5 291.214 276.716C294.43 275.956 292.636 275.46 263.652 229.218C263.204 228.504 262.748 227.622 261.738 228.156C260.654 228.73 261.27 229.558 261.682 230.278ZM246.91 196.354C258.804 213.628 283.934 246.144 285.372 246.348C285.828 246.332 286.166 246.156 286.31 245.76C287.458 242.586 219.836 157.034 246.912 196.356L246.91 196.354Z" fill="#52897B"/>
<path d="M257.676 256.802C257.86 252.898 255.866 250.198 253.384 247.76C251.238 245.654 252.274 249.412 250.468 249.338C249.688 249.306 249.62 248.59 249.406 248.028C245.588 237.96 235.62 240.408 233.77 245.342C232.814 247.89 235.686 246.832 234.94 248.97C234.39 250.544 226.85 248.046 223.74 256.69C222.556 259.982 224.914 264.166 227.572 265.716C228.822 266.444 230.176 266.996 231.472 267.654C233.908 268.892 231.916 265.704 233.278 265.124C234.026 264.804 236.5 267.988 239.91 270.854C243.77 274.098 248.322 273.048 250.642 268.56C252.52 264.928 252.124 261.056 253.192 260.816C253.976 260.64 254.47 261.144 254.73 261.81C255.792 264.528 257.782 260.164 257.678 256.804L257.676 256.802Z" fill="#52897B"/>
<path d="M408.17 252.308C406.476 252.324 404.878 252.208 405.692 253.778C406.348 255.048 405.218 256.39 403.922 254.76C398.012 247.328 385.212 248.1 382.222 257.114C381.576 259.06 384.436 257.45 386.458 258.364C387.194 258.696 388.044 259.004 387.98 259.954C387.916 260.904 386.95 260.914 386.286 261C378.288 262.024 372.604 270.51 380.952 276.776C382.958 278.282 388.804 281.132 388.94 278.346C389.036 276.396 390.858 275.96 391.346 278.334C393.042 286.598 399.084 288.066 405.04 285.234C410.334 282.716 403.948 280.626 405.568 278.876C406.902 277.436 415.074 285.962 420.08 280.954C424.308 276.724 420.328 270.098 415.15 267.04C414.52 266.668 413.396 266.486 413.932 265.406C415.604 262.046 420.336 268.474 420.282 264.482C420.192 257.758 416.446 252.236 408.166 252.312L408.17 252.308Z" fill="#52897B"/>
<path d="M142.556 129.802C106.804 74.4418 115.8 14.9498 126.306 14.6778C143.652 14.2278 173.496 27.8638 192.646 44.8538C203.874 54.8158 213.412 66.3138 222.21 78.4378C224.432 81.5018 221.844 79.7338 255.826 88.1478C259.274 89.0018 257.406 87.2438 276.472 124.154C286.286 143.15 287.68 143.506 284.768 146.094C278.758 151.436 279.422 152.45 276.696 149.426C268.774 140.638 258.738 125.868 252.486 117.06C251.216 115.27 251.468 115.926 246.428 115.842C244.47 115.81 245.952 116.876 248.282 121.692C253.034 131.514 256.078 135.7 252.822 138.578C246.908 143.808 245.25 144.56 243.276 146.686C251.64 152.02 252.534 151.976 250.04 153.994C247.854 155.764 245.932 156.14 248.078 157.634C264.42 169.006 261.836 163.33 220.076 189.16C211.654 194.37 211.078 194.262 210.358 191.022C208.344 181.954 209.106 181.252 206.842 182.802C204.02 184.734 201.254 186.994 200.796 183.602C199.714 175.592 200.472 174.622 198.49 175.722C182.968 184.342 183.266 183.222 181.084 181.284C176.76 177.444 169.18 167.53 166.108 163.646C165.086 165.9 164.342 168.03 163.196 169.92C161.646 172.482 162.584 171.14 173.812 193.152C183.374 211.9 182.95 211.824 180.13 212.938C171.944 216.172 172.026 215.732 169.666 212.51L136.762 167.826C134.776 165.168 135.216 164.682 137.888 152.754C142.978 130.018 143.506 131.27 142.556 129.802ZM168.324 32.5498C155.944 25.4618 141.74 19.4798 127.636 17.3338C125.638 17.0298 124.542 17.7538 124.056 19.7678C120.21 35.7198 120.926 46.3158 121.886 61.9778C122.054 64.7278 119.564 64.7718 167.808 35.7258C170.608 34.0398 171.108 34.1458 168.324 32.5498ZM174.888 36.4858C172.226 34.4258 173.452 35.0658 143.998 53.2958C122.352 66.6958 122.346 66.0898 122.576 67.0578C123.116 71.3898 119.488 71.2658 155.932 49.7478C178.908 36.1818 177.276 38.3338 174.888 36.4858ZM254.036 113.508C262.554 125.092 270.766 135.072 277.982 146.496C278.53 147.364 278.95 147.544 279.768 146.712C283.524 142.888 283.304 144.512 281.018 140.076C261.862 102.956 259.358 98.6518 256.996 93.4898C255.594 90.4258 253.56 91.3698 226.944 84.7898C227.216 86.1338 227.966 86.9658 228.542 87.8398C241.544 107.592 240.992 112 244.5 111.982C253.126 111.942 253.088 112.218 254.036 113.508ZM210.818 180.864C213.628 191.318 212.764 190.006 214.29 189.116C220.756 185.352 223.912 183.304 252.47 166.792C255.108 165.266 252.394 165.144 246.428 159.072C244.43 157.038 245.276 157.512 226.426 169.968C210.542 180.464 210.606 180.074 210.818 180.864ZM202.284 174.478C203.31 180.348 202.88 181.634 204.938 180.28C210.32 176.74 240.516 156.934 246.582 153.512C248.76 152.282 246.594 152.152 241.974 148.658C240.008 147.172 241.42 149.744 210.46 168.92C203.292 173.36 201.85 173.382 202.284 174.478ZM176.464 169.95C185.034 179.524 183.56 180.164 185.73 179.01C218.822 161.374 243.082 141.162 249.726 136.014C250.346 135.534 250.59 135.174 250.082 134.4C247.198 130.016 245.22 123.732 244.12 123.696C243.204 124.364 217.426 145.016 188.1 161.328C175.618 168.27 174.482 167.734 176.464 169.95ZM174.602 165.05C210.416 144.57 231.84 127.412 241.014 120.87C242.076 120.112 242.332 119.406 241.618 118.146C229.128 96.0578 212.886 65.5758 180.72 40.6858C178.398 38.8878 180.02 39.5598 151.808 56.5178C123.596 73.4778 123.39 72.4578 123.77 73.9798C129.888 98.5338 138.794 120.39 163.096 152.516C173.382 166.116 172.714 166.124 174.6 165.046L174.602 165.05ZM172.464 210.822C173.122 211.738 173.798 212.006 174.922 211.594C178.732 210.202 178.82 210.202 176.788 206.68C170.466 195.73 165.052 184.314 159.338 173.048C158.732 171.854 158.75 170.874 159.39 169.64C160.564 167.382 161.072 164.674 162.586 162.72C165.588 158.844 160.188 158.066 146.228 135.792C146.14 135.652 145.96 135.568 145.58 135.268C138.696 164.304 138.974 163.976 138.828 164.348C138.45 165.318 139.074 164.244 172.464 210.822Z" fill="#52897B"/>
<path d="M170.572 67.5937C158.302 68.2737 148.914 78.1657 149.35 90.5257C149.768 102.374 160.502 112.054 172.976 111.372C184.752 110.728 194.074 101.012 193.554 88.5957C193.072 77.0997 182.83 66.9157 170.574 67.5957L170.572 67.5937ZM153.234 89.6417C152.67 80.7877 160.542 70.5737 172.214 71.1017C196.5 72.2017 194.978 108.458 170.668 107.99C160.466 107.794 152.712 98.1997 153.234 89.6417Z" fill="#52897B"/>
<path d="M171.416 103.14C178.596 103.464 185.44 97.2398 185.436 89.1598C185.432 81.4418 178.684 74.7658 170.972 75.0058C152.268 75.5898 152.444 103.316 171.416 103.14ZM171.076 100.98C155.736 100.962 155.664 77.7858 171 77.4198C186.704 77.0458 186.784 100.994 171.076 100.98Z" fill="#52897B"/>
</svg>
