<svg width="560" height="400" viewBox="0 0 560 400" fill="none" xmlns="http://www.w3.org/2000/svg">
<rect width="560" height="400" fill="white"/>
<path d="M470.244 284.312C471.478 266.832 471.518 176.262 471.754 107.944C470.218 92.9041 460.196 79.9701 442.76 76.8101C436.628 75.6981 322.768 73.5501 307.654 73.4501C229.076 72.9301 151.348 75.0301 121.09 76.4501C103.368 77.2841 89.6802 90.8861 88.2422 108.016C87.8862 112.25 88.1042 283.962 88.2082 288.03C88.5982 303.362 100.52 318.088 117.784 320.514C226.388 328.132 326.444 329.098 438.528 320.308C445.814 319.736 451.912 317.838 457.946 313.132C466.272 306.638 470.838 296.114 470.254 287.672C470.136 285.956 469.968 286.064 469.652 288.722C468.074 301.984 458.944 313.596 444.836 316.976C443.172 317.374 441.476 317.558 439.774 317.736C384.328 320.562 336.618 323.266 271.96 322.778C264.244 322.72 220.59 323.022 158.854 319.466C151.138 319.022 120.198 317.008 119.224 316.878C117.39 316.632 115.03 316.232 113.28 315.632C103.96 312.432 96.8242 305.668 93.6842 296.648C92.0042 291.824 91.9222 288.968 91.9282 283.67C92.1002 107.392 91.6622 110.078 92.3102 106.218C94.9862 90.2941 108.116 80.7881 121.184 80.2801C207.398 76.9303 293.696 76.31 379.948 78.4201C381.762 78.4621 438.792 80.2321 439.776 80.3341C452.512 81.6441 462.382 89.7641 466.218 100.214C467.45 103.574 467.866 105.874 468.094 109.68L469.246 275.81C469.482 284.636 469.86 289.7 470.24 284.312H470.244Z" fill="#52897B"/>
<path d="M453.186 269.46C454.248 256.422 454.56 197.254 454.8 131.106C454.852 116.754 442.824 104.038 424.69 103.064C314.794 97.1683 232.608 100.168 137.31 103.07C122.036 103.534 108.326 113.402 106.686 128.448C106.57 276.624 106.252 272.648 107.144 276.642C109.664 287.91 119.004 295.744 130.498 298.39C138.932 300.332 250.728 306.61 367.798 301.936C380.628 301.424 417.85 298.994 423.762 298.668C438.292 297.868 448.106 290.21 451.778 280.69C453.2 277.002 453.324 273.852 453.196 272.368C453.068 270.884 452.904 270.978 452.596 273.268C451.552 280.996 446.482 288.448 438.228 292.71C431.852 296.002 426.646 296.012 420.242 296.358C380.272 298.526 323.036 300.148 279.554 299.974C213.998 299.712 182.966 298.136 133.304 295.072C130.11 294.46 131.296 294.832 128.028 293.808C120.824 291.55 114.764 286.208 112.048 279.566C109.732 273.906 109.678 279.016 110.374 133.196C110.384 130.956 110.304 129.768 110.764 127.056C112.504 116.786 122.966 107.224 137.384 106.896C268.834 103.908 288.52 103.114 427.414 107.096C428.918 107.354 430.678 107.596 432.834 108.276C442.166 111.21 449.826 118.696 450.988 128.664C451.514 138.04 451.456 290.694 453.186 269.456V269.46Z" fill="#52897B"/>
<path d="M284.426 95.1161C286.277 95.1161 288.052 94.381 289.36 93.0723C290.669 91.7637 291.404 89.9888 291.404 88.1382C291.404 86.2875 290.669 84.5126 289.36 83.204C288.052 81.8953 286.277 81.1602 284.426 81.1602C282.576 81.1602 280.801 81.8953 279.492 83.204C278.183 84.5126 277.448 86.2875 277.448 88.1382C277.448 89.9888 278.183 91.7637 279.492 93.0723C280.801 94.381 282.576 95.1161 284.426 95.1161Z" fill="#52897B"/>
<path d="M284.668 295.642C286.146 292.32 286.352 265.26 286.352 261.624C286.352 256.72 285.644 114.776 285.49 112.64C285.43 111.63 285.325 110.624 285.176 109.624C284.94 108.224 284.562 107.422 284.182 108.276C282.702 111.6 282.498 138.656 282.498 142.294C282.498 147.196 283.206 289.14 283.36 291.276C283.436 292.332 283.524 293.396 283.674 294.294C283.91 295.694 284.288 296.496 284.668 295.642Z" fill="#52897B"/>
<path d="M204.402 245.684C192.504 244.398 181.652 252.578 181.652 264.926C181.652 276.016 190.644 285.008 201.734 285.008C225.972 285.008 228.564 248.294 204.402 245.684ZM196.764 257.606C196.764 256.361 197.259 255.166 198.14 254.285C199.02 253.405 200.215 252.91 201.46 252.91C202.706 252.91 203.9 253.405 204.781 254.285C205.662 255.166 206.156 256.361 206.156 257.606V263.93C206.156 265.175 205.662 266.37 204.781 267.251C203.9 268.131 202.706 268.626 201.46 268.626C200.215 268.626 199.02 268.131 198.14 267.251C197.259 266.37 196.764 265.175 196.764 263.93V257.606ZM203.614 275.958V280.078C203.614 280.542 203.43 280.987 203.102 281.315C202.774 281.644 202.328 281.828 201.864 281.828C201.4 281.828 200.955 281.644 200.627 281.315C200.299 280.987 200.114 280.542 200.114 280.078V275.982C196.908 275.46 193.196 273.214 192.962 269.934C192.884 269.064 193.528 268.552 194.204 268.716C195.018 268.918 197.204 271.408 197.614 271.482C197.844 271.714 200.034 273.112 202.5 272.81C204.966 272.65 206.812 270.906 206.922 270.746C207.532 270.13 208.188 269.566 208.996 268.934C209.782 268.332 210.766 268.502 210.83 269.484C211.048 272.464 206.832 275.386 203.614 275.958Z" fill="#52897B"/>
<path d="M369.572 245.684C357.674 244.398 346.822 252.578 346.822 264.926C346.822 276.016 355.814 285.008 366.904 285.008C391.142 285.008 393.734 248.294 369.572 245.684ZM361.934 257.606C361.934 256.361 362.429 255.166 363.31 254.285C364.19 253.405 365.385 252.91 366.63 252.91C367.876 252.91 369.07 253.405 369.951 254.285C370.832 255.166 371.326 256.361 371.326 257.606V263.93C371.326 265.175 370.832 266.37 369.951 267.251C369.07 268.131 367.876 268.626 366.63 268.626C365.385 268.626 364.19 268.131 363.31 267.251C362.429 266.37 361.934 265.175 361.934 263.93V257.606ZM368.782 275.958V280.078C368.782 280.542 368.598 280.987 368.27 281.315C367.942 281.644 367.496 281.828 367.032 281.828C366.568 281.828 366.123 281.644 365.795 281.315C365.467 280.987 365.282 280.542 365.282 280.078V275.982C362.066 275.458 358.364 273.206 358.132 269.934C358.054 269.068 358.696 268.55 359.374 268.716C360.188 268.918 362.374 271.408 362.784 271.482C363.014 271.714 365.204 273.112 367.67 272.81C370.136 272.65 371.982 270.906 372.092 270.746C372.704 270.13 373.358 269.566 374.166 268.934C374.954 268.33 375.936 268.504 376 269.484C376.214 272.46 372.042 275.38 368.782 275.958Z" fill="#52897B"/>
<path d="M378.982 211.342C379.54 206.514 373.872 181.228 374.346 181.346C374.312 181.358 374.456 181.324 374.272 181.374C375.716 181.052 375.932 181.006 376.226 180.886C380.462 179.492 383.852 175.806 385.168 171.584C387.762 163.254 382.512 156.32 375.04 158.61C375.118 158.59 375.054 158.61 375.074 158.6C377.848 130.104 364.204 118.592 345.31 121.44C339.054 122.386 333.04 126.026 328.912 132.47C325.522 137.76 323.708 144.466 322.75 150.65C320.496 165.182 322.198 186.886 324.56 193.776C329.2 207.312 345.306 213.34 359.254 204.622C360.118 203.976 361.74 202.716 362.406 201.868C364.616 199.054 363.706 199.262 360.84 201.33C357.324 203.298 359.404 202.306 355.69 203.976C342.726 208.544 331.202 202.478 327.99 192.284C327.29 190.062 327.666 191.668 327.042 188.514C326.568 186.12 325.952 178.604 325.798 176.168C324.338 152.908 326.89 125.04 350.172 124.834C369.322 124.664 373.592 142.364 370.828 161.314C370.842 162.82 371.496 163.458 372.604 163.64C372.928 163.584 373.19 163.654 373.578 163.468C375.854 162.168 378.288 161.298 380.28 162.914C383.498 165.528 382.154 172.89 377.262 176.234C374.88 177.638 374.188 177.694 371.644 177.96C368.934 177.458 370.484 180.04 370.608 181.52C371.686 186.39 378.412 216.334 378.99 211.338L378.982 211.342Z" fill="#101828"/>
<path d="M342.161 181.004C340.033 180.608 338.215 180.648 337.583 180.42C337.263 180.326 337.403 180.35 337.365 180.346C337.657 171.706 339.793 161.926 338.317 160.134C337.849 159.566 336.911 159.602 336.327 160.712C335.049 163.138 335.037 164.438 334.065 173.408C333.881 175.108 333.515 178.748 333.525 180.46C333.645 181.89 334.195 182.94 335.435 183.66C335.615 183.82 336.807 184.296 337.917 184.356C339.707 184.452 341.497 184.156 342.949 183.106C343.939 182.386 343.559 181.266 342.159 181.006L342.161 181.004Z" fill="#101828"/>
<path d="M356.019 152.092C355.905 151.992 353.949 150.794 351.775 150.492C349.613 150.192 347.537 150.602 347.323 150.742C347.019 150.942 346.775 151.221 346.619 151.55C346.299 152.184 346.825 153.32 347.285 153.668C348.629 154.682 348.849 153.878 351.199 154.264C353.215 154.596 354.007 155.616 354.983 155.576C356.939 155.496 357.655 153.24 356.021 152.094L356.019 152.092Z" fill="#101828"/>
<path d="M333.711 150.592C333.739 149.424 332.567 148.788 331.623 148.838C331.471 148.83 329.193 149.09 327.293 150.192C325.405 151.286 324.021 152.888 323.937 153.132C323.82 153.476 323.8 153.846 323.879 154.2C324.015 154.9 325.133 155.47 325.709 155.46C327.385 155.43 327.071 154.662 329.161 153.52C330.183 152.962 331.289 152.74 331.453 152.744C331.501 152.71 332.273 152.63 332.615 152.444C333.203 152.17 333.689 151.518 333.711 150.592Z" fill="#101828"/>
<path d="M348.285 169.812C349.549 169.812 350.573 168.392 350.573 166.634C350.573 164.88 349.549 163.458 348.285 163.458C347.021 163.458 345.997 164.878 345.997 166.634C345.997 168.39 347.021 169.812 348.285 169.812Z" fill="#101828"/>
<path d="M330.36 163.456C329.096 163.456 328.072 164.88 328.072 166.636C328.072 168.39 329.096 169.812 330.36 169.812C331.624 169.812 332.648 168.392 332.648 166.634C332.648 164.88 331.624 163.456 330.36 163.456Z" fill="#101828"/>
<path d="M351.6 188.294C350.642 188.404 349.84 188.628 349.16 189.06C343.412 192.086 338.296 191.538 337.304 191.772C336.27 192.016 335.35 192.516 335.446 193.576C335.558 194.826 337.59 195.424 338.846 195.422C339.102 195.422 341.746 195.358 344.418 194.84C347.088 194.32 349.682 193.156 350.042 192.944C351.53 192.064 352.712 191.518 353.19 189.856C353.444 188.97 352.458 188.194 351.6 188.294Z" fill="#101828"/>
<path d="M339.168 215.572C337.472 215.37 330.962 219.438 329.448 220.6C323.9 224.862 325.576 223.42 323.582 225.3C322.734 226.332 302.794 242.594 291.752 276.044C289.716 282.214 287.67 289.044 287.372 295.534C287.346 296.108 287.332 296.686 287.396 297.186C287.496 297.966 287.792 298.444 288.25 298.062C290.56 296.122 294.122 274.102 304.982 255.262C309.47 247.478 312.764 242.556 319.786 234.586C323.03 230.904 322.172 232.156 326.292 227.988C327.274 226.994 327.41 226.956 332.512 222.55C334.086 221.026 341.39 215.836 339.168 215.572Z" fill="#101828"/>
<path d="M451.436 235.66C451.174 234.752 449.64 233.046 448.52 231.884C432.512 216.122 406.632 208.362 385.178 206.79C384.512 206.872 383.798 206.886 383.172 207.026C382.15 207.64 382.176 208.124 381.456 211.084C381.34 211.72 381.044 212.298 380.85 212.906C377.362 224.156 362.032 233.852 355.524 228.926C350.814 225.36 346.738 218.18 345.338 216.45C341.088 211.214 347.638 231.152 356.906 233.638C352.936 236.352 339.778 245.324 335.44 247.4C335.44 247.034 335.44 247.13 335.44 247.4L335.404 247.416L335.428 247.44L335.432 247.476C335.068 247.402 335.026 247.504 334.67 247.206C334.378 246.914 334.104 246.034 334.042 245.128C333.282 237.568 342.102 216.798 339.124 218.93C337.148 220.346 333.486 229.984 332.66 232.428C331.194 236.852 329.092 244.344 331.108 248.558C331.624 249.638 332.82 250.802 334.208 251.098C337.302 251.444 337.152 251.412 361.966 234.818C367.464 237.57 388.636 248.564 394.546 249.99C395.316 250.044 396.076 250.104 396.792 249.996C398.216 249.412 398.654 247.702 398.71 246.156C398.812 245.596 398.664 241.812 397.948 237.696C396.242 227.03 393.152 216.912 392.006 214.618C391.534 213.674 391.022 213.196 390.806 213.894C389.904 216.786 395.088 238.946 394.856 246.08C388.514 244.022 372.21 235.74 366.212 232.68C372.552 230.342 378.402 225.642 382.48 218.576C383.14 217.196 383.9 215.858 384.36 214.392C384.602 213.668 384.922 212.966 385.098 212.222C385.532 210.392 385.428 210.628 385.634 210.642C399.744 211.644 416.49 215.998 430.9 223.6C436.794 226.604 442.988 230.996 444.494 231.934C446.024 232.89 448.588 234.982 450.036 235.752C450.938 236.232 451.632 236.338 451.436 235.66ZM335.468 248.466C335.438 249.274 335.446 248.924 335.442 247.586C335.464 247.856 335.478 248.178 335.468 248.466Z" fill="#101828"/>
<path d="M335.406 247.412C335.366 247.432 335.372 247.428 335.406 247.412V247.412Z" fill="#101828"/>
<path d="M212.352 186.264C212.77 186.608 213.35 186.578 213.728 186.51C214.484 186.37 215.227 186.164 215.946 185.894C216.384 185.728 216.781 185.47 217.111 185.139C217.441 184.808 217.698 184.41 217.863 183.972C218.027 183.534 218.097 183.066 218.068 182.6C218.038 182.133 217.909 181.677 217.69 181.264C217.028 179.944 215.118 176.278 213.184 172.532C212.246 162.156 212.29 161.804 211.768 160.428C210.752 157.756 209.466 158.68 209.118 159.932C208.302 162.864 208.708 164.522 209.44 173.594C213.684 181.88 213.346 181.246 214.184 182.758C214.142 182.838 214.38 182.746 213.878 183.112C213.578 183.358 213.292 183.622 213.022 183.906C212.298 184.672 211.536 185.592 212.35 186.262L212.352 186.264Z" fill="#101828"/>
<path d="M206.654 203.436C203.012 201.948 202.224 198.13 201.98 194.258C201.98 194.258 201.968 194.19 202 194.218C206.338 196.598 212.582 197.068 216.286 196.226C217.668 195.912 220.554 194.808 219.604 193.65C218.266 192.018 210.536 193.866 205.314 191.596C204.35 191.178 205.008 191.52 203.41 190.638C201.928 189.55 202.614 189.886 200.336 189.214C199.906 189.184 198.98 189.65 198.758 190.064C197.95 190.676 198.152 193.194 198.156 194.596C198.33 197.676 198.818 200.448 200.43 202.962C201.216 204.186 202.7 205.27 203.654 205.608C204.274 205.746 204.888 205.978 205.486 205.9C206.052 205.866 206.602 205.846 207.084 205.626C208.696 205.026 208.06 203.82 206.654 203.436Z" fill="#101828"/>
<path d="M201.39 164.966C200.178 164.966 199.194 166.416 199.194 168.202C199.194 169.988 200.178 171.438 201.39 171.438C202.602 171.438 203.586 169.988 203.586 168.202C203.586 166.416 202.602 164.966 201.39 164.966Z" fill="#101828"/>
<path d="M218.846 163.232C217.634 163.232 216.65 164.682 216.65 166.472C216.65 168.258 217.634 169.706 218.846 169.706C220.058 169.706 221.042 168.256 221.042 166.47C221.042 164.684 220.058 163.232 218.846 163.232Z" fill="#101828"/>
<path d="M199.236 162.01C199.288 161.924 200.038 160.734 200.95 159.886C201.88 159.022 202.846 158.756 202.916 158.676C204.478 156.896 203.248 154.698 201.338 155.326C201.174 155.352 199.56 155.992 198.418 157.032C197.639 157.756 196.936 158.558 196.32 159.426C196.056 160.01 195.584 160.42 195.768 161.238C196.116 162.782 198.442 163.134 199.238 162.012L199.236 162.01Z" fill="#101828"/>
<path d="M215.154 157.868C218.608 157.986 219.576 159.404 219.856 159.466C220.392 159.582 221.376 159.356 221.882 159.142C222.982 158.58 222.706 157.096 222.016 156.46C221.912 156.33 220.57 155.23 219.108 154.736C218 154.362 215.12 153.588 214.144 154.46C212.962 155.518 213.788 157.718 215.154 157.868Z" fill="#101828"/>
<path d="M227.452 166.57C226.072 161.044 224.804 156.838 222.872 153.106C225.716 153.066 227.746 152.882 228.284 152.48C230.752 150.63 225.32 115.14 187.054 127.856C187.054 127.856 173.182 132.596 169.482 142.77C169.482 142.77 159.424 143.48 156.304 155.9C153.182 168.318 166.592 200.688 154.224 207.276C146.94 211.156 155.81 215.814 166.152 216.928C164.098 217.496 157.788 220.28 156.244 221.19L149.924 224.848C145.082 228.202 138.762 232.714 133.618 238.532C126.576 246.104 120.284 255.752 116.386 266.238C115.788 267.88 114.704 272.264 114.84 274.008C114.9 274.72 115.2 275.166 115.656 274.854C117.81 273.438 123.124 254.696 136.642 240.896C141.46 235.978 139.732 237.688 142.898 234.95C149.174 229.524 152.57 227.76 156.548 225.462C156.904 225.014 164.428 221.366 167.584 220.014C180.87 214.316 177.626 217.202 181.966 214.916C182.292 216.104 182.956 218.184 183.662 220.078C186.528 227.598 191.034 235.244 199.13 235.204C202.6 235.274 205.024 234.11 205.55 233.812L206.636 233.242C207.164 232.85 207.946 232.412 208.616 231.78C212.908 228.264 214.86 221.9 212.9 222.32C211.54 222.582 210.328 225.468 206.118 228.894C205.884 229.052 204.192 230.7 201.198 231.208C200.468 231.404 199.634 231.336 198.772 231.346C196.906 231.08 194.642 231.032 191.654 227.166C188.486 223.064 186.424 217.126 185.036 212.108C185.296 209.818 186.234 200.326 184.514 195.368L183.012 192.94C183.012 192.94 168.908 191.438 172.492 178.026C173.494 175.192 176.906 173.468 180.08 174.61C182.594 175.514 186.464 176.748 187.752 176.292C189.718 175.598 192.03 151.552 192.03 151.552C192.03 151.552 209.148 152.958 219.906 153.1C221.472 159.912 230.794 185.05 223.784 200.066C222.034 203.696 219.524 206.524 215.916 208.318C214.984 208.86 213.842 209.188 212.862 209.632C211.947 209.867 211.038 210.124 210.134 210.4C204.16 211.696 204.256 211.516 203.508 211.83C202.926 212.074 202.57 212.458 202.922 212.832C203.392 213.334 204.76 213.582 205.73 213.7C213.514 214.434 220.628 211.742 225.446 204.906C232.432 194.994 230.364 178.34 227.456 166.568L227.452 166.57Z" fill="#101828"/>
<path d="M277.274 292.19C278.12 290.498 276.038 279.858 275.272 277.322C273.462 271.322 271.786 266.478 269.814 262.108C266.802 255.436 270.238 261.892 263.156 248.856C259.434 243.34 258.622 242.096 257.442 240.6C251.828 233.474 244.952 227.302 238.894 223.552C237.436 222.52 235.922 221.814 234.598 221.104C231.006 219.178 226.912 217.554 223.044 216.9C221.732 216.678 219.068 216.308 217.658 216.528C216.838 216.656 216.38 217.024 216.822 217.436C217.398 217.972 219.006 218.5 220.134 218.87C226.528 220.972 236.306 225.578 241.462 229.902C242.462 230.74 243.574 231.592 244.714 232.524C245.854 233.456 246.872 234.642 248.048 235.722C250.406 237.892 252.488 240.602 254.666 243.228C255.756 244.542 256.638 246.03 257.58 247.436C258.524 248.844 259.536 250.182 260.302 251.628C261.832 254.518 263.368 257.204 264.584 259.646C269.824 272.094 267.17 264.998 272.06 279.412C272.686 281.26 276.06 294.616 277.272 292.188L277.274 292.19Z" fill="#101828"/>
</svg>
