<svg width="48" height="48" viewBox="0 0 48 48" fill="none" xmlns="http://www.w3.org/2000/svg">
<path d="M0 24C0 10.7452 10.7452 0 24 0C37.2548 0 48 10.7452 48 24C48 37.2548 37.2548 48 24 48C10.7452 48 0 37.2548 0 24Z" fill="#DBE7E4"/>
<path d="M19 20.5H24M19 24H27M21.6837 30H28.2C29.8802 30 30.7202 30 31.362 29.673C31.9265 29.3854 32.3854 28.9265 32.673 28.362C33 27.7202 33 26.8802 33 25.2V19.8C33 18.1198 33 17.2798 32.673 16.638C32.3854 16.0735 31.9265 15.6146 31.362 15.327C30.7202 15 29.8802 15 28.2 15H19.8C18.1198 15 17.2798 15 16.638 15.327C16.0735 15.6146 15.6146 16.0735 15.327 16.638C15 17.2798 15 18.1198 15 19.8V32.3355C15 32.8684 15 33.1348 15.1092 33.2716C15.2042 33.3906 15.3483 33.4599 15.5005 33.4597C15.6756 33.4595 15.8837 33.2931 16.2998 32.9602L18.6852 31.0518C19.1725 30.662 19.4162 30.4671 19.6875 30.3285C19.9282 30.2055 20.1844 30.1156 20.4492 30.0613C20.7477 30 21.0597 30 21.6837 30Z" stroke="#52897B" stroke-width="2" stroke-linecap="round" stroke-linejoin="round"/>
</svg>
