<svg width="48" height="48" viewBox="0 0 48 48" fill="none" xmlns="http://www.w3.org/2000/svg">
<path d="M0 24C0 10.7452 10.7452 0 24 0C37.2548 0 48 10.7452 48 24C48 37.2548 37.2548 48 24 48C10.7452 48 0 37.2548 0 24Z" fill="#DBE7E4"/>
<path d="M34 20.9314C34 20.3256 34 20.0226 33.8802 19.8824C33.7763 19.7607 33.6203 19.6961 33.4608 19.7086C33.2769 19.7231 33.0627 19.9373 32.6343 20.3657L29 24L32.6343 27.6343C33.0627 28.0627 33.2769 28.2769 33.4608 28.2914C33.6203 28.3039 33.7763 28.2393 33.8802 28.1176C34 27.9774 34 27.6744 34 27.0686V20.9314Z" stroke="#52897B" stroke-width="2" stroke-linecap="round" stroke-linejoin="round"/>
<path d="M14 21.8C14 20.1198 14 19.2798 14.327 18.638C14.6146 18.0735 15.0735 17.6146 15.638 17.327C16.2798 17 17.1198 17 18.8 17H24.2C25.8802 17 26.7202 17 27.362 17.327C27.9265 17.6146 28.3854 18.0735 28.673 18.638C29 19.2798 29 20.1198 29 21.8V26.2C29 27.8802 29 28.7202 28.673 29.362C28.3854 29.9265 27.9265 30.3854 27.362 30.673C26.7202 31 25.8802 31 24.2 31H18.8C17.1198 31 16.2798 31 15.638 30.673C15.0735 30.3854 14.6146 29.9265 14.327 29.362C14 28.7202 14 27.8802 14 26.2V21.8Z" stroke="#52897B" stroke-width="2" stroke-linecap="round" stroke-linejoin="round"/>
</svg>
