<svg width="48" height="48" viewBox="0 0 48 48" fill="none" xmlns="http://www.w3.org/2000/svg">
<path d="M0 24C0 10.7452 10.7452 0 24 0C37.2548 0 48 10.7452 48 24C48 37.2548 37.2548 48 24 48C10.7452 48 0 37.2548 0 24Z" fill="#DBE7E4"/>
<path d="M20.5 24.5C20.5 24.5 21.8125 26 24 26C26.1875 26 27.5 24.5 27.5 24.5M26.75 19.5H26.76M21.25 19.5H21.26M19 30V32.3355C19 32.8684 19 33.1348 19.1092 33.2716C19.2042 33.3906 19.3483 33.4599 19.5005 33.4597C19.6756 33.4595 19.8837 33.2931 20.2998 32.9602L22.6852 31.0518C23.1725 30.662 23.4162 30.4671 23.6875 30.3285C23.9282 30.2055 24.1844 30.1156 24.4492 30.0613C24.7477 30 25.0597 30 25.6837 30H28.2C29.8802 30 30.7202 30 31.362 29.673C31.9265 29.3854 32.3854 28.9265 32.673 28.362C33 27.7202 33 26.8802 33 25.2V19.8C33 18.1198 33 17.2798 32.673 16.638C32.3854 16.0735 31.9265 15.6146 31.362 15.327C30.7202 15 29.8802 15 28.2 15H19.8C18.1198 15 17.2798 15 16.638 15.327C16.0735 15.6146 15.6146 16.0735 15.327 16.638C15 17.2798 15 18.1198 15 19.8V26C15 26.93 15 27.395 15.1022 27.7765C15.3796 28.8117 16.1883 29.6204 17.2235 29.8978C17.605 30 18.07 30 19 30ZM27.25 19.5C27.25 19.7761 27.0261 20 26.75 20C26.4739 20 26.25 19.7761 26.25 19.5C26.25 19.2239 26.4739 19 26.75 19C27.0261 19 27.25 19.2239 27.25 19.5ZM21.75 19.5C21.75 19.7761 21.5261 20 21.25 20C20.9739 20 20.75 19.7761 20.75 19.5C20.75 19.2239 20.9739 19 21.25 19C21.5261 19 21.75 19.2239 21.75 19.5Z" stroke="#52897B" stroke-width="2" stroke-linecap="round" stroke-linejoin="round"/>
</svg>
