<svg width="48" height="48" viewBox="0 0 48 48" fill="none" xmlns="http://www.w3.org/2000/svg">
<path d="M0 24C0 10.7452 10.7452 0 24 0C37.2548 0 48 10.7452 48 24C48 37.2548 37.2548 48 24 48C10.7452 48 0 37.2548 0 24Z" fill="#DBE7E4"/>
<path d="M19.5718 33C20.9066 32.3598 22.41 32 24 32C25.59 32 27.0934 32.3598 28.4282 33M18.8 29H29.2C30.8802 29 31.7202 29 32.362 28.673C32.9265 28.3854 33.3854 27.9265 33.673 27.362C34 26.7202 34 25.8802 34 24.2V19.8C34 18.1198 34 17.2798 33.673 16.638C33.3854 16.0735 32.9265 15.6146 32.362 15.327C31.7202 15 30.8802 15 29.2 15H18.8C17.1198 15 16.2798 15 15.638 15.327C15.0735 15.6146 14.6146 16.0735 14.327 16.638C14 17.2798 14 18.1198 14 19.8V24.2C14 25.8802 14 26.7202 14.327 27.362C14.6146 27.9265 15.0735 28.3854 15.638 28.673C16.2798 29 17.1198 29 18.8 29Z" stroke="#52897B" stroke-width="2" stroke-linecap="round" stroke-linejoin="round"/>
</svg>
