<svg width="48" height="48" viewBox="0 0 48 48" fill="none" xmlns="http://www.w3.org/2000/svg">
<path d="M0 24C0 10.7452 10.7452 0 24 0C37.2548 0 48 10.7452 48 24C48 37.2548 37.2548 48 24 48C10.7452 48 0 37.2548 0 24Z" fill="#DBE7E4"/>
<path d="M24.9998 26L21.9998 23M27.0102 15.5V14M30.9495 17.0607L32.0102 16M30.9495 25L32.0102 26.0607M23.0102 17.0607L21.9495 16M32.5102 21H34.0102M18.1312 32.8686L27.3685 23.6314C27.7645 23.2354 27.9625 23.0373 28.0367 22.809C28.1019 22.6082 28.1019 22.3918 28.0367 22.191C27.9625 21.9627 27.7645 21.7646 27.3685 21.3686L26.6312 20.6314C26.2352 20.2354 26.0372 20.0373 25.8089 19.9632C25.608 19.8979 25.3917 19.8979 25.1908 19.9632C24.9625 20.0373 24.7645 20.2354 24.3685 20.6314L15.1312 29.8686C14.7352 30.2646 14.5372 30.4627 14.463 30.691C14.3977 30.8918 14.3977 31.1082 14.463 31.309C14.5372 31.5373 14.7352 31.7354 15.1312 32.1314L15.8685 32.8686C16.2645 33.2646 16.4625 33.4627 16.6908 33.5368C16.8917 33.6021 17.108 33.6021 17.3089 33.5368C17.5372 33.4627 17.7352 33.2646 18.1312 32.8686Z" stroke="#52897B" stroke-width="2" stroke-linecap="round" stroke-linejoin="round"/>
</svg>
