<svg width="560" height="400" viewBox="0 0 560 400" fill="none" xmlns="http://www.w3.org/2000/svg">
<rect width="560" height="400" fill="white"/>
<path d="M336.274 119.324C335.78 119.324 335.042 118.83 334.55 118.83H260.668C253.772 118.83 246.586 124.728 244.414 132.376C199.686 289.822 204.024 276.386 204.024 280.14C202.058 287.34 211.968 298.23 219.048 300.088C290.934 318.956 288.202 317.328 289.974 317.328C293.507 317.199 296.904 315.93 299.656 313.711C302.409 311.491 304.368 308.44 305.242 305.014L351.788 142.966C354.686 133.8 345.252 119.324 336.274 119.324ZM260.422 122.772H334.304C339.452 122.772 344.252 127.85 342.184 135.084L295.638 296.884C293.668 303.534 287.264 307.72 281.354 306.242L213.63 289.496C208.63 288.248 207.03 282.338 208.212 277.182L247.862 133.854C249.586 127.45 255.25 122.772 260.422 122.772Z" fill="#101828"/>
<path d="M317.31 140.75L264.362 139.026C257.22 138.778 250.078 144.936 247.862 152.816L218.554 258.714C216.386 266.088 219.374 273.94 226.928 275.714C282.106 288.618 277.022 286.798 279.63 286.798C283.215 286.623 286.651 285.311 289.44 283.053C292.23 280.795 294.228 277.707 295.146 274.238L328.638 157.75C331.236 148.39 325.788 141.278 317.31 140.75ZM324.698 156.51L291.2 273C289.23 279.65 283.072 283.836 277.162 282.6L227.42 271.766C222.136 270.446 220.528 264.78 221.756 259.452L251.062 153.556C252.786 147.398 258.45 142.472 263.622 142.472L316.822 144.196C322.874 144.2 326.54 150.528 324.698 156.51Z" fill="#101828"/>
<path d="M296.132 131.39C296.624 129.42 295.638 127.696 293.668 127.696C292.637 127.774 291.656 128.172 290.861 128.834C290.067 129.496 289.499 130.39 289.236 131.39C288.742 133.36 289.728 135.084 291.452 135.084C292.524 135.048 293.557 134.671 294.399 134.006C295.241 133.341 295.848 132.425 296.132 131.39Z" fill="#101828"/>
<path d="M248.846 287.036C239.976 285.09 240.226 286.05 239.98 287.282C239.734 288.514 239.016 289.164 247.616 291.222C256.502 293.348 256.234 292.208 256.728 291.222C256.974 290 257.952 289.032 248.846 287.036Z" fill="#101828"/>
<path d="M123.246 306.244V284.08C123.229 283.825 123.119 283.584 122.938 283.403C122.758 283.222 122.517 283.113 122.262 283.096H116.6C116.308 283.098 116.018 283.042 115.748 282.932C115.478 282.821 115.233 282.658 115.026 282.452C114.82 282.245 114.656 282 114.546 281.729C114.435 281.459 114.38 281.17 114.382 280.878V274.722C114.38 274.43 114.436 274.141 114.546 273.871C114.657 273.601 114.821 273.356 115.027 273.149C115.233 272.943 115.479 272.78 115.749 272.67C116.019 272.559 116.308 272.503 116.6 272.506H122.51C122.702 272.494 122.883 272.412 123.019 272.276C123.155 272.139 123.237 271.958 123.248 271.766C123.002 268.566 121.992 257.434 128.666 254.034C133.046 251.993 137.96 251.39 142.704 252.31C143.236 252.4 143.721 252.669 144.079 253.072C144.438 253.475 144.647 253.989 144.674 254.528V259.452C144.667 259.762 144.597 260.068 144.468 260.35C144.339 260.633 144.153 260.885 143.922 261.093C143.692 261.301 143.421 261.459 143.127 261.558C142.833 261.658 142.521 261.696 142.212 261.67C139.996 261.424 136.548 261.67 135.316 263.146C133.346 265.116 134.086 270.536 134.332 272.506C134.332 272.752 134.578 272.998 135.07 272.998L142.212 273.244C142.824 273.298 143.393 273.582 143.804 274.039C144.216 274.496 144.438 275.091 144.428 275.706L143.444 281.618C143.354 282.15 143.085 282.635 142.681 282.993C142.278 283.351 141.765 283.561 141.226 283.588H135.314C135.059 283.605 134.818 283.714 134.637 283.895C134.456 284.076 134.347 284.317 134.33 284.572V306.492C134.332 306.784 134.276 307.073 134.165 307.343C134.055 307.613 133.891 307.858 133.685 308.064C133.478 308.27 133.233 308.434 132.963 308.544C132.693 308.655 132.404 308.71 132.112 308.708H125.956C124.232 308.462 123.246 307.476 123.246 306.244Z" fill="#52897B"/>
<path d="M204.518 65.144C204.518 64.404 200.33 66.868 196.144 68.59C193.682 66.128 188.264 60.956 180.628 64.896C172.992 68.836 172.256 75.98 172.502 81.896C160.188 79.68 154.702 77.278 150.09 71.552C145.584 65.952 145.658 66.134 144.672 67.858C141.175 75.6321 140.823 84.4577 143.688 92.486C148.12 105.784 155.508 108.986 159.942 110.464C155.271 113.774 149.858 115.888 144.18 116.62C141.964 116.62 141.248 117.31 145.904 119.576C150.36 121.744 168.504 128.864 183.092 116.128C197.56 103.498 200.092 83.866 198.36 76.478C198.6 76.472 204.764 68.838 204.518 65.144Z" fill="#52897B"/>
<path d="M406.462 289.006C406.462 293.252 408.148 297.323 411.151 300.325C414.153 303.328 418.224 305.014 422.47 305.014C426.715 305.014 430.787 303.328 433.789 300.325C436.791 297.323 438.478 293.252 438.478 289.006C438.478 284.76 436.791 280.689 433.789 277.687C430.787 274.685 426.715 272.998 422.47 272.998C418.224 272.998 414.153 274.685 411.151 277.687C408.148 280.689 406.462 284.76 406.462 289.006Z" fill="#52897B"/>
<path d="M437.984 241.474H406.954C402.725 241.382 398.52 242.148 394.594 243.724C390.669 245.301 387.103 247.656 384.111 250.647C381.12 253.639 378.765 257.205 377.188 261.131C375.612 265.056 374.846 269.261 374.938 273.49V304.52C374.93 308.727 375.752 312.894 377.358 316.782C378.964 320.67 381.322 324.203 384.296 327.178C387.271 330.152 390.804 332.51 394.692 334.116C398.58 335.722 402.747 336.545 406.954 336.536H437.984C442.191 336.545 446.358 335.722 450.246 334.116C454.134 332.51 457.667 330.152 460.642 327.178C463.616 324.203 465.974 320.67 467.58 316.782C469.186 312.894 470.008 308.727 470 304.52V273.49C469.934 265.02 466.539 256.915 460.549 250.925C454.56 244.935 446.455 241.541 437.984 241.474ZM422.47 310.186C418.281 310.187 414.186 308.945 410.703 306.618C407.219 304.291 404.504 300.983 402.901 297.113C401.297 293.243 400.878 288.984 401.695 284.875C402.512 280.767 404.529 276.993 407.491 274.03C410.453 271.068 414.227 269.051 418.335 268.233C422.444 267.416 426.703 267.835 430.573 269.438C434.443 271.041 437.751 273.756 440.078 277.239C442.406 280.722 443.648 284.817 443.648 289.006C443.648 291.787 443.101 294.542 442.037 297.111C440.972 299.681 439.412 302.016 437.446 303.983C435.479 305.949 433.145 307.509 430.575 308.574C428.005 309.638 425.251 310.186 422.47 310.186ZM447.59 269.058C446.129 269.058 444.7 268.625 443.485 267.813C442.271 267.001 441.324 265.847 440.764 264.497C440.205 263.147 440.059 261.662 440.344 260.229C440.629 258.796 441.333 257.479 442.366 256.446C443.399 255.413 444.716 254.709 446.149 254.424C447.582 254.139 449.067 254.285 450.417 254.845C451.767 255.404 452.921 256.351 453.733 257.566C454.545 258.781 454.978 260.209 454.978 261.67C454.89 263.599 454.084 265.426 452.719 266.793C451.355 268.159 449.529 268.967 447.6 269.058H447.59Z" fill="#52897B"/>
<path d="M408.678 187.788C419.633 187.773 430.238 183.93 438.659 176.923C447.079 169.916 452.787 160.187 454.793 149.418C456.8 138.648 454.979 127.516 449.646 117.947C444.314 108.378 435.804 100.974 425.59 97.0148C415.376 93.0558 404.099 92.7911 393.711 96.2667C383.322 99.7422 374.475 106.739 368.699 116.048C362.923 125.356 360.583 136.39 362.082 147.242C363.581 158.093 368.825 168.08 376.908 175.474C376.17 176.458 375.678 177.69 374.938 178.674C372.781 182.138 370.887 185.761 369.274 189.51C368.508 191.222 369.994 192.924 371.738 191.972C377.338 188.908 383.066 186.062 388.738 183.106C394.904 186.269 401.749 187.876 408.678 187.788ZM382.818 125.726C384.232 121.028 388 115.818 393.418 116.614C400.804 117.7 405.054 130.452 398.098 138.04C398.59 139.026 410.166 148.876 413.12 150.108C413.797 149.457 414.541 148.879 415.338 148.384C427.188 139.494 437.69 148.596 434.792 156.51C432.812 161.924 427.158 163.898 421.992 164.392C401.91 166.302 376.732 145.972 382.818 125.726Z" fill="#52897B"/>
<path d="M189.494 117.354C201.818 133.08 245.9 184 252.54 191.974C254.14 193.896 256.86 197.796 258.94 196.406C261.14 194.938 258.09 191.864 256.23 190.006C255 188.774 254.014 187.296 252.782 186.066C250.518 183.634 248.382 181.086 246.382 178.432C241.948 173.26 197.126 121.296 191.956 115.632C190.48 114.644 188.522 116.112 189.494 117.354Z" fill="#52897B"/>
<path d="M159.45 263.886C168.78 262.392 174.264 260.95 196.636 256.252C209.218 253.61 241.236 245.21 253.772 241.476C254.015 241.411 254.242 241.299 254.441 241.147C254.641 240.994 254.808 240.803 254.934 240.586C255.06 240.369 255.142 240.129 255.175 239.88C255.208 239.631 255.192 239.378 255.127 239.135C255.062 238.892 254.95 238.665 254.797 238.465C254.645 238.266 254.454 238.098 254.237 237.973C254.02 237.847 253.78 237.765 253.531 237.732C253.282 237.699 253.029 237.715 252.786 237.78C220.538 247.224 188.568 254.508 158.71 260.684C158.335 260.838 158.029 261.122 157.848 261.484C157.667 261.847 157.624 262.262 157.726 262.654C157.704 262.868 157.739 263.084 157.828 263.28C157.916 263.476 158.055 263.645 158.23 263.77C158.405 263.896 158.61 263.972 158.824 263.992C159.039 264.013 159.254 263.976 159.45 263.886Z" fill="#52897B"/>
<path d="M294.4 177.69C315.538 176.3 336.585 173.752 357.444 170.056C357.89 169.909 358.264 169.599 358.492 169.189C358.72 168.778 358.786 168.297 358.676 167.84C358.615 167.612 358.509 167.397 358.363 167.211C358.218 167.024 358.036 166.869 357.829 166.754C357.623 166.639 357.395 166.567 357.159 166.542C356.924 166.517 356.686 166.539 356.46 166.608C340.46 169.316 324.214 171.674 308.19 173.504C303.516 174.038 299.078 174.734 294.39 175.228C294.226 175.218 294.061 175.243 293.907 175.301C293.753 175.359 293.613 175.449 293.497 175.566C293.38 175.682 293.29 175.822 293.231 175.975C293.173 176.129 293.148 176.294 293.158 176.458C292.93 176.952 293.668 177.69 294.4 177.69Z" fill="#52897B"/>
<path d="M285.542 227.2C295.476 234.8 357.6 279.056 363.364 283.106C363.82 283.354 364.356 283.413 364.855 283.271C365.355 283.129 365.779 282.797 366.036 282.346C366.294 281.895 366.365 281.361 366.234 280.859C366.102 280.356 365.779 279.925 365.334 279.658C354.754 271.818 305.892 236.448 286.772 224.738C285.548 223.978 284.288 226.232 285.542 227.2Z" fill="#52897B"/>
<path d="M90 134.346C90 136.371 90.7006 138.312 91.9477 139.744C93.1949 141.176 94.8863 141.98 96.65 141.98C98.4137 141.98 100.105 141.176 101.352 139.744C102.599 138.312 103.3 136.371 103.3 134.346C103.3 132.321 102.599 130.38 101.352 128.948C100.105 127.516 98.4137 126.712 96.65 126.712C94.8863 126.712 93.1949 127.516 91.9477 128.948C90.7006 130.38 90 132.321 90 134.346Z" fill="#52897B"/>
<path d="M91.2319 147.892H103.052V189.512H91.2319V147.892Z" fill="#52897B"/>
<path d="M135.8 147.152C133.028 146.517 130.121 146.887 127.596 148.195C125.071 149.503 123.091 151.664 122.01 154.294V148.138H110.2V189.758H122.022V168.824C122.022 158.974 126.7 157.988 128.918 157.988C129.867 157.946 130.815 158.101 131.701 158.445C132.586 158.789 133.391 159.314 134.062 159.986C134.734 160.658 135.259 161.462 135.603 162.348C135.947 163.233 136.103 164.181 136.06 165.13V189.758H147.634V161.682C147.382 157 146.154 148.856 135.8 147.152Z" fill="#52897B"/>
<path d="M168.314 178.674C209.296 196.25 171.216 179.996 240.474 208.966C245.154 210.924 254.036 214.04 255.988 214.878C257.703 215.708 259.527 216.288 261.406 216.602C261.785 216.707 262.189 216.669 262.542 216.497C262.895 216.325 263.174 216.03 263.325 215.667C263.476 215.304 263.49 214.899 263.363 214.527C263.237 214.155 262.979 213.842 262.638 213.646C259.687 212.213 256.642 210.978 253.526 209.952C250.53 208.696 247.491 207.546 244.414 206.504C238.256 204.042 176.2 179.168 169.546 176.212C168.068 175.966 167.096 178.152 168.314 178.674Z" fill="#52897B"/>
</svg>
