<svg width="28" height="29" viewBox="0 0 28 29" fill="none" xmlns="http://www.w3.org/2000/svg">
<g id="Icon/credit-card">
<g id="Icon">
<path id="Path" fill-rule="evenodd" clip-rule="evenodd" d="M25.6663 4.76868C24.4997 5.34035 23.3563 5.57251 22.1663 5.92368C20.8585 4.44785 18.9195 4.36618 17.0563 5.06385C15.1932 5.76151 13.9728 7.46718 13.9997 9.42368V10.5903C10.2138 10.6872 6.84217 8.96285 4.66634 5.92368C4.66634 5.92368 -0.212659 14.5955 9.33301 18.757C7.14901 20.2118 4.97084 21.193 2.33301 21.0903C6.19234 23.1938 10.3982 23.9172 14.0393 22.8602C18.216 21.6468 21.6483 18.5167 22.9655 13.8278C23.3584 12.4018 23.5535 10.9285 23.5453 9.44935C23.543 9.15885 25.307 6.21535 25.6663 4.76751V4.76868Z" stroke="#C4C4C4" stroke-width="1.5" stroke-linecap="round" stroke-linejoin="round"/>
</g>
</g>
</svg>
