<svg width="146" height="56" viewBox="0 0 146 56" fill="none" xmlns="http://www.w3.org/2000/svg">
<g clip-path="url(#clip0_1419_18023)">
<path d="M143.847 12.8954L124.161 1.52986C122.823 0.760879 121.177 0.760879 119.847 1.52986L100.161 12.8954C98.8228 13.6644 98 15.0947 98 16.6327V39.3638C98 40.9095 98.8228 42.3321 100.161 43.1011L119.847 54.4667C121.185 55.2356 122.831 55.2356 124.161 54.4667L143.847 43.1011C145.185 42.3321 146.008 40.9018 146.008 39.3638V16.6327C146.008 15.087 145.185 13.6644 143.847 12.8954ZM101.622 41.4709C102.945 40.0482 106.613 38.8563 111.565 38.1488L111.534 20.1239L116.955 16.625V37.6029C118.44 37.5106 119.985 37.4568 121.577 37.4491V19.9086L118.047 18.0399V13.5414L123.469 8.90441V37.4645C123.699 37.4645 123.93 37.4721 124.161 37.4798V29.0056L127.644 27.2447V18.5705L132.312 22.5308V28.5904L129.636 27.0832L129.551 37.8028C130.743 37.9181 131.881 38.0566 132.958 38.2257V31.4279L134.95 32.7352V38.5718C138.618 39.2869 141.294 40.3097 142.378 41.4709C132.443 38.4103 111.565 38.4026 101.614 41.4709H101.622Z" fill="#7F56D9"/>
</g>
<path d="M76.7976 25.0156C77.8331 25.0156 78.7762 25.256 79.6268 25.7368C80.4959 26.1991 81.1801 26.8463 81.6794 27.6784C82.1972 28.5105 82.456 29.4259 82.456 30.4244C82.456 31.4414 82.1972 32.3845 81.6794 33.2536C81.1801 34.1042 80.4959 34.7884 79.6268 35.3062C78.7762 35.8054 77.8331 36.0551 76.7976 36.0551C76.0025 36.0551 75.2628 35.8979 74.5786 35.5836C73.8944 35.2692 73.3027 34.8346 72.8034 34.2799C72.4336 34.8162 71.9621 35.2415 71.3888 35.5558C70.8156 35.8517 70.1592 35.9996 69.4195 35.9996H67.783C67.5981 35.9996 67.5056 35.9072 67.5056 35.7222V33.2536C67.5056 33.0687 67.5981 32.9762 67.783 32.9762H69.4195C69.9557 32.9762 70.418 32.7913 70.8064 32.4215C71.1947 32.0332 71.3888 31.5616 71.3888 31.0069V27.8726H69.7246V25.0156H76.7976ZM76.7976 33.0317C77.5373 33.0317 78.1568 32.7821 78.656 32.2828C79.1738 31.7835 79.4327 31.1641 79.4327 30.4244C79.4327 29.7032 79.1738 29.1023 78.656 28.6215C78.1568 28.1222 77.5373 27.8726 76.7976 27.8726H74.218V30.4244C74.218 31.1641 74.4677 31.7835 74.967 32.2828C75.4662 32.7821 76.0765 33.0317 76.7976 33.0317Z" fill="#101828"/>
<path d="M57.6874 16.083L52.8056 21.2421L51.391 19.7998L56.2728 14.6406L57.6874 16.083ZM67.7838 32.975C67.9687 32.975 68.0611 33.0675 68.0611 33.2524V35.721C68.0611 35.9059 67.9687 35.9984 67.7838 35.9984H66.5356C65.7959 35.9984 65.1395 35.8504 64.5662 35.5546C63.993 35.2402 63.5215 34.8149 63.1516 34.2787C62.6524 34.8149 62.0606 35.2402 61.3764 35.5546C60.7107 35.8504 59.9988 35.9984 59.2407 35.9984H50.4202C50.2353 35.9984 50.1428 35.9059 50.1428 35.721V33.2524C50.1428 33.0675 50.2353 32.975 50.4202 32.975H59.2684C59.9341 32.975 60.5073 32.7439 60.9881 32.2816C61.4689 31.8193 61.7093 31.2368 61.7093 30.5341C61.7093 29.6465 61.2747 28.9438 60.4056 28.4261L53.8874 24.1545V21.8523L59.2961 16.1384L61.2655 17.9968L56.7998 22.6567L62.2363 26.2071C62.976 26.6879 63.5492 27.3073 63.956 28.0655C64.3628 28.8236 64.5662 29.6743 64.5662 30.6173V31.0057C64.5662 31.5604 64.7604 32.0319 65.1487 32.4203C65.537 32.7901 65.9993 32.975 66.5356 32.975H67.7838Z" fill="#101828"/>
<path d="M49.0568 35.9996C48.1692 35.9996 47.3555 35.787 46.6159 35.3617C45.8762 34.9179 45.2937 34.3261 44.8684 33.5865C44.4431 32.8468 44.2305 32.0332 44.2305 31.1456V17.582H47.0874V30.9792C47.0874 31.5339 47.2816 32.0054 47.6699 32.3938C48.0582 32.7821 48.5205 32.9763 49.0568 32.9763H50.4159C50.6008 32.9763 50.6933 33.0687 50.6933 33.2536V35.7222C50.6933 35.9072 50.6008 35.9996 50.4159 35.9996H49.0568Z" fill="#101828"/>
<path d="M33.8699 35.9976C33.685 35.9976 33.5925 35.9051 33.5925 35.7202V33.2516C33.5925 33.0667 33.685 32.9742 33.8699 32.9742H36.505C37.0412 32.9742 37.5035 32.7801 37.8918 32.3917C38.2801 32.0034 38.4743 31.5319 38.4743 30.9771V25.707H41.3312V31.1435C41.3312 32.0311 41.1186 32.8448 40.6933 33.5844C40.268 34.3241 39.6855 34.9158 38.9458 35.3596C38.2062 35.7849 37.3925 35.9976 36.505 35.9976H33.8699ZM35.1181 38.5217H37.9196V41.3509H35.1181V38.5217Z" fill="#101828"/>
<path d="M23.4348 33.2515C23.4348 33.0666 23.5273 32.9741 23.7122 32.9741H25.3764C25.9127 32.9741 26.375 32.7892 26.7633 32.4194C27.1516 32.0311 27.3458 31.5595 27.3458 31.0048V26.5391H30.2027V31.0048C30.2027 31.5595 30.3969 32.0311 30.7852 32.4194C31.1735 32.7892 31.6358 32.9741 32.1721 32.9741H33.8641C34.049 32.9741 34.1414 33.0666 34.1414 33.2515V35.7201C34.1414 35.905 34.049 35.9975 33.8641 35.9975H32.1721C31.4509 35.9975 30.7945 35.8403 30.2027 35.526C29.6295 35.2116 29.158 34.7771 28.7881 34.2223C28.4183 34.7771 27.9375 35.2116 27.3458 35.526C26.7725 35.8403 26.1161 35.9975 25.3764 35.9975H23.7122C23.5273 35.9975 23.4348 35.905 23.4348 35.7201V33.2515ZM25.21 38.5493H28.0392V41.3785H25.21V38.5493ZM29.4816 38.5493H32.283V41.3785H29.4816V38.5493Z" fill="#101828"/>
<path d="M14.4212 35.9996C14.2363 35.9996 14.1438 35.9072 14.1438 35.7222V33.2536C14.1438 33.0687 14.2363 32.9763 14.4212 32.9763H15.6694C16.2056 32.9763 16.6679 32.7913 17.0562 32.4215C17.4445 32.0332 17.6387 31.5616 17.6387 31.0069V17.582H20.4956V31.0069C20.4956 31.5616 20.6898 32.0332 21.0781 32.4215C21.4665 32.7913 21.9287 32.9763 22.465 32.9763H23.7132C23.8981 32.9763 23.9906 33.0687 23.9906 33.2536V35.7222C23.9906 35.9072 23.8981 35.9996 23.7132 35.9996H22.465C21.7253 35.9996 21.0504 35.8332 20.4402 35.5004C19.8484 35.149 19.3862 34.6867 19.0533 34.1135C18.7205 34.6867 18.2582 35.149 17.6664 35.5004C17.0747 35.8332 16.409 35.9996 15.6694 35.9996H14.4212Z" fill="#101828"/>
<path d="M6.88789 32.9761C7.42414 32.9761 7.87719 32.8189 8.24702 32.5046C8.63534 32.1717 8.8295 31.7372 8.8295 31.2009C8.8295 31.053 8.77403 30.7941 8.66308 30.4243L6.13898 23.5454L8.85724 22.5469L12.1025 31.5338C12.2504 31.9776 12.5001 32.3289 12.8514 32.5878C13.2212 32.8467 13.6466 32.9761 14.1273 32.9761H14.4324C14.6174 32.9761 14.7098 33.0686 14.7098 33.2535V35.7221C14.7098 35.907 14.6174 35.9995 14.4324 35.9995H13.9886C13.212 35.9995 12.5186 35.8238 11.9083 35.4725C11.2981 35.1211 10.8451 34.6773 10.5492 34.1411C10.0869 34.7698 9.55992 35.2413 8.96819 35.5557C8.39495 35.8516 7.70152 35.9995 6.88789 35.9995H0.508301V32.9761H6.88789Z" fill="#101828"/>
<defs>
<clipPath id="clip0_1419_18023">
<rect width="48" height="54.0903" fill="white" transform="translate(98 0.953125)"/>
</clipPath>
</defs>
</svg>
