<svg width="21" height="20" viewBox="0 0 21 20" fill="none" xmlns="http://www.w3.org/2000/svg">
<g id="building-07">
<path id="Icon" d="M6.75008 9.16667H4.33341C3.8667 9.16667 3.63335 9.16667 3.45509 9.25749C3.29829 9.33739 3.1708 9.46487 3.09091 9.62167C3.00008 9.79993 3.00008 10.0333 3.00008 10.5V17.5M14.2501 9.16667H16.6667C17.1335 9.16667 17.3668 9.16667 17.5451 9.25749C17.7019 9.33739 17.8294 9.46487 17.9093 9.62167C18.0001 9.79993 18.0001 10.0333 18.0001 10.5V17.5M14.2501 17.5V5.16667C14.2501 4.23325 14.2501 3.76654 14.0684 3.41002C13.9086 3.09641 13.6537 2.84144 13.3401 2.68166C12.9835 2.5 12.5168 2.5 11.5834 2.5H9.41675C8.48333 2.5 8.01662 2.5 7.6601 2.68166C7.34649 2.84144 7.09153 3.09641 6.93174 3.41002C6.75008 3.76654 6.75008 4.23325 6.75008 5.16667V17.5M18.8334 17.5H2.16675M9.66675 5.83333H11.3334M9.66675 9.16667H11.3334M9.66675 12.5H11.3334" stroke="#344054" stroke-width="1.66667" stroke-linecap="round" stroke-linejoin="round"/>
</g>
</svg>
