<svg width="21" height="20" viewBox="0 0 21 20" fill="none" xmlns="http://www.w3.org/2000/svg">
<g id="users-03">
<path id="Icon" d="M15.5001 13.1974C16.7134 13.8069 17.7536 14.785 18.5128 16.008C18.6632 16.2502 18.7383 16.3713 18.7643 16.539C18.8172 16.8798 18.5841 17.2988 18.2667 17.4336C18.1105 17.5 17.9348 17.5 17.5834 17.5M13.8334 9.6102C15.0682 8.99657 15.9168 7.72238 15.9168 6.25C15.9168 4.77762 15.0682 3.50343 13.8334 2.8898M12.1668 6.25C12.1668 8.32107 10.4878 10 8.41678 10C6.34571 10 4.66678 8.32107 4.66678 6.25C4.66678 4.17893 6.34571 2.5 8.41678 2.5C10.4878 2.5 12.1668 4.17893 12.1668 6.25ZM2.6328 15.782C3.96139 13.7871 6.05792 12.5 8.41677 12.5C10.7756 12.5 12.8722 13.7871 14.2008 15.782C14.4918 16.219 14.6373 16.4375 14.6206 16.7166C14.6075 16.9339 14.4651 17.2 14.2914 17.3313C14.0684 17.5 13.7616 17.5 13.1481 17.5H3.68541C3.07192 17.5 2.76517 17.5 2.54214 17.3313C2.36848 17.2 2.22601 16.9339 2.21297 16.7166C2.19622 16.4375 2.34174 16.219 2.6328 15.782Z" stroke="#344054" stroke-width="1.66667" stroke-linecap="round" stroke-linejoin="round"/>
</g>
</svg>
