<svg width="380" height="304" viewBox="0 0 380 304" fill="none" xmlns="http://www.w3.org/2000/svg">
<path d="M93.07 66.3592C91.882 70.8392 35.638 92.1392 31.234 93.5892C29 94.3232 27.806 94.7033 27.306 93.5153C25.706 89.7153 85.76 65.9832 88.152 65.0552C90.1 64.3032 92.782 64.1012 93.07 66.3592Z" fill="#EAA115"/>
<path d="M71.8 151.041C72.014 151.931 71.178 152.269 70.536 152.535C47.25 162.163 46.168 162.735 45.372 160.921C44.14 158.127 70.984 147.669 71.8 151.041Z" fill="#EAA115"/>
<path d="M57.57 116.783C57.686 117.491 57.05 117.847 56.51 118.087C48.8916 121.528 41.1013 124.576 33.17 127.219C31.522 127.619 30.17 125.971 32.22 124.861C39.474 120.913 57.058 113.641 57.57 116.783Z" fill="#EAA115"/>
<path d="M78.42 234.272C76.516 234.324 76.55 232.172 78.038 231.438C83.7448 228.48 89.5991 225.816 95.578 223.456C97.872 222.782 99.124 225.32 96.752 226.586C96.706 226.61 79.8 234.556 78.42 234.272Z" fill="#EAA115"/>
<path d="M39.4 145.589C34.448 145.255 39.66 140.493 56.688 135.935C59.616 135.151 61.014 137.217 58.26 138.309C51.612 140.949 43.144 144.895 39.4 145.589Z" fill="#EAA115"/>
<path fill-rule="evenodd" clip-rule="evenodd" d="M110.496 52.0796L111.368 54.3536C111.924 55.7996 114.21 60.5976 117.054 66.4656L115.588 72.0976C111.047 62.0273 106.536 51.9433 102.056 41.8456C70.748 55.0376 49.31 63.9396 34.664 70.0216C6.88 81.5576 3.524 82.9496 3.564 84.2416C3.58284 84.4336 3.63424 84.6209 3.716 84.7956V84.7996C19.228 124.19 21.476 130.096 24.922 139.16C28.282 148 32.786 159.84 51.848 208.666L49.228 214.386L48.694 212.926C45.368 203.874 42.184 195.2 39.792 189.092C37.7719 183.936 35.7512 178.781 33.73 173.626C1.362 91.0396 -1.702 83.2256 0.590004 81.0476C0.830004 80.8196 1.13 80.6536 1.458 80.4716L1.518 80.4376C11.072 75.1016 96.088 39.5076 101.984 37.9836C104.812 37.2556 105.444 38.9056 110.496 52.0796ZM58.214 238.474C59.181 240.99 60.1737 243.497 61.192 245.994C61.904 248.03 62.532 249.848 63.092 251.47V251.474C66.908 262.534 67.582 264.488 70.404 263.864C74.316 262.998 86.614 258.59 101.388 253.028V247.488C90.752 252.016 71.9 259.946 71.62 259.23L61.008 232.108L58.214 238.474Z" fill="#EAA115"/>
<path d="M100.312 135.125C100.478 143.725 100.578 141.937 63.354 226.763C41.464 276.645 41.12 277.362 38.27 282.942C33.552 292.164 17.94 284.617 22.17 274.743C26.37 264.931 26.042 264.178 27.954 265.505C30.938 267.57 40.086 273.169 41.514 269.835C89.054 158.775 102.754 137.679 96.084 135.893C95.084 135.623 94.284 134.349 93.258 134.805C92.388 135.189 91.858 136.285 91.068 136.909C84.75 141.855 87.118 142.011 55.668 208.431C31.054 260.405 30.668 262.508 29.036 261.692C28.13 261.238 28.186 260.538 31.502 253.263C89.424 126.129 82.584 141.973 97.942 126.541C98.584 125.895 99.266 125.123 100.272 125.637C101.172 126.093 100.964 125.8 100.312 135.125ZM25.712 272.859C24.442 275.577 22.522 277.923 25.092 280.859C25.934 281.991 27.0595 282.881 28.3552 283.439C29.6508 283.998 31.0708 284.205 32.472 284.041C35.846 283.593 36.558 280.622 37.738 278.076C33.236 277.831 28.9712 275.98 25.718 272.859H25.712ZM27.444 268.236C26.114 271.332 25.772 270.775 28.604 272.799C30.88 274.259 33.358 275.379 35.958 276.123C38.44 276.981 38.438 276.903 39.53 274.523C40.738 271.915 38.166 275.35 27.45 268.236H27.444Z" fill="#101828"/>
<path d="M91.04 149.491C91.02 149.537 43.012 255.865 37.208 265.691C36.692 266.565 35.988 266.205 36.316 265.245C39.58 255.663 76.48 177.335 88.976 150.693C90.076 148.359 91.04 148.573 91.04 149.491Z" fill="#101828"/>
<path d="M160.352 112.871C160.768 93.0372 181.352 74.9452 202.298 76.6552C225.086 78.5152 241.262 97.1192 239.954 117.605C236.432 172.821 155.884 166.715 160.352 112.871ZM198.574 118.929C196.668 130.305 198.668 137.257 195.19 136.365C193.369 135.964 191.663 135.155 190.2 133.999C186.93 131.287 185.034 126.307 183.434 127.315C182.496 127.915 182.966 129.715 183.268 130.329C188.236 140.303 194.706 139.199 196.09 140.645C197.368 141.977 194.938 145.941 197.12 146.115C198.672 146.235 198.908 144.961 199.12 141.927C199.32 138.985 205.496 141.897 210.43 134.235C215.502 126.359 212.29 121.091 203.596 117.055C201.362 116.019 201.876 116.331 203.408 100.245C203.656 97.6252 203.746 97.6452 206.228 98.6292C208.816 99.628 211.156 101.179 213.084 103.173C213.422 103.525 213.72 104.245 214.378 103.813C216.61 102.361 210.542 97.1372 207.544 96.4032C200.474 94.6692 205.846 89.3392 203.188 89.1152C202.228 89.0332 202.048 89.8472 201.65 93.5352C201.35 96.3132 195.934 92.4192 190.066 99.7732C185.666 105.281 186.866 112.533 196.012 116.623C198.442 117.703 198.762 117.799 198.574 118.929Z" fill="#EAA115"/>
<path d="M202.342 261.766C151.45 258.198 171.502 259.648 151.2 257.898C148.2 257.64 147.44 253.448 147.628 250.768C148.486 238.528 148.524 238.674 148.678 238.168C150.878 230.968 148.628 231.968 222.194 237.208C225.554 237.448 226.712 238.558 226.794 241.958C227.206 247.905 226.74 253.88 225.41 259.69C224.298 263.72 223.978 262.726 202.386 261.208L202.342 261.766ZM155.572 239.742C155.322 242.12 167.842 242.48 190.44 243.63C231.778 245.734 156.02 235.432 155.572 239.742Z" fill="#EAA115"/>
<path d="M139.15 28.16C139.442 38.744 121.29 232.508 117.258 258.394C117.032 259.846 115.964 260.554 116.058 258.468C117.164 233.494 133.044 54.468 137.544 28.434C138.2 24.646 139.054 24.638 139.15 28.16Z" fill="#101828"/>
<path d="M262.352 33.6993C251.352 32.8293 246.818 31.5713 243.238 35.7373C239.548 40.0333 234.39 41.0513 229.142 41.0713C217.743 41.2286 206.377 39.8017 195.37 36.8313C179.006 32.2513 184.854 24.5213 174.706 22.3773C159.88 19.2473 142.43 23.1773 142.174 20.7953C141.886 18.1333 167.13 17.7493 175.944 19.9253C186.482 22.5253 181.09 29.7553 196.206 33.5053C207.208 36.2389 218.51 37.5755 229.846 37.4833C243.17 37.3813 240.336 29.8353 249.306 29.9793C252.29 30.0273 277.062 31.1133 276.506 34.0493C276.352 34.9093 276.158 34.7993 262.352 33.7013V33.6993Z" fill="#101828"/>
<path d="M251.08 279.707C228.68 288.559 171.432 286.865 136.866 274.343C134.13 273.343 119.666 267.205 121.002 264.863C121.984 263.153 127.056 270.159 155.824 276.075C215.414 288.331 249.696 277.159 251.08 279.707Z" fill="#101828"/>
<path d="M219.702 171.001C221.268 171.295 221.492 171.679 221.446 172.383C221.328 174.227 220.628 174.617 179.946 170.983C169.666 170.067 169.396 169.753 169.486 168.695C169.55 167.967 169.566 167.541 175.076 167.695C186.952 168.051 219.302 170.927 219.702 171.001Z" fill="#101828"/>
<path d="M217.614 182.351C217.446 183.551 215.826 183.685 214.574 183.607C172.174 180.979 172.15 180.407 172.274 179.007C172.364 177.995 173.102 177.671 177.5 177.961C218.496 180.665 217.888 180.379 217.614 182.351Z" fill="#101828"/>
<path d="M211.5 23.7997C211.512 24.193 211.444 24.5845 211.3 24.9507C211.156 25.3168 210.939 25.6499 210.662 25.9297C210.244 26.3513 209.706 26.6334 209.121 26.7373C208.536 26.8411 207.934 26.7617 207.396 26.5099C206.858 26.2581 206.411 25.8462 206.117 25.3306C205.822 24.815 205.694 24.2209 205.75 23.6297C205.729 23.0365 205.892 22.4514 206.216 21.9546C206.541 21.4579 207.012 21.074 207.564 20.8557C207.93 20.7106 208.322 20.6418 208.715 20.6537C209.109 20.6655 209.495 20.7577 209.852 20.9246C210.208 21.0916 210.527 21.3296 210.788 21.6242C211.049 21.9188 211.247 22.2637 211.37 22.6377C211.492 23.0117 211.536 23.4077 211.5 23.7997Z" fill="#101828"/>
<path d="M219.246 22.4695C221.862 22.9335 221.246 26.2475 219.302 26.0895C219.058 26.1041 218.813 26.0691 218.583 25.9866C218.352 25.9041 218.141 25.7758 217.962 25.6094C217.782 25.4429 217.638 25.2419 217.539 25.0184C217.439 24.7949 217.386 24.5535 217.382 24.3088C217.378 24.0641 217.424 23.8212 217.517 23.5947C217.609 23.3682 217.747 23.1628 217.921 22.9909C218.095 22.819 218.302 22.6842 218.53 22.5946C218.758 22.505 219.001 22.4624 219.246 22.4695Z" fill="#101828"/>
<path d="M197.9 114.511C192.55 111.955 188.368 108.449 191.374 103.337C192.118 101.751 193.263 100.388 194.697 99.3814C196.13 98.3752 197.802 97.7613 199.546 97.6007C200.79 97.5147 200.59 97.9367 200.464 99.0007C198.938 111.981 200.28 115.647 197.9 114.511Z" fill="#EAA115"/>
<path d="M200.858 126.445C201.282 120.433 200.258 118.561 202.702 119.807C214.362 125.757 209.524 134.017 201.188 136.481C199.442 136.999 200.046 137.987 200.858 126.445Z" fill="#EAA115"/>
<path fill-rule="evenodd" clip-rule="evenodd" d="M294.584 56.9297C297.098 24.8597 297.84 15.3697 242.06 9.84173C227.502 8.39973 214.33 6.71773 202.494 5.20573C157.786 -0.504265 132.154 -3.77827 122.962 17.5337C113.18 40.1997 98.6 244.546 98.2 259.752C97.818 274.282 107.374 283.736 120.708 289.52C136.576 296.402 143.508 297.056 165.04 299.088L165.046 299.09C169.02 299.464 173.494 299.886 178.614 300.404C271.054 309.742 272.384 296.266 278.81 231.136V231.13C279.012 229.1 279.216 227.02 279.43 224.888L279.452 224.69L279.574 223.594L276.108 223.224C275.652 228.318 275.214 233.238 274.8 237.938C273.5 252.66 270.84 269.592 266.246 281.76C263.766 288.336 259.668 293.066 252.782 294.968C235.148 299.844 217.948 298.994 201.106 297.6C198.47 297.382 195.702 297.168 192.832 296.946C155.89 294.086 102.276 289.938 102.666 260.37C102.94 239.438 118.2 49.0877 125.2 23.5657C131.16 1.79173 152.834 4.58173 199.912 10.6457C209.684 11.9057 220.552 13.3037 232.6 14.6537C236.022 15.0377 239.344 15.3837 242.548 15.7177C272.152 18.8037 291.858 20.8577 291.014 41.5897C290.288 59.4217 287.556 93.5157 284.328 130.844L288.784 131.176C290.632 110.3 292.456 87.8017 293.928 65.7677C294.136 62.6457 294.366 59.7037 294.584 56.9297ZM273.492 130.09C277.34 90.7357 280.544 55.8157 281.332 44.9757C281.55 41.9997 280.544 40.7337 280 43.9337C278.168 54.7437 274.038 90.0638 269.72 129.848L273.492 130.09ZM264.056 221.89C262.797 221.747 261.539 221.603 260.28 221.458C257.932 245.788 256.304 264.594 256.13 270.89C256.084 272.57 257.438 272.62 257.792 270.976C259.056 265.116 261.362 246.344 264.056 221.89Z" fill="#101828"/>
<path d="M247.2 219.911C227.876 217.571 230.2 220.461 240 134.751C240.758 128.115 244.446 128.417 259.974 129.273C308.862 131.961 359.15 137.821 366.098 138.915C385.79 142.011 381.528 138.045 371.908 219.161C370.836 228.195 367.508 229.469 360.582 229.385C328.332 229.001 281.698 224.091 247.2 219.911ZM363.758 225.167C366.648 224.679 367.932 223.855 369.838 204.519C371.732 185.281 376.654 158.719 375.638 146.919C375.67 146.213 375.434 145.52 374.978 144.979C374.521 144.438 373.878 144.089 373.176 144.001C360.776 140.615 281.958 134.145 262.308 133.223C246.798 132.495 245.274 132.399 244.186 135.717C242.472 140.947 243.12 141.399 238.866 179.989C236.126 204.843 234.84 213.733 239.852 214.803C260.15 219.125 353.468 226.903 363.748 225.167H363.758Z" fill="#EAA115"/>
<path d="M355.988 168.686C343.752 167.65 343.002 167.486 342.92 163.602C342.52 144.78 344.92 147.032 364.374 149.286C367.448 149.642 368.738 150.886 368.774 153.728C368.848 158.009 368.264 162.276 367.042 166.38C365.894 170.202 361.8 169.18 355.988 168.686Z" fill="#EAA115"/>
<path d="M289.684 202.002C314.782 204.402 315.842 203.716 315.544 207.366C315.108 212.728 313.628 210.476 279.652 208.094C274.334 207.722 273.318 205.094 275.094 202.396C276.136 200.814 276.594 201.218 289.67 202.138L289.684 202.002Z" fill="#EAA115"/>
<path d="M312.492 155.446C314.91 155.724 314.868 157.94 312.304 157.778C306.456 157.406 258.06 154.142 251.732 153.156C250.438 152.956 250.57 151.652 251.856 151.668C264.04 151.824 313.774 155.6 312.492 155.446Z" fill="#EAA115"/>
<path d="M281.546 170.135C249.746 167.901 249.834 168.099 249.836 166.837C249.836 165.333 247.902 165.343 309.306 169.801C310.494 169.887 311.75 170.001 311.626 171.181C311.472 172.655 310.426 172.303 301.358 171.679C297.242 171.401 281.53 170.371 281.546 170.135Z" fill="#EAA115"/>
<path d="M256 199.211C265.238 200.343 267.614 199.671 267.4 203.851C267.228 207.337 265.214 206.925 259.834 206.397C249.806 205.415 249.202 205.921 249.578 201.597C249.98 196.973 255.896 200.081 256 199.211Z" fill="#EAA115"/>
</svg>
