<svg width="400" height="400" viewBox="0 0 400 400" fill="none" xmlns="http://www.w3.org/2000/svg">
<path d="M115.182 156.332L113.394 176.75L266.638 173.856L265.784 156.332H115.182Z" fill="#EAA115"/>
<path d="M184.532 217.778C178.408 218.302 172.298 218.962 166.182 219.556C163.865 214.289 162.274 208.731 161.452 203.036C168.192 202.606 174.93 202.138 181.698 201.936C181.974 207.314 182.926 212.637 184.532 217.778ZM141.532 203.858C147.652 203.78 153.872 203.552 160.068 203.136C160.843 208.845 162.395 214.421 164.682 219.71C158.63 220.29 152.226 220.8 146.042 220.946C143.759 215.484 142.243 209.734 141.532 203.858ZM167.366 234.246C162.861 234.398 158.355 234.516 153.85 234.6C151.004 230.802 148.59 226.701 146.65 222.37C152.85 222.194 159.05 221.69 165.264 221.086C167.192 225.62 169.562 229.953 172.34 234.022C170.68 234.098 169.019 234.164 167.356 234.222L167.366 234.246ZM173.942 234C171.135 229.895 168.732 225.529 166.766 220.962C172.81 220.362 178.864 219.716 184.966 219.206C186.585 224.079 188.838 228.719 191.666 233.006C173.65 234.184 173.942 233.8 173.942 234ZM215.682 235.8C217.866 239.33 220.894 242.4 221.358 243.822C223.216 249.55 213.422 236.894 212.784 235.722C213.382 235.668 215.682 235.54 215.682 235.784V235.8ZM208.738 231.4C202.88 231.962 199.512 232.452 193.758 232.87C193.634 232.879 193.51 232.857 193.397 232.804C193.285 232.751 193.188 232.669 193.116 232.568C190.446 228.666 188.302 224.43 186.74 219.968C186.709 219.879 186.696 219.786 186.701 219.692C186.707 219.599 186.731 219.507 186.772 219.423C186.812 219.339 186.87 219.264 186.94 219.202C187.01 219.14 187.091 219.092 187.18 219.062C187.472 218.96 199.288 218.148 199.832 218.112C200.018 218.093 200.19 218.004 200.313 217.863C200.436 217.723 200.501 217.54 200.494 217.353C200.487 217.167 200.41 216.989 200.277 216.857C200.145 216.726 199.967 216.649 199.78 216.644C199.78 216.644 190.942 217.268 186.55 217.608C186.388 217.622 186.227 217.58 186.092 217.489C185.958 217.398 185.859 217.263 185.812 217.108C184.394 212.399 183.502 207.547 183.152 202.642C183.139 202.453 183.202 202.267 183.326 202.125C183.45 201.983 183.626 201.895 183.814 201.882C184.66 201.826 197.096 201.732 200.57 201.708C200.74 201.707 200.905 201.767 201.036 201.877C201.166 201.987 201.252 202.14 201.28 202.308C201.88 205.928 204.646 215.922 205.634 219.494C205.687 219.68 205.811 219.837 205.979 219.933C206.148 220.028 206.347 220.054 206.534 220.004C206.721 219.954 206.88 219.833 206.979 219.667C207.077 219.5 207.106 219.302 207.06 219.114C206.132 215.77 203.374 205.958 202.798 202.514C202.783 202.421 202.787 202.326 202.809 202.234C202.832 202.143 202.872 202.056 202.928 201.98C202.983 201.905 203.054 201.84 203.134 201.792C203.215 201.743 203.305 201.711 203.398 201.698C203.434 201.698 203.47 201.634 203.508 201.634H220.108C220.273 201.62 220.436 201.669 220.567 201.77C220.697 201.871 220.786 202.017 220.814 202.18C221.011 203.464 221.237 204.74 221.492 206.01C221.538 206.19 221.651 206.345 221.808 206.444C221.965 206.543 222.154 206.578 222.336 206.542C222.518 206.505 222.679 206.4 222.786 206.248C222.893 206.097 222.937 205.909 222.91 205.726C222.697 204.611 222.497 203.494 222.31 202.376C222.296 202.283 222.3 202.188 222.323 202.097C222.345 202.006 222.385 201.92 222.441 201.845C222.497 201.77 222.567 201.706 222.648 201.658C222.728 201.609 222.817 201.577 222.91 201.564C223.11 201.532 242.02 201.364 240.818 201.376C240.992 201.374 241.16 201.436 241.291 201.55C241.423 201.663 241.507 201.821 241.53 201.994C242.022 205.986 242.772 209.941 243.776 213.836C243.805 213.942 243.809 214.054 243.787 214.162C243.765 214.27 243.718 214.372 243.65 214.459C243.582 214.546 243.495 214.616 243.395 214.663C243.296 214.711 243.186 214.734 243.076 214.732C238.022 214.622 232.776 214.654 227.628 214.87C227.446 214.882 227.275 214.965 227.152 215.099C227.028 215.234 226.962 215.411 226.965 215.594C226.969 215.777 227.042 215.951 227.171 216.081C227.3 216.211 227.473 216.286 227.656 216.292C230.178 216.266 234.18 215.984 243.946 216.198C244.094 216.203 244.236 216.253 244.354 216.342C244.472 216.432 244.559 216.555 244.604 216.696C245.855 220.632 247.498 224.433 249.508 228.042C249.567 228.148 249.599 228.267 249.599 228.389C249.599 228.51 249.569 228.63 249.51 228.736C249.451 228.843 249.366 228.932 249.263 228.997C249.159 229.061 249.041 229.098 248.92 229.104C245.224 229.258 234.098 229.634 232.24 229.734C232.107 229.74 231.974 229.71 231.857 229.645C231.74 229.58 231.643 229.484 231.578 229.368C231.167 228.624 230.767 227.875 230.378 227.122C230.303 226.973 230.177 226.855 230.023 226.79C229.869 226.725 229.697 226.716 229.538 226.766L229.418 226.804C229.329 226.832 229.245 226.878 229.174 226.938C229.102 226.999 229.043 227.073 229 227.157C228.957 227.24 228.93 227.331 228.923 227.425C228.915 227.518 228.925 227.612 228.954 227.702C228.994 227.82 229.002 227.946 228.978 228.068L228.808 228.928C228.783 229.051 228.727 229.165 228.644 229.259C228.561 229.353 228.455 229.424 228.336 229.464L226.674 230.016C226.508 230.075 226.369 230.192 226.282 230.344C226.194 230.497 226.164 230.676 226.196 230.849C226.228 231.022 226.32 231.178 226.456 231.289C226.593 231.4 226.764 231.459 226.94 231.456C228.128 231.38 229.315 231.313 230.502 231.256C230.636 231.248 230.769 231.278 230.887 231.343C231.004 231.409 231.1 231.506 231.164 231.624C232.666 234.412 241.364 247.348 239.806 241.64C239.648 241.06 237.086 238.64 233.188 232.176C233.091 232.014 233.062 231.821 233.107 231.639C233.153 231.456 233.269 231.299 233.43 231.202C233.798 230.982 242.644 230.852 250.514 230.494C250.636 230.489 250.758 230.516 250.867 230.573C250.975 230.629 251.067 230.713 251.134 230.816C253.236 233.966 260.76 245.478 261.3 242.518C261.36 241.822 261.1 241.876 260.604 241.204C257.96 238.084 255.495 234.817 253.222 231.418C253.153 231.313 253.113 231.193 253.106 231.068C253.099 230.943 253.125 230.818 253.181 230.707C253.237 230.595 253.322 230.5 253.427 230.432C253.532 230.364 253.653 230.324 253.778 230.318C257.308 230.144 265.978 229.998 263.224 228.328C262.79 228.064 262.332 228.47 252.122 228.976C251.994 228.981 251.867 228.952 251.754 228.892C251.641 228.832 251.547 228.743 251.48 228.634C249.333 225.036 247.589 221.213 246.28 217.234C246.22 217.055 246.234 216.859 246.319 216.691C246.403 216.522 246.551 216.394 246.73 216.334C247.076 216.22 262.568 216.88 263.018 216.898C263.952 216.936 263.948 215.498 263.018 215.45C257.364 215.22 251.706 214.972 246.046 214.808C245.894 214.804 245.747 214.752 245.627 214.659C245.507 214.567 245.42 214.438 245.378 214.292C244.296 210.286 243.494 206.209 242.978 202.092C242.968 202 242.976 201.906 243.003 201.817C243.029 201.728 243.072 201.645 243.131 201.573C243.189 201.501 243.261 201.441 243.343 201.397C243.424 201.353 243.514 201.325 243.606 201.316C246.094 201.052 267.306 201.916 263.07 199.516C262.57 199.23 262.928 199.632 243.344 199.936C243.17 199.94 243 199.879 242.868 199.765C242.736 199.651 242.65 199.493 242.628 199.32C242.156 195.614 242.098 191.662 241.628 187.86C241.615 187.756 241.579 187.655 241.524 187.566C241.468 187.477 241.394 187.401 241.306 187.344C239.234 186.06 240.986 196.242 241.248 199.2C241.265 199.387 241.207 199.574 241.087 199.719C240.966 199.863 240.794 199.955 240.606 199.972C240.606 199.972 228.596 200.096 222.618 200.132C222.444 200.133 222.276 200.07 222.146 199.956C222.015 199.842 221.93 199.684 221.908 199.512C221.46 195.678 221.26 191.819 221.308 187.96C221.309 187.865 221.291 187.772 221.255 187.684C221.219 187.597 221.165 187.518 221.098 187.452C218.824 185.252 220.136 196.252 220.458 199.348C220.478 199.534 220.424 199.721 220.306 199.867C220.189 200.013 220.018 200.107 219.832 200.128C219.808 200.128 219.782 200.188 219.758 200.188H203.05C202.887 200.2 202.725 200.153 202.595 200.053C202.465 199.954 202.377 199.81 202.346 199.65C201.668 195.478 201.454 191.05 200.824 186.75C200.813 186.658 200.783 186.57 200.736 186.49C200.689 186.411 200.627 186.342 200.552 186.288C198.276 184.688 200.522 196.256 200.926 199.47C200.939 199.569 200.931 199.67 200.902 199.766C200.873 199.862 200.824 199.951 200.758 200.026C200.692 200.102 200.611 200.163 200.52 200.205C200.429 200.247 200.33 200.269 200.23 200.27C194.792 200.318 189.23 200.324 183.71 200.47C183.527 200.476 183.348 200.41 183.212 200.287C183.076 200.164 182.994 199.993 182.982 199.81C182.744 195.936 182.982 191.828 182.734 187.868C182.729 187.757 182.697 187.65 182.641 187.554C182.586 187.459 182.508 187.378 182.414 187.32C180.43 186.12 181.554 196.876 181.634 199.834C181.639 200.021 181.571 200.203 181.442 200.34C181.314 200.476 181.137 200.557 180.95 200.564C174.616 200.764 168.304 201.128 161.966 201.564C161.781 201.576 161.599 201.516 161.457 201.396C161.316 201.276 161.226 201.106 161.208 200.922C160.889 196.606 160.971 192.269 161.45 187.968C161.467 187.795 161.421 187.622 161.322 187.48C159.122 184.41 159.588 197.704 159.836 200.994C159.85 201.18 159.791 201.364 159.671 201.507C159.551 201.65 159.38 201.74 159.194 201.758C153.594 202.13 147.738 202.31 142.06 202.4C141.882 202.403 141.709 202.338 141.575 202.219C141.442 202.1 141.359 201.935 141.342 201.758C140.964 197.216 141.098 192.647 141.742 188.136C141.766 187.982 141.738 187.824 141.662 187.688C139.478 183.688 139.634 198.314 139.894 201.742C139.901 201.834 139.891 201.926 139.862 202.014C139.834 202.102 139.788 202.183 139.729 202.253C139.669 202.323 139.596 202.381 139.514 202.423C139.432 202.465 139.342 202.49 139.25 202.498C135.512 202.792 121.98 201.614 123.3 203.666C123.362 203.755 123.444 203.829 123.539 203.882C123.635 203.934 123.741 203.964 123.85 203.968C128.984 204.234 134.326 203.856 139.512 203.894C139.685 203.896 139.85 203.961 139.979 204.076C140.108 204.191 140.19 204.349 140.212 204.52C140.882 209.837 142.203 215.053 144.146 220.048C144.187 220.154 144.201 220.268 144.189 220.38C144.176 220.493 144.137 220.601 144.074 220.696C144.011 220.79 143.927 220.868 143.827 220.923C143.728 220.978 143.617 221.008 143.504 221.012C139.058 221.062 134.452 220.844 129.92 220.472C129.826 220.463 129.73 220.473 129.641 220.503C129.551 220.533 129.468 220.582 129.398 220.646C126.982 222.924 141.798 222.372 144.672 222.4C144.809 222.4 144.942 222.439 145.056 222.514C145.17 222.589 145.26 222.696 145.314 222.822C146.985 226.605 149.011 230.221 151.366 233.622C151.472 233.777 151.513 233.968 151.479 234.152C151.445 234.337 151.339 234.501 151.184 234.608C150.454 235.108 137.752 233.792 140.184 236.058C140.311 236.172 140.475 236.237 140.646 236.24C144.622 236.346 148.778 236.1 152.792 236.08C152.901 236.078 153.01 236.102 153.108 236.15C153.207 236.198 153.292 236.268 153.358 236.356C155.51 239.186 165.01 249.772 165.574 246.882C165.574 246.268 165.298 246.348 164.696 245.796C161.477 243.232 158.532 240.342 155.906 237.174C155.821 237.071 155.766 236.946 155.748 236.814C155.73 236.682 155.75 236.547 155.806 236.425C155.861 236.304 155.949 236.2 156.061 236.127C156.172 236.053 156.302 236.013 156.436 236.01C174.2 235.61 173.194 235.228 173.588 235.81C175.634 238.766 184.498 248.646 185.22 245.996C185.314 245.252 184.944 245.264 184.286 244.754C181.072 242.444 178.221 239.668 175.828 236.516C175.769 236.444 175.724 236.361 175.697 236.272C175.669 236.182 175.66 236.089 175.669 235.996C175.678 235.903 175.705 235.813 175.749 235.73C175.792 235.648 175.852 235.575 175.924 235.516C176.432 235.094 177.186 235.574 192.26 234.43C192.38 234.421 192.5 234.443 192.609 234.493C192.718 234.543 192.813 234.619 192.884 234.716C195.242 237.882 204.284 248.764 204.714 245.916C204.738 245.274 204.464 245.336 203.9 244.716C200.761 241.798 197.842 238.652 195.168 235.304C195.089 235.204 195.038 235.084 195.021 234.958C195.004 234.831 195.021 234.703 195.07 234.585C195.12 234.467 195.2 234.365 195.302 234.289C195.404 234.213 195.525 234.165 195.652 234.152C199.302 233.786 204.052 233.462 207.972 233.188C208.185 233.173 208.384 233.078 208.531 232.923C208.677 232.768 208.76 232.563 208.762 232.35L208.738 231.4Z" fill="#101828"/>
<path d="M215.248 221.883C215.651 220.499 216.201 219.162 216.886 217.895C217.563 219.131 218.358 220.299 219.26 221.383C219.472 221.533 221.23 221.013 223.21 221.061C222.35 222.449 221.24 224.227 221.24 224.227C221.696 225.398 222.052 226.607 222.304 227.839C221.006 227.232 219.642 226.778 218.24 226.485C217.003 227.017 215.796 227.618 214.626 228.285C214.648 227.064 214.8 225.85 215.082 224.663L211.918 222.863L215.248 221.883Z" fill="#EAA115"/>
<path d="M227 232.344C240.132 218.982 221.302 206.01 209.864 212.89C197.504 221.668 206.88 240.632 220.714 237.818C225.996 236.91 225.496 232.818 222.3 234.018C213.018 238.71 204.078 228.018 208.004 219.362C211.534 210.47 225.974 213.008 228.404 221.532C230.8 225.188 220.354 233.864 227 232.344Z" fill="#EAA115"/>
<path d="M175.236 197.389C169.78 193.287 170.958 194.959 173.752 190.567C176.304 188.131 173.208 185.817 171.552 188.693C170.412 189.749 169.52 192.653 168.552 192.223C166.804 191.023 163.854 188.013 162.478 190.521C161.262 192.767 168.732 193.701 166.678 195.547C165.235 197.403 163.918 199.354 162.738 201.387C163.52 204.645 166.1 201.763 166.996 200.079C168.24 198.927 169.014 195.695 170.196 197.129C171.746 198.091 172.796 199.641 174.642 200.167C174.93 200.096 175.191 199.945 175.397 199.733C175.603 199.52 175.745 199.253 175.807 198.964C175.869 198.674 175.849 198.373 175.748 198.095C175.647 197.816 175.469 197.572 175.236 197.389Z" fill="#EAA115"/>
<path d="M196.6 196.364C195.926 195.402 192.152 193.848 192.944 193.056C194.184 191.364 196.744 190.238 196.344 188.444C194.246 184.844 191.826 191.798 189.926 191.428C187.852 189.61 184.34 187.876 185.326 191.698C185.704 192.6 188.776 193.248 187.97 194.098C186.908 195.542 184.25 197.02 185.724 198.722C187.486 200.386 189.01 196.752 190.336 195.792C191.484 195.04 193.81 198.544 195.212 198.714C196.582 198.974 197.778 197.368 196.6 196.364Z" fill="#EAA115"/>
<path d="M214.094 189.16C212.418 190.39 210.416 194.616 209.16 192.56C207.822 191.478 207.108 190.56 205.63 189.508C205.287 189.36 204.9 189.35 204.549 189.478C204.199 189.606 203.91 189.864 203.743 190.198C203.576 190.532 203.544 190.918 203.652 191.275C203.76 191.633 204.002 191.935 204.326 192.12C207.386 195.264 209.192 194.85 206.662 197.034C204.604 198.68 203.886 200.97 206.622 201.034C207.985 199.926 209.236 198.687 210.358 197.334C211.908 198.298 214.434 201.548 215.698 199.902C217.142 197.828 213.874 196.79 212.678 195.516C211.754 194.574 216.772 191.546 216.528 190.346C216.558 190.053 216.497 189.757 216.353 189.499C216.21 189.241 215.991 189.033 215.725 188.904C215.46 188.774 215.161 188.729 214.869 188.775C214.577 188.821 214.307 188.956 214.094 189.16Z" fill="#EAA115"/>
<path d="M238.444 195.32C232.958 192.166 235.934 193.134 237.93 189.3C238.16 188.558 237.608 187.998 236.884 187.734C234.406 186.922 233.514 192.818 231.75 190.982C229.85 190.018 225.63 187.698 224.75 189.438C224.633 189.626 224.56 189.838 224.538 190.058C224.515 190.279 224.544 190.502 224.621 190.709C224.698 190.917 224.822 191.104 224.983 191.256C225.144 191.409 225.338 191.522 225.55 191.588C226.55 192.038 231.326 193.334 230.318 194.084C228.832 195.924 224.222 199.052 228.25 199.942C233.474 196.908 231.292 193.418 236.272 197.374C238.11 199.18 240.2 196.826 238.444 195.32Z" fill="#EAA115"/>
<path d="M154.082 211.329C155.75 209.673 159.882 206.051 155.364 206.047C153.79 206.667 152.58 209.767 151.284 209.503C149.484 208.689 147.012 206.303 145.658 208.267C145.478 208.536 145.411 208.865 145.471 209.183C145.531 209.501 145.713 209.783 145.978 209.969C146.642 210.683 150.246 211.397 149.466 212.283C148.222 214.259 146.004 215.899 145.764 218.283C147.852 222.037 150.642 214.577 152.182 213.531C154.074 214.605 155.506 216.669 157.512 217.647C162.222 216.653 155.484 212.523 154.082 211.329Z" fill="#EAA115"/>
<path d="M256.59 194.998C255.99 194.398 252.148 192.816 253.19 192.258C255.156 190.82 259.056 188.436 255.456 187.234C253.697 188.163 252.058 189.305 250.578 190.634C249.728 190.108 248.932 188.474 247.62 188.362C245.64 188.762 245.964 190.586 247.468 191.694C248.228 192.604 248.338 192.512 248.008 192.798C247.76 191.976 247.944 192.156 248.328 192.512C246.74 194.16 244.928 195.04 244.072 196.93C245.26 202.004 249.006 194.084 250.892 194.664C257.762 200.502 257.958 195.898 256.59 194.998Z" fill="#EAA115"/>
<path d="M140.482 217.71C139.198 216.136 134 213.648 134.856 212.98C136.118 211.472 137.982 210.536 138.926 208.614C138.945 208.32 138.878 208.027 138.731 207.772C138.584 207.517 138.365 207.311 138.101 207.179C137.838 207.048 137.541 206.998 137.249 207.035C136.957 207.072 136.683 207.195 136.46 207.388C135.112 208.686 133.474 210.276 132.06 211.658C131.453 211.286 130.84 210.922 130.222 210.568C128.274 209.124 125.98 208.738 126.246 211.35C127.016 212.54 128.772 212.856 129.936 213.75C128.936 215.066 126.676 216.19 126.264 218.016C127.83 222.562 130.938 215.176 132.802 215.558C135.174 216.882 136.746 218.94 139.344 220.112C139.636 220.148 139.932 220.091 140.19 219.949C140.448 219.807 140.654 219.588 140.78 219.322C140.906 219.056 140.945 218.757 140.892 218.468C140.838 218.178 140.695 217.913 140.482 217.71Z" fill="#EAA115"/>
<path d="M53.346 224.426C55.442 221.374 50.482 216.858 47.388 220.366C45.064 223.528 50.16 228.19 53.346 224.426ZM48.346 221.942C48.746 219.77 53.68 220.908 51.764 223.732C50.372 224.868 48.556 224.202 48.35 221.942H48.346Z" fill="#101828"/>
<path d="M70.746 226.963C75.32 223.675 72.746 218.941 67.976 219.345C64.876 221.289 65.542 227.649 70.746 226.963ZM68.324 221.271C68.4308 221.153 68.5004 221.007 68.524 220.851C76.244 221.643 66.126 230.189 68.324 221.271Z" fill="#101828"/>
<path d="M92.34 231.999C92.632 228.511 86.358 225.687 84.584 230.283C82.81 234.879 91.534 237.673 92.34 231.999ZM86.038 231.429C85.752 228.765 90.784 228.919 90.668 231.943C90.312 234.519 86.884 234.085 86.038 231.419V231.429Z" fill="#101828"/>
<path d="M152.746 288.332C155.25 286.858 154.672 279.812 149.916 281.314C145.8 282.8 147.984 289.252 152.746 288.332ZM151.546 282.764C152.776 282.794 153.524 286.936 151.248 286.782C148.976 286.33 148.738 282.498 151.542 282.764H151.546Z" fill="#101828"/>
<path d="M302.02 256.956C266.92 217.11 269.18 196.454 267.552 156.194C264.05 154.082 258.752 154.756 254.122 154.644C254.524 152.818 254.277 150.908 253.424 149.244C250.454 139.676 239.792 139.89 234.724 146.93C231.432 139.998 219.936 138.554 215.612 146.362C212.926 138.338 199.794 138.32 195.75 146.04C192.644 139.04 182.658 138.218 177.71 144.696C173.654 138.676 163.284 139.34 159.242 146.07C155.612 139.902 146.12 140.83 142.042 146.938C138.042 138.274 123.326 139.468 121.944 149.624C121.81 151.381 121.99 153.147 122.476 154.84C119.735 154.88 116.992 154.916 114.248 154.948C108.744 168.426 111.216 186.972 110.998 202.308C110.532 228.308 123.866 247.336 142.654 261.398C149.432 265.57 182.654 261.576 187.178 261.518C238.688 260.852 267.36 259.444 283.244 259.428C283.316 261.378 283.81 264.672 280.998 264.694C246.048 264.966 212.608 266.482 178.014 266.876C97.146 266.292 117.228 274.96 110.324 243.512C103.724 187.816 112.214 151.986 107.724 154.59C105.238 155.202 106.666 158.604 106.082 160.856C104.156 193.544 104.032 225.332 109.432 257.544C111.932 268.356 109.432 270.772 116.934 270.114C141.644 270.08 269.364 268.47 279.334 267.714C261.984 279.482 117.254 276.286 111.71 276.68C101.564 277.402 99.55 276.532 102.44 181.404C102.586 176.62 102.92 157.526 101.412 155.892C99.47 158.354 96.916 188.476 97.544 224.752C83.944 212.952 61.448 210.044 43.862 211.178C38.404 211.53 31.818 211.058 27.142 214.348C24.01 229.43 20.724 245.078 17.464 260.712C1.664 331.746 7.802 285.178 66.64 320.078C93.862 339.462 109.014 368.368 143.672 367.746C147.738 357.842 149.506 346.746 152.978 336.146C158.696 313.482 168.738 285.746 168.084 280.002C193.216 279.372 267.052 276.782 280.186 276.13C282.26 276.698 281.996 270.454 281.364 267.51C287.52 266.96 285.62 259.488 285.536 259.416C303.93 259.418 302.828 259.586 302.02 256.956ZM140.092 364.62C78.426 352.046 92.712 307.178 12.586 299.766C21.986 256.146 26.472 234.618 28.686 223.884C30.07 217.18 33.832 215.11 43.086 214.484C78.96 212.026 91.962 225.358 97.632 228.444C97.866 238.614 98.356 249.202 99.182 259.75C97.28 261.498 96.312 267.512 94.782 269.834C76.298 249.046 72.516 258.888 75.31 249.088C78.686 233.844 73.544 246.652 72.56 252.906C64.7328 249.988 56.5681 248.07 48.26 247.2C48.472 244.056 53.11 234.532 50.144 234.73C45.674 242.88 50.886 248.47 39.424 247.082C36.89 249.716 43.486 248.196 46.21 248.682C41.874 261.928 45.646 264.816 35.35 262.612C32.784 264.878 39.282 264.298 41.878 265.138C36.538 285.912 40.646 278.068 26.334 280.102C26.134 283.102 34.308 280.422 37.504 281.748C37.266 284.062 32.704 295.348 36.268 292.736C38.458 276.048 43.774 283.67 55.59 285.714C66.774 287.026 57.218 295.34 56.938 302.74C60.196 303.482 61.168 291.326 62.988 288.708C88.858 306.258 80.294 304.564 79.788 311.836C82.088 312.436 82.012 308.476 83.334 306.06C104.758 331.282 103.15 323.368 99.534 336.018C101.588 339.462 102.52 329.688 103.632 327.464C120.924 339.594 123.658 333.2 118.572 345.064C120 348.722 121.882 340.426 122.904 337.85C125.33 338.62 137.104 343.916 134.428 340.096C116.556 336.968 126.752 330.356 128.33 318.342C130.766 319.18 142.79 324.674 140.112 320.808C123.512 316.956 130.33 314.996 132.41 303.84C136.3 305.096 147.722 310.988 147.434 307.766C138.32 302.506 129.76 306.482 134.886 295.062C133.07 291.912 132.396 298.96 131.358 301.61C102.206 289.576 122.462 285.518 115.72 282.704C114.885 285.237 114.064 287.771 113.256 290.304C92.312 268.116 95.656 272.524 99.444 263.01C99.804 267.238 100.22 271.452 100.696 275.622C100.896 277.898 104.674 280.524 106.792 280.548C126.834 280.748 146.318 280.504 165.554 280.042C149.908 330.976 143.674 365.788 140.092 364.62ZM66.662 272.126C59.4044 268.506 51.7456 265.754 43.844 263.926L47.844 248.802C80.2 254.146 71.758 251.846 66.662 272.126ZM73.586 255.08C73.804 255.172 74.012 255.264 74.206 255.358C101.986 272.886 92.648 271.328 88.268 287.398C63.478 266.54 67.018 279.642 73.586 255.08ZM54.362 268.65C71.888 273.956 64.562 274.998 62.03 286.484C54.8027 283.549 47.2463 281.5 39.526 280.382C44.66 263.75 39.564 263.888 54.362 268.65ZM67.662 274.45C94.198 290.704 87.084 288.13 82.7 303.036C79.799 299.883 76.7207 296.898 73.48 294.096C58.966 284.612 64.902 286.358 67.662 274.446V274.45ZM88.992 290.13C113.44 312.012 108.392 302.62 102.74 324.788C98.5612 321.118 94.7199 317.08 91.262 312.724C80 302.13 85.964 301.54 89 290.126L88.992 290.13ZM109.446 307.836C112.586 311.836 129.446 316.61 126.192 319.976C124.792 324.976 123.392 329.896 121.766 335.682C97.186 324.936 105.258 325.944 109.446 307.832V307.836ZM114.01 293.21C114.316 293.446 114.61 293.682 114.932 293.904C133.812 307.218 131.866 298.716 127.264 316.186C104.868 305.43 110.166 307.386 114.01 293.2V293.21ZM108.6 305.156C84.44 284.966 89.128 291.29 95.364 272.82C97.614 275.29 99.764 277.856 101.974 280.344C115.8 295.864 112.374 291.2 108.6 305.156ZM250.888 154.4C246.051 154.187 241.215 154.024 236.38 153.912C236.538 152.7 236.386 151.468 235.94 150.33C243.88 139.356 252.49 146.494 250.888 154.4ZM233.588 153.844C228.454 153.726 217.988 154.3 217.706 153.43C217.752 137.932 234.336 144.6 233.588 153.848V153.844ZM213.698 153.58C208.35 153.556 203 153.563 197.648 153.6C197.724 152.256 197.504 150.912 197.006 149.662C205.298 136.372 214.536 145.186 213.698 153.584V153.58ZM180.482 145.774C189.374 139.068 195.446 146.204 194.438 153.614C189.426 153.651 184.415 153.71 179.404 153.79C179.278 151.178 178.582 148.57 180.482 145.774ZM176.426 153.848C171.458 153.93 166.49 154.004 161.524 154.098C161.812 152.338 161.508 150.533 160.66 148.964C170.258 137.47 177.8 145.642 176.426 153.848ZM158.254 154.176L143.568 154.444C143.758 153.06 143.648 151.651 143.248 150.312C151.122 139.468 159.646 146.358 158.254 154.176ZM134.298 144.176C141.814 147.594 142.51 151.236 140.716 154.528C135.453 154.632 130.191 154.725 124.93 154.808C125.157 153.175 125.126 151.517 124.838 149.894C124.2 145.4 129.972 142.2 134.298 144.166V144.176ZM247.582 256.928C151.782 258.7 147.746 262.328 143.592 258.528C106.558 229.732 113.32 201.188 114.896 161.77C115.666 157.48 115.022 157.77 120.386 157.75C126.433 157.675 132.456 157.583 138.456 157.474C136.977 159.636 134.921 161.339 132.522 162.39C132.058 161.024 131.146 160.096 130.096 160.096C128.578 160.096 127.346 162.04 127.346 164.44C127.346 166.84 128.578 168.786 130.096 168.786C131.394 168.786 132.48 167.366 132.77 165.458C135.014 165.136 137.131 164.218 138.901 162.801C140.67 161.384 142.029 159.519 142.834 157.4L157.252 157.126C155.828 159.269 153.775 160.918 151.376 161.848C150.804 161.34 150.08 161.034 149.316 160.98C148.553 160.925 147.793 161.124 147.154 161.546C146.515 161.967 146.034 162.588 145.784 163.312C145.535 164.035 145.531 164.821 145.774 165.547C146.017 166.273 146.492 166.898 147.127 167.326C147.762 167.754 148.52 167.96 149.284 167.912C150.048 167.865 150.775 167.566 151.352 167.063C151.928 166.56 152.323 165.88 152.474 165.13C156.06 163.454 158.968 160.607 160.72 157.058C165.663 156.966 170.596 156.878 175.52 156.794C173.348 160.818 171.062 161.912 169.278 162.32C169.019 161.916 168.665 161.581 168.247 161.345C167.828 161.11 167.358 160.981 166.878 160.97C166.036 161.083 165.264 161.497 164.705 162.136C164.145 162.775 163.837 163.596 163.837 164.445C163.837 165.294 164.145 166.115 164.705 166.754C165.264 167.393 166.036 167.807 166.878 167.92C167.581 167.886 168.252 167.617 168.784 167.156C169.315 166.694 169.676 166.067 169.808 165.376C172.96 164.4 177.076 161.4 178 159.084C178.528 158.379 178.919 157.581 179.154 156.732C183.991 156.657 188.829 156.597 193.668 156.55C192.607 158.719 190.779 160.418 188.538 161.318C188.313 160.959 188.004 160.66 187.637 160.447C187.27 160.234 186.858 160.114 186.434 160.096C184.834 160.096 183.536 161.846 183.536 164.004C183.536 166.162 184.834 167.914 186.434 167.914C187.2 167.811 187.905 167.441 188.425 166.869C188.944 166.297 189.245 165.56 189.274 164.788C191.227 164.279 193.001 163.236 194.395 161.776C195.789 160.316 196.749 158.497 197.168 156.522C202.436 156.482 207.706 156.47 212.978 156.486C211.16 158.976 208.659 160.885 205.778 161.984C205.192 161.792 204.562 161.782 203.971 161.956C203.38 162.13 202.855 162.479 202.467 162.958C202.079 163.436 201.845 164.021 201.797 164.636C201.748 165.25 201.888 165.865 202.196 166.398C202.505 166.931 202.968 167.358 203.525 167.623C204.082 167.887 204.706 167.976 205.314 167.877C205.923 167.779 206.487 167.499 206.932 167.073C207.377 166.647 207.683 166.095 207.808 165.492C211.326 163.892 215.932 159.548 216.228 156.492C221.747 156.524 227.27 156.598 232.798 156.714C230.574 159.355 227.518 161.16 224.132 161.832C223.393 161.726 222.639 161.849 221.972 162.184C221.304 162.519 220.755 163.05 220.398 163.706C220.041 164.362 219.893 165.111 219.973 165.853C220.054 166.596 220.36 167.296 220.85 167.859C221.34 168.423 221.99 168.823 222.714 169.007C223.438 169.19 224.2 169.148 224.9 168.886C225.599 168.624 226.201 168.154 226.626 167.54C227.051 166.926 227.277 166.197 227.276 165.45V165.238C230.984 163.474 233.965 160.478 235.712 156.762C252.37 157.162 246.474 157.13 249.842 157.292C248.172 159.255 246.149 160.887 243.878 162.106C243.193 161.816 242.435 161.744 241.708 161.9C240.981 162.056 240.319 162.433 239.814 162.978C239.308 163.523 238.982 164.211 238.881 164.948C238.78 165.685 238.908 166.435 239.248 167.096C239.589 167.758 240.124 168.298 240.783 168.644C241.441 168.99 242.19 169.125 242.928 169.03C243.666 168.936 244.356 168.616 244.906 168.115C245.456 167.614 245.838 166.956 246 166.23C249.398 164.249 251.971 161.112 253.25 157.392C258.516 157.464 265.062 157.462 264.802 159.226C265.248 213.298 273.788 226.776 297.83 256.496C281.078 256.312 264.324 256.6 247.582 256.918V256.928Z" fill="#101828"/>
<path d="M389.716 59.825C320.796 81.243 332.728 58.543 320.636 81.355C276.342 66.211 287.636 41.817 274.914 60.413C261.756 77.791 244.838 88.167 226.458 98.261C258.292 151.733 397.094 122.709 389.716 59.825ZM328.844 73.127C328.876 73.0824 328.898 73.0311 328.908 72.977C328.928 73.031 328.898 73.083 328.844 73.127ZM245.772 112.079C240.363 108.291 235.288 104.049 230.6 99.399C250.25 89.527 268.084 75.841 281.156 57.559C290.546 70.1835 303.728 79.4745 318.774 84.075C302.084 105.561 271.85 133.865 245.772 112.079ZM347.338 111.899C325.5 121.871 300.704 122.847 276.738 121.623C299.686 113.939 317.126 93.125 329.516 73.571C349.45 73.3312 369.227 70.0044 388.142 63.709C384.838 85.639 367.232 102.813 347.338 111.899Z" fill="#101828"/>
<path d="M154.91 54.7985C134.64 37.5405 139.072 26.9985 132.71 34.8705C114.51 63.3205 33.342 59.2285 75.162 99.9385C103.722 133.338 102.712 138.338 106.306 130.138C121.368 101.218 172.122 106.096 179.8 76.0505C172.01 69.4305 163.038 61.7145 154.91 54.7985ZM148.51 99.2265C132.21 106.036 112.028 111.826 103.276 129.16C91.676 113.602 76 98.6525 65.852 82.0645C73.712 56.0965 121.08 61.4105 135.34 36.7045C161.2 78.5605 203.122 71.9645 148.5 99.2225L148.51 99.2265Z" fill="#101828"/>
<path d="M73.92 74.1406C73.8123 74.1782 73.7137 74.238 73.6306 74.3163C73.5476 74.3945 73.482 74.4893 73.438 74.5946C64.852 84.8186 85.714 77.8946 73.92 74.1406ZM74.652 78.6546C73.834 79.0546 71.982 78.2546 73.704 75.6226C74.8 75.3406 77 76.6626 74.652 78.6546Z" fill="#101828"/>
<path d="M84.616 68.695C81.816 67.773 80.694 73.187 84.294 74.217C88.432 75.201 89.634 68.827 84.616 68.695ZM86.282 71.755C85.904 74.413 80.894 69.735 85.132 70.415C84.876 70.787 86.52 70.071 86.282 71.755Z" fill="#101828"/>
<path d="M94.388 64.0502C91.31 65.5142 94.25 70.5162 97.734 68.5422C98.1839 68.0535 98.449 67.4231 98.4835 66.7598C98.518 66.0964 98.3198 65.4419 97.923 64.9092C97.5262 64.3765 96.9558 63.9992 96.3104 63.8423C95.665 63.6855 94.985 63.759 94.388 64.0502ZM96.588 67.3582C95.496 68.1582 93.262 65.1122 96.074 65.3782C96.74 65.7802 97.454 66.2002 96.588 67.3582Z" fill="#101828"/>
<path d="M104.894 60.6742C101.772 61.4062 103.176 67.8042 107.548 65.7582C108.035 65.3184 108.362 64.7292 108.478 64.0831C108.594 63.4371 108.493 62.7708 108.189 62.1889C107.885 61.6071 107.397 61.1426 106.8 60.8684C106.204 60.5943 105.533 60.5259 104.894 60.6742ZM106.742 64.3622C105.142 65.5362 103.116 61.3842 106.582 62.5102C106.783 62.7713 106.905 63.0845 106.933 63.4128C106.962 63.7411 106.895 64.0706 106.742 64.3622Z" fill="#101828"/>
<path d="M115.056 56.857C111.546 57.977 114.736 63.983 118.548 60.749C120.168 58.721 117.976 56.243 115.056 56.857ZM116.962 59.917C115.33 60.851 113.51 57.367 117.22 58.695C117.44 58.975 117.656 59.237 116.962 59.917Z" fill="#101828"/>
<path d="M124.17 51.0331C120.37 53.3571 125.668 58.9631 128.12 54.2111C128.239 53.6955 128.21 53.1568 128.037 52.6567C127.864 52.1566 127.554 51.7154 127.141 51.3837C126.729 51.052 126.232 50.8431 125.706 50.7811C125.181 50.7191 124.648 50.8064 124.17 51.0331ZM126.37 54.2191C125.126 55.5031 122.77 52.0031 125.918 52.3871C126.384 52.9391 126.8 53.1511 126.368 54.2191H126.37Z" fill="#101828"/>
<path d="M131.646 45.6989C128.14 46.6689 131.194 51.7969 134.728 49.7369C136.38 47.9989 135 44.7729 131.646 45.6989ZM133.8 48.3989C133.6 48.9769 131.458 48.3989 131.718 47.5009C131.968 47.2569 134.024 46.4509 133.8 48.3989Z" fill="#101828"/>
<path d="M282.214 75.9137C285.5 78.6177 289.596 72.3617 285.652 71.6397C283.674 68.9697 278.672 72.9997 282.214 75.9137ZM284.454 72.4797C284.565 72.5439 284.69 72.5794 284.817 72.5829C284.945 72.5864 285.072 72.5578 285.186 72.4997C285.203 72.6103 285.249 72.7144 285.319 72.8014C285.39 72.8885 285.482 72.9555 285.586 72.9957C286 77.1737 279.582 72.9057 284.454 72.4797Z" fill="#101828"/>
<path d="M294.04 85.123C298.802 87.709 300.458 82.635 297.03 79.211C293.334 77.823 290.326 82.097 294.04 85.123ZM293.928 81.457C294.826 78.765 299.354 82.873 296.34 84.281C294.722 83.861 294.238 83.929 293.928 81.457Z" fill="#101828"/>
<path d="M307.34 91.6833C310.078 93.1513 315.042 89.6273 310.902 86.7393C307.2 85.4453 302.778 88.4813 307.34 91.6833ZM307.74 88.1033C310.248 86.7913 312.94 91.6033 307.634 90.0093C307.468 89.907 307.332 89.762 307.241 89.5893C307.15 89.4166 307.108 89.2227 307.117 89.0278C307.127 88.833 307.189 88.6443 307.297 88.4816C307.405 88.319 307.554 88.1883 307.73 88.1033H307.74Z" fill="#101828"/>
</svg>
