<svg width="380" height="348" viewBox="0 0 380 348" fill="none" xmlns="http://www.w3.org/2000/svg">
<path d="M65.412 251.236C65.326 248.036 65.65 247.712 98.118 239.652C117.092 234.942 116.588 233.818 118.156 238.352C119.466 241.93 120.39 245.638 120.912 249.412C121.35 253.068 121.656 251.782 72.282 264.716C67.95 265.85 66.908 259.974 65.412 251.236ZM70.388 251.738C70.478 252.738 69.374 253.882 96.06 246.424C120.08 239.71 70.12 248.762 70.388 251.738Z" fill="#EAA115"/>
<path d="M58.658 189.179C40.036 180.951 34.686 154.001 54.896 139.075C58.3123 136.553 62.1949 134.734 66.319 133.723C70.4432 132.713 74.7269 132.53 78.922 133.187C81.554 133.751 81.522 133.751 80.658 136.217C80.328 137.157 79.858 137.407 78.818 137.217C63.31 134.459 45.064 146.643 46.446 165.895C48.798 198.695 101.934 191.159 97.938 158.511C96.938 150.331 95.166 146.245 89.236 141.561C87.904 140.507 88.036 136.253 90.056 137.607C119.834 157.495 91.366 203.631 58.658 189.179Z" fill="#EAA115"/>
<path d="M90.22 121.434C90.22 125.376 77.52 174.59 77.5 174.634C75.5 180.016 70.178 175.192 58.246 165.368C57.704 164.924 56.61 164.544 57.246 163.644C58.264 162.208 65.702 167.216 68.682 169.086C73.312 172 73.712 172.8 73.97 171.274C75.326 163.2 84.348 123.454 90.22 121.434Z" fill="#EAA115"/>
<path fill-rule="evenodd" clip-rule="evenodd" d="M70.514 82.6231L63.762 83.8151L63.062 83.9391C63.016 83.9391 58.152 84.8591 58.49 84.9291C53.78 85.9571 49.398 86.8831 45.324 87.7411C8.19999 95.5771 -3.09601 97.9611 0.689986 123.203C3.24599 140.177 34.026 274.133 39.024 282.491C45.694 293.639 64.684 294.233 77.384 291.637C118.352 283.257 132.09 279.171 143.364 272.825C154.464 266.581 156.384 262.023 155.694 249.307C154.95 235.637 151.23 221.635 147.092 206.063C145.192 198.915 143.204 191.435 141.378 183.507C138.967 173.04 136.56 162.572 134.158 152.103V152.097C127.258 122.037 125.152 112.849 120.846 96.2271C117.346 82.7151 114.946 77.8791 101.588 78.2851C100.267 79.5237 98.9828 80.8002 97.736 82.1131C101.83 81.7131 105.456 81.5731 108.212 81.8331C115.712 84.2151 116.308 86.8251 128.94 142.173L129.776 145.833C134.466 166.377 138.676 183.439 142.182 197.653C153.722 244.421 157.642 260.311 145.982 267.685C134.27 275.085 122.582 277.947 113.494 280.111C111.102 280.681 108.57 281.309 105.936 281.961V281.963C80.286 288.325 45.19 297.031 39.602 276.263C38.7091 272.969 37.8024 269.679 36.882 266.393C35.064 259.873 33.248 253.351 31.66 246.781L26.204 224.199C-0.400015 114.167 -1.74601 108.603 9.75599 101.889C16.6 97.8891 21.376 96.0211 55.368 89.5611C57.398 89.1751 59.942 88.6571 62.826 88.0711C66.396 87.3451 70.486 86.5111 74.764 85.6951C73.3132 84.7183 71.8971 83.6937 70.514 82.6231ZM87.522 92.3231C83.086 93.8511 82.386 95.3491 81.676 96.8711C81.19 97.9151 80.696 98.9711 78.99 100.057C73.496 103.557 60.534 105.913 54.062 106.643C46.358 107.507 43.9 105.707 41.77 104.147C40.222 103.013 38.848 102.007 35.762 102.243C29.342 102.735 12.666 108.545 13.466 110.209C13.728 110.749 15.778 109.949 18.838 108.749C23.102 107.081 29.33 104.643 35.43 103.997C38.538 103.669 39.882 104.743 41.43 105.977C43.09 107.297 44.98 108.805 49.516 108.981C57.2263 108.843 64.8809 107.644 72.264 105.417C77.2 103.913 81.8 102.001 83.96 96.8531C84.14 96.6671 84.3 96.4931 84.448 96.3371C84.8014 95.9356 85.1845 95.5612 85.594 95.2171C86.712 94.3391 88.226 93.9671 94.244 92.4891L94.902 92.3291C95.036 92.3371 104.686 90.2971 105 89.3291C104 88.2191 96.266 90.0891 94.94 90.4571C93.102 90.8131 91.54 91.1671 90.204 91.5191C89.788 92.1191 89.304 92.5971 88.486 92.5651C88.161 92.4996 87.8394 92.4188 87.522 92.3231ZM131.682 198.055C140.93 240.129 144.656 257.093 145.096 249.883C144.412 245.873 111.434 93.4871 109.72 93.8231C108.588 94.0471 118.424 138.191 122.88 158.179L124.072 163.539C126.944 176.491 129.47 187.991 131.682 198.055ZM49.352 272.485C49.364 272.531 15.302 119.339 12.502 115.369C11.348 119.143 48.092 272.801 48.106 272.845C48.478 274.189 49.684 273.663 49.352 272.485ZM53.176 275.851C91.062 280.507 130.988 262.247 139.234 258.475C140.022 258.115 140.52 257.885 140.7 257.823C146.922 255.649 108.13 279.823 65.764 278.823C63.332 278.757 52.4 277.907 53.176 275.851ZM92.952 193.465C80.784 196.389 58.16 201.829 64.946 202.427C71.996 201.213 89.562 196.529 96.17 194.765L97.442 194.427C99.474 193.875 100.554 191.627 95.602 192.827L92.952 193.465ZM68.136 208.049C68.026 207.383 68.55 207.225 69.01 207.087H69.014L69.134 207.049L72.704 206.013L72.71 206.011L72.714 206.009C79.27 204.101 79.5 204.035 95.518 200.063C99.674 199.033 99.69 201.035 96.644 201.863C69.11 209.293 68.294 209.027 68.136 208.049ZM59.86 97.5891C59.996 95.2191 56.512 94.2891 55.98 97.6531C55.9882 98.1676 56.2005 98.6578 56.5701 99.0158C56.9397 99.3738 57.4365 99.5703 57.951 99.5621C58.4655 99.5539 58.9557 99.3416 59.3137 98.972C59.6717 98.6023 59.8682 98.1036 59.86 97.5891ZM65.052 96.7251C63.13 96.3251 63.708 94.1851 65.2 94.3971C65.391 94.4103 65.5758 94.4701 65.7382 94.5714C65.9007 94.6727 66.0358 94.8122 66.1318 94.9779C66.2277 95.1435 66.2816 95.3302 66.2886 95.5215C66.2956 95.7128 66.2556 95.9029 66.172 96.0751C66.0706 96.2822 65.9101 96.4545 65.7107 96.5702C65.5113 96.686 65.2821 96.7399 65.052 96.7251Z" fill="#101828"/>
<path d="M255.284 279.936C259.728 280.888 260.654 281.198 301.334 294.336C301.786 294.414 302.214 294.594 302.585 294.864C302.956 295.133 303.26 295.484 303.474 295.89C303.686 296.297 303.802 296.747 303.813 297.206C303.823 297.665 303.728 298.12 303.534 298.536C302.694 301.961 301.628 305.326 300.344 308.61C298.598 312.776 299.646 312.468 274.638 304.41C247.188 295.574 247.792 296.434 248.292 292.992C248.874 288.976 251.252 279.072 255.284 279.936ZM287.33 295.636C281.13 290.104 247.778 281.386 256.898 285.988C262.722 288.926 284.906 295.31 287.33 295.636Z" fill="#EAA115"/>
<path fill-rule="evenodd" clip-rule="evenodd" d="M333.832 158.581C334.02 159.421 334.202 160.263 334.378 161.111C338.298 161.771 342.118 161.637 345.656 158.999L346.332 158.803C346.952 158.623 347.416 158.485 347.89 158.423C349.296 158.231 350.79 158.679 356.72 160.457L357.378 160.655C357.488 160.733 366.838 163.873 367.6 163.199C367.3 161.739 359.686 159.429 358.376 159.065C347.528 155.217 345.632 156.519 343.688 157.853C342.74 158.503 341.78 159.163 339.764 159.233C338.1 159.291 336.054 159.037 333.832 158.581ZM268.45 124.029C268.928 124.581 269.458 125.193 270.038 125.877C263.564 131.563 255.262 158.717 242.294 201.139V201.143C239.688 209.665 236.894 218.803 233.89 228.507L232.47 233.093C214.81 290.127 213.576 294.111 217.428 300.445C223.916 311.113 239.898 317.397 251.828 321.113C255.186 322.159 258.834 323.375 262.652 324.645C285.71 332.327 314.964 342.069 323.792 329.029C330.66 318.897 333.616 309.047 342.458 279.593L342.46 279.591C347.326 263.379 353.974 241.231 364.04 209.829C366.6 201.845 375.844 172.929 376.886 164.503C378.346 152.713 357.712 146.547 342.614 142.033C336.618 140.241 331.494 138.711 328.974 137.191C328.972 137.195 328.74 137.111 328.302 136.957L326.776 136.417C326.11 134.842 325.412 133.282 324.68 131.737C326.986 132.521 329.32 133.321 331.672 134.127C336.696 135.86 341.73 137.562 346.774 139.235C384.464 151.655 382.892 156.983 376.412 178.961C375.964 180.481 375.492 182.081 375.008 183.769C371.702 195.277 366.742 210.695 361.612 226.643C355.138 246.771 348.392 267.741 344.36 282.759C340.518 297.065 334.266 318.583 326.05 330.909C322.306 336.527 316.81 338.397 310.392 338.449C299.658 338.359 289.004 336.599 278.812 333.233C275.311 332.158 271.802 331.107 268.286 330.081C239.046 321.467 206.31 311.825 213.774 285.763C215.304 280.407 258.904 131.521 264.774 128.073C265.604 126.412 266.816 124.971 268.312 123.871L268.45 124.029ZM331.19 148.605C331.072 148.218 330.952 147.832 330.83 147.447C330.991 147.588 331.11 147.771 331.174 147.976C331.237 148.181 331.243 148.397 331.19 148.605ZM369.156 167.041C368.56 166.441 368.262 166.141 319.07 318.501C318.882 319.441 318.882 319.867 319.332 320.083C320.172 320.489 320.582 319.327 320.898 318.435L320.918 318.379C323.804 310.231 370.692 167.609 369.254 167.115C369.216 167.103 369.186 167.071 369.156 167.041ZM274.4 135.979C275.822 138.943 226.558 291.395 225.672 291.141C224.288 290.749 271.736 139.827 274.4 135.979ZM227.828 295.447C227.982 295.385 228.152 295.37 228.315 295.406C228.478 295.442 228.626 295.526 228.74 295.647C256.844 318.729 311.47 324.097 313.91 324.337L313.982 324.343L313.996 324.345C288.496 329.713 229.064 304.749 227.828 295.447ZM275.324 242.013C260.562 237.229 273.392 248.837 303.324 253.977C303.616 253.995 303.874 254.017 304.102 254.035H304.104C305.302 254.135 305.694 254.167 305.84 253.453C305.962 252.823 305.506 252.645 305.066 252.473C304.948 252.425 304.83 252.379 304.724 252.325C303.662 251.767 284.324 244.933 275.324 242.013ZM297.154 260.305C268.954 253.905 267.12 247.383 270.934 248.387C271.934 248.653 299.348 258.343 298.88 259.721C298.706 260.239 298.168 260.257 297.638 260.275C297.476 260.277 297.315 260.287 297.154 260.305Z" fill="#101828"/>
<path d="M185.884 26.032C184.192 25.919 182.541 25.464 181.03 24.6946C179.519 23.9252 178.18 22.8573 177.093 21.5556C176.006 20.2538 175.195 18.7453 174.708 17.1211C174.221 15.4969 174.069 13.7908 174.26 12.106C174.56 8.7562 176.152 5.65465 178.699 3.45759C181.245 1.26053 184.546 0.140331 187.904 0.334008C202.626 1.69201 203.182 27.666 185.884 26.032ZM196.628 15.008C197.882 0.286008 177.554 -1.22399 176.488 11.86C176.002 17.826 180.716 23.744 186.272 24.15C187.554 24.2337 188.839 24.063 190.055 23.6477C191.27 23.2324 192.392 22.5808 193.354 21.7303C194.317 20.8798 195.102 19.8473 195.664 18.6922C196.225 17.5371 196.553 16.2823 196.628 15V15.008Z" fill="#101828"/>
<path d="M190.488 7.43293C181.37 5.03293 178.218 12.5849 181.648 19.0649C179.946 18.3949 178.888 16.0029 178.978 13.0349C179.2 5.65893 187.878 3.97893 190.488 7.43293Z" fill="#101828"/>
<path fill-rule="evenodd" clip-rule="evenodd" d="M138.252 56.9088C144.344 60.6588 145.494 68.5288 136.632 71.2848C140.676 72.8348 147.144 66.8148 143.424 60.4368C142.158 58.2668 140.416 56.8848 138.82 56.7088L138.252 56.9088ZM126.448 61.3268C125.6 61.7068 124.754 62.1048 123.914 62.5208C123.462 71.2088 133.28 80.6208 142.582 75.9248C145.529 74.3105 147.733 71.6134 148.728 68.4037C149.723 65.194 149.431 61.7231 147.914 58.7248C147.166 57.1592 146.102 55.7658 144.788 54.6328C143.956 54.9268 142.998 55.2588 141.9 55.6388C143.668 56.7188 145.18 58.2408 146.146 60.1128C152.176 71.7728 134.132 81.2628 127.4 68.1128C126.272 66.0406 125.934 63.6295 126.448 61.3268Z" fill="#101828"/>
<path d="M291.4 93.7808C288.078 93.5627 284.97 92.0657 282.729 89.6043C280.487 87.1428 279.287 83.9085 279.38 80.5808C279.748 74.7328 285.734 69.4548 292.58 68.9348C309.564 67.6468 309.384 94.9808 291.4 93.7808ZM303.068 81.1808C303.21 78.722 302.391 76.3041 300.784 74.4381C299.177 72.572 296.907 71.404 294.454 71.1808C288.996 70.5088 282.454 75.3808 282.02 80.6608C281.664 84.9308 284.49 90.8968 290.174 91.6308C291.708 91.8058 293.261 91.6737 294.743 91.2422C296.225 90.8108 297.606 90.0886 298.806 89.1177C300.006 88.1469 301.001 86.9469 301.732 85.5876C302.463 84.2284 302.917 82.7371 303.066 81.2008L303.068 81.1808Z" fill="#101828"/>
<path d="M299.662 84.1991C298.078 89.7151 288.834 91.1431 285.846 85.2371C285.188 84.2645 284.854 83.1082 284.894 81.9344C284.933 80.7605 285.344 79.6293 286.066 78.7031C285.138 88.0331 293.75 90.3991 299.662 84.1991Z" fill="#101828"/>
<path d="M311.714 140.441C312.914 139.681 312.868 140.373 314.994 144.567C315.806 146.167 316.594 145.471 316.544 144.179C316.372 139.579 313.506 139.579 315.782 137.763C316.544 137.163 318.248 136.627 317.642 135.645C317.152 134.845 315.786 136.075 314.948 136.557C312.52 137.957 313.052 135.931 309.012 134.439C305.856 133.275 303.046 135.175 303.942 141.023C304.188 142.623 304.166 142.023 297.768 145.439C295.614 146.591 297.592 141.207 296.464 138.319C295.702 138.983 295.12 139.829 294.774 140.779C294.428 141.728 294.328 142.75 294.484 143.749C294.814 148.373 293.246 147.449 291.57 149.481C292.17 149.523 292.51 149.649 292.736 149.543C297.032 147.523 295.888 155.343 302.474 153.841C306.274 152.975 307.212 148.441 306.584 144.609C306.326 143.041 307 143.427 311.714 140.441ZM298.59 150.541C296.496 147.883 297.208 148.317 302.724 145.429C304.388 144.559 304.452 144.289 304.324 147.273C304.084 152.733 300.968 153.559 298.59 150.541ZM305.938 138.079C306.15 134.203 310.7 137.131 310.892 138.209C311.028 138.965 309.914 139.009 309.396 139.409C309.164 139.589 308.906 139.733 308.632 139.839C307.786 140.187 305.692 142.515 305.938 138.079Z" fill="#101828"/>
<path d="M297.086 108.858C291.58 111.458 272.938 122.936 274.774 125.01C275.4 125.718 275.158 125.558 300.34 108.26C299.788 108.109 299.208 108.084 298.645 108.188C298.082 108.291 297.549 108.521 297.086 108.858Z" fill="#101828"/>
<path d="M315.43 178.569C323.368 174.769 327.186 172.791 329.078 169.789L309.838 178.311C310.645 178.892 311.603 179.225 312.596 179.271C313.589 179.317 314.573 179.073 315.43 178.569Z" fill="#101828"/>
<path fill-rule="evenodd" clip-rule="evenodd" d="M301 100.999C320.466 119.999 331.346 143.441 335.628 170.299C335.855 171.266 335.79 172.278 335.443 173.208C335.096 174.139 334.481 174.945 333.676 175.527C330.395 178.208 326.891 180.602 323.202 182.685C322.234 182.319 321.24 181.953 320.224 181.585C323.866 179.835 327.178 177.925 329.504 176.147C332.306 174.009 333.522 173.303 333.85 172.307C334.17 171.337 333.654 170.093 332.942 166.993C325.458 134.469 307.236 110.429 300.786 104.229C300.499 103.84 300.101 103.546 299.645 103.387C299.189 103.227 298.695 103.208 298.228 103.333C297.917 103.415 297.626 103.559 297.372 103.755C287.851 108.786 278.612 114.335 269.696 120.375C268.784 120.995 268.342 121.289 268.306 121.629C268.27 121.969 268.638 122.349 269.348 123.131C286.994 142.591 292.462 157.089 295.424 173.795C294.544 173.561 293.692 173.341 292.872 173.135C291.089 165.444 288.41 157.989 284.892 150.921C277.69 137.091 271.798 130.289 268.454 126.429C265.496 123.013 264.53 121.899 266.414 120.257C274.532 113.179 287.628 105.561 297.456 100.467C298.002 100.084 298.675 99.9259 299.334 100.025C299.994 100.124 300.59 100.473 301 100.999Z" fill="#101828"/>
<path d="M283.862 173.748C293.03 174.462 335.192 187.682 337.812 192.536C340.552 197.61 351.212 196.936 347.286 207.772C336.618 237.148 336.034 245.7 324.638 242.804C319.826 241.58 321.404 245.004 311.992 243.068C295.09 239.596 272.05 229.564 265.754 226.146C263.314 224.822 260.794 222.508 261.384 219.792C264.446 206.683 268.48 193.82 273.45 181.31C275.568 176 278.04 173.296 283.862 173.748ZM315.148 240.7C322.418 241.752 322.76 236.326 325.498 229.656C326.476 227.272 324.684 228.752 313.554 223.446C308.33 220.954 310.1 214.582 312.626 210.236C315.358 205.534 318.09 208.926 330.746 211.52C332.46 211.87 333.514 212.362 336.946 200.166C337.357 199.045 337.354 197.815 336.938 196.696C336.522 195.577 335.72 194.644 334.676 194.064C325.168 187.55 288.076 176.636 283.16 176.586C281.454 176.568 278.806 175.6 275.972 183.218C271.596 194.507 267.812 206.015 264.634 217.698C263.598 221.658 266.482 223.216 271.58 225.862C280.632 230.556 301 238.652 315.148 240.7ZM312.536 218.65C311.682 222.28 330.832 227.53 334.484 228.286C337.416 228.886 337.3 228.188 340.084 219.64C340.97 216.908 341.228 216.578 337.584 216.04C318.72 213.2 314.642 204.904 312.536 218.65ZM345.224 203.596C345.462 200.77 340.348 196.828 340.168 199.29C339.692 202.723 338.741 206.074 337.342 209.246C336.142 212.57 336.082 212.55 339.382 213.416C341.144 213.878 341.886 214.532 342.264 213.346C343.494 210.176 344.484 206.918 345.224 203.6V203.596ZM328.024 240.5C332.75 241.1 333.106 238.2 335.858 231.626C336.702 229.612 334.432 230.786 330.604 229.582C328.298 228.858 329.11 230.852 325.87 237.428C324.452 240.324 324.356 240.278 328.032 240.5H328.024Z" fill="#EAA115"/>
<path d="M324.136 217.714C323.718 222.824 316.602 222.436 316.976 217.562C317.102 216.608 317.55 215.725 318.246 215.06C318.942 214.395 319.845 213.988 320.804 213.906C321.738 214 322.602 214.446 323.22 215.154C323.84 215.86 324.166 216.776 324.136 217.714Z" fill="#EAA115"/>
<path d="M250.716 57.2934C249.33 56.0354 250.778 54.3234 246.096 53.5854C244.752 53.3734 241.754 51.8074 242.168 50.8294C242.388 50.3074 242.368 50.2814 247.466 51.7874C249.35 52.3434 248.256 50.8174 248.05 49.2354C247.692 46.4554 247.05 44.3674 243.438 44.0054C240.384 43.7014 239.67 40.7434 241.542 38.2374C242.542 36.8834 246.014 35.4134 244.002 31.7814C243.966 31.7159 243.946 31.6423 243.946 31.5674C243.946 31.4932 243.963 31.42 243.997 31.3539C244.031 31.2878 244.08 31.2307 244.14 31.1874C244.201 31.1444 244.272 31.117 244.346 31.1074C245.814 30.9194 243.99 35.3594 249.796 34.0254C250.758 33.8054 252.44 33.7854 252.524 34.8634C252.608 35.9414 250.954 35.6234 250.05 35.8134C246.902 36.4714 247.064 36.4134 247.794 39.5894C248.332 41.9494 249.194 43.5354 251.886 43.4754C252.626 43.4574 257.312 45.2374 257.026 48.8754C256.53 55.1554 250.44 52.0754 251.04 56.4034C251.072 56.6394 250.86 56.9174 250.716 57.2934ZM249.964 45.2154C248.964 45.0154 249.342 45.5574 250.66 51.4394C251.25 54.0814 261.524 47.5554 249.964 45.2154ZM245.02 42.4154C245.478 42.2314 246.252 42.8734 246.358 41.8554C246.244 40.4012 245.748 39.0031 244.918 37.8034C244.324 38.0447 243.789 38.4114 243.349 38.8784C242.91 39.3454 242.577 39.9017 242.372 40.5094C242.4 42.2734 243.876 42.1174 245.02 42.4014V42.4154Z" fill="#101828"/>
<path d="M282.154 54.9902L274.934 28.7422C278.074 30.5422 284.162 54.4342 282.154 54.9902Z" fill="#101828"/>
<path d="M222.354 66.3537C211.2 42.1157 211.222 42.1937 211.788 41.8497C214.118 40.4337 223.2 64.2757 222.354 66.3537Z" fill="#101828"/>
<path d="M271.77 24.0401C281.084 24.1801 281.746 24.3221 282.782 26.8401C287.028 37.1821 288.476 48.1501 289.912 59.1081C290.174 61.1081 289.488 61.6981 287.512 61.6761C263.418 61.4101 242.596 62.8601 220.496 72.4661C217.748 73.6661 217.124 72.3101 210.114 58.4001C201.2 40.7121 200.368 41.1361 203.714 39.3721C225.116 28.0661 247.546 23.6781 271.77 24.0401ZM287.228 58.8401C280.628 27.0021 280.518 26.9821 278.498 26.9901C253.014 27.0901 229.198 30.9761 205.808 41.1001C203.342 42.1661 206.046 42.3001 212.208 55.3001C219.324 70.3281 218.704 70.7741 220.822 69.4701C229.978 63.8401 257.258 56.2741 287.228 58.8421V58.8401Z" fill="#101828"/>
<path d="M218.322 330.385C205.574 335.291 191.202 339.715 173.882 337.331C133.328 331.747 110.622 290.375 116.482 289.131C118.412 288.731 141.574 352.799 218.224 327.731C219.836 327.203 218.524 327.377 213.33 326.131C211.348 325.655 201.06 322.503 201.67 320.557C202.308 318.517 208.914 320.575 211.07 321.093C220.232 323.293 228.766 322.045 224.646 328.551C215.806 342.501 213.528 349.043 211.01 347.489C209.876 346.789 210.41 345.707 210.842 344.807C216.706 332.359 220.4 329.415 218.322 330.385Z" fill="#101828"/>
<path d="M110.866 66.5986C108.894 66.9746 109.676 63.5846 105.244 65.3686C103.228 66.1786 99.222 66.2086 99.218 64.9226C99.218 64.0066 103.618 63.8426 105.542 62.8426C100.456 56.3526 101.036 56.4586 99.786 56.9986C93.976 59.5046 91.604 57.1746 91.91 53.7586C92.29 49.5386 94.51 49.4446 92.454 47.6686C92.0519 47.3246 91.7022 46.9237 91.416 46.4786C91.148 46.0486 90.196 45.7466 90.828 45.0926C91.3 44.6026 92.948 46.0926 93.028 46.1726C95.356 48.4666 95.092 45.6046 99.072 44.1846C99.672 43.9686 100.472 43.6786 100.826 44.3046C101.144 44.8766 100.384 45.2846 99.964 45.6646C96.68 48.6266 95.918 48.7086 97.056 49.7466C101.174 53.5026 100.908 54.2726 102.388 53.6066C110.244 50.0666 115.14 55.5906 112.058 60.7366C110.328 63.5986 110.326 63.5986 110.866 66.5986ZM103.11 55.6986C108.548 62.0726 108.258 62.4626 110.256 59.6026C112.118 56.9366 111.728 53.0506 103.11 55.6926V55.6986ZM98.922 54.6766C95.3 50.8126 94.974 49.9826 94.134 52.6206C93.188 55.5866 94.466 57.1846 98.922 54.6706V54.6766Z" fill="#101828"/>
<path d="M139.858 52.4411C133.762 45.2571 128.378 37.4851 121.622 30.7471C124.43 29.2331 137.936 47.9231 139.858 52.4411Z" fill="#101828"/>
<path d="M87.678 88.0485C80.4369 85.4683 73.8991 81.2317 68.586 75.6765C68.114 75.2045 68.54 74.8665 69.08 75.2565C75.1205 79.6272 81.3922 83.6691 87.868 87.3645C88.428 87.6785 88.368 88.2785 87.678 88.0485Z" fill="#101828"/>
<path d="M88.496 94.9787C84.466 94.1867 73.028 88.3867 63.496 78.8707C61.576 76.9527 61.526 76.6187 62.646 74.1127C67.6459 63.2279 74.7386 53.4332 83.52 45.2867C101.094 28.5407 114.72 26.7107 122.174 24.0747C125.774 22.7987 127.874 24.1407 130.286 26.5007C138.138 34.0704 144.599 42.9618 149.372 52.7687C150.836 55.8107 150.392 54.8367 130.572 62.0587C113.512 68.2787 96.996 83.2587 90.382 93.6587C89.94 94.3747 89.438 95.0127 88.496 94.9787ZM146.896 53.3507C141.301 43.7298 134.61 34.7902 126.956 26.7107C126.576 26.2665 126.059 25.9624 125.486 25.8471C124.913 25.7318 124.318 25.8119 123.796 26.0747C97.996 34.3747 78.276 48.4367 64.56 75.0147C64.4417 75.1762 64.3583 75.3605 64.3149 75.5559C64.2714 75.7513 64.269 75.9536 64.3077 76.15C64.3464 76.3464 64.4255 76.5326 64.5398 76.697C64.6541 76.8613 64.8013 77.0001 64.972 77.1047C71.5921 83.0408 78.9243 88.1311 86.8 92.2587C87.0272 92.441 87.295 92.566 87.5807 92.6231C87.8664 92.6803 88.1616 92.6678 88.4415 92.5868C88.7213 92.5058 88.9776 92.3586 89.1886 92.1578C89.3997 91.9569 89.5593 91.7082 89.654 91.4327C95.5 81.4327 111.874 65.3927 130.372 59.0127C142.584 54.8007 146.346 54.9127 146.886 53.3527L146.896 53.3507Z" fill="#101828"/>
</svg>
