<svg width="335" height="264" viewBox="0 0 335 264" fill="none" xmlns="http://www.w3.org/2000/svg">
<path fill-rule="evenodd" clip-rule="evenodd" d="M115.296 208.445C117.374 209.637 119.135 210.871 119.41 211.585C132.403 211.679 146.003 211.752 159.781 211.804C160.43 210.851 160.987 209.778 161.413 208.534C145.538 208.5 129.937 208.469 115.296 208.445ZM332.669 210.783C323.047 211.482 275.708 211.864 220.632 211.9C220.009 210.895 219.567 209.85 219.239 208.689C274.884 208.867 323.417 209.131 333.459 209.519C335.837 209.609 335.152 210.602 332.669 210.783Z" fill="#101828"/>
<path fill-rule="evenodd" clip-rule="evenodd" d="M91.3748 243.688C88.8081 247.205 86.2688 250.742 83.7569 254.298C83.6644 254.431 83.5559 254.558 83.4473 254.68C81.2926 257.173 80.7841 257.762 262.458 256.817C261.116 256.159 259.799 255.449 258.512 254.688C201.967 254.564 92.621 254.624 85.994 254.865L86.5307 254.128L86.5327 254.124C87.1558 253.271 87.6724 252.564 88.203 251.866C90.2747 249.129 92.3383 246.386 94.3938 243.637L91.3748 243.688ZM107.35 225.923C108.245 224.669 108.978 223.628 109.585 222.766C112.52 218.603 112.52 218.601 113.358 218.641C122.19 219.065 135.896 219.28 151.522 219.361C151.653 219.23 151.793 219.103 151.94 218.979C152.65 218.391 153.373 217.818 154.107 217.26L154.41 217.025C116.118 216.87 111.885 216.969 109.774 219.135C109.514 219.416 109.269 219.711 109.043 220.02L108.846 220.275C108.401 220.85 107.947 221.439 107.489 222.038C107.431 223.485 107.386 224.772 107.35 225.923ZM227.028 218.024C227.506 218.366 227.958 218.713 228.372 219.067C248.243 218.872 262.782 218.661 264.042 218.643L264.13 218.641C264.265 218.625 264.401 218.625 264.536 218.639C265.069 218.725 265.515 219.359 267.903 222.749C268.502 223.6 269.224 224.625 270.102 225.861C271.049 225.861 272.02 225.903 273.01 225.99C271.503 223.996 270.032 222.07 268.641 220.275L268.546 220.153C268.064 219.529 267.68 219.031 267.21 218.637C265.364 217.083 262.197 217.099 246.587 217.178C242.159 217.2 236.732 217.228 230.049 217.226L225.934 217.224C226.282 217.485 226.646 217.753 227.028 218.024Z" fill="#101828"/>
<path d="M297.004 41.0598C296.538 39.6025 116.928 41.9502 81.4293 42.8185C80.2137 42.7583 79.013 43.1068 78.0184 43.8084C77.0239 44.51 76.293 45.5244 75.942 46.6898C74.8204 50.0726 75.4395 157.813 76.2757 166.317C76.346 167.032 77.1058 167.121 77.1762 166.317C77.5782 161.678 77.4757 130.101 77.544 49.0555C77.544 43.6285 82.5006 44.8345 92.9928 44.7501C310.175 42.9049 297.432 42.4004 297.004 41.0598Z" fill="#101828"/>
<path d="M86.6131 50.6021C86.594 51.2997 86.3034 51.9623 85.8032 52.449C85.303 52.9357 84.6327 53.208 83.9348 53.208C83.2369 53.208 82.5665 52.9357 82.0663 52.449C81.5661 51.9623 81.2756 51.2997 81.2565 50.6021C81.168 46.8434 86.5146 47.1971 86.6131 50.6021Z" fill="#101828"/>
<path d="M91.4049 51.949C90.9209 51.9518 90.4548 51.766 90.1056 51.4309C89.7563 51.0958 89.5512 50.6379 89.534 50.1541C89.5167 49.6704 89.6886 49.199 90.0131 48.8399C90.3376 48.4807 90.7893 48.2622 91.2723 48.2305C91.7563 48.2277 92.2224 48.4135 92.5717 48.7486C92.921 49.0837 93.126 49.5417 93.1432 50.0254C93.1605 50.5091 92.9886 50.9805 92.6641 51.3396C92.3396 51.6988 91.8879 51.9173 91.4049 51.949Z" fill="#101828"/>
<path d="M301.486 47.4084C301.49 47.2475 301.54 47.0912 301.63 46.9578C301.72 46.8244 301.847 46.7196 301.994 46.6556C302.142 46.5916 302.305 46.5711 302.464 46.5966C302.623 46.6221 302.771 46.6924 302.891 46.7994C303.052 46.9461 303.15 47.1471 303.164 47.3642C303.522 49.0827 303.516 140.534 302.843 166.109C302.821 166.913 303.229 168.362 301.786 168.29C300.453 168.221 300.863 166.863 300.847 166.004C300.232 132.186 301.345 48.5159 301.486 47.4084Z" fill="#101828"/>
<path fill-rule="evenodd" clip-rule="evenodd" d="M310.523 28.5998C317.208 34.0791 317.325 47.5722 318.266 81.1674C318.935 105.098 319.693 160.607 314.246 184.274C313.709 186.748 312.47 189.014 310.677 190.801C308.883 192.587 306.613 193.819 304.137 194.346C298.762 195.931 293.201 196.798 287.599 196.927C282.829 197.02 278.064 197.291 273.296 197.56C267.718 197.876 262.138 198.194 256.549 198.226C223.203 198.419 218.666 197.991 218.18 199.195C218.079 199.446 218.154 199.767 218.18 200.181C218.783 209.458 219.163 212.418 227.024 218.032C230.465 220.491 232.491 223.268 229.476 226.237C223.418 232.201 185.3 230.617 166.856 229.851L165.212 229.783C149.606 229.14 147.783 222.468 151.936 218.987C152.642 218.396 153.371 217.833 154.101 217.272C157.747 214.465 161.393 211.655 162.177 205.092L162.342 203.723C162.949 198.736 162.989 198.407 161.16 198.362C147.48 198.027 143.846 198.22 140.893 198.376C136.855 198.592 134.091 198.738 108.665 197.374C108.832 192.123 108.946 187.04 109.027 182.682C137.595 183.352 176.981 183.442 178.725 183.221C189.013 181.923 141.846 180.526 109.069 180.264C109.124 177.02 109.171 173.776 109.21 170.532C134.228 170.522 162.282 170.717 189.354 170.906C253.19 171.35 311.57 171.756 311.826 169.35H311.834C314.435 144.84 317.142 54.9469 311.906 37.2489C310.159 31.3415 307 29.1285 302.883 28.6863L302.807 28.6842C299.384 28.5757 181.304 24.8592 107.473 28.0833C103.73 28.2461 100.239 28.3486 97.0008 28.4451C79.2063 28.9636 68.9814 29.2631 66.2458 38.3081C60.7484 56.4866 62.9092 113.333 63.8478 137.968C63.9198 139.841 63.9894 141.715 64.0569 143.588C64.5252 156.776 64.8347 163.587 65.2388 167.103L61.1987 167.127C57.842 138.927 59.1887 90.0073 59.5384 77.3504C59.5464 77.077 59.5545 76.8197 59.5585 76.5805C60.867 29.7194 62.676 27.4581 81.2042 25.016C106.193 21.7417 234.069 22.6201 265.298 24.212C291.215 25.5386 304.001 23.2512 310.525 28.5998H310.523ZM181.779 226.832C205.832 227.421 235.462 228.145 224.688 220.569H224.696C217.494 215.506 215.008 211.249 215.808 199.856C215.832 199.522 215.912 199.267 215.838 199.07C215.494 198.167 211.848 198.523 184.114 198.435C168.663 198.385 165.682 197.972 165.17 198.909C165.049 199.132 165.067 199.432 165.09 199.832C165.381 204.859 164.917 210.706 161.821 214.674C160.967 215.769 173.109 215.592 186.361 215.399C194.719 215.277 203.517 215.148 209.776 215.329C205.253 218.462 174.681 219.086 161.315 217.055C161.23 217.043 161.146 217.027 161.059 217.011C160.553 216.921 160.02 216.824 159.516 217.232C158.342 218.183 157.325 218.965 156.473 219.622C153.072 222.241 152.264 222.864 154.4 224.129C158.087 226.311 165.395 226.468 174.661 226.667L176.975 226.717L181.779 226.832ZM190.375 181.008C190.188 181.425 190.084 181.874 190.07 182.331H190.078C190.091 183.227 190.448 184.084 191.076 184.724C191.704 185.363 192.555 185.736 193.451 185.766C194.347 185.793 195.219 185.473 195.886 184.873C196.553 184.274 196.963 183.44 197.03 182.546C197.044 182.089 196.968 181.633 196.807 181.205C196.603 180.671 196.271 180.195 195.839 179.819C195.408 179.443 194.891 179.179 194.334 179.05C193.776 178.922 193.196 178.932 192.643 179.08C192.091 179.228 191.583 179.51 191.165 179.901C190.832 180.214 190.563 180.591 190.375 181.008ZM204.387 180.845C204.056 180.512 203.605 180.323 203.135 180.321L203.143 180.327C202.901 180.31 202.659 180.343 202.431 180.425C202.203 180.507 201.994 180.635 201.818 180.801C201.641 180.965 201.5 181.165 201.403 181.386C201.306 181.607 201.256 181.846 201.255 182.087C201.253 182.329 201.3 182.569 201.394 182.792C201.489 183.015 201.628 183.216 201.804 183.382C201.979 183.549 202.186 183.678 202.413 183.762C202.64 183.846 202.881 183.883 203.123 183.87C203.474 183.873 203.819 183.771 204.113 183.577C204.406 183.384 204.635 183.107 204.771 182.782C204.907 182.458 204.942 182.1 204.874 181.755C204.806 181.41 204.636 181.094 204.387 180.845ZM262.486 179.718C196.793 180.019 209.342 182.182 258.486 181.527H258.494C295.8 181.03 299.215 181.499 299.466 180.813C299.498 180.723 299.476 180.612 299.47 180.475C299.466 180.385 299.464 180.305 299.438 180.23C299.167 179.446 296.296 179.561 262.486 179.718Z" fill="#101828"/>
<path d="M247.715 145.375C207.402 145.322 193.043 100.845 221.022 79.8486C247.779 59.7687 287.722 80.4918 283.245 113.476C282.497 120.012 279.932 126.207 275.841 131.358C271.75 136.51 266.297 140.412 260.1 142.621C249.936 146.376 247.389 144.293 248.708 146.384C249.065 146.95 248.675 147.232 244.945 153.256C244.73 153.649 244.412 153.977 244.025 154.204C243.638 154.43 243.196 154.546 242.748 154.54C222.045 154.353 221.154 154.741 221.241 153.179C221.301 152.152 222.228 152.156 223.05 152.148C249.491 151.861 238.7 156.038 247.715 145.375ZM271.177 107.894C272.024 97.1748 259.318 81.8244 240.149 84.6886C217.235 88.1056 210.725 116.939 230.668 129.19C246.792 139.093 271.133 130.816 271.177 107.894ZM243.074 78.737C243.074 76.0979 244.153 74.918 237.162 76.325C207.05 82.355 199.147 119.598 225.775 136.042C229.548 138.372 228.853 137.509 231.09 133.787C232.607 131.254 225.094 132.024 218.865 119.516C211.659 105.044 220.023 85.5047 240.824 81.8586C243.212 81.4264 243.072 81.4124 243.074 78.737ZM246.708 75.7703C245.61 75.6839 245.176 76.0255 245.274 77.1511C245.548 80.3229 244.47 81.3621 246.728 81.537C265.302 82.9721 274.896 97.5446 274.373 109.054C273.615 125.761 264.082 128.149 265.391 129.829C267.664 132.756 267.622 133.582 268.506 132.816C289.764 114.398 279.127 78.2808 246.708 75.7703ZM263.877 136.221C265.957 134.995 265.973 135.015 264.681 133.102C263.63 131.532 263.602 130.507 261.978 131.534C247.238 140.872 234.746 133.602 233.689 134.078C232.553 134.589 232.483 136.394 231.729 137.524C231.198 138.328 231.196 138.784 232.296 139.158C237.45 141.03 242.955 141.738 248.416 141.23C253.876 140.722 259.156 139.012 263.877 136.221Z" fill="#EAA115"/>
<path d="M265.903 5.09386C255.489 6.63553 251.875 7.7752 251.395 4.8004C251.14 3.23059 253.246 2.26177 254.828 2.09695C268.594 0.663815 277.824 -1.59743 276.2 4.51899C274.85 9.72582 273.207 14.8527 271.282 19.8754C270.637 21.5256 269.674 22.816 268.016 22.3055C265.342 21.4854 266.894 18.0845 269.25 10.7922C269.975 8.54302 270.351 8.40031 263.779 13.5379C163.56 91.9138 170.732 90.8384 172.623 67.629C172.846 64.8893 174.096 65.0823 154.752 77.5483C94.1807 116.581 94.3355 116.004 92.8441 114.331C91.0552 112.331 88.7537 112.295 172.129 60.5739C174.667 59 177.875 58.7789 177.757 62.2402C177.206 79.1242 167.861 81.0518 200.886 55.8986C200.95 55.8705 265.774 5.81143 265.903 5.09386Z" fill="#EAA115"/>
<path d="M149.247 107.997C149.263 106.017 149.697 105.603 151.618 105.569C169.304 105.244 168.965 104.524 169.003 107.754C169.184 123.565 169.437 137.83 169.499 156.155C169.512 159.632 169.451 159.837 166.014 160.038C160.903 160.336 155.783 160.609 150.654 160.47C147.765 160.394 148.827 160.49 149.247 107.997ZM166.862 117.597C167.148 104.854 169.604 107.678 153.114 107.975C150.404 108.023 151.468 108.106 151.687 130.035C151.687 130.885 151.719 154.217 151.769 155.065C151.944 158.028 153.699 156.89 164.818 156.796C168.432 156.766 166.058 153.435 166.862 117.597Z" fill="#EAA115"/>
<path d="M122.735 121.378C122.831 119.285 123.097 120.099 140.529 119.724C143.279 119.663 142.586 119.599 142.839 157.682C142.859 161.216 142.718 161.22 139.201 161.534C134.176 161.982 129.175 161.333 124.166 161.594C122.817 161.662 122.369 161.16 122.389 159.775C122.544 148.356 122.281 131.146 122.735 121.378ZM129.356 122.57C124.733 122.614 124.873 122.304 124.898 125.169C125.185 158.257 124.662 158.195 126.148 158.221C146.537 158.573 138.196 162.715 140.332 123.217C140.429 121.418 139.279 122.477 129.356 122.57Z" fill="#EAA115"/>
<path d="M96.7777 135.568C96.7777 132.714 98.3857 133.99 114.478 133.572C117.589 133.49 116.634 133.906 117.055 159.099C117.097 161.529 117.36 161.594 98.1043 161.775C95.3244 161.805 96.7716 161.296 96.7777 135.568ZM99.2681 148.39C99.4329 158.736 98.7334 159.121 100.675 158.953C112.787 157.897 114.327 159.905 114.283 157.447C114.162 150.844 114.253 143.548 114.387 136.933C114.421 135.182 114.263 136.109 100.496 136.254C98.1847 136.282 99.0751 136.27 99.2681 148.39Z" fill="#EAA115"/>
<path d="M102.056 66.6113C139.701 65.9199 141.181 65.9279 141.251 68.6213C141.303 70.4806 139.597 70.8323 130.67 70.967C89.7829 71.5559 88.4402 71.5398 88.197 69.0977C87.9357 66.4425 94.8862 66.744 102.056 66.6113Z" fill="#EAA115"/>
<path d="M110.458 78.9566C121.939 79.1093 125.131 78.3375 125.231 81.0269C125.275 82.2811 124.307 82.8841 122.293 83.0369C115.585 83.5454 95.646 84.1223 90.8361 83.2379C90.3975 83.2151 89.9826 83.0318 89.6705 82.7229C89.3583 82.4139 89.1707 82.001 89.1434 81.5626C89.1161 81.1243 89.2509 80.6913 89.5223 80.346C89.7937 80.0007 90.1826 79.7673 90.615 79.6902C92.6612 78.9566 108.283 78.9264 110.458 78.9566Z" fill="#EAA115"/>
<path d="M232.119 63.0078C250.778 63.5746 249.849 63.1606 250.754 64.6158C254.171 70.1232 254.533 70.6639 253.568 71.2488C252.866 71.6709 252.488 71.0478 252.179 70.6056C247.176 63.5405 252.844 65.9706 228.441 64.7264C227.588 64.6821 226.175 64.8711 226.147 63.9746C226.117 62.9576 226.439 63.251 232.119 63.0078Z" fill="#EAA115"/>
<path d="M205.478 112.986C205.541 114.071 205.539 114.092 194.5 114.648C184.166 115.171 183.877 115.018 183.865 113.77C183.853 112.435 184.018 112.697 200.97 111.961C200.982 112.383 205.386 111.203 205.478 112.986Z" fill="#EAA115"/>
<path d="M225.247 65.1865C225.196 65.925 224.857 66.614 224.303 67.1056C223.75 67.5971 223.025 67.852 222.286 67.8155C221.547 67.7806 220.85 67.4578 220.346 66.9162C219.842 66.3745 219.569 65.6571 219.587 64.9171C219.7 64.1667 220.069 63.4784 220.631 62.9683C221.193 62.4583 221.914 62.1577 222.672 62.1172C223.402 62.2251 224.068 62.5971 224.542 63.1628C225.017 63.7284 225.268 64.4484 225.247 65.1865Z" fill="#EAA115"/>
<path d="M180.046 117.187C176.416 117.102 177.145 111.599 180.331 111.629C184.235 111.661 183.495 117.275 180.046 117.187Z" fill="#EAA115"/>
<path d="M217.474 155.801C217.122 155.805 216.773 155.738 216.448 155.604C216.123 155.469 215.829 155.271 215.583 155.019C215.21 154.642 214.96 154.161 214.866 153.639C214.771 153.118 214.838 152.579 215.056 152.096C215.273 151.613 215.633 151.207 216.086 150.931C216.539 150.656 217.065 150.525 217.595 150.555C220.672 150.603 221.265 155.843 217.474 155.801Z" fill="#EAA115"/>
<path d="M295.782 235.064C302.598 239.908 304.901 246.838 303.595 254.919C300.58 273.477 258.756 259.051 251.182 248.734C240.272 233.882 266.002 213.896 295.782 235.064ZM299.024 259.385C301.462 256.442 303.124 249.409 300.489 246.643C288.863 234.439 270.741 232.272 268.783 233.84C267.769 234.575 266.556 234.987 265.304 235.023C264.052 235.059 262.817 234.716 261.762 234.041C261.296 233.614 260.719 233.327 260.098 233.21C259.476 233.094 258.835 233.153 258.245 233.381C251.725 234.788 252.243 235.007 250.933 239.369C250.386 241.188 252.01 241.45 252.856 242.157C255.2 244.253 257.936 245.863 260.907 246.895C263.877 247.927 267.022 248.36 270.16 248.169C282.94 247.363 294.276 247.5 299.024 259.395V259.385ZM250.856 242.193C249.327 257.168 305.126 269.841 295.35 256.217C284.861 241.614 268.701 258.657 250.856 242.203V242.193ZM300.397 244.947C302.497 237.964 269.013 218.061 253.966 233.45C255.891 232.885 257.865 232.497 259.861 232.286C261.379 232.115 264.046 228.437 269.003 232.173C270.309 233.166 286.892 230.977 300.397 244.957V244.947Z" fill="#101828"/>
<path d="M57.0118 204.431C111.453 205.976 107.937 204.057 113.091 206.708C114.239 207.299 119.764 210.599 119.428 211.843C119.428 211.874 32.7069 209.695 23.1494 210.085C22.1142 210.127 22.1966 211.409 23.1835 211.506C26.5704 211.843 42.8293 211.399 80.963 212.649C106.691 213.494 107.604 211.956 107.374 214.056C106.972 217.707 107.374 217.988 107.2 228.625C107.2 229.284 106.93 229.505 106.235 229.473C86.0262 228.555 33.0386 228.764 23.0026 229.543C20.9926 229.702 20.7394 231.073 22.8217 231.228C28.5161 231.654 51.822 231.256 105.561 231.365C107.149 231.365 107.772 231.164 106.802 240.715C106.46 244.146 106.99 243.352 62.2217 244.082C17.3585 244.813 17.7827 246.566 17.5997 241.965C17.5817 241.543 17.5093 241.175 17.5153 240.886C17.5616 238.844 18.3053 239.294 21.274 239.34C91.4049 240.436 85.8694 238.394 85.8593 237.895C85.8392 236.946 84.5729 237.354 83.8493 237.352C83.7971 237.352 20.456 236.85 18.7093 236.918C17.1656 236.978 17.5374 236.701 17.5535 226.579C17.5535 224.143 20.6087 224.41 37.7299 224.084C78.6535 223.304 92.8743 222.613 102.106 220.738C102.307 220.695 103.312 219.843 102.052 219.803C100.544 219.755 95.3003 220.187 70.7602 220.169C47.6975 220.151 35.9872 222.299 21.1132 222.657C12.5989 222.858 14.1526 220.951 3.65637 220.281C3.34683 220.261 2.96694 220.396 2.88051 219.992C2.80614 219.642 3.11367 219.409 3.39909 219.292C16.4641 213.974 26.3131 218.211 59.0962 217.315C76.9852 216.826 95.7124 217.315 101.178 216.766C103.218 216.565 103.372 215.57 101.031 215.538C17.656 214.382 17.6902 215.9 17.6882 212.883C17.6781 199.866 17.2681 200.009 19.3163 200.053C81.968 201.367 96.4159 200.911 99.656 200.599C100.661 200.501 101.425 199.679 99.6801 199.528C90.1728 198.698 20.7092 198.043 18.8399 198.073C17.8952 198.089 17.4992 198.041 17.4791 197.1C17.4048 193.579 10.2632 193.918 86.999 195.964C108.534 196.537 108.486 195.788 108.132 198.073C107.509 202.105 108.759 203.267 106.108 203.188C88.7839 202.678 38.7389 202.555 28.0156 202.384C25.5292 202.346 25.1614 203.751 27.901 203.976C31.5351 204.278 40.6062 203.964 57.0118 204.431Z" fill="#EAA115"/>
<path d="M100.185 187.107C90.8341 185.784 59.9143 185.274 19.8731 186.876C16.7375 187.002 17.6138 185.81 18.8178 185.607C25.7041 184.448 32.0034 182.914 38.4696 182.331C70.2175 179.473 95.4531 182.494 100.156 181.517C104.86 180.54 101.389 180.044 99.9414 179.979C14.8782 176.16 28.6527 184.671 1.74084 186.856C0.414241 186.964 0.450422 185.971 1.08357 185.493C5.50007 181.734 10.3602 178.531 15.5556 175.953C19.2097 174.392 88 172.653 107.147 174.824C109.559 175.097 109.041 174.647 108.715 191.37C108.607 196.918 108.737 192.829 19.051 192.845C18.0218 192.845 17.5555 192.791 17.5515 191.893C17.5374 188.025 17.5213 188.634 21.3705 188.562C85.3528 187.368 84.183 189.095 99.8409 189.229C103.76 189.264 100.388 187.137 100.185 187.107Z" fill="#EAA115"/>
<path d="M109.232 169.72C109.127 174.246 109.823 173.338 105.529 172.891C72.8928 169.505 36.3852 172.182 17.8932 173.744C13.5556 175.305 3.80713 176.218 6.73771 174.077C16.2892 167.093 17.2701 167.131 18.9686 167.137C108.293 167.491 109.338 165.241 109.232 169.72Z" fill="#EAA115"/>
</svg>
